<svg width="24" height="24" viewBox="0 0 24 24" fill="none" xmlns="http://www.w3.org/2000/svg">
<path d="M12.1174 13.8098C12.2442 13.8853 12.3539 13.9046 12.4992 13.9046C12.6275 13.9046 12.7728 13.8676 12.8826 13.8098L21 8.93871V7.64864C21 7.17471 20.7635 6.73933 20.3801 6.5112L13.1191 2.17029C12.9383 2.05784 12.7187 2 12.4992 2C12.2813 2 12.0803 2.05784 11.8793 2.17029L4.6199 6.5112C4.23652 6.73933 4 7.17471 4 7.64864V16.3497C4 16.806 4.23652 17.2414 4.6199 17.4695L11.8793 21.8297C12.0803 21.9422 12.2813 22 12.4992 22C12.7187 22 12.9383 21.9422 13.1191 21.8297L20.3801 17.4695C20.7635 17.2414 21 16.806 21 16.3497V15.0613L12.8826 19.934C12.7914 19.9902 12.6461 20.0288 12.4992 20.0288C12.3725 20.0288 12.2442 20.0095 12.1174 19.934L8.24961 17.6013V15.5738L12.1174 17.8856C12.2442 17.9611 12.3725 17.9997 12.4992 17.9997C12.6461 17.9997 12.7728 17.9611 12.8826 17.8856L21 13.0145V10.9662L12.8826 15.8581C12.7728 15.9144 12.6275 15.9529 12.4992 15.9529C12.3539 15.9529 12.2442 15.9336 12.1174 15.8581L8.24961 13.5254V11.4787L12.1174 13.8098Z" fill="#164DFF"/>
</svg>
