<svg width="100%" height="100%" viewBox="0 0 24 24" fill="none" xmlns="http://www.w3.org/2000/svg">
<path d="M19.4999 14.625C19.4999 15.6196 18.976 16.107 17.9999 16.1242V16.1249H6.00009V16.1242C5.02397 16.107 4.50009 15.6196 4.50009 14.6249C4.50009 13.6305 5.02397 13.1429 6.00009 13.1258V13.1249H17.9999V13.1258C18.976 13.1429 19.4999 13.6305 19.4999 14.6249M17.9999 16.8758V16.875H6.00009V16.8759C5.02397 16.893 4.50009 17.3806 4.50009 18.3753C4.50009 19.37 5.02397 19.8571 6.00009 19.8743V19.875H17.9999V19.8741C18.976 19.8571 19.4999 19.3697 19.4999 18.375C19.4999 17.3803 18.976 16.893 17.9999 16.8759M21.7499 8.62669V8.62584C20.774 8.64309 20.2499 9.1305 20.2499 10.1252V18.375C20.2499 19.3697 20.774 19.8568 21.7499 19.8741V19.8726C23.214 19.8211 24 18.3588 24 15.375V11.625C24 9.63591 23.214 8.66119 21.75 8.62659M2.25 8.62575V8.62669C0.786094 8.66109 0 9.63581 0 11.625V15.375C0 18.3588 0.786 19.8209 2.25 19.8725V19.8741C3.22613 19.857 3.75 19.3696 3.75 18.375V10.125C3.75 9.13041 3.22613 8.643 2.25 8.62575ZM21.75 7.875C21.75 5.38847 20.44 4.17 18 4.12697V4.125H6V4.12697C3.56016 4.17009 2.25 5.38847 2.25 7.87509V7.87631C3.71409 7.90209 4.50009 8.63316 4.50009 10.1251C4.50009 11.6169 5.28609 12.3479 6.75009 12.3738V12.375H17.2501V12.3739C18.7139 12.3481 19.4999 11.617 19.4999 10.1252C19.4999 8.63325 20.2859 7.90219 21.7499 7.87641L21.75 7.875Z" fill="#E42528"/>
</svg>
