<svg viewBox="0 0 128 128" xmlns="http://www.w3.org/2000/svg"><path d="m101.4 77.2c0 5-2.7 7.5-7.6 7.7h-59.9c-4.9 0-7.6-2.5-7.6-7.7 0-5 2.7-7.5 7.6-7.7h60.2c4.9.2 7.3 2.7 7.3 7.7zm-7.3 11.5h-60.2c-4.9 0-7.6 2.4-7.6 7.7 0 5 2.7 7.4 7.6 7.7h60.2c4.9 0 7.6-2.5 7.6-7.7-.3-5.3-2.7-7.7-7.6-7.7zm18.6-42.1c-4.9 0-7.6 2.5-7.6 7.4v42.1c0 5 2.7 7.5 7.6 7.7 7.4-.2 11.3-7.7 11.3-22.9v-18.9c0-10.2-3.9-15.2-11.3-15.4zm-97.4 0c-7.4.2-11.3 5.2-11.3 15.4v18.9c0 15.2 3.9 22.7 11.3 22.9 4.9 0 7.6-2.4 7.6-7.7v-41.8c-.2-5-2.7-7.5-7.6-7.7zm97.4-3.8c0-12.7-6.6-18.7-18.6-18.9h-60.2c-12.2.2-18.6 6.5-18.6 18.9 7.4 0 11.3 4 11.3 11.5s3.9 11.4 11.3 11.4h52.5c7.3 0 11.3-3.9 11.3-11.4-.3-7.7 3.9-11.2 11-11.5z" fill="#e42528"/></svg>