<svg width="24" height="24" viewBox="0 0 24 24" fill="none" xmlns="http://www.w3.org/2000/svg">
<g clip-path="url(#clip0_819_48)">
<path d="M20.9592 10C20.7959 7.84 19.7347 5.8 18.102 4.32C16.4286 2.84 14.2653 2 12.0204 2C9.73469 2 7.57143 2.84 5.89796 4.32C4.22449 5.8 3.20408 7.8 3.04082 10C3 10.24 3 10.48 3 10.76C3 12.72 3.69388 14.64 4.95918 16.2C6.22449 17.76 7.97959 18.84 9.97959 19.28L12.0204 22L14.0612 19.28C16.0612 18.84 17.8163 17.76 19.0816 16.2C20.3469 14.64 21.0408 12.72 21.0408 10.76C21 10.52 21 10.24 20.9592 10ZM11.3673 15.24C11.3673 15.28 11.3673 15.32 11.3265 15.36C11.3265 15.4 11.2857 15.4 11.2449 15.44C11.2041 15.44 11.1633 15.48 11.1224 15.48C11.0816 15.48 11.0408 15.48 11 15.44L7.69388 13.56C7.57143 13.48 7.44898 13.4 7.36735 13.24C7.28571 13.12 7.2449 12.96 7.2449 12.84V9.2C7.2449 9.16 7.2449 9.12 7.28571 9.08C7.28571 9.04 7.32653 9.04 7.36735 9C7.40816 9 7.44898 8.96 7.4898 8.96C7.53061 8.96 7.57143 8.96 7.61225 9L10.9184 10.88C11.0408 10.96 11.1633 11.04 11.2449 11.2C11.3265 11.32 11.3673 11.48 11.3673 11.6V15.24ZM12.0204 9.92C11.8571 9.92 11.7347 9.88 11.6122 9.8L8.22449 7.88C8.18367 7.88 8.18367 7.84 8.14286 7.8C8.14286 7.76 8.10204 7.72 8.10204 7.68C8.10204 7.64 8.10204 7.6 8.14286 7.56C8.14286 7.52 8.18367 7.52 8.22449 7.48L11.5714 5.6C11.6939 5.52 11.8571 5.48 11.9796 5.48C12.1429 5.48 12.2653 5.52 12.3878 5.6L15.7755 7.52C15.8163 7.52 15.8163 7.56 15.8571 7.6C15.8571 7.64 15.898 7.68 15.898 7.72C15.898 7.76 15.898 7.8 15.8571 7.84C15.8571 7.88 15.8163 7.88 15.7755 7.92L12.3878 9.84C12.3061 9.88 12.1429 9.92 12.0204 9.92ZM16.7143 12.84C16.7143 13 16.6735 13.12 16.5918 13.24C16.5102 13.36 16.4286 13.48 16.2653 13.56L12.9592 15.44C12.9184 15.44 12.8776 15.48 12.8367 15.48C12.7959 15.48 12.7551 15.48 12.7143 15.44C12.6735 15.44 12.6735 15.4 12.6327 15.36C12.6327 15.32 12.5918 15.28 12.5918 15.24V11.6C12.5918 11.44 12.6327 11.32 12.7143 11.2C12.7959 11.08 12.8776 10.96 13.0408 10.88L16.3469 9C16.3878 9 16.4286 8.96 16.4694 8.96C16.5102 8.96 16.551 8.96 16.5918 9C16.6327 9 16.6327 9.04 16.6735 9.08C16.6735 9.12 16.7143 9.16 16.7143 9.2V12.84Z" fill="#FF6B2B"/>
<path d="M11.3265 15.36C11.3265 15.32 11.3674 15.28 11.3674 15.24V11.6C11.3674 11.44 11.3265 11.32 11.2449 11.2C11.1633 11.08 11.0816 10.96 10.9184 10.88L7.61225 8.99999C7.57143 8.99999 7.53062 8.95999 7.4898 8.95999C7.44899 8.95999 7.40817 8.95999 7.36735 8.99999C7.32654 8.99999 7.32654 9.03999 7.28572 9.07999C7.28572 9.11999 7.2449 9.15999 7.2449 9.19999V12.84C7.2449 13 7.28572 13.12 7.36735 13.24C7.44899 13.36 7.53062 13.48 7.69388 13.56L11 15.44C11.0408 15.44 11.0816 15.48 11.1225 15.48C11.1633 15.48 11.2041 15.48 11.2449 15.44C11.2857 15.4 11.3265 15.36 11.3265 15.36Z" fill="white"/>
<path d="M11.5714 9.80001C11.6939 9.88001 11.8571 9.92001 11.9796 9.92001C12.1429 9.92001 12.2653 9.88001 12.3877 9.80001L15.7755 7.88001C15.8163 7.88001 15.8163 7.84001 15.8571 7.80001C15.8571 7.76001 15.898 7.72001 15.898 7.68001C15.898 7.64001 15.898 7.60001 15.8571 7.56001C15.8571 7.52001 15.8163 7.52001 15.7755 7.48001L12.4286 5.60001C12.3061 5.52001 12.1429 5.48001 12.0204 5.48001C11.8571 5.48001 11.7347 5.52001 11.6122 5.60001L8.22448 7.52001C8.18367 7.52001 8.18367 7.56001 8.14285 7.60001C8.14285 7.64001 8.10204 7.68001 8.10204 7.72001C8.10204 7.76001 8.10204 7.80001 8.14285 7.84001C8.14285 7.88001 8.18367 7.88001 8.22448 7.92001L11.5714 9.80001Z" fill="white"/>
<path d="M16.5918 13.24C16.6735 13.12 16.7143 12.96 16.7143 12.84V9.19999C16.7143 9.15999 16.7143 9.11999 16.6735 9.07999C16.6735 9.03999 16.6327 9.03999 16.5918 8.99999C16.551 8.99999 16.5102 8.95999 16.4694 8.95999C16.4286 8.95999 16.3878 8.95999 16.3469 8.99999L13.0408 10.88C12.9184 10.96 12.7959 11.04 12.7143 11.2C12.6327 11.32 12.5918 11.48 12.5918 11.6V15.24C12.5918 15.28 12.5918 15.32 12.6327 15.36C12.6327 15.4 12.6735 15.4 12.7143 15.44C12.7551 15.44 12.7959 15.48 12.8367 15.48C12.8776 15.48 12.9184 15.48 12.9592 15.44L16.2653 13.56C16.4286 13.48 16.5102 13.36 16.5918 13.24Z" fill="white"/>
</g>
<defs>
<clipPath id="clip0_819_48">
<rect width="18" height="20" fill="white" transform="translate(3 2)"/>
</clipPath>
</defs>
</svg>
