<svg width="100%" height="100%" viewBox="0 0 24 24" fill="none" xmlns="http://www.w3.org/2000/svg">
<path d="M15.1391 11.204L10.3328 12.7734L6.15134 14.6189L4.98152 14.9277C4.68359 15.2111 4.37121 15.4981 4.03334 15.7888C3.66279 16.1084 3.31767 16.3991 3.05243 16.6098C2.75819 16.8423 2.32223 17.2782 2.10065 17.5543C1.77003 17.9684 1.50848 18.408 1.39585 18.7459C1.19602 19.3562 1.29416 19.9738 1.67924 20.5442C2.1733 21.2708 3.15783 22.0118 4.30579 22.5168C4.89072 22.7748 5.87522 23.1054 6.6163 23.2906C7.84782 23.6031 10.231 23.9409 11.5425 23.9918C11.8076 24.0027 12.1637 24.0027 12.1782 23.9918C12.2073 23.9736 12.4107 23.5849 12.6469 23.1018C13.4534 21.456 14.0346 19.9121 14.3507 18.5933C14.5396 17.7941 14.6885 16.7297 14.7866 15.4691C14.812 15.1167 14.8229 13.936 14.8011 13.5364C14.7684 12.8825 14.7103 12.3521 14.6195 11.8326C14.605 11.7563 14.6013 11.6872 14.6086 11.6836C14.6231 11.6727 14.6667 11.6582 15.2588 11.4874L15.139 11.2041V11.204H15.1391V11.204ZM14.0419 11.847C14.0855 11.847 14.2018 12.9623 14.2308 13.6671C14.2381 13.8161 14.2344 13.9142 14.2272 13.9142C14.1981 13.9142 13.6132 13.5691 13.1955 13.3075C12.8322 13.0786 12.142 12.6209 12.033 12.5337C11.9966 12.5083 12.0002 12.5046 12.2982 12.4029C12.8031 12.2321 14.002 11.847 14.0419 11.847ZM11.5934 12.6536C11.6261 12.6536 11.7096 12.7007 11.9094 12.8243C12.6578 13.2929 13.675 13.8597 14.111 14.0486C14.2453 14.1067 14.2598 14.0849 13.9511 14.2957C13.2899 14.7461 12.4652 15.1893 11.4552 15.6362C11.2773 15.7161 11.1283 15.7778 11.1247 15.7778C11.1175 15.7778 11.1392 15.6871 11.1682 15.578C11.4117 14.6734 11.5497 13.7579 11.557 13.0241C11.5607 12.6608 11.5607 12.6608 11.5934 12.6499C11.5861 12.6536 11.5897 12.6536 11.5934 12.6536ZM11.0884 12.8461C11.1101 12.8678 11.0957 13.6817 11.0666 13.9032C11.0012 14.4337 10.8995 14.9277 10.7324 15.4836C10.6924 15.6179 10.6561 15.7306 10.6489 15.7378C10.6343 15.756 10.1366 15.2692 9.97308 15.0803C9.6897 14.7533 9.46815 14.4264 9.30466 14.1067C9.22109 13.9432 9.09034 13.6235 9.10121 13.6126C9.15933 13.5727 11.0739 12.8316 11.0884 12.8461ZM8.71247 13.7797C8.71609 13.7797 8.71971 13.7797 8.72339 13.7833C8.73063 13.7906 8.75611 13.8488 8.77791 13.9141C8.89412 14.2302 9.15564 14.6952 9.38095 14.9931C9.62798 15.3201 9.95134 15.6688 10.2201 15.8977C10.3073 15.9703 10.3872 16.0393 10.3981 16.0503C10.4199 16.0721 10.4272 16.0684 9.83499 16.2937C9.14846 16.5552 8.40003 16.8168 7.54265 17.0929C7.33784 17.1589 7.13322 17.2255 6.92879 17.2927C6.89604 17.3036 6.90696 17.2854 7.00141 17.1365C7.42644 16.4717 8.07307 15.1675 8.43639 14.2447C8.49815 14.0849 8.5599 13.925 8.57083 13.8887C8.58537 13.8378 8.60349 13.8197 8.6507 13.7942C8.67613 13.787 8.7016 13.7797 8.71247 13.7797ZM7.98596 14.0813C7.99683 14.0886 7.81155 14.4772 7.6299 14.8333C7.27749 15.5199 6.89242 16.1956 6.37656 17.0166C6.28938 17.1583 6.20585 17.2891 6.19493 17.3036C6.17678 17.3291 6.16948 17.3218 6.11136 17.2092C5.98785 16.9658 5.88609 16.6533 5.83161 16.3663C5.7771 16.0829 5.78802 15.5889 5.84981 15.2837C5.89698 15.0585 5.8934 15.0622 6.00237 15.0077C6.46737 14.7715 7.97142 14.0667 7.98596 14.0813ZM14.2526 14.3356V14.4882C14.2526 15.2983 14.1655 16.4099 14.0383 17.2201C14.0165 17.3618 13.9982 17.478 13.9947 17.4817C13.9947 17.4817 13.8893 17.4526 13.7658 17.4163C13.2209 17.2455 12.6287 16.9948 12.0947 16.7006C11.7422 16.5081 11.23 16.192 11.2446 16.1774C11.2482 16.1738 11.4008 16.0939 11.5788 15.9994C12.2909 15.6289 12.9738 15.2293 13.566 14.8333C13.7876 14.6843 14.1218 14.4446 14.1945 14.3792L14.2526 14.3356ZM5.24308 15.4109C5.2576 15.4109 5.25397 15.4399 5.23217 15.5707C5.21763 15.6652 5.19949 15.8396 5.19227 15.9594C5.16313 16.4898 5.25038 16.8822 5.51194 17.4198C5.5846 17.5688 5.64276 17.6923 5.63907 17.6959C5.61363 17.7177 3.20871 18.4226 2.45302 18.6296C2.2278 18.6913 2.03166 18.7459 2.01705 18.7494C1.99167 18.7567 1.98802 18.7531 1.99891 18.6913C2.08245 18.1573 2.48936 17.4598 3.05606 16.8712C3.4339 16.4789 3.73545 16.2501 4.25131 15.9557C4.62186 15.7451 5.19222 15.4291 5.23581 15.4145C5.23584 15.4109 5.23946 15.4109 5.24308 15.4109ZM10.9104 16.4244C10.914 16.4208 11.0012 16.4681 11.1065 16.5298C11.884 16.9803 12.9666 17.3981 13.8893 17.6124L13.9729 17.6306L13.8566 17.6959C13.3735 17.9648 11.7859 18.6259 10.162 19.2327C9.92584 19.3198 9.69337 19.407 9.64971 19.4252C9.60612 19.4433 9.56615 19.4543 9.56615 19.4506C9.56615 19.4469 9.63158 19.3198 9.71508 19.1636C10.1692 18.3135 10.627 17.2782 10.8595 16.5589C10.8886 16.4898 10.9067 16.4281 10.9104 16.4244ZM10.3328 16.6134C10.3364 16.6171 10.3073 16.6933 10.271 16.7805C9.95496 17.547 9.54075 18.3826 9.01038 19.3199C8.87599 19.5597 8.76335 19.7522 8.75966 19.7522C8.75609 19.7522 8.64707 19.6868 8.5163 19.6069C7.74608 19.1346 7.06313 18.5533 6.61632 17.9902L6.5509 17.9103L6.88146 17.8195C8.0658 17.4962 9.07206 17.1474 10.0712 16.7188C10.2129 16.6606 10.3291 16.6134 10.3328 16.6134ZM13.9221 17.8667C13.9221 17.8667 13.9257 17.8703 13.9221 17.8667C13.9257 17.9503 13.7404 18.6987 13.5878 19.2399C13.4607 19.694 13.3516 20.0501 13.1519 20.6785C13.0647 20.9547 12.9884 21.1835 12.9847 21.1835C12.9811 21.1835 12.9593 21.1799 12.9375 21.1727C11.8586 20.9764 10.8922 20.704 9.98401 20.3407C9.72967 20.2389 9.3664 20.0755 9.34461 20.0573C9.33737 20.05 9.55536 19.9483 9.83144 19.8284C11.4844 19.1055 13.1991 18.2844 13.7876 17.9321C13.8566 17.8885 13.9111 17.8667 13.9221 17.8667ZM5.63546 18.1501C5.64273 18.1573 5.18134 18.8222 4.53466 19.7268C4.30944 20.0428 4.04788 20.4134 3.94981 20.5514C3.85171 20.6895 3.70278 20.9074 3.61922 21.0382L3.46657 21.2744L3.30308 21.1363C3.11053 20.9764 2.77634 20.635 2.6274 20.4461C2.31495 20.0574 2.10428 19.6469 2.02072 19.2727C1.98075 19.0983 1.98075 19.0111 2.01703 19.0002C2.07151 18.9857 3.0415 18.7568 3.94978 18.5461C4.45475 18.4299 5.0396 18.2918 5.25031 18.2409C5.46105 18.19 5.63184 18.1501 5.63546 18.1501ZM6.10044 18.3281L6.21665 18.4589C6.73985 19.0438 7.27387 19.4762 7.92052 19.8539C8.0368 19.9193 8.12397 19.9774 8.11666 19.9811C8.0913 19.9993 5.87155 20.7875 4.84346 21.1436C4.26587 21.347 3.78993 21.5105 3.78634 21.5105C3.78272 21.5105 3.75 21.4887 3.71362 21.4633L3.64827 21.416L3.75361 21.2635C4.09507 20.7694 4.52382 20.2281 5.45746 19.1019L6.10044 18.3281ZM8.99952 20.4024C9.00309 20.3988 9.16295 20.4569 9.3591 20.5297C9.83144 20.7076 10.2056 20.8202 10.7069 20.9474C11.3245 21.1036 12.2182 21.2562 12.745 21.2998C12.8249 21.307 12.8685 21.3143 12.854 21.3252C12.8285 21.3398 12.2945 21.5178 11.9022 21.6413C11.2773 21.8375 9.37004 22.4005 7.81518 22.8474C7.52818 22.931 7.28113 23 7.2666 23.0036C7.23032 23.0109 7.11039 22.9782 7.11039 22.9636C7.11039 22.9564 7.19757 22.8438 7.30294 22.7203C7.82604 22.0954 8.34559 21.3979 8.77791 20.7367C8.89775 20.555 8.99952 20.4061 8.99952 20.4024ZM8.36008 20.4207C8.3637 20.4243 8.10579 20.8384 7.65536 21.5504C7.46278 21.852 7.24843 22.1934 7.17212 22.3133C7.09946 22.4296 6.99049 22.6113 6.92876 22.713L6.82338 22.8983L6.7689 22.8837C6.63808 22.8474 5.71898 22.524 5.47557 22.426C5.17402 22.3061 4.8616 22.1608 4.62908 22.0373C4.33849 21.881 3.97523 21.6485 4.00426 21.6413C4.01151 21.6377 4.50923 21.5032 5.10862 21.3398C6.69985 20.9074 7.58261 20.6568 8.16029 20.4751C8.26566 20.4424 8.35646 20.417 8.36008 20.4207ZM12.883 21.4814H12.8866C12.9012 21.5178 12.3127 23.1526 12.0983 23.6684C12.0511 23.7846 12.033 23.8138 12.0075 23.8101C11.9457 23.8065 11.0921 23.6866 10.5725 23.6103C9.66795 23.4722 8.14938 23.207 7.76796 23.1199L7.68078 23.1017L8.222 22.9781C9.38457 22.7165 9.94402 22.5749 10.5107 22.4005C11.2264 22.1825 11.9349 21.9101 12.6505 21.5759C12.7631 21.525 12.8576 21.485 12.883 21.4814Z" fill="url(#paint0_linear_817_123583)"/>
<path d="M10.1839 0.000186071C10.1039 -0.0106528 8.81423 0.454348 7.98233 0.792164C6.85974 1.24996 5.98791 1.68593 5.45021 2.06367C5.25044 2.20541 4.99972 2.45605 4.95982 2.55412C4.94529 2.59045 4.93799 2.63404 4.93799 2.67763L5.42482 3.13902L6.58368 3.50957L9.34105 4.00365L12.4944 4.54496L12.5271 4.27249C12.5162 4.27249 12.5089 4.26888 12.4981 4.26888L12.0838 4.20346L12.0003 4.05453C11.5716 3.29887 11.0994 2.36158 10.8233 1.72945C10.609 1.23901 10.4055 0.672333 10.2929 0.265429C10.2311 0.018396 10.2239 0.0038716 10.184 0.000253045V0.0001692H10.1839V0.000186071ZM10.1257 0.18552H10.1294C10.133 0.189105 10.1475 0.290894 10.1621 0.410708C10.2238 0.919383 10.3365 1.40975 10.5145 1.94017C10.6489 2.3398 10.6489 2.31802 10.4927 2.27076C10.1221 2.16908 8.46191 1.88207 7.25943 1.71496C7.06687 1.68952 6.90338 1.6641 6.90338 1.66048C6.88886 1.64596 7.77162 1.18454 8.16035 1.00294C8.65805 0.774021 10.024 0.203663 10.1257 0.18552ZM6.6236 1.81303L6.76534 1.86021C7.53546 2.12182 9.47174 2.49238 10.5399 2.57956C10.6597 2.59047 10.7615 2.60139 10.7651 2.60139C10.7687 2.60501 10.667 2.65951 10.5362 2.72124C10.0204 2.97918 9.45363 3.29525 9.06127 3.53866C8.94505 3.61129 8.83965 3.66945 8.82516 3.66945C8.81061 3.66945 8.73436 3.65491 8.65443 3.64401L8.50912 3.62218L8.14587 3.26613C7.50648 2.64495 7.00512 2.16542 6.81257 1.98374L6.6236 1.81303ZM6.47834 1.92563L6.99056 2.56504C7.27027 2.91743 7.55364 3.26253 7.61545 3.33879C7.67715 3.41513 7.72805 3.47691 7.72443 3.48053C7.70989 3.49142 6.98336 3.34971 6.59822 3.26257C6.20224 3.17172 6.03877 3.12813 5.79537 3.05187L5.59554 2.98645V2.93556C5.59916 2.69214 5.908 2.32888 6.43111 1.95836L6.47834 1.92563ZM10.8305 2.79753C10.8451 2.79753 10.8632 2.83022 10.9068 2.9283C11.0303 3.20075 11.4154 3.93463 11.5098 4.07629C11.539 4.12356 11.5897 4.12718 11.0776 4.04362C9.84604 3.84376 9.45001 3.77844 9.45001 3.77117C9.45001 3.76756 9.48635 3.74211 9.53357 3.71666C9.91504 3.506 10.3001 3.23714 10.6416 2.95013C10.7252 2.88109 10.8015 2.81571 10.816 2.80478C10.8196 2.79753 10.8269 2.79391 10.8305 2.79753Z" fill="url(#paint1_linear_817_123583)"/>
<path d="M4.98533 2.50327C4.98533 2.50327 4.90546 2.63047 4.98173 2.81939C5.02901 2.9356 5.16703 3.07726 5.32322 3.2226C5.32322 3.2226 6.93984 4.79926 7.13603 5.02453C8.02968 6.05624 8.41842 7.07345 8.45476 8.47576C8.47655 9.37671 8.30576 10.1687 7.88075 11.0878C7.12511 12.7371 5.53025 14.5572 3.0708 16.5771L3.43051 16.4572C3.663 16.2828 3.97907 16.0976 4.72016 15.6907C6.43122 14.7534 8.35666 13.8924 10.718 13.006C14.1183 11.7271 19.7094 10.2304 22.8917 9.74363L23.2224 9.69273L23.1715 9.61281C22.8809 9.16231 22.681 8.88261 22.4413 8.58472C21.7438 7.72008 20.8974 7.01897 19.862 6.43769C18.4379 5.64213 16.5959 5.02091 14.2637 4.55953C13.8241 4.4723 12.8578 4.30521 12.0731 4.18532C10.4092 3.92745 9.33387 3.74941 8.14958 3.54596C7.72457 3.47327 7.08875 3.36431 6.66734 3.27352C6.44938 3.22624 6.03163 3.12817 5.70467 3.01556C5.44312 2.91379 5.06526 2.81207 4.98533 2.50327ZM5.92268 3.41152C5.92626 3.40794 5.98437 3.42967 6.06072 3.45511C6.19876 3.50229 6.37675 3.5568 6.58752 3.61497C6.74696 3.65882 6.90681 3.7012 7.06704 3.7421C7.28501 3.79656 7.46663 3.84744 7.47024 3.84744C7.49573 3.87289 7.86266 5.04622 7.98617 5.49672C8.03333 5.66751 8.06974 5.81279 8.0661 5.81279C8.06236 5.81647 8.02246 5.75467 7.97525 5.67113C7.55019 4.92274 6.87811 4.16348 6.10065 3.55313C5.99898 3.48054 5.92268 3.41514 5.92268 3.41152ZM7.71004 3.90559C7.72822 3.90559 7.80814 3.9165 7.90618 3.93827C8.52378 4.07632 9.63183 4.28703 10.3402 4.40693C10.4601 4.42507 10.5546 4.44692 10.5546 4.45414C10.5546 4.46144 10.511 4.48682 10.4564 4.51592C10.3366 4.57765 9.8534 4.86462 9.6936 4.97363C9.29031 5.24246 8.92707 5.53309 8.66547 5.79464C8.56013 5.90002 8.46927 5.9872 8.46927 5.9872C8.46927 5.9872 8.44754 5.92546 8.4293 5.84912C8.29859 5.34415 8.02608 4.59576 7.77904 4.06903C7.73907 3.9855 7.70636 3.90919 7.70636 3.90195C7.70636 3.90921 7.70636 3.90559 7.71004 3.90559ZM10.8561 4.50501C10.8779 4.51225 10.9142 4.63578 10.9869 4.90823C11.1213 5.43503 11.1831 6.02355 11.1613 6.57211C11.154 6.7247 11.1467 6.86636 11.1394 6.88457L11.1286 6.92085L10.9397 6.85912C10.5509 6.7356 9.91884 6.55028 9.37756 6.39774C9.06871 6.31417 8.81811 6.23788 8.81811 6.23063C8.81811 6.2088 9.2686 5.75834 9.46112 5.58762C9.82797 5.26424 10.8234 4.49409 10.8561 4.50501ZM11.1068 4.5413C11.1177 4.53046 12.6108 4.78833 13.2901 4.91914C13.7951 5.01721 14.529 5.16981 14.5725 5.188C14.5943 5.19524 14.518 5.23883 14.2746 5.3478C13.3156 5.78015 12.6035 6.16881 11.8951 6.64113C11.7099 6.76465 11.5536 6.86636 11.55 6.86636C11.5464 6.86636 11.5427 6.76103 11.5427 6.63386C11.5427 5.94364 11.4047 5.24611 11.1503 4.6576C11.1249 4.59946 11.1031 4.54499 11.1068 4.5413ZM14.9685 5.30425C14.9794 5.31513 14.9322 5.60943 14.8886 5.78377C14.7578 6.32508 14.4054 7.128 13.9732 7.88359C13.8968 8.01801 13.8278 8.127 13.8205 8.13062C13.8133 8.13424 13.7152 8.07973 13.6025 8.01434C13.1811 7.76731 12.7016 7.53482 12.1785 7.31682C12.0332 7.25508 11.906 7.20419 11.9024 7.19699C11.8769 7.17516 13.0467 6.40135 13.6643 6.0308C14.1548 5.73293 14.954 5.28969 14.9685 5.30425ZM15.2446 5.34782C15.2773 5.34782 15.9385 5.52948 16.2836 5.63121C17.1373 5.88553 18.1182 6.24515 18.7576 6.53578L19.0227 6.65571L18.8375 6.69927C17.2754 7.05889 15.9385 7.4731 14.6488 7.99622C14.5434 8.03981 14.449 8.07614 14.4418 8.07614C14.4345 8.07614 14.4708 7.9926 14.518 7.89084C14.9068 7.0662 15.1574 6.2052 15.2191 5.47132C15.2228 5.40228 15.2337 5.34782 15.2446 5.34782ZM8.66185 6.85912C8.67273 6.8482 9.17772 6.96811 9.45018 7.04434C9.86432 7.16063 10.7434 7.45486 10.7434 7.47669C10.7434 7.4803 10.6454 7.56387 10.5292 7.66562C10.0533 8.0616 9.59549 8.47933 9.0469 9.00975C8.88341 9.16602 8.7454 9.29315 8.73816 9.29315C8.73086 9.29315 8.72729 9.27131 8.73086 9.24226C8.8144 8.63191 8.79629 7.84724 8.68003 7.05164C8.66909 6.94988 8.65822 6.86274 8.66185 6.85912ZM19.2735 6.87004C19.2807 6.87726 19.0409 7.25508 18.8884 7.4694C18.6704 7.78182 18.3507 8.19604 17.6277 9.10425C17.2463 9.58374 16.8176 10.1251 16.676 10.3067C16.5306 10.4883 16.4108 10.6409 16.4071 10.6409C16.4035 10.6409 16.3563 10.5755 16.3054 10.4956C15.8985 9.88529 15.4117 9.35125 14.834 8.87172C14.7251 8.78087 14.6052 8.68279 14.5653 8.65372C14.5253 8.62467 14.4926 8.59561 14.4926 8.59199C14.4926 8.58112 15.1101 8.31586 15.5788 8.12699C16.3999 7.79274 17.5187 7.39314 18.3579 7.13518C18.7975 6.99716 19.2662 6.86274 19.2735 6.87004ZM19.5532 6.94265C19.5677 6.93905 19.6549 6.98264 19.7603 7.04434C20.6431 7.54931 21.5076 8.19963 22.1907 8.86809C22.3832 9.05702 22.8591 9.55109 22.8518 9.55471C22.8518 9.55471 22.6847 9.56923 22.4886 9.58374C20.9591 9.70004 19.001 10.0233 17.1192 10.4774C16.992 10.5064 16.8794 10.5319 16.8721 10.5319C16.865 10.5319 17.0066 10.3902 17.1846 10.2195C18.289 9.15508 18.794 8.483 19.3897 7.28412C19.4733 7.10615 19.546 6.95357 19.5532 6.94265C19.5496 6.94265 19.5496 6.94265 19.5532 6.94265ZM11.4628 7.771C11.5137 7.78183 11.9859 8.00352 12.3419 8.18148C12.6689 8.3449 13.1594 8.60653 13.1848 8.62829C13.1884 8.63191 13.014 8.72274 12.7997 8.82812C12.1167 9.1696 11.5318 9.49289 10.9215 9.86346C10.7471 9.96883 10.6018 10.0561 10.5982 10.0561C10.5836 10.0561 10.5873 10.0415 10.6854 9.86346C11.0123 9.26772 11.2739 8.55567 11.4229 7.86176C11.4373 7.80728 11.4519 7.771 11.4628 7.771ZM10.9905 7.85814C11.0014 7.86907 10.8779 8.31587 10.8016 8.55929C10.6526 9.02067 10.402 9.59828 10.1586 10.0342C10.1004 10.1359 10.0133 10.2849 9.96603 10.3684L9.87523 10.5137L9.67178 10.3176C9.43567 10.0887 9.24309 9.94704 8.9961 9.81985C8.89795 9.76904 8.82169 9.7254 8.82169 9.71818C8.82169 9.68911 9.44291 9.12603 9.91882 8.71914C10.2603 8.42486 10.9796 7.84725 10.9905 7.85814ZM13.8787 9.04612L14.0567 9.16233C14.4635 9.42757 14.943 9.77993 15.31 10.0887C15.517 10.2594 15.9166 10.6191 15.9966 10.7063L16.0402 10.7536L15.746 10.8371C14.0821 11.2985 12.7961 11.709 11.2957 12.2612C11.1286 12.3229 10.9869 12.3738 10.9759 12.3738C10.9542 12.3738 10.936 12.3919 11.3102 12.0468C12.2693 11.1641 13.1194 10.1904 13.7515 9.24224L13.8787 9.04612ZM13.1194 9.23502C13.1266 9.24226 12.6289 9.94339 12.331 10.3394C11.975 10.8117 11.3429 11.6036 10.9069 12.1194C10.7253 12.3338 10.5692 12.5118 10.5618 12.5155C10.5509 12.5191 10.5473 12.4646 10.5473 12.3811C10.5473 11.9414 10.4347 11.4728 10.2385 11.0732C10.1549 10.9061 10.1404 10.8661 10.1586 10.848C10.2276 10.7862 11.2848 10.1831 11.9532 9.82352C12.4037 9.58376 13.1084 9.22775 13.1194 9.23502ZM8.5274 10.3612C8.53832 10.3612 8.62188 10.4048 8.71635 10.4557C8.94884 10.5828 9.15592 10.7245 9.34119 10.8771C9.34843 10.8843 9.25401 10.9607 9.13049 11.0514C8.78536 11.2985 8.26224 11.6945 7.95712 11.9379C7.63735 12.1922 7.62653 12.1994 7.66282 12.145C7.90261 11.778 8.02244 11.5709 8.14964 11.3058C8.26224 11.0697 8.37483 10.7899 8.45476 10.5465C8.48381 10.4411 8.52016 10.3612 8.5274 10.3612ZM9.75173 11.3203C9.76984 11.3167 9.7917 11.3493 9.88974 11.4947C10.0968 11.8034 10.2567 12.2176 10.2967 12.5518L10.3039 12.6245L9.80624 12.8171C8.91613 13.1622 8.09515 13.5037 7.53925 13.7579C7.38308 13.8306 7.1106 13.9614 6.93262 14.0486C6.75459 14.1394 6.60928 14.2084 6.60928 14.2048C6.60928 14.2012 6.72187 14.1176 6.85991 14.0159C7.94622 13.2276 8.88709 12.3629 9.59186 11.4983C9.66817 11.4075 9.73722 11.3239 9.74442 11.3203L9.75173 11.3203ZM9.18864 11.4583C9.20318 11.4729 8.78904 11.9415 8.50567 12.2285C7.80453 12.9442 7.11063 13.5037 6.24962 14.0486C6.14064 14.1176 6.04257 14.1794 6.03165 14.1867C6.0062 14.2012 6.03889 14.1648 6.41673 13.7543C6.65652 13.4964 6.83814 13.2784 7.04522 13.0096C7.18326 12.8316 7.2087 12.8062 7.40855 12.6644C7.94258 12.2793 9.1741 11.4438 9.18864 11.4583Z" fill="url(#paint2_radial_817_123583)"/>
<defs>
<linearGradient id="paint0_linear_817_123583" x1="4.91089" y1="21.6259" x2="6.64885" y2="20.599" gradientUnits="userSpaceOnUse">
<stop stop-color="#909CA9"/>
<stop offset="1" stop-color="#EDEDEE"/>
</linearGradient>
<linearGradient id="paint1_linear_817_123583" x1="4.95073" y1="2.26547" x2="6.34914" y2="2.26547" gradientUnits="userSpaceOnUse">
<stop stop-color="#939FAB"/>
<stop offset="1" stop-color="#DCDEE1"/>
</linearGradient>
<radialGradient id="paint2_radial_817_123583" cx="0" cy="0" r="1" gradientUnits="userSpaceOnUse" gradientTransform="translate(12.0073 8.679) rotate(-171.457) scale(1.80293 3.60676)">
<stop stop-color="#EE352C"/>
<stop offset="1" stop-color="#A91D22"/>
</radialGradient>
</defs>
</svg>
