<?xml version="1.0" encoding="utf-8"?>

<!-- Uploaded to: SVG Repo, www.svgrepo.com, Generator: SVG Repo Mixer Tools -->
<svg version="1.1" xmlns="http://www.w3.org/2000/svg" width="800" height="800">
<path d="M0 0 C1.24201172 -0.01224609 2.48402344 -0.02449219 3.76367188 -0.03710938 C18.7719643 -0.06096994 18.7719643 -0.06096994 23.3125 2.1875 C33.54095944 13.29663188 35.42242384 35.04004422 38.9765625 49.26953125 C39.61524508 51.81176801 40.2543637 54.35389525 40.89389038 56.8959198 C42.40356389 62.89939172 43.90874957 68.90397856 45.41211259 74.90903348 C47.24667252 82.23641576 49.08591283 89.56262099 50.92578125 96.88867188 C51.08905962 97.53882004 51.25233798 98.1889682 51.42056417 98.85881782 C52.07677746 101.47168627 52.73300686 104.08455067 53.38931918 106.69739425 C54.52016518 111.19949249 55.65019705 115.70179466 56.78009033 120.20413208 C62.22299672 141.88270818 67.74301362 163.54112399 73.3125 185.1875 C77.12254555 172.66132165 80.0397564 159.93864037 83.00390625 147.19140625 C83.55446133 144.83529205 84.10532563 142.4792501 84.65647888 140.12327576 C86.10688408 133.91968079 87.55319693 127.71513893 88.99859619 121.51037598 C90.42962137 115.37029231 91.86438194 109.23108204 93.29882812 103.09179688 C93.865689 100.66458532 94.4325327 98.23736975 94.99935913 95.81015015 C96.12451707 90.99242838 97.25063855 86.17493316 98.37734985 81.35757446 C100.83515994 70.842934 103.28626958 60.32707172 105.69236469 49.80045795 C106.68919419 45.44229186 107.6924619 41.08562004 108.69636345 36.72907829 C109.16063373 34.70574079 109.62165186 32.68165382 110.07913399 30.65677071 C110.70724494 27.87722296 111.3464569 25.1004393 111.98803711 22.32397461 C112.25393174 21.12594239 112.25393174 21.12594239 112.52519798 19.9037075 C115.68503581 6.40010142 115.68503581 6.40010142 120.6875 2.1875 C127.28182252 -0.32462286 134.17009564 0.00425376 141.125 0 C142.16720703 -0.01224609 143.20941406 -0.02449219 144.28320312 -0.03710938 C159.50966355 -0.06578444 159.50966355 -0.06578444 164.28874207 3.77626038 C166.83939242 6.81527463 167.6811663 9.82066418 168.62353516 13.58886719 C168.93066405 14.75440691 168.93066405 14.75440691 169.24399757 15.94349289 C172.32066644 27.80271897 175.06560789 39.74849457 177.84875059 51.6792841 C178.67957746 55.23723702 179.51468514 58.79418527 180.34927368 62.35125732 C181.93037166 69.09284202 183.50771476 75.83529923 185.08366263 82.57808948 C186.85178943 90.14227656 188.62424115 97.70544796 190.39702106 105.26854563 C192.88165773 115.86914157 195.36501377 126.47003727 197.84432411 137.07188034 C198.44212944 139.62768813 199.04035416 142.18339787 199.63902855 144.73900223 C201.0323522 150.69090781 202.41990265 156.64395687 203.79004371 162.60123658 C204.43767077 165.41615097 205.08782408 168.2304794 205.73810315 171.04478216 C206.04777886 172.3885558 206.35613553 173.73263415 206.66312099 175.07702494 C207.0854819 176.92649718 207.51254153 178.77489453 207.93984985 180.62322998 C208.30229766 182.20302706 208.30229766 182.20302706 208.67206764 183.81473923 C209.08428117 186.12541964 209.08428117 186.12541964 210.3125 187.1875 C210.55401291 186.23984268 210.79552582 185.29218536 211.0443573 184.31581116 C221.87064831 141.83922134 232.71196123 99.36637857 243.69082642 56.92892456 C244.60265988 53.40431389 245.51306556 49.87933946 246.42221069 46.35403442 C247.49114317 42.20973604 248.56325489 38.06627322 249.63789177 33.92345047 C250.02845529 32.41592016 250.41799696 30.90812466 250.80639839 29.40003586 C256.74158426 6.36568681 256.74158426 6.36568681 262.3125 2.1875 C269.14685885 -0.54050038 276.17333784 -0.10729442 283.4375 -0.0625 C284.69949219 -0.07023438 285.96148438 -0.07796875 287.26171875 -0.0859375 C289.08509766 -0.08207031 289.08509766 -0.08207031 290.9453125 -0.078125 C292.04762207 -0.07586914 293.14993164 -0.07361328 294.28564453 -0.07128906 C297.37476342 0.19282338 299.56016736 0.77811694 302.3125 2.1875 C305.58065751 8.72381502 302.53500695 16.91959291 300.4375 23.390625 C300.12583389 24.38800186 299.81416779 25.38537872 299.49305725 26.41297913 C298.44467744 29.75832561 297.37840939 33.09770147 296.3125 36.4375 C295.55395416 38.84749066 294.79674988 41.25790391 294.04077148 43.66870117 C292.59778256 48.26579034 291.15092069 52.86159942 289.6983366 57.45566463 C286.59682986 67.26567133 283.53022121 77.08637569 280.47265625 86.91015625 C280.22430401 87.70797831 279.97595177 88.50580036 279.7200737 89.32779884 C278.7063158 92.58452815 277.69263461 95.8412813 276.67916298 99.09809971 C274.11816421 107.32734632 271.55159235 115.55485202 268.98505783 123.78237343 C263.41408128 141.64240984 257.85751807 159.50688821 252.3125 177.375 C251.95713165 178.51973785 251.60176331 179.66447571 251.23562622 180.84390259 C250.55006613 183.05249596 249.86479222 185.26117818 249.17982483 187.46995544 C248.52726833 189.57298089 247.8736033 191.67566273 247.21873474 193.77796936 C245.50395429 199.29334046 243.82263709 204.81677598 242.1796875 210.35400391 C241.82535645 211.53674393 241.47102539 212.71948395 241.10595703 213.93806458 C240.42933237 216.19965758 239.76054666 218.46361647 239.10107422 220.73027039 C237.13085758 227.28479316 235.4869681 232.54745179 230.08789062 237.03759766 C226.35860843 238.58271721 222.87718429 238.6173429 218.90625 238.5859375 C217.70276917 238.59024277 217.70276917 238.59024277 216.47497559 238.59463501 C214.78392834 238.59667038 213.09285727 238.5911774 211.40185547 238.57861328 C208.82075102 238.56255135 206.24121228 238.57847904 203.66015625 238.59765625 C202.01301739 238.59567372 200.36587951 238.59182985 198.71875 238.5859375 C197.95091187 238.59201019 197.18307373 238.59808289 196.39196777 238.6043396 C191.86050337 238.54517272 188.79888122 238.17076523 185.3125 235.1875 C182.69648119 230.64809373 181.33570402 226.03718117 180.14624023 220.97583008 C179.95004058 220.1674063 179.75384092 219.35898252 179.55169582 218.52606106 C178.90118747 215.83801319 178.26114785 213.14758587 177.62109375 210.45703125 C177.15900832 208.53832011 176.69627575 206.61976473 176.23294067 204.70135498 C174.98814482 199.53941824 173.75234989 194.37536495 172.51823807 189.21086502 C171.23671826 183.85472961 169.94691898 178.50058905 168.65795898 173.14624023 C166.29795361 163.33742457 163.94510184 153.52690962 161.59540081 143.71562099 C159.21694782 133.78537957 156.83137484 123.85685655 154.44434166 113.9286747 C150.0578946 95.68381022 145.68116795 77.43662951 141.3125 59.1875 C138.82854365 66.25154137 136.96709745 73.34915862 135.25317383 80.63500977 C134.9632254 81.85288681 134.67327698 83.07076385 134.37454224 84.32554626 C133.74744743 86.96209946 133.12182487 89.5989492 132.49875832 92.2364521 C131.50491387 96.44336591 130.50520896 100.64887442 129.50480652 104.85423279 C127.91408123 111.54411273 126.32716968 118.23489048 124.74191731 124.9260692 C121.92686183 136.80792274 119.10682101 148.68859178 116.28321856 160.56841701 C115.45668345 164.04654041 114.63104664 167.52487158 113.80771828 171.00375557 C111.97699995 178.73898106 110.13343274 186.47097835 108.27106094 194.19865799 C107.60048104 196.98342816 106.93617075 199.76961713 106.27532578 202.5567131 C105.39868794 206.25121253 104.50947703 209.94249669 103.61214006 213.63202083 C103.27259553 215.03664442 102.93714462 216.4422649 102.60611689 217.84891999 C102.14570372 219.8019988 101.66863963 221.75112933 101.19096375 223.70005798 C100.92421687 224.81038863 100.65747 225.92071928 100.38263988 227.06469631 C98.97643925 231.16816782 97.04165992 234.83251575 93.58178711 237.54370117 C90.08517017 238.53569459 86.60885817 238.49253168 83.00390625 238.48828125 C82.20017075 238.49256638 81.39643524 238.4968515 80.56834412 238.50126648 C78.87133728 238.50699992 77.17430588 238.5075173 75.47729492 238.50317383 C72.88742956 238.50001516 70.29870849 238.52347969 67.70898438 238.54882812 C66.0572931 238.55110143 64.40559877 238.55180447 62.75390625 238.55078125 C61.59744347 238.56459587 61.59744347 238.56459587 60.4176178 238.57868958 C55.8513539 238.53959252 52.76980705 238.26348921 49.3125 235.1875 C44.85901122 228.04244915 42.87010852 219.80781074 40.48046875 211.796875 C40.01198305 210.24594739 39.54284441 208.69521689 39.07310486 207.14466858 C37.80533562 202.95361933 36.54638712 198.75996714 35.28897858 194.56579971 C33.95753626 190.13040748 32.6178215 185.69751568 31.27880859 181.2644043 C29.05332638 173.89339404 26.83222973 166.52107568 24.61376953 159.14794922 C21.50409185 148.81477158 18.37808456 138.48658978 15.24609375 128.16015625 C14.26930786 124.93947151 13.29256112 121.71877491 12.31591797 118.49804688 C12.07708263 117.7104278 11.8382473 116.92280872 11.59217453 116.1113224 C9.9215819 110.60060404 8.25480522 105.08874146 6.59033203 99.57617188 C6.35743343 98.8048612 6.12453484 98.03355053 5.8845787 97.23886681 C4.95413156 94.15722614 4.02373904 91.075569 3.09353638 87.99385452 C0.37052405 78.97401957 -2.36403485 69.95786336 -5.11911392 60.94776821 C-6.85548074 55.26906602 -8.58515241 49.58835738 -10.30964279 43.90603733 C-11.30479855 40.62845065 -12.30378716 37.35215169 -13.31268311 34.07876587 C-14.40474022 30.52944937 -15.4832096 26.97627229 -16.55859375 23.421875 C-16.8792128 22.39231186 -17.19983185 21.36274872 -17.53016663 20.30198669 C-19.1981138 14.73335716 -20.2227004 10.0066325 -19.6875 4.1875 C-17.6875 1.1875 -17.6875 1.1875 -15.94995117 0.51049805 C-10.68047119 -0.24179741 -5.31160582 0.00271416 0 0 Z " fill="#000000" transform="translate(269.6875,215.8125)"/>
<path d="M0 0 C4.21513186 1.74085173 8.10953775 3.98512297 12.0625 6.25 C13.81030441 7.21985721 15.55812396 8.1896898 17.30728149 9.15710449 C19.08065994 10.13986506 20.85037403 11.12897928 22.61962891 12.11914062 C100.47505161 55.43837914 187.54390056 82.92938901 610.79040527 75.63537598 C633.51122865 69.1019311 655.99964215 61.73361679 677.8984375 52.8046875 C678.57226471 52.53089264 679.24609192 52.25709778 679.94033813 51.9750061 C683.23937074 50.63283329 686.53191956 49.27785786 689.81494141 47.89697266 C705.00884636 41.64451386 705.00884636 41.64451386 712.3125 44.125 C715.34347696 46.23963509 717.14351587 47.78685439 719 51 C719.60134057 55.73555702 719.70609975 57.68513255 717.44140625 61.90234375 C714.49864556 65.63611851 711.34951393 67.98236452 707.4375 70.625 C706.69298584 71.13788574 705.94847168 71.65077148 705.18139648 72.17919922 C691.61410884 81.4462484 677.68908973 90.01727833 663.21972656 97.79980469 C661.06120682 98.96690577 658.9169572 100.15718816 656.7734375 101.3515625 C597.89047578 133.73951673 529.83312148 151.94009896 463.625 160.75 C462.87517853 160.85105042 462.12535706 160.95210083 461.35281372 161.05621338 C437.7011883 164.20837606 414.15129265 165.38177153 390.30240631 165.31805801 C388.15283635 165.3124089 386.00327432 165.30959366 383.85369873 165.30697632 C362.11183012 165.26852252 340.59216445 164.70586838 319 162 C317.56448558 161.8263916 316.12893785 161.65305841 314.69335938 161.47998047 C249.12893778 153.46210006 186.56208994 134.43920221 127 106 C126.1126416 105.57895996 125.2252832 105.15791992 124.31103516 104.72412109 C110.079813 97.93524028 96.50859553 90.11951623 83 82 C82.08009277 81.44908691 81.16018555 80.89817383 80.21240234 80.33056641 C62.80158744 69.86393116 46.07944009 58.4180038 30 46 C29.45714355 45.58186035 28.91428711 45.1637207 28.35498047 44.73291016 C16.1564661 35.31693497 4.28798373 25.49803275 -7 15 C-7.7425 14.34 -8.485 13.68 -9.25 13 C-11.21702132 10.75197563 -11.52225912 9.8701656 -11.4375 6.9375 C-11 3 -11 3 -10 1 C-6.66408702 -0.66795649 -3.59007628 -0.61344439 0 0 Z " fill="#FF9900" transform="translate(11,525)"/>
<path d="M0 0 C5.28614358 4.96285031 9.22469157 10.36071077 12.625 16.75 C13.08390625 17.59949219 13.5428125 18.44898438 14.015625 19.32421875 C20.37272995 32.13416819 22.75783919 46.53139103 22.79858398 60.71411133 C22.805271 61.69083801 22.81195801 62.6675647 22.81884766 63.67388916 C22.83285191 65.78761893 22.84476049 67.9013634 22.85479546 70.01511574 C22.87131455 73.37696734 22.89456136 76.73871202 22.91969299 80.10050964 C22.99013242 89.65703916 23.05021222 99.21361422 23.10180664 108.77026367 C23.13389757 114.62692691 23.17525233 120.48346893 23.22200203 126.34003258 C23.23785219 128.55521109 23.25025034 130.77041746 23.25890923 132.98563576 C23.29970385 143.28114081 23.40212019 153.51576395 24.50805664 163.76049805 C24.62044631 164.81105361 24.62044631 164.81105361 24.73510647 165.88283253 C25.931537 175.63901277 29.35666122 184.53480452 33.9375 193.1875 C36.51342625 198.1396683 37.59714571 201.20876945 36.625 206.75 C33.27598424 212.16914913 27.99428295 215.132459 22.75 218.5 C21.86441406 219.08910156 20.97882813 219.67820312 20.06640625 220.28515625 C11.43025839 225.88385121 11.43025839 225.88385121 6.625 225.75 C0.91901084 224.03570063 -1.85650139 221.60876951 -5.375 216.875 C-5.79507324 216.30998779 -6.21514648 215.74497559 -6.64794922 215.1628418 C-17.375 200.36359821 -17.375 200.36359821 -17.375 194.75 C-18.48058569 195.70669592 -19.58432507 196.66552521 -20.6875 197.625 C-21.42484375 198.264375 -22.1621875 198.90375 -22.921875 199.5625 C-24.58870121 201.04884185 -26.22361761 202.57159157 -27.828125 204.125 C-39.25950989 215.07722505 -52.27590596 222.13254005 -67.375 226.75 C-68.48359375 227.0903125 -69.5921875 227.430625 -70.734375 227.78125 C-92.6134255 233.22580634 -118.10973755 231.586138 -138.0859375 220.86328125 C-154.38694123 210.38959595 -164.62936156 195.0615409 -168.77294922 176.2421875 C-169.74397261 170.6097793 -169.86422216 165.07962557 -169.8125 159.375 C-169.80492676 158.19542725 -169.79735352 157.01585449 -169.78955078 155.80053711 C-169.42232022 136.33061588 -162.61387617 120.47837426 -149.1328125 106.41015625 C-128.97017916 87.07386034 -101.69157554 82.25255607 -74.76171875 82.53125 C-35.90205405 83.48647298 -35.90205405 83.48647298 -21.375 90.75 C-20.97694623 58.29320729 -20.97694623 58.29320729 -34.375 29.75 C-48.57414836 16.87303954 -69.98148287 18.11637948 -87.80029297 18.56640625 C-95.58361872 18.96615089 -102.90134277 20.63642851 -110.375 22.75 C-111.83200394 23.13942512 -113.28903525 23.52874781 -114.74609375 23.91796875 C-122.63664441 26.09179638 -130.30665415 28.68124284 -137.84838867 31.87060547 C-142.64841167 33.80485768 -146.29016799 34.40627947 -151.375 33.75 C-154.43599686 30.88258397 -154.56487118 27.91640455 -154.7734375 23.9140625 C-154.78137312 22.06770886 -154.77307783 20.22122646 -154.75 18.375 C-154.76160156 17.45460937 -154.77320313 16.53421875 -154.78515625 15.5859375 C-154.76073612 9.88790652 -154.22436944 5.72835654 -151.375 0.75 C-118.25737132 -30.61722547 -32.86385515 -29.38742478 0 0 Z M-113.3984375 129.515625 C-120.71097412 137.78197074 -122.81302373 148.24626227 -122.55859375 158.9921875 C-121.8538826 169.57784868 -118.91536942 178.81150839 -111 186.1875 C-100.32906099 194.97950291 -87.58046879 194.64814808 -74.375 193.75 C-57.25784564 191.60861474 -42.24564189 184.1124899 -31 170.875 C-22.44491609 159.5947079 -21.03235009 146.90391364 -21.25 133.125 C-21.25902344 132.02542969 -21.26804687 130.92585937 -21.27734375 129.79296875 C-21.30065876 127.11174242 -21.3333796 124.43099393 -21.375 121.75 C-49.49647011 113.58893241 -90.14638055 107.66033472 -113.3984375 129.515625 Z " fill="#000000" transform="translate(202.375,230.25)"/>
<path d="M0 0 C1.10859879 0.00506058 1.10859879 0.00506058 2.23959351 0.01022339 C19.17413337 0.12160337 34.65492221 2.68466295 50.8125 7.8125 C51.66303955 8.08006104 52.5135791 8.34762207 53.38989258 8.62329102 C60.50119277 11.05855112 65.7846201 14.59602674 70.91015625 20.0859375 C73.1774206 25.06116209 72.97989653 29.66202034 72.875 35.0625 C72.88208984 36.09890625 72.88917969 37.1353125 72.89648438 38.203125 C72.82262508 46.99806282 72.82262508 46.99806282 69.4375 50.4375 C64.03147 51.14691827 59.79596806 49.73470079 54.875 47.6875 C39.39357727 41.57930619 24.43442556 38.06295811 7.75976562 38.06689453 C5.70357496 38.06253409 3.64956189 38.02611526 1.59375 37.98828125 C-11.29520804 37.87861134 -24.46875966 39.71085768 -34.5625 48.4375 C-39.89921805 53.77421805 -41.72232278 59.95144291 -42.0625 67.3125 C-41.81982848 75.33077143 -38.90055668 81.5117347 -33.1875 87.125 C-17.49640731 99.43735376 5.01282641 103.82867917 23.78515625 109.76171875 C45.64294131 116.73538582 67.97067984 124.91045628 79.4375 146.4375 C86.98782605 164.41634427 88.66492719 185.00325864 81.4375 203.4375 C73.45558239 222.19934438 58.01728424 235.58059705 39.4375 243.4375 C4.20055766 257.41860938 -40.12781689 254.52352341 -74.73828125 239.70703125 C-81.06538145 236.79497344 -85.42132984 234.06771346 -89.5625 228.4375 C-91.08914487 223.8575654 -90.7469271 219.29678972 -90.75 214.5 C-90.76224609 213.49775391 -90.77449219 212.49550781 -90.78710938 211.46289062 C-90.78904297 210.49673828 -90.79097656 209.53058594 -90.79296875 208.53515625 C-90.79707764 207.65351807 -90.80118652 206.77187988 -90.80541992 205.86352539 C-90.54361012 203.24884802 -89.96880804 201.64573441 -88.5625 199.4375 C-84.51594494 197.41422247 -79.38279978 198.8477503 -75.22949219 200.19335938 C-72.78228203 201.15501967 -70.35956086 202.16420904 -67.9375 203.1875 C-41.72836365 213.7350504 -6.39232082 219.69039008 20.5 208.5 C28.22015694 204.65437876 34.69863472 199.85462273 38.3125 191.8125 C40.72017623 184.32839797 40.64962771 176.1652745 37.375 169 C27.34373801 151.7518023 1.71650184 147.4835704 -15.8984375 142.2421875 C-53.22737876 131.09154093 -53.22737876 131.09154093 -65.5625 119.4375 C-66.32691406 118.73882812 -67.09132813 118.04015625 -67.87890625 117.3203125 C-79.39260776 106.35668899 -87.25207025 91.64113276 -87.86328125 75.484375 C-88.07705448 56.29867703 -84.62413041 41.02293987 -70.86328125 26.70703125 C-70.10402344 25.95808594 -69.34476563 25.20914063 -68.5625 24.4375 C-67.87542969 23.74011719 -67.18835938 23.04273438 -66.48046875 22.32421875 C-48.64566553 5.28354406 -23.94607635 -0.21369842 0 0 Z " fill="#000000" transform="translate(681.5625,209.5625)"/>
<path d="M0 0 C1.18239258 0.00223572 1.18239258 0.00223572 2.38867188 0.0045166 C19.03354056 0.06104571 37.7770165 0.19925023 52.375 9.25 C58.95712405 16.49033645 56.83809526 28.81150485 56.48388672 37.86083984 C54.18139246 71.84065597 39.48528784 107.52136654 17.25 133.3125 C16.59257813 134.10269531 15.93515625 134.89289063 15.2578125 135.70703125 C10.1541625 141.69438719 5.18726008 147.2152308 -2.5625 149.375 C-5.75 149.3125 -5.75 149.3125 -7.75 148.3125 C-9.66132579 144.48984842 -8.03150134 140.18195781 -6.76953125 136.28417969 C-6.37121094 135.27774414 -5.97289062 134.27130859 -5.5625 133.234375 C-5.11535645 132.08727051 -4.66821289 130.94016602 -4.20751953 129.75830078 C-3.72653809 128.53868652 -3.24555664 127.31907227 -2.75 126.0625 C-1.74012423 123.45328773 -0.7397016 120.84052316 0.2578125 118.2265625 C0.51031769 117.56498138 0.76282288 116.90340027 1.02297974 116.22177124 C16.37853715 80.45128834 16.37853715 80.45128834 15.96875 43.12890625 C13.12717135 38.47259214 10.18661092 37.03601884 5 35.6875 C4.10796875 35.44773437 3.2159375 35.20796875 2.296875 34.9609375 C-23.32847017 29.5073384 -52.12252018 33.92858137 -77.890625 36.8984375 C-81.01421634 37.23355965 -84.04927019 37.47489416 -87.1875 37.5 C-88.01121094 37.51417969 -88.83492187 37.52835938 -89.68359375 37.54296875 C-91.75 37.3125 -91.75 37.3125 -93.75 35.3125 C-94.22847989 31.72390086 -94.15893086 29.92688405 -92.1328125 26.8828125 C-89.45480028 23.99407145 -86.61568608 21.98060611 -83.25 20 C-82.599104 19.61682617 -81.94820801 19.23365234 -81.27758789 18.83886719 C-56.5090349 4.75166209 -28.19428809 -0.13223501 0 0 Z " fill="#FF9900" transform="translate(743.75,508.6875)"/>
</svg>