<svg width="24" height="24" viewBox="0 0 24 24" fill="none" xmlns="http://www.w3.org/2000/svg">
<path d="M6.60595 13.7986L6.64179 13.8076L15.0619 16.3847C15.1324 16.4049 15.1982 16.4389 15.2556 16.4846C15.313 16.5303 15.3608 16.5868 15.3963 16.651C15.4318 16.7152 15.4542 16.7858 15.4623 16.8587C15.4689 16.917 15.4661 16.9759 15.4543 17.0332L15.4437 17.0758L14.0328 21.5925C13.9831 21.7301 13.8862 21.8458 13.7592 21.9184C13.6438 21.9845 13.5104 22.0114 13.379 21.9956L13.3397 21.9895L4.91956 19.3876C4.77891 19.3448 4.66087 19.2481 4.59113 19.1187C4.52774 19.001 4.50894 18.865 4.53732 18.7352L4.54725 18.6965L5.94869 14.1894C5.99037 14.0471 6.08666 13.9271 6.21651 13.8556C6.33554 13.79 6.47392 13.7701 6.60595 13.7986ZM20.8204 15.861L20.8014 15.8808L15.1783 21.0866C14.9714 21.2935 14.8646 21.2252 14.9306 20.9558L14.9377 20.9282L16.1101 17.156C16.1627 17 16.2538 16.8599 16.3749 16.7484C16.4826 16.6494 16.6109 16.5758 16.7504 16.533L16.8031 16.5184L20.6677 15.6402C20.9415 15.5418 21.0056 15.6514 20.838 15.8417L20.8204 15.861ZM2.42328 9.98826L2.44124 10.0086L5.13337 12.9142C5.23905 13.0417 5.31327 13.1923 5.35009 13.3537C5.3828 13.4973 5.38515 13.6459 5.35721 13.79L5.34531 13.8438L4.173 17.616C4.10101 17.8984 3.97015 17.9078 3.91321 17.6443L3.90759 17.616L2.20066 10.1423C2.11751 9.85961 2.24536 9.79327 2.42328 9.98826ZM19.5902 5.18142C19.7047 5.24999 19.79 5.35761 19.8309 5.4838L19.8409 5.51866L21.8132 14.0729C21.8341 14.1428 21.8401 14.2162 21.8309 14.2886C21.8217 14.3609 21.7976 14.4305 21.7602 14.493C21.7227 14.5555 21.6724 14.6095 21.6129 14.6516C21.5652 14.6852 21.5124 14.7106 21.4566 14.7268L21.4143 14.7373L16.7764 15.8006C16.6352 15.8359 16.4857 15.8137 16.3608 15.7389C16.2463 15.6703 16.161 15.5627 16.1201 15.4365L16.1101 15.4016L14.1435 6.84734C14.1082 6.70684 14.1299 6.55809 14.204 6.43359C14.2718 6.31948 14.3787 6.23426 14.5041 6.19312L14.5387 6.183L19.1746 5.11967C19.3158 5.08442 19.4653 5.10662 19.5902 5.18142ZM13.545 7.18155L13.5535 7.21005L15.4189 15.2852C15.4947 15.5789 15.3237 15.7368 15.0461 15.674L15.018 15.667L7.07714 13.2234C6.79508 13.146 6.73552 12.9209 6.92422 12.7147L6.94539 12.6927L13.0208 7.04969C13.2257 6.84485 13.4574 6.91294 13.545 7.18155ZM9.17657 2.00016C9.24888 2.00194 9.32009 2.01806 9.3861 2.04758C9.43891 2.07119 9.48756 2.10301 9.53025 2.14177L9.56113 2.17213L12.7802 5.65799C12.8775 5.76301 12.9293 5.90224 12.9243 6.0453C12.9197 6.17642 12.8677 6.30102 12.7787 6.39633L12.7535 6.42159L6.30574 12.4006C6.19932 12.4989 6.0584 12.5512 5.91361 12.5462C5.78088 12.5417 5.65472 12.4892 5.55807 12.3993L5.53246 12.3739L2.30762 8.88613C2.21129 8.78065 2.16013 8.64162 2.16513 8.49888C2.16971 8.36802 2.22114 8.24359 2.30938 8.14789L2.33435 8.12252L8.78403 2.15304C8.83609 2.10284 8.89757 2.06347 8.96497 2.03723C9.03236 2.01099 9.10428 1.99839 9.17657 2.00016ZM10.8079 2.1461L10.8346 2.15307L18.1893 4.4038C18.4736 4.47946 18.483 4.60686 18.2264 4.68769L18.1989 4.69588L14.3344 5.5721C14.1725 5.60531 14.0049 5.59925 13.8458 5.5544C13.7044 5.51455 13.5732 5.4451 13.461 5.35088L13.4199 5.3144L10.7277 2.41842C10.4965 2.18725 10.5394 2.0797 10.8079 2.1461Z" fill="#FAFCFF"/>
</svg>
