<svg width="100%" height="100%" viewBox="0 0 24 24" fill="none" xmlns="http://www.w3.org/2000/svg">
<g clip-path="url(#clip0_814_122599)">
<path d="M5.31492 14.1198L5.3578 14.1306L15.4345 17.2148C15.5189 17.239 15.5977 17.2796 15.6663 17.3343C15.735 17.389 15.7922 17.4566 15.8346 17.5335C15.8771 17.6103 15.904 17.6948 15.9137 17.782C15.9215 17.8518 15.9182 17.9222 15.9041 17.9908L15.8915 18.0418L14.2029 23.4472C14.1435 23.6118 14.0274 23.7502 13.8755 23.8372C13.7374 23.9163 13.5777 23.9485 13.4205 23.9295L13.3734 23.9223L3.29674 20.8085C3.12842 20.7572 2.98715 20.6416 2.90369 20.4867C2.82783 20.3458 2.80533 20.183 2.8393 20.0278L2.85118 19.9814L4.52835 14.5875C4.57823 14.4173 4.69346 14.2737 4.84886 14.1881C4.9913 14.1096 5.15691 14.0857 5.31492 14.1198ZM22.326 16.588L22.3031 16.6117L15.5738 22.8417C15.3262 23.0893 15.1983 23.0075 15.2773 22.6851L15.2859 22.6521L16.6889 18.1378C16.7519 17.9512 16.8609 17.7834 17.0058 17.65C17.1347 17.5315 17.2883 17.4435 17.4551 17.3922L17.5183 17.3747L22.1431 16.3238C22.4709 16.206 22.5476 16.3372 22.347 16.5649L22.326 16.588ZM0.309343 9.55988L0.330828 9.58426L3.55262 13.0614C3.67909 13.2141 3.76791 13.3943 3.81197 13.5875C3.85112 13.7593 3.85393 13.9371 3.82049 14.1096L3.80626 14.174L2.4033 18.6884C2.31715 19.0263 2.16055 19.0375 2.0924 18.7221L2.08568 18.6884L0.0429213 9.74419C-0.0565851 9.40592 0.0964194 9.32653 0.309343 9.55988ZM20.8537 3.80734C20.9908 3.88939 21.0929 4.01818 21.1417 4.16921L21.1537 4.21093L23.5141 14.4482C23.539 14.5318 23.5462 14.6197 23.5352 14.7062C23.5242 14.7928 23.4954 14.8761 23.4506 14.9509C23.4057 15.0257 23.3456 15.0903 23.2743 15.1407C23.2172 15.1809 23.1541 15.2113 23.0873 15.2307L23.0366 15.2432L17.4864 16.5158C17.3173 16.5579 17.1384 16.5314 16.9889 16.4419C16.8519 16.3598 16.7498 16.231 16.7009 16.08L16.6889 16.0383L14.3354 5.80101C14.2931 5.63287 14.3191 5.45485 14.4078 5.30586C14.489 5.16929 14.6168 5.06731 14.7669 5.01807L14.8084 5.00597L20.3563 3.73344C20.5253 3.69126 20.7043 3.71782 20.8537 3.80734ZM13.6192 6.20097L13.6294 6.23508L15.8618 15.8989C15.9525 16.2504 15.7478 16.4394 15.4156 16.3642L15.3819 16.3558L5.8788 13.4316C5.54125 13.3389 5.46997 13.0695 5.69581 12.8228L5.72114 12.7964L12.9919 6.04317C13.2371 5.79803 13.5143 5.87952 13.6192 6.20097ZM8.39128 0.000197145C8.47781 0.00232254 8.56303 0.0216088 8.64203 0.0569367C8.70523 0.0851989 8.76345 0.123277 8.81455 0.169666L8.8515 0.205992L12.7039 4.37767C12.8204 4.50336 12.8823 4.66997 12.8763 4.84117C12.8708 4.99809 12.8086 5.14721 12.7021 5.26127L12.672 5.2915L4.95564 12.4469C4.82829 12.5645 4.65964 12.6271 4.48636 12.6211C4.32752 12.6156 4.17654 12.5529 4.06087 12.4453L4.03022 12.4149L0.170925 8.24092C0.0556386 8.11468 -0.00557994 7.9483 0.000400318 7.77747C0.00588223 7.62087 0.0674297 7.47196 0.173031 7.35743L0.202915 7.32707L7.92151 0.183146C7.98381 0.12307 8.05739 0.0759615 8.13804 0.0445557C8.2187 0.0131497 8.30476 -0.00192826 8.39128 0.000197145ZM10.3436 0.174841L10.3755 0.183182L19.1772 2.87673C19.5174 2.96727 19.5287 3.11973 19.2216 3.21647L19.1886 3.22627L14.5639 4.27488C14.3701 4.31463 14.1696 4.30737 13.9791 4.2537C13.8099 4.20601 13.6529 4.12289 13.5187 4.01014L13.4694 3.96648L10.2476 0.500741C9.9709 0.224092 10.0223 0.0953797 10.3436 0.174841Z" fill="#020A47"/>
</g>
<defs>
<clipPath id="clip0_814_122599">
<rect width="24" height="24" fill="white"/>
</clipPath>
</defs>
</svg>
