<?xml version="1.0" encoding="utf-8"?>
<!-- Generator: Adobe Illustrator 21.1.0, SVG Export Plug-In . SVG Version: 6.00 Build 0)  -->
<svg version="1.1" id="InfluxData_Complete_Logo" xmlns="http://www.w3.org/2000/svg" xmlns:xlink="http://www.w3.org/1999/xlink"
	 x="0px" y="0px" width="800px" height="800px" viewBox="-125.5 -79 800 800" style="enable-background:new -125.5 -79 800 800;"
	 xml:space="preserve">
<style type="text/css">
	.st0{fill-rule:evenodd;clip-rule:evenodd;fill:#22ADF6;}
</style>
<path class="st0" d="M489.2,384c6.6-1.2,10.8-7.8,9-15l-44.5-193.1c-1.8-6.6-8.4-10.8-15-9l-104.6,24c-6.6,1.8-10.8,8.4-9,15
	l44.5,193.1c1.8,6.6,8.4,10.8,15,9L489.2,384z M475.3,409.7c4.8-4.8,3.6-7.8-3-5.4l-87.2,19.8c-6.6,1.2-13.8,7.8-15.6,14.4
	L343,523.7c-1.8,6.6,0.6,8.4,5.4,3.6L475.3,409.7z M307,547.6c6.6,1.2,13.2-2.4,15.6-9l31.9-101.9c1.8-6.6-1.8-13.8-8.4-15.6
	l-190-58.2c-6.6-1.8-13.8,1.8-15.6,8.4l-31.9,101.9c-1.8,6.6,1.8,13.8,8.4,15.6L307,547.6z M94.1,448.7c1.2,6.6,4.2,6.6,6,0
	l26.5-85.1c1.8-6.6,0-16.2-4.8-21l-60.7-65.4c-4.2-4.8-7.2-3.6-5.4,3L94.1,448.7z M58.6,234.7c-4.8,4.2-5.4,12-0.6,17.4l72.7,78.5
	c4.8,4.8,12.6,5.4,17.4,0.6l145.5-134.9c4.8-4.8,5.4-12.6,0.6-17.4l-72.7-78.5c-4.8-4.8-12.6-5.4-17.4-0.6L58.6,234.7z M353.9,396.5
	l-42.1-182.3c-1.8-6.6-7.2-8.4-12-3.6L162.7,337.8c-4.8,4.8-3.6,10.2,3,12l179.2,55.2C351.5,406.7,355.7,403.1,353.9,396.5z
	 M250.4,99.8c-6.6-1.8-7.8,0.6-2.4,6l60.7,65.4c4.8,4.8,13.8,7.8,20.4,6l87.2-19.8c6.6-1.8,6.6-4.8,0-6.6L250.4,99.8z M546.9,378
	c3,12.6-1.8,28.8-11.4,38.4L350.3,587.8c-7.2,6-18,10.2-28.3,10.2c-3.6,0-7.2,0-10.2-1.2L85.7,526.7c-12.6-3.6-24.1-16.2-27.1-28.8
	L2.1,252.1c-3-12,1.8-28.8,11.4-37.2L186.7,54.2c7.2-6,18-10.2,28.3-10.2c3.6,0,7.2,0,10.2,1.2l241.7,74.3
	c12.6,3.6,24,16.2,27.1,28.8L546.9,378z"/>
</svg>
