<svg width="24" height="24" viewBox="0 0 24 24" fill="none" xmlns="http://www.w3.org/2000/svg">
<path d="M21.3467 8.13306L17.8861 6.12199C17.3057 5.78457 16.5769 6.20568 16.5769 6.87513V11.9608L14.1204 10.5463C12.8031 9.78781 11.1834 9.79051 9.87151 10.5517L7.42583 11.9662V6.87243C7.42583 6.20028 6.69969 5.78187 6.11662 6.11929L2.64786 8.13036C2.24565 8.36251 2 8.79442 2 9.25872V14.0394C2 14.3741 2.08368 14.6927 2.23755 14.9734C2.39412 15.2622 2.62087 15.5079 2.90701 15.6914L4.69132 16.8306L6.05723 17.6998C6.87785 18.2208 7.93332 18.1803 8.71076 17.5945L8.81334 17.5135C8.81334 17.5135 8.83223 17.4973 8.84303 17.492L10.9027 15.9209C11.5047 15.4593 12.4899 15.4593 13.0946 15.9209L15.1489 17.4866C15.1489 17.4866 15.157 17.492 15.1597 17.4946L15.2865 17.5945C16.0613 18.1803 17.1195 18.2208 17.9401 17.6998L19.306 16.8279L21.0957 15.6887C21.3764 15.5079 21.6032 15.2595 21.7598 14.9761C21.9163 14.6927 22 14.3741 22 14.0394V9.26142C22 8.79712 21.7544 8.36521 21.3521 8.13306H21.3548H21.3467Z" fill="url(#paint0_linear_730_58838)"/>
<path d="M16.6039 15.0624V16.7792C16.6039 17.3083 16.2232 17.7402 15.7643 17.7402C15.5835 17.7402 15.3567 17.6484 15.1462 17.4891L13.0919 15.9235C12.4899 15.4619 11.5047 15.4619 10.9 15.9235L8.84033 17.4945C8.63517 17.6484 8.5029 17.6943 8.30854 17.6943C7.83074 17.6997 7.40424 17.3407 7.40424 16.7792V15.0678L10.3466 13.1674C11.3562 12.5168 12.6465 12.5168 13.6534 13.1674L16.6012 15.0246V15.0597L16.6039 15.0624Z" fill="url(#paint1_linear_730_58838)"/>
<path d="M16.5769 11.9609L16.585 15.0896L13.6588 13.2189C12.6519 12.5737 11.3616 12.5737 10.352 13.2189L7.41772 15.0923L7.42312 11.9663L9.8715 10.5491C11.1834 9.78791 12.8031 9.78791 14.1204 10.5437L16.5769 11.9582V11.9609Z" fill="url(#paint2_linear_730_58838)"/>
<path d="M21.9946 9.26142V14.0394C21.9946 14.3768 21.9109 14.6927 21.7543 14.9761L16.5742 11.9608V6.87243C16.5742 6.20028 17.303 5.78187 17.8834 6.11929L21.344 8.13306C21.7462 8.36521 21.9919 8.79712 21.9919 9.26142H21.9946Z" fill="url(#paint3_linear_730_58838)"/>
<path d="M7.42043 6.87232V11.9661L2.23755 14.9787C2.08368 14.6952 2 14.3767 2 14.042V9.2613C2 8.797 2.24565 8.3651 2.64786 8.13295L6.11122 6.11918C6.69159 5.78175 7.42043 6.20286 7.42043 6.87232Z" fill="url(#paint4_linear_730_58838)"/>
<path d="M15.6914 17.6809C16.1503 17.6809 16.5822 17.3191 16.5822 16.7954V15.0786L19.3168 16.8251L17.9347 17.7051C17.114 18.2261 16.0586 18.1883 15.2811 17.5999L15.1516 17.4973C15.3459 17.6296 15.5106 17.6809 15.6914 17.6809Z" fill="url(#paint5_linear_730_58838)"/>
<path d="M21.7544 14.9789C21.5978 15.2623 21.371 15.5107 21.0903 15.6915L19.3006 16.8307L16.5796 15.0896L16.5715 11.9609L21.7517 14.9789H21.7544Z" fill="url(#paint6_linear_730_58838)"/>
<path d="M7.4204 16.7927C7.4204 17.3164 7.855 17.7294 8.31121 17.6781C8.51366 17.6538 8.67293 17.6241 8.83489 17.5L8.71072 17.5971C7.93599 18.1802 6.87781 18.2234 6.05719 17.7024L4.69128 16.8305L7.4204 15.0867V16.79V16.7927Z" fill="url(#paint7_linear_730_58838)"/>
<path d="M7.42043 11.9663V15.0895L4.69132 16.8307L2.907 15.6969C2.62357 15.516 2.39412 15.2677 2.23755 14.9789L7.41774 11.9663H7.42043Z" fill="url(#paint8_linear_730_58838)"/>
<defs>
<linearGradient id="paint0_linear_730_58838" x1="12.7545" y1="19.117" x2="11.1807" y2="3.67632" gradientUnits="userSpaceOnUse">
<stop stop-color="#75BE2C"/>
<stop offset="0.86" stop-color="#9DC03B"/>
</linearGradient>
<linearGradient id="paint1_linear_730_58838" x1="12.004" y1="12.6815" x2="12.004" y2="17.7429" gradientUnits="userSpaceOnUse">
<stop stop-color="#238D37"/>
<stop offset="0.94" stop-color="#35537F"/>
</linearGradient>
<linearGradient id="paint2_linear_730_58838" x1="11.4669" y1="10.0605" x2="12.2524" y2="15.211" gradientUnits="userSpaceOnUse">
<stop stop-color="#67D84D"/>
<stop offset="1" stop-color="#348522"/>
</linearGradient>
<linearGradient id="paint3_linear_730_58838" x1="19.2844" y1="6.00052" x2="19.2844" y2="14.9788" gradientUnits="userSpaceOnUse">
<stop stop-color="#E4D00A"/>
<stop offset="0.56" stop-color="#C4D132"/>
</linearGradient>
<linearGradient id="paint4_linear_730_58838" x1="4.71022" y1="6.0004" x2="4.71022" y2="663.004" gradientUnits="userSpaceOnUse">
<stop stop-color="#E4D00A"/>
<stop offset="0.56" stop-color="#C4D132"/>
</linearGradient>
<linearGradient id="paint5_linear_730_58838" x1="17.2328" y1="15.0759" x2="17.2328" y2="18.0696" gradientUnits="userSpaceOnUse">
<stop stop-color="#8AB11B"/>
<stop offset="1" stop-color="#6EAF02"/>
</linearGradient>
<linearGradient id="paint6_linear_730_58838" x1="19.414" y1="11.4615" x2="18.785" y2="16.5014" gradientUnits="userSpaceOnUse">
<stop stop-color="#75BE2C"/>
<stop offset="0.86" stop-color="#9DC03B"/>
</linearGradient>
<linearGradient id="paint7_linear_730_58838" x1="6.76174" y1="15.0867" x2="6.76174" y2="18.0668" gradientUnits="userSpaceOnUse">
<stop stop-color="#8AB11B"/>
<stop offset="1" stop-color="#6EAF02"/>
</linearGradient>
<linearGradient id="paint8_linear_730_58838" x1="5.19071" y1="11.4858" x2="4.57255" y2="17.546" gradientUnits="userSpaceOnUse">
<stop stop-color="#75BE2C"/>
<stop offset="0.86" stop-color="#9DC03B"/>
</linearGradient>
</defs>
</svg>
