<svg width="16" height="16" viewBox="0 0 16 16" fill="none" xmlns="http://www.w3.org/2000/svg">
<path fill-rule="evenodd" clip-rule="evenodd" d="M1 13V7H5.5C6.32843 7 7 6.32843 7 5.5V1H9C10.1046 1 11 1.89543 11 3V7.51491C10.9701 7.51164 10.9401 7.50889 10.9099 7.50668C9.80561 7.42578 8.77964 8.08094 8.38847 9.11682L7.32818 11.9246C6.27375 12.2181 5.5 13.1854 5.5 14.3333C5.5 14.5642 5.53129 14.7878 5.58987 15H3C1.89543 15 1 14.1046 1 13ZM4.91421 1H5.83333V4.83333C5.83333 5.38562 5.38562 5.83333 4.83333 5.83333H1V4.91421C1 4.649 1.10536 4.39464 1.29289 4.20711L2.5 3L4.20711 1.29289C4.39464 1.10536 4.649 1 4.91421 1Z" fill="#000000"/>
<path fill-rule="evenodd" clip-rule="evenodd" d="M10.8003 9.00268C11.2421 9.03504 11.6099 9.35411 11.7043 9.78684L12.3135 12.5789L12.8215 11.8647C13.0091 11.601 13.3128 11.4444 13.6364 11.4444H15C15.5523 11.4444 16 11.8922 16 12.4444C16 12.9967 15.5523 13.4444 15 13.4444H14.1522L12.633 15.5797C12.4036 15.9022 12.0055 16.059 11.6178 15.9797C11.23 15.9004 10.9255 15.5999 10.8412 15.2132L10.47 13.512L10.0264 14.6866C9.87947 15.0758 9.50691 15.3333 9.09091 15.3333H8C7.44772 15.3333 7 14.8856 7 14.3333C7 13.7811 7.44772 13.3333 8 13.3333H8.39961L9.79175 9.64673C9.94822 9.23238 10.3586 8.97032 10.8003 9.00268Z" fill="#000000"/>
</svg>
