<svg width="20" height="16" viewBox="0 0 20 16" fill="none" xmlns="http://www.w3.org/2000/svg">
<path opacity="0.4" fill-rule="evenodd" clip-rule="evenodd" d="M20 7.52001C20 8.07001 19.56 8.52001 19 8.52001H16V9.52001C16 10.04 15.94 10.55 15.81 11.04L16.03 11.17L18.52 12.66C18.99 12.94 19.14 13.56 18.86 14.03C18.58 14.51 17.96 14.66 17.49 14.38L17 14.09L15.34 13.1L15.29 13.07L14.98 12.88C14.76 13.19 14.52 13.49 14.25 13.76C13.49 14.52 12.55 15.05 11.54 15.31C11.38 15.36 11.21 15.39 11.04 15.42V12.81C11.04 12.26 10.59 11.81 10.04 11.81C9.49 11.81 9.04 12.26 9.04 12.81V15.44C8.85 15.41 8.66 15.36 8.47 15.31C7.45 15.05 6.52 14.52 5.76 13.76C5.49 13.49 5.24 13.19 5.03 12.88L4.71 13.07L3.08 14.05L2.52 14.38C2.04 14.66 1.43 14.51 1.14 14.03C0.86 13.56 1.02 12.94 1.49 12.66L3.98 11.17L4.2 11.04C4.07 10.55 4 10.04 4 9.52001V8.52001H1C0.45 8.52001 0 8.07001 0 7.52001C0 6.97001 0.45 6.52001 1 6.52001H4V6.46001C4.05 5.72001 4.21 4.98001 4.48 4.29001L4.05 4.01001L1.46 2.36001C1 2.06001 0.86 1.45001 1.16 0.980014C1.46 0.520014 2.08 0.380014 2.54 0.680014L4.99 2.25001L5.57 2.62001C5.71 2.55001 5.85 2.52001 6 2.52001H14C14.15 2.52001 14.3 2.55001 14.43 2.62001L15.01 2.25001L17.46 0.680014C17.93 0.380014 18.55 0.520014 18.85 0.980014C19.14 1.45001 19.01 2.06001 18.54 2.36001L15.95 4.02001L15.53 4.29001C15.8 4.98001 15.96 5.72001 16 6.46001V6.52001H19C19.56 6.52001 20 6.97001 20 7.52001Z" fill="#121212"/>
</svg>
