<svg width="20" height="25" viewBox="0 0 20 25" fill="none" xmlns="http://www.w3.org/2000/svg">
<path fill-rule="evenodd" clip-rule="evenodd" d="M3.91058 8.08983C3.73357 8.08983 3.59007 8.23333 3.59007 8.41034V9.05136C3.59007 9.5824 3.15957 10.0129 2.62853 10.0129C2.09749 10.0129 1.66699 9.5824 1.66699 9.05136V8.41034C1.66699 7.17124 2.67148 6.16675 3.91058 6.16675H4.55161C5.08265 6.16675 5.51315 6.59724 5.51315 7.12829C5.51315 7.65933 5.08265 8.08983 4.55161 8.08983H3.91058ZM14.4875 7.12829C14.4875 6.59724 14.918 6.16675 15.449 6.16675H16.0901C17.3292 6.16675 18.3337 7.17124 18.3337 8.41034V9.05136C18.3337 9.5824 17.9031 10.0129 17.3721 10.0129C16.8411 10.0129 16.4106 9.5824 16.4106 9.05136V8.41034C16.4106 8.23333 16.2671 8.08983 16.0901 8.08983H15.449C14.918 8.08983 14.4875 7.65933 14.4875 7.12829ZM18.3337 19.9488C18.3337 19.4178 17.9031 18.9873 17.3721 18.9873C16.8411 18.9873 16.4106 19.4178 16.4106 19.9488V20.5898C16.4106 20.7669 16.2671 20.9103 16.0901 20.9103H15.449C14.918 20.9103 14.4875 21.3409 14.4875 21.8719C14.4875 22.4029 14.918 22.8334 15.449 22.8334H16.0901C17.3292 22.8334 18.3337 21.8289 18.3337 20.5898V19.9488ZM2.62853 18.9873C3.15957 18.9873 3.59007 19.4178 3.59007 19.9488V20.5898C3.59007 20.7669 3.73357 20.9103 3.91058 20.9103H4.55161C5.08265 20.9103 5.51315 21.3409 5.51315 21.8719C5.51315 22.4029 5.08265 22.8334 4.55161 22.8334H3.91058C2.67148 22.8334 1.66699 21.8289 1.66699 20.5898V19.9488C1.66699 19.4178 2.09749 18.9873 2.62853 18.9873ZM8.39776 20.9103C7.86672 20.9103 7.43622 21.3409 7.43622 21.8719C7.43622 22.4029 7.86672 22.8334 8.39776 22.8334H11.6029C12.1339 22.8334 12.5644 22.4029 12.5644 21.8719C12.5644 21.3409 12.1339 20.9103 11.6029 20.9103H8.39776ZM7.43622 7.12829C7.43622 6.59724 7.86672 6.16675 8.39776 6.16675H11.6029C12.1339 6.16675 12.5644 6.59724 12.5644 7.12829C12.5644 7.65933 12.1339 8.08983 11.6029 8.08983H8.39776C7.86672 8.08983 7.43622 7.65933 7.43622 7.12829ZM3.59007 12.8975C3.59007 12.3665 3.15957 11.936 2.62853 11.936C2.09749 11.936 1.66699 12.3665 1.66699 12.8975V16.1026C1.66699 16.6337 2.09749 17.0642 2.62853 17.0642C3.15957 17.0642 3.59007 16.6337 3.59007 16.1026V12.8975ZM17.3721 11.936C17.9031 11.936 18.3337 12.3665 18.3337 12.8975V16.1026C18.3337 16.6337 17.9031 17.0642 17.3721 17.0642C16.8411 17.0642 16.4106 16.6337 16.4106 16.1026V12.8975C16.4106 12.3665 16.8411 11.936 17.3721 11.936ZM7.43622 10.0123C6.37413 10.0123 5.51315 10.8733 5.51315 11.9354V17.0636C5.51315 18.1256 6.37413 18.9866 7.43622 18.9866H12.5644C13.6265 18.9866 14.4875 18.1256 14.4875 17.0636V11.9354C14.4875 10.8733 13.6265 10.0123 12.5644 10.0123H7.43622Z" fill="#CCD1D5"/>
</svg>