<svg width="20" height="25" viewBox="0 0 20 25" fill="none" xmlns="http://www.w3.org/2000/svg">
<path fill-rule="evenodd" clip-rule="evenodd" d="M3.60152 6.16675C2.53311 6.16675 1.66699 7.03286 1.66699 8.10128C1.66699 8.5122 2.00011 8.84532 2.41104 8.84532C2.82197 8.84532 3.15509 8.5122 3.15509 8.10128C3.15509 7.85472 3.35496 7.65485 3.60152 7.65485C4.01245 7.65485 4.34557 7.32172 4.34557 6.9108C4.34557 6.49987 4.01245 6.16675 3.60152 6.16675ZM5.98248 6.16675C5.57155 6.16675 5.23843 6.49987 5.23843 6.9108C5.23843 7.32172 5.57155 7.65485 5.98248 7.65485H7.7682C8.17912 7.65485 8.51224 7.32172 8.51224 6.9108C8.51224 6.49987 8.17912 6.16675 7.7682 6.16675H5.98248ZM9.4051 6.9108C9.4051 6.49987 9.73822 6.16675 10.1492 6.16675C11.2176 6.16675 12.0837 7.03286 12.0837 8.10128C12.0837 8.5122 11.7506 8.84532 11.3396 8.84532C10.9287 8.84532 10.5956 8.5122 10.5956 8.10128C10.5956 7.85472 10.3957 7.65485 10.1492 7.65485C9.73822 7.65485 9.4051 7.32172 9.4051 6.9108ZM3.15509 10.4822C3.15509 10.0713 2.82197 9.73818 2.41104 9.73818C2.00011 9.73818 1.66699 10.0713 1.66699 10.4822V12.2679C1.66699 12.6789 2.00011 13.012 2.41104 13.012C2.82197 13.012 3.15509 12.6789 3.15509 12.2679V10.4822ZM2.41104 13.9049C2.82197 13.9049 3.15509 14.238 3.15509 14.6489C3.15509 14.8955 3.35496 15.0953 3.60152 15.0953C4.01245 15.0953 4.34557 15.4285 4.34557 15.8394C4.34557 16.2503 4.01245 16.5834 3.60152 16.5834C2.53311 16.5834 1.66699 15.7173 1.66699 14.6489C1.66699 14.238 2.00011 13.9049 2.41104 13.9049ZM5.23843 11.5239C5.23843 10.5377 6.03792 9.73818 7.02415 9.73818H13.5718C14.558 9.73818 15.3575 10.5377 15.3575 11.5239V14.9372L12.1665 14.1394C10.6407 13.758 9.25865 15.14 9.6401 16.6658L10.438 19.8572H7.02415C6.03792 19.8572 5.23843 19.0577 5.23843 18.0715V11.5239ZM18.1596 21.7151L17.2157 22.659C16.9832 22.8915 16.6063 22.8915 16.3739 22.659L14.4138 20.699L13.3715 21.7413C13.0443 22.0684 12.4853 21.9137 12.3731 21.4648L11.083 16.3043C10.974 15.8683 11.3689 15.4735 11.8048 15.5825L16.9654 16.8726C17.4142 16.9848 17.569 17.5438 17.2419 17.8709L16.1995 18.9133L18.1596 20.8733C18.392 21.1058 18.392 21.4827 18.1596 21.7151Z" fill="#CCD1D5"/>
</svg>