<svg width="103" height="42" viewBox="0 0 103 42" fill="none" xmlns="http://www.w3.org/2000/svg">
<path fill-rule="evenodd" clip-rule="evenodd" d="M36.8298 0.809768C39.1863 -0.0104135 41.9933 -0.35598 44.1701 0.486052C45.5729 1.02867 46.4514 2.04627 46.896 3.25806C47.3183 4.40936 47.3337 5.68124 47.1897 6.83915C46.9018 9.15345 45.9098 11.5232 45.1884 12.8463C42.2889 18.1639 38.4247 22.5794 33.9787 26.2876C34.5399 26.5461 35.1642 26.7825 35.8578 26.9918C41.9402 28.8269 49.132 29.0238 56.4351 28.3262C63.7231 27.6301 71.0241 26.0534 77.2795 24.4159C82.4789 23.0549 88.4083 21.1217 93.2877 18.5872H89.6629V15.5872C92.9426 15.5872 96.5411 15.0656 99.4739 14.2229C99.907 14.0984 100.423 13.9818 100.902 14.0288C101.15 14.0531 101.586 14.1389 101.965 14.489C102.401 14.8919 102.519 15.4129 102.498 15.8141C102.48 16.1636 102.362 16.4455 102.281 16.6106C102.192 16.7928 102.085 16.9574 101.986 17.0947C101.788 17.3689 101.541 17.6478 101.3 17.9028C100.838 18.3892 100.271 18.9171 99.8104 19.3451L99.7374 19.4131C99.4924 19.6411 99.2855 19.8344 99.1255 19.9913C98.9808 20.1332 98.9314 20.1911 98.9302 20.1901C98.9301 20.19 98.9304 20.1894 98.931 20.1883C98.2154 21.2383 97.4441 22.6219 96.8553 24.0608C96.2546 25.5287 95.8916 26.9391 95.8916 28.062C95.8916 28.8904 95.22 29.562 94.3916 29.562C93.5632 29.562 92.8916 28.8904 92.8916 28.062C92.8916 26.3835 93.4101 24.5588 94.0788 22.9247C94.3303 22.3099 94.6099 21.7058 94.9046 21.1268C89.6711 23.8822 83.3845 25.9189 78.0392 27.3182C71.7006 28.9774 64.229 30.5954 56.7204 31.3126C49.227 32.0284 41.5983 31.8574 34.9912 29.8639C33.6317 29.4537 32.4359 28.9358 31.3973 28.3162C22.759 34.7179 12.321 38.8406 2.44859 41.9316C1.65801 42.1791 0.816456 41.7389 0.568925 40.9483C0.321395 40.1577 0.761626 39.3162 1.55221 39.0687C11.0603 36.0917 20.8465 32.2185 28.9544 26.3854C26.3865 23.6838 25.8234 20.144 26.3038 16.6476C26.8596 12.6029 28.8172 8.40718 30.9138 5.00092C32.0894 3.09103 34.4739 1.6298 36.8298 0.809768ZM31.3635 24.5523C35.8622 20.9286 39.7152 16.6174 42.5545 11.4101C43.1627 10.2948 43.9859 8.29206 44.2126 6.46889C44.3259 5.55807 44.2734 4.81998 44.0795 4.29123C43.9077 3.82297 43.6215 3.49045 43.0878 3.28402C41.8659 2.81135 39.8705 2.92794 37.816 3.64305C35.761 4.35831 34.126 5.50551 33.4687 6.57347C31.4736 9.81466 29.7509 13.5989 29.2759 17.056C28.8625 20.0646 29.3991 22.6539 31.3635 24.5523Z" fill="#ACB2B9"/>
</svg>