<svg width="13" height="12" viewBox="0 0 13 12" fill="none" xmlns="http://www.w3.org/2000/svg">
<path fill-rule="evenodd" clip-rule="evenodd" d="M2.05111 0.166672C1.40678 0.166672 0.884445 0.689006 0.884445 1.33334V2.50001C0.884445 3.14434 1.40678 3.66667 2.05111 3.66667H2.19695V8.33334H2.05111C1.40678 8.33334 0.884445 8.85567 0.884445 9.5V10.6667C0.884445 11.311 1.40678 11.8333 2.05111 11.8333H3.21778C3.86211 11.8333 4.38445 11.311 4.38445 10.6667V10.5208H9.05111V10.6667C9.05111 11.311 9.57345 11.8333 10.2178 11.8333H11.3844C12.0288 11.8333 12.5511 11.311 12.5511 10.6667V9.5C12.5511 8.85567 12.0288 8.33334 11.3844 8.33334H11.2386V3.66667H11.3844C12.0288 3.66667 12.5511 3.14434 12.5511 2.50001V1.33334C12.5511 0.689006 12.0288 0.166672 11.3844 0.166672H10.2178C9.57345 0.166672 9.05111 0.689006 9.05111 1.33334V1.47917L4.38445 1.47917V1.33334C4.38445 0.689006 3.86211 0.166672 3.21778 0.166672H2.05111ZM4.38445 2.35417V2.50001C4.38445 3.14434 3.86211 3.66667 3.21778 3.66667H3.07195V8.33334H3.21778C3.86211 8.33334 4.38445 8.85567 4.38445 9.5V9.64584H9.05111V9.5C9.05111 8.85567 9.57345 8.33334 10.2178 8.33334H10.3636V3.66667H10.2178C9.57345 3.66667 9.05111 3.14434 9.05111 2.50001V2.35417L4.38445 2.35417Z" fill="#11181C"/>
</svg>
