<svg width="14" height="14" viewBox="0 0 14 14" fill="none" xmlns="http://www.w3.org/2000/svg">
<path fill-rule="evenodd" clip-rule="evenodd" d="M0.084198 2.33333C0.084198 1.22876 0.979629 0.333328 2.0842 0.333328H8.75086C9.85543 0.333328 10.7509 1.22876 10.7509 2.33333V10H4.95086C4.65631 10 4.41753 10.2388 4.41753 10.5333C4.41753 11.7115 3.44587 12.6667 2.26766 12.6667C1.07104 12.6667 0.084198 11.6966 0.084198 10.5V2.33333ZM2.75086 3.16666C2.47472 3.16666 2.25086 3.39052 2.25086 3.66666C2.25086 3.9428 2.47472 4.16666 2.75086 4.16666H8.0842C8.36034 4.16666 8.5842 3.9428 8.5842 3.66666C8.5842 3.39052 8.36034 3.16666 8.0842 3.16666H2.75086ZM2.25086 7C2.25086 6.72385 2.47472 6.5 2.75086 6.5H5.41753C5.69367 6.5 5.91753 6.72385 5.91753 7C5.91753 7.27614 5.69367 7.5 5.41753 7.5H2.75086C2.47472 7.5 2.25086 7.27614 2.25086 7Z" fill="#889096"/>
<path d="M13.3352 11.6599C13.0416 12.8135 11.9959 13.6667 10.7509 13.6667H2.75086C3.99585 13.6667 5.04157 12.8135 5.33525 11.6599C5.42608 11.3031 5.71601 11 6.0842 11H12.7509C13.1191 11 13.4261 11.3031 13.3352 11.6599Z" fill="#889096"/>
</svg>
