<svg width="13" height="14" viewBox="0 0 13 14" fill="none" xmlns="http://www.w3.org/2000/svg">
<path d="M8.75945 7.14584C9.00107 7.14584 9.19695 6.94996 9.19695 6.70834C9.19695 6.46671 9.00107 6.27084 8.75945 6.27084H4.09278C3.85115 6.27084 3.65528 6.46671 3.65528 6.70834C3.65528 6.94996 3.85115 7.14584 4.09278 7.14584H8.75945Z" fill="#11181C"/>
<path fill-rule="evenodd" clip-rule="evenodd" d="M0.446945 6.70834C0.446945 3.40614 3.12391 0.729172 6.42611 0.729172C9.72831 0.729172 12.4053 3.40614 12.4053 6.70834C12.4053 8.20197 11.8576 9.56769 10.9521 10.6156L12.8605 12.524C13.0313 12.6948 13.0313 12.9718 12.8605 13.1427C12.6896 13.3136 12.4126 13.3136 12.2418 13.1427L10.3334 11.2343C9.28546 12.1398 7.91974 12.6875 6.42611 12.6875C3.12391 12.6875 0.446945 10.0105 0.446945 6.70834ZM6.42611 1.60417C3.60716 1.60417 1.32195 3.88938 1.32195 6.70834C1.32195 9.52729 3.60716 11.8125 6.42611 11.8125C9.24506 11.8125 11.5303 9.52729 11.5303 6.70834C11.5303 3.88938 9.24506 1.60417 6.42611 1.60417Z" fill="#11181C"/>
</svg>
