<svg width="13" height="14" viewBox="0 0 13 14" fill="none" xmlns="http://www.w3.org/2000/svg">
<path d="M6.4261 3.93751C6.66772 3.93751 6.8636 4.13338 6.8636 4.37501V6.27084H8.75943C9.00105 6.27084 9.19693 6.46671 9.19693 6.70834C9.19693 6.94996 9.00105 7.14584 8.75943 7.14584H6.8636V9.04167C6.8636 9.2833 6.66772 9.47917 6.4261 9.47917C6.18447 9.47917 5.9886 9.2833 5.9886 9.04167V7.14584H4.09276C3.85114 7.14584 3.65526 6.94996 3.65526 6.70834C3.65526 6.46671 3.85114 6.27084 4.09276 6.27084H5.9886V4.37501C5.9886 4.13338 6.18447 3.93751 6.4261 3.93751Z" fill="#11181C"/>
<path fill-rule="evenodd" clip-rule="evenodd" d="M0.44693 6.70834C0.44693 3.40614 3.12389 0.729172 6.4261 0.729172C9.7283 0.729172 12.4053 3.40614 12.4053 6.70834C12.4053 8.20197 11.8576 9.56769 10.9521 10.6156L12.8605 12.524C13.0313 12.6948 13.0313 12.9718 12.8605 13.1427C12.6896 13.3136 12.4126 13.3136 12.2417 13.1427L10.3334 11.2343C9.28544 12.1398 7.91973 12.6875 6.4261 12.6875C3.12389 12.6875 0.44693 10.0105 0.44693 6.70834ZM6.4261 1.60417C3.60714 1.60417 1.32193 3.88938 1.32193 6.70834C1.32193 9.52729 3.60714 11.8125 6.4261 11.8125C9.24505 11.8125 11.5303 9.52729 11.5303 6.70834C11.5303 3.88938 9.24505 1.60417 6.4261 1.60417Z" fill="#11181C"/>
</svg>
