<svg xmlns="http://www.w3.org/2000/svg" viewBox="0 0 1440 900" preserveAspectRatio="xMidYMin slice"><rect width="1440" height="900" fill="#1F2129"/><rect width="1440" height="48" fill="#60A5FA"/><rect x="24" y="20" width="96" height="8" rx="4" fill="#FFFFFF" fill-opacity="0.6"/><rect x="67" y="72" width="1306" height="100" rx="8" fill="#2B2F3A" stroke="#3A3F4B" stroke-width="2"/><rect x="97" y="80" width="420" height="10" rx="5" fill="#4C5155"/><rect x="97" y="107" width="420" height="10" rx="5" fill="#4C5155"/><rect x="97" y="136" width="420" height="10" rx="5" fill="#4C5155"/><rect x="67" y="188" width="251" height="132" rx="8" fill="#2B2F3A" stroke="#3A3F4B" stroke-width="2"/><rect x="73" y="202" width="132" height="10" rx="5" fill="#4C5155"/><rect x="73" y="228" width="156" height="10" rx="5" fill="#4C5155"/><rect x="73" y="246" width="93" height="10" rx="5" fill="#4C5155"/><rect x="73" y="278" width="84" height="10" rx="5" fill="#4C5155"/><rect x="331" y="188" width="251" height="132" rx="8" fill="#2B2F3A" stroke="#3A3F4B" stroke-width="2"/><rect x="337" y="202" width="132" height="10" rx="5" fill="#4C5155"/><rect x="337" y="228" width="156" height="10" rx="5" fill="#4C5155"/><rect x="337" y="246" width="93" height="10" rx="5" fill="#4C5155"/><rect x="337" y="278" width="84" height="10" rx="5" fill="#4C5155"/><rect x="594" y="188" width="251" height="132" rx="8" fill="#2B2F3A" stroke="#3A3F4B" stroke-width="2"/><rect x="600" y="202" width="144" height="10" rx="5" fill="#4C5155"/><rect x="600" y="228" width="168" height="10" rx="5" fill="#4C5155"/><rect x="600" y="246" width="101" height="10" rx="5" fill="#4C5155"/><rect x="600" y="278" width="96" height="10" rx="5" fill="#4C5155"/><rect x="858" y="188" width="251" height="132" rx="8" fill="#2B2F3A" stroke="#3A3F4B" stroke-width="2"/><rect x="864" y="202" width="144" height="10" rx="5" fill="#4C5155"/><rect x="864" y="228" width="168" height="10" rx="5" fill="#4C5155"/><rect x="864" y="246" width="101" height="10" rx="5" fill="#4C5155"/><rect x="864" y="278" width="96" height="10" rx="5" fill="#4C5155"/><rect x="1122" y="188" width="251" height="132" rx="8" fill="#2B2F3A" stroke="#3A3F4B" stroke-width="2"/><rect x="1128" y="202" width="144" height="10" rx="5" fill="#4C5155"/><rect x="1128" y="228" width="168" height="10" rx="5" fill="#4C5155"/><rect x="1128" y="246" width="101" height="10" rx="5" fill="#4C5155"/><rect x="1128" y="278" width="96" height="10" rx="5" fill="#4C5155"/><rect x="67" y="354" width="255" height="10" rx="5" fill="#4C5155"/><rect x="770" y="354" width="362" height="10" rx="5" fill="#4C5155"/><rect x="67" y="382" width="636" height="278" rx="8" fill="#2B2F3A" stroke="#3A3F4B" stroke-width="2"/><rect x="91" y="556" width="59" height="81" rx="4" fill="#60A5FA" fill-opacity="0.35"/><rect x="189" y="498" width="59" height="138" rx="4" fill="#60A5FA" fill-opacity="0.6"/><rect x="287" y="533" width="59" height="104" rx="4" fill="#60A5FA" fill-opacity="0.35"/><rect x="385" y="452" width="59" height="184" rx="4" fill="#60A5FA" fill-opacity="0.6"/><rect x="483" y="521" width="59" height="115" rx="4" fill="#60A5FA" fill-opacity="0.35"/><rect x="581" y="418" width="59" height="219" rx="4" fill="#60A5FA" fill-opacity="0.6"/><rect x="770" y="382" width="603" height="292" rx="8" fill="#2B2F3A" stroke="#3A3F4B" stroke-width="2"/><rect x="794" y="406" width="181" height="10" rx="5" fill="#4C5155"/><rect x="794" y="438" width="112" height="8" rx="4" fill="#4C5155"/><rect x="961" y="438" width="157" height="8" rx="4" fill="#4C5155"/><rect x="1183" y="438" width="86" height="8" rx="4" fill="#4C5155"/><rect x="794" y="478" width="122" height="8" rx="4" fill="#4C5155"/><rect x="961" y="478" width="133" height="8" rx="4" fill="#4C5155"/><rect x="1183" y="478" width="74" height="8" rx="4" fill="#4C5155"/><rect x="794" y="518" width="105" height="8" rx="4" fill="#4C5155"/><rect x="961" y="518" width="147" height="8" rx="4" fill="#4C5155"/><rect x="1183" y="518" width="81" height="8" rx="4" fill="#4C5155"/><rect x="794" y="558" width="115" height="8" rx="4" fill="#4C5155"/><rect x="961" y="558" width="162" height="8" rx="4" fill="#4C5155"/><rect x="1183" y="558" width="89" height="8" rx="4" fill="#4C5155"/><rect x="794" y="598" width="98" height="8" rx="4" fill="#4C5155"/><rect x="961" y="598" width="138" height="8" rx="4" fill="#4C5155"/><rect x="1183" y="598" width="76" height="8" rx="4" fill="#4C5155"/><rect x="794" y="638" width="108" height="8" rx="4" fill="#4C5155"/><rect x="961" y="638" width="152" height="8" rx="4" fill="#4C5155"/><rect x="1183" y="638" width="84" height="8" rx="4" fill="#4C5155"/><rect x="737" y="682" width="301" height="36" rx="6" fill="#60A5FA"/><rect x="1072" y="682" width="301" height="36" rx="6" fill="#60A5FA"/><rect x="67" y="696" width="268" height="10" rx="5" fill="#4C5155"/></svg>
