<svg xmlns="http://www.w3.org/2000/svg" viewBox="0 0 1440 900" preserveAspectRatio="xMidYMin slice"><rect width="1440" height="900" fill="#1F2129"/><rect width="1440" height="48" fill="#E9B89B"/><rect x="24" y="20" width="96" height="8" rx="4" fill="#FFFFFF" fill-opacity="0.6"/><rect x="67" y="70" width="1306" height="190" rx="8" fill="#2B2F3A" stroke="#3A3F4B" stroke-width="2"/><rect x="97" y="111" width="340" height="10" rx="5" fill="#4C5155"/><rect x="97" y="138" width="420" height="10" rx="5" fill="#4C5155"/><rect x="97" y="156" width="252" height="10" rx="5" fill="#4C5155"/><rect x="1100" y="176" width="243" height="38" rx="6" fill="#E9B89B"/><rect x="97" y="188" width="420" height="10" rx="5" fill="#4C5155"/><rect x="67" y="288" width="1306" height="372" rx="8" fill="#2B2F3A" stroke="#3A3F4B" stroke-width="2"/><rect x="97" y="305" width="420" height="10" rx="5" fill="#4C5155"/><rect x="978" y="306" width="200" height="10" rx="5" fill="#4C5155"/><rect x="97" y="333" width="304" height="10" rx="5" fill="#4C5155"/><rect x="97" y="360" width="1245" height="230" rx="8" fill="#1F2129" stroke="#3A3F4B" stroke-width="2"/><rect x="113" y="376" width="1213" height="56" rx="8" fill="#1F2129" stroke="#3A3F4B" stroke-width="2"/><rect x="129" y="390" width="413" height="10" rx="5" fill="#4C5155"/><rect x="129" y="408" width="248" height="10" rx="5" fill="#4C5155"/><rect x="113" y="444" width="1213" height="56" rx="8" fill="#1F2129" stroke="#3A3F4B" stroke-width="2"/><rect x="129" y="458" width="420" height="10" rx="5" fill="#4C5155"/><rect x="129" y="476" width="252" height="10" rx="5" fill="#4C5155"/><rect x="113" y="512" width="1213" height="56" rx="8" fill="#1F2129" stroke="#3A3F4B" stroke-width="2"/><rect x="129" y="526" width="413" height="10" rx="5" fill="#4C5155"/><rect x="129" y="544" width="248" height="10" rx="5" fill="#4C5155"/><rect x="67" y="684" width="1306" height="292" rx="8" fill="#2B2F3A" stroke="#3A3F4B" stroke-width="2"/><rect x="91" y="708" width="392" height="10" rx="5" fill="#4C5155"/><rect x="91" y="740" width="253" height="8" rx="4" fill="#4C5155"/><rect x="468" y="740" width="356" height="8" rx="4" fill="#4C5155"/><rect x="972" y="740" width="196" height="8" rx="4" fill="#4C5155"/><rect x="91" y="780" width="277" height="8" rx="4" fill="#4C5155"/><rect x="468" y="780" width="302" height="8" rx="4" fill="#4C5155"/><rect x="972" y="780" width="167" height="8" rx="4" fill="#4C5155"/><rect x="91" y="820" width="237" height="8" rx="4" fill="#4C5155"/><rect x="468" y="820" width="334" height="8" rx="4" fill="#4C5155"/><rect x="972" y="820" width="184" height="8" rx="4" fill="#4C5155"/><rect x="91" y="860" width="261" height="8" rx="4" fill="#4C5155"/><rect x="468" y="860" width="367" height="8" rx="4" fill="#4C5155"/><rect x="972" y="860" width="201" height="8" rx="4" fill="#4C5155"/><rect x="91" y="900" width="221" height="8" rx="4" fill="#4C5155"/><rect x="468" y="900" width="313" height="8" rx="4" fill="#4C5155"/><rect x="972" y="900" width="173" height="8" rx="4" fill="#4C5155"/><rect x="91" y="940" width="245" height="8" rx="4" fill="#4C5155"/><rect x="468" y="940" width="345" height="8" rx="4" fill="#4C5155"/><rect x="972" y="940" width="190" height="8" rx="4" fill="#4C5155"/><rect x="67" y="999" width="420" height="10" rx="5" fill="#4C5155"/></svg>
