<svg xmlns="http://www.w3.org/2000/svg" viewBox="0 0 1440 900" preserveAspectRatio="xMidYMin slice"><rect width="1440" height="900" fill="#F8F9FA"/><rect width="1440" height="48" fill="#765A32"/><rect x="24" y="20" width="96" height="8" rx="4" fill="#FFFFFF" fill-opacity="0.6"/><rect x="67" y="80" width="420" height="10" rx="5" fill="#D7DBDF"/><rect x="67" y="98" width="252" height="10" rx="5" fill="#D7DBDF"/><rect x="1105" y="80" width="268" height="42" rx="6" fill="#765A32"/><rect x="67" y="139" width="420" height="10" rx="5" fill="#D7DBDF"/><rect x="67" y="188" width="1306" height="140" rx="8" fill="#FFFFFF" stroke="#E4E7EB" stroke-width="2"/><rect x="97" y="200" width="355" height="10" rx="5" fill="#D7DBDF"/><rect x="97" y="229" width="191" height="10" rx="5" fill="#D7DBDF"/><rect x="97" y="247" width="115" height="10" rx="5" fill="#D7DBDF"/><rect x="796" y="218" width="30" height="60" rx="8" fill="#F8F9FA" stroke="#E4E7EB" stroke-width="2"/><rect x="857" y="226" width="85" height="10" rx="5" fill="#D7DBDF"/><rect x="1115" y="218" width="91" height="64" rx="8" fill="#F8F9FA" stroke="#E4E7EB" stroke-width="2"/><rect x="1221" y="232" width="59" height="10" rx="5" fill="#D7DBDF"/><rect x="857" y="256" width="158" height="10" rx="5" fill="#D7DBDF"/><rect x="1221" y="263" width="59" height="10" rx="5" fill="#D7DBDF"/><rect x="97" y="278" width="246" height="10" rx="5" fill="#D7DBDF"/><rect x="67" y="358" width="871" height="40" rx="6" fill="#FFFFFF" stroke="#E4E7EB" stroke-width="2"/><rect x="1005" y="378" width="368" height="40" rx="6" fill="#765A32"/><rect x="1005" y="428" width="368" height="380" rx="8" fill="#FFFFFF" stroke="#E4E7EB" stroke-width="2"/><rect x="1022" y="451" width="217" height="10" rx="5" fill="#D7DBDF"/><rect x="1022" y="478" width="184" height="10" rx="5" fill="#D7DBDF"/><rect x="1009" y="498" width="360" height="280" rx="8" fill="#F8F9FA" stroke="#E4E7EB" stroke-width="2"/><rect x="1025" y="514" width="328" height="56" rx="8" fill="#F8F9FA" stroke="#E4E7EB" stroke-width="2"/><rect x="1041" y="528" width="119" height="10" rx="5" fill="#D7DBDF"/><rect x="1041" y="546" width="71" height="10" rx="5" fill="#D7DBDF"/><rect x="1025" y="582" width="328" height="56" rx="8" fill="#F8F9FA" stroke="#E4E7EB" stroke-width="2"/><rect x="1041" y="596" width="178" height="10" rx="5" fill="#D7DBDF"/><rect x="1041" y="614" width="107" height="10" rx="5" fill="#D7DBDF"/><rect x="1025" y="650" width="328" height="56" rx="8" fill="#F8F9FA" stroke="#E4E7EB" stroke-width="2"/><rect x="1041" y="664" width="119" height="10" rx="5" fill="#D7DBDF"/><rect x="1041" y="682" width="71" height="10" rx="5" fill="#D7DBDF"/><rect x="67" y="432" width="871" height="380" rx="8" fill="#FFFFFF" stroke="#E4E7EB" stroke-width="2"/><rect x="91" y="456" width="261" height="10" rx="5" fill="#D7DBDF"/><rect x="91" y="488" width="181" height="8" rx="4" fill="#D7DBDF"/><rect x="338" y="488" width="197" height="8" rx="4" fill="#D7DBDF"/><rect x="667" y="488" width="109" height="8" rx="4" fill="#D7DBDF"/><rect x="91" y="528" width="155" height="8" rx="4" fill="#D7DBDF"/><rect x="338" y="528" width="219" height="8" rx="4" fill="#D7DBDF"/><rect x="667" y="528" width="120" height="8" rx="4" fill="#D7DBDF"/><rect x="91" y="568" width="171" height="8" rx="4" fill="#D7DBDF"/><rect x="338" y="568" width="240" height="8" rx="4" fill="#D7DBDF"/><rect x="667" y="568" width="132" height="8" rx="4" fill="#D7DBDF"/><rect x="91" y="608" width="145" height="8" rx="4" fill="#D7DBDF"/><rect x="338" y="608" width="204" height="8" rx="4" fill="#D7DBDF"/><rect x="667" y="608" width="113" height="8" rx="4" fill="#D7DBDF"/><rect x="91" y="648" width="160" height="8" rx="4" fill="#D7DBDF"/><rect x="338" y="648" width="226" height="8" rx="4" fill="#D7DBDF"/><rect x="667" y="648" width="124" height="8" rx="4" fill="#D7DBDF"/><rect x="91" y="688" width="176" height="8" rx="4" fill="#D7DBDF"/><rect x="338" y="688" width="247" height="8" rx="4" fill="#D7DBDF"/><rect x="667" y="688" width="105" height="8" rx="4" fill="#D7DBDF"/><rect x="67" y="859" width="420" height="10" rx="5" fill="#D7DBDF"/></svg>
