<svg xmlns="http://www.w3.org/2000/svg" viewBox="0 0 1440 900" preserveAspectRatio="xMidYMin slice"><rect width="1440" height="900" fill="#F8F9FA"/><rect width="1440" height="48" fill="#6551B4"/><rect x="24" y="20" width="96" height="8" rx="4" fill="#FFFFFF" fill-opacity="0.6"/><rect x="67" y="80" width="420" height="10" rx="5" fill="#D7DBDF"/><rect x="67" y="98" width="252" height="10" rx="5" fill="#D7DBDF"/><rect x="1105" y="78" width="268" height="40" rx="6" fill="#6551B4"/><rect x="67" y="139" width="420" height="10" rx="5" fill="#D7DBDF"/><rect x="67" y="184" width="1306" height="185" rx="8" fill="#FFFFFF" stroke="#E4E7EB" stroke-width="2"/><rect x="690" y="192" width="30" height="150" rx="8" fill="#F8F9FA" stroke="#E4E7EB" stroke-width="2"/><rect x="735" y="200" width="219" height="10" rx="5" fill="#D7DBDF"/><rect x="1130" y="200" width="149" height="10" rx="5" fill="#D7DBDF"/><rect x="97" y="194" width="30" height="26" rx="8" fill="#F8F9FA" stroke="#E4E7EB" stroke-width="2"/><rect x="128" y="204" width="336" height="10" rx="5" fill="#D7DBDF"/><rect x="735" y="218" width="364" height="126" rx="8" fill="#F8F9FA" stroke="#E4E7EB" stroke-width="2"/><rect x="751" y="234" width="332" height="56" rx="8" fill="#F8F9FA" stroke="#E4E7EB" stroke-width="2"/><rect x="767" y="248" width="210" height="10" rx="5" fill="#D7DBDF"/><rect x="767" y="266" width="126" height="10" rx="5" fill="#D7DBDF"/><rect x="1130" y="230" width="106" height="10" rx="5" fill="#D7DBDF"/><rect x="1130" y="248" width="64" height="10" rx="5" fill="#D7DBDF"/><rect x="97" y="245" width="260" height="10" rx="5" fill="#D7DBDF"/><rect x="97" y="282" width="375" height="10" rx="5" fill="#D7DBDF"/><rect x="1100" y="294" width="243" height="40" rx="6" fill="#6551B4"/><rect x="67" y="380" width="1306" height="43" rx="8" fill="#FFFFFF" stroke="#E4E7EB" stroke-width="2"/><rect x="67" y="442" width="1306" height="340" rx="8" fill="#FFFFFF" stroke="#E4E7EB" stroke-width="2"/><rect x="91" y="466" width="392" height="10" rx="5" fill="#D7DBDF"/><rect x="91" y="498" width="269" height="8" rx="4" fill="#D7DBDF"/><rect x="468" y="498" width="377" height="8" rx="4" fill="#D7DBDF"/><rect x="972" y="498" width="161" height="8" rx="4" fill="#D7DBDF"/><rect x="91" y="538" width="229" height="8" rx="4" fill="#D7DBDF"/><rect x="468" y="538" width="323" height="8" rx="4" fill="#D7DBDF"/><rect x="972" y="538" width="178" height="8" rx="4" fill="#D7DBDF"/><rect x="91" y="578" width="253" height="8" rx="4" fill="#D7DBDF"/><rect x="468" y="578" width="356" height="8" rx="4" fill="#D7DBDF"/><rect x="972" y="578" width="196" height="8" rx="4" fill="#D7DBDF"/><rect x="91" y="618" width="277" height="8" rx="4" fill="#D7DBDF"/><rect x="468" y="618" width="302" height="8" rx="4" fill="#D7DBDF"/><rect x="972" y="618" width="167" height="8" rx="4" fill="#D7DBDF"/><rect x="91" y="658" width="237" height="8" rx="4" fill="#D7DBDF"/><rect x="468" y="658" width="334" height="8" rx="4" fill="#D7DBDF"/><rect x="972" y="658" width="184" height="8" rx="4" fill="#D7DBDF"/><rect x="91" y="698" width="261" height="8" rx="4" fill="#D7DBDF"/><rect x="468" y="698" width="367" height="8" rx="4" fill="#D7DBDF"/><rect x="972" y="698" width="201" height="8" rx="4" fill="#D7DBDF"/><rect x="67" y="815" width="420" height="10" rx="5" fill="#D7DBDF"/></svg>
