<svg xmlns="http://www.w3.org/2000/svg" viewBox="0 0 1440 900" preserveAspectRatio="xMidYMin slice"><rect width="1440" height="900" fill="#1F2129"/><rect width="1440" height="48" fill="#AECBE5"/><rect x="24" y="20" width="96" height="8" rx="4" fill="#FFFFFF" fill-opacity="0.6"/><rect x="67" y="70" width="1306" height="190" rx="8" fill="#2B2F3A" stroke="#3A3F4B" stroke-width="2"/><rect x="97" y="100" width="420" height="10" rx="5" fill="#4C5155"/><rect x="97" y="136" width="340" height="10" rx="5" fill="#4C5155"/><rect x="97" y="154" width="204" height="10" rx="5" fill="#4C5155"/><rect x="97" y="195" width="420" height="10" rx="5" fill="#4C5155"/><rect x="1100" y="180" width="243" height="38" rx="6" fill="#AECBE5"/><rect x="67" y="288" width="402" height="348" rx="8" fill="#2B2F3A" stroke="#3A3F4B" stroke-width="2"/><rect x="86" y="305" width="128" height="10" rx="5" fill="#4C5155"/><rect x="86" y="344" width="237" height="10" rx="5" fill="#4C5155"/><rect x="86" y="362" width="142" height="10" rx="5" fill="#4C5155"/><rect x="86" y="396" width="164" height="10" rx="5" fill="#4C5155"/><rect x="86" y="418" width="364" height="10" rx="8" fill="#1F2129" stroke="#3A3F4B" stroke-width="2"/><rect x="86" y="436" width="86" height="10" rx="5" fill="#4C5155"/><rect x="301" y="436" width="90" height="10" rx="5" fill="#4C5155"/><rect x="86" y="458" width="374" height="10" rx="8" fill="#1F2129" stroke="#3A3F4B" stroke-width="2"/><rect x="86" y="476" width="86" height="10" rx="5" fill="#4C5155"/><rect x="301" y="478" width="105" height="10" rx="5" fill="#4C5155"/><rect x="86" y="498" width="374" height="10" rx="8" fill="#1F2129" stroke="#3A3F4B" stroke-width="2"/><rect x="86" y="516" width="86" height="10" rx="5" fill="#4C5155"/><rect x="301" y="520" width="60" height="10" rx="5" fill="#4C5155"/><rect x="502" y="288" width="871" height="348" rx="8" fill="#2B2F3A" stroke="#3A3F4B" stroke-width="2"/><rect x="523" y="310" width="420" height="10" rx="5" fill="#4C5155"/><rect x="523" y="338" width="263" height="260" rx="8" fill="#1F2129" stroke="#3A3F4B" stroke-width="2"/><rect x="806" y="338" width="263" height="260" rx="8" fill="#1F2129" stroke="#3A3F4B" stroke-width="2"/><rect x="1090" y="338" width="263" height="260" rx="8" fill="#1F2129" stroke="#3A3F4B" stroke-width="2"/><rect x="67" y="656" width="1306" height="292" rx="8" fill="#2B2F3A" stroke="#3A3F4B" stroke-width="2"/><rect x="91" y="680" width="392" height="10" rx="5" fill="#4C5155"/><rect x="91" y="712" width="221" height="8" rx="4" fill="#4C5155"/><rect x="468" y="712" width="313" height="8" rx="4" fill="#4C5155"/><rect x="972" y="712" width="173" height="8" rx="4" fill="#4C5155"/><rect x="91" y="752" width="245" height="8" rx="4" fill="#4C5155"/><rect x="468" y="752" width="345" height="8" rx="4" fill="#4C5155"/><rect x="972" y="752" width="190" height="8" rx="4" fill="#4C5155"/><rect x="91" y="792" width="269" height="8" rx="4" fill="#4C5155"/><rect x="468" y="792" width="377" height="8" rx="4" fill="#4C5155"/><rect x="972" y="792" width="161" height="8" rx="4" fill="#4C5155"/><rect x="91" y="832" width="229" height="8" rx="4" fill="#4C5155"/><rect x="468" y="832" width="323" height="8" rx="4" fill="#4C5155"/><rect x="972" y="832" width="178" height="8" rx="4" fill="#4C5155"/><rect x="91" y="872" width="253" height="8" rx="4" fill="#4C5155"/><rect x="468" y="872" width="356" height="8" rx="4" fill="#4C5155"/><rect x="972" y="872" width="196" height="8" rx="4" fill="#4C5155"/><rect x="91" y="912" width="277" height="8" rx="4" fill="#4C5155"/><rect x="468" y="912" width="302" height="8" rx="4" fill="#4C5155"/><rect x="972" y="912" width="167" height="8" rx="4" fill="#4C5155"/><rect x="67" y="971" width="420" height="10" rx="5" fill="#4C5155"/></svg>
