<svg xmlns="http://www.w3.org/2000/svg" viewBox="0 0 1440 900" preserveAspectRatio="xMidYMin slice"><rect width="1440" height="900" fill="#F8F9FA"/><rect width="1440" height="48" fill="#4D5E75"/><rect x="24" y="20" width="96" height="8" rx="4" fill="#FFFFFF" fill-opacity="0.6"/><rect x="67" y="99" width="420" height="10" rx="5" fill="#D7DBDF"/><rect x="67" y="117" width="252" height="10" rx="5" fill="#D7DBDF"/><rect x="1072" y="93" width="301" height="40" rx="6" fill="#4D5E75"/><rect x="67" y="163" width="420" height="10" rx="5" fill="#D7DBDF"/><rect x="67" y="208" width="871" height="430" rx="8" fill="#FFFFFF" stroke="#E4E7EB" stroke-width="2"/><rect x="971" y="208" width="402" height="430" rx="8" fill="#FFFFFF" stroke="#E4E7EB" stroke-width="2"/><rect x="995" y="232" width="121" height="10" rx="5" fill="#D7DBDF"/><rect x="995" y="264" width="62" height="8" rx="4" fill="#D7DBDF"/><rect x="1101" y="264" width="88" height="8" rx="4" fill="#D7DBDF"/><rect x="1243" y="264" width="49" height="8" rx="4" fill="#D7DBDF"/><rect x="995" y="304" width="69" height="8" rx="4" fill="#D7DBDF"/><rect x="1101" y="304" width="97" height="8" rx="4" fill="#D7DBDF"/><rect x="1243" y="304" width="53" height="8" rx="4" fill="#D7DBDF"/><rect x="995" y="344" width="76" height="8" rx="4" fill="#D7DBDF"/><rect x="1101" y="344" width="106" height="8" rx="4" fill="#D7DBDF"/><rect x="1243" y="344" width="45" height="8" rx="4" fill="#D7DBDF"/><rect x="995" y="384" width="65" height="8" rx="4" fill="#D7DBDF"/><rect x="1101" y="384" width="91" height="8" rx="4" fill="#D7DBDF"/><rect x="1243" y="384" width="50" height="8" rx="4" fill="#D7DBDF"/><rect x="995" y="424" width="71" height="8" rx="4" fill="#D7DBDF"/><rect x="1101" y="424" width="100" height="8" rx="4" fill="#D7DBDF"/><rect x="1243" y="424" width="55" height="8" rx="4" fill="#D7DBDF"/><rect x="995" y="464" width="78" height="8" rx="4" fill="#D7DBDF"/><rect x="1101" y="464" width="85" height="8" rx="4" fill="#D7DBDF"/><rect x="1243" y="464" width="47" height="8" rx="4" fill="#D7DBDF"/><rect x="67" y="674" width="420" height="10" rx="5" fill="#D7DBDF"/></svg>
