<svg xmlns="http://www.w3.org/2000/svg" viewBox="0 0 1440 900" preserveAspectRatio="xMidYMin slice"><rect width="1440" height="900" fill="#F8F9FA"/><rect width="1440" height="48" fill="#6654D9"/><rect x="24" y="20" width="96" height="8" rx="4" fill="#FFFFFF" fill-opacity="0.6"/><rect x="67" y="58" width="1306" height="70" rx="8" fill="#FFFFFF" stroke="#E4E7EB" stroke-width="2"/><rect x="97" y="78" width="152" height="10" rx="5" fill="#D7DBDF"/><rect x="523" y="68" width="213" height="40" rx="6" fill="#6654D9"/><rect x="766" y="68" width="213" height="40" rx="6" fill="#6654D9"/><rect x="1009" y="68" width="213" height="40" rx="6" fill="#6654D9"/><rect x="67" y="174" width="402" height="10" rx="5" fill="#D7DBDF"/><rect x="67" y="192" width="241" height="10" rx="5" fill="#D7DBDF"/><rect x="1139" y="173" width="234" height="40" rx="6" fill="#6654D9"/><rect x="67" y="228" width="420" height="10" rx="5" fill="#D7DBDF"/><rect x="67" y="263" width="904" height="290" rx="8" fill="#FFFFFF" stroke="#E4E7EB" stroke-width="2"/><rect x="88" y="267" width="862" height="206" rx="8" fill="#F8F9FA" stroke="#E4E7EB" stroke-width="2"/><rect x="88" y="488" width="336" height="40" rx="6" fill="#6654D9"/><rect x="1005" y="263" width="368" height="290" rx="8" fill="#FFFFFF" stroke="#E4E7EB" stroke-width="2"/><rect x="67" y="583" width="420" height="10" rx="5" fill="#D7DBDF"/><rect x="67" y="613" width="1306" height="280" rx="8" fill="#FFFFFF" stroke="#E4E7EB" stroke-width="2"/><rect x="91" y="637" width="392" height="10" rx="5" fill="#D7DBDF"/><rect x="91" y="669" width="245" height="8" rx="4" fill="#D7DBDF"/><rect x="468" y="669" width="345" height="8" rx="4" fill="#D7DBDF"/><rect x="972" y="669" width="190" height="8" rx="4" fill="#D7DBDF"/><rect x="91" y="709" width="269" height="8" rx="4" fill="#D7DBDF"/><rect x="468" y="709" width="377" height="8" rx="4" fill="#D7DBDF"/><rect x="972" y="709" width="161" height="8" rx="4" fill="#D7DBDF"/><rect x="91" y="749" width="229" height="8" rx="4" fill="#D7DBDF"/><rect x="468" y="749" width="323" height="8" rx="4" fill="#D7DBDF"/><rect x="972" y="749" width="178" height="8" rx="4" fill="#D7DBDF"/><rect x="91" y="789" width="253" height="8" rx="4" fill="#D7DBDF"/><rect x="468" y="789" width="356" height="8" rx="4" fill="#D7DBDF"/><rect x="972" y="789" width="196" height="8" rx="4" fill="#D7DBDF"/><rect x="91" y="829" width="277" height="8" rx="4" fill="#D7DBDF"/><rect x="468" y="829" width="302" height="8" rx="4" fill="#D7DBDF"/><rect x="972" y="829" width="167" height="8" rx="4" fill="#D7DBDF"/></svg>
