<svg xmlns="http://www.w3.org/2000/svg" viewBox="0 0 1440 900" preserveAspectRatio="xMidYMin slice"><rect width="1440" height="900" fill="#1F2129"/><rect width="1440" height="48" fill="#7DD3FC"/><rect x="24" y="20" width="96" height="8" rx="4" fill="#FFFFFF" fill-opacity="0.6"/><rect x="67" y="84" width="420" height="10" rx="5" fill="#4C5155"/><rect x="67" y="102" width="252" height="10" rx="5" fill="#4C5155"/><rect x="1038" y="76" width="335" height="40" rx="6" fill="#7DD3FC"/><rect x="67" y="142" width="420" height="10" rx="5" fill="#4C5155"/><rect x="67" y="170" width="1306" height="189" rx="8" fill="#2B2F3A" stroke="#3A3F4B" stroke-width="2"/><rect x="67" y="374" width="293" height="10" rx="5" fill="#4C5155"/><rect x="971" y="398" width="402" height="350" rx="8" fill="#2B2F3A" stroke="#3A3F4B" stroke-width="2"/><rect x="67" y="401" width="402" height="40" rx="6" fill="#2B2F3A" stroke="#3A3F4B" stroke-width="2"/><rect x="502" y="401" width="402" height="40" rx="6" fill="#2B2F3A" stroke="#3A3F4B" stroke-width="2"/><rect x="67" y="470" width="837" height="313" rx="8" fill="#2B2F3A" stroke="#3A3F4B" stroke-width="2"/><rect x="91" y="494" width="251" height="10" rx="5" fill="#4C5155"/><rect x="91" y="526" width="154" height="8" rx="4" fill="#4C5155"/><rect x="328" y="526" width="216" height="8" rx="4" fill="#4C5155"/><rect x="643" y="526" width="119" height="8" rx="4" fill="#4C5155"/><rect x="91" y="566" width="169" height="8" rx="4" fill="#4C5155"/><rect x="328" y="566" width="237" height="8" rx="4" fill="#4C5155"/><rect x="643" y="566" width="101" height="8" rx="4" fill="#4C5155"/><rect x="91" y="606" width="144" height="8" rx="4" fill="#4C5155"/><rect x="328" y="606" width="203" height="8" rx="4" fill="#4C5155"/><rect x="643" y="606" width="112" height="8" rx="4" fill="#4C5155"/><rect x="91" y="646" width="159" height="8" rx="4" fill="#4C5155"/><rect x="328" y="646" width="223" height="8" rx="4" fill="#4C5155"/><rect x="643" y="646" width="123" height="8" rx="4" fill="#4C5155"/><rect x="91" y="686" width="174" height="8" rx="4" fill="#4C5155"/><rect x="328" y="686" width="189" height="8" rx="4" fill="#4C5155"/><rect x="643" y="686" width="105" height="8" rx="4" fill="#4C5155"/><rect x="91" y="726" width="149" height="8" rx="4" fill="#4C5155"/><rect x="328" y="726" width="210" height="8" rx="4" fill="#4C5155"/><rect x="643" y="726" width="115" height="8" rx="4" fill="#4C5155"/><rect x="971" y="764" width="402" height="36" rx="6" fill="#7DD3FC"/><rect x="67" y="822" width="420" height="10" rx="5" fill="#4C5155"/></svg>
