<svg xmlns="http://www.w3.org/2000/svg" viewBox="0 0 1440 900" preserveAspectRatio="xMidYMin slice"><rect width="1440" height="900" fill="#F8F9FA"/><rect width="1440" height="48" fill="#385A7A"/><rect x="24" y="20" width="96" height="8" rx="4" fill="#FFFFFF" fill-opacity="0.6"/><rect x="67" y="72" width="1306" height="190" rx="8" fill="#FFFFFF" stroke="#E4E7EB" stroke-width="2"/><rect x="1072" y="184" width="268" height="38" rx="6" fill="#385A7A"/><rect x="67" y="286" width="1306" height="332" rx="8" fill="#FFFFFF" stroke="#E4E7EB" stroke-width="2"/><rect x="67" y="642" width="1306" height="290" rx="8" fill="#FFFFFF" stroke="#E4E7EB" stroke-width="2"/><rect x="91" y="666" width="392" height="10" rx="5" fill="#D7DBDF"/><rect x="91" y="698" width="269" height="8" rx="4" fill="#D7DBDF"/><rect x="468" y="698" width="377" height="8" rx="4" fill="#D7DBDF"/><rect x="972" y="698" width="161" height="8" rx="4" fill="#D7DBDF"/><rect x="91" y="738" width="229" height="8" rx="4" fill="#D7DBDF"/><rect x="468" y="738" width="323" height="8" rx="4" fill="#D7DBDF"/><rect x="972" y="738" width="178" height="8" rx="4" fill="#D7DBDF"/><rect x="91" y="778" width="253" height="8" rx="4" fill="#D7DBDF"/><rect x="468" y="778" width="356" height="8" rx="4" fill="#D7DBDF"/><rect x="972" y="778" width="196" height="8" rx="4" fill="#D7DBDF"/><rect x="91" y="818" width="277" height="8" rx="4" fill="#D7DBDF"/><rect x="468" y="818" width="302" height="8" rx="4" fill="#D7DBDF"/><rect x="972" y="818" width="167" height="8" rx="4" fill="#D7DBDF"/><rect x="91" y="858" width="237" height="8" rx="4" fill="#D7DBDF"/><rect x="468" y="858" width="334" height="8" rx="4" fill="#D7DBDF"/><rect x="972" y="858" width="184" height="8" rx="4" fill="#D7DBDF"/><rect x="91" y="898" width="261" height="8" rx="4" fill="#D7DBDF"/><rect x="468" y="898" width="367" height="8" rx="4" fill="#D7DBDF"/><rect x="972" y="898" width="201" height="8" rx="4" fill="#D7DBDF"/><rect x="67" y="955" width="420" height="10" rx="5" fill="#D7DBDF"/></svg>
