<svg width="24" height="24" viewBox="0 0 24 24" fill="none" xmlns="http://www.w3.org/2000/svg">
<path d="M21.1515 2.01416H11.5342C11.5342 3.16558 11.9916 4.26984 12.8058 5.08401C13.6199 5.89819 14.7242 6.35559 15.8756 6.35559H17.6472V8.06613C17.6488 10.4617 19.5903 12.4033 21.9859 12.4048V2.84847C21.9859 2.38782 21.6124 2.01416 21.1515 2.01416Z" fill="#2684FF"/>
<path d="M16.3937 6.80615H6.77637C6.77785 9.20167 8.71938 11.1433 11.115 11.1448H12.8866V12.8609C12.8897 15.2564 14.8325 17.1967 17.228 17.1967V7.64062C17.228 7.17981 16.8545 6.80615 16.3937 6.80615Z" fill="url(#paint0_linear_498_6720)"/>
<path d="M11.6315 11.5952H2.01416C2.01416 13.9929 3.95796 15.9366 6.35559 15.9366H8.13277V17.6471C8.13434 20.0404 10.0725 21.9812 12.4659 21.9857V12.4296C12.4659 11.9688 12.0923 11.5952 11.6315 11.5952Z" fill="url(#paint1_linear_498_6720)"/>
<defs>
<linearGradient id="paint0_linear_498_6720" x1="2622.8" y1="11.5899" x2="1585.28" y2="1224.08" gradientUnits="userSpaceOnUse">
<stop offset="0.18" stop-color="#0052CC"/>
<stop offset="1" stop-color="#2684FF"/>
</linearGradient>
<linearGradient id="paint1_linear_498_6720" x1="2688.34" y1="25.1143" x2="1488.2" y2="1347.56" gradientUnits="userSpaceOnUse">
<stop offset="0.18" stop-color="#0052CC"/>
<stop offset="1" stop-color="#2684FF"/>
</linearGradient>
</defs>
</svg>