<svg width="367" height="90" viewBox="0 0 367 90" fill="none" xmlns="http://www.w3.org/2000/svg">
<rect x="94.4502" y="15.0898" width="5.57957" height="5.57957" rx="2.78978" transform="rotate(-25 94.4502 15.0898)" fill="#EB5757"/>
<rect x="6.09473" y="19.4766" width="2.78978" height="2.78978" rx="1.39489" transform="rotate(-25 6.09473 19.4766)" fill="#2D9CDB"/>
<rect x="179.805" y="3.66797" width="7.81139" height="7.81139" rx="3.9057" transform="rotate(-25 179.805 3.66797)" fill="#F2C94C"/>
<rect x="54.0791" y="60.0977" width="4.46365" height="4.46365" rx="2.23183" transform="rotate(-25 54.0791 60.0977)" fill="#2D9CDB"/>
<rect x="266.115" y="81.7949" width="5.57957" height="5.57957" rx="2.78978" transform="rotate(-25 266.115 81.7949)" fill="#27AE60"/>
<rect x="224.441" y="31.6387" width="4.46365" height="4.46365" rx="2.23183" transform="rotate(-25 224.441 31.6387)" fill="#EB5757"/>
<rect x="0.701172" y="37.5781" width="2.78978" height="2.78978" rx="1.39489" transform="rotate(-25 0.701172 37.5781)" fill="#2D9CDB"/>
<rect x="135.727" y="45.2793" width="7.81139" height="7.81139" rx="3.9057" transform="rotate(-25 135.727 45.2793)" fill="#6FCF97"/>
<path d="M22.3817 77.2493C21.8608 76.1322 22.3441 74.8043 23.4612 74.2834C24.5783 73.7624 25.9062 74.2457 26.4271 75.3629C26.9481 76.48 26.4647 77.8079 25.3476 78.3288C24.2305 78.8497 22.9026 78.3664 22.3817 77.2493Z" fill="#56CCF2"/>
<rect x="360.77" y="37.5918" width="4.46365" height="4.46365" rx="2.23183" transform="rotate(-25 360.77 37.5918)" fill="#585357"/>
<rect x="272.054" y="51.2305" width="7.81139" height="7.81139" rx="3.9057" transform="rotate(-25 272.054 51.2305)" fill="#9B51E0"/>
<path d="M73.9505 50.2488L75.0692 56.5936L69.015 54.3901L73.9505 50.2488Z" fill="#F2994A"/>
<path d="M113.753 82.0744L120.098 83.1931L115.957 88.1285L113.753 82.0744Z" fill="#F2C94C"/>
<circle cx="197.66" cy="59.7722" r="2.78978" fill="#2F80ED"/>
<circle cx="343.658" cy="52.1477" r="4.64964" fill="#F2C94C"/>
</svg>
