<svg width="234" height="219" viewBox="0 0 234 219" fill="none" xmlns="http://www.w3.org/2000/svg">
<path d="M0 9.72343C0 6.38987 2.68629 3.6875 6 3.6875H202C205.314 3.6875 208 6.38988 208 9.72343V165.652C208 168.985 205.314 171.687 202 171.687H6C2.68629 171.687 0 168.985 0 165.652V9.72343Z" fill="#202425"/>
<path d="M14 23.6875H50V160.687H14V23.6875Z" fill="#26292B"/>
<path d="M54 23.6875H196V160.687H54V23.6875Z" fill="#26292B"/>
<g filter="url(#filter0_ddd_1215_43760)">
<path d="M62 32.206C62 31.9196 62.6309 31.6875 63.4091 31.6875H122.591C123.369 31.6875 124 31.9196 124 32.206V45.169C124 45.4554 123.369 45.6875 122.591 45.6875H63.4091C62.6309 45.6875 62 45.4554 62 45.169V32.206Z" fill="#121212"/>
</g>
<g filter="url(#filter1_ddd_1215_43760)">
<path d="M62 54.206C62 53.9196 63.2617 53.6875 64.8182 53.6875H183.182C184.738 53.6875 186 53.9196 186 54.206V67.169C186 67.4554 184.738 67.6875 183.182 67.6875H64.8182C63.2617 67.6875 62 67.4554 62 67.169V54.206Z" fill="#121212"/>
</g>
<g filter="url(#filter2_ddd_1215_43760)">
<path d="M62 74.206C62 73.9196 63.2617 73.6875 64.8182 73.6875H183.182C184.738 73.6875 186 73.9196 186 74.206V87.169C186 87.4554 184.738 87.6875 183.182 87.6875H64.8182C63.2617 87.6875 62 87.4554 62 87.169V74.206Z" fill="#121212"/>
</g>
<rect x="96.5" y="106.188" width="85" height="77" stroke="#A4ACB8" stroke-dasharray="2 2"/>
<path fill-rule="evenodd" clip-rule="evenodd" d="M164.5 195.437L164.5 206.375L160 206.375L160 195.437L164.5 195.437ZM173.387 202.796L165.432 195.062L168.614 191.969L176.569 199.703L173.387 202.796ZM180.25 191.062L169 191.062L169 186.687L180.25 186.688L180.25 191.062Z" fill="#2B2F31"/>
<g filter="url(#filter3_dd_1215_43760)">
<path d="M161.181 193.713H45.7196C42.5603 193.713 40 191.153 40 187.994V108.751C40 105.837 41.3345 103.086 43.6218 101.282L97.5551 58.7323C101.013 56.0059 105.888 56.0059 109.346 58.7323L163.279 101.282C165.566 103.086 166.901 105.837 166.901 108.751V187.994C166.901 191.153 164.34 193.713 161.181 193.713Z" fill="#223B96"/>
<g style="mix-blend-mode:multiply" opacity="0.4">
<path d="M158.451 106.699H58.8041C55.8672 106.699 53.4863 109.079 53.4863 112.016V173.39C53.4863 176.326 55.8672 178.706 58.8041 178.706H158.451C161.388 178.706 163.769 176.326 163.769 173.39V112.016C163.769 109.079 161.388 106.699 158.451 106.699Z" fill="#C9C9C9"/>
</g>
<path d="M154.637 102.74H54.0524C51.1196 102.74 48.7422 105.117 48.7422 108.049V168.645C48.7422 171.577 51.1196 173.954 54.0524 173.954H154.637C157.57 173.954 159.947 171.577 159.947 168.645V108.049C159.947 105.117 157.57 102.74 154.637 102.74Z" fill="white"/>
<g opacity="0.3">
<path d="M149.736 148.225H59.4804C58.9346 148.225 58.4922 148.667 58.4922 149.213V153.91C58.4922 154.456 58.9346 154.898 59.4804 154.898H149.736C150.281 154.898 150.724 154.456 150.724 153.91V149.213C150.724 148.667 150.281 148.225 149.736 148.225Z" fill="#848484"/>
<path d="M88.7862 109.76H60.0845C59.2051 109.76 58.4922 110.472 58.4922 111.352V114.841C58.4922 115.72 59.2051 116.433 60.0845 116.433H88.7862C89.6656 116.433 90.3785 115.72 90.3785 114.841V111.352C90.3785 110.472 89.6656 109.76 88.7862 109.76Z" fill="#A4ACB8"/>
<path d="M149.132 160.291H120.43C119.551 160.291 118.838 161.004 118.838 161.883V165.372C118.838 166.252 119.551 166.964 120.43 166.964H149.132C150.011 166.964 150.724 166.252 150.724 165.372V161.883C150.724 161.004 150.011 160.291 149.132 160.291Z" fill="#848484"/>
<path d="M149.736 122.58H59.4804C58.9346 122.58 58.4922 123.022 58.4922 123.568V128.265C58.4922 128.811 58.9346 129.253 59.4804 129.253H149.736C150.281 129.253 150.724 128.811 150.724 128.265V123.568C150.724 123.022 150.281 122.58 149.736 122.58Z" fill="#A4ACB8"/>
<path d="M149.736 135.402H59.4804C58.9346 135.402 58.4922 135.845 58.4922 136.39V141.088C58.4922 141.633 58.9346 142.076 59.4804 142.076H149.736C150.281 142.076 150.724 141.633 150.724 141.088V136.39C150.724 135.845 150.281 135.402 149.736 135.402Z" fill="#A4ACB8"/>
</g>
<g style="mix-blend-mode:multiply" opacity="0.2">
<path d="M166.901 108.013V186.153C166.901 189.309 164.34 191.871 161.184 191.871H45.7171C42.5603 191.871 40 189.311 40 186.153V108.013C40 107.902 40.0051 107.796 40.0101 107.688C40.1415 111.192 41.9714 114.427 44.9336 116.344L98.5231 146.894C101.523 148.832 105.385 148.832 108.385 146.894L161.975 116.344C164.932 114.427 166.759 111.192 166.893 107.688C166.898 107.799 166.903 107.905 166.903 108.013H166.901Z" fill="#C9C9C9"/>
</g>
<path d="M166.901 109.855V187.995C166.901 191.151 164.34 193.713 161.184 193.713H45.7171C42.5603 193.713 40 191.153 40 187.995V109.855C40 109.744 40.0051 109.638 40.0101 109.529C40.1415 113.034 41.9714 116.268 44.9336 118.186L98.5231 148.735C101.523 150.674 105.385 150.674 108.385 148.735L161.975 118.186C164.932 116.268 166.759 113.034 166.893 109.529C166.898 109.64 166.903 109.747 166.903 109.855H166.901Z" fill="#3E63DD"/>
<path d="M161.97 177.817L108.38 143.106C105.38 141.163 101.518 141.163 98.5205 143.106L44.9311 177.817C41.8551 179.808 40 183.222 40 186.886V187.995C40 191.153 42.5603 193.713 45.7196 193.713H161.181C164.34 193.713 166.901 191.153 166.901 187.995V186.886C166.901 183.222 165.046 179.808 161.97 177.817Z" fill="#3756C5"/>
</g>
<path d="M92.3887 118.757C94.8124 118.757 96.8659 117.916 98.549 116.233C100.232 114.549 101.074 112.496 101.074 110.072C101.074 107.649 100.232 105.595 98.549 103.912C96.8659 102.229 94.8124 101.387 92.3887 101.387C89.965 101.387 87.9115 102.229 86.2284 103.912C84.5452 105.595 83.7036 107.649 83.7036 110.072C83.7036 112.496 84.5452 114.549 86.2284 116.233C87.9115 117.916 89.965 118.757 92.3887 118.757ZM92.3887 126.23C87.9003 126.23 84.0852 124.66 80.9433 121.518C77.8014 118.376 76.2305 114.561 76.2305 110.072C76.2305 105.584 77.8014 101.769 80.9433 98.6269C84.0852 95.485 87.9003 93.9141 92.3887 93.9141C96.2038 93.9141 99.4018 94.9576 101.983 97.0447C104.563 99.1318 106.37 101.791 107.402 105.023H129.755C130.024 105.023 130.271 105.068 130.495 105.157C130.72 105.247 130.944 105.404 131.168 105.629L134.063 108.524C134.288 108.748 134.445 108.973 134.535 109.197C134.624 109.421 134.669 109.668 134.669 109.938C134.669 110.207 134.624 110.454 134.535 110.678C134.445 110.903 134.288 111.127 134.063 111.351L127.062 118.353C126.837 118.578 126.613 118.735 126.388 118.825C126.164 118.914 125.917 118.959 125.648 118.959C125.378 118.959 125.132 118.914 124.907 118.825C124.683 118.735 124.458 118.578 124.234 118.353L119.992 114.112L115.751 118.353C115.526 118.578 115.302 118.735 115.078 118.825C114.853 118.914 114.606 118.959 114.337 118.959C114.068 118.959 113.821 118.914 113.596 118.825C113.372 118.735 113.148 118.578 112.923 118.353L109.557 114.987H107.402C106.55 118.353 104.743 121.069 101.983 123.134C99.2223 125.198 96.0243 126.23 92.3887 126.23Z" fill="#466BF2"/>
<defs>
<filter id="filter0_ddd_1215_43760" x="14" y="0.6875" width="158" height="110" filterUnits="userSpaceOnUse" color-interpolation-filters="sRGB">
<feFlood flood-opacity="0" result="BackgroundImageFix"/>
<feColorMatrix in="SourceAlpha" type="matrix" values="0 0 0 0 0 0 0 0 0 0 0 0 0 0 0 0 0 0 127 0" result="hardAlpha"/>
<feOffset dy="1.13052"/>
<feGaussianBlur stdDeviation="1.59602"/>
<feColorMatrix type="matrix" values="0 0 0 0 0 0 0 0 0 0 0 0 0 0 0 0 0 0 0.0161557 0"/>
<feBlend mode="normal" in2="BackgroundImageFix" result="effect1_dropShadow_1215_43760"/>
<feColorMatrix in="SourceAlpha" type="matrix" values="0 0 0 0 0 0 0 0 0 0 0 0 0 0 0 0 0 0 127 0" result="hardAlpha"/>
<feOffset dy="3.79717"/>
<feGaussianBlur stdDeviation="5.36071"/>
<feColorMatrix type="matrix" values="0 0 0 0 0 0 0 0 0 0 0 0 0 0 0 0 0 0 0.0238443 0"/>
<feBlend mode="normal" in2="effect1_dropShadow_1215_43760" result="effect2_dropShadow_1215_43760"/>
<feColorMatrix in="SourceAlpha" type="matrix" values="0 0 0 0 0 0 0 0 0 0 0 0 0 0 0 0 0 0 127 0" result="hardAlpha"/>
<feOffset dy="17"/>
<feGaussianBlur stdDeviation="24"/>
<feColorMatrix type="matrix" values="0 0 0 0 0 0 0 0 0 0 0 0 0 0 0 0 0 0 0.04 0"/>
<feBlend mode="normal" in2="effect2_dropShadow_1215_43760" result="effect3_dropShadow_1215_43760"/>
<feBlend mode="normal" in="SourceGraphic" in2="effect3_dropShadow_1215_43760" result="shape"/>
</filter>
<filter id="filter1_ddd_1215_43760" x="14" y="22.6875" width="220" height="110" filterUnits="userSpaceOnUse" color-interpolation-filters="sRGB">
<feFlood flood-opacity="0" result="BackgroundImageFix"/>
<feColorMatrix in="SourceAlpha" type="matrix" values="0 0 0 0 0 0 0 0 0 0 0 0 0 0 0 0 0 0 127 0" result="hardAlpha"/>
<feOffset dy="1.13052"/>
<feGaussianBlur stdDeviation="1.59602"/>
<feColorMatrix type="matrix" values="0 0 0 0 0 0 0 0 0 0 0 0 0 0 0 0 0 0 0.0161557 0"/>
<feBlend mode="normal" in2="BackgroundImageFix" result="effect1_dropShadow_1215_43760"/>
<feColorMatrix in="SourceAlpha" type="matrix" values="0 0 0 0 0 0 0 0 0 0 0 0 0 0 0 0 0 0 127 0" result="hardAlpha"/>
<feOffset dy="3.79717"/>
<feGaussianBlur stdDeviation="5.36071"/>
<feColorMatrix type="matrix" values="0 0 0 0 0 0 0 0 0 0 0 0 0 0 0 0 0 0 0.0238443 0"/>
<feBlend mode="normal" in2="effect1_dropShadow_1215_43760" result="effect2_dropShadow_1215_43760"/>
<feColorMatrix in="SourceAlpha" type="matrix" values="0 0 0 0 0 0 0 0 0 0 0 0 0 0 0 0 0 0 127 0" result="hardAlpha"/>
<feOffset dy="17"/>
<feGaussianBlur stdDeviation="24"/>
<feColorMatrix type="matrix" values="0 0 0 0 0 0 0 0 0 0 0 0 0 0 0 0 0 0 0.04 0"/>
<feBlend mode="normal" in2="effect2_dropShadow_1215_43760" result="effect3_dropShadow_1215_43760"/>
<feBlend mode="normal" in="SourceGraphic" in2="effect3_dropShadow_1215_43760" result="shape"/>
</filter>
<filter id="filter2_ddd_1215_43760" x="14" y="42.6875" width="220" height="110" filterUnits="userSpaceOnUse" color-interpolation-filters="sRGB">
<feFlood flood-opacity="0" result="BackgroundImageFix"/>
<feColorMatrix in="SourceAlpha" type="matrix" values="0 0 0 0 0 0 0 0 0 0 0 0 0 0 0 0 0 0 127 0" result="hardAlpha"/>
<feOffset dy="1.13052"/>
<feGaussianBlur stdDeviation="1.59602"/>
<feColorMatrix type="matrix" values="0 0 0 0 0 0 0 0 0 0 0 0 0 0 0 0 0 0 0.0161557 0"/>
<feBlend mode="normal" in2="BackgroundImageFix" result="effect1_dropShadow_1215_43760"/>
<feColorMatrix in="SourceAlpha" type="matrix" values="0 0 0 0 0 0 0 0 0 0 0 0 0 0 0 0 0 0 127 0" result="hardAlpha"/>
<feOffset dy="3.79717"/>
<feGaussianBlur stdDeviation="5.36071"/>
<feColorMatrix type="matrix" values="0 0 0 0 0 0 0 0 0 0 0 0 0 0 0 0 0 0 0.0238443 0"/>
<feBlend mode="normal" in2="effect1_dropShadow_1215_43760" result="effect2_dropShadow_1215_43760"/>
<feColorMatrix in="SourceAlpha" type="matrix" values="0 0 0 0 0 0 0 0 0 0 0 0 0 0 0 0 0 0 127 0" result="hardAlpha"/>
<feOffset dy="17"/>
<feGaussianBlur stdDeviation="24"/>
<feColorMatrix type="matrix" values="0 0 0 0 0 0 0 0 0 0 0 0 0 0 0 0 0 0 0.04 0"/>
<feBlend mode="normal" in2="effect2_dropShadow_1215_43760" result="effect3_dropShadow_1215_43760"/>
<feBlend mode="normal" in="SourceGraphic" in2="effect3_dropShadow_1215_43760" result="shape"/>
</filter>
<filter id="filter3_dd_1215_43760" x="25" y="51.6875" width="156.902" height="167.025" filterUnits="userSpaceOnUse" color-interpolation-filters="sRGB">
<feFlood flood-opacity="0" result="BackgroundImageFix"/>
<feColorMatrix in="SourceAlpha" type="matrix" values="0 0 0 0 0 0 0 0 0 0 0 0 0 0 0 0 0 0 127 0" result="hardAlpha"/>
<feOffset dy="4"/>
<feGaussianBlur stdDeviation="3"/>
<feColorMatrix type="matrix" values="0 0 0 0 0.329412 0 0 0 0 0.501961 0 0 0 0 0.984314 0 0 0 0.1 0"/>
<feBlend mode="normal" in2="BackgroundImageFix" result="effect1_dropShadow_1215_43760"/>
<feColorMatrix in="SourceAlpha" type="matrix" values="0 0 0 0 0 0 0 0 0 0 0 0 0 0 0 0 0 0 127 0" result="hardAlpha"/>
<feOffset dy="10"/>
<feGaussianBlur stdDeviation="7.5"/>
<feColorMatrix type="matrix" values="0 0 0 0 0.2755 0 0 0 0 0.419757 0 0 0 0 0.95 0 0 0 0.3 0"/>
<feBlend mode="normal" in2="effect1_dropShadow_1215_43760" result="effect2_dropShadow_1215_43760"/>
<feBlend mode="normal" in="SourceGraphic" in2="effect2_dropShadow_1215_43760" result="shape"/>
</filter>
</defs>
</svg>
