<?xml version="1.0" encoding="UTF-8"?><svg id="Layer_1" xmlns="http://www.w3.org/2000/svg" viewBox="0 0 208 207.08"><defs><style>.cls-1{fill:#f3f4f6;}.cls-2{fill:#005216;}.cls-3{fill:#679f30;}.cls-4{fill:#fff;}.cls-5{fill:#e4e7eb;}.cls-6{fill:#848484;}.cls-7{fill:#a4acb8;}.cls-8{fill:none;stroke:#a4acb8;stroke-dasharray:0 0 2 2;}.cls-9{opacity:.3;}.cls-10{fill:#091747;fill-rule:evenodd;}</style></defs><path class="cls-1" d="M0,6.2C0,2.87,2.69,.16,6,.16H202c3.31,0,6,2.7,6,6.04V162.13c0,3.33-2.69,6.04-6,6.04H6c-3.31,0-6-2.7-6-6.04V6.2Z"/><path class="cls-5" d="M14,20.16H50V157.16H14V20.16Z"/><path class="cls-5" d="M54,20.16H196V157.16H54V20.16Z"/><rect class="cls-8" x="96.5" y="127.86" width="85" height="77"/><path class="cls-10" d="M49.5,88.66v-10.94h4.5v10.94h-4.5Zm-8.89-7.36l7.95,7.73-3.18,3.09-7.95-7.73,3.18-3.09Zm-6.86,11.73h11.25v4.38h-11.25v-4.38Z"/><g><path class="cls-4" d="M60.31,189.96c-2.86,0-5.3-1-7.3-3.01-2.01-2-3.01-4.44-3.01-7.3V105.06c0-2.86,1-5.3,3.01-7.3s4.44-3.01,7.3-3.01h12.03v-16.5c0-9.05,3.18-16.76,9.54-23.12,6.36-6.36,14.06-9.54,23.12-9.54s16.76,3.18,23.12,9.54c6.36,6.36,9.54,14.07,9.54,23.12v16.5h12.03c2.86,0,5.3,1,7.3,3.01,2,2.01,3.01,4.44,3.01,7.3v74.59c0,2.86-1,5.3-3.01,7.3s-4.44,3.01-7.3,3.01H60.31Zm22.34-95.22h44.69v-16.5c0-6.19-2.18-11.46-6.53-15.81-4.35-4.35-9.62-6.53-15.81-6.53s-11.46,2.18-15.81,6.53c-4.36,4.35-6.53,9.62-6.53,15.81v16.5Z"/><g class="cls-9"><path class="cls-6" d="M149.74,164.24H59.48c-.55,0-.99,.44-.99,.99v4.7c0,.55,.44,.99,.99,.99h90.26c.54,0,.99-.44,.99-.99v-4.7c0-.55-.44-.99-.99-.99Z"/><path class="cls-7" d="M88.79,125.77h-28.7c-.88,0-1.59,.71-1.59,1.59v3.49c0,.88,.71,1.59,1.59,1.59h28.7c.88,0,1.59-.71,1.59-1.59v-3.49c0-.88-.71-1.59-1.59-1.59Z"/><path class="cls-6" d="M149.13,176.3h-28.7c-.88,0-1.59,.71-1.59,1.59v3.49c0,.88,.71,1.59,1.59,1.59h28.7c.88,0,1.59-.71,1.59-1.59v-3.49c0-.88-.71-1.59-1.59-1.59Z"/><path class="cls-7" d="M149.74,138.59H59.48c-.55,0-.99,.44-.99,.99v4.7c0,.55,.44,.99,.99,.99h90.26c.54,0,.99-.44,.99-.99v-4.7c0-.55-.44-.99-.99-.99Z"/><path class="cls-7" d="M149.74,151.41H59.48c-.55,0-.99,.44-.99,.99v4.7c0,.55,.44,.99,.99,.99h90.26c.54,0,.99-.44,.99-.99v-4.7c0-.55-.44-.99-.99-.99Z"/></g></g><rect class="cls-3" x="50" y="94.46" width="110" height="95.51" rx="11" ry="11"/><circle class="cls-2" cx="105" cy="146.27" r="14.7"/><path class="cls-4" d="M43.43,160.82c3.74,0,6.92-1.3,9.52-3.9,2.6-2.6,3.9-5.77,3.9-9.52s-1.3-6.92-3.9-9.52c-2.6-2.6-5.77-3.9-9.52-3.9s-6.92,1.3-9.52,3.9c-2.6,2.6-3.9,5.77-3.9,9.52s1.3,6.92,3.9,9.52c2.6,2.6,5.77,3.9,9.52,3.9Zm0,11.55c-6.93,0-12.83-2.43-17.68-7.28-4.85-4.85-7.28-10.75-7.28-17.68s2.43-12.83,7.28-17.68c4.85-4.85,10.75-7.28,17.68-7.28,5.89,0,10.84,1.61,14.82,4.84,3.99,3.22,6.78,7.33,8.37,12.33h34.54c.42,0,.8,.07,1.14,.21,.35,.14,.69,.38,1.04,.73l4.47,4.47c.35,.35,.59,.69,.73,1.04,.14,.35,.21,.73,.21,1.14s-.07,.8-.21,1.14c-.14,.35-.38,.69-.73,1.04l-10.82,10.82c-.35,.35-.69,.59-1.04,.73-.35,.14-.73,.21-1.14,.21s-.8-.07-1.14-.21c-.35-.14-.69-.38-1.04-.73l-6.55-6.55-6.55,6.55c-.35,.35-.69,.59-1.04,.73-.35,.14-.73,.21-1.14,.21s-.8-.07-1.14-.21c-.35-.14-.69-.38-1.04-.73l-5.2-5.2h-3.33c-1.32,5.2-4.11,9.4-8.37,12.59s-9.21,4.78-14.82,4.78Z"/><rect class="cls-2" x="100.09" y="158.36" width="9.81" height="31.47"/></svg>