<svg width="208" height="203" viewBox="0 0 208 203" fill="none" xmlns="http://www.w3.org/2000/svg">
<path d="M0 6.03593C0 2.70237 2.68629 0 6 0H202C205.314 0 208 2.70238 208 6.03593V161.964C208 165.298 205.314 168 202 168H6C2.68629 168 0 165.298 0 161.964V6.03593Z" fill="#202425"/>
<path d="M14 20H50V157H14V20Z" fill="#26292B"/>
<path d="M54 20H196V157H54V20Z" fill="#26292B"/>
<rect x="96.5" y="102.5" width="85" height="77" stroke="#A4ACB8" stroke-dasharray="2 2"/>
<path fill-rule="evenodd" clip-rule="evenodd" d="M49.5 103.25V92.3125H54V103.25H49.5ZM40.6131 95.8913L48.568 103.625L45.386 106.719L37.4311 98.9849L40.6131 95.8913ZM33.75 107.625H45V112H33.75V107.625Z" fill="#2C3032"/>
<path d="M60.3125 202.686C57.4479 202.686 55.013 201.683 53.0078 199.678C51.0026 197.673 50 195.238 50 192.373V117.779C50 114.915 51.0026 112.48 53.0078 110.475C55.013 108.469 57.4479 107.467 60.3125 107.467H72.3438V90.9668C72.3438 81.9147 75.5234 74.209 81.8828 67.8496C88.2422 61.4902 95.9479 58.3105 105 58.3105C114.052 58.3105 121.758 61.4902 128.117 67.8496C134.477 74.209 137.656 81.9147 137.656 90.9668V107.467H149.688C152.552 107.467 154.987 108.469 156.992 110.475C158.997 112.48 160 114.915 160 117.779V192.373C160 195.238 158.997 197.673 156.992 199.678C154.987 201.683 152.552 202.686 149.688 202.686H60.3125ZM82.6562 107.467H127.344V90.9668C127.344 84.7793 125.167 79.5085 120.812 75.1543C116.458 70.8001 111.188 68.623 105 68.623C98.8125 68.623 93.5417 70.8001 89.1875 75.1543C84.8333 79.5085 82.6562 84.7793 82.6562 90.9668V107.467Z" fill="white"/>
<g opacity="0.3">
<path d="M149.738 176.955H59.4824C58.9366 176.955 58.4941 177.397 58.4941 177.943V182.64C58.4941 183.186 58.9366 183.628 59.4824 183.628H149.738C150.283 183.628 150.726 183.186 150.726 182.64V177.943C150.726 177.397 150.283 176.955 149.738 176.955Z" fill="#848484"/>
<path d="M88.7881 138.49H60.0864C59.207 138.49 58.4941 139.203 58.4941 140.082V143.572C58.4941 144.451 59.207 145.164 60.0864 145.164H88.7881C89.6675 145.164 90.3804 144.451 90.3804 143.572V140.082C90.3804 139.203 89.6675 138.49 88.7881 138.49Z" fill="#A4ACB8"/>
<path d="M149.134 189.021H120.432C119.553 189.021 118.84 189.734 118.84 190.613V194.103C118.84 194.982 119.553 195.695 120.432 195.695H149.134C150.013 195.695 150.726 194.982 150.726 194.103V190.613C150.726 189.734 150.013 189.021 149.134 189.021Z" fill="#848484"/>
<path d="M149.738 151.311H59.4824C58.9366 151.311 58.4941 151.753 58.4941 152.299V156.996C58.4941 157.542 58.9366 157.984 59.4824 157.984H149.738C150.283 157.984 150.726 157.542 150.726 156.996V152.299C150.726 151.753 150.283 151.311 149.738 151.311Z" fill="#A4ACB8"/>
<path d="M149.738 164.133H59.4824C58.9366 164.133 58.4941 164.575 58.4941 165.121V169.818C58.4941 170.364 58.9366 170.806 59.4824 170.806H149.738C150.283 170.806 150.726 170.364 150.726 169.818V165.121C150.726 164.575 150.283 164.133 149.738 164.133Z" fill="#A4ACB8"/>
</g>
<rect x="50" y="107.178" width="110" height="95.509" rx="10" fill="#679F30"/>
<circle cx="105.001" cy="159.122" r="14.7018" fill="#005216"/>
<path d="M43.434 173.538C47.1788 173.538 50.3514 172.238 52.952 169.638C55.5525 167.037 56.8528 163.864 56.8528 160.12C56.8528 156.375 55.5525 153.202 52.952 150.602C50.3514 148.001 47.1788 146.701 43.434 146.701C39.6892 146.701 36.5165 148.001 33.916 150.602C31.3154 153.202 30.0152 156.375 30.0152 160.12C30.0152 163.864 31.3154 167.037 33.916 169.638C36.5165 172.238 39.6892 173.538 43.434 173.538ZM43.434 185.085C36.4992 185.085 30.6046 182.658 25.7503 177.803C20.8959 172.949 18.4688 167.054 18.4688 160.12C18.4688 153.185 20.8959 147.29 25.7503 142.436C30.6046 137.581 36.4992 135.154 43.434 135.154C49.3286 135.154 54.2696 136.767 58.2571 139.991C62.2446 143.216 65.0358 147.325 66.6308 152.318H101.166C101.582 152.318 101.964 152.387 102.31 152.526C102.657 152.665 103.004 152.907 103.351 153.254L107.823 157.727C108.17 158.074 108.413 158.421 108.552 158.767C108.69 159.114 108.76 159.495 108.76 159.911C108.76 160.328 108.69 160.709 108.552 161.056C108.413 161.402 108.17 161.749 107.823 162.096L97.0052 172.914C96.6585 173.261 96.3117 173.504 95.965 173.642C95.6183 173.781 95.2368 173.85 94.8208 173.85C94.4047 173.85 94.0233 173.781 93.6765 173.642C93.3298 173.504 92.983 173.261 92.6363 172.914L86.0829 166.361L79.5296 172.914C79.1828 173.261 78.8361 173.504 78.4893 173.642C78.1426 173.781 77.7612 173.85 77.3451 173.85C76.929 173.85 76.5476 173.781 76.2009 173.642C75.8541 173.504 75.5074 173.261 75.1606 172.914L69.9595 167.713H66.6308C65.3132 172.914 62.522 177.11 58.2571 180.3C53.9922 183.49 49.0512 185.085 43.434 185.085Z" fill="white"/>
<rect x="100.094" y="171.213" width="9.8135" height="31.4717" fill="#005216"/>
</svg>
