<?xml version="1.0" encoding="UTF-8"?><svg id="Layer_1" xmlns="http://www.w3.org/2000/svg" viewBox="0 0 208 207.08"><defs><style>.cls-1{fill:#f3f4f6;}.cls-2{fill:#fff;}.cls-3{fill:#e4e7eb;}.cls-4{fill:#848484;}.cls-5{fill:#a4acb8;}.cls-6{fill:#c9c9c9;}.cls-7{fill:#223b96;}.cls-8{fill:#3756c5;}.cls-9{fill:#466bf2;}.cls-10{fill:none;stroke:#a4acb8;stroke-dasharray:0 0 2 2;}.cls-11{opacity:.2;}.cls-12{opacity:.3;}.cls-13{opacity:.4;}.cls-14{fill:#e8edf7;fill-rule:evenodd;}</style></defs><path class="cls-1" d="M0,6.04C0,2.7,2.69,0,6,0H202c3.31,0,6,2.7,6,6.04V161.96c0,3.33-2.69,6.04-6,6.04H6c-3.31,0-6-2.7-6-6.04V6.04Z"/><path class="cls-3" d="M14,20H50V157H14V20Z"/><path class="cls-3" d="M54,20H196V157H54V20Z"/><path class="cls-2" d="M62,28.52c0-.29,.63-.52,1.41-.52h59.18c.78,0,1.41,.23,1.41,.52v12.96c0,.29-.63,.52-1.41,.52H63.41c-.78,0-1.41-.23-1.41-.52v-12.96Z"/><path class="cls-2" d="M62,50.52c0-.29,1.26-.52,2.82-.52h118.36c1.56,0,2.82,.23,2.82,.52v12.96c0,.29-1.26,.52-2.82,.52H64.82c-1.56,0-2.82-.23-2.82-.52v-12.96Z"/><path class="cls-2" d="M62,70.52c0-.29,1.26-.52,2.82-.52h118.36c1.56,0,2.82,.23,2.82,.52v12.96c0,.29-1.26,.52-2.82,.52H64.82c-1.56,0-2.82-.23-2.82-.52v-12.96Z"/><rect class="cls-10" x="96.5" y="102.5" width="85" height="77"/><path class="cls-14" d="M164.5,191.75v10.94h-4.5v-10.94h4.5Zm8.89,7.36l-7.95-7.73,3.18-3.09,7.96,7.73-3.18,3.09Zm6.86-11.73h-11.25v-4.38h11.25v4.38Z"/><g><path class="cls-7" d="M161.18,190.02H45.72c-3.16,0-5.72-2.56-5.72-5.72V105.06c0-2.91,1.33-5.67,3.62-7.47l53.93-42.55c3.46-2.73,8.33-2.73,11.79,0l53.93,42.55c2.29,1.8,3.62,4.56,3.62,7.47v79.24c0,3.16-2.56,5.72-5.72,5.72Z"/><g class="cls-13"><path class="cls-6" d="M158.45,103.01H58.8c-2.94,0-5.32,2.38-5.32,5.32v61.37c0,2.94,2.38,5.32,5.32,5.32h99.65c2.94,0,5.32-2.38,5.32-5.32v-61.37c0-2.94-2.38-5.32-5.32-5.32Z"/></g><path class="cls-2" d="M154.64,72.95H54.05c-2.93,0-5.31,3.25-5.31,7.25v82.81c0,4.01,2.38,7.26,5.31,7.26h100.58c2.93,0,5.31-3.25,5.31-7.26V80.2c0-4.01-2.38-7.25-5.31-7.25Z"/><g class="cls-12"><path class="cls-4" d="M149.74,144.54H59.48c-.55,0-.99,.44-.99,.99v4.7c0,.55,.44,.99,.99,.99h90.26c.54,0,.99-.44,.99-.99v-4.7c0-.55-.44-.99-.99-.99Z"/><path class="cls-5" d="M88.79,106.07h-28.7c-.88,0-1.59,.71-1.59,1.59v3.49c0,.88,.71,1.59,1.59,1.59h28.7c.88,0,1.59-.71,1.59-1.59v-3.49c0-.88-.71-1.59-1.59-1.59Z"/><path class="cls-4" d="M149.13,156.6h-28.7c-.88,0-1.59,.71-1.59,1.59v3.49c0,.88,.71,1.59,1.59,1.59h28.7c.88,0,1.59-.71,1.59-1.59v-3.49c0-.88-.71-1.59-1.59-1.59Z"/><path class="cls-5" d="M149.74,118.89H59.48c-.55,0-.99,.44-.99,.99v4.7c0,.55,.44,.99,.99,.99h90.26c.54,0,.99-.44,.99-.99v-4.7c0-.55-.44-.99-.99-.99Z"/><path class="cls-5" d="M149.74,131.71H59.48c-.55,0-.99,.44-.99,.99v4.7c0,.55,.44,.99,.99,.99h90.26c.54,0,.99-.44,.99-.99v-4.7c0-.55-.44-.99-.99-.99Z"/></g><g class="cls-11"><path class="cls-6" d="M166.9,104.33v78.14c0,3.16-2.56,5.72-5.72,5.72H45.72c-3.16,0-5.72-2.56-5.72-5.72V104.33c0-.11,0-.22,.01-.33,.13,3.5,1.96,6.74,4.92,8.66l53.59,30.55c3,1.94,6.86,1.94,9.86,0l53.59-30.55c2.96-1.92,4.78-5.15,4.92-8.66,0,.11,0,.22,0,.33h0Z"/></g><path class="cls-9" d="M166.9,106.17v78.14c0,3.16-2.56,5.72-5.72,5.72H45.72c-3.16,0-5.72-2.56-5.72-5.72V106.17c0-.11,0-.22,.01-.33,.13,3.5,1.96,6.74,4.92,8.66l53.59,30.55c3,1.94,6.86,1.94,9.86,0l53.59-30.55c2.96-1.92,4.78-5.15,4.92-8.66,0,.11,0,.22,0,.33h0Z"/><path class="cls-8" d="M161.97,174.13l-53.59-34.71c-3-1.94-6.86-1.94-9.86,0l-53.59,34.71c-3.08,1.99-4.93,5.4-4.93,9.07v1.11c0,3.16,2.56,5.72,5.72,5.72h115.46c3.16,0,5.72-2.56,5.72-5.72v-1.11c0-3.66-1.85-7.08-4.93-9.07Z"/></g><path class="cls-9" d="M92.39,114.76c2.42,0,4.48-.84,6.16-2.52,1.68-1.68,2.53-3.74,2.53-6.16s-.84-4.48-2.53-6.16c-1.68-1.68-3.74-2.53-6.16-2.53s-4.48,.84-6.16,2.53c-1.68,1.68-2.52,3.74-2.52,6.16s.84,4.48,2.52,6.16c1.68,1.68,3.74,2.52,6.16,2.52Zm0,7.47c-4.49,0-8.3-1.57-11.45-4.71-3.14-3.14-4.71-6.96-4.71-11.45s1.57-8.3,4.71-11.45c3.14-3.14,6.96-4.71,11.45-4.71,3.82,0,7.01,1.04,9.59,3.13,2.58,2.09,4.39,4.75,5.42,7.98h22.35c.27,0,.52,.04,.74,.13,.22,.09,.45,.25,.67,.47l2.89,2.9c.23,.22,.38,.45,.47,.67,.09,.22,.13,.47,.13,.74s-.04,.52-.13,.74c-.09,.22-.25,.45-.47,.67l-7,7c-.22,.23-.45,.38-.67,.47-.22,.09-.47,.13-.74,.13s-.52-.04-.74-.13c-.22-.09-.45-.25-.67-.47l-4.24-4.24-4.24,4.24c-.22,.23-.45,.38-.67,.47-.23,.09-.47,.13-.74,.13s-.52-.04-.74-.13c-.22-.09-.45-.25-.67-.47l-3.37-3.37h-2.15c-.85,3.37-2.66,6.08-5.42,8.15-2.76,2.06-5.96,3.1-9.59,3.1Z"/></svg>