<svg width="270" height="354" viewBox="0 0 270 354" fill="none" xmlns="http://www.w3.org/2000/svg">
<path d="M30 9.41093C30 6.07737 32.6863 3.375 36 3.375H232C235.314 3.375 238 6.07738 238 9.41093V165.339C238 168.673 235.314 171.375 232 171.375H36C32.6863 171.375 30 168.673 30 165.339V9.41093Z" fill="#202425"/>
<path d="M44 23.375H80V160.375H44V23.375Z" fill="#26292B"/>
<path d="M84 23.375H226V160.375H84V23.375Z" fill="#26292B"/>
<g filter="url(#filter0_ddd_1221_43787)">
<path d="M92 31.8935C92 31.6071 92.6309 31.375 93.4091 31.375H152.591C153.369 31.375 154 31.6071 154 31.8935V44.8565C154 45.1429 153.369 45.375 152.591 45.375H93.4091C92.6309 45.375 92 45.1429 92 44.8565V31.8935Z" fill="#121212"/>
</g>
<g filter="url(#filter1_ddd_1221_43787)">
<path d="M92 53.8935C92 53.6071 93.2617 53.375 94.8182 53.375H213.182C214.738 53.375 216 53.6071 216 53.8935V66.8565C216 67.1429 214.738 67.375 213.182 67.375H94.8182C93.2617 67.375 92 67.1429 92 66.8565V53.8935Z" fill="#121212"/>
</g>
<g filter="url(#filter2_ddd_1221_43787)">
<path d="M92 73.8935C92 73.6071 93.2617 73.375 94.8182 73.375H213.182C214.738 73.375 216 73.6071 216 73.8935V86.8565C216 87.1429 214.738 87.375 213.182 87.375H94.8182C93.2617 87.375 92 87.1429 92 86.8565V73.8935Z" fill="#121212"/>
</g>
<rect x="126.5" y="105.875" width="85" height="77" stroke="#A4ACB8" stroke-dasharray="2 2"/>
<path fill-rule="evenodd" clip-rule="evenodd" d="M194.5 195.125L194.5 206.062L190 206.062L190 195.125L194.5 195.125ZM203.387 202.484L195.432 194.75L198.614 191.656L206.569 199.39L203.387 202.484ZM210.25 190.75L199 190.75L199 186.375L210.25 186.375L210.25 190.75Z" fill="#2B2F31"/>
<path fill-rule="evenodd" clip-rule="evenodd" d="M79.5 71.957V61.0195H84V71.957H79.5ZM70.6131 64.5983L78.568 72.3323L75.386 75.4259L67.4311 67.6919L70.6131 64.5983ZM63.75 76.332H75V80.707H63.75V76.332Z" fill="#2D343F"/>
<g filter="url(#filter3_ddd_1221_43787)">
<path d="M90.3125 173.266C87.4479 173.266 85.013 172.263 83.0078 170.258C81.0026 168.253 80 165.818 80 162.953V88.3594C80 85.4948 81.0026 83.0599 83.0078 81.0547C85.013 79.0495 87.4479 78.0469 90.3125 78.0469H102.344V61.5469C102.344 52.4948 105.523 44.7891 111.883 38.4297C118.242 32.0703 125.948 28.8906 135 28.8906C144.052 28.8906 151.758 32.0703 158.117 38.4297C164.477 44.7891 167.656 52.4948 167.656 61.5469V78.0469H179.688C182.552 78.0469 184.987 79.0495 186.992 81.0547C188.997 83.0599 190 85.4948 190 88.3594V162.953C190 165.818 188.997 168.253 186.992 170.258C184.987 172.263 182.552 173.266 179.688 173.266H90.3125ZM112.656 78.0469H157.344V61.5469C157.344 55.3594 155.167 50.0885 150.812 45.7344C146.458 41.3802 141.188 39.2031 135 39.2031C128.812 39.2031 123.542 41.3802 119.188 45.7344C114.833 50.0885 112.656 55.3594 112.656 61.5469V78.0469Z" fill="white"/>
<g opacity="0.3">
<path d="M179.738 147.535H89.4824C88.9366 147.535 88.4941 147.977 88.4941 148.523V153.221C88.4941 153.766 88.9366 154.208 89.4824 154.208H179.738C180.283 154.208 180.726 153.766 180.726 153.221V148.523C180.726 147.977 180.283 147.535 179.738 147.535Z" fill="#848484"/>
<path d="M118.788 109.07H90.0864C89.207 109.07 88.4941 109.783 88.4941 110.662V114.152C88.4941 115.031 89.207 115.744 90.0864 115.744H118.788C119.668 115.744 120.38 115.031 120.38 114.152V110.662C120.38 109.783 119.668 109.07 118.788 109.07Z" fill="#A4ACB8"/>
<path d="M179.134 159.602H150.432C149.553 159.602 148.84 160.314 148.84 161.193V164.683C148.84 165.562 149.553 166.275 150.432 166.275H179.134C180.013 166.275 180.726 165.562 180.726 164.683V161.193C180.726 160.314 180.013 159.602 179.134 159.602Z" fill="#848484"/>
<path d="M179.738 121.891H89.4824C88.9366 121.891 88.4941 122.333 88.4941 122.879V127.576C88.4941 128.122 88.9366 128.564 89.4824 128.564H179.738C180.283 128.564 180.726 128.122 180.726 127.576V122.879C180.726 122.333 180.283 121.891 179.738 121.891Z" fill="#A4ACB8"/>
<path d="M179.738 134.713H89.4824C88.9366 134.713 88.4941 135.155 88.4941 135.701V140.398C88.4941 140.944 88.9366 141.386 89.4824 141.386H179.738C180.283 141.386 180.726 140.944 180.726 140.398V135.701C180.726 135.155 180.283 134.713 179.738 134.713Z" fill="#A4ACB8"/>
</g>
</g>
<g filter="url(#filter4_ddd_1221_43787)">
<rect x="80" y="77.7578" width="110" height="95.509" rx="11" fill="#679F30"/>
</g>
<path d="M73.434 144.118C77.1788 144.118 80.3514 142.818 82.952 140.218C85.5525 137.617 86.8528 134.444 86.8528 130.7C86.8528 126.955 85.5525 123.782 82.952 121.182C80.3514 118.581 77.1788 117.281 73.434 117.281C69.6892 117.281 66.5165 118.581 63.916 121.182C61.3154 123.782 60.0152 126.955 60.0152 130.7C60.0152 134.444 61.3154 137.617 63.916 140.218C66.5165 142.818 69.6892 144.118 73.434 144.118ZM73.434 155.665C66.4992 155.665 60.6046 153.238 55.7503 148.383C50.8959 143.529 48.4688 137.634 48.4688 130.7C48.4688 123.765 50.8959 117.87 55.7503 113.016C60.6046 108.162 66.4992 105.734 73.434 105.734C79.3286 105.734 84.2696 107.347 88.2571 110.571C92.2446 113.796 95.0358 117.905 96.6308 122.898H131.166C131.582 122.898 131.964 122.967 132.31 123.106C132.657 123.245 133.004 123.487 133.351 123.834L137.823 128.307C138.17 128.654 138.413 129.001 138.552 129.347C138.69 129.694 138.76 130.075 138.76 130.492C138.76 130.908 138.69 131.289 138.552 131.636C138.413 131.983 138.17 132.329 137.823 132.676L127.005 143.494C126.658 143.841 126.312 144.084 125.965 144.222C125.618 144.361 125.237 144.43 124.821 144.43C124.405 144.43 124.023 144.361 123.677 144.222C123.33 144.084 122.983 143.841 122.636 143.494L116.083 136.941L109.53 143.494C109.183 143.841 108.836 144.084 108.489 144.222C108.143 144.361 107.761 144.43 107.345 144.43C106.929 144.43 106.548 144.361 106.201 144.222C105.854 144.084 105.507 143.841 105.161 143.494L99.9595 138.293H96.6308C95.3132 143.494 92.522 147.69 88.2571 150.88C83.9922 154.07 79.0512 155.665 73.434 155.665Z" fill="white"/>
<defs>
<filter id="filter0_ddd_1221_43787" x="44" y="0.375" width="158" height="110" filterUnits="userSpaceOnUse" color-interpolation-filters="sRGB">
<feFlood flood-opacity="0" result="BackgroundImageFix"/>
<feColorMatrix in="SourceAlpha" type="matrix" values="0 0 0 0 0 0 0 0 0 0 0 0 0 0 0 0 0 0 127 0" result="hardAlpha"/>
<feOffset dy="1.13052"/>
<feGaussianBlur stdDeviation="1.59602"/>
<feColorMatrix type="matrix" values="0 0 0 0 0 0 0 0 0 0 0 0 0 0 0 0 0 0 0.0161557 0"/>
<feBlend mode="normal" in2="BackgroundImageFix" result="effect1_dropShadow_1221_43787"/>
<feColorMatrix in="SourceAlpha" type="matrix" values="0 0 0 0 0 0 0 0 0 0 0 0 0 0 0 0 0 0 127 0" result="hardAlpha"/>
<feOffset dy="3.79717"/>
<feGaussianBlur stdDeviation="5.36071"/>
<feColorMatrix type="matrix" values="0 0 0 0 0 0 0 0 0 0 0 0 0 0 0 0 0 0 0.0238443 0"/>
<feBlend mode="normal" in2="effect1_dropShadow_1221_43787" result="effect2_dropShadow_1221_43787"/>
<feColorMatrix in="SourceAlpha" type="matrix" values="0 0 0 0 0 0 0 0 0 0 0 0 0 0 0 0 0 0 127 0" result="hardAlpha"/>
<feOffset dy="17"/>
<feGaussianBlur stdDeviation="24"/>
<feColorMatrix type="matrix" values="0 0 0 0 0 0 0 0 0 0 0 0 0 0 0 0 0 0 0.04 0"/>
<feBlend mode="normal" in2="effect2_dropShadow_1221_43787" result="effect3_dropShadow_1221_43787"/>
<feBlend mode="normal" in="SourceGraphic" in2="effect3_dropShadow_1221_43787" result="shape"/>
</filter>
<filter id="filter1_ddd_1221_43787" x="44" y="22.375" width="220" height="110" filterUnits="userSpaceOnUse" color-interpolation-filters="sRGB">
<feFlood flood-opacity="0" result="BackgroundImageFix"/>
<feColorMatrix in="SourceAlpha" type="matrix" values="0 0 0 0 0 0 0 0 0 0 0 0 0 0 0 0 0 0 127 0" result="hardAlpha"/>
<feOffset dy="1.13052"/>
<feGaussianBlur stdDeviation="1.59602"/>
<feColorMatrix type="matrix" values="0 0 0 0 0 0 0 0 0 0 0 0 0 0 0 0 0 0 0.0161557 0"/>
<feBlend mode="normal" in2="BackgroundImageFix" result="effect1_dropShadow_1221_43787"/>
<feColorMatrix in="SourceAlpha" type="matrix" values="0 0 0 0 0 0 0 0 0 0 0 0 0 0 0 0 0 0 127 0" result="hardAlpha"/>
<feOffset dy="3.79717"/>
<feGaussianBlur stdDeviation="5.36071"/>
<feColorMatrix type="matrix" values="0 0 0 0 0 0 0 0 0 0 0 0 0 0 0 0 0 0 0.0238443 0"/>
<feBlend mode="normal" in2="effect1_dropShadow_1221_43787" result="effect2_dropShadow_1221_43787"/>
<feColorMatrix in="SourceAlpha" type="matrix" values="0 0 0 0 0 0 0 0 0 0 0 0 0 0 0 0 0 0 127 0" result="hardAlpha"/>
<feOffset dy="17"/>
<feGaussianBlur stdDeviation="24"/>
<feColorMatrix type="matrix" values="0 0 0 0 0 0 0 0 0 0 0 0 0 0 0 0 0 0 0.04 0"/>
<feBlend mode="normal" in2="effect2_dropShadow_1221_43787" result="effect3_dropShadow_1221_43787"/>
<feBlend mode="normal" in="SourceGraphic" in2="effect3_dropShadow_1221_43787" result="shape"/>
</filter>
<filter id="filter2_ddd_1221_43787" x="44" y="42.375" width="220" height="110" filterUnits="userSpaceOnUse" color-interpolation-filters="sRGB">
<feFlood flood-opacity="0" result="BackgroundImageFix"/>
<feColorMatrix in="SourceAlpha" type="matrix" values="0 0 0 0 0 0 0 0 0 0 0 0 0 0 0 0 0 0 127 0" result="hardAlpha"/>
<feOffset dy="1.13052"/>
<feGaussianBlur stdDeviation="1.59602"/>
<feColorMatrix type="matrix" values="0 0 0 0 0 0 0 0 0 0 0 0 0 0 0 0 0 0 0.0161557 0"/>
<feBlend mode="normal" in2="BackgroundImageFix" result="effect1_dropShadow_1221_43787"/>
<feColorMatrix in="SourceAlpha" type="matrix" values="0 0 0 0 0 0 0 0 0 0 0 0 0 0 0 0 0 0 127 0" result="hardAlpha"/>
<feOffset dy="3.79717"/>
<feGaussianBlur stdDeviation="5.36071"/>
<feColorMatrix type="matrix" values="0 0 0 0 0 0 0 0 0 0 0 0 0 0 0 0 0 0 0.0238443 0"/>
<feBlend mode="normal" in2="effect1_dropShadow_1221_43787" result="effect2_dropShadow_1221_43787"/>
<feColorMatrix in="SourceAlpha" type="matrix" values="0 0 0 0 0 0 0 0 0 0 0 0 0 0 0 0 0 0 127 0" result="hardAlpha"/>
<feOffset dy="17"/>
<feGaussianBlur stdDeviation="24"/>
<feColorMatrix type="matrix" values="0 0 0 0 0 0 0 0 0 0 0 0 0 0 0 0 0 0 0.04 0"/>
<feBlend mode="normal" in2="effect2_dropShadow_1221_43787" result="effect3_dropShadow_1221_43787"/>
<feBlend mode="normal" in="SourceGraphic" in2="effect3_dropShadow_1221_43787" result="shape"/>
</filter>
<filter id="filter3_ddd_1221_43787" x="0" y="28.8906" width="270" height="324.375" filterUnits="userSpaceOnUse" color-interpolation-filters="sRGB">
<feFlood flood-opacity="0" result="BackgroundImageFix"/>
<feColorMatrix in="SourceAlpha" type="matrix" values="0 0 0 0 0 0 0 0 0 0 0 0 0 0 0 0 0 0 127 0" result="hardAlpha"/>
<feOffset dy="6.6501"/>
<feGaussianBlur stdDeviation="2.66004"/>
<feColorMatrix type="matrix" values="0 0 0 0 0 0 0 0 0 0 0 0 0 0 0 0 0 0 0.0282725 0"/>
<feBlend mode="normal" in2="BackgroundImageFix" result="effect1_dropShadow_1221_43787"/>
<feColorMatrix in="SourceAlpha" type="matrix" values="0 0 0 0 0 0 0 0 0 0 0 0 0 0 0 0 0 0 127 0" result="hardAlpha"/>
<feOffset dy="22.3363"/>
<feGaussianBlur stdDeviation="8.93452"/>
<feColorMatrix type="matrix" values="0 0 0 0 0 0 0 0 0 0 0 0 0 0 0 0 0 0 0.0417275 0"/>
<feBlend mode="normal" in2="effect1_dropShadow_1221_43787" result="effect2_dropShadow_1221_43787"/>
<feColorMatrix in="SourceAlpha" type="matrix" values="0 0 0 0 0 0 0 0 0 0 0 0 0 0 0 0 0 0 127 0" result="hardAlpha"/>
<feOffset dy="100"/>
<feGaussianBlur stdDeviation="40"/>
<feColorMatrix type="matrix" values="0 0 0 0 0 0 0 0 0 0 0 0 0 0 0 0 0 0 0.07 0"/>
<feBlend mode="normal" in2="effect2_dropShadow_1221_43787" result="effect3_dropShadow_1221_43787"/>
<feBlend mode="normal" in="SourceGraphic" in2="effect3_dropShadow_1221_43787" result="shape"/>
</filter>
<filter id="filter4_ddd_1221_43787" x="0" y="77.7578" width="270" height="275.51" filterUnits="userSpaceOnUse" color-interpolation-filters="sRGB">
<feFlood flood-opacity="0" result="BackgroundImageFix"/>
<feColorMatrix in="SourceAlpha" type="matrix" values="0 0 0 0 0 0 0 0 0 0 0 0 0 0 0 0 0 0 127 0" result="hardAlpha"/>
<feOffset dy="6.6501"/>
<feGaussianBlur stdDeviation="2.66004"/>
<feColorMatrix type="matrix" values="0 0 0 0 0 0 0 0 0 0 0 0 0 0 0 0 0 0 0.0282725 0"/>
<feBlend mode="normal" in2="BackgroundImageFix" result="effect1_dropShadow_1221_43787"/>
<feColorMatrix in="SourceAlpha" type="matrix" values="0 0 0 0 0 0 0 0 0 0 0 0 0 0 0 0 0 0 127 0" result="hardAlpha"/>
<feOffset dy="22.3363"/>
<feGaussianBlur stdDeviation="8.93452"/>
<feColorMatrix type="matrix" values="0 0 0 0 0 0 0 0 0 0 0 0 0 0 0 0 0 0 0.0417275 0"/>
<feBlend mode="normal" in2="effect1_dropShadow_1221_43787" result="effect2_dropShadow_1221_43787"/>
<feColorMatrix in="SourceAlpha" type="matrix" values="0 0 0 0 0 0 0 0 0 0 0 0 0 0 0 0 0 0 127 0" result="hardAlpha"/>
<feOffset dy="100"/>
<feGaussianBlur stdDeviation="40"/>
<feColorMatrix type="matrix" values="0 0 0 0 0 0 0 0 0 0 0 0 0 0 0 0 0 0 0.07 0"/>
<feBlend mode="normal" in2="effect2_dropShadow_1221_43787" result="effect3_dropShadow_1221_43787"/>
<feBlend mode="normal" in="SourceGraphic" in2="effect3_dropShadow_1221_43787" result="shape"/>
</filter>
</defs>
</svg>
