<svg width="270" height="351" viewBox="0 0 270 351" fill="none" xmlns="http://www.w3.org/2000/svg">
<path d="M30 6.03593C30 2.70237 32.6863 0 36 0H232C235.314 0 238 2.70238 238 6.03593V161.964C238 165.298 235.314 168 232 168H36C32.6863 168 30 165.298 30 161.964V6.03593Z" fill="#202425"/>
<path d="M44 20H80V157H44V20Z" fill="#26292B"/>
<path d="M84 20H226V157H84V20Z" fill="#26292B"/>
<rect x="126.5" y="102.5" width="85" height="77" stroke="#A4ACB8" stroke-dasharray="2 2"/>
<path fill-rule="evenodd" clip-rule="evenodd" d="M79.5 68.959V58.0215H84V68.959H79.5ZM70.6131 61.6003L78.568 69.3343L75.386 72.4279L67.4311 64.6939L70.6131 61.6003ZM63.75 73.334H75V77.709H63.75V73.334Z" fill="#2C3032"/>
<g filter="url(#filter0_ddd_1231_44005)">
<path d="M90.3125 170.266C87.4479 170.266 85.013 169.263 83.0078 167.258C81.0026 165.253 80 162.818 80 159.953V85.3594C80 82.4948 81.0026 80.0599 83.0078 78.0547C85.013 76.0495 87.4479 75.0469 90.3125 75.0469H102.344V58.5469C102.344 49.4948 105.523 41.7891 111.883 35.4297C118.242 29.0703 125.948 25.8906 135 25.8906C144.052 25.8906 151.758 29.0703 158.117 35.4297C164.477 41.7891 167.656 49.4948 167.656 58.5469V75.0469H179.688C182.552 75.0469 184.987 76.0495 186.992 78.0547C188.997 80.0599 190 82.4948 190 85.3594V159.953C190 162.818 188.997 165.253 186.992 167.258C184.987 169.263 182.552 170.266 179.688 170.266H90.3125ZM112.656 75.0469H157.344V58.5469C157.344 52.3594 155.167 47.0885 150.812 42.7344C146.458 38.3802 141.188 36.2031 135 36.2031C128.812 36.2031 123.542 38.3802 119.188 42.7344C114.833 47.0885 112.656 52.3594 112.656 58.5469V75.0469Z" fill="white"/>
<g opacity="0.3">
<path d="M179.738 144.535H89.4824C88.9366 144.535 88.4941 144.977 88.4941 145.523V150.221C88.4941 150.766 88.9366 151.208 89.4824 151.208H179.738C180.283 151.208 180.726 150.766 180.726 150.221V145.523C180.726 144.977 180.283 144.535 179.738 144.535Z" fill="#848484"/>
<path d="M118.788 106.07H90.0864C89.207 106.07 88.4941 106.783 88.4941 107.662V111.152C88.4941 112.031 89.207 112.744 90.0864 112.744H118.788C119.668 112.744 120.38 112.031 120.38 111.152V107.662C120.38 106.783 119.668 106.07 118.788 106.07Z" fill="#A4ACB8"/>
<path d="M179.134 156.602H150.432C149.553 156.602 148.84 157.314 148.84 158.193V161.683C148.84 162.562 149.553 163.275 150.432 163.275H179.134C180.013 163.275 180.726 162.562 180.726 161.683V158.193C180.726 157.314 180.013 156.602 179.134 156.602Z" fill="#848484"/>
<path d="M179.738 118.891H89.4824C88.9366 118.891 88.4941 119.333 88.4941 119.879V124.576C88.4941 125.122 88.9366 125.564 89.4824 125.564H179.738C180.283 125.564 180.726 125.122 180.726 124.576V119.879C180.726 119.333 180.283 118.891 179.738 118.891Z" fill="#A4ACB8"/>
<path d="M179.738 131.713H89.4824C88.9366 131.713 88.4941 132.155 88.4941 132.701V137.398C88.4941 137.944 88.9366 138.386 89.4824 138.386H179.738C180.283 138.386 180.726 137.944 180.726 137.398V132.701C180.726 132.155 180.283 131.713 179.738 131.713Z" fill="#A4ACB8"/>
</g>
</g>
<g filter="url(#filter1_ddd_1231_44005)">
<rect x="80" y="74.7578" width="110" height="95.509" rx="11" fill="#679F30"/>
</g>
<circle cx="135.001" cy="126.702" r="14.7018" fill="#005216"/>
<path d="M73.434 141.118C77.1788 141.118 80.3514 139.818 82.952 137.218C85.5525 134.617 86.8528 131.444 86.8528 127.7C86.8528 123.955 85.5525 120.782 82.952 118.182C80.3514 115.581 77.1788 114.281 73.434 114.281C69.6892 114.281 66.5165 115.581 63.916 118.182C61.3154 120.782 60.0152 123.955 60.0152 127.7C60.0152 131.444 61.3154 134.617 63.916 137.218C66.5165 139.818 69.6892 141.118 73.434 141.118ZM73.434 152.665C66.4992 152.665 60.6046 150.238 55.7503 145.383C50.8959 140.529 48.4688 134.634 48.4688 127.7C48.4688 120.765 50.8959 114.87 55.7503 110.016C60.6046 105.162 66.4992 102.734 73.434 102.734C79.3286 102.734 84.2696 104.347 88.2571 107.571C92.2446 110.796 95.0358 114.905 96.6308 119.898H131.166C131.582 119.898 131.964 119.967 132.31 120.106C132.657 120.245 133.004 120.487 133.351 120.834L137.823 125.307C138.17 125.654 138.413 126.001 138.552 126.347C138.69 126.694 138.76 127.075 138.76 127.492C138.76 127.908 138.69 128.289 138.552 128.636C138.413 128.983 138.17 129.329 137.823 129.676L127.005 140.494C126.658 140.841 126.312 141.084 125.965 141.222C125.618 141.361 125.237 141.43 124.821 141.43C124.405 141.43 124.023 141.361 123.677 141.222C123.33 141.084 122.983 140.841 122.636 140.494L116.083 133.941L109.53 140.494C109.183 140.841 108.836 141.084 108.489 141.222C108.143 141.361 107.761 141.43 107.345 141.43C106.929 141.43 106.548 141.361 106.201 141.222C105.854 141.084 105.507 140.841 105.161 140.494L99.9595 135.293H96.6308C95.3132 140.494 92.522 144.69 88.2571 147.88C83.9922 151.07 79.0512 152.665 73.434 152.665Z" fill="white"/>
<rect x="130.094" y="138.793" width="9.8135" height="31.4717" fill="#005216"/>
<defs>
<filter id="filter0_ddd_1231_44005" x="0" y="25.8906" width="270" height="324.375" filterUnits="userSpaceOnUse" color-interpolation-filters="sRGB">
<feFlood flood-opacity="0" result="BackgroundImageFix"/>
<feColorMatrix in="SourceAlpha" type="matrix" values="0 0 0 0 0 0 0 0 0 0 0 0 0 0 0 0 0 0 127 0" result="hardAlpha"/>
<feOffset dy="6.6501"/>
<feGaussianBlur stdDeviation="2.66004"/>
<feColorMatrix type="matrix" values="0 0 0 0 0 0 0 0 0 0 0 0 0 0 0 0 0 0 0.0282725 0"/>
<feBlend mode="normal" in2="BackgroundImageFix" result="effect1_dropShadow_1231_44005"/>
<feColorMatrix in="SourceAlpha" type="matrix" values="0 0 0 0 0 0 0 0 0 0 0 0 0 0 0 0 0 0 127 0" result="hardAlpha"/>
<feOffset dy="22.3363"/>
<feGaussianBlur stdDeviation="8.93452"/>
<feColorMatrix type="matrix" values="0 0 0 0 0 0 0 0 0 0 0 0 0 0 0 0 0 0 0.0417275 0"/>
<feBlend mode="normal" in2="effect1_dropShadow_1231_44005" result="effect2_dropShadow_1231_44005"/>
<feColorMatrix in="SourceAlpha" type="matrix" values="0 0 0 0 0 0 0 0 0 0 0 0 0 0 0 0 0 0 127 0" result="hardAlpha"/>
<feOffset dy="100"/>
<feGaussianBlur stdDeviation="40"/>
<feColorMatrix type="matrix" values="0 0 0 0 0 0 0 0 0 0 0 0 0 0 0 0 0 0 0.07 0"/>
<feBlend mode="normal" in2="effect2_dropShadow_1231_44005" result="effect3_dropShadow_1231_44005"/>
<feBlend mode="normal" in="SourceGraphic" in2="effect3_dropShadow_1231_44005" result="shape"/>
</filter>
<filter id="filter1_ddd_1231_44005" x="0" y="74.7578" width="270" height="275.51" filterUnits="userSpaceOnUse" color-interpolation-filters="sRGB">
<feFlood flood-opacity="0" result="BackgroundImageFix"/>
<feColorMatrix in="SourceAlpha" type="matrix" values="0 0 0 0 0 0 0 0 0 0 0 0 0 0 0 0 0 0 127 0" result="hardAlpha"/>
<feOffset dy="6.6501"/>
<feGaussianBlur stdDeviation="2.66004"/>
<feColorMatrix type="matrix" values="0 0 0 0 0 0 0 0 0 0 0 0 0 0 0 0 0 0 0.0282725 0"/>
<feBlend mode="normal" in2="BackgroundImageFix" result="effect1_dropShadow_1231_44005"/>
<feColorMatrix in="SourceAlpha" type="matrix" values="0 0 0 0 0 0 0 0 0 0 0 0 0 0 0 0 0 0 127 0" result="hardAlpha"/>
<feOffset dy="22.3363"/>
<feGaussianBlur stdDeviation="8.93452"/>
<feColorMatrix type="matrix" values="0 0 0 0 0 0 0 0 0 0 0 0 0 0 0 0 0 0 0.0417275 0"/>
<feBlend mode="normal" in2="effect1_dropShadow_1231_44005" result="effect2_dropShadow_1231_44005"/>
<feColorMatrix in="SourceAlpha" type="matrix" values="0 0 0 0 0 0 0 0 0 0 0 0 0 0 0 0 0 0 127 0" result="hardAlpha"/>
<feOffset dy="100"/>
<feGaussianBlur stdDeviation="40"/>
<feColorMatrix type="matrix" values="0 0 0 0 0 0 0 0 0 0 0 0 0 0 0 0 0 0 0.07 0"/>
<feBlend mode="normal" in2="effect2_dropShadow_1231_44005" result="effect3_dropShadow_1231_44005"/>
<feBlend mode="normal" in="SourceGraphic" in2="effect3_dropShadow_1231_44005" result="shape"/>
</filter>
</defs>
</svg>
