<svg width="208" height="203" viewBox="0 0 208 203" fill="none" xmlns="http://www.w3.org/2000/svg">
<path d="M0 6.03593C0 2.70237 2.68629 0 6 0H202C205.314 0 208 2.70238 208 6.03593V161.964C208 165.298 205.314 168 202 168H6C2.68629 168 0 165.298 0 161.964V6.03593Z" fill="#202425"/>
<path d="M14 20H50V157H14V20Z" fill="#26292B"/>
<path d="M54 20H196V157H54V20Z" fill="#26292B"/>
<path d="M62 28.5185C62 28.2321 62.6309 28 63.4091 28H122.591C123.369 28 124 28.2321 124 28.5185V41.4815C124 41.7679 123.369 42 122.591 42H63.4091C62.6309 42 62 41.7679 62 41.4815V28.5185Z" fill="#121212"/>
<path d="M62 50.5185C62 50.2321 63.2617 50 64.8182 50H183.182C184.738 50 186 50.2321 186 50.5185V63.4815C186 63.7679 184.738 64 183.182 64H64.8182C63.2617 64 62 63.7679 62 63.4815V50.5185Z" fill="#121212"/>
<path d="M62 70.5185C62 70.2321 63.2617 70 64.8182 70H183.182C184.738 70 186 70.2321 186 70.5185V83.4815C186 83.7679 184.738 84 183.182 84H64.8182C63.2617 84 62 83.7679 62 83.4815V70.5185Z" fill="#121212"/>
<rect x="96.5" y="102.5" width="85" height="77" stroke="#A4ACB8" stroke-dasharray="2 2"/>
<path d="M161.181 190.025H45.7196C42.5603 190.025 40 187.466 40 184.307V105.063C40 102.15 41.3345 99.3982 43.6218 97.594L97.5551 55.0448C101.013 52.3184 105.888 52.3184 109.346 55.0448L163.279 97.594C165.566 99.3982 166.901 102.15 166.901 105.063V184.307C166.901 187.466 164.34 190.025 161.181 190.025Z" fill="#223B96"/>
<g style="mix-blend-mode:multiply" opacity="0.4">
<path d="M158.451 103.012H58.8041C55.8672 103.012 53.4863 105.392 53.4863 108.328V169.702C53.4863 172.638 55.8672 175.019 58.8041 175.019H158.451C161.388 175.019 163.769 172.638 163.769 169.702V108.328C163.769 105.392 161.388 103.012 158.451 103.012Z" fill="#C9C9C9"/>
</g>
<path d="M154.637 99.0527H54.0524C51.1196 99.0527 48.7422 101.43 48.7422 104.362V164.957C48.7422 167.889 51.1196 170.266 54.0524 170.266H154.637C157.57 170.266 159.947 167.889 159.947 164.957V104.362C159.947 101.43 157.57 99.0527 154.637 99.0527Z" fill="white"/>
<g opacity="0.3">
<path d="M149.736 144.537H59.4804C58.9346 144.537 58.4922 144.979 58.4922 145.525V150.222C58.4922 150.768 58.9346 151.21 59.4804 151.21H149.736C150.281 151.21 150.724 150.768 150.724 150.222V145.525C150.724 144.979 150.281 144.537 149.736 144.537Z" fill="#848484"/>
<path d="M88.7862 106.072H60.0845C59.2051 106.072 58.4922 106.785 58.4922 107.664V111.154C58.4922 112.033 59.2051 112.746 60.0845 112.746H88.7862C89.6656 112.746 90.3785 112.033 90.3785 111.154V107.664C90.3785 106.785 89.6656 106.072 88.7862 106.072Z" fill="#A4ACB8"/>
<path d="M149.132 156.604H120.43C119.551 156.604 118.838 157.316 118.838 158.195V161.685C118.838 162.564 119.551 163.277 120.43 163.277H149.132C150.011 163.277 150.724 162.564 150.724 161.685V158.195C150.724 157.316 150.011 156.604 149.132 156.604Z" fill="#848484"/>
<path d="M149.736 118.893H59.4804C58.9346 118.893 58.4922 119.335 58.4922 119.881V124.578C58.4922 125.124 58.9346 125.566 59.4804 125.566H149.736C150.281 125.566 150.724 125.124 150.724 124.578V119.881C150.724 119.335 150.281 118.893 149.736 118.893Z" fill="#A4ACB8"/>
<path d="M149.736 131.715H59.4804C58.9346 131.715 58.4922 132.157 58.4922 132.703V137.4C58.4922 137.946 58.9346 138.388 59.4804 138.388H149.736C150.281 138.388 150.724 137.946 150.724 137.4V132.703C150.724 132.157 150.281 131.715 149.736 131.715Z" fill="#A4ACB8"/>
</g>
<g style="mix-blend-mode:multiply" opacity="0.2">
<path d="M166.901 104.326V182.465C166.901 185.621 164.34 188.184 161.184 188.184H45.7171C42.5603 188.184 40 185.624 40 182.465V104.326C40 104.215 40.0051 104.109 40.0101 104C40.1415 107.505 41.9714 110.739 44.9336 112.657L98.5231 143.206C101.523 145.144 105.385 145.144 108.385 143.206L161.975 112.657C164.932 110.739 166.759 107.505 166.893 104C166.898 104.111 166.903 104.217 166.903 104.326H166.901Z" fill="#C9C9C9"/>
</g>
<path d="M166.901 106.168V184.307C166.901 187.463 164.34 190.025 161.184 190.025H45.7171C42.5603 190.025 40 187.466 40 184.307V106.168C40 106.057 40.0051 105.95 40.0101 105.842C40.1415 109.347 41.9714 112.581 44.9336 114.499L98.5231 145.048C101.523 146.986 105.385 146.986 108.385 145.048L161.975 114.499C164.932 112.581 166.759 109.347 166.893 105.842C166.898 105.953 166.903 106.059 166.903 106.168H166.901Z" fill="#466BF2"/>
<path d="M161.97 174.129L108.38 139.418C105.38 137.475 101.518 137.475 98.5205 139.418L44.9311 174.129C41.8551 176.12 40 179.534 40 183.198V184.307C40 187.466 42.5603 190.025 45.7196 190.025H161.181C164.34 190.025 166.901 187.466 166.901 184.307V183.198C166.901 179.534 165.046 176.12 161.97 174.129Z" fill="#3756C5"/>
<circle cx="160.5" cy="171.5" r="31.5" fill="white"/>
<path d="M155.978 182.929C156.276 183.048 156.587 183.101 156.9 183.101C157.212 183.101 157.523 183.048 157.821 182.929C158.146 182.799 158.423 182.592 158.657 182.358L177.907 163.108C178.39 162.624 178.65 162.013 178.65 161.326C178.65 160.639 178.39 160.027 177.907 159.544C177.423 159.06 176.812 158.801 176.125 158.801C175.437 158.801 174.826 159.06 174.343 159.544L156.9 176.987L149.607 169.694C149.132 169.219 148.532 168.951 147.85 168.951C147.167 168.951 146.567 169.219 146.093 169.694C145.601 170.186 145.35 170.809 145.35 171.501C145.35 172.193 145.601 172.816 146.093 173.308L155.143 182.358C155.376 182.592 155.653 182.799 155.978 182.929Z" fill="#466BF2" stroke="#466BF2" stroke-width="2"/>
</svg>
