<svg width="208" height="203" viewBox="0 0 208 203" fill="none" xmlns="http://www.w3.org/2000/svg">
<path d="M0 6.03593C0 2.70237 2.68629 0 6 0H202C205.314 0 208 2.70238 208 6.03593V161.964C208 165.298 205.314 168 202 168H6C2.68629 168 0 165.298 0 161.964V6.03593Z" fill="#202425"/>
<path d="M14 20H50V157H14V20Z" fill="#26292B"/>
<path d="M54 20H196V157H54V20Z" fill="#26292B"/>
<path d="M62 28.5185C62 28.2321 62.6309 28 63.4091 28H122.591C123.369 28 124 28.2321 124 28.5185V41.4815C124 41.7679 123.369 42 122.591 42H63.4091C62.6309 42 62 41.7679 62 41.4815V28.5185Z" fill="#121212"/>
<path d="M62 50.5185C62 50.2321 63.2617 50 64.8182 50H183.182C184.738 50 186 50.2321 186 50.5185V63.4815C186 63.7679 184.738 64 183.182 64H64.8182C63.2617 64 62 63.7679 62 63.4815V50.5185Z" fill="#121212"/>
<path d="M62 70.5185C62 70.2321 63.2617 70 64.8182 70H183.182C184.738 70 186 70.2321 186 70.5185V83.4815C186 83.7679 184.738 84 183.182 84H64.8182C63.2617 84 62 83.7679 62 83.4815V70.5185Z" fill="#121212"/>
<rect x="96.5" y="102.5" width="85" height="77" stroke="#A4ACB8" stroke-dasharray="2 2"/>
<path fill-rule="evenodd" clip-rule="evenodd" d="M164.5 191.75L164.5 202.687L160 202.687L160 191.75L164.5 191.75ZM173.387 199.109L165.432 191.375L168.614 188.281L176.569 196.015L173.387 199.109ZM180.25 187.375L169 187.375L169 183L180.25 183L180.25 187.375Z" fill="#2B2F31"/>
<path d="M161.181 189.963H45.7196C42.5603 189.963 40 187.403 40 184.244V105.001C40 102.087 41.3345 99.3357 43.6218 97.5315L97.5551 54.9823C101.013 52.2559 105.888 52.2559 109.346 54.9823L163.279 97.5315C165.566 99.3357 166.901 102.087 166.901 105.001V184.244C166.901 187.403 164.34 189.963 161.181 189.963Z" fill="#A4ACB8"/>
<g style="mix-blend-mode:multiply" opacity="0.4">
<path d="M158.451 102.949H58.8041C55.8672 102.949 53.4863 105.329 53.4863 108.266V169.64C53.4863 172.576 55.8672 174.956 58.8041 174.956H158.451C161.388 174.956 163.769 172.576 163.769 169.64V108.266C163.769 105.329 161.388 102.949 158.451 102.949Z" fill="#C9C9C9"/>
</g>
<path d="M154.637 98.9902H54.0524C51.1196 98.9902 48.7422 101.367 48.7422 104.299V164.895C48.7422 167.827 51.1196 170.204 54.0524 170.204H154.637C157.57 170.204 159.947 167.827 159.947 164.895V104.299C159.947 101.367 157.57 98.9902 154.637 98.9902Z" fill="white"/>
<g opacity="0.3">
<path d="M149.736 144.475H59.4804C58.9346 144.475 58.4922 144.917 58.4922 145.463V150.16C58.4922 150.706 58.9346 151.148 59.4804 151.148H149.736C150.281 151.148 150.724 150.706 150.724 150.16V145.463C150.724 144.917 150.281 144.475 149.736 144.475Z" fill="#848484"/>
<path d="M88.7862 106.01H60.0845C59.2051 106.01 58.4922 106.722 58.4922 107.602V111.091C58.4922 111.97 59.2051 112.683 60.0845 112.683H88.7862C89.6656 112.683 90.3785 111.97 90.3785 111.091V107.602C90.3785 106.722 89.6656 106.01 88.7862 106.01Z" fill="#A4ACB8"/>
<path d="M149.132 156.541H120.43C119.551 156.541 118.838 157.254 118.838 158.133V161.622C118.838 162.502 119.551 163.214 120.43 163.214H149.132C150.011 163.214 150.724 162.502 150.724 161.622V158.133C150.724 157.254 150.011 156.541 149.132 156.541Z" fill="#848484"/>
<path d="M149.736 118.83H59.4804C58.9346 118.83 58.4922 119.272 58.4922 119.818V124.515C58.4922 125.061 58.9346 125.503 59.4804 125.503H149.736C150.281 125.503 150.724 125.061 150.724 124.515V119.818C150.724 119.272 150.281 118.83 149.736 118.83Z" fill="#A4ACB8"/>
<path d="M149.736 131.652H59.4804C58.9346 131.652 58.4922 132.095 58.4922 132.64V137.338C58.4922 137.883 58.9346 138.326 59.4804 138.326H149.736C150.281 138.326 150.724 137.883 150.724 137.338V132.64C150.724 132.095 150.281 131.652 149.736 131.652Z" fill="#A4ACB8"/>
</g>
<g style="mix-blend-mode:multiply" opacity="0.2">
<path d="M166.901 104.263V182.403C166.901 185.559 164.34 188.121 161.184 188.121H45.7171C42.5603 188.121 40 185.561 40 182.403V104.263C40 104.152 40.0051 104.046 40.0101 103.938C40.1415 107.442 41.9714 110.677 44.9336 112.594L98.5231 143.144C101.523 145.082 105.385 145.082 108.385 143.144L161.975 112.594C164.932 110.677 166.759 107.442 166.893 103.938C166.898 104.049 166.903 104.155 166.903 104.263H166.901Z" fill="#C9C9C9"/>
</g>
<path d="M166.901 106.105V184.245C166.901 187.401 164.34 189.963 161.184 189.963H45.7171C42.5603 189.963 40 187.403 40 184.245V106.105C40 105.994 40.0051 105.888 40.0101 105.779C40.1415 109.284 41.9714 112.518 44.9336 114.436L98.5231 144.985C101.523 146.924 105.385 146.924 108.385 144.985L161.975 114.436C164.932 112.518 166.759 109.284 166.893 105.779C166.898 105.89 166.903 105.997 166.903 106.105H166.901Z" fill="#CFD5E0"/>
<path d="M161.97 174.067L108.38 139.356C105.38 137.413 101.518 137.413 98.5205 139.356L44.9311 174.067C41.8551 176.058 40 179.472 40 183.136V184.245C40 187.403 42.5603 189.963 45.7196 189.963H161.181C164.34 189.963 166.901 187.403 166.901 184.245V183.136C166.901 179.472 165.046 176.058 161.97 174.067Z" fill="#A4ACB8"/>
<circle cx="160.5" cy="171.438" r="31.5" fill="white"/>
<path d="M159 177.938V178.938H160H163H164V177.938V158.938V157.938H163H160H159V158.938V177.938ZM159 186.938V187.938H160H163H164V186.938V183.938V182.938H163H160H159V183.938V186.938Z" fill="#FF832B" stroke="#FF832B" stroke-width="2"/>
</svg>
