<?xml version="1.0" encoding="UTF-8"?><svg id="Layer_1" xmlns="http://www.w3.org/2000/svg" viewBox="0 0 208 207.08"><defs><style>.cls-1{fill:#f3f4f6;}.cls-2{fill:#fff;}.cls-3{fill:#e4e7eb;}.cls-4{fill:#848484;}.cls-5{fill:#a4acb8;}.cls-6{fill:#c9c9c9;}.cls-7{fill:#223b96;}.cls-8{fill:#3756c5;}.cls-9{fill:#466bf2;}.cls-10{fill:none;stroke:#a4acb8;stroke-dasharray:0 0 2 2;}.cls-11{opacity:.2;}.cls-12{opacity:.3;}.cls-13{opacity:.4;}</style></defs><path class="cls-1" d="M0,6.04C0,2.7,2.69,0,6,0H202c3.31,0,6,2.7,6,6.04V161.96c0,3.33-2.69,6.04-6,6.04H6c-3.31,0-6-2.7-6-6.04V6.04Z"/><path class="cls-3" d="M14,20H50V157H14V20Z"/><path class="cls-3" d="M54,20H196V157H54V20Z"/><path class="cls-2" d="M62,28.52c0-.29,.63-.52,1.41-.52h59.18c.78,0,1.41,.23,1.41,.52v12.96c0,.29-.63,.52-1.41,.52H63.41c-.78,0-1.41-.23-1.41-.52v-12.96Z"/><path class="cls-2" d="M62,50.52c0-.29,1.26-.52,2.82-.52h118.36c1.56,0,2.82,.23,2.82,.52v12.96c0,.29-1.26,.52-2.82,.52H64.82c-1.56,0-2.82-.23-2.82-.52v-12.96Z"/><path class="cls-2" d="M62,70.52c0-.29,1.26-.52,2.82-.52h118.36c1.56,0,2.82,.23,2.82,.52v12.96c0,.29-1.26,.52-2.82,.52H64.82c-1.56,0-2.82-.23-2.82-.52v-12.96Z"/><rect class="cls-10" x="96.5" y="102.5" width="85" height="77"/><g><path class="cls-7" d="M161.18,190.02H45.72c-3.16,0-5.72-2.56-5.72-5.72V105.06c0-2.91,1.33-5.67,3.62-7.47l53.93-42.55c3.46-2.73,8.33-2.73,11.79,0l53.93,42.55c2.29,1.8,3.62,4.56,3.62,7.47v79.24c0,3.16-2.56,5.72-5.72,5.72Z"/><g class="cls-13"><path class="cls-6" d="M158.45,103.01H58.8c-2.94,0-5.32,2.38-5.32,5.32v61.37c0,2.94,2.38,5.32,5.32,5.32h99.65c2.94,0,5.32-2.38,5.32-5.32v-61.37c0-2.94-2.38-5.32-5.32-5.32Z"/></g><path class="cls-2" d="M154.64,99.05H54.05c-2.93,0-5.31,2.38-5.31,5.31v60.59c0,2.93,2.38,5.31,5.31,5.31h100.58c2.93,0,5.31-2.38,5.31-5.31v-60.59c0-2.93-2.38-5.31-5.31-5.31Z"/><g class="cls-12"><path class="cls-4" d="M149.74,144.54H59.48c-.55,0-.99,.44-.99,.99v4.7c0,.55,.44,.99,.99,.99h90.26c.54,0,.99-.44,.99-.99v-4.7c0-.55-.44-.99-.99-.99Z"/><path class="cls-5" d="M88.79,106.07h-28.7c-.88,0-1.59,.71-1.59,1.59v3.49c0,.88,.71,1.59,1.59,1.59h28.7c.88,0,1.59-.71,1.59-1.59v-3.49c0-.88-.71-1.59-1.59-1.59Z"/><path class="cls-4" d="M149.13,156.6h-28.7c-.88,0-1.59,.71-1.59,1.59v3.49c0,.88,.71,1.59,1.59,1.59h28.7c.88,0,1.59-.71,1.59-1.59v-3.49c0-.88-.71-1.59-1.59-1.59Z"/><path class="cls-5" d="M149.74,118.89H59.48c-.55,0-.99,.44-.99,.99v4.7c0,.55,.44,.99,.99,.99h90.26c.54,0,.99-.44,.99-.99v-4.7c0-.55-.44-.99-.99-.99Z"/><path class="cls-5" d="M149.74,131.71H59.48c-.55,0-.99,.44-.99,.99v4.7c0,.55,.44,.99,.99,.99h90.26c.54,0,.99-.44,.99-.99v-4.7c0-.55-.44-.99-.99-.99Z"/></g><g class="cls-11"><path class="cls-6" d="M166.9,104.33v78.14c0,3.16-2.56,5.72-5.72,5.72H45.72c-3.16,0-5.72-2.56-5.72-5.72V104.33c0-.11,0-.22,.01-.33,.13,3.5,1.96,6.74,4.92,8.66l53.59,30.55c3,1.94,6.86,1.94,9.86,0l53.59-30.55c2.96-1.92,4.78-5.15,4.92-8.66,0,.11,0,.22,0,.33h0Z"/></g><path class="cls-9" d="M166.9,106.17v78.14c0,3.16-2.56,5.72-5.72,5.72H45.72c-3.16,0-5.72-2.56-5.72-5.72V106.17c0-.11,0-.22,.01-.33,.13,3.5,1.96,6.74,4.92,8.66l53.59,30.55c3,1.94,6.86,1.94,9.86,0l53.59-30.55c2.96-1.92,4.78-5.15,4.92-8.66,0,.11,0,.22,0,.33h0Z"/><path class="cls-8" d="M161.97,174.13l-53.59-34.71c-3-1.94-6.86-1.94-9.86,0l-53.59,34.71c-3.08,1.99-4.93,5.4-4.93,9.07v1.11c0,3.16,2.56,5.72,5.72,5.72h115.46c3.16,0,5.72-2.56,5.72-5.72v-1.11c0-3.66-1.85-7.08-4.93-9.07Z"/></g><circle class="cls-2" cx="160.5" cy="175.02" r="31.5"/><g><path class="cls-9" d="M155.14,185.88l.71-.71-.71,.71c.23,.23,.51,.44,.83,.57,.3,.12,.61,.17,.92,.17s.62-.05,.92-.17c.32-.13,.6-.34,.84-.57l19.25-19.25c.48-.48,.74-1.1,.74-1.78s-.26-1.3-.74-1.78-1.1-.74-1.78-.74-1.3,.26-1.78,.74l-17.44,17.44-7.29-7.29c-.47-.47-1.07-.74-1.76-.74s-1.28,.27-1.76,.74c-.49,.49-.74,1.12-.74,1.81s.25,1.32,.74,1.81l9.05,9.05Z"/><path class="cls-9" d="M156.9,187.62c-.45,0-.89-.08-1.29-.24-.13-.05-.25-.11-.37-.18l-.09,.09-.69-.69h-.01l-9.05-9.06c-.68-.68-1.04-1.55-1.04-2.51s.36-1.84,1.04-2.51c1.35-1.35,3.57-1.36,4.93,0l6.59,6.59,16.74-16.74c1.35-1.35,3.62-1.35,4.98,0,.68,.68,1.04,1.54,1.04,2.49s-.36,1.81-1.03,2.49l-19.25,19.25c-.36,.36-.75,.62-1.17,.79-.4,.16-.84,.24-1.29,.24Zm-1.05-2.45c.16,.16,.33,.28,.5,.35,.33,.13,.77,.13,1.1,0,.17-.07,.34-.18,.5-.35l19.25-19.25c.3-.3,.45-.66,.45-1.08s-.15-.78-.45-1.08c-.6-.6-1.55-.6-2.15,0l-18.15,18.15-8-8c-.6-.6-1.5-.6-2.1,0-.3,.3-.45,.67-.45,1.1s.15,.8,.45,1.1l9.05,9.05Z"/></g></svg>