<svg width="16" height="16" viewBox="0 0 16 16" fill="none" xmlns="http://www.w3.org/2000/svg">
<g id="apps">
<g id="vector">
<path d="M1.3335 3.00004C1.3335 2.07957 2.07969 1.33337 3.00016 1.33337H4.66683C5.5873 1.33337 6.3335 2.07957 6.3335 3.00004V4.66671C6.3335 5.58718 5.5873 6.33337 4.66683 6.33337H3.00016C2.07969 6.33337 1.3335 5.58718 1.3335 4.66671V3.00004Z" fill="#6A727C"/>
<path d="M11.3335 1.33337C10.413 1.33337 9.66682 2.07957 9.66682 3.00004V4.66671C9.66682 5.58718 10.413 6.33337 11.3335 6.33337H13.0002C13.9206 6.33337 14.6668 5.58718 14.6668 4.66671V3.00004C14.6668 2.07957 13.9206 1.33337 13.0002 1.33337H11.3335Z" fill="#6A727C"/>
<path d="M12.1668 14.6667C13.5475 14.6667 14.6668 13.5474 14.6668 12.1667C14.6668 10.786 13.5475 9.6667 12.1668 9.6667C10.7861 9.6667 9.66682 10.786 9.66682 12.1667C9.66682 13.5474 10.7861 14.6667 12.1668 14.6667Z" fill="#6A727C"/>
<path d="M3.00016 9.6667C2.07969 9.6667 1.3335 10.4129 1.3335 11.3334V13C1.3335 13.9205 2.07969 14.6667 3.00016 14.6667H4.66683C5.5873 14.6667 6.3335 13.9205 6.3335 13V11.3334C6.3335 10.4129 5.5873 9.6667 4.66683 9.6667H3.00016Z" fill="#6A727C"/>
</g>
</g>
</svg>
