<svg width="25" height="24" viewBox="0 0 25 24" fill="none" xmlns="http://www.w3.org/2000/svg">
<path d="M19.6893 3.01342V6.60805M5.30855 17.3941V20.9888M21.4866 4.81074H17.8919M7.10586 19.1915H3.51123M11.6166 3.74489C11.6551 3.53874 11.7645 3.35255 11.9258 3.21856C12.0871 3.08458 12.2902 3.01123 12.5 3.01123C12.7097 3.01123 12.9128 3.08458 13.0741 3.21856C13.2354 3.35255 13.3448 3.53874 13.3833 3.74489L14.3278 8.73963C14.3949 9.09473 14.5675 9.42137 14.823 9.6769C15.0786 9.93244 15.4052 10.105 15.7603 10.1721L20.755 11.1166C20.9612 11.1551 21.1474 11.2645 21.2814 11.4258C21.4153 11.5871 21.4887 11.7902 21.4887 12C21.4887 12.2097 21.4153 12.4128 21.2814 12.5741C21.1474 12.7354 20.9612 12.8448 20.755 12.8833L15.7603 13.8278C15.4052 13.8949 15.0786 14.0675 14.823 14.323C14.5675 14.5786 14.3949 14.9052 14.3278 15.2603L13.3833 20.255C13.3448 20.4612 13.2354 20.6474 13.0741 20.7814C12.9128 20.9153 12.7097 20.9887 12.5 20.9887C12.2902 20.9887 12.0871 20.9153 11.9258 20.7814C11.7645 20.6474 11.6551 20.4612 11.6166 20.255L10.6721 15.2603C10.605 14.9052 10.4324 14.5786 10.1769 14.323C9.92137 14.0675 9.59473 13.8949 9.23963 13.8278L4.24489 12.8833C4.03874 12.8448 3.85255 12.7354 3.71856 12.5741C3.58458 12.4128 3.51123 12.2097 3.51123 12C3.51123 11.7902 3.58458 11.5871 3.71856 11.4258C3.85255 11.2645 4.03874 11.1551 4.24489 11.1166L9.23963 10.1721C9.59473 10.105 9.92137 9.93244 10.1769 9.6769C10.4324 9.42137 10.605 9.09473 10.6721 8.73963L11.6166 3.74489Z" stroke="#6A727C" stroke-width="1.2" stroke-linecap="round" stroke-linejoin="round"/>
</svg>
