<svg width="16" height="16" viewBox="0 0 16 16" fill="none" xmlns="http://www.w3.org/2000/svg">
<g id="ai logo - icon">
<g id="Vector">
<path d="M7.0573 8.16488C7.05808 8.16488 7.05854 8.16575 7.0581 8.1664L4.07106 12.5533C4.04932 12.5852 4.026 12.6273 3.98737 12.6273H1.39602C1.34506 12.6273 1.31595 12.568 1.34506 12.5272L4.31493 8.16488C4.32948 8.14262 4.32948 8.11295 4.31493 8.09069L1.34506 3.7284C1.31595 3.6876 1.34506 3.62825 1.39602 3.62825L3.98373 3.62825C4.00557 3.62825 4.02376 3.63937 4.03468 3.65421L7.0555 8.09069C7.06973 8.11244 7.07005 8.14129 7.05646 8.16336C7.05606 8.16402 7.05653 8.16488 7.0573 8.16488Z" fill="#6A727C"/>
<path d="M8.94303 8.09072C8.94224 8.09072 8.94178 8.08985 8.94222 8.0892L11.9293 3.70233C11.951 3.67039 11.9743 3.62828 12.013 3.62828L14.6043 3.62828C14.6553 3.62828 14.6844 3.68763 14.6553 3.72843L11.6854 8.09072C11.6708 8.11298 11.6708 8.14265 11.6854 8.16491L14.6553 12.5272C14.6844 12.568 14.6553 12.6274 14.6043 12.6274L12.0166 12.6274C11.9948 12.6274 11.9766 12.6162 11.9656 12.6014L8.94483 8.16491C8.9306 8.14316 8.93027 8.11432 8.94386 8.09224C8.94427 8.09158 8.9438 8.09072 8.94303 8.09072Z" fill="#6A727C"/>
<path d="M7.92892 7.12194C7.92892 7.12273 7.92803 7.12319 7.92739 7.12274L3.59011 4.10226C3.55821 4.08004 3.5164 4.05615 3.5164 4.01727V1.3966C3.5164 1.34507 3.57509 1.31563 3.61543 1.34507L7.92892 4.34854C7.95092 4.36326 7.98027 4.36326 8.00227 4.34854L12.3158 1.34507C12.3561 1.31563 12.4148 1.34507 12.4148 1.3966V4.01359C12.4148 4.03568 12.4038 4.05408 12.3891 4.06512L8.00227 7.12012C7.98077 7.13451 7.95227 7.13484 7.93044 7.12111C7.92979 7.1207 7.92892 7.12116 7.92892 7.12194Z" fill="#6A727C"/>
<path d="M7.92892 8.87814C7.92892 8.87736 7.92803 8.8769 7.92739 8.87734L3.59011 11.8978C3.55821 11.92 3.5164 11.9439 3.5164 11.9828V14.6035C3.5164 14.655 3.57509 14.6845 3.61543 14.655L7.92892 11.6515C7.95092 11.6368 7.98027 11.6368 8.00227 11.6515L12.3158 14.655C12.3561 14.6845 12.4148 14.655 12.4148 14.6035V11.9865C12.4148 11.9644 12.4038 11.946 12.3891 11.935L8.00227 8.87996C7.98077 8.86558 7.95227 8.86525 7.93044 8.87897C7.92979 8.87938 7.92892 8.87892 7.92892 8.87814Z" fill="#6A727C"/>
</g>
</g>
</svg>
