<svg width="16" height="16" viewBox="0 0 16 16" fill="none" xmlns="http://www.w3.org/2000/svg">
<g id="data-source">
<path id="vector" d="M8 7.33333C9.66667 7.33333 11.0833 7.07222 12.25 6.55C13.4167 6.02778 14 5.4 14 4.66667C14 3.93333 13.4167 3.30556 12.25 2.78333C11.0833 2.26111 9.66667 2 8 2C6.33333 2 4.91667 2.26111 3.75 2.78333C2.58333 3.30556 2 3.93333 2 4.66667C2 5.4 2.58333 6.02778 3.75 6.55C4.91667 7.07222 6.33333 7.33333 8 7.33333ZM8 9C8.45556 9 9.025 8.95278 9.70833 8.85833C10.3917 8.76389 11.05 8.61111 11.6833 8.4C12.3167 8.18889 12.8611 7.91389 13.3167 7.575C13.7722 7.23611 14 6.82222 14 6.33333V8C14 8.48889 13.7722 8.90278 13.3167 9.24167C12.8611 9.58056 12.3167 9.85556 11.6833 10.0667C11.05 10.2778 10.3917 10.4306 9.70833 10.525C9.025 10.6194 8.45556 10.6667 8 10.6667C7.54444 10.6667 6.975 10.6194 6.29167 10.525C5.60833 10.4306 4.95 10.2778 4.31667 10.0667C3.68333 9.85556 3.13889 9.58056 2.68333 9.24167C2.22778 8.90278 2 8.48889 2 8V6.33333C2 6.82222 2.22778 7.23611 2.68333 7.575C3.13889 7.91389 3.68333 8.18889 4.31667 8.4C4.95 8.61111 5.60833 8.76389 6.29167 8.85833C6.975 8.95278 7.54444 9 8 9ZM8 12.3333C8.45556 12.3333 9.025 12.2861 9.70833 12.1917C10.3917 12.0972 11.05 11.9444 11.6833 11.7333C12.3167 11.5222 12.8611 11.2472 13.3167 10.9083C13.7722 10.5694 14 10.1556 14 9.66667V11.3333C14 11.8222 13.7722 12.2361 13.3167 12.575C12.8611 12.9139 12.3167 13.1889 11.6833 13.4C11.05 13.6111 10.3917 13.7639 9.70833 13.8583C9.025 13.9528 8.45556 14 8 14C7.54444 14 6.975 13.9528 6.29167 13.8583C5.60833 13.7639 4.95 13.6111 4.31667 13.4C3.68333 13.1889 3.13889 12.9139 2.68333 12.575C2.22778 12.2361 2 11.8222 2 11.3333V9.66667C2 10.1556 2.22778 10.5694 2.68333 10.9083C3.13889 11.2472 3.68333 11.5222 4.31667 11.7333C4.95 11.9444 5.60833 12.0972 6.29167 12.1917C6.975 12.2861 7.54444 12.3333 8 12.3333Z" fill="#6A727C"/>
</g>
</svg>
