<svg width="10" height="15" viewBox="0 0 10 15" fill="none" xmlns="http://www.w3.org/2000/svg">
<g id="location">
<path id="Combo shape" fill-rule="evenodd" clip-rule="evenodd" d="M10 5.33337C10 7.95161 6.75 11.6667 5 11.6667C3.25 11.6667 0 7.69235 0 5.07411C0 2.33337 2.42267 0.333374 5 0.333374C7.57733 0.333374 10 2.33337 10 5.33337ZM6.66667 5.00004C6.66667 5.92052 5.92047 6.66671 5 6.66671C4.07953 6.66671 3.33333 5.92052 3.33333 5.00004C3.33333 4.07957 4.07953 3.33337 5 3.33337C5.92047 3.33337 6.66667 4.07957 6.66667 5.00004ZM1 13.1667C0.723858 13.1667 0.5 13.3906 0.5 13.6667C0.5 13.9429 0.723858 14.1667 1 14.1667H9C9.27614 14.1667 9.5 13.9429 9.5 13.6667C9.5 13.3906 9.27614 13.1667 9 13.1667H1Z" fill="#6A727C"/>
</g>
</svg>
