<svg width="16" height="16" viewBox="0 0 16 16" fill="none" xmlns="http://www.w3.org/2000/svg">
<g id="book">
<path id="Subtract" fill-rule="evenodd" clip-rule="evenodd" d="M7.50016 2.91864C6.08746 1.9481 4.12652 1.50614 2.66305 1.34077C1.93111 1.25806 1.3335 1.86927 1.3335 2.62337V10.1332C1.3335 10.8873 1.93111 11.4988 2.66305 11.5815C4.12652 11.7468 6.08746 12.1888 7.50016 13.1593V2.91864ZM8.50016 13.1593C9.91286 12.1888 11.8738 11.7468 13.3373 11.5815C14.0692 11.4988 14.6668 10.8873 14.6668 10.1332V2.62337C14.6668 1.86927 14.0692 1.25806 13.3373 1.34077C11.8738 1.50614 9.91286 1.9481 8.50016 2.91864V13.1593ZM2.83938 4.75989C2.88164 4.487 3.13712 4.30004 3.41001 4.34231C4.27853 4.47681 5.25662 4.70163 6.18049 5.05889C6.43805 5.15849 6.5661 5.44802 6.4665 5.70558C6.3669 5.96313 6.07737 6.09118 5.81982 5.99159C4.98072 5.66711 4.07615 5.45739 3.25696 5.33053C2.98407 5.28826 2.79711 5.03278 2.83938 4.75989ZM3.41001 7.00897C3.13712 6.96671 2.88164 7.15367 2.83938 7.42656C2.79711 7.69945 2.98407 7.95493 3.25696 7.99719C3.66979 8.06113 4.10557 8.1463 4.5445 8.25704C4.81226 8.32459 5.08407 8.1623 5.15163 7.89454C5.21918 7.62679 5.05689 7.35497 4.78913 7.28742C4.31646 7.16817 3.84983 7.07709 3.41001 7.00897Z" fill="#6A727C"/>
</g>
</svg>
