<svg width="16" height="16" viewBox="0 0 16 16" fill="none" xmlns="http://www.w3.org/2000/svg">
<g id="shield-check">
<path id="vector" fill-rule="evenodd" clip-rule="evenodd" d="M3.55499 3.14038L6.91386 1.57605C7.60896 1.25232 8.40239 1.25232 9.09748 1.57605L12.443 3.13418C13.4214 3.58982 14.0635 4.61389 13.995 5.73347C13.7321 10.0279 12.5604 11.9692 9.39325 14.2214C8.55742 14.8158 7.45484 14.8143 6.61839 14.2209C3.46094 11.9809 2.24581 10.0666 2.00411 5.7184C1.94229 4.60618 2.58343 3.59286 3.55499 3.14038ZM10.3763 6.99584C10.5581 6.78803 10.537 6.47215 10.3292 6.2903C10.1214 6.10846 9.80553 6.12952 9.62369 6.33734L7.71042 8.52394C7.65169 8.59106 7.55052 8.60005 7.48087 8.54433L6.31233 7.60949C6.09669 7.43699 5.78205 7.47195 5.60954 7.68758C5.43704 7.90321 5.472 8.21785 5.68763 8.39036L6.85618 9.3252C7.3437 9.71522 8.05187 9.6523 8.463 9.18244L10.3763 6.99584Z" fill="#6A727C"/>
</g>
</svg>
