<svg width="16" height="16" viewBox="0 0 16 16" fill="none" xmlns="http://www.w3.org/2000/svg">
<g id="setting">
<path id="vector" fill-rule="evenodd" clip-rule="evenodd" d="M7.29266 1.33154H8.70717C9.48839 1.33154 10.1217 1.92865 10.1217 2.66522C10.1217 3.50811 11.0235 4.044 11.7639 3.64101L11.839 3.60008C12.5156 3.23179 13.3807 3.45035 13.7713 4.08824L14.4785 5.24323C14.8692 5.88112 14.6374 6.69678 13.9608 7.06507C13.2201 7.46825 13.2201 8.53159 13.9608 8.93477C14.6374 9.30305 14.8692 10.1187 14.4785 10.7566L13.7713 11.9116C13.3807 12.5495 12.5156 12.768 11.839 12.3998L11.7639 12.3588C11.0235 11.9558 10.1217 12.4917 10.1217 13.3346C10.1217 14.0712 9.48839 14.6683 8.70717 14.6683H7.29266C6.51145 14.6683 5.87815 14.0712 5.87815 13.3346C5.87815 12.4917 4.9763 11.9558 4.23599 12.3588L4.1608 12.3998C3.48425 12.7681 2.61915 12.5495 2.22854 11.9116L1.52129 10.7566C1.13068 10.1187 1.36248 9.30306 2.03903 8.93478C2.7797 8.53159 2.7797 7.46825 2.03903 7.06506C1.36249 6.69677 1.13068 5.88111 1.52129 5.24322L2.22854 4.08823C2.61915 3.45034 3.48425 3.23178 4.1608 3.60007L4.23599 3.641C4.9763 4.04399 5.87815 3.50811 5.87815 2.66522C5.87815 1.92865 6.51145 1.33154 7.29266 1.33154ZM7.99993 10.2227C9.22754 10.2227 10.2227 9.22753 10.2227 7.99992C10.2227 6.77231 9.22754 5.77713 7.99993 5.77713C6.77231 5.77713 5.77713 6.77231 5.77713 7.99992C5.77713 9.22753 6.77231 10.2227 7.99993 10.2227Z" fill="#6A727C"/>
</g>
</svg>
