<svg width="14" height="14" viewBox="0 0 14 14" fill="none" xmlns="http://www.w3.org/2000/svg">
<g id="pixel grid-rectangle">
<path id="Union" fill-rule="evenodd" clip-rule="evenodd" d="M1.66683 0.333252C0.93045 0.333252 0.333496 0.930206 0.333496 1.66659V2.99992C0.333496 3.7363 0.93045 4.33325 1.66683 4.33325H1.8335V9.66659H1.66683C0.93045 9.66659 0.333496 10.2635 0.333496 10.9999V12.3333C0.333496 13.0696 0.93045 13.6666 1.66683 13.6666H3.00016C3.73654 13.6666 4.3335 13.0696 4.3335 12.3333V12.1666H9.66683V12.3333C9.66683 13.0696 10.2638 13.6666 11.0002 13.6666H12.3335C13.0699 13.6666 13.6668 13.0696 13.6668 12.3333V10.9999C13.6668 10.2635 13.0699 9.66659 12.3335 9.66659H12.1668V4.33325H12.3335C13.0699 4.33325 13.6668 3.7363 13.6668 2.99992V1.66659C13.6668 0.930206 13.0699 0.333252 12.3335 0.333252H11.0002C10.2638 0.333252 9.66683 0.930206 9.66683 1.66659V1.83325L4.3335 1.83325V1.66659C4.3335 0.930206 3.73654 0.333252 3.00016 0.333252H1.66683ZM4.3335 2.83325V2.99992C4.3335 3.7363 3.73654 4.33325 3.00016 4.33325H2.8335V9.66659H3.00016C3.73654 9.66659 4.3335 10.2635 4.3335 10.9999V11.1666H9.66683V10.9999C9.66683 10.2635 10.2638 9.66659 11.0002 9.66659H11.1668V4.33325H11.0002C10.2638 4.33325 9.66683 3.7363 9.66683 2.99992V2.83325L4.3335 2.83325Z" fill="#6A727C"/>
</g>
</svg>
