<svg width="16" height="16" viewBox="0 0 16 16" fill="none" xmlns="http://www.w3.org/2000/svg">
<g id="user-group">
<g id="vector">
<path d="M8.00014 7.33324C9.1047 7.33324 10.0001 6.43781 10.0001 5.33325C10.0001 4.22868 9.1047 3.33325 8.00014 3.33325C6.89557 3.33325 6.00014 4.22868 6.00014 5.33325C6.00014 6.43781 6.89557 7.33324 8.00014 7.33324Z" fill="#6A727C"/>
<path d="M8.00014 12.6666C10.2093 12.6666 12.0001 11.7711 12.0001 10.6666C12.0001 9.562 10.2093 8.66657 8.00014 8.66657C5.79101 8.66657 4.00016 9.562 4.00016 10.6666C4.00016 11.7711 5.79101 12.6666 8.00014 12.6666Z" fill="#6A727C"/>
<path d="M4.25459 8.67925C2.60815 8.78079 1.3335 9.48261 1.3335 10.3333C1.3335 11.0346 2.19982 11.6347 3.42658 11.8808C3.15244 11.5096 3.00016 11.0988 3.00016 10.6666C3.00016 9.90435 3.474 9.20847 4.25459 8.67925Z" fill="#6A727C"/>
<path d="M13.0002 10.6666C13.0002 11.0988 12.8479 11.5096 12.5737 11.8808C13.8005 11.6347 14.6668 11.0346 14.6668 10.3333C14.6668 9.48261 13.3922 8.78079 11.7457 8.67925C12.5263 9.20847 13.0002 9.90435 13.0002 10.6666Z" fill="#6A727C"/>
<path d="M10.479 7.02352C10.8078 6.54219 11.0001 5.96019 11.0001 5.33326C11.0001 5.12523 10.9789 4.92213 10.9386 4.72602C11.0634 4.6874 11.196 4.6666 11.3334 4.6666C12.0698 4.6666 12.6668 5.26355 12.6668 5.99993C12.6668 6.7363 12.0698 7.33326 11.3334 7.33326C11.0083 7.33326 10.7104 7.21688 10.479 7.02352Z" fill="#6A727C"/>
<path d="M4.66681 4.6666C4.80427 4.6666 4.93687 4.6874 5.06163 4.72602C5.02132 4.92213 5.00014 5.12523 5.00014 5.33326C5.00014 5.96019 5.19245 6.54219 5.52128 7.02352C5.28989 7.21688 4.99194 7.33326 4.66681 7.33326C3.93043 7.33326 3.33348 6.7363 3.33348 5.99993C3.33348 5.26355 3.93043 4.6666 4.66681 4.6666Z" fill="#6A727C"/>
</g>
</g>
</svg>
