<svg width="100%" height="100%" viewBox="0 0 24 24" fill="none" xmlns="http://www.w3.org/2000/svg">
<g clip-path="url(#clip0_814_122603)">
<path d="M3.47084 6.72941C3.33316 6.72941 3.22234 6.62195 3.22234 6.48426V6.48091C3.21898 4.91602 1.95297 3.64665 0.384731 3.6433C0.247048 3.6433 0.13623 3.53248 0.13623 3.39479C0.13623 3.25711 0.247048 3.14629 0.384731 3.14629C1.94962 3.14294 3.21898 1.87357 3.22234 0.308682C3.22234 0.170999 3.33316 0.0601807 3.46749 0.0601807H3.47084C3.60853 0.0601807 3.71935 0.167641 3.71935 0.305324V0.308682C3.7227 1.87357 4.98872 3.14294 6.55696 3.14629C6.69464 3.14629 6.80546 3.25375 6.80546 3.39144V3.39479C6.80546 3.53248 6.69464 3.6433 6.56032 3.6433H6.5536C4.98871 3.6433 3.71935 4.91267 3.71599 6.48091C3.71935 6.61523 3.60853 6.72605 3.47084 6.72941Z" fill="#76CAE7"/>
<path d="M21.3392 23.9398C21.2284 23.9398 21.1411 23.8525 21.1411 23.7417C21.1411 22.4891 20.1236 21.4749 18.871 21.4716C18.7602 21.4716 18.6729 21.3843 18.6729 21.2735C18.6729 21.1626 18.7602 21.0753 18.871 21.0753C20.1236 21.0753 21.1377 20.0612 21.1377 18.8086C21.1377 18.6978 21.2284 18.6105 21.3358 18.6105C21.4467 18.6105 21.534 18.7011 21.534 18.8086C21.534 20.0612 22.5515 21.0753 23.8041 21.0787C23.9149 21.0787 24.0022 21.166 24.0022 21.2768C24.0022 21.3876 23.9149 21.4749 23.8041 21.4749C22.5515 21.4749 21.5373 22.4925 21.534 23.745C21.5373 23.8491 21.45 23.9398 21.3392 23.9398Z" fill="#76CAE7"/>
<path d="M20.4361 9.92634C21.5477 14.5807 18.6731 19.2552 14.0221 20.3667C9.37113 21.4783 4.68991 18.6071 3.57837 13.9527C2.46683 9.29837 5.33803 4.62387 9.99238 3.51233C14.6467 2.40079 19.3212 5.27199 20.4361 9.92634Z" fill="url(#paint0_radial_814_122603)"/>
<path d="M7.35975 17.8112C8.63584 17.8515 9.70372 16.8508 9.74737 15.5747C9.78767 14.2986 8.78695 13.2307 7.51087 13.1871C7.50079 13.1871 7.49072 13.1871 7.48064 13.1871C7.4437 13.1871 7.40341 13.1871 7.36647 13.1871C7.37318 13.1199 7.37654 13.0561 7.37654 12.9889C7.36647 11.7028 6.31538 10.6718 5.03257 10.6786H3.29643C2.9539 13.271 3.77664 15.8836 5.54972 17.8112H7.35975Z" fill="#F2F2F2"/>
<path d="M20.5405 10.326C20.5438 10.3058 20.5405 10.2823 20.5304 10.2622C20.2517 8.75101 19.5632 7.34396 18.5457 6.19548C17.1622 5.64139 15.5872 6.31301 15.0331 7.69656C15.0163 7.73686 15.0029 7.78051 14.9861 7.82081C14.929 8.01558 14.8988 8.21371 14.8921 8.4152C14.7981 8.40512 14.704 8.39841 14.61 8.39841C13.2567 8.39505 12.1552 9.48979 12.1519 10.8431C12.1485 11.8841 12.8067 12.8177 13.7906 13.1636C14.0324 13.2576 14.2943 13.308 14.5563 13.3046H17.4208C18.5692 12.4349 19.617 11.4375 20.5405 10.326Z" fill="#F2F2F2"/>
<path d="M23.5691 4.70446C22.6792 3.22689 20.6039 2.64929 17.7025 3.08249C16.7085 3.22353 15.7245 3.43509 14.7641 3.72053C15.5264 3.98583 16.2551 4.3485 16.92 4.80185C17.2592 4.72797 17.6017 4.6373 17.9308 4.58693C18.4446 4.50633 18.9651 4.46604 19.489 4.46268C20.5233 4.31492 21.5643 4.69775 22.2561 5.48691C22.7967 6.38688 22.34 7.92826 21.0069 9.7215C19.1498 12.0319 16.8764 13.9729 14.3007 15.4404C11.7855 17.012 8.99487 18.0933 6.07667 18.6339C3.86703 18.963 2.28871 18.6339 1.74805 17.7373C1.2074 16.8407 1.6641 15.296 3.00063 13.5095C3.16518 13.2878 3.20548 13.1804 3.39353 12.9554C3.30622 12.1897 3.31629 11.4173 3.43047 10.6551C2.82937 11.2562 2.27864 11.9043 1.77828 12.5927C0.0286948 14.9299 -0.4448 17.0355 0.441744 18.5131C1.39545 19.7891 2.95362 20.4608 4.53529 20.2761C5.12632 20.2727 5.71735 20.2257 6.30166 20.135C9.41464 19.5675 12.3933 18.419 15.0831 16.7467C17.8267 15.1751 20.2513 13.0998 22.2292 10.6315C23.9822 8.28758 24.4557 6.18204 23.5691 4.70446Z" fill="#76CAE7"/>
</g>
<defs>
<radialGradient id="paint0_radial_814_122603" cx="0" cy="0" r="1" gradientUnits="userSpaceOnUse" gradientTransform="translate(11.9722 11.8973) scale(8.74694 8.66283)">
<stop offset="0.18" stop-color="#679CD3"/>
<stop offset="1" stop-color="#2974BA"/>
</radialGradient>
<clipPath id="clip0_814_122603">
<rect width="24" height="24" fill="white"/>
</clipPath>
</defs>
</svg>
