<svg width="1799" height="203" viewBox="0 0 1799 203" fill="none" xmlns="http://www.w3.org/2000/svg">
<path d="M879.414 9.30459C923.424 -1.67907 969.267 -0.077285 986.688 2.09657L1146.22 66.6256H406.309C415.477 63.5364 450.319 57.0835 516.334 55.9852C598.852 54.6122 554.842 44.6583 576.847 32.3016C598.852 19.945 618.106 26.4666 763.889 23.0342C909.671 19.6018 824.402 23.0342 879.414 9.30459Z" fill="#4A6DD9"/>
<path d="M619.697 139.699C604.419 136.203 311.595 122.858 77.3348 143.194L0.945312 202.294H968.541L1006.74 168.931C971.087 167.66 877.893 165.182 790.3 165.436C680.809 165.754 634.975 143.194 619.697 139.699Z" fill="#EE5D5D"/>
<path d="M1575.53 111.551C1891.85 75.1676 1608.54 111.551 1735.07 138.324L1798.33 191.526H535.801C586.229 182.83 692.586 162.35 714.591 149.994C742.097 134.548 959.396 149.994 1193.2 149.994C1427 149.994 1259.21 147.934 1575.53 111.551Z" fill="white"/>
<path d="M1319.03 119.387C1635.35 83.0036 1352.03 119.387 1478.56 146.16L1541.82 199.362H279.293C329.721 190.666 436.078 170.186 458.083 157.83C485.589 142.384 702.888 157.83 936.69 157.83C1170.49 157.83 1002.7 155.77 1319.03 119.387Z" fill="#4B2494"/>
</svg>
