<svg width="1806" height="210" viewBox="0 0 1806 210" fill="none" xmlns="http://www.w3.org/2000/svg">
<g filter="url(#filter0_f_1397_298469)">
<path d="M882.785 197.223C926.795 208.206 972.638 206.605 990.059 204.431L1149.6 139.902L409.68 139.902C418.849 142.991 453.69 149.444 519.705 150.542C602.223 151.915 558.213 161.869 580.218 174.226C602.223 186.582 621.477 180.061 767.26 183.493C913.042 186.926 827.773 183.493 882.785 197.223Z" fill="#4A6DD9"/>
<path d="M623.068 66.8287C607.791 70.3239 314.966 83.6692 80.7059 63.3335L4.31641 4.23306L971.912 4.23306L1010.11 37.5962C974.459 38.8672 881.264 41.3456 793.671 41.0914C684.18 40.7737 638.346 63.3335 623.068 66.8287Z" fill="#EE5D5D"/>
<path d="M1578.9 94.9763C1895.23 131.36 1611.91 94.9763 1738.44 68.2037L1801.7 15.0015L539.172 15.0015C589.6 23.6969 695.957 44.1769 717.962 56.5335C745.468 71.9793 962.767 56.5335 1196.57 56.5335C1430.37 56.5335 1262.58 58.593 1578.9 94.9763Z" fill="white"/>
<path d="M1322.4 87.1404C1638.72 123.524 1355.4 87.1404 1481.93 60.3677L1545.2 7.16561L282.664 7.16561C333.092 15.861 439.449 36.341 461.454 48.6976C488.961 64.1434 706.259 48.6976 940.061 48.6976C1173.86 48.6976 1006.08 50.757 1322.4 87.1404Z" fill="#4B2494"/>
</g>
<defs>
<filter id="filter0_f_1397_298469" x="0.316406" y="0.232422" width="1805.39" height="209.77" filterUnits="userSpaceOnUse" color-interpolation-filters="sRGB">
<feFlood flood-opacity="0" result="BackgroundImageFix"/>
<feBlend mode="normal" in="SourceGraphic" in2="BackgroundImageFix" result="shape"/>
<feGaussianBlur stdDeviation="2" result="effect1_foregroundBlur_1397_298469"/>
</filter>
</defs>
</svg>
