<svg width="404" height="84" viewBox="0 0 404 84" fill="none" xmlns="http://www.w3.org/2000/svg">
<path d="M75.6204 20.0388H83.0364C84.4284 20.0388 85.5164 20.4308 86.3004 21.2148C87.1004 21.9988 87.5004 23.0468 87.5004 24.3588C87.5004 24.9828 87.4124 25.5188 87.2364 25.9668C87.0604 26.3988 86.8364 26.7588 86.5644 27.0468C86.2924 27.3188 85.9804 27.5268 85.6284 27.6708C85.2764 27.7988 84.9324 27.8788 84.5964 27.9108V28.0548C84.9324 28.0708 85.3004 28.1508 85.7004 28.2948C86.1164 28.4388 86.5004 28.6708 86.8524 28.9908C87.2044 29.2948 87.5004 29.6948 87.7404 30.1908C87.9804 30.6708 88.1004 31.2628 88.1004 31.9668C88.1004 32.6388 87.9884 33.2708 87.7644 33.8628C87.5564 34.4548 87.2604 34.9668 86.8764 35.3988C86.4924 35.8308 86.0364 36.1748 85.5084 36.4308C84.9804 36.6708 84.4044 36.7908 83.7804 36.7908H75.6204V20.0388ZM78.3324 34.4628H82.9884C83.6924 34.4628 84.2444 34.2788 84.6444 33.9108C85.0444 33.5428 85.2444 33.0148 85.2444 32.3268V31.5108C85.2444 30.8228 85.0444 30.2948 84.6444 29.9268C84.2444 29.5588 83.6924 29.3748 82.9884 29.3748H78.3324V34.4628ZM78.3324 27.1188H82.5324C83.2044 27.1188 83.7244 26.9508 84.0924 26.6148C84.4604 26.2628 84.6444 25.7668 84.6444 25.1268V24.3588C84.6444 23.7188 84.4604 23.2308 84.0924 22.8948C83.7244 22.5428 83.2044 22.3668 82.5324 22.3668H78.3324V27.1188ZM98.3287 34.7268H98.2327C98.1207 35.0308 97.9687 35.3268 97.7767 35.6148C97.6007 35.9028 97.3687 36.1588 97.0807 36.3828C96.8087 36.5908 96.4727 36.7588 96.0727 36.8868C95.6887 37.0148 95.2407 37.0788 94.7287 37.0788C93.4327 37.0788 92.4247 36.6628 91.7047 35.8308C91.0007 34.9988 90.6487 33.8068 90.6487 32.2548V24.3108H93.2647V31.9188C93.2647 33.8548 94.0647 34.8228 95.6647 34.8228C96.0007 34.8228 96.3287 34.7828 96.6487 34.7028C96.9687 34.6068 97.2487 34.4708 97.4887 34.2948C97.7447 34.1188 97.9447 33.8948 98.0887 33.6228C98.2487 33.3508 98.3287 33.0308 98.3287 32.6628V24.3108H100.945V36.7908H98.3287V34.7268ZM105.531 22.0788C104.987 22.0788 104.587 21.9508 104.331 21.6948C104.091 21.4388 103.971 21.1108 103.971 20.7108V20.3028C103.971 19.9028 104.091 19.5748 104.331 19.3188C104.587 19.0628 104.987 18.9348 105.531 18.9348C106.075 18.9348 106.467 19.0628 106.707 19.3188C106.947 19.5748 107.067 19.9028 107.067 20.3028V20.7108C107.067 21.1108 106.947 21.4388 106.707 21.6948C106.467 21.9508 106.075 22.0788 105.531 22.0788ZM104.211 24.3108H106.827V36.7908H104.211V24.3108ZM112.746 36.7908C111.85 36.7908 111.178 36.5668 110.73 36.1188C110.298 35.6548 110.082 35.0148 110.082 34.1988V19.0308H112.698V34.6548H114.426V36.7908H112.746ZM124.294 34.7268H124.174C123.902 35.4628 123.454 36.0388 122.83 36.4548C122.222 36.8708 121.502 37.0788 120.67 37.0788C119.086 37.0788 117.862 36.5108 116.998 35.3748C116.134 34.2228 115.702 32.6148 115.702 30.5508C115.702 28.4868 116.134 26.8868 116.998 25.7508C117.862 24.5988 119.086 24.0228 120.67 24.0228C121.502 24.0228 122.222 24.2308 122.83 24.6468C123.454 25.0468 123.902 25.6228 124.174 26.3748H124.294V19.0308H126.91V36.7908H124.294V34.7268ZM121.462 34.8228C122.262 34.8228 122.934 34.6308 123.478 34.2468C124.022 33.8468 124.294 33.3268 124.294 32.6868V28.4148C124.294 27.7748 124.022 27.2628 123.478 26.8788C122.934 26.4788 122.262 26.2788 121.462 26.2788C120.55 26.2788 119.822 26.5748 119.278 27.1668C118.734 27.7428 118.462 28.5108 118.462 29.4708V31.6308C118.462 32.5908 118.734 33.3668 119.278 33.9588C119.822 34.5348 120.55 34.8228 121.462 34.8228ZM138.817 36.7908C137.905 36.7908 137.217 36.5588 136.753 36.0948C136.289 35.6148 136.057 34.9428 136.057 34.0788V26.4468H134.113V24.3108H135.169C135.601 24.3108 135.897 24.2148 136.057 24.0228C136.233 23.8308 136.321 23.5188 136.321 23.0868V20.9028H138.673V24.3108H141.289V26.4468H138.673V34.6548H141.097V36.7908H138.817ZM143.647 19.0308H146.263V26.3748H146.383C146.655 25.7028 147.063 25.1428 147.607 24.6948C148.167 24.2468 148.927 24.0228 149.887 24.0228C151.167 24.0228 152.159 24.4468 152.863 25.2948C153.583 26.1268 153.943 27.3188 153.943 28.8708V36.7908H151.327V29.1828C151.327 27.2468 150.543 26.2788 148.975 26.2788C148.639 26.2788 148.303 26.3268 147.967 26.4228C147.647 26.5028 147.359 26.6308 147.103 26.8068C146.847 26.9828 146.639 27.2068 146.479 27.4788C146.335 27.7508 146.263 28.0628 146.263 28.4148V36.7908H143.647V19.0308ZM161.984 37.0788C161.088 37.0788 160.288 36.9268 159.584 36.6228C158.88 36.3188 158.28 35.8868 157.784 35.3268C157.288 34.7508 156.904 34.0628 156.632 33.2628C156.376 32.4468 156.248 31.5428 156.248 30.5508C156.248 29.5588 156.376 28.6628 156.632 27.8628C156.904 27.0468 157.288 26.3588 157.784 25.7988C158.28 25.2228 158.88 24.7828 159.584 24.4788C160.288 24.1748 161.088 24.0228 161.984 24.0228C162.896 24.0228 163.696 24.1828 164.384 24.5028C165.088 24.8228 165.672 25.2708 166.136 25.8468C166.6 26.4068 166.944 27.0628 167.168 27.8148C167.408 28.5668 167.528 29.3748 167.528 30.2388V31.2228H158.96V31.6308C158.96 32.5908 159.24 33.3828 159.8 34.0068C160.376 34.6148 161.192 34.9188 162.248 34.9188C163.016 34.9188 163.664 34.7508 164.192 34.4148C164.72 34.0788 165.168 33.6228 165.536 33.0468L167.072 34.5588C166.608 35.3268 165.936 35.9428 165.056 36.4068C164.176 36.8548 163.152 37.0788 161.984 37.0788ZM161.984 26.0628C161.536 26.0628 161.12 26.1428 160.736 26.3028C160.368 26.4628 160.048 26.6868 159.776 26.9748C159.52 27.2628 159.32 27.6068 159.176 28.0068C159.032 28.4068 158.96 28.8468 158.96 29.3268V29.4948H164.768V29.2548C164.768 28.2948 164.52 27.5268 164.024 26.9508C163.528 26.3588 162.848 26.0628 161.984 26.0628ZM178.592 36.7908C177.68 36.7908 176.992 36.5588 176.528 36.0948C176.064 35.6148 175.832 34.9428 175.832 34.0788V26.4468H173.888V24.3108H174.944C175.376 24.3108 175.672 24.2148 175.832 24.0228C176.008 23.8308 176.096 23.5188 176.096 23.0868V20.9028H178.448V24.3108H181.064V26.4468H178.448V34.6548H180.872V36.7908H178.592ZM188.224 37.0788C187.36 37.0788 186.568 36.9268 185.848 36.6228C185.144 36.3188 184.544 35.8868 184.048 35.3268C183.552 34.7508 183.168 34.0628 182.896 33.2628C182.624 32.4468 182.488 31.5428 182.488 30.5508C182.488 29.5588 182.624 28.6628 182.896 27.8628C183.168 27.0468 183.552 26.3588 184.048 25.7988C184.544 25.2228 185.144 24.7828 185.848 24.4788C186.568 24.1748 187.36 24.0228 188.224 24.0228C189.088 24.0228 189.872 24.1748 190.576 24.4788C191.296 24.7828 191.904 25.2228 192.4 25.7988C192.896 26.3588 193.28 27.0468 193.552 27.8628C193.824 28.6628 193.96 29.5588 193.96 30.5508C193.96 31.5428 193.824 32.4468 193.552 33.2628C193.28 34.0628 192.896 34.7508 192.4 35.3268C191.904 35.8868 191.296 36.3188 190.576 36.6228C189.872 36.9268 189.088 37.0788 188.224 37.0788ZM188.224 34.9188C189.12 34.9188 189.84 34.6468 190.384 34.1028C190.928 33.5428 191.2 32.7108 191.2 31.6068V29.4948C191.2 28.3908 190.928 27.5668 190.384 27.0228C189.84 26.4628 189.12 26.1828 188.224 26.1828C187.328 26.1828 186.608 26.4628 186.064 27.0228C185.52 27.5668 185.248 28.3908 185.248 29.4948V31.6068C185.248 32.7108 185.52 33.5428 186.064 34.1028C186.608 34.6468 187.328 34.9188 188.224 34.9188ZM201.291 37.0788C200.427 37.0788 199.635 36.9268 198.915 36.6228C198.211 36.3188 197.611 35.8868 197.115 35.3268C196.619 34.7508 196.235 34.0628 195.963 33.2628C195.691 32.4468 195.555 31.5428 195.555 30.5508C195.555 29.5588 195.691 28.6628 195.963 27.8628C196.235 27.0468 196.619 26.3588 197.115 25.7988C197.611 25.2228 198.211 24.7828 198.915 24.4788C199.635 24.1748 200.427 24.0228 201.291 24.0228C202.155 24.0228 202.939 24.1748 203.643 24.4788C204.363 24.7828 204.971 25.2228 205.467 25.7988C205.963 26.3588 206.347 27.0468 206.619 27.8628C206.891 28.6628 207.027 29.5588 207.027 30.5508C207.027 31.5428 206.891 32.4468 206.619 33.2628C206.347 34.0628 205.963 34.7508 205.467 35.3268C204.971 35.8868 204.363 36.3188 203.643 36.6228C202.939 36.9268 202.155 37.0788 201.291 37.0788ZM201.291 34.9188C202.187 34.9188 202.907 34.6468 203.451 34.1028C203.995 33.5428 204.267 32.7108 204.267 31.6068V29.4948C204.267 28.3908 203.995 27.5668 203.451 27.0228C202.907 26.4628 202.187 26.1828 201.291 26.1828C200.395 26.1828 199.675 26.4628 199.131 27.0228C198.587 27.5668 198.315 28.3908 198.315 29.4948V31.6068C198.315 32.7108 198.587 33.5428 199.131 34.1028C199.675 34.6468 200.395 34.9188 201.291 34.9188ZM212.126 36.7908C211.23 36.7908 210.558 36.5668 210.11 36.1188C209.678 35.6548 209.462 35.0148 209.462 34.1988V19.0308H212.078V34.6548H213.806V36.7908H212.126ZM219.786 37.0788C218.602 37.0788 217.61 36.8708 216.81 36.4548C216.01 36.0388 215.314 35.4628 214.722 34.7268L216.402 33.1908C216.866 33.7508 217.378 34.1908 217.938 34.5108C218.514 34.8148 219.178 34.9668 219.93 34.9668C220.698 34.9668 221.266 34.8228 221.634 34.5348C222.018 34.2308 222.21 33.8148 222.21 33.2868C222.21 32.8868 222.074 32.5508 221.802 32.2788C221.546 31.9908 221.09 31.8068 220.434 31.7268L219.282 31.5828C218.002 31.4228 216.994 31.0548 216.258 30.4788C215.538 29.8868 215.178 29.0148 215.178 27.8628C215.178 27.2548 215.29 26.7188 215.514 26.2548C215.738 25.7748 216.05 25.3748 216.45 25.0548C216.866 24.7188 217.354 24.4628 217.914 24.2868C218.49 24.1108 219.122 24.0228 219.81 24.0228C220.93 24.0228 221.842 24.1988 222.546 24.5508C223.266 24.9028 223.906 25.3908 224.466 26.0148L222.858 27.5508C222.538 27.1668 222.114 26.8388 221.586 26.5668C221.074 26.2788 220.482 26.1348 219.81 26.1348C219.09 26.1348 218.554 26.2788 218.202 26.5668C217.866 26.8548 217.698 27.2308 217.698 27.6948C217.698 28.1748 217.85 28.5348 218.154 28.7748C218.458 29.0148 218.946 29.1908 219.618 29.3028L220.77 29.4468C222.146 29.6548 223.146 30.0628 223.77 30.6708C224.41 31.2628 224.73 32.0628 224.73 33.0708C224.73 33.6788 224.61 34.2308 224.37 34.7268C224.146 35.2068 223.818 35.6228 223.386 35.9748C222.954 36.3268 222.434 36.5988 221.826 36.7908C221.218 36.9828 220.538 37.0788 219.786 37.0788ZM235.853 36.7908C234.941 36.7908 234.253 36.5588 233.789 36.0948C233.325 35.6148 233.093 34.9428 233.093 34.0788V26.4468H231.149V24.3108H232.205C232.637 24.3108 232.933 24.2148 233.093 24.0228C233.269 23.8308 233.357 23.5188 233.357 23.0868V20.9028H235.709V24.3108H238.325V26.4468H235.709V34.6548H238.133V36.7908H235.853ZM240.682 19.0308H243.298V26.3748H243.418C243.69 25.7028 244.098 25.1428 244.642 24.6948C245.202 24.2468 245.962 24.0228 246.922 24.0228C248.202 24.0228 249.194 24.4468 249.898 25.2948C250.618 26.1268 250.978 27.3188 250.978 28.8708V36.7908H248.362V29.1828C248.362 27.2468 247.578 26.2788 246.01 26.2788C245.674 26.2788 245.338 26.3268 245.002 26.4228C244.682 26.5028 244.394 26.6308 244.138 26.8068C243.882 26.9828 243.674 27.2068 243.514 27.4788C243.37 27.7508 243.298 28.0628 243.298 28.4148V36.7908H240.682V19.0308ZM263.268 36.7908C262.58 36.7908 262.052 36.5988 261.684 36.2148C261.316 35.8148 261.092 35.3108 261.012 34.7028H260.892C260.652 35.4868 260.212 36.0788 259.572 36.4788C258.932 36.8788 258.156 37.0788 257.244 37.0788C255.948 37.0788 254.948 36.7428 254.244 36.0708C253.556 35.3988 253.212 34.4948 253.212 33.3588C253.212 32.1108 253.66 31.1748 254.556 30.5508C255.468 29.9268 256.796 29.6148 258.54 29.6148H260.796V28.5588C260.796 27.7908 260.588 27.1988 260.172 26.7828C259.756 26.3668 259.108 26.1588 258.228 26.1588C257.492 26.1588 256.892 26.3188 256.428 26.6388C255.964 26.9588 255.572 27.3668 255.252 27.8628L253.692 26.4468C254.108 25.7428 254.692 25.1668 255.444 24.7188C256.196 24.2548 257.18 24.0228 258.396 24.0228C260.012 24.0228 261.252 24.3988 262.116 25.1508C262.98 25.9028 263.412 26.9828 263.412 28.3908V34.6548H264.732V36.7908H263.268ZM257.988 35.0868C258.804 35.0868 259.476 34.9108 260.004 34.5588C260.532 34.1908 260.796 33.7028 260.796 33.0948V31.2948H258.588C256.78 31.2948 255.876 31.8548 255.876 32.9748V33.4068C255.876 33.9668 256.06 34.3908 256.428 34.6788C256.812 34.9508 257.332 35.0868 257.988 35.0868ZM270.202 36.7908C269.29 36.7908 268.602 36.5588 268.138 36.0948C267.674 35.6148 267.442 34.9428 267.442 34.0788V26.4468H265.498V24.3108H266.554C266.986 24.3108 267.282 24.2148 267.442 24.0228C267.618 23.8308 267.706 23.5188 267.706 23.0868V20.9028H270.058V24.3108H272.674V26.4468H270.058V34.6548H272.482V36.7908H270.202ZM285.047 37.0788C284.151 37.0788 283.351 36.9268 282.647 36.6228C281.943 36.3188 281.351 35.8868 280.871 35.3268C280.391 34.7508 280.023 34.0628 279.767 33.2628C279.511 32.4468 279.383 31.5428 279.383 30.5508C279.383 29.5588 279.511 28.6628 279.767 27.8628C280.023 27.0468 280.391 26.3588 280.871 25.7988C281.351 25.2228 281.943 24.7828 282.647 24.4788C283.351 24.1748 284.151 24.0228 285.047 24.0228C286.295 24.0228 287.319 24.3028 288.119 24.8628C288.919 25.4228 289.503 26.1668 289.871 27.0948L287.711 28.1028C287.535 27.5268 287.223 27.0708 286.775 26.7348C286.343 26.3828 285.767 26.2068 285.047 26.2068C284.087 26.2068 283.359 26.5108 282.863 27.1188C282.383 27.7108 282.143 28.4868 282.143 29.4468V31.6788C282.143 32.6388 282.383 33.4228 282.863 34.0308C283.359 34.6228 284.087 34.9188 285.047 34.9188C285.815 34.9188 286.423 34.7348 286.871 34.3668C287.335 33.9828 287.703 33.4788 287.975 32.8548L289.967 33.9108C289.551 34.9348 288.927 35.7188 288.095 36.2628C287.263 36.8068 286.247 37.0788 285.047 37.0788ZM301.122 36.7908C300.434 36.7908 299.906 36.5988 299.538 36.2148C299.17 35.8148 298.946 35.3108 298.866 34.7028H298.746C298.506 35.4868 298.066 36.0788 297.426 36.4788C296.786 36.8788 296.01 37.0788 295.098 37.0788C293.802 37.0788 292.802 36.7428 292.098 36.0708C291.41 35.3988 291.066 34.4948 291.066 33.3588C291.066 32.1108 291.514 31.1748 292.41 30.5508C293.322 29.9268 294.65 29.6148 296.394 29.6148H298.65V28.5588C298.65 27.7908 298.442 27.1988 298.026 26.7828C297.61 26.3668 296.962 26.1588 296.082 26.1588C295.346 26.1588 294.746 26.3188 294.282 26.6388C293.818 26.9588 293.426 27.3668 293.106 27.8628L291.546 26.4468C291.962 25.7428 292.546 25.1668 293.298 24.7188C294.05 24.2548 295.034 24.0228 296.25 24.0228C297.866 24.0228 299.106 24.3988 299.97 25.1508C300.834 25.9028 301.266 26.9828 301.266 28.3908V34.6548H302.586V36.7908H301.122ZM295.842 35.0868C296.658 35.0868 297.33 34.9108 297.858 34.5588C298.386 34.1908 298.65 33.7028 298.65 33.0948V31.2948H296.442C294.634 31.2948 293.73 31.8548 293.73 32.9748V33.4068C293.73 33.9668 293.914 34.3908 294.282 34.6788C294.666 34.9508 295.186 35.0868 295.842 35.0868ZM304.67 36.7908V24.3108H307.286V26.3748H307.406C307.678 25.7028 308.086 25.1428 308.63 24.6948C309.19 24.2468 309.95 24.0228 310.91 24.0228C312.19 24.0228 313.182 24.4468 313.886 25.2948C314.606 26.1268 314.966 27.3188 314.966 28.8708V36.7908H312.35V29.2068C312.35 27.2548 311.566 26.2788 309.998 26.2788C309.662 26.2788 309.326 26.3268 308.99 26.4228C308.67 26.5028 308.382 26.6308 308.126 26.8068C307.87 26.9828 307.662 27.2068 307.502 27.4788C307.358 27.7508 307.286 28.0708 307.286 28.4388V36.7908H304.67ZM319.391 18.7908C319.999 18.7908 320.439 18.9348 320.711 19.2228C320.983 19.5108 321.119 19.8868 321.119 20.3508V20.7588C321.119 21.1428 321.063 21.5428 320.951 21.9588C320.839 22.3588 320.679 22.7588 320.471 23.1588C320.263 23.5588 320.015 23.9428 319.727 24.3108C319.439 24.6788 319.119 25.0068 318.767 25.2948H316.895C317.407 24.7988 317.823 24.3108 318.143 23.8308C318.463 23.3508 318.711 22.8308 318.887 22.2708C318.471 22.1908 318.159 22.0148 317.951 21.7428C317.759 21.4708 317.663 21.1508 317.663 20.7828V20.3508C317.663 19.8868 317.799 19.5108 318.071 19.2228C318.343 18.9348 318.783 18.7908 319.391 18.7908ZM327.486 36.7908C326.574 36.7908 325.886 36.5588 325.422 36.0948C324.958 35.6148 324.726 34.9428 324.726 34.0788V26.4468H322.782V24.3108H323.838C324.27 24.3108 324.566 24.2148 324.726 24.0228C324.902 23.8308 324.99 23.5188 324.99 23.0868V20.9028H327.342V24.3108H329.958V26.4468H327.342V34.6548H329.766V36.7908H327.486ZM150.562 50.0308H153.178V57.3748H153.298C153.57 56.6228 154.01 56.0468 154.618 55.6468C155.242 55.2308 155.97 55.0228 156.802 55.0228C158.386 55.0228 159.61 55.5988 160.474 56.7508C161.338 57.8868 161.77 59.4868 161.77 61.5508C161.77 63.6148 161.338 65.2228 160.474 66.3748C159.61 67.5108 158.386 68.0788 156.802 68.0788C155.97 68.0788 155.242 67.8708 154.618 67.4548C154.01 67.0388 153.57 66.4628 153.298 65.7268H153.178V67.7908H150.562V50.0308ZM156.01 65.8228C156.922 65.8228 157.65 65.5348 158.194 64.9588C158.738 64.3668 159.01 63.5908 159.01 62.6308V60.4708C159.01 59.5108 158.738 58.7428 158.194 58.1668C157.65 57.5748 156.922 57.2788 156.01 57.2788C155.21 57.2788 154.538 57.4788 153.994 57.8788C153.45 58.2628 153.178 58.7748 153.178 59.4148V63.6868C153.178 64.3268 153.45 64.8468 153.994 65.2468C154.538 65.6308 155.21 65.8228 156.01 65.8228ZM169.181 68.0788C168.285 68.0788 167.485 67.9268 166.781 67.6228C166.077 67.3188 165.477 66.8868 164.981 66.3268C164.485 65.7508 164.101 65.0628 163.829 64.2628C163.573 63.4468 163.445 62.5428 163.445 61.5508C163.445 60.5588 163.573 59.6628 163.829 58.8628C164.101 58.0468 164.485 57.3588 164.981 56.7988C165.477 56.2228 166.077 55.7828 166.781 55.4788C167.485 55.1748 168.285 55.0228 169.181 55.0228C170.093 55.0228 170.893 55.1828 171.581 55.5028C172.285 55.8228 172.869 56.2708 173.333 56.8468C173.797 57.4068 174.141 58.0628 174.365 58.8148C174.605 59.5668 174.725 60.3748 174.725 61.2388V62.2228H166.157V62.6308C166.157 63.5908 166.437 64.3828 166.997 65.0068C167.573 65.6148 168.389 65.9188 169.445 65.9188C170.213 65.9188 170.861 65.7508 171.389 65.4148C171.917 65.0788 172.365 64.6228 172.733 64.0468L174.269 65.5588C173.805 66.3268 173.133 66.9428 172.253 67.4068C171.373 67.8548 170.349 68.0788 169.181 68.0788ZM169.181 57.0628C168.733 57.0628 168.317 57.1428 167.933 57.3028C167.565 57.4628 167.245 57.6868 166.973 57.9748C166.717 58.2628 166.517 58.6068 166.373 59.0068C166.229 59.4068 166.157 59.8468 166.157 60.3268V60.4948H171.965V60.2548C171.965 59.2948 171.717 58.5268 171.221 57.9508C170.725 57.3588 170.045 57.0628 169.181 57.0628ZM182.332 50.0308H184.948V57.3748H185.068C185.34 56.6228 185.78 56.0468 186.388 55.6468C187.012 55.2308 187.74 55.0228 188.572 55.0228C190.156 55.0228 191.38 55.5988 192.244 56.7508C193.108 57.8868 193.54 59.4868 193.54 61.5508C193.54 63.6148 193.108 65.2228 192.244 66.3748C191.38 67.5108 190.156 68.0788 188.572 68.0788C187.74 68.0788 187.012 67.8708 186.388 67.4548C185.78 67.0388 185.34 66.4628 185.068 65.7268H184.948V67.7908H182.332V50.0308ZM187.78 65.8228C188.692 65.8228 189.42 65.5348 189.964 64.9588C190.508 64.3668 190.78 63.5908 190.78 62.6308V60.4708C190.78 59.5108 190.508 58.7428 189.964 58.1668C189.42 57.5748 188.692 57.2788 187.78 57.2788C186.98 57.2788 186.308 57.4788 185.764 57.8788C185.22 58.2628 184.948 58.7748 184.948 59.4148V63.6868C184.948 64.3268 185.22 64.8468 185.764 65.2468C186.308 65.6308 186.98 65.8228 187.78 65.8228ZM200.952 68.0788C200.088 68.0788 199.296 67.9268 198.576 67.6228C197.872 67.3188 197.272 66.8868 196.776 66.3268C196.28 65.7508 195.896 65.0628 195.624 64.2628C195.352 63.4468 195.216 62.5428 195.216 61.5508C195.216 60.5588 195.352 59.6628 195.624 58.8628C195.896 58.0468 196.28 57.3588 196.776 56.7988C197.272 56.2228 197.872 55.7828 198.576 55.4788C199.296 55.1748 200.088 55.0228 200.952 55.0228C201.816 55.0228 202.6 55.1748 203.304 55.4788C204.024 55.7828 204.632 56.2228 205.128 56.7988C205.624 57.3588 206.008 58.0468 206.28 58.8628C206.552 59.6628 206.688 60.5588 206.688 61.5508C206.688 62.5428 206.552 63.4468 206.28 64.2628C206.008 65.0628 205.624 65.7508 205.128 66.3268C204.632 66.8868 204.024 67.3188 203.304 67.6228C202.6 67.9268 201.816 68.0788 200.952 68.0788ZM200.952 65.9188C201.848 65.9188 202.568 65.6468 203.112 65.1028C203.656 64.5428 203.928 63.7108 203.928 62.6068V60.4948C203.928 59.3908 203.656 58.5668 203.112 58.0228C202.568 57.4628 201.848 57.1828 200.952 57.1828C200.056 57.1828 199.336 57.4628 198.792 58.0228C198.248 58.5668 197.976 59.3908 197.976 60.4948V62.6068C197.976 63.7108 198.248 64.5428 198.792 65.1028C199.336 65.6468 200.056 65.9188 200.952 65.9188ZM216.682 65.7268H216.586C216.474 66.0308 216.322 66.3268 216.13 66.6148C215.954 66.9028 215.722 67.1588 215.434 67.3828C215.162 67.5908 214.826 67.7588 214.426 67.8868C214.042 68.0148 213.594 68.0788 213.082 68.0788C211.786 68.0788 210.778 67.6628 210.058 66.8308C209.354 65.9988 209.002 64.8068 209.002 63.2548V55.3108H211.618V62.9188C211.618 64.8548 212.418 65.8228 214.018 65.8228C214.354 65.8228 214.682 65.7828 215.002 65.7028C215.322 65.6068 215.602 65.4708 215.842 65.2948C216.098 65.1188 216.298 64.8948 216.442 64.6228C216.602 64.3508 216.682 64.0308 216.682 63.6628V55.3108H219.298V67.7908H216.682V65.7268ZM233.508 68.9668C233.508 70.2628 233.012 71.2388 232.02 71.8948C231.028 72.5508 229.412 72.8788 227.172 72.8788C226.148 72.8788 225.276 72.8068 224.556 72.6628C223.852 72.5348 223.268 72.3428 222.804 72.0868C222.356 71.8308 222.028 71.5188 221.82 71.1508C221.612 70.7828 221.508 70.3588 221.508 69.8788C221.508 69.1908 221.692 68.6548 222.06 68.2708C222.444 67.8868 222.972 67.6228 223.644 67.4788V67.2148C222.7 66.9108 222.228 66.2708 222.228 65.2948C222.228 64.6548 222.444 64.1668 222.876 63.8308C223.308 63.4788 223.828 63.2308 224.436 63.0868V62.9908C223.7 62.6388 223.132 62.1508 222.732 61.5268C222.348 60.8868 222.156 60.1428 222.156 59.2948C222.156 58.0148 222.58 56.9828 223.428 56.1988C224.292 55.4148 225.524 55.0228 227.124 55.0228C228.004 55.0228 228.756 55.1508 229.38 55.4068V55.0708C229.38 54.5108 229.508 54.0788 229.764 53.7748C230.036 53.4548 230.452 53.2948 231.012 53.2948H232.932V55.4068H230.388V55.9108C230.948 56.2788 231.38 56.7588 231.684 57.3508C231.988 57.9268 232.14 58.5748 232.14 59.2948C232.14 60.5588 231.708 61.5828 230.844 62.3668C229.98 63.1348 228.748 63.5188 227.148 63.5188C226.54 63.5188 225.996 63.4548 225.516 63.3268C225.196 63.4388 224.916 63.5988 224.676 63.8068C224.436 63.9988 224.316 64.2548 224.316 64.5748C224.316 64.9108 224.468 65.1508 224.772 65.2948C225.076 65.4388 225.508 65.5108 226.068 65.5108H229.14C230.676 65.5108 231.788 65.8228 232.476 66.4468C233.164 67.0548 233.508 67.8948 233.508 68.9668ZM231.06 69.2548C231.06 68.8228 230.892 68.4788 230.556 68.2228C230.236 67.9668 229.644 67.8388 228.78 67.8388H224.556C223.98 68.1748 223.692 68.6548 223.692 69.2788C223.692 69.7908 223.892 70.1988 224.292 70.5028C224.708 70.8228 225.404 70.9828 226.38 70.9828H228.012C230.044 70.9828 231.06 70.4068 231.06 69.2548ZM227.148 61.6228C227.916 61.6228 228.508 61.4548 228.924 61.1188C229.356 60.7668 229.572 60.2308 229.572 59.5108V59.0308C229.572 58.3108 229.356 57.7828 228.924 57.4468C228.508 57.0948 227.916 56.9188 227.148 56.9188C226.38 56.9188 225.78 57.0948 225.348 57.4468C224.932 57.7828 224.724 58.3108 224.724 59.0308V59.5108C224.724 60.2308 224.932 60.7668 225.348 61.1188C225.78 61.4548 226.38 61.6228 227.148 61.6228ZM234.975 50.0308H237.591V57.3748H237.711C237.983 56.7028 238.391 56.1428 238.935 55.6948C239.495 55.2468 240.255 55.0228 241.215 55.0228C242.495 55.0228 243.487 55.4468 244.191 56.2948C244.911 57.1268 245.271 58.3188 245.271 59.8708V67.7908H242.655V60.1828C242.655 58.2468 241.871 57.2788 240.303 57.2788C239.967 57.2788 239.631 57.3268 239.295 57.4228C238.975 57.5028 238.687 57.6308 238.431 57.8068C238.175 57.9828 237.967 58.2068 237.807 58.4788C237.663 58.7508 237.591 59.0628 237.591 59.4148V67.7908H234.975V50.0308ZM251.873 67.7908C250.961 67.7908 250.273 67.5588 249.809 67.0948C249.345 66.6148 249.113 65.9428 249.113 65.0788V57.4468H247.169V55.3108H248.225C248.657 55.3108 248.953 55.2148 249.113 55.0228C249.289 54.8308 249.377 54.5188 249.377 54.0868V51.9028H251.729V55.3108H254.345V57.4468H251.729V65.6548H254.153V67.7908H251.873Z" fill="url(#paint0_linear_2090_262343)"/>
<defs>
<linearGradient id="paint0_linear_2090_262343" x1="41.976" y1="-28.5092" x2="321.367" y2="99.5784" gradientUnits="userSpaceOnUse">
<stop stop-color="#FF5F6D"/>
<stop offset="1" stop-color="#FFC371"/>
</linearGradient>
</defs>
</svg>