<svg xmlns="http://www.w3.org/2000/svg" width="247" height="55" viewBox="0 0 247 55" fill="none">
<path d="M0.492223 2.03902H7.90822C9.30022 2.03902 10.3882 2.43102 11.1722 3.21501C11.9722 3.99901 12.3722 5.04702 12.3722 6.35902C12.3722 6.98302 12.2842 7.51901 12.1082 7.96701C11.9322 8.39901 11.7082 8.75902 11.4362 9.04702C11.1642 9.31902 10.8522 9.52701 10.5002 9.67102C10.1482 9.79902 9.80422 9.87902 9.46822 9.91102V10.055C9.80422 10.071 10.1722 10.151 10.5722 10.295C10.9882 10.439 11.3722 10.671 11.7242 10.991C12.0762 11.295 12.3722 11.695 12.6122 12.191C12.8522 12.671 12.9722 13.263 12.9722 13.967C12.9722 14.639 12.8602 15.271 12.6362 15.863C12.4282 16.455 12.1322 16.967 11.7482 17.399C11.3642 17.831 10.9082 18.175 10.3802 18.431C9.85222 18.671 9.27622 18.791 8.65222 18.791H0.492223V2.03902ZM3.20422 16.463H7.86022C8.56422 16.463 9.11622 16.279 9.51622 15.911C9.91622 15.543 10.1162 15.015 10.1162 14.327V13.511C10.1162 12.823 9.91622 12.295 9.51622 11.927C9.11622 11.559 8.56422 11.375 7.86022 11.375H3.20422V16.463ZM3.20422 9.11901H7.40422C8.07622 9.11901 8.59622 8.95101 8.96422 8.61502C9.33222 8.26302 9.51622 7.76702 9.51622 7.12701V6.35902C9.51622 5.71902 9.33222 5.23101 8.96422 4.89501C8.59622 4.54302 8.07622 4.36702 7.40422 4.36702H3.20422V9.11901ZM23.2005 16.727H23.1045C22.9925 17.031 22.8405 17.327 22.6485 17.615C22.4725 17.903 22.2405 18.159 21.9525 18.383C21.6805 18.591 21.3445 18.759 20.9445 18.887C20.5605 19.015 20.1125 19.079 19.6005 19.079C18.3045 19.079 17.2965 18.663 16.5765 17.831C15.8725 16.999 15.5205 15.807 15.5205 14.255V6.31101H18.1365V13.919C18.1365 15.855 18.9365 16.823 20.5365 16.823C20.8725 16.823 21.2005 16.783 21.5205 16.703C21.8405 16.607 22.1205 16.471 22.3605 16.295C22.6165 16.119 22.8165 15.895 22.9605 15.623C23.1205 15.351 23.2005 15.031 23.2005 14.663V6.31101H25.8165V18.791H23.2005V16.727ZM30.4024 4.07901C29.8584 4.07901 29.4584 3.95101 29.2024 3.69502C28.9624 3.43901 28.8424 3.11101 28.8424 2.71102V2.30301C28.8424 1.90302 28.9624 1.57502 29.2024 1.31901C29.4584 1.06301 29.8584 0.935015 30.4024 0.935015C30.9464 0.935015 31.3384 1.06301 31.5784 1.31901C31.8184 1.57502 31.9384 1.90302 31.9384 2.30301V2.71102C31.9384 3.11101 31.8184 3.43901 31.5784 3.69502C31.3384 3.95101 30.9464 4.07901 30.4024 4.07901ZM29.0824 6.31101H31.6984V18.791H29.0824V6.31101ZM37.618 18.791C36.722 18.791 36.05 18.567 35.602 18.119C35.17 17.655 34.954 17.015 34.954 16.199V1.03102H37.57V16.655H39.298V18.791H37.618ZM49.1657 16.727H49.0457C48.7737 17.463 48.3257 18.039 47.7017 18.455C47.0937 18.871 46.3737 19.079 45.5417 19.079C43.9577 19.079 42.7337 18.511 41.8697 17.375C41.0057 16.223 40.5737 14.615 40.5737 12.551C40.5737 10.487 41.0057 8.88702 41.8697 7.75102C42.7337 6.59902 43.9577 6.02302 45.5417 6.02302C46.3737 6.02302 47.0937 6.23102 47.7017 6.64701C48.3257 7.04701 48.7737 7.62301 49.0457 8.37502H49.1657V1.03102H51.7817V18.791H49.1657V16.727ZM46.3337 16.823C47.1337 16.823 47.8057 16.631 48.3497 16.247C48.8937 15.847 49.1657 15.327 49.1657 14.687V10.415C49.1657 9.77502 48.8937 9.26302 48.3497 8.87902C47.8057 8.47902 47.1337 8.27902 46.3337 8.27902C45.4217 8.27902 44.6937 8.57502 44.1497 9.16702C43.6057 9.74302 43.3337 10.511 43.3337 11.471V13.631C43.3337 14.591 43.6057 15.367 44.1497 15.959C44.6937 16.535 45.4217 16.823 46.3337 16.823ZM63.6887 18.791C62.7767 18.791 62.0887 18.559 61.6247 18.095C61.1607 17.615 60.9287 16.943 60.9287 16.079V8.44702H58.9847V6.31101H60.0407C60.4727 6.31101 60.7687 6.21501 60.9287 6.02302C61.1047 5.83102 61.1927 5.51901 61.1927 5.08701V2.90301H63.5447V6.31101H66.1607V8.44702H63.5447V16.655H65.9687V18.791H63.6887ZM73.3206 19.079C72.4566 19.079 71.6646 18.927 70.9446 18.623C70.2406 18.319 69.6406 17.887 69.1446 17.327C68.6486 16.751 68.2646 16.063 67.9926 15.263C67.7206 14.447 67.5846 13.543 67.5846 12.551C67.5846 11.559 67.7206 10.663 67.9926 9.86302C68.2646 9.04702 68.6486 8.35902 69.1446 7.79901C69.6406 7.22302 70.2406 6.78302 70.9446 6.47902C71.6646 6.17502 72.4566 6.02302 73.3206 6.02302C74.1846 6.02302 74.9686 6.17502 75.6726 6.47902C76.3926 6.78302 77.0006 7.22302 77.4966 7.79901C77.9926 8.35902 78.3766 9.04702 78.6486 9.86302C78.9206 10.663 79.0566 11.559 79.0566 12.551C79.0566 13.543 78.9206 14.447 78.6486 15.263C78.3766 16.063 77.9926 16.751 77.4966 17.327C77.0006 17.887 76.3926 18.319 75.6726 18.623C74.9686 18.927 74.1846 19.079 73.3206 19.079ZM73.3206 16.919C74.2166 16.919 74.9366 16.647 75.4806 16.103C76.0246 15.543 76.2966 14.711 76.2966 13.607V11.495C76.2966 10.391 76.0246 9.56702 75.4806 9.02302C74.9366 8.46302 74.2166 8.18301 73.3206 8.18301C72.4246 8.18301 71.7046 8.46302 71.1606 9.02302C70.6166 9.56702 70.3446 10.391 70.3446 11.495V13.607C70.3446 14.711 70.6166 15.543 71.1606 16.103C71.7046 16.647 72.4246 16.919 73.3206 16.919ZM86.3875 19.079C85.5235 19.079 84.7315 18.927 84.0115 18.623C83.3075 18.319 82.7075 17.887 82.2115 17.327C81.7155 16.751 81.3315 16.063 81.0595 15.263C80.7875 14.447 80.6515 13.543 80.6515 12.551C80.6515 11.559 80.7875 10.663 81.0595 9.86302C81.3315 9.04702 81.7155 8.35902 82.2115 7.79901C82.7075 7.22302 83.3075 6.78302 84.0115 6.47902C84.7315 6.17502 85.5235 6.02302 86.3875 6.02302C87.2515 6.02302 88.0355 6.17502 88.7395 6.47902C89.4595 6.78302 90.0675 7.22302 90.5635 7.79901C91.0595 8.35902 91.4435 9.04702 91.7155 9.86302C91.9875 10.663 92.1235 11.559 92.1235 12.551C92.1235 13.543 91.9875 14.447 91.7155 15.263C91.4435 16.063 91.0595 16.751 90.5635 17.327C90.0675 17.887 89.4595 18.319 88.7395 18.623C88.0355 18.927 87.2515 19.079 86.3875 19.079ZM86.3875 16.919C87.2835 16.919 88.0035 16.647 88.5475 16.103C89.0915 15.543 89.3635 14.711 89.3635 13.607V11.495C89.3635 10.391 89.0915 9.56702 88.5475 9.02302C88.0035 8.46302 87.2835 8.18301 86.3875 8.18301C85.4915 8.18301 84.7715 8.46302 84.2275 9.02302C83.6835 9.56702 83.4115 10.391 83.4115 11.495V13.607C83.4115 14.711 83.6835 15.543 84.2275 16.103C84.7715 16.647 85.4915 16.919 86.3875 16.919ZM97.2223 18.791C96.3263 18.791 95.6543 18.567 95.2063 18.119C94.7743 17.655 94.5583 17.015 94.5583 16.199V1.03102H97.1743V16.655H98.9023V18.791H97.2223ZM104.882 19.079C103.698 19.079 102.706 18.871 101.906 18.455C101.106 18.039 100.41 17.463 99.8181 16.727L101.498 15.191C101.962 15.751 102.474 16.191 103.034 16.511C103.61 16.815 104.274 16.967 105.026 16.967C105.794 16.967 106.362 16.823 106.73 16.535C107.114 16.231 107.306 15.815 107.306 15.287C107.306 14.887 107.17 14.551 106.898 14.279C106.642 13.991 106.186 13.807 105.53 13.727L104.378 13.583C103.098 13.423 102.09 13.055 101.354 12.479C100.634 11.887 100.274 11.015 100.274 9.86302C100.274 9.25502 100.386 8.71902 100.61 8.25502C100.834 7.77502 101.146 7.37502 101.546 7.05502C101.962 6.71901 102.45 6.46301 103.01 6.28701C103.586 6.11102 104.218 6.02302 104.906 6.02302C106.026 6.02302 106.938 6.19902 107.642 6.55101C108.362 6.90301 109.002 7.39101 109.562 8.01501L107.954 9.55102C107.634 9.16702 107.21 8.83902 106.682 8.56701C106.17 8.27901 105.578 8.13501 104.906 8.13501C104.186 8.13501 103.65 8.27901 103.298 8.56701C102.962 8.85502 102.794 9.23102 102.794 9.69502C102.794 10.175 102.946 10.535 103.25 10.775C103.554 11.015 104.042 11.191 104.714 11.303L105.866 11.447C107.242 11.655 108.242 12.063 108.866 12.671C109.506 13.263 109.826 14.063 109.826 15.071C109.826 15.679 109.706 16.231 109.466 16.727C109.242 17.207 108.914 17.623 108.482 17.975C108.05 18.327 107.53 18.599 106.922 18.791C106.314 18.983 105.634 19.079 104.882 19.079ZM120.949 18.791C120.037 18.791 119.349 18.559 118.885 18.095C118.421 17.615 118.189 16.943 118.189 16.079V8.44702H116.245V6.31101H117.301C117.733 6.31101 118.029 6.21501 118.189 6.02302C118.365 5.83102 118.453 5.51901 118.453 5.08701V2.90301H120.805V6.31101H123.421V8.44702H120.805V16.655H123.229V18.791H120.949ZM125.779 1.03102H128.395V8.37502H128.515C128.787 7.70302 129.195 7.14302 129.739 6.69502C130.299 6.24702 131.059 6.02302 132.019 6.02302C133.299 6.02302 134.291 6.44702 134.995 7.29501C135.715 8.12702 136.075 9.31902 136.075 10.871V18.791H133.459V11.183C133.459 9.24702 132.675 8.27902 131.107 8.27902C130.771 8.27902 130.435 8.32702 130.099 8.42302C129.779 8.50302 129.491 8.63102 129.235 8.80702C128.979 8.98302 128.771 9.20702 128.611 9.47902C128.467 9.75102 128.395 10.063 128.395 10.415V18.791H125.779V1.03102ZM148.365 18.791C147.677 18.791 147.149 18.599 146.781 18.215C146.413 17.815 146.189 17.311 146.109 16.703H145.989C145.749 17.487 145.309 18.079 144.669 18.479C144.029 18.879 143.253 19.079 142.341 19.079C141.045 19.079 140.045 18.743 139.341 18.071C138.653 17.399 138.309 16.495 138.309 15.359C138.309 14.111 138.757 13.175 139.653 12.551C140.565 11.927 141.893 11.615 143.637 11.615H145.893V10.559C145.893 9.79101 145.685 9.19901 145.269 8.78302C144.853 8.36702 144.205 8.15902 143.325 8.15902C142.589 8.15902 141.989 8.31902 141.525 8.63902C141.061 8.95902 140.669 9.36702 140.349 9.86302L138.789 8.44702C139.205 7.74302 139.789 7.16702 140.541 6.71902C141.293 6.25502 142.277 6.02302 143.493 6.02302C145.109 6.02302 146.349 6.39902 147.213 7.15102C148.077 7.90302 148.509 8.98302 148.509 10.391V16.655H149.829V18.791H148.365ZM143.085 17.087C143.901 17.087 144.573 16.911 145.101 16.559C145.629 16.191 145.893 15.703 145.893 15.095V13.295H143.685C141.877 13.295 140.973 13.855 140.973 14.975V15.407C140.973 15.967 141.157 16.391 141.525 16.679C141.909 16.951 142.429 17.087 143.085 17.087ZM155.298 18.791C154.386 18.791 153.698 18.559 153.234 18.095C152.77 17.615 152.538 16.943 152.538 16.079V8.44702H150.594V6.31101H151.65C152.082 6.31101 152.378 6.21501 152.538 6.02302C152.714 5.83102 152.802 5.51901 152.802 5.08701V2.90301H155.154V6.31101H157.77V8.44702H155.154V16.655H157.578V18.791H155.298ZM170.144 19.079C169.248 19.079 168.448 18.927 167.744 18.623C167.04 18.319 166.448 17.887 165.968 17.327C165.488 16.751 165.12 16.063 164.864 15.263C164.608 14.447 164.48 13.543 164.48 12.551C164.48 11.559 164.608 10.663 164.864 9.86302C165.12 9.04702 165.488 8.35902 165.968 7.79901C166.448 7.22302 167.04 6.78302 167.744 6.47902C168.448 6.17502 169.248 6.02302 170.144 6.02302C171.392 6.02302 172.416 6.30302 173.216 6.86302C174.016 7.42302 174.6 8.16702 174.968 9.09502L172.808 10.103C172.632 9.52701 172.32 9.07101 171.872 8.73501C171.44 8.38302 170.864 8.20702 170.144 8.20702C169.184 8.20702 168.456 8.51102 167.96 9.11901C167.48 9.71101 167.24 10.487 167.24 11.447V13.679C167.24 14.639 167.48 15.423 167.96 16.031C168.456 16.623 169.184 16.919 170.144 16.919C170.912 16.919 171.52 16.735 171.968 16.367C172.432 15.983 172.8 15.479 173.072 14.855L175.064 15.911C174.648 16.935 174.024 17.719 173.192 18.263C172.36 18.807 171.344 19.079 170.144 19.079ZM186.218 18.791C185.53 18.791 185.002 18.599 184.634 18.215C184.266 17.815 184.042 17.311 183.962 16.703H183.842C183.602 17.487 183.162 18.079 182.522 18.479C181.882 18.879 181.106 19.079 180.194 19.079C178.898 19.079 177.898 18.743 177.194 18.071C176.506 17.399 176.162 16.495 176.162 15.359C176.162 14.111 176.61 13.175 177.506 12.551C178.418 11.927 179.746 11.615 181.49 11.615H183.746V10.559C183.746 9.79101 183.538 9.19901 183.122 8.78302C182.706 8.36702 182.058 8.15902 181.178 8.15902C180.442 8.15902 179.842 8.31902 179.378 8.63902C178.914 8.95902 178.522 9.36702 178.202 9.86302L176.642 8.44702C177.058 7.74302 177.642 7.16702 178.394 6.71902C179.146 6.25502 180.13 6.02302 181.346 6.02302C182.962 6.02302 184.202 6.39902 185.066 7.15102C185.93 7.90302 186.362 8.98302 186.362 10.391V16.655H187.682V18.791H186.218ZM180.938 17.087C181.754 17.087 182.426 16.911 182.954 16.559C183.482 16.191 183.746 15.703 183.746 15.095V13.295H181.538C179.73 13.295 178.826 13.855 178.826 14.975V15.407C178.826 15.967 179.01 16.391 179.378 16.679C179.762 16.951 180.282 17.087 180.938 17.087ZM189.766 18.791V6.31101H192.382V8.37502H192.502C192.774 7.70302 193.182 7.14302 193.726 6.69502C194.286 6.24702 195.046 6.02302 196.006 6.02302C197.286 6.02302 198.278 6.44702 198.982 7.29501C199.702 8.12702 200.062 9.31902 200.062 10.871V18.791H197.446V11.207C197.446 9.25502 196.662 8.27902 195.094 8.27902C194.758 8.27902 194.422 8.32702 194.086 8.42302C193.766 8.50302 193.478 8.63102 193.222 8.80702C192.966 8.98302 192.758 9.20702 192.598 9.47902C192.454 9.75102 192.382 10.071 192.382 10.439V18.791H189.766ZM204.488 0.791014C205.096 0.791014 205.536 0.935014 205.808 1.22301C206.08 1.51101 206.216 1.88701 206.216 2.35101V2.75901C206.216 3.14301 206.16 3.54301 206.048 3.95901C205.936 4.35901 205.776 4.75901 205.568 5.15902C205.36 5.55901 205.112 5.94301 204.824 6.31101C204.536 6.67902 204.216 7.00702 203.864 7.29501H201.992C202.504 6.79901 202.92 6.31101 203.24 5.83102C203.56 5.35101 203.808 4.83101 203.984 4.27102C203.568 4.19102 203.256 4.01502 203.048 3.74301C202.856 3.47101 202.76 3.15101 202.76 2.78301V2.35101C202.76 1.88701 202.896 1.51101 203.168 1.22301C203.44 0.935014 203.88 0.791014 204.488 0.791014ZM212.582 18.791C211.67 18.791 210.982 18.559 210.518 18.095C210.054 17.615 209.822 16.943 209.822 16.079V8.44702H207.878V6.31101H208.934C209.366 6.31101 209.662 6.21501 209.822 6.02302C209.998 5.83102 210.086 5.51901 210.086 5.08701V2.90301H212.438V6.31101H215.054V8.44702H212.438V16.655H214.862V18.791H212.582ZM222.604 1.03102H225.22V8.37502H225.34C225.612 7.62301 226.052 7.04701 226.66 6.64701C227.284 6.23102 228.012 6.02302 228.844 6.02302C230.428 6.02302 231.652 6.59902 232.516 7.75102C233.38 8.88702 233.812 10.487 233.812 12.551C233.812 14.615 233.38 16.223 232.516 17.375C231.652 18.511 230.428 19.079 228.844 19.079C228.012 19.079 227.284 18.871 226.66 18.455C226.052 18.039 225.612 17.463 225.34 16.727H225.22V18.791H222.604V1.03102ZM228.052 16.823C228.964 16.823 229.692 16.535 230.236 15.959C230.78 15.367 231.052 14.591 231.052 13.631V11.471C231.052 10.511 230.78 9.74302 230.236 9.16702C229.692 8.57502 228.964 8.27902 228.052 8.27902C227.252 8.27902 226.58 8.47902 226.036 8.87902C225.492 9.26302 225.22 9.77502 225.22 10.415V14.687C225.22 15.327 225.492 15.847 226.036 16.247C226.58 16.631 227.252 16.823 228.052 16.823ZM241.223 19.079C240.327 19.079 239.527 18.927 238.823 18.623C238.119 18.319 237.519 17.887 237.023 17.327C236.527 16.751 236.143 16.063 235.871 15.263C235.615 14.447 235.487 13.543 235.487 12.551C235.487 11.559 235.615 10.663 235.871 9.86302C236.143 9.04702 236.527 8.35902 237.023 7.79901C237.519 7.22302 238.119 6.78302 238.823 6.47902C239.527 6.17502 240.327 6.02302 241.223 6.02302C242.135 6.02302 242.935 6.18302 243.623 6.50302C244.327 6.82302 244.911 7.27102 245.375 7.84701C245.839 8.40701 246.183 9.06301 246.407 9.81502C246.647 10.567 246.767 11.375 246.767 12.239V13.223H238.199V13.631C238.199 14.591 238.479 15.383 239.039 16.007C239.615 16.615 240.431 16.919 241.487 16.919C242.255 16.919 242.903 16.751 243.431 16.415C243.959 16.079 244.407 15.623 244.775 15.047L246.311 16.559C245.847 17.327 245.175 17.943 244.295 18.407C243.415 18.855 242.391 19.079 241.223 19.079ZM241.223 8.06301C240.775 8.06301 240.359 8.14302 239.975 8.30302C239.607 8.46302 239.287 8.68702 239.015 8.97502C238.759 9.26302 238.559 9.60701 238.415 10.007C238.271 10.407 238.199 10.847 238.199 11.327V11.495H244.007V11.255C244.007 10.295 243.759 9.52702 243.263 8.95101C242.767 8.35901 242.087 8.06301 241.223 8.06301ZM87.3166 32.031H89.9326V39.375H90.0526C90.3246 38.623 90.7646 38.047 91.3726 37.647C91.9966 37.231 92.7246 37.023 93.5566 37.023C95.1406 37.023 96.3646 37.599 97.2286 38.751C98.0926 39.887 98.5246 41.487 98.5246 43.551C98.5246 45.615 98.0926 47.223 97.2286 48.375C96.3646 49.511 95.1406 50.079 93.5566 50.079C92.7246 50.079 91.9966 49.871 91.3726 49.455C90.7646 49.039 90.3246 48.463 90.0526 47.727H89.9326V49.791H87.3166V32.031ZM92.7646 47.823C93.6766 47.823 94.4046 47.535 94.9486 46.959C95.4926 46.367 95.7646 45.591 95.7646 44.631V42.471C95.7646 41.511 95.4926 40.743 94.9486 40.167C94.4046 39.575 93.6766 39.279 92.7646 39.279C91.9646 39.279 91.2926 39.479 90.7486 39.879C90.2046 40.263 89.9326 40.775 89.9326 41.415V45.687C89.9326 46.327 90.2046 46.847 90.7486 47.247C91.2926 47.631 91.9646 47.823 92.7646 47.823ZM105.936 50.079C105.072 50.079 104.28 49.927 103.56 49.623C102.856 49.319 102.256 48.887 101.76 48.327C101.264 47.751 100.88 47.063 100.608 46.263C100.336 45.447 100.2 44.543 100.2 43.551C100.2 42.559 100.336 41.663 100.608 40.863C100.88 40.047 101.264 39.359 101.76 38.799C102.256 38.223 102.856 37.783 103.56 37.479C104.28 37.175 105.072 37.023 105.936 37.023C106.8 37.023 107.584 37.175 108.288 37.479C109.008 37.783 109.616 38.223 110.112 38.799C110.608 39.359 110.992 40.047 111.264 40.863C111.536 41.663 111.672 42.559 111.672 43.551C111.672 44.543 111.536 45.447 111.264 46.263C110.992 47.063 110.608 47.751 110.112 48.327C109.616 48.887 109.008 49.319 108.288 49.623C107.584 49.927 106.8 50.079 105.936 50.079ZM105.936 47.919C106.832 47.919 107.552 47.647 108.096 47.103C108.64 46.543 108.912 45.711 108.912 44.607V42.495C108.912 41.391 108.64 40.567 108.096 40.023C107.552 39.463 106.832 39.183 105.936 39.183C105.04 39.183 104.32 39.463 103.776 40.023C103.232 40.567 102.96 41.391 102.96 42.495V44.607C102.96 45.711 103.232 46.543 103.776 47.103C104.32 47.647 105.04 47.919 105.936 47.919ZM121.667 47.727H121.571C121.459 48.031 121.307 48.327 121.115 48.615C120.939 48.903 120.707 49.159 120.419 49.383C120.147 49.591 119.811 49.759 119.411 49.887C119.027 50.015 118.579 50.079 118.067 50.079C116.771 50.079 115.763 49.663 115.043 48.831C114.339 47.999 113.987 46.807 113.987 45.255V37.311H116.603V44.919C116.603 46.855 117.403 47.823 119.003 47.823C119.339 47.823 119.667 47.783 119.987 47.703C120.307 47.607 120.587 47.471 120.827 47.295C121.083 47.119 121.283 46.895 121.427 46.623C121.587 46.351 121.667 46.031 121.667 45.663V37.311H124.283V49.791H121.667V47.727ZM138.492 50.967C138.492 52.263 137.996 53.239 137.004 53.895C136.012 54.551 134.396 54.879 132.156 54.879C131.132 54.879 130.26 54.807 129.54 54.663C128.836 54.535 128.252 54.343 127.788 54.087C127.34 53.831 127.012 53.519 126.804 53.151C126.596 52.783 126.492 52.359 126.492 51.879C126.492 51.191 126.676 50.655 127.044 50.271C127.428 49.887 127.956 49.623 128.628 49.479V49.215C127.684 48.911 127.212 48.271 127.212 47.295C127.212 46.655 127.428 46.167 127.86 45.831C128.292 45.479 128.812 45.231 129.42 45.087V44.991C128.684 44.639 128.116 44.151 127.716 43.527C127.332 42.887 127.14 42.143 127.14 41.295C127.14 40.015 127.564 38.983 128.412 38.199C129.276 37.415 130.508 37.023 132.108 37.023C132.988 37.023 133.74 37.151 134.364 37.407V37.071C134.364 36.511 134.492 36.079 134.748 35.775C135.02 35.455 135.436 35.295 135.996 35.295H137.916V37.407H135.372V37.911C135.932 38.279 136.364 38.759 136.668 39.351C136.972 39.927 137.124 40.575 137.124 41.295C137.124 42.559 136.692 43.583 135.828 44.367C134.964 45.135 133.732 45.519 132.132 45.519C131.524 45.519 130.98 45.455 130.5 45.327C130.18 45.439 129.9 45.599 129.66 45.807C129.42 45.999 129.3 46.255 129.3 46.575C129.3 46.911 129.452 47.151 129.756 47.295C130.06 47.439 130.492 47.511 131.052 47.511H134.124C135.66 47.511 136.772 47.823 137.46 48.447C138.148 49.055 138.492 49.895 138.492 50.967ZM136.044 51.255C136.044 50.823 135.876 50.479 135.54 50.223C135.22 49.967 134.628 49.839 133.764 49.839H129.54C128.964 50.175 128.676 50.655 128.676 51.279C128.676 51.791 128.876 52.199 129.276 52.503C129.692 52.823 130.388 52.983 131.364 52.983H132.996C135.028 52.983 136.044 52.407 136.044 51.255ZM132.132 43.623C132.9 43.623 133.492 43.455 133.908 43.119C134.34 42.767 134.556 42.231 134.556 41.511V41.031C134.556 40.311 134.34 39.783 133.908 39.447C133.492 39.095 132.9 38.919 132.132 38.919C131.364 38.919 130.764 39.095 130.332 39.447C129.916 39.783 129.708 40.311 129.708 41.031V41.511C129.708 42.231 129.916 42.767 130.332 43.119C130.764 43.455 131.364 43.623 132.132 43.623ZM139.959 32.031H142.575V39.375H142.695C142.967 38.703 143.375 38.143 143.919 37.695C144.479 37.247 145.239 37.023 146.199 37.023C147.479 37.023 148.471 37.447 149.175 38.295C149.895 39.127 150.255 40.319 150.255 41.871V49.791H147.639V42.183C147.639 40.247 146.855 39.279 145.287 39.279C144.951 39.279 144.615 39.327 144.279 39.423C143.959 39.503 143.671 39.631 143.415 39.807C143.159 39.983 142.951 40.207 142.791 40.479C142.647 40.751 142.575 41.063 142.575 41.415V49.791H139.959V32.031ZM156.857 49.791C155.945 49.791 155.257 49.559 154.793 49.095C154.329 48.615 154.097 47.943 154.097 47.079V39.447H152.153V37.311H153.209C153.641 37.311 153.937 37.215 154.097 37.023C154.273 36.831 154.361 36.519 154.361 36.087V33.903H156.713V37.311H159.329V39.447H156.713V47.655H159.137V49.791H156.857Z" fill="url(#paint0_linear_3671_11014)"/>
<defs>
<linearGradient id="paint0_linear_3671_11014" x1="-37.1544" y1="-46.509" x2="242.236" y2="81.5786" gradientUnits="userSpaceOnUse">
<stop stop-color="#FF5F6D"/>
<stop offset="1" stop-color="#FFC371"/>
</linearGradient>
</defs>
</svg>