<svg width="49" height="48" viewBox="0 0 49 48" fill="none" xmlns="http://www.w3.org/2000/svg">
<path fill-rule="evenodd" clip-rule="evenodd" d="M7.60296 8.28564C4.99933 8.28564 2.88867 10.3963 2.88867 12.9999V34.9999C2.88867 37.6035 4.99933 39.7142 7.60296 39.7142H42.1744C44.7779 39.7142 46.8887 37.6035 46.8887 34.9999V12.9999C46.8887 10.3963 44.7779 8.28564 42.1744 8.28564H7.60296Z" fill="#D7DBDF"/>
<path fill-rule="evenodd" clip-rule="evenodd" d="M12.5258 15.7501C13.6106 15.7501 14.4901 16.6296 14.4901 17.7144V30.2858C14.4901 31.3707 13.6106 32.2501 12.5258 32.2501C11.441 32.2501 10.5615 31.3707 10.5615 30.2858V17.7144C10.5615 16.6296 11.441 15.7501 12.5258 15.7501ZM24.8885 15.7501C25.9734 15.7501 26.8528 16.6296 26.8528 17.7144V30.2858C26.8528 31.3707 25.9734 32.2501 24.8885 32.2501C23.8037 32.2501 22.9242 31.3707 22.9242 30.2858V17.7144C22.9242 16.6296 23.8037 15.7501 24.8885 15.7501ZM39.2155 17.7144C39.2155 16.6296 38.3362 15.7501 37.2513 15.7501C36.1663 15.7501 35.287 16.6296 35.287 17.7144V30.2858C35.287 31.3707 36.1663 32.2501 37.2513 32.2501C38.3362 32.2501 39.2155 31.3707 39.2155 30.2858V17.7144Z" fill="#3E63DD"/>
</svg>
