<svg width="49" height="49" viewBox="0 0 49 49" fill="none" xmlns="http://www.w3.org/2000/svg">
<path d="M2.88867 16.9643C2.88867 14.3607 4.44684 12.25 6.36893 12.25L20.4073 12.25C22.3294 12.25 23.8876 14.3607 23.8876 16.9643V31.5357C23.8876 34.1393 22.3294 36.25 20.4073 36.25H6.36893C4.44684 36.25 2.88867 34.1393 2.88867 31.5357V16.9643Z" fill="#D7DBDF"/>
<path d="M25.893 16.9643C25.893 14.3607 27.4512 12.25 29.3733 12.25L43.4073 12.25C45.3294 12.25 46.8876 14.3607 46.8876 16.9643V31.5357C46.8876 34.1393 45.3294 36.25 43.4073 36.25H29.3733C27.4512 36.25 25.893 34.1393 25.893 31.5357V16.9643Z" fill="#D7DBDF"/>
<path fill-rule="evenodd" clip-rule="evenodd" d="M36.429 27.3929C38.1648 27.3929 39.5718 25.9858 39.5718 24.25C39.5718 22.5143 38.1648 21.1072 36.429 21.1072C34.6933 21.1072 33.2861 22.5143 33.2861 24.25C33.2861 25.9858 34.6933 27.3929 36.429 27.3929Z" fill="#3E63DD"/>
<path fill-rule="evenodd" clip-rule="evenodd" d="M13.5115 27.3929C15.2473 27.3929 16.6544 25.9858 16.6544 24.25C16.6544 22.5143 15.2473 21.1072 13.5115 21.1072C11.7758 21.1072 10.3687 22.5143 10.3687 24.25C10.3687 25.9858 11.7758 27.3929 13.5115 27.3929Z" fill="#3E63DD"/>
</svg>
