<?xml version="1.0" encoding="UTF-8"?>
<svg width="144px" height="84px" viewBox="0 0 144 84" version="1.1" xmlns="http://www.w3.org/2000/svg" xmlns:xlink="http://www.w3.org/1999/xlink">
    <title>button</title>
    <g id="Page-1" stroke="none" stroke-width="1" fill="none" fill-rule="evenodd">
        <g id="button" fill="#000000" fill-rule="nonzero">
            <path d="M76.801,66.213 C75.905,66.213 75.01,65.871 74.326,65.188 C72.958,63.822 72.958,61.605 74.326,60.239 L92.563,42 L74.327,23.762 C72.959,22.395 72.959,20.179 74.327,18.812 C75.694,17.446 77.909,17.446 79.276,18.812 L99.989,39.525 C101.356,40.892 101.356,43.108 99.989,44.475 L79.276,65.188 C78.592,65.871 77.695,66.213 76.801,66.213 Z" id="Path"></path>
            <path d="M94.41,66.213 C93.514,66.213 92.619,65.871 91.935,65.188 C90.568,63.822 90.568,61.605 91.935,60.239 L110.172,42 L91.936,23.762 C90.569,22.395 90.569,20.179 91.936,18.812 C93.303,17.446 95.518,17.446 96.885,18.812 L117.598,39.525 C118.965,40.892 118.965,43.108 117.598,44.475 L96.885,65.188 C96.201,65.871 95.305,66.213 94.41,66.213 Z" id="Path"></path>
            <path d="M129.113,83.767 L14.886,83.767 C6.701,83.767 0.043,76.298 0.043,67.118 L0.043,16.884 C0.043,7.703 6.701,0.235 14.886,0.235 L129.113,0.235 C137.299,0.235 143.957,7.704 143.957,16.884 L143.957,67.118 C143.957,76.298 137.299,83.767 129.113,83.767 Z M14.886,7.233 C10.561,7.233 7.043,11.562 7.043,16.882 L7.043,67.116 C7.043,72.436 10.561,76.765 14.886,76.765 L129.113,76.765 C133.437,76.765 136.957,72.436 136.957,67.116 L136.957,16.882 C136.957,11.561 133.437,7.233 129.113,7.233 L14.886,7.233 Z" id="Shape"></path>
        </g>
    </g>
</svg>