<svg width="28" height="18" viewBox="0 0 28 18" fill="none" xmlns="http://www.w3.org/2000/svg">
<rect y="3" width="28" height="15" rx="3" fill="#61656F"/>
<rect x="1" y="4" width="26" height="11" rx="2" fill="#FFFFFE"/>
<path d="M13.8523 9.09091C13.8523 7.1875 12.6705 6.10227 11.1278 6.10227C9.5767 6.10227 8.40341 7.1875 8.40341 9.09091C8.40341 10.9858 9.5767 12.0795 11.1278 12.0795C12.6705 12.0795 13.8523 10.9943 13.8523 9.09091ZM12.6051 9.09091C12.6051 10.3239 12.0199 10.9915 11.1278 10.9915C10.233 10.9915 9.65057 10.3239 9.65057 9.09091C9.65057 7.85795 10.233 7.19034 11.1278 7.19034C12.0199 7.19034 12.6051 7.85795 12.6051 9.09091ZM14.6635 12H15.8936V10.3466L16.4987 9.60795L18.0925 12H19.5641L17.3794 8.78693L19.5385 6.18182H18.0641L15.9703 8.74716H15.8936V6.18182H14.6635V12Z" fill="#61656F"/>
</svg>
