<svg width="49" height="48" viewBox="0 0 49 48" fill="none" xmlns="http://www.w3.org/2000/svg">
<path d="M2.88867 16.7143C2.88867 14.1107 4.99933 12 7.60296 12H42.1744C44.7779 12 46.8887 14.1107 46.8887 16.7143V31.2857C46.8887 33.8893 44.7779 36 42.1744 36H7.60296C4.99933 36 2.88867 33.8893 2.88867 31.2857V16.7143Z" fill="#D7DBDF"/>
<path fill-rule="evenodd" clip-rule="evenodd" d="M18.6031 24C18.6031 25.7358 17.196 27.1429 15.4602 27.1429C13.7245 27.1429 12.3174 25.7358 12.3174 24C12.3174 22.2643 13.7245 20.8572 15.4602 20.8572C17.196 20.8572 18.6031 22.2643 18.6031 24ZM28.0317 24C28.0317 25.7358 26.6245 27.1429 24.8888 27.1429C23.1531 27.1429 21.746 25.7358 21.746 24C21.746 22.2643 23.1531 20.8572 24.8888 20.8572C26.6245 20.8572 28.0317 22.2643 28.0317 24ZM34.3174 27.1429C36.0532 27.1429 37.4602 25.7358 37.4602 24C37.4602 22.2643 36.0532 20.8572 34.3174 20.8572C32.5816 20.8572 31.1745 22.2643 31.1745 24C31.1745 25.7358 32.5816 27.1429 34.3174 27.1429Z" fill="#3E63DD"/>
</svg>
