<svg width="20" height="20" viewBox="0 0 20 20" fill="none" xmlns="http://www.w3.org/2000/svg">
<rect width="20" height="20" rx="3" fill="#61656F"/>
<rect x="1" y="1" width="18" height="14" rx="2" fill="#FFFFFE"/>
<path d="M9.85227 8.09091C9.85227 6.1875 8.67045 5.10227 7.12784 5.10227C5.5767 5.10227 4.40341 6.1875 4.40341 8.09091C4.40341 9.9858 5.5767 11.0795 7.12784 11.0795C8.67045 11.0795 9.85227 9.99432 9.85227 8.09091ZM8.60511 8.09091C8.60511 9.32386 8.01989 9.99148 7.12784 9.99148C6.23295 9.99148 5.65057 9.32386 5.65057 8.09091C5.65057 6.85795 6.23295 6.19034 7.12784 6.19034C8.01989 6.19034 8.60511 6.85795 8.60511 8.09091ZM10.6635 11H11.8936V9.34659L12.4987 8.60795L14.0925 11H15.5641L13.3794 7.78693L15.5385 5.18182H14.0641L11.9703 7.74716H11.8936V5.18182H10.6635V11Z" fill="#61656F"/>
</svg>
