<?xml version="1.0" encoding="iso-8859-1"?>
<!-- Generator: Adobe Illustrator 19.0.0, SVG Export Plug-In . SVG Version: 6.00 Build 0)  -->
<svg version="1.1" id="Capa_1" xmlns="http://www.w3.org/2000/svg" xmlns:xlink="http://www.w3.org/1999/xlink" x="0px" y="0px"
	 viewBox="0 0 470 470" style="enable-background:new 0 0 470 470;" xml:space="preserve">
<g>
	<path d="M462.5,425H7.5c-4.142,0-7.5,3.358-7.5,7.5s3.358,7.5,7.5,7.5h455c4.143,0,7.5-3.358,7.5-7.5S466.643,425,462.5,425z"/>
	<path d="M462.5,455H7.5c-4.142,0-7.5,3.358-7.5,7.5s3.358,7.5,7.5,7.5h455c4.143,0,7.5-3.358,7.5-7.5S466.643,455,462.5,455z"/>
	<path d="M462.5,30h-25v-7.5C437.5,10.093,427.406,0,415,0s-22.5,10.093-22.5,22.5V30h-75v-7.5C317.5,10.093,307.406,0,295,0
		s-22.5,10.093-22.5,22.5V30h-75v-7.5C197.5,10.093,187.407,0,175,0s-22.5,10.093-22.5,22.5V30h-75v-7.5C77.5,10.093,67.407,0,55,0
		S32.5,10.093,32.5,22.5V30h-25C3.358,30,0,33.358,0,37.5v365c0,4.142,3.358,7.5,7.5,7.5h455c4.143,0,7.5-3.358,7.5-7.5v-365
		C470,33.358,466.643,30,462.5,30z M407.5,22.5c0-4.136,3.364-7.5,7.5-7.5s7.5,3.364,7.5,7.5v30c0,4.136-3.364,7.5-7.5,7.5
		s-7.5-3.364-7.5-7.5V22.5z M287.5,22.5c0-4.136,3.364-7.5,7.5-7.5s7.5,3.364,7.5,7.5v30c0,4.136-3.364,7.5-7.5,7.5
		s-7.5-3.364-7.5-7.5V22.5z M167.5,22.5c0-4.136,3.364-7.5,7.5-7.5s7.5,3.364,7.5,7.5v30c0,4.136-3.364,7.5-7.5,7.5
		s-7.5-3.364-7.5-7.5V22.5z M47.5,22.5c0-4.136,3.364-7.5,7.5-7.5s7.5,3.364,7.5,7.5v30c0,4.136-3.364,7.5-7.5,7.5
		s-7.5-3.364-7.5-7.5V22.5z M32.5,45v7.5C32.5,64.907,42.593,75,55,75s22.5-10.093,22.5-22.5V45h75v7.5
		c0,12.407,10.093,22.5,22.5,22.5s22.5-10.093,22.5-22.5V45h75v7.5c0,12.407,10.094,22.5,22.5,22.5s22.5-10.093,22.5-22.5V45h75v7.5
		c0,12.407,10.094,22.5,22.5,22.5s22.5-10.093,22.5-22.5V45H455v77.3H15V45H32.5z M15,395V137.3h440V395H15z"/>
	<path d="M412,226.8h-30c-4.143,0-7.5,3.358-7.5,7.5s3.357,7.5,7.5,7.5h30c4.143,0,7.5-3.358,7.5-7.5S416.143,226.8,412,226.8z"/>
	<path d="M331,226.8h-30c-4.143,0-7.5,3.358-7.5,7.5s3.357,7.5,7.5,7.5h30c4.143,0,7.5-3.358,7.5-7.5S335.143,226.8,331,226.8z"/>
	<path d="M250,226.8h-30c-4.142,0-7.5,3.358-7.5,7.5s3.358,7.5,7.5,7.5h30c4.143,0,7.5-3.358,7.5-7.5S254.143,226.8,250,226.8z"/>
	<path d="M169,226.8h-30c-4.142,0-7.5,3.358-7.5,7.5s3.358,7.5,7.5,7.5h30c4.142,0,7.5-3.358,7.5-7.5S173.142,226.8,169,226.8z"/>
	<path d="M88,226.8H58c-4.142,0-7.5,3.358-7.5,7.5s3.358,7.5,7.5,7.5h30c4.142,0,7.5-3.358,7.5-7.5S92.142,226.8,88,226.8z"/>
	<path d="M331,280.8h-30c-4.143,0-7.5,3.358-7.5,7.5s3.357,7.5,7.5,7.5h30c4.143,0,7.5-3.358,7.5-7.5S335.143,280.8,331,280.8z"/>
	<path d="M250,280.8h-30c-4.142,0-7.5,3.358-7.5,7.5s3.358,7.5,7.5,7.5h30c4.143,0,7.5-3.358,7.5-7.5S254.143,280.8,250,280.8z"/>
	<path d="M169,280.8h-30c-4.142,0-7.5,3.358-7.5,7.5s3.358,7.5,7.5,7.5h30c4.142,0,7.5-3.358,7.5-7.5S173.142,280.8,169,280.8z"/>
	<path d="M88,280.8H58c-4.142,0-7.5,3.358-7.5,7.5s3.358,7.5,7.5,7.5h30c4.142,0,7.5-3.358,7.5-7.5S92.142,280.8,88,280.8z"/>
	<path d="M331,334.8h-30c-4.143,0-7.5,3.358-7.5,7.5s3.357,7.5,7.5,7.5h30c4.143,0,7.5-3.358,7.5-7.5S335.143,334.8,331,334.8z"/>
	<path d="M412,280.8h-30c-4.143,0-7.5,3.358-7.5,7.5s3.357,7.5,7.5,7.5h30c4.143,0,7.5-3.358,7.5-7.5S416.143,280.8,412,280.8z"/>
	<path d="M412,334.8h-30c-4.143,0-7.5,3.358-7.5,7.5s3.357,7.5,7.5,7.5h30c4.143,0,7.5-3.358,7.5-7.5S416.143,334.8,412,334.8z"/>
	<path d="M250,334.8h-30c-4.142,0-7.5,3.358-7.5,7.5s3.358,7.5,7.5,7.5h30c4.143,0,7.5-3.358,7.5-7.5S254.143,334.8,250,334.8z"/>
	<path d="M169,334.8h-30c-4.142,0-7.5,3.358-7.5,7.5s3.358,7.5,7.5,7.5h30c4.142,0,7.5-3.358,7.5-7.5S173.142,334.8,169,334.8z"/>
	<path d="M88,334.8H58c-4.142,0-7.5,3.358-7.5,7.5s3.358,7.5,7.5,7.5h30c4.142,0,7.5-3.358,7.5-7.5S92.142,334.8,88,334.8z"/>
	<path d="M412,172.8h-30c-4.143,0-7.5,3.358-7.5,7.5s3.357,7.5,7.5,7.5h30c4.143,0,7.5-3.358,7.5-7.5S416.143,172.8,412,172.8z"/>
	<path d="M331,172.8h-30c-4.143,0-7.5,3.358-7.5,7.5s3.357,7.5,7.5,7.5h30c4.143,0,7.5-3.358,7.5-7.5S335.143,172.8,331,172.8z"/>
	<path d="M250,172.8h-30c-4.142,0-7.5,3.358-7.5,7.5s3.358,7.5,7.5,7.5h30c4.143,0,7.5-3.358,7.5-7.5S254.143,172.8,250,172.8z"/>
	<path d="M169,172.8h-30c-4.142,0-7.5,3.358-7.5,7.5s3.358,7.5,7.5,7.5h30c4.142,0,7.5-3.358,7.5-7.5S173.142,172.8,169,172.8z"/>
	<path d="M88,172.8H58c-4.142,0-7.5,3.358-7.5,7.5s3.358,7.5,7.5,7.5h30c4.142,0,7.5-3.358,7.5-7.5S92.142,172.8,88,172.8z"/>
</g>
<g>
</g>
<g>
</g>
<g>
</g>
<g>
</g>
<g>
</g>
<g>
</g>
<g>
</g>
<g>
</g>
<g>
</g>
<g>
</g>
<g>
</g>
<g>
</g>
<g>
</g>
<g>
</g>
<g>
</g>
</svg>
