<svg width="49" height="48" viewBox="0 0 49 48" fill="none" xmlns="http://www.w3.org/2000/svg">
<path d="M2.88867 16.4763V40.5001C2.88867 43.5376 5.35111 46.0001 8.38867 46.0001H41.3887C44.4262 46.0001 46.8887 43.5376 46.8887 40.5001V16.4763H2.88867Z" fill="#D7DBDF"/>
<path fill-rule="evenodd" clip-rule="evenodd" d="M13.8887 2C15.6244 2 17.0315 3.4071 17.0315 5.14286V6.71428H32.7461V5.14286C32.7461 3.4071 34.1532 2 35.889 2C37.6248 2 39.0318 3.4071 39.0318 5.14286V6.71428H41.3887C44.177 6.71428 46.8887 8.79479 46.8887 11.8884V14.1352V16.4923H44.5315H5.24581H2.88867V14.1352V11.8884C2.88867 8.79479 5.60039 6.71428 8.38867 6.71428H10.7458V5.14286C10.7458 3.4071 12.1529 2 13.8887 2Z" fill="#3E63DD"/>
<path fill-rule="evenodd" clip-rule="evenodd" d="M24.8883 21.9674C25.9731 21.9674 26.8526 22.8468 26.8526 23.9317V36.1094H29.6026C30.6874 36.1094 31.5668 36.9888 31.5668 38.0737C31.5668 39.1586 30.6874 40.038 29.6026 40.038H20.1745C19.0896 40.038 18.2102 39.1586 18.2102 38.0737C18.2102 36.9888 19.0896 36.1094 20.1745 36.1094H22.924V29.2038C22.4261 29.352 21.8987 29.4315 21.3528 29.4315H20.1742C19.0894 29.4315 18.21 28.5521 18.21 27.4672C18.21 26.3824 19.0894 25.5029 20.1742 25.5029H21.3528C22.2205 25.5029 22.924 24.7995 22.924 23.9317C22.924 22.8468 23.8034 21.9674 24.8883 21.9674Z" fill="#3E63DD"/>
</svg>
