<?xml version="1.0" encoding="UTF-8"?>
<svg width="146px" height="138px" viewBox="0 0 146 138" version="1.1" xmlns="http://www.w3.org/2000/svg" xmlns:xlink="http://www.w3.org/1999/xlink">
    <title>chart</title>
    <g id="Page-1" stroke="none" stroke-width="1" fill="none" fill-rule="evenodd">
        <g id="chart" fill="#000000" fill-rule="nonzero">
            <path d="M142.045,131.386 L9.946,131.386 C8.012,131.386 6.446,129.819 6.446,127.886 L6.446,9.787 C6.446,7.853 8.012,6.287 9.946,6.287 C11.88,6.287 13.446,7.853 13.446,9.787 L13.446,124.386 L142.045,124.386 C143.978,124.386 145.545,125.953 145.545,127.886 C145.545,129.819 143.978,131.386 142.045,131.386 Z" id="Path"></path>
            <path d="M3.952,22.761 C3.311,22.761 2.665,22.586 2.085,22.219 C0.45,21.186 -0.036,19.024 0.997,17.39 L6.988,7.916 C8.021,6.283 10.184,5.797 11.817,6.829 C13.45,7.862 13.937,10.023 12.904,11.657 L6.913,21.131 C6.247,22.185 5.112,22.761 3.952,22.761 Z" id="Path"></path>
            <path d="M15.942,22.761 C14.781,22.761 13.646,22.185 12.98,21.132 L6.988,11.658 C5.955,10.024 6.442,7.862 8.075,6.829 C9.708,5.795 11.872,6.282 12.904,7.916 L18.896,17.39 C19.929,19.024 19.442,21.186 17.809,22.219 C17.229,22.586 16.581,22.761 15.942,22.761 Z" id="Path"></path>
            <path d="M142.042,131.386 C141.401,131.386 140.754,131.211 140.174,130.844 L130.701,124.851 C129.067,123.817 128.581,121.656 129.614,120.022 C130.649,118.387 132.814,117.905 134.443,118.935 L143.916,124.928 C145.55,125.962 146.036,128.123 145.003,129.757 C144.337,130.81 143.201,131.386 142.042,131.386 Z" id="Path"></path>
            <path d="M132.575,137.377 C131.415,137.377 130.28,136.801 129.614,135.748 C128.581,134.114 129.067,131.952 130.701,130.919 L140.174,124.928 C141.81,123.896 143.971,124.382 145.003,126.015 C146.036,127.649 145.55,129.811 143.916,130.844 L134.443,136.835 C133.862,137.202 133.215,137.377 132.575,137.377 Z" id="Path"></path>
            <path d="M120.592,121.956 C118.659,121.956 117.092,120.389 117.092,118.456 L117.092,56.168 L102.01,56.168 L102.01,118.456 C102.01,120.389 100.443,121.956 98.51,121.956 C96.577,121.956 95.01,120.389 95.01,118.456 L95.01,52.668 C95.01,50.734 96.577,49.168 98.51,49.168 L120.592,49.168 C122.525,49.168 124.092,50.734 124.092,52.668 L124.092,118.456 C124.092,120.389 122.524,121.956 120.592,121.956 Z M85.146,121.956 C83.213,121.956 81.646,120.389 81.646,118.456 L81.646,103.46 L66.564,103.46 L66.564,118.456 C66.564,120.389 64.997,121.956 63.064,121.956 C61.131,121.956 59.564,120.389 59.564,118.456 L59.564,99.96 C59.564,98.027 61.131,96.46 63.064,96.46 L85.146,96.46 C87.079,96.46 88.646,98.027 88.646,99.96 L88.646,118.456 C88.646,120.389 87.079,121.956 85.146,121.956 Z M49.697,121.956 C47.764,121.956 46.197,120.389 46.197,118.456 L46.197,77.673 L31.116,77.673 L31.116,118.456 C31.116,120.389 29.55,121.956 27.616,121.956 C25.682,121.956 24.116,120.389 24.116,118.456 L24.116,74.173 C24.116,72.24 25.682,70.673 27.616,70.673 L49.697,70.673 C51.63,70.673 53.197,72.24 53.197,74.173 L53.197,118.456 C53.197,120.389 51.63,121.956 49.697,121.956 Z" id="Shape"></path>
            <path d="M72.475,82.33 C67.187,82.33 62.885,78.026 62.885,72.737 C62.885,71.682 63.056,70.667 63.372,69.716 L44.717,54.205 C43.345,54.963 41.767,55.395 40.091,55.395 C37.908,55.395 35.894,54.662 34.28,53.429 L23.954,59.697 C22.302,60.701 20.149,60.174 19.145,58.522 C18.142,56.87 18.668,54.716 20.321,53.713 L30.641,47.448 C30.549,46.914 30.5,46.364 30.5,45.804 C30.5,40.514 34.802,36.211 40.09,36.211 C45.379,36.211 49.683,40.514 49.683,45.804 C49.683,46.859 49.512,47.874 49.196,48.825 L67.848,64.335 C69.221,63.575 70.798,63.144 72.474,63.144 C73.151,63.144 73.811,63.214 74.449,63.348 L102.49,20.571 C101.375,19.004 100.719,17.088 100.719,15.022 C100.719,9.734 105.022,5.432 110.311,5.432 C112.184,5.432 113.932,5.971 115.411,6.903 L122.978,1.308 C124.533,0.161 126.724,0.488 127.874,2.041 C129.023,3.596 128.694,5.787 127.141,6.937 L119.574,12.531 C119.788,13.326 119.902,14.161 119.902,15.022 C119.902,20.312 115.6,24.616 110.312,24.616 C109.637,24.616 108.979,24.546 108.343,24.413 L80.3,67.192 C81.413,68.758 82.069,70.673 82.069,72.737 C82.068,78.026 77.765,82.33 72.475,82.33 Z M72.475,70.145 C71.046,70.145 69.885,71.308 69.885,72.738 C69.885,74.168 71.046,75.331 72.475,75.331 C73.906,75.331 75.069,74.168 75.069,72.738 C75.069,71.308 73.905,70.145 72.475,70.145 Z M40.091,43.213 C38.663,43.213 37.501,44.376 37.501,45.806 C37.501,47.234 38.663,48.396 40.091,48.396 C41.521,48.396 42.684,47.234 42.684,45.806 C42.684,44.376 41.521,43.213 40.091,43.213 Z M110.311,12.433 C108.882,12.433 107.719,13.594 107.719,15.023 C107.719,16.453 108.882,17.617 110.311,17.617 C111.739,17.617 112.901,16.453 112.901,15.023 C112.9,13.594 111.738,12.433 110.311,12.433 Z" id="Shape"></path>
        </g>
    </g>
</svg>