<svg width="16" height="14" viewBox="0 0 16 14" fill="none" xmlns="http://www.w3.org/2000/svg">
<path d="M15.3438 12.4688H1.90625V0.28125C1.90625 0.195312 1.83594 0.125 1.75 0.125H0.65625C0.570312 0.125 0.5 0.195312 0.5 0.28125V13.7188C0.5 13.8047 0.570312 13.875 0.65625 13.875H15.3438C15.4297 13.875 15.5 13.8047 15.5 13.7188V12.625C15.5 12.5391 15.4297 12.4688 15.3438 12.4688ZM3.3125 11.2188H13.7812C13.8672 11.2188 13.9375 11.1484 13.9375 11.0625V2.54688C13.9375 2.40625 13.7676 2.33789 13.6699 2.43555L9.5625 6.54297L7.11328 4.12109C7.08391 4.09202 7.04426 4.0757 7.00293 4.0757C6.9616 4.0757 6.92194 4.09202 6.89258 4.12109L3.20117 7.82422C3.18683 7.83858 3.17548 7.85564 3.16777 7.87441C3.16006 7.89319 3.15615 7.9133 3.15625 7.93359V11.0625C3.15625 11.1484 3.22656 11.2188 3.3125 11.2188Z" fill="#61656F"/>
</svg>
