<svg width="20" height="20" viewBox="0 0 20 20" fill="none" xmlns="http://www.w3.org/2000/svg">
<path d="M17.3438 15.4688H3.90625V3.28125C3.90625 3.19531 3.83594 3.125 3.75 3.125H2.65625C2.57031 3.125 2.5 3.19531 2.5 3.28125V16.7188C2.5 16.8047 2.57031 16.875 2.65625 16.875H17.3438C17.4297 16.875 17.5 16.8047 17.5 16.7188V15.625C17.5 15.5391 17.4297 15.4688 17.3438 15.4688ZM5.3125 14.2188H15.7812C15.8672 14.2188 15.9375 14.1484 15.9375 14.0625V5.54688C15.9375 5.40625 15.7676 5.33789 15.6699 5.43555L11.5625 9.54297L9.11328 7.12109C9.08391 7.09202 9.04426 7.0757 9.00293 7.0757C8.9616 7.0757 8.92194 7.09202 8.89258 7.12109L5.20117 10.8242C5.18683 10.8386 5.17548 10.8556 5.16777 10.8744C5.16006 10.8932 5.15615 10.9133 5.15625 10.9336V14.0625C5.15625 14.1484 5.22656 14.2188 5.3125 14.2188Z" fill="#61656F"/>
</svg>
