<?xml version="1.0" encoding="UTF-8"?>
<svg width="92px" height="78px" viewBox="0 0 92 78" version="1.1" xmlns="http://www.w3.org/2000/svg" xmlns:xlink="http://www.w3.org/1999/xlink">
    <title>checkbox</title>
    <g id="Page-1" stroke="none" stroke-width="1" fill="none" fill-rule="evenodd">
        <g id="checkbox" fill="#000000" fill-rule="nonzero">
            <path d="M74.396,77.949 L3.5,77.949 C1.567,77.949 0,76.382 0,74.449 L0,3.551 C0,1.618 1.567,0.051 3.5,0.051 L65.152,0.051 C67.085,0.051 68.652,1.618 68.652,3.551 C68.652,5.484 67.085,7.051 65.152,7.051 L7,7.051 L7,70.949 L70.896,70.949 L70.896,39.684 C70.896,37.751 72.463,36.184 74.396,36.184 C76.329,36.184 77.896,37.751 77.896,39.684 L77.896,74.449 C77.896,76.382 76.329,77.949 74.396,77.949 Z" id="Path"></path>
            <path d="M38.948,57.345 L38.948,57.345 C38.02,57.345 37.13,56.976 36.473,56.32 L15.101,34.947 C13.734,33.58 13.734,31.364 15.101,29.997 C16.468,28.631 18.684,28.631 20.051,29.997 L38.948,48.894 L86.025,1.817 C87.392,0.45 89.607,0.45 90.974,1.817 C92.341,3.184 92.341,5.4 90.974,6.767 L41.423,56.319 C40.767,56.976 39.876,57.345 38.948,57.345 Z" id="Path"></path>
        </g>
    </g>
</svg>