<svg version="1.1" id="Capa_1" xmlns="http://www.w3.org/2000/svg" xmlns:xlink="http://www.w3.org/1999/xlink" x="0px" y="0px"
	 viewBox="0 0 285.004 285.004" style="enable-background:new 0 0 285.004 285.004;" xml:space="preserve">
<path color-rendering="auto" image-rendering="auto" shape-rendering="auto" color-interpolation="sRGB" d="M275.141,179.031
	c-0.786-0.012-1.565,0.161-2.272,0.506c-5.398,2.543-10.136,2.612-15.756-0.01c-2.483-1.209-5.476-0.176-6.685,2.307
	c-1.209,2.483-0.176,5.476,2.307,6.685c0.05,0.024,0.1,0.048,0.151,0.07c7.948,3.705,16.538,3.623,24.244-0.01
	c2.514-1.142,3.627-4.106,2.485-6.621c-0.799-1.76-2.542-2.902-4.475-2.932V179.031z M265,196.295c-10,0-20,8.403-20,21.875
	c0,9.167,5.215,14.787,8.965,18.537c3.676,3.676,5.914,5.601,6.002,11.168c-0.151,2.175,1.123,4.197,3.15,4.998
	c0.003,0,0.007,0,0.01,0c0.029,0.011,0.057,0.021,0.086,0.031c2.223,0.852,4.739,0.019,6.014-1.992
	c3.539-3.669,5.794-6.821,6.982-9.793c1.279-3.198,1.295-6.076,1.295-7.951s-0.016-2.746,0.58-4.236c0.596-1.49,2-3.771,5.455-7.227
	c0.938-0.938,1.465-2.21,1.465-3.537c0-13.472-10-21.875-20-21.875L265,196.295z M265,206.295c4.656,0,9.258,2.539,9.877,10.168
	c-2.936,3.207-5.011,6.081-6.082,8.758c-1.279,3.198-1.295,6.074-1.295,7.949c0,1.713-0.038,2.622-0.49,3.897
	c-1.788-3.104-4.063-5.52-5.975-7.432c-3.75-3.75-6.035-5.631-6.035-11.465C255,209.142,260,206.295,265,206.295L265,206.295z
	 M264.963,31.801c-2.596,0.02-4.745,2.023-4.947,4.611l-10,130c-0.16,2.077,0.984,4.035,2.871,4.916
	c7.948,3.705,16.538,3.621,24.244-0.01c1.877-0.885,3.012-2.837,2.853-4.906l-10-130C269.78,33.795,267.588,31.782,264.963,31.801
	L264.963,31.801z M265,101.976l4.727,61.443c-3.154,0.941-6.213,0.942-9.451-0.019L265,101.976L265,101.976z M145,177.482
	c-13.748,0-25,11.252-25,25s11.252,25,25,25s25-11.252,25-25S158.748,177.482,145,177.482z M145,187.482c8.344,0,15,6.656,15,15
	s-6.656,15-15,15s-15-6.656-15-15S136.656,187.482,145,187.482z M75,167.482c-13.748,0-25,11.252-25,25s11.252,25,25,25
	s25-11.252,25-25S88.748,167.482,75,167.482z M75,177.482c8.343,0,15,6.656,15,15s-6.657,15-15,15s-15-6.656-15-15
	S66.657,177.482,75,177.482z M45,117.482c-13.748,0-25,11.252-25,25s11.252,25,25,25s25-11.252,25-25S58.748,117.482,45,117.482z
	 M45,127.482c8.343,0,15,6.657,15,15s-6.657,15-15,15s-15-6.656-15-15S36.657,127.482,45,127.482z M85,67.482
	c-13.748,0-25,11.252-25,25s11.252,25,25,25s25-11.252,25-25S98.748,67.482,85,67.482z M85,77.482c8.343,0,15,6.656,15,15
	s-6.657,15-15,15s-15-6.656-15-15S76.657,77.482,85,77.482z M145,67.482c-13.748,0-25,11.252-25,25s11.252,25,25,25s25-11.252,25-25
	S158.748,67.482,145,67.482z M145,77.482c8.344,0,15,6.656,15,15s-6.656,15-15,15s-15-6.656-15-15S136.656,77.482,145,77.482z
	 M115.787,27.521c-14.705,0-29.513,2.63-43.25,8.088C28.751,53.007-0.011,95.396,0,142.512
	c0.011,47.116,28.793,89.489,72.588,106.865s93.8,6.262,126.111-28.029c1.593-1.695,1.806-4.264,0.516-6.199l0.01,0.01
	c-24.134-36.368-16.542-61.348-6.562-84.271c4.99-11.462,10.813-22.14,13.473-33.182c2.66-11.042,1.554-22.901-7.213-33.822
	c-18.919-23.569-50.783-36.348-83.135-36.357L115.787,27.521z M115.684,37.709c29.628,0.148,58.905,11.832,75.44,32.43
	c6.978,8.693,7.492,16.077,5.289,25.221c-2.203,9.144-7.725,19.598-12.92,31.531c-10.073,23.138-17.929,52.873,5.219,90.264
	c-29.553,29.182-73.605,38.334-112.434,22.928C36.264,224.206,10.01,185.556,10,142.508C9.989,99.46,36.223,60.798,76.229,44.902
	C88.676,39.957,102.216,37.641,115.684,37.709z"/>
<g>
</g>
<g>
</g>
<g>
</g>
<g>
</g>
<g>
</g>
<g>
</g>
<g>
</g>
<g>
</g>
<g>
</g>
<g>
</g>
<g>
</g>
<g>
</g>
<g>
</g>
<g>
</g>
<g>
</g>
</svg>
