<svg width="49" height="48" viewBox="0 0 49 48" fill="none" xmlns="http://www.w3.org/2000/svg">
<path d="M3.92345 37.8481L7.86612 33.9056C5.68946 29.8065 6.46767 24.6234 9.7521 21.3442L19.063 12.0333L36.8555 29.8256L27.5445 39.1364C24.2654 42.4208 19.0822 43.1991 14.9831 41.0224L11.0404 44.9653C10.3737 45.6278 9.47179 46 8.53168 46C7.5916 46 6.68968 45.6278 6.02296 44.9653L3.92345 42.8657C3.26068 42.199 2.88867 41.2971 2.88867 40.3571C2.88867 39.4167 3.26068 38.5151 3.92345 37.8481Z" fill="#D7DBDF"/>
<path fill-rule="evenodd" clip-rule="evenodd" d="M24.6279 5.8024C29.6563 0.733709 38.06 0.732533 43.0898 5.79888C48.1561 10.8287 48.1552 19.2325 43.0864 24.2608L40.5271 26.82L43.8817 30.1746C44.8031 31.0961 44.8031 32.59 43.8817 33.5113C42.9602 34.4328 41.4665 34.4328 40.545 33.5113L15.3771 8.3436C14.4557 7.42217 14.4557 5.92821 15.3771 5.00678C16.2985 4.08535 17.7925 4.08535 18.7139 5.00678L22.0687 8.36159L24.6279 5.8024Z" fill="#3E63DD"/>
</svg>
