<svg width="20" height="20" viewBox="0 0 20 20" fill="none" xmlns="http://www.w3.org/2000/svg">
<path d="M19.9993 18.2562V19.357C19.9993 19.7129 19.713 19.9992 19.3571 19.9992H0.642887C0.28695 19.9992 0.000732422 19.7129 0.000732422 19.357V18.2562C0.000732422 17.9021 0.28695 17.614 0.642887 17.614C0.99699 17.614 1.28504 17.9021 1.28504 18.2562V18.7149H9.35784V18.2562C9.35784 17.9021 9.6459 17.614 10 17.614C10.3541 17.614 10.6422 17.9021 10.6422 18.2562V18.7149H18.715V18.2562C18.715 17.9021 19.003 17.614 19.3571 17.614C19.713 17.614 19.9993 17.9021 19.9993 18.2562Z" fill="#434B53"/>
<path d="M0.642887 12.8971C0.28695 12.8971 0.000732422 13.1833 0.000732422 13.5392V15.8987C0.000732422 16.2528 0.28695 16.5408 0.642887 16.5408C0.99699 16.5408 1.28504 16.2528 1.28504 15.8987V13.5392C1.28504 13.1833 0.99699 12.8971 0.642887 12.8971ZM0.642887 3.45923C0.28695 3.45923 0.000732422 3.74728 0.000732422 4.10138V6.46084C0.000732422 6.81678 0.28695 7.103 0.642887 7.103C0.99699 7.103 1.28504 6.81678 1.28504 6.46084V4.10138C1.28504 3.74728 0.99699 3.45923 0.642887 3.45923Z" fill="#434B53"/>
<path d="M2.38588 10.0001C2.38588 10.3542 2.09783 10.6423 1.74372 10.6423H1.28504V11.1798C1.28504 11.5341 0.99699 11.822 0.642887 11.822C0.28695 11.822 0.000732422 11.5341 0.000732422 11.1798V8.82038C0.000732422 8.46627 0.28695 8.17822 0.642887 8.17822C0.99699 8.17822 1.28504 8.46627 1.28504 8.82038V9.35795H1.74372C2.09783 9.35795 2.38588 9.646 2.38588 10.0001Z" fill="#434B53"/>
<path d="M0.642155 2.38515C0.287502 2.38515 0 2.09764 0 1.74299V0.642155C0 0.287502 0.287502 0 0.642155 0H1.74299C2.09764 0 2.38515 0.287502 2.38515 0.642155C2.38515 0.996808 2.09764 1.28431 1.74299 1.28431H1.28431V1.74299C1.28431 2.09764 0.996808 2.38515 0.642155 2.38515Z" fill="#434B53"/>
<path d="M15.8987 0.000732422H13.5392C13.1833 0.000732422 12.8971 0.28695 12.8971 0.642887C12.8971 0.99699 13.1833 1.28504 13.5392 1.28504H15.8987C16.2528 1.28504 16.5408 0.99699 16.5408 0.642887C16.5408 0.28695 16.2528 0.000732422 15.8987 0.000732422ZM6.46084 0.000732422H4.10138C3.74728 0.000732422 3.45923 0.28695 3.45923 0.642887C3.45923 0.99699 3.74728 1.28504 4.10138 1.28504H6.46084C6.81678 1.28504 7.103 0.99699 7.103 0.642887C7.103 0.28695 6.81678 0.000732422 6.46084 0.000732422Z" fill="#434B53"/>
<path d="M11.822 0.642887C11.822 0.99699 11.5341 1.28504 11.1798 1.28504H10.6423V1.74372C10.6423 2.09783 10.3542 2.38588 10.0001 2.38588C9.64601 2.38588 9.35795 2.09783 9.35795 1.74372V1.28504H8.82038C8.46627 1.28504 8.17822 0.99699 8.17822 0.642887C8.17822 0.28695 8.46627 0.000732422 8.82038 0.000732422H11.1798C11.5339 0.000732422 11.822 0.28695 11.822 0.642887Z" fill="#434B53"/>
<path d="M19.3577 2.38515C19.0031 2.38515 18.7156 2.09764 18.7156 1.74299V1.28431H18.2569C17.9022 1.28431 17.6147 0.996808 17.6147 0.642155C17.6147 0.287502 17.9022 0 18.2569 0H19.3577C19.7124 0 19.9999 0.287502 19.9999 0.642155V1.74299C19.9999 2.09764 19.7124 2.38515 19.3577 2.38515Z" fill="#434B53"/>
<path d="M19.357 3.45923C19.0029 3.45923 18.7148 3.74728 18.7148 4.10138V6.46084C18.7148 6.81678 19.0029 7.103 19.357 7.103C19.7129 7.103 19.9992 6.81678 19.9992 6.46084V4.10138C19.9992 3.74728 19.7129 3.45923 19.357 3.45923ZM19.357 12.8971C19.0029 12.8971 18.7148 13.1833 18.7148 13.5392V15.8987C18.7148 16.2528 19.0029 16.5408 19.357 16.5408C19.7129 16.5408 19.9992 16.2528 19.9992 15.8987V13.5392C19.9992 13.1833 19.7129 12.8971 19.357 12.8971Z" fill="#434B53"/>
<path d="M19.9992 8.82038V11.1798C19.9992 11.5341 19.7129 11.822 19.357 11.822C19.0029 11.822 18.7149 11.5341 18.7149 11.1798V10.6423H18.2562C17.9021 10.6423 17.614 10.3542 17.614 10.0001C17.614 9.646 17.9021 9.35795 18.2562 9.35795H18.7149V8.82038C18.7149 8.46627 19.0029 8.17822 19.357 8.17822C19.7129 8.17822 19.9992 8.46627 19.9992 8.82038Z" fill="#434B53"/>
<path d="M10.0001 12.8971C9.64596 12.8971 9.35791 13.1833 9.35791 13.5392V15.8987C9.35791 16.2528 9.64596 16.5408 10.0001 16.5408C10.3542 16.5408 10.6422 16.2528 10.6422 15.8987V13.5392C10.6422 13.1833 10.3542 12.8971 10.0001 12.8971ZM10.0001 3.45923C9.64596 3.45923 9.35791 3.74728 9.35791 4.10138V6.46084C9.35791 6.81678 9.64596 7.103 10.0001 7.103C10.3542 7.103 10.6422 6.81678 10.6422 6.46084V4.10138C10.6422 3.74728 10.3542 3.45923 10.0001 3.45923Z" fill="#434B53"/>
<path d="M6.46084 9.35791H4.10138C3.74728 9.35791 3.45923 9.64596 3.45923 10.0001C3.45923 10.3542 3.74728 10.6422 4.10138 10.6422H6.46084C6.81678 10.6422 7.103 10.3542 7.103 10.0001C7.103 9.64596 6.81678 9.35791 6.46084 9.35791ZM15.8987 9.35791H13.5392C13.1833 9.35791 12.8971 9.64596 12.8971 10.0001C12.8971 10.3542 13.1833 10.6422 13.5392 10.6422H15.8987C16.2528 10.6422 16.5408 10.3542 16.5408 10.0001C16.5408 9.64596 16.2528 9.35791 15.8987 9.35791Z" fill="#434B53"/>
<path d="M11.822 10.0001C11.822 10.3542 11.5341 10.6423 11.1798 10.6423H10.6423V11.1798C10.6423 11.5341 10.3542 11.822 10.0001 11.822C9.64601 11.822 9.35795 11.5341 9.35795 11.1798V10.6423H8.82038C8.46627 10.6423 8.17822 10.3542 8.17822 10.0001C8.17822 9.64601 8.46627 9.35795 8.82038 9.35795H9.35795V8.82038C9.35795 8.46627 9.64601 8.17822 10.0001 8.17822C10.3542 8.17822 10.6423 8.46627 10.6423 8.82038V9.35795H11.1798C11.5339 9.35795 11.822 9.64601 11.822 10.0001Z" fill="#434B53"/>
</svg>
