<?xml version="1.0" encoding="UTF-8"?>
<svg width="110px" height="110px" viewBox="0 0 110 110" version="1.1" xmlns="http://www.w3.org/2000/svg" xmlns:xlink="http://www.w3.org/1999/xlink">
    <title>container</title>
    <g id="Page-1" stroke="none" stroke-width="1" fill="none" fill-rule="evenodd">
        <g id="container" fill="#434b53" fill-rule="nonzero">
            <path d="M109.5,100.002 L109.5,106.002 C109.5,107.942 107.94,109.502 106,109.502 L4,109.502 C2.06,109.502 0.5,107.942 0.5,106.002 L0.5,100.002 C0.5,98.072 2.06,96.502 4,96.502 C5.93,96.502 7.5,98.072 7.5,100.002 L7.5,102.502 L51.5,102.502 L51.5,100.002 C51.5,98.072 53.07,96.502 55,96.502 C56.93,96.502 58.5,98.072 58.5,100.002 L58.5,102.502 L102.5,102.502 L102.5,100.002 C102.5,98.072 104.07,96.502 106,96.502 C107.94,96.502 109.5,98.072 109.5,100.002 Z" id="Path"></path>
            <g id="Group" transform="translate(0.000000, 19.000000)">
                <path d="M4,51.792 C2.06,51.792 0.5,53.352 0.5,55.292 L0.5,68.152 C0.5,70.082 2.06,71.652 4,71.652 C5.93,71.652 7.5,70.082 7.5,68.152 L7.5,55.292 C7.5,53.352 5.93,51.792 4,51.792 Z M4,0.352 C2.06,0.352 0.5,1.922 0.5,3.852 L0.5,16.712 C0.5,18.652 2.06,20.212 4,20.212 C5.93,20.212 7.5,18.652 7.5,16.712 L7.5,3.852 C7.5,1.922 5.93,0.352 4,0.352 Z" id="Shape"></path>
                <path d="M13.5,36.002 C13.5,37.932 11.93,39.502 10,39.502 L7.5,39.502 L7.5,42.432 C7.5,44.363 5.93,45.932 4,45.932 C2.06,45.932 0.5,44.363 0.5,42.432 L0.5,29.572 C0.5,27.642 2.06,26.072 4,26.072 C5.93,26.072 7.5,27.642 7.5,29.572 L7.5,32.502 L10,32.502 C11.93,32.502 13.5,34.072 13.5,36.002 Z" id="Path"></path>
            </g>
            <path d="M3.996,13.498 C2.063,13.498 0.496,11.931 0.496,9.998 L0.496,3.998 C0.496,2.065 2.063,0.498 3.996,0.498 L9.996,0.498 C11.929,0.498 13.496,2.065 13.496,3.998 C13.496,5.931 11.929,7.498 9.996,7.498 L7.496,7.498 L7.496,9.998 C7.496,11.931 5.929,13.498 3.996,13.498 Z" id="Path"></path>
            <g id="Group" transform="translate(19.000000, 0.000000)">
                <path d="M68.15,0.502 L55.29,0.502 C53.35,0.502 51.79,2.062 51.79,4.002 C51.79,5.932 53.35,7.502 55.29,7.502 L68.15,7.502 C70.08,7.502 71.65,5.932 71.65,4.002 C71.65,2.062 70.08,0.502 68.15,0.502 Z M16.71,0.502 L3.85,0.502 C1.92,0.502 0.35,2.062 0.35,4.002 C0.35,5.932 1.92,7.502 3.85,7.502 L16.71,7.502 C18.65,7.502 20.21,5.932 20.21,4.002 C20.21,2.062 18.65,0.502 16.71,0.502 Z" id="Shape"></path>
                <path d="M45.93,4.002 C45.93,5.932 44.361,7.502 42.43,7.502 L39.5,7.502 L39.5,10.002 C39.5,11.932 37.93,13.502 36,13.502 C34.07,13.502 32.5,11.932 32.5,10.002 L32.5,7.502 L29.57,7.502 C27.64,7.502 26.07,5.932 26.07,4.002 C26.07,2.062 27.64,0.502 29.57,0.502 L42.43,0.502 C44.36,0.502 45.93,2.062 45.93,4.002 Z" id="Path"></path>
            </g>
            <path d="M106.004,13.498 C104.071,13.498 102.504,11.931 102.504,9.998 L102.504,7.498 L100.004,7.498 C98.071,7.498 96.504,5.931 96.504,3.998 C96.504,2.065 98.071,0.498 100.004,0.498 L106.004,0.498 C107.937,0.498 109.504,2.065 109.504,3.998 L109.504,9.998 C109.504,11.931 107.937,13.498 106.004,13.498 Z" id="Path"></path>
            <g id="Group" transform="translate(96.000000, 19.000000)">
                <path d="M10,0.352 C8.07,0.352 6.5,1.922 6.5,3.852 L6.5,16.712 C6.5,18.652 8.07,20.212 10,20.212 C11.94,20.212 13.5,18.652 13.5,16.712 L13.5,3.852 C13.5,1.922 11.94,0.352 10,0.352 Z M10,51.792 C8.07,51.792 6.5,53.352 6.5,55.292 L6.5,68.152 C6.5,70.082 8.07,71.652 10,71.652 C11.94,71.652 13.5,70.082 13.5,68.152 L13.5,55.292 C13.5,53.352 11.94,51.792 10,51.792 Z" id="Shape"></path>
                <path d="M13.5,29.572 L13.5,42.432 C13.5,44.363 11.94,45.932 10,45.932 C8.07,45.932 6.5,44.363 6.5,42.432 L6.5,39.502 L4,39.502 C2.07,39.502 0.5,37.932 0.5,36.002 C0.5,34.072 2.07,32.502 4,32.502 L6.5,32.502 L6.5,29.572 C6.5,27.642 8.07,26.072 10,26.072 C11.94,26.072 13.5,27.642 13.5,29.572 Z" id="Path"></path>
            </g>
            <path d="M55,70.792 C53.07,70.792 51.5,72.352 51.5,74.292 L51.5,87.152 C51.5,89.082 53.07,90.652 55,90.652 C56.93,90.652 58.5,89.082 58.5,87.152 L58.5,74.292 C58.5,72.352 56.93,70.792 55,70.792 Z M55,19.352 C53.07,19.352 51.5,20.922 51.5,22.852 L51.5,35.712 C51.5,37.652 53.07,39.212 55,39.212 C56.93,39.212 58.5,37.652 58.5,35.712 L58.5,22.852 C58.5,20.922 56.93,19.352 55,19.352 Z" id="Shape"></path>
            <g id="Group" transform="translate(19.000000, 45.000000)">
                <path d="M16.71,6.502 L3.85,6.502 C1.92,6.502 0.35,8.072 0.35,10.002 C0.35,11.932 1.92,13.502 3.85,13.502 L16.71,13.502 C18.65,13.502 20.21,11.932 20.21,10.002 C20.21,8.072 18.65,6.502 16.71,6.502 Z M68.15,6.502 L55.29,6.502 C53.35,6.502 51.79,8.072 51.79,10.002 C51.79,11.932 53.35,13.502 55.29,13.502 L68.15,13.502 C70.08,13.502 71.65,11.932 71.65,10.002 C71.65,8.072 70.08,6.502 68.15,6.502 Z" id="Shape"></path>
                <path d="M45.93,10.002 C45.93,11.932 44.361,13.502 42.43,13.502 L39.5,13.502 L39.5,16.432 C39.5,18.363 37.93,19.932 36,19.932 C34.07,19.932 32.5,18.363 32.5,16.432 L32.5,13.502 L29.57,13.502 C27.64,13.502 26.07,11.932 26.07,10.002 C26.07,8.072 27.64,6.502 29.57,6.502 L32.5,6.502 L32.5,3.572 C32.5,1.642 34.07,0.072 36,0.072 C37.93,0.072 39.5,1.642 39.5,3.572 L39.5,6.502 L42.43,6.502 C44.36,6.502 45.93,8.072 45.93,10.002 Z" id="Path"></path>
            </g>
        </g>
    </g>
</svg>