<svg width="49" height="48" viewBox="0 0 49 48" fill="none" xmlns="http://www.w3.org/2000/svg">
<path d="M41.3887 7.5H8.38867V40.5H41.3887V7.5Z" fill="#D7DBDF"/>
<path fill-rule="evenodd" clip-rule="evenodd" d="M9.17439 14.5714C12.6459 14.5714 15.4601 11.7572 15.4601 8.28571C15.4601 4.81421 12.6459 2 9.17439 2C5.70288 2 2.88867 4.81421 2.88867 8.28571C2.88867 11.7572 5.70288 14.5714 9.17439 14.5714ZM40.603 14.5714C44.0746 14.5714 46.8887 11.7572 46.8887 8.28571C46.8887 4.81421 44.0746 2 40.603 2C37.1314 2 34.3172 4.81421 34.3172 8.28571C34.3172 11.7572 37.1314 14.5714 40.603 14.5714ZM15.4601 39.7143C15.4601 43.1859 12.6459 46 9.17439 46C5.70288 46 2.88867 43.1859 2.88867 39.7143C2.88867 36.2427 5.70288 33.4286 9.17439 33.4286C12.6459 33.4286 15.4601 36.2427 15.4601 39.7143ZM40.603 46C44.0746 46 46.8887 43.1859 46.8887 39.7143C46.8887 36.2427 44.0746 33.4286 40.603 33.4286C37.1314 33.4286 34.3172 36.2427 34.3172 39.7143C34.3172 43.1859 37.1314 46 40.603 46Z" fill="#3E63DD"/>
<path fill-rule="evenodd" clip-rule="evenodd" d="M16.6387 16.9286C16.6387 15.8438 17.5181 14.9644 18.603 14.9644H31.1744C32.2592 14.9644 33.1387 15.8438 33.1387 16.9286C33.1387 18.0135 32.2592 18.8929 31.1744 18.8929H18.603C17.5181 18.8929 16.6387 18.0135 16.6387 16.9286ZM16.6387 24.0001C16.6387 22.9152 17.5181 22.0358 18.603 22.0358H31.1744C32.2592 22.0358 33.1387 22.9152 33.1387 24.0001C33.1387 25.0849 32.2592 25.9644 31.1744 25.9644H18.603C17.5181 25.9644 16.6387 25.0849 16.6387 24.0001ZM18.603 29.1072C17.5181 29.1072 16.6387 29.9866 16.6387 31.0715C16.6387 32.1564 17.5181 33.0358 18.603 33.0358H31.1744C32.2592 33.0358 33.1387 32.1564 33.1387 31.0715C33.1387 29.9866 32.2592 29.1072 31.1744 29.1072H18.603Z" fill="#3E63DD"/>
</svg>
