<svg width="49" height="49" viewBox="0 0 49 49" fill="none" xmlns="http://www.w3.org/2000/svg">
<path fill-rule="evenodd" clip-rule="evenodd" d="M34.9772 3.54912L26.6629 20.1819C26.0321 21.4439 26.9495 22.9286 28.36 22.9286H44.9888C46.3993 22.9286 47.3167 21.4439 46.686 20.1819L38.3715 3.54912C37.6722 2.15029 35.6765 2.15029 34.9772 3.54912ZM2.88867 5.6444C2.88867 4.77652 3.59223 4.07296 4.4601 4.07296H20.1744C21.0423 4.07296 21.7458 4.77652 21.7458 5.6444V21.3587C21.7458 22.2266 21.0423 22.9301 20.1744 22.9301H4.4601C3.59223 22.9301 2.88867 22.2266 2.88867 21.3587V5.6444ZM12.3172 46.5C17.5245 46.5 21.7458 42.2788 21.7458 37.0714C21.7458 31.8642 17.5245 27.6429 12.3172 27.6429C7.11 27.6429 2.88867 31.8642 2.88867 37.0714C2.88867 42.2788 7.11 46.5 12.3172 46.5Z" fill="#D7DBDF"/>
<path fill-rule="evenodd" clip-rule="evenodd" d="M29.6027 27.6428C28.3009 27.6428 27.2456 28.6981 27.2456 29.9999C27.2456 31.3017 28.3009 32.357 29.6027 32.357H43.7456C45.0474 32.357 46.1027 31.3017 46.1027 29.9999C46.1027 28.6981 45.0474 27.6428 43.7456 27.6428H29.6027ZM27.2456 37.0713C27.2456 35.7696 28.3009 34.7142 29.6027 34.7142H43.7456C45.0474 34.7142 46.1027 35.7696 46.1027 37.0713C46.1027 38.3731 45.0474 39.4285 43.7456 39.4285H29.6027C28.3009 39.4285 27.2456 38.3731 27.2456 37.0713ZM27.2456 44.1428C27.2456 42.841 28.3009 41.7856 29.6027 41.7856H43.7456C45.0474 41.7856 46.1027 42.841 46.1027 44.1428C46.1027 45.4445 45.0474 46.4999 43.7456 46.4999H29.6027C28.3009 46.4999 27.2456 45.4445 27.2456 44.1428Z" fill="#3E63DD"/>
</svg>
