<svg width="49" height="48" viewBox="0 0 49 48" fill="none" xmlns="http://www.w3.org/2000/svg">
<path d="M4.72168 16.4763V40.5001C4.72168 43.5376 6.97891 46.0001 9.76334 46.0001H40.0133C42.7978 46.0001 45.055 43.5376 45.055 40.5001V16.4763H4.72168Z" fill="#D7DBDF"/>
<path fill-rule="evenodd" clip-rule="evenodd" d="M14.805 2C16.3961 2 17.686 3.4071 17.686 5.14286V6.71428H32.091V5.14286C32.091 3.4071 33.3808 2 34.972 2C36.5631 2 37.8529 3.4071 37.8529 5.14286V6.71428H40.0133C42.5693 6.71428 45.055 8.79479 45.055 11.8884V14.1352V16.4923H42.8943H6.88239H4.72168V14.1352V11.8884C4.72168 8.79479 7.20742 6.71428 9.76334 6.71428H11.9241V5.14286C11.9241 3.4071 13.2139 2 14.805 2Z" fill="#3E63DD"/>
<path d="M13.3648 28.1485C14.9559 28.1485 16.2458 26.7414 16.2458 25.0056C16.2458 23.2699 14.9559 21.8628 13.3648 21.8628C11.7737 21.8628 10.4839 23.2699 10.4839 25.0056C10.4839 26.7414 11.7737 28.1485 13.3648 28.1485Z" fill="#3E63DD"/>
<path d="M24.8883 28.1485C26.4794 28.1485 27.7692 26.7414 27.7692 25.0056C27.7692 23.2699 26.4794 21.8628 24.8883 21.8628C23.2972 21.8628 22.0073 23.2699 22.0073 25.0056C22.0073 26.7414 23.2972 28.1485 24.8883 28.1485Z" fill="#3E63DD"/>
<path d="M13.3648 40.7169C14.9559 40.7169 16.2458 39.3098 16.2458 37.574C16.2458 35.8383 14.9559 34.4312 13.3648 34.4312C11.7737 34.4312 10.4839 35.8383 10.4839 37.574C10.4839 39.3098 11.7737 40.7169 13.3648 40.7169Z" fill="#3E63DD"/>
<path d="M24.8883 40.7169C26.4794 40.7169 27.7692 39.3098 27.7692 37.574C27.7692 35.8383 26.4794 34.4312 24.8883 34.4312C23.2972 34.4312 22.0073 35.8383 22.0073 37.574C22.0073 39.3098 23.2972 40.7169 24.8883 40.7169Z" fill="#3E63DD"/>
<path d="M36.4127 28.1485C38.0038 28.1485 39.2936 26.7414 39.2936 25.0056C39.2936 23.2699 38.0038 21.8628 36.4127 21.8628C34.8216 21.8628 33.5317 23.2699 33.5317 25.0056C33.5317 26.7414 34.8216 28.1485 36.4127 28.1485Z" fill="#3E63DD"/>
</svg>
