<svg width="18" height="18" viewBox="0 0 18 18" fill="none" xmlns="http://www.w3.org/2000/svg">
<path d="M16 1.8H15V0H13V1.8H5V0H3V1.8H2C0.89 1.8 0.00999999 2.61 0.00999999 3.6L0 16.2C0 16.6774 0.210714 17.1352 0.585786 17.4728C0.960859 17.8104 1.46957 18 2 18H16C17.1 18 18 17.19 18 16.2V3.6C18 2.61 17.1 1.8 16 1.8ZM16 16.2H2V6.3H16V16.2Z" fill="#61656F"/>
<path d="M10 10.25C10 9.91848 10.1317 9.60054 10.3661 9.36612C10.6005 9.1317 10.9185 9 11.25 9H17.5V11.5H11.25C10.9185 11.5 10.6005 11.3683 10.3661 11.1339C10.1317 10.8995 10 10.5815 10 10.25ZM0 11.75H5C5.33152 11.75 5.64946 11.8817 5.88388 12.1161C6.1183 12.3505 6.25 12.6685 6.25 13C6.25 13.3315 6.1183 13.6495 5.88388 13.8839C5.64946 14.1183 5.33152 14.25 5 14.25H0V11.75Z" fill="#61656F"/>
</svg>
