<svg width="20" height="20" viewBox="0 0 20 20" fill="none" xmlns="http://www.w3.org/2000/svg">
<path d="M17.7778 2H16.6667V0H14.4444V2H5.55556V0H3.33333V2H2.22222C0.988889 2 0.0111111 2.9 0.0111111 4L0 18C0 18.5304 0.234126 19.0391 0.650874 19.4142C1.06762 19.7893 1.63285 20 2.22222 20H17.7778C19 20 20 19.1 20 18V4C20 2.9 19 2 17.7778 2ZM17.7778 18H2.22222V7H17.7778V18Z" fill="#61656F"/>
<path d="M11.1111 11.3889C11.1111 11.0205 11.2574 10.6673 11.5179 10.4068C11.7784 10.1463 12.1316 10 12.5 10H19.4444V12.7778H12.5C12.1316 12.7778 11.7784 12.6314 11.5179 12.371C11.2574 12.1105 11.1111 11.7572 11.1111 11.3889ZM0 13.0556H5.55556C5.92391 13.0556 6.27718 13.2019 6.53765 13.4624C6.79812 13.7228 6.94444 14.0761 6.94444 14.4444C6.94444 14.8128 6.79812 15.1661 6.53765 15.4265C6.27718 15.687 5.92391 15.8333 5.55556 15.8333H0V13.0556Z" fill="#61656F"/>
</svg>
