<?xml version="1.0" encoding="UTF-8"?>
<svg width="124px" height="116px" viewBox="0 0 124 116" version="1.1" xmlns="http://www.w3.org/2000/svg" xmlns:xlink="http://www.w3.org/1999/xlink">
    <title>date picker</title>
    <g id="Page-1" stroke="none" stroke-width="1" fill="none" fill-rule="evenodd">
        <g id="date-picker" fill="#434b53" fill-rule="nonzero">
            <path d="M120.07,6.77 L108.54,6.77 C106.61,6.77 105.04,8.33 105.04,10.27 C105.04,12.2 106.61,13.77 108.54,13.77 L116.57,13.77 L116.57,22.35 L7.43,22.35 L7.43,13.77 L24.64,13.77 L24.64,16.08 C24.64,18.02 26.21,19.58 28.14,19.58 C30.08,19.58 31.64,18.02 31.64,16.08 L31.64,4.45 C31.64,2.52 30.08,0.95 28.14,0.95 C26.21,0.95 24.64,2.52 24.64,4.45 L24.64,6.77 L3.93,6.77 C1.99,6.77 0.43,8.33 0.43,10.27 L0.43,111.55 C0.43,113.481 1.99,115.05 3.93,115.05 L120.07,115.05 C122,115.05 123.57,113.481 123.57,111.55 L123.57,10.27 C123.57,8.33 122,6.77 120.07,6.77 Z M116.57,108.05 L7.43,108.05 L7.43,29.35 L116.57,29.35 L116.57,108.05 L116.57,108.05 Z" id="Shape"></path>
            <path d="M76.78,4.45 L76.78,16.08 C76.78,18.02 75.219,19.58 73.28,19.58 C71.349,19.58 69.78,18.02 69.78,16.08 L69.78,13.77 L64.44,13.77 C62.5,13.77 60.94,12.2 60.94,10.27 C60.94,8.33 62.5,6.77 64.44,6.77 L69.78,6.77 L69.78,4.45 C69.78,2.52 71.349,0.95 73.28,0.95 C75.22,0.95 76.78,2.52 76.78,4.45 Z" id="Path"></path>
            <path d="M99.36,4.45 L99.36,16.08 C99.36,18.02 97.79,19.58 95.86,19.58 C93.92,19.58 92.36,18.02 92.36,16.08 L92.36,13.77 L87.009,13.77 C85.079,13.77 83.509,12.2 83.509,10.27 C83.509,8.33 85.079,6.77 87.009,6.77 L92.36,6.77 L92.36,4.45 C92.36,2.52 93.92,0.95 95.86,0.95 C97.79,0.95 99.36,2.52 99.36,4.45 Z" id="Path"></path>
            <path d="M31.47,43.039 L22.623,43.039 C20.69,43.039 19.123,41.472 19.123,39.539 C19.123,37.606 20.69,36.039 22.623,36.039 L31.47,36.039 C33.403,36.039 34.97,37.606 34.97,39.539 C34.97,41.472 33.403,43.039 31.47,43.039 Z" id="Path"></path>
            <path d="M54.775,43.039 L45.923,43.039 C43.99,43.039 42.423,41.472 42.423,39.539 C42.423,37.606 43.99,36.039 45.923,36.039 L54.775,36.039 C56.708,36.039 58.275,37.606 58.275,39.539 C58.275,41.472 56.708,43.039 54.775,43.039 Z" id="Path"></path>
            <path d="M78.076,43.039 L69.224,43.039 C67.291,43.039 65.724,41.472 65.724,39.539 C65.724,37.606 67.291,36.039 69.224,36.039 L78.076,36.039 C80.009,36.039 81.576,37.606 81.576,39.539 C81.576,41.472 80.009,43.039 78.076,43.039 Z" id="Path"></path>
            <path d="M101.381,43.039 L92.529,43.039 C90.596,43.039 89.029,41.472 89.029,39.539 C89.029,37.606 90.596,36.039 92.529,36.039 L101.381,36.039 C103.314,36.039 104.881,37.606 104.881,39.539 C104.881,41.472 103.313,43.039 101.381,43.039 Z" id="Path"></path>
            <path d="M54.22,4.45 L54.22,16.08 C54.22,18.02 52.65,19.58 50.72,19.58 C48.78,19.58 47.22,18.02 47.22,16.08 L47.22,13.77 L41.87,13.77 C39.93,13.77 38.37,12.2 38.37,10.27 C38.37,8.33 39.93,6.77 41.87,6.77 L47.22,6.77 L47.22,4.45 C47.22,2.52 48.78,0.95 50.72,0.95 C52.65,0.95 54.22,2.52 54.22,4.45 Z" id="Path"></path>
            <path d="M31.47,61.021 L22.623,61.021 C20.69,61.021 19.123,59.454 19.123,57.521 C19.123,55.588 20.69,54.021 22.623,54.021 L31.47,54.021 C33.403,54.021 34.97,55.588 34.97,57.521 C34.97,59.454 33.403,61.021 31.47,61.021 Z" id="Path"></path>
            <path d="M54.775,61.021 L45.923,61.021 C43.99,61.021 42.423,59.454 42.423,57.521 C42.423,55.588 43.99,54.021 45.923,54.021 L54.775,54.021 C56.708,54.021 58.275,55.588 58.275,57.521 C58.275,59.454 56.708,61.021 54.775,61.021 Z" id="Path"></path>
            <path d="M78.076,61.021 L69.224,61.021 C67.291,61.021 65.724,59.454 65.724,57.521 C65.724,55.588 67.291,54.021 69.224,54.021 L78.076,54.021 C80.009,54.021 81.576,55.588 81.576,57.521 C81.576,59.454 80.009,61.021 78.076,61.021 Z" id="Path"></path>
            <path d="M101.379,61.021 L92.529,61.021 C90.596,61.021 89.029,59.454 89.029,57.521 C89.029,55.588 90.596,54.021 92.529,54.021 L101.379,54.021 C103.312,54.021 104.879,55.588 104.879,57.521 C104.879,59.454 103.312,61.021 101.379,61.021 Z" id="Path"></path>
            <path d="M31.47,79.005 L22.623,79.005 C20.69,79.005 19.123,77.438 19.123,75.505 C19.123,73.572 20.69,72.005 22.623,72.005 L31.47,72.005 C33.403,72.005 34.97,73.572 34.97,75.505 C34.97,77.438 33.403,79.005 31.47,79.005 Z" id="Path"></path>
            <path d="M54.775,79.005 L45.923,79.005 C43.99,79.005 42.423,77.438 42.423,75.505 C42.423,73.572 43.99,72.005 45.923,72.005 L54.775,72.005 C56.708,72.005 58.275,73.572 58.275,75.505 C58.275,77.438 56.708,79.005 54.775,79.005 Z" id="Path"></path>
            <path d="M78.076,79.005 L69.224,79.005 C67.291,79.005 65.724,77.438 65.724,75.505 C65.724,73.572 67.291,72.005 69.224,72.005 L78.076,72.005 C80.009,72.005 81.576,73.572 81.576,75.505 C81.576,77.438 80.009,79.005 78.076,79.005 Z" id="Path"></path>
            <path d="M101.379,79.005 L92.529,79.005 C90.596,79.005 89.029,77.438 89.029,75.505 C89.029,73.572 90.596,72.005 92.529,72.005 L101.379,72.005 C103.312,72.005 104.879,73.572 104.879,75.505 C104.879,77.438 103.312,79.005 101.379,79.005 Z" id="Path"></path>
            <path d="M31.47,96.991 L22.623,96.991 C20.69,96.991 19.123,95.424 19.123,93.491 C19.123,91.558 20.69,89.991 22.623,89.991 L31.47,89.991 C33.403,89.991 34.97,91.558 34.97,93.491 C34.97,95.424 33.403,96.991 31.47,96.991 Z" id="Path"></path>
            <path d="M54.775,96.991 L45.923,96.991 C43.99,96.991 42.423,95.424 42.423,93.491 C42.423,91.558 43.99,89.991 45.923,89.991 L54.775,89.991 C56.708,89.991 58.275,91.558 58.275,93.491 C58.275,95.424 56.708,96.991 54.775,96.991 Z" id="Path"></path>
            <path d="M78.076,96.991 L69.224,96.991 C67.291,96.991 65.724,95.424 65.724,93.491 C65.724,91.558 67.291,89.991 69.224,89.991 L78.076,89.991 C80.009,89.991 81.576,91.558 81.576,93.491 C81.576,95.424 80.009,96.991 78.076,96.991 Z" id="Path"></path>
        </g>
    </g>
</svg>