<?xml version="1.0" encoding="UTF-8"?>
<svg width="156px" height="98px" viewBox="0 0 156 98" version="1.1" xmlns="http://www.w3.org/2000/svg" xmlns:xlink="http://www.w3.org/1999/xlink">
    <title>dropdown selector</title>
    <g id="Page-1" stroke="none" stroke-width="1" fill="none" fill-rule="evenodd">
        <g id="dropdown-selector" fill="#000000" fill-rule="nonzero">
            <g id="Group" transform="translate(11.000000, 50.000000)">
                <path d="M80.003,27.916 L4.328,27.916 C2.395,27.916 0.828,26.349 0.828,24.416 C0.828,22.482 2.395,20.916 4.328,20.916 L80.003,20.916 C81.936,20.916 83.503,22.482 83.503,24.416 C83.503,26.349 81.936,27.916 80.003,27.916 Z" id="Path"></path>
                <path d="M80.003,7.916 L4.328,7.916 C2.395,7.916 0.828,6.349 0.828,4.416 C0.828,2.482 2.395,0.916 4.328,0.916 L80.003,0.916 C81.936,0.916 83.503,2.482 83.503,4.416 C83.503,6.349 81.936,7.916 80.003,7.916 Z" id="Path"></path>
                <path d="M80.003,47.916 L4.328,47.916 C2.395,47.916 0.828,46.349 0.828,44.416 C0.828,42.482 2.395,40.916 4.328,40.916 L80.003,40.916 C81.936,40.916 83.503,42.482 83.503,44.416 C83.503,46.349 81.936,47.916 80.003,47.916 Z" id="Path"></path>
            </g>
            <polygon id="Path" points="145.763 23.148 124.565 23.148 135.165 10.368"></polygon>
            <path d="M152.47,0.084 L3.53,0.084 C1.6,0.084 0.03,1.654 0.03,3.584 L0.03,31.914 C0.03,33.844 1.6,35.414 3.53,35.414 L152.47,35.414 C154.401,35.414 155.97,33.844 155.97,31.914 L155.97,3.584 C155.97,1.654 154.4,0.084 152.47,0.084 Z M113.09,28.414 L7.03,28.414 L7.03,7.084 L113.09,7.084 L113.09,28.414 L113.09,28.414 Z M148.97,28.414 L120.09,28.414 L120.09,7.084 L148.97,7.084 L148.97,28.414 Z" id="Shape"></path>
        </g>
    </g>
</svg>