<svg width="20" height="12" viewBox="0 0 20 12" fill="none" xmlns="http://www.w3.org/2000/svg">
<path fill-rule="evenodd" clip-rule="evenodd" d="M16.95 4.46761C17.0421 4.62346 17.0421 4.83125 16.95 4.9871L15.3103 7.63649C15.2182 7.79234 15.0339 7.89624 14.8313 7.89624C14.6286 7.89624 14.4444 7.79234 14.3522 7.63649L12.7125 4.9871C12.6204 4.83125 12.6204 4.62346 12.7125 4.46761C12.8046 4.31176 12.9889 4.20786 13.1915 4.20786H16.4526C16.6552 4.20786 16.8395 4.31176 16.95 4.46761ZM9.85679 9.8703C9.85679 10.1647 9.7094 10.3898 9.51687 10.3898H1.81383C1.6213 10.3898 1.47391 10.1647 1.47391 9.8703V1.55847C1.47391 1.26409 1.6213 1.03898 1.81383 1.03898H9.51687C9.7094 1.03898 9.85679 1.26409 9.85679 1.55847V9.8703ZM2.09185 0C0.929855 0 0 0.166237 0 1.55847V9.8703C0 11.4288 0.929855 11.4288 2.09185 11.4288H17.8981C19.0601 11.4288 19.9899 11.2625 19.9899 9.8703V1.64159C20.1146 0.415591 19.0601 0 17.8981 0H2.09185Z" fill="#61656F"/>
</svg>
