<svg width="49" height="48" viewBox="0 0 49 48" fill="none" xmlns="http://www.w3.org/2000/svg">
<path fill-rule="evenodd" clip-rule="evenodd" d="M8.27108 12.5747C5.29845 12.5747 2.88867 14.9845 2.88867 17.9571V30.0426C2.88867 33.0153 5.29845 35.4252 8.27108 35.4252H41.5065C44.4789 35.4252 46.8887 33.0153 46.8887 30.0426V17.9571C46.8887 14.9845 44.4789 12.5747 41.5065 12.5747H8.27108Z" fill="#D7DBDF"/>
<path d="M41.5059 35.4252C44.4785 35.4252 46.8883 33.0153 46.8883 30.0426V17.9571C46.8883 14.9845 44.4785 12.5747 41.5059 12.5747H24.8882V35.4252H41.5059Z" fill="#3E63DD"/>
<path fill-rule="evenodd" clip-rule="evenodd" d="M30.7414 21.8235C30.9851 21.2353 31.559 20.8518 32.1956 20.8518H38.4917C39.1282 20.8518 39.7021 21.2353 39.9458 21.8235C40.1894 22.4116 40.0547 23.0886 39.6045 23.5388L36.4565 26.6868C35.842 27.3015 34.8454 27.3015 34.2307 26.6868L31.0827 23.5388C30.6325 23.0886 30.4978 22.4116 30.7414 21.8235Z" fill="#D7DBDF"/>
</svg>
