<svg width="49" height="48" viewBox="0 0 49 48" fill="none" xmlns="http://www.w3.org/2000/svg">
<path d="M31.1744 33.4285C31.1744 34.262 30.8432 35.0616 30.2538 35.6508C29.6644 36.2401 28.865 36.5714 28.0315 36.5714H6.03153C5.19799 36.5714 4.39859 36.2401 3.80919 35.6508C3.21979 35.0616 2.88867 34.262 2.88867 33.4285V5.14285C2.88867 4.30932 3.21979 3.50992 3.80919 2.92052C4.39859 2.33112 5.19799 2 6.03153 2H18.8726C19.7061 2 20.5055 2.33112 21.0949 2.92052L30.2538 12.0795C30.8432 12.6689 31.1744 13.4683 31.1744 14.3018V33.4285Z" fill="#3E63DD"/>
<path d="M46.8887 42.8571C46.8887 43.6906 46.5575 44.4902 45.9682 45.0794C45.3789 45.6687 44.5793 46 43.7459 46H21.7459C20.9123 46 20.1129 45.6687 19.5235 45.0794C18.9342 44.4902 18.603 43.6906 18.603 42.8571V14.5714C18.603 13.7379 18.9342 12.9385 19.5235 12.3491C20.1129 11.7597 20.9123 11.4286 21.7459 11.4286H34.587C35.4204 11.4286 36.22 11.7597 36.8093 12.3491L45.9682 21.5081C46.5575 22.0974 46.8887 22.8969 46.8887 23.7304V42.8571Z" fill="#D7DBDF"/>
<path fill-rule="evenodd" clip-rule="evenodd" d="M35.103 24C35.103 22.6982 34.0477 21.6428 32.7459 21.6428C31.4441 21.6428 30.3887 22.6982 30.3887 24V27.9285H26.4602C25.1584 27.9285 24.103 28.9839 24.103 30.2857C24.103 31.5875 25.1584 32.6428 26.4602 32.6428H30.3887V36.5714C30.3887 37.8731 31.4441 38.9285 32.7459 38.9285C34.0477 38.9285 35.103 37.8731 35.103 36.5714V32.6428H39.0316C40.3334 32.6428 41.3887 31.5875 41.3887 30.2857C41.3887 28.9839 40.3334 27.9285 39.0316 27.9285H35.103V24Z" fill="#3E63DD"/>
</svg>
