<svg width="49" height="48" viewBox="0 0 49 48" fill="none" xmlns="http://www.w3.org/2000/svg">
<path d="M43.7458 16.143H6.03153C4.29578 16.143 2.88867 17.5501 2.88867 19.2859V28.7144C2.88867 30.4502 4.29578 31.8573 6.03153 31.8573H43.7458C45.4816 31.8573 46.8887 30.4502 46.8887 28.7144V19.2859C46.8887 17.5501 45.4816 16.143 43.7458 16.143Z" fill="#D7DBDF"/>
<path fill-rule="evenodd" clip-rule="evenodd" d="M13.103 9.85714C13.103 8.55534 14.1584 7.5 15.4602 7.5H18.603H21.7459C23.0477 7.5 24.103 8.55534 24.103 9.85714C24.103 11.1589 23.0477 12.2143 21.7459 12.2143H20.9602V35.7857H21.7459C23.0477 35.7857 24.103 36.8411 24.103 38.1429C24.103 39.4446 23.0477 40.5 21.7459 40.5H18.603H15.4602C14.1584 40.5 13.103 39.4446 13.103 38.1429C13.103 36.8411 14.1584 35.7857 15.4602 35.7857H16.2459V12.2143H15.4602C14.1584 12.2143 13.103 11.1589 13.103 9.85714Z" fill="#3E63DD"/>
</svg>
