<svg width="49" height="48" viewBox="0 0 49 48" fill="none" xmlns="http://www.w3.org/2000/svg">
<path fill-rule="evenodd" clip-rule="evenodd" d="M4.46012 2C4.00054 2 3.56399 2.20119 3.26543 2.55058C2.96688 2.89998 2.83624 3.36256 2.90791 3.81651L7.6222 33.6738C7.68873 34.0952 7.92376 34.4714 8.27324 34.7159L23.9876 45.716C24.5286 46.0947 25.2488 46.0947 25.7899 45.716L41.5041 34.7159C41.8536 34.4714 42.0887 34.0952 42.1553 33.6738L46.8696 3.81651C46.9412 3.36256 46.8105 2.89998 46.5119 2.55058C46.2134 2.20119 45.7768 2 45.3173 2H4.46012Z" fill="#D7DBDF"/>
<path fill-rule="evenodd" clip-rule="evenodd" d="M14.5361 10.0038C14.9092 9.54863 15.4666 9.28479 16.0551 9.28479H33.722C34.8069 9.28479 35.6863 10.1642 35.6863 11.2491C35.6863 12.3339 34.8069 13.2134 33.722 13.2134H18.4512L19.4321 18.1182H31.9553C33.0402 18.1182 33.9196 18.9977 33.9196 20.0825V28.916C33.9196 29.5343 33.6285 30.1164 33.1339 30.4874L26.0671 35.7874C25.3687 36.3113 24.4084 36.3113 23.71 35.7874L16.6432 30.4874C15.7754 29.8365 15.5995 28.6053 16.2504 27.7374C16.9013 26.8695 18.1325 26.6936 19.0004 27.3445L24.8886 31.7607L29.991 27.9338V22.0468H17.8218C16.8855 22.0468 16.0793 21.3859 15.8957 20.4678L14.129 11.6343C14.0136 11.0572 14.163 10.4588 14.5361 10.0038Z" fill="#3E63DD"/>
</svg>
