<svg width="20" height="12" viewBox="0 0 20 12" fill="none" xmlns="http://www.w3.org/2000/svg">
<path d="M5.71429 0C4.19876 0 2.74531 0.602039 1.67368 1.67368C0.602039 2.74531 0 4.19876 0 5.71429C0 7.22981 0.602039 8.68326 1.67368 9.7549C2.74531 10.8265 4.19876 11.4286 5.71429 11.4286H14.2857C15.8012 11.4286 17.2547 10.8265 18.3263 9.7549C19.398 8.68326 20 7.22981 20 5.71429C20 4.19876 19.398 2.74531 18.3263 1.67368C17.2547 0.602039 15.8012 0 14.2857 0H5.71429ZM14.2857 8.57143C13.528 8.57143 12.8012 8.27041 12.2654 7.73459C11.7296 7.19877 11.4286 6.47205 11.4286 5.71429C11.4286 4.95652 11.7296 4.2298 12.2654 3.69398C12.8012 3.15816 13.528 2.85714 14.2857 2.85714C15.0435 2.85714 15.7702 3.15816 16.306 3.69398C16.8418 4.2298 17.1429 4.95652 17.1429 5.71429C17.1429 6.47205 16.8418 7.19877 16.306 7.73459C15.7702 8.27041 15.0435 8.57143 14.2857 8.57143Z" fill="#61656F"/>
</svg>
