<svg width="49" height="48" viewBox="0 0 49 48" fill="none" xmlns="http://www.w3.org/2000/svg">
<path fill-rule="evenodd" clip-rule="evenodd" d="M24.8887 2C12.7384 2 2.88867 11.8497 2.88867 24C2.88867 36.1503 12.7384 46 24.8887 46C37.039 46 46.8887 36.1503 46.8887 24C46.8887 11.8497 37.039 2 24.8887 2Z" fill="#D7DBDF"/>
<path fill-rule="evenodd" clip-rule="evenodd" d="M17.2853 20.7818C15.5123 20.7757 14.0769 19.3364 14.0769 17.562C14.0769 15.7837 15.5184 14.3421 17.2967 14.3421L17.3101 14.3421C19.0822 14.3493 20.5166 15.7881 20.5166 17.562C20.5166 19.3403 19.075 20.7818 17.2967 20.7818L17.2853 20.7818ZM14.1812 27.0568C13.7473 27.0568 13.3955 27.4086 13.3955 27.8426C13.3955 29.579 14.2425 32.0454 16.0711 34.077C17.9259 36.1381 20.7991 37.7627 24.8381 37.7627C28.877 37.7627 31.7502 36.1381 33.605 34.077C35.4336 32.0454 36.2806 29.579 36.2806 27.8426C36.2806 27.4086 35.9289 27.0568 35.4949 27.0568H14.1812ZM32.473 20.7818C30.6982 20.7777 29.2607 19.3377 29.2607 17.562C29.2607 15.7837 30.7023 14.3421 32.4806 14.3421L32.4883 14.3421C34.263 14.3462 35.7004 15.7862 35.7004 17.562C35.7004 19.3403 34.2589 20.7818 32.4806 20.7818L32.473 20.7818Z" fill="#3E63DD"/>
</svg>
