<svg width="49" height="48" viewBox="0 0 49 48" fill="none" xmlns="http://www.w3.org/2000/svg">
<path d="M24.8887 35C30.9638 35 35.8887 30.0751 35.8887 24C35.8887 17.9249 30.9638 13 24.8887 13C18.8135 13 13.8887 17.9249 13.8887 24C13.8887 30.0751 18.8135 35 24.8887 35Z" fill="#3E63DD"/>
<path fill-rule="evenodd" clip-rule="evenodd" d="M7.83308 6.94441C7.98045 6.79707 8.1803 6.71429 8.38867 6.71429H13.103C14.4048 6.71429 15.4601 5.65895 15.4601 4.35714C15.4601 3.05533 14.4048 2 13.103 2H8.38867C6.92998 2 5.53104 2.57946 4.49958 3.61091C3.46814 4.64236 2.88867 6.04131 2.88867 7.5V12.2143C2.88867 13.5161 3.944 14.5714 5.24581 14.5714C6.54762 14.5714 7.60296 13.5161 7.60296 12.2143V7.5C7.60296 7.29163 7.68574 7.09177 7.83308 6.94441ZM46.8887 35.7857C46.8887 34.4839 45.8333 33.4286 44.5315 33.4286C43.2298 33.4286 42.1744 34.4839 42.1744 35.7857V40.5C42.1744 40.7084 42.0917 40.9083 41.9443 41.0557C41.7969 41.2031 41.597 41.2857 41.3887 41.2857H36.6744C35.3726 41.2857 34.3172 42.3411 34.3172 43.6429C34.3172 44.9446 35.3726 46 36.6744 46H41.3887C42.8473 46 44.2462 45.4205 45.2776 44.389C46.3091 43.3575 46.8887 41.9586 46.8887 40.5V35.7857ZM5.24581 33.4286C6.54762 33.4286 7.60296 34.4839 7.60296 35.7857V40.5C7.60296 40.7084 7.68574 40.9083 7.83308 41.0557C7.98045 41.2031 8.1803 41.2857 8.38867 41.2857H13.103C14.4048 41.2857 15.4601 42.3411 15.4601 43.6429C15.4601 44.9446 14.4048 46 13.103 46H8.38867C6.92998 46 5.53104 45.4205 4.49958 44.389C3.46814 43.3575 2.88867 41.9586 2.88867 40.5V35.7857C2.88867 34.4839 3.944 33.4286 5.24581 33.4286ZM36.6744 2C35.3726 2 34.3172 3.05533 34.3172 4.35714C34.3172 5.65895 35.3726 6.71429 36.6744 6.71429H41.3887C41.597 6.71429 41.7969 6.79707 41.9443 6.94441C42.0917 7.09177 42.1744 7.29163 42.1744 7.5V12.2143C42.1744 13.5161 43.2298 14.5714 44.5315 14.5714C45.8333 14.5714 46.8887 13.5161 46.8887 12.2143V7.5C46.8887 6.04131 46.3091 4.64236 45.2776 3.61091C44.2462 2.57946 42.8473 2 41.3887 2H36.6744Z" fill="#D7DBDF"/>
</svg>
