<?xml version="1.0" encoding="UTF-8"?>
<svg width="136px" height="106px" viewBox="0 0 136 106" version="1.1" xmlns="http://www.w3.org/2000/svg" xmlns:xlink="http://www.w3.org/1999/xlink">
    <title>image</title>
    <g id="Page-1" stroke="none" stroke-width="1" fill="none" fill-rule="evenodd">
        <g id="image" fill="#000000" fill-rule="nonzero">
            <path d="M132.071,105.351 L15.927,105.351 C13.994,105.351 12.427,103.784 12.427,101.851 C12.427,99.918 13.994,98.351 15.927,98.351 L128.572,98.351 L128.572,16.148 C128.572,14.215 130.139,12.648 132.072,12.648 C134.005,12.648 135.572,14.215 135.572,16.148 L135.572,101.851 C135.572,103.783 134.004,105.351 132.071,105.351 Z" id="Path"></path>
            <g id="Group">
                <path d="M1.449,92.319 C1.439,92.319 1.429,92.308 1.419,92.298 C1.349,92.229 1.279,92.149 1.219,92.069 C1.299,92.159 1.369,92.239 1.449,92.319 Z" id="Path"></path>
                <path d="M120.069,0.649 L3.929,0.649 C1.989,0.649 0.428642722,2.219 0.428642722,4.149 L0.428642722,89.848 C0.419,90.529 0.619,91.208 1.019,91.798 C1.079,91.899 1.149,91.979 1.219,92.069 C1.299,92.159 1.369,92.239 1.449,92.319 C1.889,92.768 2.419,93.058 2.979,93.209 C3.069,93.239 3.159,93.269 3.249,93.279 C3.479,93.329 3.699,93.348 3.929,93.348 L120.069,93.348 C121.999,93.348 123.569,91.779 123.569,89.848 L123.569,4.149 C123.569,2.22 121.999,0.649 120.069,0.649 Z M116.57,86.349 L12.509,86.349 L41.559,57.969 L54.329,73.539 C54.949,74.299 55.859,74.768 56.839,74.819 C57.819,74.869 58.779,74.508 59.479,73.829 L94.759,39.35 L116.57,64.07 L116.57,86.349 L116.57,86.349 Z M116.569,53.489 L97.569,31.959 C96.939,31.239 96.039,30.81 95.079,30.779 C94.099,30.739 93.189,31.099 92.499,31.769 L57.319,66.149 L44.549,50.579 C43.929,49.819 43.019,49.359 42.039,49.309 C41.049,49.258 40.099,49.609 39.399,50.298 L7.429,81.538 L7.429,7.648 L116.569,7.648 L116.569,53.489 Z" id="Shape"></path>
            </g>
            <path d="M58.063,47.298 C50.068,47.298 43.563,40.793 43.563,32.798 C43.563,24.803 50.068,18.298 58.063,18.298 C66.058,18.298 72.563,24.803 72.563,32.798 C72.563,40.793 66.058,47.298 58.063,47.298 Z M58.063,25.298 C53.927,25.298 50.563,28.662 50.563,32.798 C50.563,36.934 53.927,40.298 58.063,40.298 C62.199,40.298 65.563,36.934 65.563,32.798 C65.563,28.662 62.198,25.298 58.063,25.298 Z" id="Shape"></path>
        </g>
    </g>
</svg>