<svg width="21" height="18" viewBox="0 0 21 18" fill="none" xmlns="http://www.w3.org/2000/svg">
<path d="M7.50244 5.875C7.50244 6.37228 7.3049 6.84919 6.95327 7.20083C6.60164 7.55246 6.12472 7.75 5.62744 7.75C5.13016 7.75 4.65325 7.55246 4.30162 7.20083C3.94999 6.84919 3.75244 6.37228 3.75244 5.875C3.75244 5.37772 3.94999 4.90081 4.30162 4.54917C4.65325 4.19754 5.13016 4 5.62744 4C6.12472 4 6.60164 4.19754 6.95327 4.54917C7.3049 4.90081 7.50244 5.37772 7.50244 5.875Z" fill="#61656F"/>
<path d="M2.50244 0.25C1.8394 0.25 1.20352 0.513392 0.734674 0.982233C0.265834 1.45107 0.00244141 2.08696 0.00244141 2.75V15.25C0.00244141 15.913 0.265834 16.5489 0.734674 17.0178C1.20352 17.4866 1.8394 17.75 2.50244 17.75H17.5024C18.1655 17.75 18.8014 17.4866 19.2702 17.0178C19.739 16.5489 20.0024 15.913 20.0024 15.25V2.75C20.0024 2.08696 19.739 1.45107 19.2702 0.982233C18.8014 0.513392 18.1655 0.25 17.5024 0.25H2.50244ZM17.5024 1.5C17.834 1.5 18.1519 1.6317 18.3863 1.86612C18.6207 2.10054 18.7524 2.41848 18.7524 2.75V10.875L14.0312 8.44125C13.914 8.38253 13.7812 8.36216 13.6518 8.38302C13.5224 8.40388 13.4028 8.46492 13.3099 8.5575L8.67244 13.195L5.34744 10.98C5.22739 10.9001 5.08339 10.8641 4.93986 10.8783C4.79634 10.8924 4.66211 10.9557 4.55994 11.0575L1.25244 14V2.75C1.25244 2.41848 1.38414 2.10054 1.61856 1.86612C1.85298 1.6317 2.17092 1.5 2.50244 1.5H17.5024Z" fill="#61656F"/>
</svg>
