<svg width="49" height="48" viewBox="0 0 49 48" fill="none" xmlns="http://www.w3.org/2000/svg">
<path d="M42.1744 46C44.7779 46 46.8887 43.8893 46.8887 41.2857V6.71429C46.8887 4.11066 44.7779 2 42.1744 2H7.60296C4.99933 2 2.88867 4.11066 2.88867 6.71429V41.2857C2.88867 43.8893 4.99933 46 7.60296 46H42.1744Z" fill="#D7DBDF"/>
<path d="M33.9312 20.2351C36.9687 20.2351 39.4312 17.7727 39.4312 14.7351C39.4312 11.6975 36.9687 9.23511 33.9312 9.23511C30.8936 9.23511 28.4312 11.6975 28.4312 14.7351C28.4312 17.7727 30.8936 20.2351 33.9312 20.2351Z" fill="#3E63DD"/>
<path d="M9.86033 26.3093C14.5785 26.1945 19.2066 27.885 22.9164 31.1214C25.9491 33.7671 28.2076 37.3081 29.4213 41.3093H8.3653C7.93137 41.3093 7.57959 40.9576 7.57959 40.5236V26.4267C8.31587 26.3468 9.0557 26.3079 9.79622 26.31L9.86033 26.3093Z" fill="#3E63DD"/>
<path d="M42.1984 40.6409C42.1984 41.0102 41.8989 41.3094 41.5299 41.3094H34.3099C33.5558 38.2771 32.3063 35.4187 30.6265 32.8646C33.1137 32.1928 35.6987 31.8521 38.3025 31.8572C39.6084 31.8566 40.9105 31.9439 42.1984 32.1177V40.6409Z" fill="#3E63DD"/>
</svg>
