<svg width="20" height="20" viewBox="0 0 20 20" fill="none" xmlns="http://www.w3.org/2000/svg">
<g clip-path="url(#clip0_640_18031)">
<path d="M7.50244 6.875C7.50244 7.37228 7.3049 7.84919 6.95327 8.20083C6.60164 8.55246 6.12472 8.75 5.62744 8.75C5.13016 8.75 4.65325 8.55246 4.30162 8.20083C3.94999 7.84919 3.75244 7.37228 3.75244 6.875C3.75244 6.37772 3.94999 5.90081 4.30162 5.54917C4.65325 5.19754 5.13016 5 5.62744 5C6.12472 5 6.60164 5.19754 6.95327 5.54917C7.3049 5.90081 7.50244 6.37772 7.50244 6.875V6.875Z" fill="#61656F"/>
<path d="M2.50244 1.25C1.8394 1.25 1.20352 1.51339 0.734674 1.98223C0.265834 2.45107 0.00244141 3.08696 0.00244141 3.75V16.25C0.00244141 16.913 0.265834 17.5489 0.734674 18.0178C1.20352 18.4866 1.8394 18.75 2.50244 18.75H17.5024C18.1655 18.75 18.8014 18.4866 19.2702 18.0178C19.7391 17.5489 20.0024 16.913 20.0024 16.25V3.75C20.0024 3.08696 19.7391 2.45107 19.2702 1.98223C18.8014 1.51339 18.1655 1.25 17.5024 1.25H2.50244V1.25ZM17.5024 2.5C17.834 2.5 18.1519 2.6317 18.3863 2.86612C18.6207 3.10054 18.7524 3.41848 18.7524 3.75V11.875L14.0312 9.44125C13.914 9.38253 13.7812 9.36216 13.6518 9.38302C13.5224 9.40388 13.4028 9.46492 13.3099 9.5575L8.67244 14.195L5.34744 11.98C5.22739 11.9001 5.08339 11.8641 4.93986 11.8783C4.79634 11.8924 4.66211 11.9557 4.55994 12.0575L1.25244 15V3.75C1.25244 3.41848 1.38414 3.10054 1.61856 2.86612C1.85298 2.6317 2.17092 2.5 2.50244 2.5H17.5024Z" fill="#61656F"/>
</g>
<defs>
<clipPath id="clip0_640_18031">
<rect width="20" height="20" fill="white"/>
</clipPath>
</defs>
</svg>
