<svg width="49" height="48" viewBox="0 0 49 48" fill="none" xmlns="http://www.w3.org/2000/svg">
<path d="M20.452 3.5585H6.55534C5.58288 3.5585 4.65025 3.94481 3.96261 4.63244C3.27498 5.32008 2.88867 6.25271 2.88867 7.22517L2.88867 14.0452H24.1187V7.22517C24.1187 6.25271 23.7324 5.32008 23.0447 4.63244C22.3571 3.94481 21.4245 3.5585 20.452 3.5585ZM17.8303 11.1668C17.4002 11.1667 16.9798 11.0383 16.6229 10.7981C16.2661 10.5578 15.989 10.2167 15.827 9.81817C15.665 9.41966 15.6255 8.98189 15.7135 8.56082C15.8015 8.13974 16.0131 7.75447 16.3212 7.45423C16.6292 7.15399 17.0198 6.95241 17.443 6.87525C17.8662 6.79809 18.3028 6.84886 18.697 7.02106C19.0912 7.19327 19.4252 7.47909 19.6561 7.84201C19.8871 8.20492 20.0046 8.62846 19.9937 9.0585C19.9793 9.62267 19.7451 10.1589 19.3409 10.5528C18.9368 10.9467 18.3947 11.167 17.8303 11.1668Z" fill="#D7DBDF"/>
<path d="M2.88867 17.3818V37.2368H24.1187V17.3818H2.88867ZM18.8753 32.3235H14.677C14.3123 32.3235 13.9626 32.1786 13.7047 31.9208C13.4469 31.6629 13.302 31.3132 13.302 30.9485C13.302 30.5838 13.4469 30.2341 13.7047 29.9762C13.9626 29.7184 14.3123 29.5735 14.677 29.5735H18.8753C19.24 29.5735 19.5897 29.7184 19.8476 29.9762C20.1055 30.2341 20.2503 30.5838 20.2503 30.9485C20.2503 31.3132 20.1055 31.6629 19.8476 31.9208C19.5897 32.1786 19.24 32.3235 18.8753 32.3235ZM18.8753 26.4935H8.38867C8.024 26.4935 7.67426 26.3486 7.4164 26.0908C7.15854 25.8329 7.01367 25.4832 7.01367 25.1185C7.01367 24.7538 7.15854 24.4041 7.4164 24.1462C7.67426 23.8884 8.024 23.7435 8.38867 23.7435H18.8753C19.24 23.7435 19.5897 23.8884 19.8476 24.1462C20.1055 24.4041 20.2503 24.7538 20.2503 25.1185C20.2503 25.4832 20.1055 25.8329 19.8476 26.0908C19.5897 26.3486 19.24 26.4935 18.8753 26.4935Z" fill="#D7DBDF"/>
<path d="M43.2222 3.5585H32.7355C31.7631 3.5585 30.8304 3.94481 30.1428 4.63244C29.4552 5.32008 29.0688 6.25271 29.0688 7.22517V14.0452H46.8888V7.22517C46.8888 6.25271 46.5025 5.32008 45.8149 4.63244C45.1273 3.94481 44.1946 3.5585 43.2222 3.5585ZM40.6005 11.1668C40.1726 11.1668 39.7544 11.04 39.3986 10.8022C39.0429 10.5645 38.7656 10.2267 38.6019 9.83137C38.4381 9.43608 38.3953 9.0011 38.4788 8.58146C38.5622 8.16181 38.7683 7.77634 39.0708 7.47379C39.3734 7.17125 39.7588 6.96521 40.1785 6.88174C40.5981 6.79826 41.0331 6.84111 41.4284 7.00484C41.8237 7.16858 42.1615 7.44586 42.3993 7.80162C42.637 8.15738 42.7638 8.57563 42.7638 9.0035C42.7638 9.57725 42.5359 10.1275 42.1302 10.5332C41.7245 10.9389 41.1743 11.1668 40.6005 11.1668Z" fill="#D7DBDF"/>
<path d="M29.0688 17.3818V30.9485H46.8888V17.3818H29.0688ZM41.6455 26.0352H34.3122C33.9475 26.0352 33.5978 25.8903 33.3399 25.6324C33.082 25.3746 32.9372 25.0248 32.9372 24.6602C32.9372 24.2955 33.082 23.9458 33.3399 23.6879C33.5978 23.43 33.9475 23.2852 34.3122 23.2852H41.6455C42.0102 23.2852 42.3599 23.43 42.6178 23.6879C42.8756 23.9458 43.0205 24.2955 43.0205 24.6602C43.0205 25.0248 42.8756 25.3746 42.6178 25.6324C42.3599 25.8903 42.0102 26.0352 41.6455 26.0352Z" fill="#D7DBDF"/>
<path d="M46.8888 34.1568H29.0688V44.4418H46.8888V34.1568Z" fill="#D7DBDF"/>
<path fill-rule="evenodd" clip-rule="evenodd" d="M16.6227 10.7934C16.9796 11.0336 17.3999 11.162 17.8301 11.1621C18.3945 11.1623 18.9365 10.942 19.3407 10.5481C19.7449 10.1542 19.9791 9.61798 19.9934 9.05381C20.0044 8.62377 19.8869 8.20024 19.6559 7.83732C19.4249 7.4744 19.091 7.18858 18.6968 7.01637C18.3026 6.84417 17.866 6.79341 17.4428 6.87056C17.0196 6.94772 16.629 7.1493 16.3209 7.44954C16.0129 7.74978 15.8013 8.13505 15.7133 8.55613C15.6252 8.97721 15.6647 9.41497 15.8267 9.81348C15.9887 10.212 16.2659 10.5532 16.6227 10.7934Z" fill="#3E63DD"/>
<path fill-rule="evenodd" clip-rule="evenodd" d="M14.677 32.3192H18.8753C19.24 32.3192 19.5897 32.1744 19.8476 31.9165C20.1055 31.6586 20.2503 31.3089 20.2503 30.9442C20.2503 30.5796 20.1055 30.2298 19.8476 29.972C19.5897 29.7141 19.24 29.5692 18.8753 29.5692H14.677C14.3123 29.5692 13.9626 29.7141 13.7047 29.972C13.4469 30.2298 13.302 30.5796 13.302 30.9442C13.302 31.3089 13.4469 31.6586 13.7047 31.9165C13.9626 32.1744 14.3123 32.3192 14.677 32.3192ZM8.38867 26.4892H18.8753C19.24 26.4892 19.5897 26.3444 19.8476 26.0865C20.1055 25.8286 20.2503 25.4789 20.2503 25.1142C20.2503 24.7496 20.1055 24.3998 19.8476 24.142C19.5897 23.8841 19.24 23.7392 18.8753 23.7392H8.38867C8.024 23.7392 7.67426 23.8841 7.4164 24.142C7.15854 24.3998 7.01367 24.7496 7.01367 25.1142C7.01367 25.4789 7.15854 25.8286 7.4164 26.0865C7.67426 26.3444 8.024 26.4892 8.38867 26.4892Z" fill="#3E63DD"/>
<path fill-rule="evenodd" clip-rule="evenodd" d="M39.3985 10.7975C39.7542 11.0352 40.1725 11.1621 40.6003 11.1621C41.1741 11.1621 41.7244 10.9342 42.1301 10.5285C42.5358 10.1228 42.7637 9.5725 42.7637 8.99875C42.7637 8.57089 42.6368 8.15263 42.3991 7.79687C42.1614 7.44111 41.8235 7.16383 41.4282 7.00009C41.0329 6.83636 40.5979 6.79351 40.1783 6.87699C39.7587 6.96046 39.3732 7.1665 39.0706 7.46905C38.7681 7.77159 38.5621 8.15706 38.4786 8.57671C38.3951 8.99635 38.4379 9.43133 38.6017 9.82662C38.7654 10.2219 39.0427 10.5598 39.3985 10.7975Z" fill="#3E63DD"/>
<path fill-rule="evenodd" clip-rule="evenodd" d="M34.312 26.0309H41.6453C42.01 26.0309 42.3598 25.886 42.6176 25.6282C42.8755 25.3703 43.0203 25.0206 43.0203 24.6559C43.0203 24.2912 42.8755 23.9415 42.6176 23.6836C42.3598 23.4258 42.01 23.2809 41.6453 23.2809H34.312C33.9473 23.2809 33.5976 23.4258 33.3397 23.6836C33.0819 23.9415 32.937 24.2912 32.937 24.6559C32.937 25.0206 33.0819 25.3703 33.3397 25.6282C33.5976 25.886 33.9473 26.0309 34.312 26.0309Z" fill="#3E63DD"/>
</svg>
