<svg width="49" height="48" viewBox="0 0 49 48" fill="none" xmlns="http://www.w3.org/2000/svg">
<path d="M40.9736 7.91518C39.3724 6.31399 36.7764 6.31399 35.1751 7.91518L33.3413 9.74907C32.4208 10.6696 30.9283 10.6696 30.0078 9.74907C29.0873 8.82856 29.0873 7.33608 30.0078 6.41556L31.8417 4.58166C35.2838 1.13944 40.8649 1.13945 44.307 4.58166C47.7493 8.02386 47.7493 13.6048 44.307 17.047L42.4731 18.8809C41.5526 19.8015 40.06 19.8015 39.1395 18.8809C38.2192 17.9604 38.2192 16.4679 39.1395 15.5474L40.9736 13.7135C42.5746 12.1123 42.5746 9.51634 40.9736 7.91518Z" fill="#3E63DD"/>
<path d="M36.7821 12.1066C37.7023 13.0271 37.7023 14.5196 36.7821 15.4401L31.9248 20.2973C31.0043 21.2178 29.5118 21.2178 28.5913 20.2973C27.6708 19.3768 27.6708 17.8843 28.5913 16.9638L33.4485 12.1066C34.369 11.1861 35.8615 11.1861 36.7821 12.1066Z" fill="#3E63DD"/>
<path d="M26.3521 16.7384C27.2726 15.8179 27.2726 14.3254 26.3521 13.4049C25.4316 12.4843 23.9391 12.4843 23.0186 13.4049L21.1847 15.2388C17.7425 18.681 17.7425 24.2619 21.1847 27.7041C24.6269 31.1463 30.2078 31.1463 33.65 27.7041L35.484 25.8702C36.4045 24.9497 36.4045 23.4572 35.484 22.5367C34.5634 21.6162 33.071 21.6162 32.1504 22.5367L30.3165 24.3706C28.7154 25.9718 26.1194 25.9718 24.5182 24.3706C22.917 22.7695 22.917 20.1735 24.5182 18.5723L26.3521 16.7384Z" fill="#3E63DD"/>
<path fill-rule="evenodd" clip-rule="evenodd" d="M18.4065 30.4819C23.3829 35.4582 31.4513 35.4582 36.4277 30.4819L37.4602 29.4495V41.2857C37.4602 43.8893 35.3494 46 32.7459 46H7.60296C4.99933 46 2.88867 43.8893 2.88867 41.2857V16.1428C2.88867 13.5392 4.99933 11.4285 7.60296 11.4285H19.4388L18.4065 12.4607C13.4301 17.4372 13.4301 25.5055 18.4065 30.4819Z" fill="#D7DBDF"/>
</svg>
