<svg width="49" height="48" viewBox="0 0 49 48" fill="none" xmlns="http://www.w3.org/2000/svg">
<path fill-rule="evenodd" clip-rule="evenodd" d="M6.03152 3.56982C4.29577 3.56982 2.88867 4.97693 2.88867 6.71267V19.2856C2.88867 21.0214 4.29577 22.4285 6.03152 22.4285H18.6029C20.3387 22.4285 21.7458 21.0214 21.7458 19.2856V6.71267C21.7458 4.97693 20.3387 3.56982 18.6029 3.56982H6.03152ZM6.03152 25.5698C4.29577 25.5698 2.88867 26.9769 2.88867 28.7126V41.2856C2.88867 43.0214 4.29577 44.4284 6.03152 44.4284H18.6029C20.3387 44.4284 21.7458 43.0214 21.7458 41.2856V28.7126C21.7458 26.9769 20.3387 25.5698 18.6029 25.5698H6.03152Z" fill="#3E63DD"/>
<path fill-rule="evenodd" clip-rule="evenodd" d="M26.46 5.14278C26.46 3.84097 27.5153 2.78564 28.8171 2.78564H44.5314C45.8331 2.78564 46.8885 3.84097 46.8885 5.14278C46.8885 6.44458 45.8331 7.49992 44.5314 7.49992H28.8171C27.5153 7.49992 26.46 6.44458 26.46 5.14278ZM26.46 14.5713C26.46 13.2695 27.5153 12.2142 28.8171 12.2142H44.5314C45.8331 12.2142 46.8885 13.2695 46.8885 14.5713C46.8885 15.8731 45.8331 16.9285 44.5314 16.9285H28.8171C27.5153 16.9285 26.46 15.8731 26.46 14.5713ZM28.8171 21.6428C27.5153 21.6428 26.46 22.6981 26.46 23.9999C26.46 25.3017 27.5153 26.357 28.8171 26.357H44.5314C45.8331 26.357 46.8885 25.3017 46.8885 23.9999C46.8885 22.6981 45.8331 21.6428 44.5314 21.6428H28.8171ZM26.46 33.4285C26.46 32.1267 27.5153 31.0713 28.8171 31.0713H44.5314C45.8331 31.0713 46.8885 32.1267 46.8885 33.4285C46.8885 34.7302 45.8331 35.7856 44.5314 35.7856H28.8171C27.5153 35.7856 26.46 34.7302 26.46 33.4285ZM28.8171 40.4999C27.5153 40.4999 26.46 41.5552 26.46 42.857C26.46 44.1588 27.5153 45.2142 28.8171 45.2142H44.5314C45.8331 45.2142 46.8885 44.1588 46.8885 42.857C46.8885 41.5552 45.8331 40.4999 44.5314 40.4999H28.8171Z" fill="#D7DBDF"/>
</svg>
