<svg width="20" height="20" viewBox="0 0 20 20" fill="none" xmlns="http://www.w3.org/2000/svg">
<path d="M12.5 12.5H15.8333L18.3333 18.3333H1.66663L4.16663 12.5H7.49996H12.5ZM10.8333 6.66663C10.8333 6.88764 10.7455 7.0996 10.5892 7.25588C10.4329 7.41216 10.221 7.49996 9.99996 7.49996C9.77895 7.49996 9.56698 7.41216 9.4107 7.25588C9.25442 7.0996 9.16663 6.88764 9.16663 6.66663C9.16663 6.44561 9.25442 6.23365 9.4107 6.07737C9.56698 5.92109 9.77895 5.83329 9.99996 5.83329C10.221 5.83329 10.4329 5.92109 10.5892 6.07737C10.7455 6.23365 10.8333 6.44561 10.8333 6.66663ZM4.99996 6.66663C4.99996 10.8333 9.99996 15 9.99996 15C9.99996 15 15 10.8333 15 6.66663C15 3.81913 12.7616 1.66663 9.99996 1.66663C7.23829 1.66663 4.99996 3.81913 4.99996 6.66663Z" stroke="#61656F" stroke-width="2"/>
</svg>
