<svg width="49" height="48" viewBox="0 0 49 48" fill="none" xmlns="http://www.w3.org/2000/svg">
<path fill-rule="evenodd" clip-rule="evenodd" d="M24.8887 2C12.7384 2 2.88867 11.8497 2.88867 24C2.88867 36.1503 12.7384 46 24.8887 46C37.039 46 46.8887 36.1503 46.8887 24C46.8887 11.8497 37.039 2 24.8887 2Z" fill="#D7DBDF"/>
<path fill-rule="evenodd" clip-rule="evenodd" d="M33.9776 14.9109C34.3492 15.2824 34.5104 15.815 34.4074 16.3303L32.0981 27.8761C32.0925 27.8703 32.0869 27.8647 32.0812 27.859L21.0294 16.8072C21.0238 16.8015 21.0181 16.7959 21.0124 16.7903L32.5582 14.4812C33.0734 14.3781 33.6061 14.5394 33.9776 14.9109ZM17.6791 20.1237L15.3699 31.6695C15.2668 32.1847 15.4281 32.7173 15.7996 33.0888C16.1712 33.4605 16.7038 33.6217 17.219 33.5186L28.7648 31.2094C28.7591 31.2038 28.7534 31.1982 28.7477 31.1925L17.6959 20.1407C17.6903 20.135 17.6846 20.1294 17.6791 20.1237Z" fill="#3E63DD"/>
</svg>
