<?xml version="1.0" encoding="UTF-8"?>
<svg width="144px" height="132px" viewBox="0 0 144 132" version="1.1" xmlns="http://www.w3.org/2000/svg" xmlns:xlink="http://www.w3.org/1999/xlink">
    <title>map</title>
    <g id="Page-1" stroke="none" stroke-width="1" fill="none" fill-rule="evenodd">
        <g id="map" fill="#000000" fill-rule="nonzero">
            <path d="M73.063,49.489 C65.713,49.489 59.734,43.51 59.734,36.161 C59.734,28.813 65.713,22.835 73.063,22.835 C80.413,22.835 86.391,28.814 86.391,36.161 C86.391,43.51 80.412,49.489 73.063,49.489 Z M73.063,29.835 C69.573,29.835 66.734,32.673 66.734,36.161 C66.734,39.649 69.573,42.489 73.063,42.489 C76.553,42.489 79.391,39.649 79.391,36.161 C79.391,32.673 76.553,29.835 73.063,29.835 Z" id="Shape"></path>
            <path d="M143.035,127.648 L130.744,67.259 C130.506,66.1 129.705,65.139 128.615,64.709 L101.074,53.67 C104.625,46.67 106.984,39.649 106.984,34.069 C106.984,15.369 91.765,0.149 73.064,0.149 C54.355,0.149 39.135,15.369 39.135,34.069 C39.135,39.269 41.055,45.92 44.494,53.029 L15.385,64.709 C14.295,65.139 13.494,66.1 13.254,67.259 L0.965,127.648 C0.705,128.919 1.174,130.228 2.174,131.048 C2.815,131.579 3.595,131.849 4.395,131.849 C4.855,131.849 5.305,131.759 5.745,131.579 L38.966,117.759 L70.806,131.529 C70.876,131.558 70.946,131.59 71.016,131.609 C71.085,131.648 71.156,131.67 71.226,131.689 C71.276,131.709 71.326,131.718 71.376,131.728 C71.495,131.769 71.626,131.789 71.755,131.808 C71.766,131.808 71.776,131.818 71.796,131.808 C71.956,131.839 72.115,131.849 72.275,131.849 C72.445,131.849 72.615,131.839 72.775,131.808 C72.924,131.788 73.074,131.759 73.225,131.718 C73.405,131.669 73.575,131.609 73.745,131.529 L105.255,117.849 L138.257,131.579 C138.696,131.759 139.146,131.849 139.607,131.849 C140.406,131.849 141.197,131.579 141.826,131.048 C142.824,130.229 143.295,128.92 143.035,127.648 Z M35.036,111.809 L9.145,122.59 L19.745,70.5 L42.745,61.271 L35.036,111.809 Z M68.775,123.029 L42.275,111.558 L49.715,62.379 C50.404,63.449 51.125,64.529 51.864,65.609 C54.334,69.178 61.824,79.428 68.774,82.909 L68.774,123.029 L68.775,123.029 Z M73.016,77.07 C68.105,76.84 46.136,50.41 46.136,34.07 C46.136,19.229 58.216,7.15 73.065,7.15 C87.905,7.15 99.985,19.229 99.985,34.07 C99.984,49.44 78.004,76.17 73.016,77.07 Z M75.775,123.02 L75.775,83.459 C81.084,81.309 88.423,73.67 94.664,64.5 L101.865,111.689 L75.775,123.02 Z M109.275,111.939 L108.964,111.808 L101.253,61.27 L101.493,61.37 L124.255,70.5 L134.855,122.59 L109.275,111.939 Z" id="Shape"></path>
        </g>
    </g>
</svg>