<svg width="49" height="48" viewBox="0 0 49 48" fill="none" xmlns="http://www.w3.org/2000/svg">
<path fill-rule="evenodd" clip-rule="evenodd" d="M17.1629 2.00056L41.4687 2C44.4621 2 46.8886 4.41422 46.8886 7.39234V27.9234C46.8886 30.9015 44.4621 33.3157 41.4687 33.3157H36.928V27.8531C36.928 22.6909 32.7218 18.5061 27.5334 18.5061L11.7432 18.5066V7.39287C11.7432 4.4148 14.1697 2.00059 17.1629 2.00056Z" fill="#D7DBDF"/>
<path d="M41.4687 2L17.1629 2.00056C14.1697 2.00059 11.7432 4.4148 11.7432 7.39287V11.3976H46.8886V7.39234C46.8886 4.41422 44.4618 2 41.4687 2Z" fill="#3E63DD"/>
<path fill-rule="evenodd" clip-rule="evenodd" d="M27.5331 22.4607L8.30838 22.4613C5.31519 22.4613 2.88867 24.8755 2.88867 27.8536V40.6077C2.88867 43.5857 5.31516 45.9999 8.30838 45.9999L27.5332 45.9993C30.5264 45.9993 32.9529 43.5851 32.9529 40.6071V27.853C32.9529 24.8749 30.5264 22.4607 27.5331 22.4607Z" fill="#D7DBDF"/>
<path d="M27.5331 22.4607L8.30838 22.4613C5.3152 22.4613 2.88867 24.8755 2.88867 27.8536V31.9616H32.9529V27.853C32.9529 24.8749 30.5264 22.4607 27.5331 22.4607Z" fill="#3E63DD"/>
</svg>
