<?xml version="1.0" encoding="UTF-8"?>
<svg width="156px" height="122px" viewBox="0 0 156 122" version="1.1" xmlns="http://www.w3.org/2000/svg" xmlns:xlink="http://www.w3.org/1999/xlink">
    <title>modal</title>
    <g id="Page-1" stroke="none" stroke-width="1" fill="none" fill-rule="evenodd">
        <g id="modal" fill="#000000" fill-rule="nonzero">
            <path d="M152.47,0.83 L3.53,0.83 C1.6,0.83 0.03,2.4 0.03,4.33 L0.03,117.67 C0.03,119.6 1.6,121.17 3.53,121.17 L152.47,121.17 C154.401,121.17 155.97,119.6 155.97,117.67 L155.97,4.33 C155.97,2.4 154.4,0.83 152.47,0.83 Z M7.03,7.83 L148.97,7.83 L148.97,29.17 L7.03,29.17 L7.03,7.83 Z M148.97,114.17 L7.03,114.17 L7.03,36.17 L148.97,36.17 L148.97,114.17 Z" id="Shape"></path>
            <path d="M136.184,22 L134.934,22 C133.001,22 131.434,20.433 131.434,18.5 C131.434,16.567 133.001,15 134.934,15 L136.184,15 C138.117,15 139.684,16.567 139.684,18.5 C139.684,20.433 138.116,22 136.184,22 Z" id="Path"></path>
            <path d="M124.184,22 L122.934,22 C121.001,22 119.434,20.433 119.434,18.5 C119.434,16.567 121.001,15 122.934,15 L124.184,15 C126.117,15 127.684,16.567 127.684,18.5 C127.684,20.433 126.116,22 124.184,22 Z" id="Path"></path>
            <path d="M112.184,22 L110.934,22 C109.001,22 107.434,20.433 107.434,18.5 C107.434,16.567 109.001,15 110.934,15 L112.184,15 C114.117,15 115.684,16.567 115.684,18.5 C115.684,20.433 114.116,22 112.184,22 Z" id="Path"></path>
            <g id="Group" transform="translate(26.000000, 71.000000)">
                <path d="M17.75,7.666 L3.75,7.666 C1.817,7.666 0.25,6.099 0.25,4.166 C0.25,2.233 1.817,0.666 3.75,0.666 L17.75,0.666 C19.683,0.666 21.25,2.233 21.25,4.166 C21.25,6.099 19.683,7.666 17.75,7.666 Z" id="Path"></path>
                <path d="M100.25,7.666 L38.25,7.666 C36.317,7.666 34.75,6.099 34.75,4.166 C34.75,2.233 36.317,0.666 38.25,0.666 L100.25,0.666 C102.183,0.666 103.75,2.233 103.75,4.166 C103.75,6.099 102.183,7.666 100.25,7.666 Z" id="Path"></path>
            </g>
            <g id="Group" transform="translate(26.000000, 51.000000)">
                <g id="Path">
                    <path d="M17.75,7.667 L3.75,7.667 C1.817,7.667 0.25,6.1 0.25,4.167 C0.25,2.234 1.817,0.667 3.75,0.667 L17.75,0.667 C19.683,0.667 21.25,2.234 21.25,4.167 C21.25,6.1 19.683,7.667 17.75,7.667 Z"></path>
                    <path d="M100.25,7.667 L38.25,7.667 C36.317,7.667 34.75,6.1 34.75,4.167 C34.75,2.234 36.317,0.667 38.25,0.667 L100.25,0.667 C102.183,0.667 103.75,2.234 103.75,4.167 C103.75,6.1 102.183,7.667 100.25,7.667 Z"></path>
                </g>
                <g transform="translate(0.000000, 40.000000)" id="Path">
                    <path d="M17.75,7.666 L3.75,7.666 C1.817,7.666 0.25,6.099 0.25,4.166 C0.25,2.233 1.817,0.666 3.75,0.666 L17.75,0.666 C19.683,0.666 21.25,2.233 21.25,4.166 C21.25,6.099 19.683,7.666 17.75,7.666 Z"></path>
                    <path d="M100.25,7.666 L38.25,7.666 C36.317,7.666 34.75,6.099 34.75,4.166 C34.75,2.233 36.317,0.666 38.25,0.666 L100.25,0.666 C102.183,0.666 103.75,2.233 103.75,4.166 C103.75,6.099 102.183,7.666 100.25,7.666 Z"></path>
                </g>
            </g>
        </g>
    </g>
</svg>