<svg width="20" height="17" viewBox="0 0 20 17" fill="none" xmlns="http://www.w3.org/2000/svg">
<path d="M6.02536 0.307442C6.22223 0.504552 6.33281 0.771744 6.33281 1.05033C6.33281 1.32891 6.22223 1.5961 6.02536 1.79321L3.22203 4.59655C3.02492 4.79341 2.75773 4.90399 2.47914 4.90399C2.20056 4.90399 1.93337 4.79341 1.73626 4.59655L0.33459 3.19488C0.148897 2.9956 0.047804 2.73202 0.0526092 2.45967C0.0574145 2.18733 0.167743 1.92748 0.36035 1.73487C0.552958 1.54226 0.812806 1.43194 1.08515 1.42713C1.3575 1.42232 1.62108 1.52342 1.82036 1.70911L2.47914 2.36789L4.5396 0.307442C4.73671 0.110577 5.0039 0 5.28248 0C5.56106 0 5.82825 0.110577 6.02536 0.307442ZM7.38498 2.80241C7.38498 2.5236 7.49574 2.25621 7.69289 2.05906C7.89003 1.86192 8.15742 1.75116 8.43623 1.75116H18.9487C19.2276 1.75116 19.4949 1.86192 19.6921 2.05906C19.8892 2.25621 20 2.5236 20 2.80241C20 3.08122 19.8892 3.34861 19.6921 3.54576C19.4949 3.74291 19.2276 3.85366 18.9487 3.85366H8.43623C8.15742 3.85366 7.89003 3.74291 7.69289 3.54576C7.49574 3.34861 7.38498 3.08122 7.38498 2.80241ZM7.38498 8.7595C7.38498 8.48069 7.49574 8.2133 7.69289 8.01616C7.89003 7.81901 8.15742 7.70825 8.43623 7.70825H18.9487C19.2276 7.70825 19.4949 7.81901 19.6921 8.01616C19.8892 8.2133 20 8.48069 20 8.7595C20 9.03831 19.8892 9.3057 19.6921 9.50285C19.4949 9.7 19.2276 9.81075 18.9487 9.81075H8.43623C8.15742 9.81075 7.89003 9.7 7.69289 9.50285C7.49574 9.3057 7.38498 9.03831 7.38498 8.7595ZM6.02536 5.91412C6.22223 6.11123 6.33281 6.37842 6.33281 6.657C6.33281 6.93558 6.22223 7.20277 6.02536 7.39988L3.22203 10.2032C3.02492 10.4001 2.75773 10.5107 2.47914 10.5107C2.20056 10.5107 1.93337 10.4001 1.73626 10.2032L0.33459 8.80155C0.231306 8.70531 0.148464 8.58925 0.0910065 8.4603C0.0335494 8.33135 0.00265407 8.19214 0.000163604 8.05099C-0.00232686 7.90984 0.0236385 7.76963 0.0765109 7.63873C0.129383 7.50783 0.208079 7.38893 0.307904 7.2891C0.40773 7.18927 0.526638 7.11058 0.657538 7.05771C0.788437 7.00483 0.928645 6.97887 1.0698 6.98136C1.21095 6.98385 1.35015 7.01474 1.47911 7.0722C1.60806 7.12966 1.72412 7.2125 1.82036 7.31579L2.47914 7.97457L4.5396 5.91412C4.73671 5.71725 5.0039 5.60667 5.28248 5.60667C5.56106 5.60667 5.82825 5.71725 6.02536 5.91412ZM7.38498 14.7166C7.38498 14.4378 7.49574 14.1704 7.69289 13.9732C7.89003 13.7761 8.15742 13.6653 8.43623 13.6653H18.9487C19.2276 13.6653 19.4949 13.7761 19.6921 13.9732C19.8892 14.1704 20 14.4378 20 14.7166C20 14.9954 19.8892 15.2628 19.6921 15.4599C19.4949 15.6571 19.2276 15.7678 18.9487 15.7678H8.43623C8.15742 15.7678 7.89003 15.6571 7.69289 15.4599C7.49574 15.2628 7.38498 14.9954 7.38498 14.7166Z" fill="#61656F"/>
<path d="M6.33281 12.2637C6.33281 11.9851 6.22223 11.7179 6.02536 11.5208C5.82825 11.3239 5.56106 11.2133 5.28248 11.2133C5.0039 11.2133 4.73671 11.3239 4.5396 11.5208L2.47914 13.5812L1.82036 12.9225C1.72412 12.8192 1.60806 12.7363 1.47911 12.6789C1.35015 12.6214 1.21095 12.5905 1.0698 12.588C0.928645 12.5855 0.788437 12.6115 0.657538 12.6644C0.526638 12.7173 0.40773 12.7959 0.307904 12.8958C0.208079 12.9956 0.129383 13.1145 0.0765109 13.2454C0.0236385 13.3763 -0.00232686 13.5165 0.000163604 13.6577C0.00265407 13.7988 0.0335494 13.938 0.0910065 14.067C0.148464 14.1959 0.231306 14.312 0.33459 14.4082L1.73626 15.8099C1.93337 16.0068 2.20056 16.1173 2.47914 16.1173C2.75773 16.1173 3.02492 16.0068 3.22203 15.8099L6.02536 13.0066C6.22223 12.8094 6.33281 12.5423 6.33281 12.2637Z" fill="#61656F"/>
</svg>
