<svg width="49" height="48" viewBox="0 0 49 48" fill="none" xmlns="http://www.w3.org/2000/svg">
<path fill-rule="evenodd" clip-rule="evenodd" d="M13.8887 8.79948C13.8887 6.19588 15.9993 4.08521 18.603 4.08521H42.1744C44.7779 4.08521 46.8887 6.19588 46.8887 8.79948V16.914C46.8887 19.5176 44.7779 21.6282 42.1744 21.6282H18.603C15.9993 21.6282 13.8887 19.5176 13.8887 16.914V8.79948ZM13.8887 31.0861C13.8887 28.4825 15.9993 26.3718 18.603 26.3718H42.1744C44.7779 26.3718 46.8887 28.4825 46.8887 31.0861V39.2005C46.8887 41.804 44.7779 43.9148 42.1744 43.9148H18.603C15.9993 43.9148 13.8887 41.804 13.8887 39.2005V31.0861Z" fill="#D7DBDF"/>
<path fill-rule="evenodd" clip-rule="evenodd" d="M6.03153 4.08521C4.29578 4.08521 2.88867 5.49232 2.88867 7.22806C2.88867 8.96382 4.29578 10.3709 6.03153 10.3709C7.76727 10.3709 9.17439 8.96382 9.17439 7.22806C9.17439 5.49232 7.76727 4.08521 6.03153 4.08521ZM6.03153 26.3718C4.29578 26.3718 2.88867 27.7789 2.88867 29.5147C2.88867 31.2504 4.29578 32.6575 6.03153 32.6575C7.76727 32.6575 9.17439 31.2504 9.17439 29.5147C9.17439 27.7789 7.76727 26.3718 6.03153 26.3718Z" fill="#3E63DD"/>
</svg>
