<?xml version="1.0" encoding="UTF-8"?>
<svg width="120px" height="106px" viewBox="0 0 120 106" version="1.1" xmlns="http://www.w3.org/2000/svg" xmlns:xlink="http://www.w3.org/1999/xlink">
    <title>multiselect</title>
    <g id="Page-1" stroke="none" stroke-width="1" fill="none" fill-rule="evenodd">
        <g id="multiselect" fill="#000000" fill-rule="nonzero">
            <g id="Group" transform="translate(40.000000, 1.000000)">
                <path d="M75.539,6.999 L4.392,6.999 C2.458,6.999 0.892,5.433 0.892,3.499 C0.892,1.566 2.458,-0.001 4.392,-0.001 L75.539,-0.001 C77.472,-0.001 79.039,1.566 79.039,3.499 C79.039,5.433 77.472,6.999 75.539,6.999 Z" id="Path"></path>
                <path d="M39.966,21.999 L4.392,21.999 C2.458,21.999 0.892,20.433 0.892,18.499 C0.892,16.566 2.458,14.999 4.392,14.999 L39.966,14.999 C41.899,14.999 43.466,16.566 43.466,18.499 C43.466,20.433 41.898,21.999 39.966,21.999 Z" id="Path"></path>
            </g>
            <g id="Group" transform="translate(40.000000, 42.000000)">
                <path d="M75.539,6.999 L4.392,6.999 C2.458,6.999 0.892,5.433 0.892,3.499 C0.892,1.566 2.458,-0.001 4.392,-0.001 L75.539,-0.001 C77.472,-0.001 79.039,1.566 79.039,3.499 C79.039,5.433 77.472,6.999 75.539,6.999 Z" id="Path"></path>
                <path d="M39.966,21.999 L4.392,21.999 C2.458,21.999 0.892,20.433 0.892,18.499 C0.892,16.566 2.458,14.999 4.392,14.999 L39.966,14.999 C41.899,14.999 43.466,16.566 43.466,18.499 C43.466,20.433 41.898,21.999 39.966,21.999 Z" id="Path"></path>
            </g>
            <g id="Group" transform="translate(40.000000, 83.000000)">
                <path d="M75.539,6.999 L4.392,6.999 C2.458,6.999 0.892,5.433 0.892,3.499 C0.892,1.566 2.458,-0.001 4.392,-0.001 L75.539,-0.001 C77.472,-0.001 79.039,1.566 79.039,3.499 C79.039,5.433 77.472,6.999 75.539,6.999 Z" id="Path"></path>
                <path d="M39.966,21.999 L4.392,21.999 C2.458,21.999 0.892,20.433 0.892,18.499 C0.892,16.566 2.458,14.999 4.392,14.999 L39.966,14.999 C41.899,14.999 43.466,16.566 43.466,18.499 C43.466,20.433 41.898,21.999 39.966,21.999 Z" id="Path"></path>
            </g>
            <path d="M11.276,23.4 L11.276,23.4 C10.347,23.4 9.457,23.032 8.8,22.375 L1.985,15.559 C0.619,14.193 0.619,11.976 1.986,10.61 C3.353,9.244 5.569,9.244 6.935,10.61 L11.276,14.952 L24.605,1.624 C25.972,0.258 28.188,0.258 29.554,1.624 C30.921,2.991 30.921,5.207 29.554,6.574 L13.75,22.377 C13.095,23.032 12.204,23.4 11.276,23.4 Z" id="Path"></path>
            <path d="M11.276,64.4 L11.276,64.4 C10.347,64.4 9.457,64.032 8.8,63.375 L1.985,56.559 C0.619,55.193 0.619,52.976 1.986,51.61 C3.353,50.244 5.569,50.244 6.935,51.61 L11.276,55.952 L24.605,42.624 C25.972,41.258 28.188,41.258 29.554,42.624 C30.921,43.991 30.921,46.207 29.554,47.574 L13.75,63.377 C13.095,64.032 12.204,64.4 11.276,64.4 Z" id="Path"></path>
            <path d="M11.276,105.401 L11.276,105.401 C10.347,105.401 9.457,105.033 8.8,104.376 L1.985,97.56 C0.619,96.194 0.619,93.977 1.986,92.611 C3.353,91.245 5.569,91.245 6.935,92.611 L11.276,96.952 L24.604,83.623 C25.971,82.256 28.188,82.257 29.554,83.623 C30.921,84.989 30.921,87.206 29.554,88.572 L13.75,104.377 C13.095,105.033 12.204,105.401 11.276,105.401 Z" id="Path"></path>
        </g>
    </g>
</svg>