<?xml version="1.0" encoding="UTF-8"?>
<svg width="152px" height="112px" viewBox="0 0 152 112" version="1.1" xmlns="http://www.w3.org/2000/svg" xmlns:xlink="http://www.w3.org/1999/xlink">
    <title>textinput</title>
    <g id="Page-1" stroke="none" stroke-width="1" fill="none" fill-rule="evenodd">
        <g id="textinput" fill="#434B53" fill-rule="nonzero">
            <path d="M88.156,92.388 L3.531,92.388 C1.597,92.388 0.031,90.821 0.031,88.888 L0.031,23.114 C0.031,21.181 1.597,19.614 3.531,19.614 L88.156,19.614 C90.089,19.614 91.656,21.181 91.656,23.114 C91.656,25.047 90.089,26.614 88.156,26.614 L7.031,26.614 L7.031,85.388 L88.156,85.388 C90.09,85.388 91.656,86.955 91.656,88.888 C91.656,90.821 90.09,92.388 88.156,92.388 Z" id="Path"></path>
            <path d="M148.469,92.388 L118.823,92.388 C116.89,92.388 115.323,90.821 115.323,88.888 C115.323,86.955 116.89,85.388 118.823,85.388 L144.969,85.388 L144.969,26.614 L118.823,26.614 C116.89,26.614 115.323,25.047 115.323,23.114 C115.323,21.181 116.89,19.614 118.823,19.614 L148.469,19.614 C150.402,19.614 151.969,21.181 151.969,23.114 L151.969,88.888 C151.969,90.82 150.401,92.388 148.469,92.388 Z" id="Path"></path>
            <text id="10" font-family="Helvetica-Bold, Helvetica" font-size="36" font-weight="bold">
                <tspan x="25" y="70">10</tspan>
            </text>
            <path d="M118.99,107.54 C118.99,109.47 117.42,111.04 115.49,111.04 L91.49,111.04 C89.559,111.04 87.99,109.47 87.99,107.54 C87.99,105.6 89.559,104.04 91.49,104.04 L99.99,104.04 L99.99,7.96 L91.49,7.96 C89.559,7.96 87.99,6.4 87.99,4.46 C87.99,2.53 89.559,0.96 91.49,0.96 L115.49,0.96 C117.42,0.96 118.99,2.53 118.99,4.46 C118.99,6.4 117.42,7.96 115.49,7.96 L106.99,7.96 L106.99,104.04 L115.49,104.04 C117.42,104.04 118.99,105.6 118.99,107.54 Z" id="Path"></path>
        </g>
    </g>
</svg>