<svg width="24" height="15" viewBox="0 0 24 15" fill="none" xmlns="http://www.w3.org/2000/svg">
<path fill-rule="evenodd" clip-rule="evenodd" d="M22.37 0.0319917H2.38851C2.00838 0.0253221 1.64094 0.162822 1.3659 0.414392C1.09087 0.665962 0.930631 1.01126 0.919922 1.37552V13.3181C0.929916 13.6824 1.08946 14.0283 1.36394 14.2807C1.63842 14.5331 2.00552 14.6717 2.386 14.6664H22.3675C22.7482 14.6731 23.1162 14.5349 23.3908 14.2821C23.6657 14.0295 23.8247 13.6828 23.8334 13.3181V1.37549C23.8241 1.01173 23.6649 0.666277 23.3908 0.414712C23.1165 0.162971 22.7496 0.0253018 22.37 0.0319697L22.37 0.0319917ZM22.0426 12.7294C22.0438 12.8002 22.0131 12.8682 21.9581 12.9156C21.9014 12.9654 21.8277 12.9932 21.7509 12.9941L2.96686 12.9156C2.88941 12.9151 2.81534 12.8862 2.75966 12.8347C2.70541 12.7878 2.67453 12.721 2.67507 12.6509V1.91225C2.67703 1.84265 2.70737 1.77663 2.75966 1.72824C2.81624 1.67864 2.88994 1.6506 2.96686 1.64991L21.7587 1.72841V1.72824C21.8355 1.72892 21.9093 1.7568 21.9659 1.80674C22.0193 1.85531 22.0498 1.92252 22.0503 1.99315L22.0426 12.7294Z" fill="#61656F"/>
<path d="M7.52948 9.90926H7.77948V9.65926V8.90628V8.65628H7.52948H5.52055V7.65033H6.77651C7.04251 7.65033 7.29762 7.54466 7.48572 7.35657C7.67381 7.16847 7.77948 6.91336 7.77948 6.64736V5.1414C7.77948 4.8754 7.67381 4.62029 7.48572 4.43219C7.29762 4.2441 7.04251 4.13843 6.77651 4.13843H4.51758H4.26758V4.38843V5.1414V5.3914H4.51758H6.52651V6.39736H5.27055C5.00455 6.39736 4.74944 6.50303 4.56134 6.69112C4.37325 6.87922 4.26758 7.13433 4.26758 7.40033V9.65926V9.90926H4.51758H7.52948Z" fill="#61656F" stroke="#61656F" stroke-width="0.5"/>
<path fill-rule="evenodd" clip-rule="evenodd" d="M10.9985 3.31605C10.7072 3.10852 10.3572 2.99879 9.99926 3.0029H9V3.80559H9.99926C10.2458 3.78468 10.4655 3.95974 10.5003 4.20422V9.79597C10.4668 10.0416 10.2467 10.2179 9.99926 10.1972H9V10.9999H9.99926C10.3568 11.0036 10.7062 10.895 10.9985 10.6895C11.2915 10.8935 11.6406 11.002 11.998 10.9999H13V10.1972H12.0005C11.7531 10.2179 11.533 10.0416 11.4995 9.79597V4.20136C11.5343 3.95669 11.754 3.78182 12.0005 3.80272H12.9998V3.00003H12.0005C11.6417 2.99798 11.2912 3.10846 10.9985 3.3158V3.31605Z" fill="#61656F"/>
</svg>
