<svg width="49" height="48" viewBox="0 0 49 48" fill="none" xmlns="http://www.w3.org/2000/svg">
<path fill-rule="evenodd" clip-rule="evenodd" d="M7.60296 9.85718C4.99933 9.85718 2.88867 11.9678 2.88867 14.5715V33.4286C2.88867 36.0322 4.99933 38.1429 7.60296 38.1429H42.1744C44.7779 38.1429 46.8887 36.0322 46.8887 33.4286V14.5715C46.8887 11.9678 44.7779 9.85718 42.1744 9.85718H7.60296Z" fill="#D7DBDF"/>
<path fill-rule="evenodd" clip-rule="evenodd" d="M17.4251 18.266C17.4251 17.1812 16.5456 16.3018 15.4608 16.3018C14.3759 16.3018 13.4965 17.1812 13.4965 18.266C13.4965 18.7646 13.0923 19.1687 12.5938 19.1687H11.6381C10.5533 19.1687 9.67383 20.0482 9.67383 21.133C9.67383 22.2179 10.5533 23.0973 11.6381 23.0973H12.5938C12.9023 23.0973 13.204 23.0684 13.4965 23.0131V27.7697H11.6381C10.5533 27.7697 9.67386 28.6491 9.67386 29.734C9.67386 30.8188 10.5533 31.6983 11.6381 31.6983H19.2835C20.3683 31.6983 21.2477 30.8188 21.2477 29.734C21.2477 28.6491 20.3683 27.7697 19.2835 27.7697H17.4251V18.266ZM26.4648 27.7697C25.38 27.7697 24.5005 28.6491 24.5005 29.734C24.5005 30.8188 25.38 31.6983 26.4648 31.6983H31.915C32.9999 31.6983 33.8793 30.8188 33.8793 29.734C33.8793 28.6491 32.9999 27.7697 31.915 27.7697H26.4648Z" fill="#3E63DD"/>
</svg>
