<svg width="20" height="20" viewBox="0 0 20 20" fill="none" xmlns="http://www.w3.org/2000/svg">
<path fill-rule="evenodd" clip-rule="evenodd" d="M13.997 2.63211C13.4143 2.21705 12.7143 1.99758 11.9985 2.00579H10V3.61117H11.9985C12.4915 3.56937 12.931 3.91948 13.0006 4.40844V15.5919C12.9337 16.0831 12.4934 16.4359 11.9985 16.3944H10V17.9998H11.9985C12.7135 18.0073 13.4124 17.79 13.997 17.3791C14.5831 17.7871 15.2813 18.0039 15.9959 17.9998H18V16.3944H16.0011C15.5062 16.4359 15.066 16.0831 14.999 15.5919V4.40271C15.0685 3.91338 15.5081 3.56364 16.0011 3.60544H17.9996V2.00006H16.0011C15.2835 1.99595 14.5823 2.21691 13.997 2.6316V2.63211Z" fill="#61656F"/>
<path d="M8 16H2V11.2857C2 10.8689 2.15804 10.4692 2.43934 10.1745C2.72064 9.87985 3.10218 9.71429 3.5 9.71429H6.5V6.57143H2V5H6.5C6.89782 5 7.27936 5.16556 7.56066 5.46026C7.84196 5.75496 8 6.15466 8 6.57143V9.71429C8 10.1311 7.84196 10.5308 7.56066 10.8255C7.27936 11.1202 6.89782 11.2857 6.5 11.2857H3.5V14.4286H8V16Z" fill="#61656F"/>
</svg>
