<svg width="20" height="20" viewBox="0 0 20 20" fill="none" xmlns="http://www.w3.org/2000/svg">
<g clip-path="url(#clip0_154_169)">
<path d="M3.97301 11.1739C4.0016 11.1469 4.0243 11.1149 4.03978 11.0796C4.05527 11.0443 4.06327 11.0065 4.06327 10.9683C4.06327 10.9301 4.05527 10.8923 4.03978 10.857C4.0243 10.8217 4.0016 10.7896 3.97301 10.7627L2.77856 9.631L3.97608 8.49642C4.00464 8.46942 4.0273 8.43736 4.04278 8.40208C4.05827 8.3668 4.06619 8.32899 4.06619 8.2908C4.06619 8.25261 4.05827 8.2148 4.04278 8.17952C4.0273 8.14423 4.00464 8.11218 3.97608 8.08517C3.94749 8.05817 3.9136 8.03675 3.87623 8.02213C3.8389 8.00752 3.7989 8 3.75849 8C3.71808 8 3.67804 8.00752 3.64071 8.02213C3.60338 8.03675 3.56945 8.05817 3.5409 8.08517L2.12423 9.42392C2.00386 9.53767 2.00386 9.72141 2.12423 9.83516L3.5409 11.1739C3.56915 11.2009 3.60278 11.2224 3.63986 11.237C3.67697 11.2517 3.71675 11.2592 3.75693 11.2592C3.79715 11.2592 3.83693 11.2517 3.87401 11.237C3.91112 11.2224 3.94475 11.2009 3.97301 11.1739Z" fill="#61656F"/>
<path d="M1.93904 11.1739C1.96766 11.1469 1.99036 11.1149 2.00584 11.0796C2.02133 11.0443 2.0293 11.0065 2.0293 10.9683C2.0293 10.9301 2.02133 10.8923 2.00584 10.857C1.99036 10.8217 1.96766 10.7896 1.93904 10.7627L0.744597 9.63101L1.94213 8.49933C1.99984 8.44479 2.03227 8.37083 2.03227 8.2937C2.03227 8.21658 1.99984 8.14261 1.94213 8.08808C1.88442 8.03354 1.80615 8.00291 1.72454 8.00291C1.64292 8.00291 1.56465 8.03354 1.50694 8.08808L0.0902778 9.42683C-0.0300926 9.54058 -0.0300926 9.72432 0.0902778 9.83807L1.50694 11.1768C1.56477 11.2304 1.64267 11.2601 1.72363 11.2596C1.80459 11.259 1.88203 11.2282 1.93904 11.1739Z" fill="#61656F"/>
<path d="M16.0932 8.08566C16.0646 8.11265 16.0419 8.1447 16.0264 8.17998C16.0109 8.21526 16.003 8.25309 16.003 8.29129C16.003 8.32949 16.0109 8.36731 16.0264 8.40259C16.0419 8.43788 16.0646 8.46993 16.0932 8.49691L17.2877 9.62858L16.0901 10.7632C16.0616 10.7902 16.0389 10.8222 16.0234 10.8575C16.008 10.8928 16 10.9306 16 10.9688C16 11.007 16.008 11.0448 16.0234 11.0801C16.0389 11.1153 16.0616 11.1474 16.0901 11.1744C16.1187 11.2014 16.1526 11.2228 16.19 11.2375C16.2273 11.2521 16.2673 11.2596 16.3077 11.2596C16.3481 11.2596 16.3881 11.2521 16.4255 11.2375C16.4628 11.2228 16.4967 11.2014 16.5253 11.1744L17.942 9.83568C18.0623 9.72193 18.0623 9.53816 17.942 9.42441L16.5253 8.08566C16.4971 8.05864 16.4634 8.03719 16.4263 8.02255C16.3893 8.00791 16.3494 8.00037 16.3093 8.00037C16.2691 8.00037 16.2293 8.00791 16.1922 8.02255C16.1551 8.03719 16.1214 8.05864 16.0932 8.08566Z" fill="#61656F"/>
<path d="M18.1271 8.08567C18.0986 8.11265 18.0758 8.1447 18.0604 8.17999C18.0449 8.21527 18.0369 8.2531 18.0369 8.2913C18.0369 8.3295 18.0449 8.36732 18.0604 8.40261C18.0758 8.43789 18.0986 8.46994 18.1271 8.49692L19.3216 9.62859L18.1241 10.7603C18.0664 10.8148 18.034 10.8888 18.034 10.9659C18.034 11.043 18.0664 11.117 18.1241 11.1715C18.1818 11.226 18.2601 11.2567 18.3417 11.2567C18.4233 11.2567 18.5016 11.226 18.5593 11.1715L19.9759 9.83277C20.0963 9.71902 20.0963 9.53525 19.9759 9.4215L18.5593 8.08275C18.5014 8.02921 18.4236 7.99946 18.3426 8.00001C18.2616 8.00055 18.1842 8.03135 18.1271 8.08567Z" fill="#61656F"/>
<rect x="6" y="5" width="8" height="9" rx="1" fill="#D2DDEC"/>
<path d="M10.5432 11.6667V7L9 8.45833" stroke="#61656F" stroke-width="0.75" stroke-linecap="round" stroke-linejoin="round"/>
</g>
<defs>
<clipPath id="clip0_154_169">
<rect width="20" height="20" fill="white"/>
</clipPath>
</defs>
</svg>
