<svg width="20" height="20" viewBox="0 0 20 20" fill="none" xmlns="http://www.w3.org/2000/svg">
<path d="M5.64507 12.0429C5.67366 12.016 5.69637 11.9839 5.71185 11.9486C5.72733 11.9133 5.73533 11.8755 5.73533 11.8373C5.73533 11.7991 5.72733 11.7613 5.71185 11.726C5.69637 11.6907 5.67366 11.6587 5.64507 11.6317L4.45063 10.5L5.64815 9.36545C5.6767 9.33845 5.69937 9.30639 5.71485 9.27111C5.73033 9.23583 5.73826 9.19802 5.73826 9.15983C5.73826 9.12164 5.73033 9.08383 5.71485 9.04855C5.69937 9.01326 5.6767 8.98121 5.64815 8.9542C5.61955 8.9272 5.58566 8.90578 5.54829 8.89116C5.51096 8.87655 5.47096 8.86903 5.43055 8.86903C5.39015 8.86903 5.35011 8.87655 5.31278 8.89116C5.27544 8.90578 5.24152 8.9272 5.21296 8.9542L3.79629 10.293C3.67592 10.4067 3.67592 10.5904 3.79629 10.7042L5.21296 12.0429C5.24122 12.07 5.27485 12.0914 5.31192 12.1061C5.34904 12.1207 5.38881 12.1282 5.429 12.1282C5.46922 12.1282 5.509 12.1207 5.54607 12.1061C5.58318 12.0914 5.61681 12.07 5.64507 12.0429Z" fill="#61656F"/>
<path d="M3.61111 12.0429C3.63972 12.016 3.66242 11.9839 3.67791 11.9486C3.6934 11.9133 3.70137 11.8755 3.70137 11.8373C3.70137 11.7991 3.6934 11.7613 3.67791 11.726C3.66242 11.6907 3.63972 11.6587 3.61111 11.6317L2.41666 10.5L3.6142 9.36836C3.6719 9.31382 3.70433 9.23986 3.70433 9.16273C3.70433 9.08561 3.6719 9.01164 3.6142 8.95711C3.55648 8.90257 3.47821 8.87194 3.3966 8.87194C3.31499 8.87194 3.23672 8.90257 3.17901 8.95711L1.76234 10.2959C1.64197 10.4096 1.64197 10.5933 1.76234 10.7071L3.17901 12.0458C3.23684 12.0994 3.31474 12.1291 3.3957 12.1286C3.47665 12.1281 3.5541 12.0973 3.61111 12.0429Z" fill="#61656F"/>
<path d="M14.108 8.95704C14.0794 8.98403 14.0567 9.01608 14.0412 9.05136C14.0257 9.08665 14.0178 9.12447 14.0178 9.16267C14.0178 9.20087 14.0257 9.23869 14.0412 9.27398C14.0567 9.30926 14.0794 9.34131 14.108 9.36829L15.3025 10.5L14.1049 11.6346C14.0764 11.6615 14.0537 11.6936 14.0382 11.7289C14.0228 11.7642 14.0148 11.802 14.0148 11.8402C14.0148 11.8784 14.0228 11.9162 14.0382 11.9514C14.0537 11.9867 14.0764 12.0188 14.1049 12.0458C14.1335 12.0728 14.1674 12.0942 14.2048 12.1088C14.2421 12.1234 14.2821 12.131 14.3225 12.131C14.363 12.131 14.403 12.1234 14.4403 12.1088C14.4776 12.0942 14.5116 12.0728 14.5401 12.0458L15.9568 10.7071C16.0772 10.5933 16.0772 10.4095 15.9568 10.2958L14.5401 8.95704C14.5119 8.93002 14.4782 8.90857 14.4411 8.89393C14.4041 8.87929 14.3643 8.87175 14.3241 8.87175C14.2839 8.87175 14.2441 8.87929 14.207 8.89393C14.1699 8.90857 14.1363 8.93002 14.108 8.95704Z" fill="#61656F"/>
<path d="M16.142 8.95706C16.1134 8.98404 16.0907 9.01609 16.0752 9.05138C16.0597 9.08666 16.0517 9.12449 16.0517 9.16269C16.0517 9.20088 16.0597 9.23871 16.0752 9.27399C16.0907 9.30928 16.1134 9.34133 16.142 9.36831L17.3364 10.5L16.1389 11.6317C16.0812 11.6862 16.0488 11.7601 16.0488 11.8373C16.0488 11.9144 16.0812 11.9883 16.1389 12.0429C16.1966 12.0974 16.2749 12.1281 16.3565 12.1281C16.4381 12.1281 16.5164 12.0974 16.5741 12.0429L17.9907 10.7042C18.1111 10.5904 18.1111 10.4066 17.9907 10.2929L16.5741 8.95414C16.5163 8.9006 16.4384 8.87085 16.3574 8.87139C16.2764 8.87194 16.199 8.90274 16.142 8.95706Z" fill="#61656F"/>
<path d="M10.1852 12.8333V8.16664L8.64196 9.62497" stroke="#61656F" stroke-width="0.75" stroke-linecap="round" stroke-linejoin="round"/>
</svg>
