<svg width="49" height="48" viewBox="0 0 49 48" fill="none" xmlns="http://www.w3.org/2000/svg">
<path d="M9.17432 41.2857C9.17432 43.8893 11.285 46 13.8886 46H35.8886C38.4921 46 40.6029 43.8893 40.6029 41.2857V13.3813C40.6029 12.131 40.1063 10.9319 39.2222 10.0478L32.5551 3.38078C31.671 2.49668 30.4719 2 29.2216 2H13.8886C11.285 2 9.17432 4.11066 9.17432 6.71429V41.2857Z" fill="#D7DBDF"/>
<path fill-rule="evenodd" clip-rule="evenodd" d="M5.24581 23.2142C3.944 23.2142 2.88867 24.2696 2.88867 25.5714C2.88867 26.8732 3.944 27.9285 5.24581 27.9285H8.38867C9.69047 27.9285 10.7458 26.8732 10.7458 25.5714C10.7458 24.2696 9.69047 23.2142 8.38867 23.2142H5.24581ZM17.2935 23.2142C15.9917 23.2142 14.9363 24.2696 14.9363 25.5714C14.9363 26.8732 15.9917 27.9285 17.2935 27.9285H20.4363C21.7381 27.9285 22.7935 26.8732 22.7935 25.5714C22.7935 24.2696 21.7381 23.2142 20.4363 23.2142H17.2935ZM26.9839 25.5714C26.9839 24.2696 28.0392 23.2142 29.341 23.2142H32.4839C33.7857 23.2142 34.8412 24.2696 34.8412 25.5714C34.8412 26.8732 33.7857 27.9285 32.4839 27.9285H29.341C28.0392 27.9285 26.9839 26.8732 26.9839 25.5714ZM41.3887 23.2142C40.0869 23.2142 39.0315 24.2696 39.0315 25.5714C39.0315 26.8732 40.0869 27.9285 41.3887 27.9285H44.5315C45.8333 27.9285 46.8887 26.8732 46.8887 25.5714C46.8887 24.2696 45.8333 23.2142 44.5315 23.2142H41.3887Z" fill="#3E63DD"/>
</svg>
