<svg width="20" height="20" viewBox="0 0 20 20" fill="none" xmlns="http://www.w3.org/2000/svg">
<g clip-path="url(#clip0_1263_16114)">
<path d="M11 16V4L7 7.74996" stroke="#61656F" stroke-width="1.75" stroke-linecap="round" stroke-linejoin="round"/>
<path d="M3.8165 13.8158C3.87283 13.7577 3.91751 13.689 3.94798 13.6131C3.97847 13.5372 3.99415 13.456 3.99415 13.3739C3.99415 13.2918 3.97847 13.2105 3.94798 13.1346C3.91751 13.0588 3.87283 12.9898 3.8165 12.9319L1.46555 10.4995L3.82258 8.06701C3.93617 7.94978 4 7.79081 4 7.62503C4 7.45927 3.93617 7.30028 3.82258 7.18307C3.709 7.06584 3.55494 7 3.39431 7C3.23366 7 3.07961 7.06584 2.96602 7.18307L0.177689 10.0606C-0.0592295 10.3051 -0.0592295 10.7 0.177689 10.9445L2.96602 13.822C3.07985 13.9372 3.23317 14.0011 3.39252 14C3.55187 13.9987 3.70429 13.9325 3.8165 13.8158Z" fill="#61656F"/>
<path d="M16.1835 7.18422C16.1272 7.24225 16.0825 7.31103 16.052 7.38691C16.0215 7.46278 16.0058 7.54403 16.0058 7.62614C16.0058 7.70825 16.0215 7.78949 16.052 7.86537C16.0825 7.94124 16.1272 8.01024 16.1835 8.06806L18.5345 10.5005L16.1774 12.933C16.0638 13.0502 16 13.2092 16 13.375C16 13.5407 16.0638 13.6997 16.1774 13.8169C16.291 13.9342 16.4451 14 16.6057 14C16.7663 14 16.9204 13.9342 17.034 13.8169L19.8223 10.9394C20.0592 10.6949 20.0592 10.3 19.8223 10.0555L17.034 7.17798C16.9202 7.06278 16.7668 6.99894 16.6075 7.00001C16.4481 7.0013 16.2957 7.0675 16.1835 7.18422Z" fill="#61656F"/>
</g>
<defs>
<clipPath id="clip0_1263_16114">
<rect width="20" height="20" fill="white"/>
</clipPath>
</defs>
</svg>
