<svg width="49" height="48" viewBox="0 0 49 48" fill="none" xmlns="http://www.w3.org/2000/svg">
<path d="M2.88867 14.9999C2.88867 12.3963 4.99933 10.2856 7.60296 10.2856H42.1744C44.7779 10.2856 46.8887 12.3963 46.8887 14.9999V30.7142C46.8887 33.3178 44.7779 35.4285 42.1744 35.4285H7.60296C4.99933 35.4285 2.88867 33.3178 2.88867 30.7142V14.9999Z" fill="#D7DBDF"/>
<path fill-rule="evenodd" clip-rule="evenodd" d="M12.8818 22.8572C12.8818 24.5969 11.4715 26.0073 9.73169 26.0073C7.9919 26.0073 6.58154 24.5969 6.58154 22.8572C6.58154 21.1174 7.9919 19.707 9.73169 19.707C11.4715 19.707 12.8818 21.1174 12.8818 22.8572ZM23.8818 22.8572C23.8818 24.5969 22.4715 26.0073 20.7317 26.0073C18.9919 26.0073 17.5815 24.5969 17.5815 22.8572C17.5815 21.1174 18.9919 19.707 20.7317 19.707C22.4715 19.707 23.8818 21.1174 23.8818 22.8572ZM30.9463 24.0358C29.8614 24.0358 28.982 24.9152 28.982 26C28.982 27.0849 29.8614 27.9643 30.9463 27.9643H37.2321C38.3167 27.9643 39.1964 27.0849 39.1964 26C39.1964 24.9152 38.3167 24.0358 37.2321 24.0358H30.9463Z" fill="#3E63DD"/>
</svg>
