<svg width="20" height="14" viewBox="0 0 20 14" fill="none" xmlns="http://www.w3.org/2000/svg">
<path d="M9.78 5.22C9.63782 5.08752 9.44978 5.0154 9.25548 5.01882C9.06118 5.02225 8.87579 5.10097 8.73838 5.23838C8.60097 5.37579 8.52225 5.56118 8.51882 5.75548C8.5154 5.94978 8.58752 6.13782 8.72 6.28L9.44 7L8.72 7.72C8.64631 7.78866 8.58721 7.87146 8.54622 7.96346C8.50523 8.05546 8.48318 8.15478 8.48141 8.25548C8.47963 8.35618 8.49816 8.45621 8.53588 8.5496C8.5736 8.64299 8.62974 8.72782 8.70096 8.79904C8.77218 8.87026 8.85701 8.9264 8.9504 8.96412C9.04379 9.00184 9.14382 9.02037 9.24452 9.01859C9.34522 9.01682 9.44454 8.99477 9.53654 8.95378C9.62854 8.91279 9.71134 8.85369 9.78 8.78L10.5 8.06L11.22 8.78C11.3608 8.92056 11.5517 8.99943 11.7507 8.99924C11.9497 8.99905 12.1404 8.91983 12.281 8.779C12.4216 8.63817 12.5004 8.44727 12.5002 8.24829C12.5001 8.04932 12.4208 7.85857 12.28 7.718L11.561 7L12.281 6.28C12.3526 6.21078 12.4097 6.128 12.449 6.03647C12.4882 5.94495 12.5089 5.84653 12.5097 5.74694C12.5105 5.64736 12.4915 5.54861 12.4537 5.45646C12.416 5.3643 12.3602 5.28059 12.2898 5.2102C12.2193 5.13982 12.1356 5.08417 12.0434 5.0465C11.9512 5.00883 11.8524 4.9899 11.7528 4.99081C11.6533 4.99173 11.5549 5.01246 11.4634 5.05181C11.3719 5.09116 11.2892 5.14834 11.22 5.22L10.5 5.94L9.78 5.22Z" fill="#61656F"/>
<path d="M3.22 5.22C3.36063 5.07955 3.55125 5.00066 3.75 5.00066C3.94875 5.00066 4.13937 5.07955 4.28 5.22L5 5.94L5.72 5.22C5.78866 5.14631 5.87146 5.08721 5.96346 5.04622C6.05546 5.00523 6.15478 4.98319 6.25548 4.98141C6.35618 4.97963 6.45621 4.99816 6.5496 5.03588C6.64299 5.0736 6.72782 5.12974 6.79904 5.20096C6.87026 5.27218 6.9264 5.35701 6.96412 5.4504C7.00184 5.54379 7.02037 5.64382 7.01859 5.74452C7.01682 5.84523 6.99477 5.94454 6.95378 6.03654C6.91279 6.12854 6.85369 6.21134 6.78 6.28L6.061 7L6.781 7.718C6.85073 7.78767 6.90606 7.87039 6.94382 7.96143C6.98159 8.05248 7.00105 8.15008 7.00109 8.24865C7.00114 8.34722 6.98177 8.44483 6.94409 8.53591C6.90642 8.627 6.85117 8.70977 6.7815 8.7795C6.71183 8.84923 6.62912 8.90456 6.53807 8.94232C6.44702 8.98009 6.34942 8.99955 6.25085 8.99959C6.15228 8.99964 6.05467 8.98027 5.96359 8.94259C5.8725 8.90492 5.78973 8.84967 5.72 8.78L5 8.06L4.28 8.78C4.13783 8.91248 3.94978 8.9846 3.75548 8.98118C3.56118 8.97775 3.37579 8.89903 3.23838 8.76162C3.10097 8.62421 3.02225 8.43882 3.01883 8.24452C3.0154 8.05022 3.08752 7.86218 3.22 7.72L3.94 7L3.22 6.28C3.07955 6.13937 3.00066 5.94875 3.00066 5.75C3.00066 5.55125 3.07955 5.36063 3.22 5.22Z" fill="#61656F"/>
<path d="M14.5 8.5C14.3011 8.5 14.1103 8.57902 13.9697 8.71967C13.829 8.86032 13.75 9.05109 13.75 9.25C13.75 9.44891 13.829 9.63968 13.9697 9.78033C14.1103 9.92098 14.3011 10 14.5 10H16.25C16.4489 10 16.6397 9.92098 16.7803 9.78033C16.921 9.63968 17 9.44891 17 9.25C17 9.05109 16.921 8.86032 16.7803 8.71967C16.6397 8.57902 16.4489 8.5 16.25 8.5H14.5Z" fill="#61656F"/>
<path d="M3.25 0C2.38805 0 1.5614 0.34241 0.951903 0.951903C0.34241 1.5614 0 2.38805 0 3.25V10.75C0 11.612 0.34241 12.4386 0.951903 13.0481C1.5614 13.6576 2.38805 14 3.25 14H16.75C17.1768 14 17.5994 13.9159 17.9937 13.7526C18.388 13.5893 18.7463 13.3499 19.0481 13.0481C19.3499 12.7463 19.5893 12.388 19.7526 11.9937C19.9159 11.5994 20 11.1768 20 10.75V3.25C20 2.8232 19.9159 2.40059 19.7526 2.00628C19.5893 1.61197 19.3499 1.25369 19.0481 0.951903C18.7463 0.650112 18.388 0.410719 17.9937 0.247392C17.5994 0.0840639 17.1768 0 16.75 0H3.25ZM1.5 3.25C1.5 2.283 2.283 1.5 3.25 1.5H16.75C17.717 1.5 18.5 2.283 18.5 3.25V10.75C18.5 11.2141 18.3156 11.6592 17.9874 11.9874C17.6592 12.3156 17.2141 12.5 16.75 12.5H3.25C2.78587 12.5 2.34075 12.3156 2.01256 11.9874C1.68437 11.6592 1.5 11.2141 1.5 10.75V3.25Z" fill="#61656F"/>
</svg>
