<svg width="20" height="20" viewBox="0 0 20 20" fill="none" xmlns="http://www.w3.org/2000/svg">
<path d="M9.61691 8.38657C9.47711 8.25409 9.29219 8.18196 9.10113 8.18539C8.91007 8.18882 8.72777 8.26753 8.59265 8.40494C8.45752 8.54236 8.38012 8.72774 8.37675 8.92204C8.37338 9.11634 8.4443 9.30439 8.57458 9.44657L9.28258 10.1666L8.57458 10.8866C8.50212 10.9552 8.444 11.038 8.40369 11.13C8.36338 11.222 8.34171 11.3213 8.33996 11.422C8.33821 11.5227 8.35643 11.6228 8.39352 11.7162C8.43061 11.8096 8.48582 11.8944 8.55585 11.9656C8.62589 12.0368 8.70931 12.093 8.80114 12.1307C8.89297 12.1684 8.99133 12.1869 9.09036 12.1852C9.18938 12.1834 9.28704 12.1613 9.37751 12.1203C9.46797 12.0794 9.54939 12.0203 9.61691 11.9466L10.3249 11.2266L11.0329 11.9466C11.1714 12.0871 11.3591 12.166 11.5548 12.1658C11.7504 12.1656 11.938 12.0864 12.0762 11.9456C12.2145 11.8047 12.292 11.6138 12.2918 11.4149C12.2916 11.2159 12.2137 11.0251 12.0753 10.8846L11.3682 10.1666L12.0762 9.44657C12.1466 9.37735 12.2028 9.29456 12.2414 9.20304C12.28 9.11152 12.3003 9.01309 12.3011 8.91351C12.3019 8.81393 12.2832 8.71517 12.2461 8.62302C12.209 8.53087 12.1542 8.44716 12.0849 8.37677C12.0156 8.30638 11.9332 8.25073 11.8426 8.21307C11.7519 8.1754 11.6548 8.15647 11.5569 8.15738C11.459 8.15829 11.3622 8.17903 11.2722 8.21838C11.1823 8.25773 11.1009 8.3149 11.0329 8.38657L10.3249 9.10657L9.61691 8.38657V8.38657Z" fill="#61656F"/>
<path d="M3.16612 8.38666C3.30441 8.24621 3.49185 8.16732 3.68729 8.16732C3.88273 8.16732 4.07018 8.24621 4.20846 8.38666L4.91646 9.10666L5.62447 8.38666C5.69199 8.31297 5.77341 8.25387 5.86387 8.21288C5.95434 8.17188 6.052 8.14984 6.15102 8.14807C6.25005 8.14629 6.34841 8.16481 6.44024 8.20254C6.53207 8.24026 6.61549 8.2964 6.68553 8.36762C6.75556 8.43884 6.81077 8.52367 6.84786 8.61706C6.88495 8.71045 6.90317 8.81048 6.90142 8.91118C6.89967 9.01188 6.878 9.1112 6.83769 9.2032C6.79738 9.2952 6.73926 9.378 6.6668 9.44666L5.95979 10.1667L6.66779 10.8847C6.73636 10.9543 6.79076 11.037 6.8279 11.1281C6.86503 11.2191 6.88417 11.3167 6.88421 11.4153C6.88426 11.5139 6.86521 11.6115 6.82816 11.7026C6.79111 11.7937 6.73679 11.8764 6.66828 11.9462C6.59977 12.0159 6.51843 12.0712 6.4289 12.109C6.33937 12.1467 6.2434 12.1662 6.14648 12.1663C6.04955 12.1663 5.95356 12.1469 5.864 12.1093C5.77443 12.0716 5.69304 12.0163 5.62447 11.9467L4.91646 11.2267L4.20846 11.9467C4.06866 12.0791 3.88374 12.1513 3.69268 12.1478C3.50162 12.1444 3.31932 12.0657 3.1842 11.9283C3.04907 11.7909 2.97167 11.6055 2.9683 11.4112C2.96493 11.2169 3.03585 11.0288 3.16612 10.8867L3.87413 10.1667L3.16612 9.44666C3.02801 9.30603 2.95044 9.11541 2.95044 8.91666C2.95044 8.71791 3.02801 8.52728 3.16612 8.38666V8.38666Z" fill="#61656F"/>
<path d="M14.2584 11.6666C14.0628 11.6666 13.8752 11.7456 13.7369 11.8863C13.5986 12.0269 13.5209 12.2177 13.5209 12.4166C13.5209 12.6155 13.5986 12.8063 13.7369 12.947C13.8752 13.0876 14.0628 13.1666 14.2584 13.1666H15.9792C16.1748 13.1666 16.3624 13.0876 16.5007 12.947C16.639 12.8063 16.7167 12.6155 16.7167 12.4166C16.7167 12.2177 16.639 12.0269 16.5007 11.8863C16.3624 11.7456 16.1748 11.6666 15.9792 11.6666H14.2584Z" fill="#61656F"/>
<path d="M3.19585 3.16663C2.34826 3.16663 1.53538 3.50904 0.936042 4.11853C0.336704 4.72802 0 5.55467 0 6.41663V13.9166C0 14.7786 0.336704 15.6052 0.936042 16.2147C1.53538 16.8242 2.34826 17.1666 3.19585 17.1666H16.4709C16.8906 17.1666 17.3062 17.0826 17.6939 16.9192C18.0816 16.7559 18.4339 16.5165 18.7307 16.2147C19.0275 15.9129 19.2629 15.5547 19.4235 15.1603C19.5841 14.766 19.6667 14.3434 19.6667 13.9166V6.41663C19.6667 5.98983 19.5841 5.56721 19.4235 5.1729C19.2629 4.7786 19.0275 4.42032 18.7307 4.11853C18.4339 3.81674 18.0816 3.57735 17.6939 3.41402C17.3062 3.25069 16.8906 3.16663 16.4709 3.16663H3.19585ZM1.47501 6.41663C1.47501 5.44963 2.24496 4.66663 3.19585 4.66663H16.4709C17.4218 4.66663 18.1917 5.44963 18.1917 6.41663V13.9166C18.1917 14.3808 18.0104 14.8259 17.6877 15.1541C17.365 15.4823 16.9273 15.6666 16.4709 15.6666H3.19585C2.73945 15.6666 2.30175 15.4823 1.97903 15.1541C1.65631 14.8259 1.47501 14.3808 1.47501 13.9166V6.41663Z" fill="#61656F"/>
</svg>
