<svg width="49" height="48" viewBox="0 0 49 48" fill="none" xmlns="http://www.w3.org/2000/svg">
<path fill-rule="evenodd" clip-rule="evenodd" d="M10.9389 2C8.335 2 6.22412 4.11089 6.22412 6.71479V41.2852C6.22412 43.889 8.335 46 10.9389 46H38.8386C41.4428 46 43.5534 43.889 43.5534 41.2852V16.1398C43.5534 14.178 42.7755 12.2965 41.3903 10.9078L34.8091 4.18198L34.7971 4.16983C33.4077 2.78051 31.5234 2 29.5586 2H10.9389Z" fill="#D7DBDF"/>
<path fill-rule="evenodd" clip-rule="evenodd" d="M22.3254 16.5871C22.3273 15.0598 22.2344 13.6445 21.9838 12.5811C21.8545 12.0328 21.6174 11.2679 21.0843 10.681C20.7842 10.3506 20.3297 10.0117 19.7086 9.88888C19.0826 9.76501 18.5213 9.90676 18.0968 10.1164C17.1253 10.5964 16.7062 11.4865 16.6027 12.267C16.51 12.9653 16.6438 13.6615 16.8093 14.2319C17.1073 15.2595 17.6799 16.442 18.3794 17.6508C18.2594 21.7249 17.5162 27.1362 16.4739 30.8537C15.3621 31.3995 14.3303 32.0337 13.6311 32.7589C13.1972 33.2089 12.6672 33.9232 12.5975 34.8753C12.5183 35.9597 13.0633 36.803 13.7092 37.3442C14.3614 37.8912 15.2682 38.2407 16.2822 37.9927C17.1645 37.7771 17.7757 37.1871 18.1599 36.709C18.776 35.9424 19.2737 34.8734 19.6844 33.7277C22.5765 32.5661 26.526 31.5439 29.7042 31.1304C30.7389 31.9613 31.804 32.6669 32.7987 33.03C33.4009 33.2499 34.2264 33.4382 35.0879 33.2063C36.0839 32.9382 36.7472 32.2176 37.075 31.3697C37.4 30.5291 37.4383 29.4732 36.7622 28.5545C36.1918 27.7791 35.3453 27.4411 34.7292 27.275C33.6847 26.9935 32.3565 26.9623 30.9887 27.0541C28.0305 24.3505 24.4887 20.0435 22.3254 16.5871ZM26.1152 27.7595C24.6851 26.2511 23.2411 24.5526 21.929 22.85C21.6905 24.9603 21.3521 27.1266 20.935 29.113C22.6004 28.5825 24.3848 28.1169 26.1152 27.7595Z" fill="#3E63DD"/>
</svg>
