<svg width="49" height="48" viewBox="0 0 49 48" fill="none" xmlns="http://www.w3.org/2000/svg">
<path fill-rule="evenodd" clip-rule="evenodd" d="M8.28975 1.99988C6.85728 1.99988 5.48351 2.56892 4.47061 3.58182C3.45771 4.59472 2.88867 5.96849 2.88867 7.40096V11.9279C2.88867 13.2441 3.95562 14.311 5.27177 14.311C6.58793 14.311 7.65486 13.2441 7.65486 11.9279V7.40096C7.65486 7.23259 7.72175 7.07111 7.84084 6.95205C7.9599 6.83296 8.12138 6.76607 8.28975 6.76607H12.8167C14.1329 6.76607 15.1998 5.69914 15.1998 4.38298C15.1998 3.06683 14.1329 1.99988 12.8167 1.99988H8.28975ZM36.9607 2.00012C35.6446 2.00012 34.5776 3.06707 34.5776 4.38322C34.5776 5.69936 35.6446 6.76632 36.9607 6.76632H41.4876C41.656 6.76632 41.8174 6.83321 41.9366 6.95227C42.0557 7.07133 42.1225 7.23281 42.1225 7.40121V11.9282C42.1225 13.2443 43.1895 14.3113 44.5056 14.3113C45.8217 14.3113 46.8887 13.2443 46.8887 11.9282V7.40121C46.8887 5.96875 46.3196 4.59496 45.3069 3.58206C44.2939 2.56916 42.92 2.00012 41.4876 2.00012H36.9607ZM5.27177 33.689C6.58793 33.689 7.65486 34.756 7.65486 36.0721V40.599C7.65486 40.7674 7.72175 40.9288 7.84084 41.048C7.9599 41.1671 8.12138 41.2339 8.28975 41.2339H12.8167C14.1329 41.2339 15.1998 42.3009 15.1998 43.617C15.1998 44.9331 14.1329 46.0001 12.8167 46.0001H8.28975C6.85728 46.0001 5.48351 45.431 4.47061 44.4183C3.45771 43.4053 2.88867 42.0314 2.88867 40.599V36.0721C2.88867 34.756 3.95562 33.689 5.27177 33.689ZM46.8887 36.0721C46.8887 34.756 45.8217 33.689 44.5056 33.689C43.1895 33.689 42.1225 34.756 42.1225 36.0721V40.599C42.1225 40.7674 42.0557 40.9288 41.9366 41.048C41.8174 41.1671 41.656 41.2339 41.4876 41.2339H36.9607C35.6446 41.2339 34.5776 42.3009 34.5776 43.617C34.5776 44.9331 35.6446 46.0001 36.9607 46.0001H41.4876C42.92 46.0001 44.2939 45.431 45.3069 44.4183C46.3196 43.4053 46.8887 42.0314 46.8887 40.599V36.0721Z" fill="#D7DBDF"/>
<path fill-rule="evenodd" clip-rule="evenodd" d="M15.3429 10.4817C13.1493 10.4817 11.3711 12.2599 11.3711 14.4535V21.0403C11.3711 23.2339 13.1493 25.0121 15.3429 25.0121H21.9297C24.1233 25.0121 25.9015 23.2339 25.9015 21.0403V14.4535C25.9015 12.2599 24.1233 10.4817 21.9297 10.4817H15.3429ZM16.1373 20.2459V15.2479H21.1353V20.2459H16.1373ZM16.1374 30.959C16.1374 29.6428 15.0704 28.5759 13.7543 28.5759C12.4381 28.5759 11.3712 29.6428 11.3712 30.959V35.1344C11.3712 36.4505 12.4381 37.5175 13.7543 37.5175H17.9297C19.2459 37.5175 20.3128 36.4505 20.3128 35.1344C20.3128 33.8182 19.2459 32.7513 17.9297 32.7513H16.1374V30.959ZM20.7765 30.959C20.7765 29.6428 21.8435 28.5759 23.1596 28.5759H24.8883C26.2044 28.5759 27.2714 29.6428 27.2714 30.959V35.1344C27.2714 36.4505 26.2044 37.5175 24.8883 37.5175C23.5721 37.5175 22.5052 36.4505 22.5052 35.1344V33.2511C21.5072 32.9667 20.7765 32.0481 20.7765 30.959ZM34.2307 12.865C34.2307 11.5489 33.1638 10.4819 31.8476 10.4819C30.5315 10.4819 29.4645 11.5489 29.4645 12.865V17.0405C29.4645 18.3567 30.5315 19.4236 31.8476 19.4236H36.023C37.3394 19.4236 38.4061 18.3567 38.4061 17.0405C38.4061 15.7244 37.3394 14.6574 36.023 14.6574H34.2307V12.865ZM29.4645 23.9999C29.4645 22.6837 30.5315 21.6168 31.8476 21.6168H36.023C37.3394 21.6168 38.4061 22.6837 38.4061 23.9999V26.0303C38.4061 27.3464 37.3394 28.4134 36.023 28.4134C34.8267 28.4134 33.8364 27.5319 33.6659 26.383H31.8476C30.5315 26.383 29.4645 25.316 29.4645 23.9999ZM34.2307 30.959C34.2307 29.6428 33.1638 28.5759 31.8476 28.5759C30.5315 28.5759 29.4645 29.6428 29.4645 30.959V35.1344C29.4645 36.4505 30.5315 37.5175 31.8476 37.5175H36.023C37.3394 37.5175 38.4061 36.4505 38.4061 35.1344C38.4061 33.8182 37.3394 32.7513 36.023 32.7513H34.2307V30.959Z" fill="#3E63DD"/>
</svg>
