<svg width="20" height="20" viewBox="0 0 20 20" fill="none" xmlns="http://www.w3.org/2000/svg">
<path d="M3.33337 3.33337H5.5556V5.5556H3.33337V3.33337Z" fill="#61656F"/>
<path d="M0 8.88889V0H8.88889V8.88889H0ZM2.22222 2.22222V6.66667H6.66667V2.22222H2.22222Z" fill="#61656F"/>
<path d="M11.1111 11.1111H14.4444V13.3333H11.1111V11.1111Z" fill="#61656F"/>
<path d="M14.4444 13.3333H16.6666V11.1111H20V14.4444H16.6666V15.5555H17.7778V16.6666H20V20H17.7778V17.7778H15.5555V20H11.1111V15.5555H13.3333V17.7778H14.4444V13.3333Z" fill="#61656F"/>
<path d="M16.6667 3.33337H14.4445V5.5556H16.6667V3.33337Z" fill="#61656F"/>
<path d="M11.1111 0V8.88889H20V0H11.1111ZM17.7778 2.22222V6.66667H13.3333V2.22222H17.7778Z" fill="#61656F"/>
<path d="M3.33337 14.4445H5.5556V16.6667H3.33337V14.4445Z" fill="#61656F"/>
<path d="M0 20V11.1111H8.88889V20H0ZM2.22222 13.3333V17.7778H6.66667V13.3333H2.22222Z" fill="#61656F"/>
</svg>
