<?xml version="1.0" encoding="UTF-8"?>
<svg width="24px" height="24px" viewBox="0 0 24 24" version="1.1" xmlns="http://www.w3.org/2000/svg" xmlns:xlink="http://www.w3.org/1999/xlink">
    <title>qrscanner</title>
    <g id="Page-1" stroke="none" stroke-width="1" fill="none" fill-rule="evenodd">
        <g id="qrscanner">
            <rect id="Rectangle" x="0" y="0" width="24" height="24"></rect>
            <path d="M9.5,6.5 L9.5,9.5 L6.5,9.5 L6.5,6.5 L9.5,6.5 M11,5 L5,5 L5,11 L11,11 L11,5 L11,5 Z M9.5,14.5 L9.5,17.5 L6.5,17.5 L6.5,14.5 L9.5,14.5 M11,13 L5,13 L5,19 L11,19 L11,13 L11,13 Z M17.5,6.5 L17.5,9.5 L14.5,9.5 L14.5,6.5 L17.5,6.5 M19,5 L13,5 L13,11 L19,11 L19,5 L19,5 Z M13,13 L14.5,13 L14.5,14.5 L13,14.5 L13,13 Z M14.5,14.5 L16,14.5 L16,16 L14.5,16 L14.5,14.5 Z M16,13 L17.5,13 L17.5,14.5 L16,14.5 L16,13 Z M13,16 L14.5,16 L14.5,17.5 L13,17.5 L13,16 Z M14.5,17.5 L16,17.5 L16,19 L14.5,19 L14.5,17.5 Z M16,16 L17.5,16 L17.5,17.5 L16,17.5 L16,16 Z M17.5,14.5 L19,14.5 L19,16 L17.5,16 L17.5,14.5 Z M17.5,17.5 L19,17.5 L19,19 L17.5,19 L17.5,17.5 Z M22,7 L20,7 L20,4 L17,4 L17,2 L22,2 L22,7 Z M22,22 L22,17 L20,17 L20,20 L17,20 L17,22 L22,22 Z M2,22 L7,22 L7,20 L4,20 L4,17 L2,17 L2,22 Z M2,2 L2,7 L4,7 L4,4 L7,4 L7,2 L2,2 Z" id="Shape" fill="#434B53" fill-rule="nonzero"></path>
        </g>
    </g>
</svg>