<svg width="20" height="20" viewBox="0 0 20 20" fill="none" xmlns="http://www.w3.org/2000/svg">
<path d="M3.3335 3.33325H5.55572V5.55547H3.3335V3.33325Z" fill="#61656F"/>
<path d="M0 8.88889V0H8.88889V8.88889H0ZM2.22222 2.22222V6.66667H6.66667V2.22222H2.22222Z" fill="#61656F"/>
<path d="M11.1113 11.1111H14.4447V13.3333H11.1113V11.1111Z" fill="#61656F"/>
<path d="M14.4447 13.3333H16.6669V11.1111H20.0002V14.4444H16.6669V15.5555H17.778V16.6666H20.0002V20H17.778V17.7778H15.5558V20H11.1113V15.5555H13.3336V17.7778H14.4447L14.4447 13.3333Z" fill="#61656F"/>
<path d="M16.6666 3.33325H14.4443V5.55547H16.6666V3.33325Z" fill="#61656F"/>
<path d="M11.1113 0V8.88889H20.0002V0H11.1113ZM17.778 2.22222V6.66667H13.3336V2.22222H17.778Z" fill="#61656F"/>
<path d="M3.3335 14.4443H5.55572V16.6666H3.3335V14.4443Z" fill="#61656F"/>
<path d="M0 20V11.1111H8.88889V20H0ZM2.22222 13.3333V17.7778H6.66667V13.3333H2.22222Z" fill="#61656F"/>
</svg>
