<svg width="18" height="18" viewBox="0 0 18 18" fill="none" xmlns="http://www.w3.org/2000/svg">
<path d="M8.99984 4.83342C6.69984 4.83342 4.83317 6.70008 4.83317 9.00008C4.83317 11.3001 6.69984 13.1667 8.99984 13.1667C11.2998 13.1667 13.1665 11.3001 13.1665 9.00008C13.1665 6.70008 11.2998 4.83342 8.99984 4.83342ZM8.99984 0.666748C4.39984 0.666748 0.666504 4.40008 0.666504 9.00008C0.666504 13.6001 4.39984 17.3334 8.99984 17.3334C13.5998 17.3334 17.3332 13.6001 17.3332 9.00008C17.3332 4.40008 13.5998 0.666748 8.99984 0.666748ZM8.99984 15.6667C5.3165 15.6667 2.33317 12.6834 2.33317 9.00008C2.33317 5.31675 5.3165 2.33341 8.99984 2.33341C12.6832 2.33341 15.6665 5.31675 15.6665 9.00008C15.6665 12.6834 12.6832 15.6667 8.99984 15.6667Z" fill="#61656F"/>
</svg>
