<svg width="49" height="48" viewBox="0 0 49 48" fill="none" xmlns="http://www.w3.org/2000/svg">
<path d="M2.88867 16.4763V40.5001C2.88867 43.5376 5.35111 46.0001 8.38867 46.0001H41.3887C44.4262 46.0001 46.8887 43.5376 46.8887 40.5001V16.4763H2.88867Z" fill="#D7DBDF"/>
<path fill-rule="evenodd" clip-rule="evenodd" d="M13.8887 2C15.6244 2 17.0315 3.4071 17.0315 5.14286V6.71429H32.7461V5.14286C32.7461 3.4071 34.1532 2 35.889 2C37.6248 2 39.0318 3.4071 39.0318 5.14286V6.71429H41.3887C44.177 6.71429 46.8887 8.79479 46.8887 11.8884V14.1352V16.4923H44.5315H5.24581H2.88867V14.1352V11.8884C2.88867 8.79479 5.60039 6.71429 8.38867 6.71429H10.7458V5.14286C10.7458 3.4071 12.1529 2 13.8887 2Z" fill="#3E63DD"/>
<path fill-rule="evenodd" clip-rule="evenodd" d="M14.6743 31.29C14.6743 29.9882 15.7297 28.9329 17.0315 28.9329H32.7457C34.0475 28.9329 35.1029 29.9882 35.1029 31.29C35.1029 32.5918 34.0475 33.6471 32.7457 33.6471H17.0315C15.7297 33.6471 14.6743 32.5918 14.6743 31.29Z" fill="#3E63DD"/>
</svg>
