<svg width="49" height="48" viewBox="0 0 49 48" fill="none" xmlns="http://www.w3.org/2000/svg">
<path d="M24.8887 46C37.0389 46 46.8887 36.1503 46.8887 24C46.8887 11.8497 37.0389 2 24.8887 2C12.7384 2 2.88867 11.8497 2.88867 24C2.88867 36.1503 12.7384 46 24.8887 46Z" fill="#D7DBDF"/>
<path fill-rule="evenodd" clip-rule="evenodd" d="M27.1014 13.284L25.7059 14.0064L27.1131 13.3069L29.6662 18.443L35.3265 19.3024C35.7863 19.3661 36.2191 19.5576 36.5758 19.8551C36.9379 20.1571 37.2066 20.5559 37.3502 21.005C37.4938 21.454 37.5067 21.9346 37.3873 22.3907C37.2688 22.8433 37.0249 23.253 36.6836 23.5729L32.742 27.3189L33.5734 33.1697C33.6558 33.6202 33.612 34.0857 33.4461 34.5134C33.2726 34.9616 32.9727 35.3494 32.583 35.6304C32.1933 35.9114 31.7305 36.0732 31.2506 36.0965C30.7842 36.1188 30.3213 36.0094 29.9147 35.781L24.8888 33.1201L19.8628 35.781C19.4563 36.0094 18.9933 36.1188 18.5269 36.0965C18.0471 36.0732 17.5842 35.9114 17.1945 35.6304C16.8048 35.3494 16.505 34.9616 16.3314 34.5134C16.1625 34.0778 16.1202 33.6033 16.2088 33.145L17.1691 27.4433L13.0849 23.5329L13.0529 23.5023C12.7327 23.1779 12.5084 22.7712 12.4037 22.3276C12.2991 21.884 12.3186 21.4201 12.46 20.9869C12.6015 20.5536 12.8595 20.1676 13.2058 19.8713C13.5521 19.5749 13.9732 19.3796 14.4232 19.3067L14.4465 19.3029L20.1123 18.4725L22.6587 13.3501C22.8561 12.9392 23.1628 12.5906 23.5455 12.3424C23.9342 12.0903 24.3856 11.952 24.8488 11.9431C25.312 11.9342 25.7684 12.055 26.1665 12.292C26.5646 12.5289 26.8884 12.8726 27.1014 13.284Z" fill="#3E63DD"/>
</svg>
