<svg width="49" height="48" viewBox="0 0 49 48" fill="none" xmlns="http://www.w3.org/2000/svg">
<path fill-rule="evenodd" clip-rule="evenodd" d="M26.4601 5.14279C26.4601 3.84097 27.5154 2.78564 28.8172 2.78564H44.5315C45.8333 2.78564 46.8887 3.84097 46.8887 5.14279C46.8887 6.44459 45.8333 7.49993 44.5315 7.49993H28.8172C27.5154 7.49993 26.4601 6.44459 26.4601 5.14279ZM28.8172 12.2142C27.5154 12.2142 26.4601 13.2696 26.4601 14.5714C26.4601 15.8732 27.5154 16.9285 28.8172 16.9285H44.5315C45.8333 16.9285 46.8887 15.8732 46.8887 14.5714C46.8887 13.2696 45.8333 12.2142 44.5315 12.2142H28.8172ZM26.4601 23.9999C26.4601 22.6981 27.5154 21.6428 28.8172 21.6428H44.5315C45.8333 21.6428 46.8887 22.6981 46.8887 23.9999C46.8887 25.3017 45.8333 26.3571 44.5315 26.3571H28.8172C27.5154 26.3571 26.4601 25.3017 26.4601 23.9999ZM2.88867 33.4285C2.88867 32.1267 3.944 31.0714 5.24581 31.0714H44.5315C45.8333 31.0714 46.8887 32.1267 46.8887 33.4285C46.8887 34.7303 45.8333 35.7856 44.5315 35.7856H5.24581C3.944 35.7856 2.88867 34.7303 2.88867 33.4285ZM5.24581 40.4999C3.944 40.4999 2.88867 41.5553 2.88867 42.8571C2.88867 44.1588 3.944 45.2142 5.24581 45.2142H44.5315C45.8333 45.2142 46.8887 44.1588 46.8887 42.8571C46.8887 41.5553 45.8333 40.4999 44.5315 40.4999H5.24581Z" fill="#D7DBDF"/>
<path fill-rule="evenodd" clip-rule="evenodd" d="M13.8888 7.88245L11.3972 15.3571H16.3803L13.8888 7.88245ZM21.8694 16.9166L18.1933 5.88818C17.5757 4.03538 15.8418 2.78564 13.8888 2.78564C11.9357 2.78564 10.2018 4.03538 9.5842 5.88818L5.90807 16.9166C5.89576 16.9508 5.88422 16.9855 5.87348 17.0204L3.79543 23.2545C3.38376 24.4896 4.05121 25.8245 5.28622 26.2361C6.52123 26.6478 7.85613 25.9803 8.26778 24.7453L9.82579 20.0714H17.9517L19.5097 24.7453C19.9214 25.9803 21.2563 26.6478 22.4913 26.2361C23.7263 25.8245 24.3938 24.4896 23.9821 23.2545L21.904 17.0204C21.8933 16.9855 21.8818 16.9508 21.8694 16.9166Z" fill="#3E63DD"/>
</svg>
