<?xml version="1.0" encoding="UTF-8"?>
<svg width="152px" height="124px" viewBox="0 0 152 124" version="1.1" xmlns="http://www.w3.org/2000/svg" xmlns:xlink="http://www.w3.org/1999/xlink">
    <title>rich text editor</title>
    <g id="Page-1" stroke="none" stroke-width="1" fill="none" fill-rule="evenodd">
        <g id="rich-text-editor" fill="#434b53" fill-rule="nonzero">
            <path d="M61.698,29.835 L16.49,29.835 C14.557,29.835 12.99,28.269 12.99,26.335 C12.99,24.402 14.557,22.835 16.49,22.835 L61.698,22.835 C63.631,22.835 65.198,24.402 65.198,26.335 C65.198,28.269 63.631,29.835 61.698,29.835 Z" id="Path"></path>
            <path d="M61.698,44.835 L16.49,44.835 C14.557,44.835 12.99,43.269 12.99,41.335 C12.99,39.402 14.557,37.835 16.49,37.835 L61.698,37.835 C63.631,37.835 65.198,39.402 65.198,41.335 C65.198,43.269 63.631,44.835 61.698,44.835 Z" id="Path"></path>
            <path d="M61.698,59.835 L16.49,59.835 C14.557,59.835 12.99,58.269 12.99,56.335 C12.99,54.402 14.557,52.835 16.49,52.835 L61.698,52.835 C63.631,52.835 65.198,54.402 65.198,56.335 C65.198,58.269 63.631,59.835 61.698,59.835 Z" id="Path"></path>
            <path d="M61.698,74.836 L16.49,74.836 C14.557,74.836 12.99,73.269 12.99,71.336 C12.99,69.402 14.557,67.836 16.49,67.836 L61.698,67.836 C63.631,67.836 65.198,69.402 65.198,71.336 C65.198,73.269 63.631,74.836 61.698,74.836 Z" id="Path"></path>
            <path d="M61.698,89.836 L16.49,89.836 C14.557,89.836 12.99,88.269 12.99,86.336 C12.99,84.402 14.557,82.836 16.49,82.836 L61.698,82.836 C63.631,82.836 65.198,84.402 65.198,86.336 C65.198,88.269 63.631,89.836 61.698,89.836 Z" id="Path"></path>
            <path d="M106.907,104.836 L16.49,104.836 C14.557,104.836 12.99,103.269 12.99,101.336 C12.99,99.402 14.557,97.836 16.49,97.836 L106.907,97.836 C108.84,97.836 110.407,99.402 110.407,101.336 C110.407,103.269 108.84,104.836 106.907,104.836 Z" id="Path"></path>
            <path d="M119.353,123.154 L4.045,123.154 C2.112,123.154 0.545,121.587 0.545,119.654 L0.545,4.346 C0.545,2.413 2.112,0.846 4.045,0.846 L119.353,0.846 C121.286,0.846 122.853,2.413 122.853,4.346 C122.853,6.28 121.286,7.846 119.353,7.846 L7.545,7.846 L7.545,116.155 L115.853,116.155 L115.853,72.426 C115.853,70.492 117.42,68.926 119.353,68.926 C121.286,68.926 122.853,70.492 122.853,72.426 L122.853,119.655 C122.853,121.587 121.285,123.154 119.353,123.154 Z" id="Path"></path>
            <path d="M72.64,89.635 C71.718,89.635 70.817,89.27 70.151,88.596 C69.257,87.692 68.924,86.375 69.28,85.156 L77.069,58.453 C77.61,56.597 79.554,55.528 81.409,56.073 C83.265,56.614 84.331,58.557 83.79,60.413 L77.763,81.073 L98.492,75.292 C100.351,74.772 102.284,75.86 102.804,77.724 C103.324,79.585 102.235,81.516 100.373,82.035 L73.581,89.508 C73.27,89.594 72.954,89.635 72.64,89.635 Z" id="Path"></path>
            <path d="M99.432,82.162 C98.53,82.162 97.627,81.815 96.943,81.123 L77.939,61.892 C77.287,61.232 76.924,60.339 76.928949,59.412 C76.934,58.483 77.309,57.596 77.969,56.943 L112.323,23 C112.978,22.353 113.862,21.989 114.783,21.989 C114.79,21.989 114.797,21.989 114.804,21.989 C115.732,21.995 116.62,22.369 117.273,23.03 L136.275,42.264 C137.633,43.64 137.62,45.856 136.245,47.214 L101.892,81.152 C101.209,81.826 100.32,82.162 99.432,82.162 Z M85.379,59.462 L99.461,73.713 L128.835,44.693 L114.752,30.438 L85.379,59.462 Z" id="Shape"></path>
            <path d="M142.748,39.358 C141.846,39.358 140.943,39.011 140.258,38.318 L121.26,19.089 C119.903,17.714 119.915,15.499 121.289,14.14 L122.478,12.964 C125.684,9.798 129.931,8.055 134.44,8.055 C139.025,8.055 143.324,9.849 146.544,13.106 C149.738,16.343 151.482,20.627 151.454,25.172 C151.427,29.72 149.63,33.983 146.395,37.174 L145.207,38.349 C144.525,39.022 143.637,39.358 142.748,39.358 Z M128.816,16.777 L142.663,30.792 C143.816,29.144 144.442,27.187 144.455,25.13 C144.472,22.453 143.445,19.93 141.565,18.026 C139.671,16.111 137.14,15.055 134.44,15.055 C132.406,15.055 130.462,15.657 128.816,16.777 Z" id="Shape"></path>
            <path d="M133.784,48.224 C133.777,48.224 133.77,48.224 133.763,48.224 C132.834,48.219 131.947,47.844 131.293,47.184 L112.291,27.949 C110.934,26.574 110.946,24.358 112.32,23 L121.283,14.141 C121.939,13.494 122.823,13.13 123.744,13.13 C123.751,13.13 123.758,13.13 123.765,13.13 C124.694,13.136 125.581,13.51 126.234,14.17 L145.237,33.399 C146.595,34.774 146.583,36.989 145.209,38.348 L136.245,47.213 C135.59,47.86 134.705,48.224 133.784,48.224 Z M119.731,25.518 L133.812,39.773 L137.799,35.831 L123.715,21.58 L119.731,25.518 Z" id="Shape"></path>
        </g>
    </g>
</svg>