<svg width="20" height="18" viewBox="0 0 20 18" fill="none" xmlns="http://www.w3.org/2000/svg">
<path d="M1.87502 2.125C1.87502 1.62772 2.07257 1.15081 2.4242 0.799175C2.77583 0.447544 3.25274 0.25 3.75002 0.25H16.25C16.7473 0.25 17.2242 0.447544 17.5759 0.799175C17.9275 1.15081 18.125 1.62772 18.125 2.125V6.57875C18.6622 6.71687 19.1382 7.02973 19.4781 7.46806C19.818 7.9064 20.0025 8.44532 20.0025 9C20.0025 9.55468 19.818 10.0936 19.4781 10.5319C19.1382 10.9703 18.6622 11.2831 18.125 11.4213V15.875C18.125 16.3723 17.9275 16.8492 17.5759 17.2008C17.2242 17.5525 16.7473 17.75 16.25 17.75H3.75002C3.25274 17.75 2.77583 17.5525 2.4242 17.2008C2.07257 16.8492 1.87502 16.3723 1.87502 15.875V11.4213C1.33782 11.2831 0.861807 10.9703 0.521915 10.5319C0.182024 10.0936 -0.00244141 9.55468 -0.00244141 9C-0.00244141 8.44532 0.182024 7.9064 0.521915 7.46806C0.861807 7.02973 1.33782 6.71687 1.87502 6.57875V2.125ZM3.12502 6.57875C3.66223 6.71687 4.13824 7.02973 4.47813 7.46806C4.81803 7.9064 5.00249 8.44532 5.00249 9C5.00249 9.55468 4.81803 10.0936 4.47813 10.5319C4.13824 10.9703 3.66223 11.2831 3.12502 11.4213V15.875C3.12502 16.0408 3.19087 16.1997 3.30808 16.3169C3.42529 16.4342 3.58426 16.5 3.75002 16.5H16.25C16.4158 16.5 16.5748 16.4342 16.692 16.3169C16.8092 16.1997 16.875 16.0408 16.875 15.875V11.4213C16.3378 11.2831 15.8618 10.9703 15.5219 10.5319C15.182 10.0936 14.9976 9.55468 14.9976 9C14.9976 8.44532 15.182 7.9064 15.5219 7.46806C15.8618 7.02973 16.3378 6.71687 16.875 6.57875V2.125C16.875 1.95924 16.8092 1.80027 16.692 1.68306C16.5748 1.56585 16.4158 1.5 16.25 1.5H3.75002C3.58426 1.5 3.42529 1.56585 3.30808 1.68306C3.19087 1.80027 3.12502 1.95924 3.12502 2.125V6.57875ZM2.50002 7.75C2.1685 7.75 1.85056 7.8817 1.61614 8.11612C1.38172 8.35054 1.25002 8.66848 1.25002 9C1.25002 9.33152 1.38172 9.64946 1.61614 9.88388C1.85056 10.1183 2.1685 10.25 2.50002 10.25C2.83155 10.25 3.14949 10.1183 3.38391 9.88388C3.61833 9.64946 3.75002 9.33152 3.75002 9C3.75002 8.66848 3.61833 8.35054 3.38391 8.11612C3.14949 7.8817 2.83155 7.75 2.50002 7.75ZM17.5 7.75C17.1685 7.75 16.8506 7.8817 16.6161 8.11612C16.3817 8.35054 16.25 8.66848 16.25 9C16.25 9.33152 16.3817 9.64946 16.6161 9.88388C16.8506 10.1183 17.1685 10.25 17.5 10.25C17.8315 10.25 18.1495 10.1183 18.3839 9.88388C18.6183 9.64946 18.75 9.33152 18.75 9C18.75 8.66848 18.6183 8.35054 18.3839 8.11612C18.1495 7.8817 17.8315 7.75 17.5 7.75Z" fill="#61656F"/>
<path d="M14.2925 4H5.70752L5.62502 6.4925H6.10752C6.37002 4.9275 6.87252 4.685 8.82377 4.62375L9.25252 4.61V12.5388C9.25252 13.21 9.10752 13.37 7.94127 13.4738V14H12.0588V13.4738C10.8863 13.37 10.7413 13.2113 10.7413 12.5388V4.61L11.1763 4.6225C13.1263 4.685 13.63 4.9275 13.8925 6.4925H14.375L14.2925 4Z" fill="#61656F"/>
</svg>
