<svg width="49" height="48" viewBox="0 0 49 48" fill="none" xmlns="http://www.w3.org/2000/svg">
<g clip-path="url(#clip0_873_270630)">
<path fill-rule="evenodd" clip-rule="evenodd" d="M11.5287 26.36H5.24867C3.94867 26.36 2.88867 25.3 2.88867 24C2.88867 22.7 3.94867 21.64 5.24867 21.64H11.5287C12.8287 21.64 13.8887 22.7 13.8887 24C13.8887 25.3 12.8287 26.36 11.5287 26.36Z" fill="#D7DBDF"/>
<path fill-rule="evenodd" clip-rule="evenodd" d="M17.1087 31.78C18.0287 32.7 18.0287 34.19 17.1087 35.11L12.6687 39.56C11.7487 40.48 10.2487 40.48 9.32867 39.56C8.40867 38.64 8.40867 37.14 9.32867 36.22L13.7787 31.78C14.6987 30.86 16.1887 30.86 17.1087 31.78Z" fill="#D7DBDF"/>
<path fill-rule="evenodd" clip-rule="evenodd" d="M17.1087 12.89C18.0287 13.81 18.0287 15.3 17.1087 16.22C16.1887 17.14 14.6987 17.14 13.7787 16.22L9.32867 11.78C8.40867 10.86 8.40867 9.36 9.32867 8.44C10.2487 7.52 11.7487 7.52 12.6687 8.44L17.1087 12.89Z" fill="#D7DBDF"/>
<path fill-rule="evenodd" clip-rule="evenodd" d="M27.2488 4.36V10.64C27.2488 11.94 26.1888 13 24.8888 13C23.5888 13 22.5288 11.94 22.5288 10.64V4.36C22.5288 3.06 23.5888 2 24.8888 2C26.1888 2 27.2488 3.06 27.2488 4.36Z" fill="#3E63DD"/>
<path fill-rule="evenodd" clip-rule="evenodd" d="M27.2488 37.36V43.64C27.2488 44.94 26.1888 46 24.8888 46C23.5888 46 22.5288 44.94 22.5288 43.64V37.36C22.5288 36.06 23.5888 35 24.8888 35C26.1888 35 27.2488 36.06 27.2488 37.36Z" fill="#D7DBDF"/>
<path fill-rule="evenodd" clip-rule="evenodd" d="M40.4485 36.22C41.3685 37.14 41.3685 38.64 40.4485 39.56C39.5285 40.48 38.0285 40.48 37.1085 39.56L32.6685 35.11C31.7485 34.19 31.7485 32.7 32.6685 31.78C33.5885 30.86 35.0785 30.86 35.9985 31.78L40.4485 36.22Z" fill="#D7DBDF"/>
<path fill-rule="evenodd" clip-rule="evenodd" d="M32.6685 16.22C31.7485 15.3 31.7485 13.81 32.6685 12.89L37.1085 8.44C38.0285 7.52 39.5285 7.52 40.4485 8.44C41.3685 9.36 41.3685 10.86 40.4485 11.78L35.9985 16.22C35.0785 17.14 33.5885 17.14 32.6685 16.22Z" fill="#3E63DD"/>
<path fill-rule="evenodd" clip-rule="evenodd" d="M46.8887 24C46.8887 25.3 45.8287 26.36 44.5287 26.36H38.2487C36.9487 26.36 35.8887 25.3 35.8887 24C35.8887 22.7 36.9487 21.64 38.2487 21.64H44.5287C45.8287 21.64 46.8887 22.7 46.8887 24Z" fill="#3E63DD"/>
</g>
<defs>
<clipPath id="clip0_873_270630">
<rect width="44" height="44" fill="white" transform="translate(2.88867 2)"/>
</clipPath>
</defs>
</svg>
