<?xml version="1.0" encoding="UTF-8"?>
<svg width="489px" height="468px" viewBox="0 0 489 468" version="1.1" xmlns="http://www.w3.org/2000/svg" xmlns:xlink="http://www.w3.org/1999/xlink">
    <title>starrating</title>
    <g id="Page-1" stroke="none" stroke-width="1" fill="none" fill-rule="evenodd">
        <g id="toggleswitch" transform="translate(-579.000000, 0.000000)" fill="#434B53" fill-rule="nonzero">
            <g id="starrating" transform="translate(579.000000, 0.000000)">
                <path d="M471.563,163.778 L326.063,142.978 L261.663,10.978 C253.663,-4.422 231.663,-1.222 226.363,10.978 L161.963,142.978 L16.363,163.778 C-0.037,164.778 -5.237,184.678 5.963,196.978 L110.963,299.878 L85.963,444.378 C83.063,462.178 102.663,472.178 114.063,465.178 L243.963,396.578 L373.863,464.178 C387.463,471.178 403.663,461.378 401.963,444.478 L376.963,299.878 L481.963,196.978 C494.663,183.478 485.563,165.478 471.563,163.778 Z M349.832273,276.526937 C345.331453,282.097299 343.188205,288.738885 344.259829,295.487592 L365.370818,420.178 L254.029102,361.153589 C246.849222,358.154163 240.097992,358.154163 233.989736,361.153589 L122.648019,420.178 L143.759009,295.487592 C144.830633,287.667661 142.687385,281.026076 138.186565,276.526937 L48.063,188.579493 L172.800015,170.797184 C179.444083,169.725961 185.016527,166.298046 188.445723,159.656461 L244.170162,47.178 L299.894602,159.656461 C303.216636,165.226823 308.78908,169.725961 315.54031,170.797184 L440.063,188.579493 L349.832273,276.526937 Z" id="Shape"></path>
            </g>
        </g>
    </g>
</svg>