<?xml version="1.0" encoding="iso-8859-1"?>
<!-- Generator: Adobe Illustrator 19.0.0, SVG Export Plug-In . SVG Version: 6.00 Build 0)  -->
<svg version="1.1" id="Capa_1" xmlns="http://www.w3.org/2000/svg" xmlns:xlink="http://www.w3.org/1999/xlink" x="0px" y="0px"
	 viewBox="0 0 488.022 488.022" style="enable-background:new 0 0 488.022 488.022;" xml:space="preserve">
<g>
	<path d="M471.563,173.778l-145.5-20.8l-64.4-132c-8-15.4-30-12.2-35.3,0l-64.4,132l-145.6,20.8c-16.4,1-21.6,20.9-10.4,33.2
		l105,102.9l-25,144.5c-2.9,17.8,16.7,27.8,28.1,20.8l129.9-68.6l129.9,67.6c13.6,7,29.8-2.8,28.1-19.7l-25-144.6l105-102.9
		C494.663,193.478,485.563,175.478,471.563,173.778z M342.663,288.078c-4.2,5.2-6.2,11.4-5.2,17.7l19.7,116.4l-103.9-55.1
		c-6.7-2.8-13-2.8-18.7,0l-103.9,55.1l19.7-116.4c1-7.3-1-13.5-5.2-17.7l-84.1-82.1l116.4-16.6c6.2-1,11.4-4.2,14.6-10.4l52-105
		l52,105c3.1,5.2,8.3,9.4,14.6,10.4l116.2,16.6L342.663,288.078z"/>
</g>
<g>
</g>
<g>
</g>
<g>
</g>
<g>
</g>
<g>
</g>
<g>
</g>
<g>
</g>
<g>
</g>
<g>
</g>
<g>
</g>
<g>
</g>
<g>
</g>
<g>
</g>
<g>
</g>
<g>
</g>
</svg>
