<svg width="20" height="20" viewBox="0 0 20 20" fill="none" xmlns="http://www.w3.org/2000/svg">
<g clip-path="url(#clip0_640_18038)">
<path d="M19.0826 7.05928L13.087 6.18792L10.4068 0.754323C10.3336 0.605555 10.2131 0.485123 10.0644 0.41192C9.69127 0.22773 9.23788 0.381221 9.05133 0.754323L6.37113 6.18792L0.37552 7.05928C0.210222 7.08289 0.0590916 7.16082 -0.0566173 7.27889C-0.196503 7.42267 -0.273586 7.6161 -0.27093 7.81668C-0.268273 8.01726 -0.186093 8.20858 -0.0424489 8.34861L4.29545 12.5779L3.2706 18.5499C3.24657 18.6888 3.26194 18.8317 3.31498 18.9623C3.36802 19.0929 3.45659 19.2061 3.57066 19.2889C3.68474 19.3718 3.81974 19.421 3.96037 19.4311C4.101 19.4411 4.24162 19.4115 4.3663 19.3457L9.72905 16.5262L15.0918 19.3457C15.2382 19.4236 15.4082 19.4496 15.5712 19.4212C15.9821 19.3504 16.2583 18.9608 16.1875 18.5499L15.1626 12.5779L19.5006 8.34861C19.6186 8.2329 19.6965 8.08177 19.7202 7.91647C19.7839 7.50322 19.4958 7.12067 19.0826 7.05928V7.05928ZM13.3373 11.9828L14.1897 16.9488L9.72905 14.6063L5.26835 16.9512L6.12082 11.9852L2.51259 8.46668L7.49988 7.74172L9.72905 3.22435L11.9582 7.74172L16.9455 8.46668L13.3373 11.9828Z" fill="#61656F"/>
</g>
<defs>
<clipPath id="clip0_640_18038">
<rect width="20" height="20" fill="white"/>
</clipPath>
</defs>
</svg>
