<svg width="49" height="48" viewBox="0 0 49 48" fill="none" xmlns="http://www.w3.org/2000/svg">
<path fill-rule="evenodd" clip-rule="evenodd" d="M2.88867 43.5643C2.88867 42.2551 3.95 41.1937 5.25921 41.1937H44.5181C45.8273 41.1937 46.8887 42.2551 46.8887 43.5643C46.8887 44.8734 45.8273 45.9348 44.5181 45.9348H5.25921C3.95 45.9348 2.88867 44.8734 2.88867 43.5643Z" fill="#3E63DD"/>
<path fill-rule="evenodd" clip-rule="evenodd" d="M5.26053 2.06531C4.38772 2.06531 3.68018 2.77286 3.68018 3.64567V36.1989C3.68018 37.0716 4.38772 37.7792 5.26053 37.7792H13.5904C14.4633 37.7792 15.1708 37.0716 15.1708 36.1989V3.64567C15.1708 2.77286 14.4633 2.06531 13.5904 2.06531H5.26053ZM20.7246 18.4797C19.8518 18.4797 19.1442 19.1872 19.1442 20.06V36.1983C19.1442 37.0709 19.8518 37.7786 20.7246 37.7786H29.0545C29.9273 37.7786 30.6348 37.0709 30.6348 36.1983V20.06C30.6348 19.1872 29.9273 18.4797 29.0545 18.4797H20.7246ZM34.6086 8.1426C34.6086 7.2698 35.316 6.56225 36.1889 6.56225H44.5187C45.3917 6.56225 46.099 7.2698 46.099 8.1426V36.1983C46.099 37.0709 45.3917 37.7786 44.5187 37.7786H36.1889C35.316 37.7786 34.6086 37.0709 34.6086 36.1983V8.1426Z" fill="#D7DBDF"/>
</svg>
