<svg width="49" height="48" viewBox="0 0 49 48" fill="none" xmlns="http://www.w3.org/2000/svg">
<path fill-rule="evenodd" clip-rule="evenodd" d="M11.5317 23.9999C11.5317 22.5797 12.5871 21.4285 13.8889 21.4285H40.2631C41.5649 21.4285 42.6203 22.5797 42.6203 23.9999C42.6203 25.42 41.5649 26.5713 40.2631 26.5713H13.8889C12.5871 26.5713 11.5317 25.42 11.5317 23.9999Z" fill="#3E63DD"/>
<path fill-rule="evenodd" clip-rule="evenodd" d="M9.17439 17.8344C5.70288 17.8344 2.88867 20.5947 2.88867 23.9999C2.88867 27.405 5.70288 30.1654 9.17439 30.1654C12.6459 30.1654 15.4601 27.405 15.4601 23.9999C15.4601 20.5947 12.6459 17.8344 9.17439 17.8344ZM24.8887 17.8344C21.4172 17.8344 18.603 20.5947 18.603 23.9999C18.603 27.405 21.4172 30.1654 24.8887 30.1654C28.3602 30.1654 31.1744 27.405 31.1744 23.9999C31.1744 20.5947 28.3602 17.8344 24.8887 17.8344ZM34.3172 23.9999C34.3172 20.5947 37.1314 17.8344 40.603 17.8344C44.0746 17.8344 46.8887 20.5947 46.8887 23.9999C46.8887 27.405 44.0746 30.1654 40.603 30.1654C37.1314 30.1654 34.3172 27.405 34.3172 23.9999Z" fill="#D7DBDF"/>
</svg>
