<?xml version="1.0" encoding="iso-8859-1"?>
<!-- Generator: Adobe Illustrator 19.0.0, SVG Export Plug-In . SVG Version: 6.00 Build 0)  -->
<svg version="1.1" id="Layer_1" xmlns="http://www.w3.org/2000/svg" xmlns:xlink="http://www.w3.org/1999/xlink" x="0px" y="0px"
	 viewBox="0 0 496 496" style="enable-background:new 0 0 496 496;" xml:space="preserve">
<g>
	<g>
		<g>
			<path d="M472,32h-72V0H100.688L0,100.688V496h400V192h72c13.232,0,24-10.768,24-24V56C496,42.768,485.232,32,472,32z M96,27.312
				V96H27.312L96,27.312z M384,480H16V112h96V16h272v16H184c-13.232,0-24,10.768-24,24v112c0,13.232,10.768,24,24,24h200V480z
				 M480,168c0,4.416-3.592,8-8,8H184c-4.408,0-8-3.584-8-8V56c0-4.416,3.592-8,8-8h288c4.408,0,8,3.584,8,8V168z"/>
			<rect x="32" y="128" width="16" height="16"/>
			<rect x="64" y="128" width="16" height="16"/>
			<rect x="32" y="160" width="16" height="16"/>
			<path d="M244,64h-24c-15.44,0-28,12.56-28,28s12.56,28,28,28h24c6.616,0,12,5.384,12,12c0,6.616-5.384,12-12,12h-24
				c-6.616,0-12-5.384-12-12v-4h-16v4c0,15.44,12.56,28,28,28h24c15.44,0,28-12.56,28-28s-12.56-28-28-28h-24
				c-6.616,0-12-5.384-12-12c0-6.616,5.384-12,12-12h24c6.616,0,12,5.384,12,12v4h16v-4C272,76.56,259.44,64,244,64z"/>
			<path d="M424,80c13.232,0,24,10.768,24,24h16c0-22.056-17.944-40-40-40c-22.056,0-40,17.944-40,40v16c0,22.056,17.944,40,40,40
				c9.04,0,17.296-3.128,24-8.208V160h16v-40h-16h-16v16h9.76c-4.392,4.872-10.696,8-17.76,8c-13.232,0-24-10.768-24-24v-16
				C400,90.768,410.768,80,424,80z"/>
			<polygon points="352,94.36 330.728,144 325.272,144 304,94.36 304,64 288,64 288,97.64 314.728,160 341.272,160 368,97.64 
				368,64 352,64 			"/>
			<path d="M176,336c0,9.008,5.048,16.776,12.4,20.88C179.6,382.224,155.272,400,128,400c-33.12,0-60.44-25.296-63.672-57.576
				C73.448,339.024,80,330.296,80,320c0-13.232-10.768-24-24-24s-24,10.768-24,24c0,10.536,6.872,19.416,16.336,22.632
				C51.728,383.64,86.128,416,128,416c35.592,0,66.16-22.92,76.392-56.44C215.528,357.48,224,347.728,224,336
				c0-9.008-5.048-16.776-12.4-20.88C220.4,289.776,244.728,272,272,272c33.12,0,60.44,25.288,63.672,57.576
				C326.552,332.976,320,341.704,320,352c0,13.232,10.768,24,24,24s24-10.768,24-24c0-10.536-6.872-19.416-16.336-22.632
				C348.272,288.36,313.872,256,272,256c-35.592,0-66.16,22.92-76.392,56.44C184.472,314.52,176,324.272,176,336z M56,328
				c-4.408,0-8-3.584-8-8c0-4.416,3.592-8,8-8s8,3.584,8,8C64,324.416,60.408,328,56,328z M344,344c4.408,0,8,3.584,8,8
				c0,4.416-3.592,8-8,8c-4.408,0-8-3.584-8-8C336,347.584,339.592,344,344,344z M200,328c4.408,0,8,3.584,8,8c0,4.416-3.592,8-8,8
				s-8-3.584-8-8C192,331.584,195.592,328,200,328z"/>
		</g>
	</g>
</g>
<g>
</g>
<g>
</g>
<g>
</g>
<g>
</g>
<g>
</g>
<g>
</g>
<g>
</g>
<g>
</g>
<g>
</g>
<g>
</g>
<g>
</g>
<g>
</g>
<g>
</g>
<g>
</g>
<g>
</g>
</svg>
