<svg width="49" height="48" viewBox="0 0 49 48" fill="none" xmlns="http://www.w3.org/2000/svg">
<path fill-rule="evenodd" clip-rule="evenodd" d="M10.9389 2C8.335 2 6.22412 4.11089 6.22412 6.71479V41.2852C6.22412 43.889 8.335 46 10.9389 46H38.8386C41.4428 46 43.5534 43.889 43.5534 41.2852V16.1398C43.5534 14.178 42.7755 12.2965 41.3903 10.9078L34.8091 4.18198L34.7971 4.16983C33.4077 2.78051 31.5234 2 29.5586 2H10.9389Z" fill="#D7DBDF"/>
<path d="M17.9889 32.1587C17.5102 32.1587 17.144 31.7366 16.7872 31.4175C16.76 31.3932 16.7313 31.37 16.7012 31.3477C16.4395 31.1551 16.0843 31.0587 15.6357 31.0587C15.3309 31.0587 15.0735 31.1019 14.8636 31.1881C14.6537 31.2715 14.4927 31.388 14.3805 31.5375C14.2712 31.6871 14.2166 31.8567 14.2166 32.0465C14.2108 32.2047 14.2439 32.3427 14.3158 32.4606C14.3906 32.5785 14.4927 32.6806 14.6221 32.7669C14.7515 32.8503 14.901 32.9236 15.0707 32.9869C15.2403 33.0472 15.4215 33.099 15.6142 33.1421L16.4078 33.3319C16.7932 33.4182 17.1469 33.5332 17.469 33.677C17.791 33.8208 18.07 33.9976 18.3058 34.2076C18.5416 34.4175 18.7242 34.6648 18.8536 34.9495C18.9859 35.2342 19.0534 35.5606 19.0563 35.9286C19.0534 36.4693 18.9154 36.938 18.6422 37.3348C18.3719 37.7288 17.9808 38.035 17.469 38.2536C16.96 38.4693 16.346 38.5771 15.6271 38.5771C14.9139 38.5771 14.2928 38.4678 13.7637 38.2493C13.2374 38.0307 12.8262 37.7072 12.53 37.2788C12.3933 37.0777 12.2869 36.8545 12.2108 36.6092C12.0573 36.1143 12.4949 35.6785 13.013 35.6785H13.0802C13.5281 35.6785 13.8608 36.0627 14.1303 36.4204C14.2827 36.6159 14.4855 36.764 14.7385 36.8647C14.9945 36.9624 15.2835 37.0113 15.6055 37.0113C15.9219 37.0113 16.1965 36.9653 16.4294 36.8733C16.6652 36.7813 16.8478 36.6533 16.9772 36.4894C17.1066 36.3255 17.1713 36.1371 17.1713 35.9243C17.1713 35.7259 17.1124 35.5591 16.9945 35.424C16.8794 35.2888 16.7098 35.1738 16.4855 35.0789C16.2641 34.984 15.9923 34.8977 15.6702 34.8201L14.7083 34.5785C13.9635 34.3974 13.3755 34.1141 12.9441 33.7288C12.5128 33.3434 12.2985 32.8244 12.3014 32.1716C12.2985 31.6367 12.4409 31.1694 12.7285 30.7697C13.0189 30.37 13.4172 30.058 13.9233 29.8337C14.4294 29.6094 15.0045 29.4973 15.6487 29.4973C16.3043 29.4973 16.8766 29.6094 17.3654 29.8337C17.8572 30.058 18.2396 30.37 18.5128 30.7697C18.6127 30.9159 18.695 31.0706 18.7595 31.2338C18.9509 31.7176 18.5092 32.1587 17.9889 32.1587Z" fill="#3E63DD"/>
<path d="M21.1978 29.618C21.6211 29.618 21.9958 29.892 22.1241 30.2954L24.0313 36.2907C24.0387 36.314 24.0603 36.3298 24.0848 36.3298C24.1092 36.3298 24.1307 36.314 24.1382 36.2908L26.0498 30.2938C26.1781 29.8913 26.552 29.618 26.9745 29.618C27.6411 29.618 28.1093 30.2747 27.8921 30.9049L25.6827 37.314C25.4479 37.995 24.8069 38.452 24.0866 38.452C23.3666 38.452 22.7258 37.9953 22.4908 37.3147L20.2789 30.9073C20.061 30.276 20.5299 29.618 21.1978 29.618Z" fill="#3E63DD"/>
<path d="M35.3729 32.4735C35.009 32.4735 34.7082 32.2182 34.5039 31.9171C34.3947 31.7532 34.2609 31.6152 34.1028 31.503C33.9475 31.388 33.7692 31.3003 33.5679 31.2399C33.3695 31.1795 33.1495 31.1493 32.9079 31.1493C32.4565 31.1493 32.0596 31.2615 31.7174 31.4858C31.3781 31.7101 31.1135 32.0364 30.9237 32.4649C30.734 32.8905 30.6391 33.411 30.6391 34.0264C30.6391 34.6418 30.7325 35.1652 30.9194 35.5965C31.1064 36.0278 31.3709 36.3571 31.7131 36.5843C32.0553 36.8086 32.4593 36.9207 32.9252 36.9207C33.3479 36.9207 33.7088 36.846 34.0079 36.6964C34.3098 36.544 34.5399 36.3298 34.698 36.0537C34.8548 35.785 34.9352 35.4687 34.9394 35.1047C34.9396 35.0888 34.9537 35.0767 34.9694 35.079C35.0012 35.0837 34.9978 35.1306 34.9656 35.1306H33.1975C33.1114 35.1306 33.0417 35.0609 33.0417 34.9748V34.4275C33.0417 34.0392 33.3564 33.7245 33.7448 33.7245H35.6254C36.2401 33.7245 36.7383 34.2227 36.7383 34.8373C36.7383 35.6138 36.5744 36.2809 36.2466 36.8388C35.9187 37.3938 35.4673 37.8223 34.8921 38.1242C34.317 38.4233 33.6585 38.5728 32.9166 38.5728C32.0884 38.5728 31.3608 38.3902 30.734 38.025C30.1071 37.6569 29.6182 37.135 29.2674 36.4592C28.9194 35.7805 28.7454 34.9754 28.7454 34.0437C28.7454 33.3276 28.849 32.6892 29.056 32.1285C29.2659 31.5648 29.5593 31.0875 29.936 30.6964C30.3127 30.3053 30.7512 30.0077 31.2516 29.8035C31.7519 29.5993 32.294 29.4973 32.8778 29.4973C33.3781 29.4973 33.844 29.5706 34.2753 29.7172C34.7067 29.861 35.0891 30.0652 35.4227 30.3298C35.7591 30.5943 36.0338 30.9092 36.2466 31.2744C36.2685 31.3117 36.2895 31.3493 36.3098 31.3874C36.5947 31.9221 36.1161 32.4735 35.5103 32.4735H35.3729Z" fill="#3E63DD"/>
</svg>
