<?xml version="1.0" encoding="UTF-8"?>
<svg width="144px" height="144px" viewBox="0 0 144 144" version="1.1" xmlns="http://www.w3.org/2000/svg" xmlns:xlink="http://www.w3.org/1999/xlink">
    <title>table</title>
    <g id="Page-1" stroke="none" stroke-width="1" fill="none" fill-rule="evenodd">
        <g id="table" fill="#000000" fill-rule="nonzero">
            <path d="M140.767988,0 L3.23201231,0 C1.44978838,0 0,1.87867708 0,4.18813362 L0,139.811866 C0,142.121323 1.44978838,144 3.23201231,144 L140.767988,144 C142.551135,144 144,142.121323 144,139.811866 L144,4.18813362 C144,1.87867708 142.550212,0 140.767988,0 Z M45.8493267,135.623733 L6.46494806,135.623733 L6.46494806,110.088084 L45.8493267,110.088084 L45.8493267,135.623733 Z M45.8493267,101.711817 L6.46494806,101.711817 L6.46494806,76.1881336 L45.8493267,76.1881336 L45.8493267,101.711817 Z M45.8493267,67.8118664 L6.46494806,67.8118664 L6.46494806,42.2881835 L45.8493267,42.2881835 L45.8493267,67.8118664 Z M45.8493267,33.9119162 L6.46494806,33.9119162 L6.46494806,8.37626724 L45.8493267,8.37626724 L45.8493267,33.9119162 Z M91.6875721,135.623733 L52.3124279,135.623733 L52.3124279,110.088084 L91.6875721,110.088084 L91.6875721,135.623733 Z M91.6875721,101.711817 L52.3124279,101.711817 L52.3124279,76.1881336 L91.6875721,76.1881336 L91.6875721,101.711817 Z M91.6875721,67.8118664 L52.3124279,67.8118664 L52.3124279,42.2881835 L91.6875721,42.2881835 L91.6875721,67.8118664 Z M91.6875721,33.9119162 L52.3124279,33.9119162 L52.3124279,8.37626724 L91.6875721,8.37626724 L91.6875721,33.9119162 Z M137.535975,135.623733 L98.1515968,135.623733 L98.1515968,110.088084 L137.535052,110.088084 L137.535052,135.623733 L137.535975,135.623733 Z M137.535975,101.711817 L98.1515968,101.711817 L98.1515968,76.1881336 L137.535052,76.1881336 L137.535052,101.711817 L137.535975,101.711817 Z M137.535975,67.8118664 L98.1515968,67.8118664 L98.1515968,42.2881835 L137.535052,42.2881835 L137.535052,67.8118664 L137.535975,67.8118664 Z M137.535975,33.9119162 L98.1515968,33.9119162 L98.1515968,8.37626724 L137.535052,8.37626724 L137.535052,33.9119162 L137.535975,33.9119162 Z" id="Shape"></path>
            <path d="M34.7293707,58.752 L18.2706293,58.752 C16.463373,58.752 15,56.946816 15,54.72 C15,52.493184 16.463373,50.688 18.2706293,50.688 L34.7293707,50.688 C36.536627,50.688 38,52.493184 38,54.72 C38,56.946816 36.536627,58.752 34.7293707,58.752 Z" id="Path"></path>
            <path d="M34.7293707,93.312 L18.2706293,93.312 C16.463373,93.312 15,91.506816 15,89.28 C15,87.053184 16.463373,85.248 18.2706293,85.248 L34.7293707,85.248 C36.536627,85.248 38,87.053184 38,89.28 C38,91.506816 36.536627,93.312 34.7293707,93.312 Z" id="Path"></path>
            <path d="M34.7293707,126.72 L18.2706293,126.72 C16.463373,126.72 15,124.914816 15,122.688 C15,120.461184 16.463373,118.656 18.2706293,118.656 L34.7293707,118.656 C36.536627,118.656 38,120.461184 38,122.688 C38,124.914816 36.536627,126.72 34.7293707,126.72 Z" id="Path"></path>
            <path d="M80.7295035,93.312 L64.2704965,93.312 C62.464248,93.312 61,91.506816 61,89.28 C61,87.053184 62.464248,85.248 64.2704965,85.248 L80.7295035,85.248 C82.535752,85.248 84,87.053184 84,89.28 C84,91.506816 82.5348176,93.312 80.7295035,93.312 Z" id="Path"></path>
            <path d="M80.7295035,58.752 L64.2704965,58.752 C62.464248,58.752 61,56.946816 61,54.72 C61,52.493184 62.464248,50.688 64.2704965,50.688 L80.7295035,50.688 C82.535752,50.688 84,52.493184 84,54.72 C84,56.946816 82.5348176,58.752 80.7295035,58.752 Z" id="Path"></path>
            <path d="M125.729504,58.752 L109.270496,58.752 C107.464248,58.752 106,56.946816 106,54.72 C106,52.493184 107.464248,50.688 109.270496,50.688 L125.729504,50.688 C127.535752,50.688 129,52.493184 129,54.72 C129,56.946816 127.535752,58.752 125.729504,58.752 Z" id="Path"></path>
            <path d="M125.729504,93.312 L109.270496,93.312 C107.464248,93.312 106,91.506816 106,89.28 C106,87.053184 107.464248,85.248 109.270496,85.248 L125.729504,85.248 C127.535752,85.248 129,87.053184 129,89.28 C129,91.506816 127.535752,93.312 125.729504,93.312 Z" id="Path"></path>
            <path d="M125.729504,126.72 L109.270496,126.72 C107.464248,126.72 106,124.914816 106,122.688 C106,120.461184 107.464248,118.656 109.270496,118.656 L125.729504,118.656 C127.535752,118.656 129,120.461184 129,122.688 C129,124.914816 127.535752,126.72 125.729504,126.72 Z" id="Path"></path>
            <path d="M80.7293707,126.72 L64.2706293,126.72 C62.4643075,126.72 61,124.914816 61,122.688 C61,120.461184 62.4643075,118.656 64.2706293,118.656 L80.7293707,118.656 C82.5356925,118.656 84,120.461184 84,122.688 C84,124.914816 82.5347581,126.72 80.7293707,126.72 Z" id="Path"></path>
        </g>
    </g>
</svg>