<svg width="49" height="48" viewBox="0 0 49 48" fill="none" xmlns="http://www.w3.org/2000/svg">
<rect x="7.36914" y="14.6781" width="14.7324" height="14.1691" fill="#3E63DD"/>
<path fill-rule="evenodd" clip-rule="evenodd" d="M42.1457 16.3986H36.1136V26.6064H42.1457V16.3986ZM31.3708 16.3986H25.363V26.6064H31.3708V16.3986ZM20.62 16.3986H7.63164V26.6064H20.62V16.3986ZM25.363 31.3494H31.3708V41.2572H25.363V31.3494ZM41.4975 46.0001H33.7605H33.7422H33.7239H23.0099H22.9915H22.9732H8.27994C5.30242 46.0001 2.88867 43.5863 2.88867 40.609V28.9779V7.39127C2.88867 4.41375 5.30242 2 8.27994 2H41.4975C44.4751 2 46.8887 4.41375 46.8887 7.39127V28.9779V40.609C46.8887 43.5863 44.4751 46.0001 41.4975 46.0001ZM36.1136 31.3494V41.2572H41.4975C41.8554 41.2572 42.1457 40.9669 42.1457 40.609V31.3494H36.1136ZM20.62 31.3494H7.63164V40.609C7.63164 40.9669 7.92188 41.2572 8.27994 41.2572H20.62V31.3494Z" fill="#D7DBDF"/>
</svg>
