<svg width="20" height="18" viewBox="0 0 20 18" fill="none" xmlns="http://www.w3.org/2000/svg">
<path d="M2.22222 0H17.7778C18.3671 0 18.9324 0.237053 19.3491 0.65901C19.7659 1.08097 20 1.65326 20 2.25V15.75C20 16.3467 19.7659 16.919 19.3491 17.341C18.9324 17.7629 18.3671 18 17.7778 18H2.22222C1.63285 18 1.06762 17.7629 0.650874 17.341C0.234126 16.919 0 16.3467 0 15.75V2.25C0 1.65326 0.234126 1.08097 0.650874 0.65901C1.06762 0.237053 1.63285 0 2.22222 0ZM2.22222 4.5V9H8.88889V4.5H2.22222ZM11.1111 4.5V9H17.7778V4.5H11.1111ZM2.22222 11.25V15.75H8.88889V11.25H2.22222ZM11.1111 11.25V15.75H17.7778V11.25H11.1111Z" fill="#61656F"/>
</svg>
