<svg width="20" height="20" viewBox="0 0 20 20" fill="none" xmlns="http://www.w3.org/2000/svg">
<path d="M2.22222 1H17.7778C18.3671 1 18.9324 1.23705 19.3491 1.65901C19.7659 2.08097 20 2.65326 20 3.25V16.75C20 17.3467 19.7659 17.919 19.3491 18.341C18.9324 18.7629 18.3671 19 17.7778 19H2.22222C1.63285 19 1.06762 18.7629 0.650874 18.341C0.234126 17.919 0 17.3467 0 16.75V3.25C0 2.65326 0.234126 2.08097 0.650874 1.65901C1.06762 1.23705 1.63285 1 2.22222 1ZM2.22222 5.5V10H8.88889V5.5H2.22222ZM11.1111 5.5V10H17.7778V5.5H11.1111ZM2.22222 12.25V16.75H8.88889V12.25H2.22222ZM11.1111 12.25V16.75H17.7778V12.25H11.1111Z" fill="#61656F"/>
</svg>
