<svg width="49" height="48" viewBox="0 0 49 48" fill="none" xmlns="http://www.w3.org/2000/svg">
<path d="M25.9341 6.64355V20.5425V26.38C25.9341 27.4846 26.8295 28.38 27.9341 28.38H44.8887C45.9932 28.38 46.8887 27.4846 46.8887 26.38V6.64355C46.8887 5.53899 45.9932 4.64355 44.8887 4.64355H27.9341C26.8295 4.64355 25.9341 5.53899 25.9341 6.64355Z" fill="#3E63DD"/>
<path fill-rule="evenodd" clip-rule="evenodd" d="M9.17439 5.14282C7.50732 5.14282 5.90851 5.80505 4.72971 6.98388C3.55092 8.16267 2.88867 9.76147 2.88867 11.4285V36.5714C2.88867 38.2384 3.55092 39.8371 4.72971 41.016C5.90851 42.1949 7.50732 42.8571 9.17439 42.8571H40.603C42.2699 42.8571 43.8687 42.1949 45.0476 41.016C46.2265 39.8371 46.8887 38.2384 46.8887 36.5714V14.5714H25.8775L21.7796 6.03423C21.5181 5.48942 20.9673 5.14282 20.363 5.14282H9.17439Z" fill="#D7DBDF"/>
</svg>
