<svg width="18" height="18" viewBox="0 0 18 18" fill="none" xmlns="http://www.w3.org/2000/svg">
<path d="M5.4001 11.4001C5.71836 11.4001 6.02358 11.2737 6.24863 11.0486C6.47367 10.8236 6.6001 10.5184 6.6001 10.2001C6.6001 9.88184 6.47367 9.57661 6.24863 9.35157C6.02358 9.12653 5.71836 9.0001 5.4001 9.0001C5.08184 9.0001 4.77661 9.12653 4.55157 9.35157C4.32653 9.57661 4.2001 9.88184 4.2001 10.2001C4.2001 10.5184 4.32653 10.8236 4.55157 11.0486C4.77661 11.2737 5.08184 11.4001 5.4001 11.4001Z" fill="#61656F"/>
<path d="M10.2001 10.2001C10.2001 10.5184 10.0737 10.8236 9.84863 11.0486C9.62358 11.2737 9.31836 11.4001 9.0001 11.4001C8.68184 11.4001 8.37661 11.2737 8.15157 11.0486C7.92653 10.8236 7.8001 10.5184 7.8001 10.2001C7.8001 9.88184 7.92653 9.57661 8.15157 9.35157C8.37661 9.12653 8.68184 9.0001 9.0001 9.0001C9.31836 9.0001 9.62358 9.12653 9.84863 9.35157C10.0737 9.57661 10.2001 9.88184 10.2001 10.2001Z" fill="#61656F"/>
<path d="M12.6001 11.4001C12.9184 11.4001 13.2236 11.2737 13.4486 11.0486C13.6737 10.8236 13.8001 10.5184 13.8001 10.2001C13.8001 9.88184 13.6737 9.57661 13.4486 9.35157C13.2236 9.12653 12.9184 9.0001 12.6001 9.0001C12.2818 9.0001 11.9766 9.12653 11.7516 9.35157C11.5265 9.57661 11.4001 9.88184 11.4001 10.2001C11.4001 10.5184 11.5265 10.8236 11.7516 11.0486C11.9766 11.2737 12.2818 11.4001 12.6001 11.4001Z" fill="#61656F"/>
<path d="M0.600098 3.6001C0.600098 2.80445 0.916168 2.04139 1.47878 1.47878C2.04139 0.916168 2.80445 0.600098 3.6001 0.600098H14.4001C15.1957 0.600098 15.9588 0.916168 16.5214 1.47878C17.084 2.04139 17.4001 2.80445 17.4001 3.6001V14.4001C17.4001 15.1957 17.084 15.9588 16.5214 16.5214C15.9588 17.084 15.1957 17.4001 14.4001 17.4001H3.6001C2.80445 17.4001 2.04139 17.084 1.47878 16.5214C0.916168 15.9588 0.600098 15.1957 0.600098 14.4001V3.6001ZM3.6001 1.8001C3.12271 1.8001 2.66487 1.98974 2.32731 2.32731C1.98974 2.66487 1.8001 3.12271 1.8001 3.6001V14.4001C1.8001 14.8775 1.98974 15.3353 2.32731 15.6729C2.66487 16.0105 3.12271 16.2001 3.6001 16.2001H14.4001C14.8775 16.2001 15.3353 16.0105 15.6729 15.6729C16.0105 15.3353 16.2001 14.8775 16.2001 14.4001V5.4001H8.4001C7.92271 5.4001 7.46487 5.21046 7.12731 4.87289C6.78974 4.53532 6.6001 4.07749 6.6001 3.6001V1.8001H3.6001ZM16.2001 3.6001C16.2001 3.12271 16.0105 2.66487 15.6729 2.32731C15.3353 1.98974 14.8775 1.8001 14.4001 1.8001H7.8001V3.6001C7.8001 3.75923 7.86331 3.91184 7.97583 4.02436C8.08836 4.13688 8.24097 4.2001 8.4001 4.2001H16.2001V3.6001Z" fill="#61656F"/>
</svg>
