<svg width="49" height="48" viewBox="0 0 49 48" fill="none" xmlns="http://www.w3.org/2000/svg">
<path d="M20.5069 2.17569C20.1302 2.0328 19.7263 1.97594 19.3248 2.00926C19.2882 2.0123 19.2518 2.01661 19.2155 2.0222L7.24029 3.86695C6.60122 3.92301 6.00103 4.20225 5.54597 4.6573C5.09092 5.11235 4.81169 5.71256 4.75562 6.3516L2.91087 18.3268C2.90528 18.3631 2.90097 18.3996 2.89793 18.4361C2.86461 18.8376 2.92147 19.2415 3.06436 19.6182C3.20471 19.9882 3.42458 20.3228 3.70834 20.5985L27.9604 44.8504C28.697 45.5861 29.6961 46 30.7372 46C31.7782 46 32.7767 45.5867 33.5133 44.8513L45.7392 32.6253C46.4749 31.8887 46.8888 30.8895 46.8888 29.8485C46.8888 28.8075 46.4755 27.809 45.7398 27.0724L21.4871 2.81967C21.2115 2.53591 20.8769 2.31604 20.5069 2.17569Z" fill="#D7DBDF"/>
<path d="M15.4635 17.7174C17.1992 17.7174 18.6063 16.3104 18.6063 14.5747C18.6063 12.839 17.1992 11.4319 15.4635 11.4319C13.7279 11.4319 12.3208 12.839 12.3208 14.5747C12.3208 16.3104 13.7279 17.7174 15.4635 17.7174Z" fill="#3E63DD"/>
</svg>
