<?xml version="1.0" encoding="UTF-8"?>
<svg width="152px" height="112px" viewBox="0 0 152 112" version="1.1" xmlns="http://www.w3.org/2000/svg" xmlns:xlink="http://www.w3.org/1999/xlink">
    <title>text input</title>
    <g id="Page-1" stroke="none" stroke-width="1" fill="none" fill-rule="evenodd">
        <g id="text-input" fill="#000000" fill-rule="nonzero">
            <path d="M88.156,92.388 L3.531,92.388 C1.597,92.388 0.031,90.821 0.031,88.888 L0.031,23.114 C0.031,21.181 1.597,19.614 3.531,19.614 L88.156,19.614 C90.089,19.614 91.656,21.181 91.656,23.114 C91.656,25.047 90.089,26.614 88.156,26.614 L7.031,26.614 L7.031,85.388 L88.156,85.388 C90.09,85.388 91.656,86.955 91.656,88.888 C91.656,90.821 90.09,92.388 88.156,92.388 Z" id="Path"></path>
            <path d="M148.469,92.388 L118.823,92.388 C116.89,92.388 115.323,90.821 115.323,88.888 C115.323,86.955 116.89,85.388 118.823,85.388 L144.969,85.388 L144.969,26.614 L118.823,26.614 C116.89,26.614 115.323,25.047 115.323,23.114 C115.323,21.181 116.89,19.614 118.823,19.614 L148.469,19.614 C150.402,19.614 151.969,21.181 151.969,23.114 L151.969,88.888 C151.969,90.82 150.401,92.388 148.469,92.388 Z" id="Path"></path>
            <path d="M118.99,107.54 C118.99,109.47 117.42,111.04 115.49,111.04 L91.49,111.04 C89.559,111.04 87.99,109.47 87.99,107.54 C87.99,105.6 89.559,104.04 91.49,104.04 L99.99,104.04 L99.99,7.96 L91.49,7.96 C89.559,7.96 87.99,6.4 87.99,4.46 C87.99,2.53 89.559,0.96 91.49,0.96 L115.49,0.96 C117.42,0.96 118.99,2.53 118.99,4.46 C118.99,6.4 117.42,7.96 115.49,7.96 L106.99,7.96 L106.99,104.04 L115.49,104.04 C117.42,104.04 118.99,105.6 118.99,107.54 Z" id="Path"></path>
            <path d="M52.82,34.65 L52.82,47.05 L47.85,47.05 L47.75,46.69 C47.37,45.35 47.07,44.35 46.86,43.73 C46.65,43.12 46.42,42.61 46.17,42.19 C45.92,41.78 45.66,41.43 45.39,41.17 C45.13,40.91 44.85,40.69 44.56,40.54 C44.26,40.38 43.89,40.27 43.43,40.19 C42.97,40.1 42.33,40.06 41.53,40.06 L39.88,40.06 L39.88,69.35 C39.88,70.39 39.91,71.18 39.97,71.701 C40.02,72.201 40.12,72.591 40.25,72.871 C40.38,73.151 40.54,73.381 40.72,73.541 C40.9,73.711 41.18,73.871 41.53,74.02 C41.9,74.17 42.42,74.291 43.07,74.38 L43.5,74.45 L43.5,77.349 L26,77.349 L26,74.459 L26.42,74.389 C27.2,74.259 27.83,74.079 28.28,73.869 C28.67,73.689 28.96,73.439 29.15,73.109 C29.35,72.749 29.48,72.289 29.53,71.709 C29.59,71.079 29.62,70.289 29.62,69.349 L29.62,40.059 L27.7,40.059 C26.58,40.059 25.72,40.189 25.15,40.439 C24.59,40.679 24.1,41.069 23.68,41.599 C23.25,42.149 22.87,42.909 22.55,43.859 C22.22,44.839 21.94,45.789 21.73,46.669 L21.63,47.049 L16.65,47.049 L16.65,34.649 L52.82,34.649 L52.82,34.65 Z" id="Path"></path>
        </g>
    </g>
</svg>