<svg width="24" height="15" viewBox="0 0 24 15" fill="none" xmlns="http://www.w3.org/2000/svg">
<path fill-rule="evenodd" clip-rule="evenodd" d="M22.37 0.0319701H2.38851C2.00838 0.0253005 1.64094 0.162801 1.3659 0.414371C1.09087 0.66594 0.930631 1.01124 0.919922 1.37549V13.3181C0.929916 13.6823 1.08946 14.0283 1.36394 14.2807C1.63842 14.5331 2.00552 14.6717 2.386 14.6664H22.3675C22.7482 14.673 23.1162 14.5349 23.3908 14.2821C23.6657 14.0295 23.8247 13.6828 23.8334 13.318V1.37546C23.8241 1.0117 23.6649 0.666256 23.3908 0.41469C23.1165 0.16295 22.7497 0.0253022 22.37 0.0319701ZM22.0426 12.7293C22.0438 12.8001 22.0131 12.8682 21.9581 12.9156C21.9014 12.9653 21.8277 12.9932 21.7509 12.9941L2.96686 12.9156C2.88941 12.9151 2.81534 12.8862 2.75966 12.8347C2.70541 12.7878 2.67453 12.7209 2.67507 12.6508V1.91223C2.67703 1.84263 2.70737 1.77661 2.75966 1.72822C2.81624 1.67862 2.88994 1.65057 2.96686 1.64989L21.7587 1.72839C21.8355 1.72907 21.9093 1.75678 21.9659 1.80672C22.0193 1.85529 22.0498 1.92249 22.0503 1.99313L22.0426 12.7293Z" fill="#61656F"/>
<path fill-rule="evenodd" clip-rule="evenodd" d="M6.64827 3.97183C6.37005 3.78166 6.03579 3.6811 5.69401 3.68486H4.73974V4.42042H5.69401C5.9294 4.40127 6.13928 4.56169 6.17249 4.78572V9.90983C6.14054 10.1349 5.93031 10.2965 5.69401 10.2775H4.73974V11.0131H5.69401C6.03541 11.0165 6.36912 10.917 6.64827 10.7287C6.9281 10.9156 7.26148 11.015 7.60272 11.0131H8.55963V10.2775H7.60518C7.3689 10.2965 7.15867 10.1349 7.1267 9.90983V4.7831C7.1599 4.55889 7.36977 4.39865 7.60518 4.4178H8.55945V3.68223H7.60518C7.26253 3.68035 6.92774 3.78183 6.64827 3.97183Z" fill="#61656F"/>
</svg>
