<svg width="20" height="20" viewBox="0 0 20 20" fill="none" xmlns="http://www.w3.org/2000/svg">
<path d="M14.5567 18.2445C14.4122 18.2445 14.2679 18.1893 14.1576 18.0792C13.9371 17.8589 13.9371 17.5013 14.1576 17.281L16.9663 14.4722C17.1867 14.2518 17.544 14.2518 17.7645 14.4722C17.985 14.6926 17.985 15.0502 17.7645 15.2705L14.9558 18.0792C14.8456 18.1893 14.7013 18.2445 14.5567 18.2445Z" fill="#61656F"/>
<path d="M16.4996 18.5596C16.3551 18.5596 16.2107 18.5044 16.1004 18.3942C15.8799 18.1739 15.8799 17.8163 16.1004 17.596L17.2811 16.4154C17.5016 16.1949 17.8588 16.1949 18.0793 16.4154C18.2998 16.6357 18.2998 16.9933 18.0793 17.2136L16.8986 18.3942C16.7885 18.5046 16.644 18.5596 16.4996 18.5596Z" fill="#61656F"/>
<path d="M19.2985 0.137207H0.701723C0.388981 0.137207 0.137207 0.388981 0.137207 0.701723V19.2985C0.137207 19.6112 0.388981 19.863 0.701723 19.863H19.2985C19.6112 19.863 19.863 19.6112 19.863 19.2985V0.701723C19.863 0.38882 19.6114 0.137207 19.2985 0.137207ZM18.734 18.734H1.26624V1.26624H18.734V18.734Z" fill="#61656F"/>
<path d="M8.89056 3.57422V5.69019H8.04701L8.03089 5.63067C7.96782 5.40325 7.91637 5.2339 7.87927 5.12261C7.84234 5.01938 7.80347 4.93067 7.76169 4.8597C7.71798 4.78873 7.67282 4.7289 7.62782 4.6839C7.58266 4.63874 7.53427 4.60148 7.48266 4.57406C7.43105 4.54664 7.36653 4.52728 7.28911 4.51277C7.20685 4.49825 7.09734 4.4918 6.96185 4.4918H6.67476V9.51454C6.67476 9.69341 6.67959 9.8289 6.68927 9.91777C6.69895 10.0031 6.71508 10.0708 6.73766 10.121C6.76185 10.1694 6.78927 10.2081 6.81992 10.2371C6.85218 10.2663 6.89895 10.2937 6.96024 10.3195C7.0233 10.3452 7.11185 10.3662 7.22492 10.3824L7.29427 10.3921V10.8808H4.30669V10.3937L4.37443 10.3824C4.5083 10.3599 4.61637 10.3308 4.69363 10.2937C4.76298 10.2615 4.81137 10.2178 4.84363 10.1615C4.87927 10.1002 4.90169 10.0195 4.91153 9.91954C4.92121 9.81148 4.92605 9.67599 4.92605 9.5147V4.49196H4.59217C4.39863 4.49196 4.25185 4.51293 4.15347 4.55648C4.05653 4.59841 3.97121 4.66615 3.90024 4.75809C3.82605 4.85164 3.76153 4.98228 3.70508 5.1468C3.64863 5.31777 3.60024 5.47906 3.56476 5.62728L3.55024 5.69019H2.70508V3.57422H8.89056Z" fill="#61656F"/>
</svg>
