<svg width="49" height="48" viewBox="0 0 49 48" fill="none" xmlns="http://www.w3.org/2000/svg">
<path fill-rule="evenodd" clip-rule="evenodd" d="M7.60296 9.85718C4.99933 9.85718 2.88867 11.9678 2.88867 14.5715V33.4286C2.88867 36.0322 4.99933 38.1429 7.60296 38.1429H42.1744C44.7779 38.1429 46.8887 36.0322 46.8887 33.4286V14.5715C46.8887 11.9678 44.7779 9.85718 42.1744 9.85718H7.60296Z" fill="#D7DBDF"/>
<path fill-rule="evenodd" clip-rule="evenodd" d="M9.8637 16.6201C8.77885 16.6201 7.89941 17.4996 7.89941 18.5844C7.89941 19.6692 8.77885 20.5487 9.8637 20.5487H12.6877V29.4155C12.6877 30.5004 13.5672 31.3798 14.652 31.3798C15.7369 31.3798 16.6163 30.5004 16.6163 29.4155V20.5487H19.4404C20.5252 20.5487 21.4046 19.6692 21.4046 18.5844C21.4046 17.4996 20.5252 16.6201 19.4404 16.6201H14.652H9.8637ZM21.1102 29.4155C21.1102 28.3307 21.9896 27.4513 23.0745 27.4513H29.1099C30.1948 27.4513 31.0742 28.3307 31.0742 29.4155C31.0742 30.5004 30.1948 31.3798 29.1099 31.3798H23.0745C21.9896 31.3798 21.1102 30.5004 21.1102 29.4155Z" fill="#3E63DD"/>
</svg>
