<?xml version="1.0" encoding="UTF-8"?>
<svg width="124px" height="124px" viewBox="0 0 124 124" version="1.1" xmlns="http://www.w3.org/2000/svg" xmlns:xlink="http://www.w3.org/1999/xlink">
    <title>text</title>
    <g id="Page-1" stroke="none" stroke-width="1" fill="none" fill-rule="evenodd">
        <g id="text" fill="#434b53" fill-rule="nonzero">
            <g id="Group" transform="translate(13.000000, 22.000000)">
                <path d="M94.209,7.835 L72.543,7.835 C70.61,7.835 69.043,6.269 69.043,4.335 C69.043,2.402 70.61,0.835 72.543,0.835 L94.209,0.835 C96.142,0.835 97.709,2.402 97.709,4.335 C97.709,6.269 96.142,7.835 94.209,7.835 Z" id="Path"></path>
                <path d="M94.209,22.835 L72.543,22.835 C70.61,22.835 69.043,21.269 69.043,19.335 C69.043,17.402 70.61,15.835 72.543,15.835 L94.209,15.835 C96.142,15.835 97.709,17.402 97.709,19.335 C97.709,21.269 96.142,22.835 94.209,22.835 Z" id="Path"></path>
                <path d="M94.209,37.835 L72.543,37.835 C70.61,37.835 69.043,36.269 69.043,34.335 C69.043,32.402 70.61,30.835 72.543,30.835 L94.209,30.835 C96.142,30.835 97.709,32.402 97.709,34.335 C97.709,36.269 96.142,37.835 94.209,37.835 Z" id="Path"></path>
                <path d="M94.209,52.836 L72.543,52.836 C70.61,52.836 69.043,51.269 69.043,49.336 C69.043,47.403 70.61,45.836 72.543,45.836 L94.209,45.836 C96.142,45.836 97.709,47.403 97.709,49.336 C97.709,51.269 96.142,52.836 94.209,52.836 Z" id="Path"></path>
                <path d="M94.209,67.836 L72.543,67.836 C70.61,67.836 69.043,66.269 69.043,64.336 C69.043,62.403 70.61,60.836 72.543,60.836 L94.209,60.836 C96.142,60.836 97.709,62.403 97.709,64.336 C97.709,66.269 96.142,67.836 94.209,67.836 Z" id="Path"></path>
                <path d="M94.209,82.836 L3.791,82.836 C1.858,82.836 0.291,81.269 0.291,79.336 C0.291,77.403 1.858,75.836 3.791,75.836 L94.209,75.836 C96.142,75.836 97.709,77.403 97.709,79.336 C97.709,81.269 96.142,82.836 94.209,82.836 Z" id="Path"></path>
            </g>
            <g id="Group">
                <path d="M119.65,0.85 L4.35,0.85 C2.411,0.85 0.85,2.411 0.85,4.35 L0.85,119.65 C0.85,121.589 2.411,123.15 4.35,123.15 L119.65,123.15 C121.589,123.15 123.15,121.589 123.15,119.65 L123.15,4.35 C123.15,2.41 121.59,0.85 119.65,0.85 Z M116.15,116.15 L7.85,116.15 L7.85,7.85 L116.15,7.85 L116.15,116.15 Z" id="Shape"></path>
                <path d="M74.65,22.16 L74.65,41.6 L67.15,41.6 L67.049,41.241 C66.44,39.081 65.959,37.47 65.61,36.44 C65.259,35.44 64.88,34.59 64.46,33.89 C64.05,33.201 63.61,32.63 63.16,32.18 C62.72,31.741 62.24,31.38 61.729,31.11 C61.229,30.84 60.589,30.64 59.83,30.51 C59.05,30.37 58,30.3 56.7,30.3 L53.72,30.3 L53.72,77.981 C53.72,79.701 53.77,80.96 53.86,81.821 C53.951,82.651 54.121,83.321 54.35,83.81 C54.58,84.29 54.86,84.691 55.18,84.981 C55.51,85.281 55.98,85.56 56.58,85.81 C57.2,86.06 58.059,86.27 59.14,86.43 L59.57,86.491 L59.57,90.611 L31.89,90.611 L31.89,86.501 L32.31,86.431 C33.61,86.211 34.65,85.931 35.39,85.581 C36.09,85.251 36.6,84.801 36.94,84.211 C37.291,83.601 37.51,82.801 37.6,81.831 C37.69,80.801 37.741,79.501 37.741,77.981 L37.741,30.3 L34.32,30.3 C32.47,30.3 31.041,30.51 30.081,30.93 C29.131,31.35 28.291,32.01 27.591,32.91 C26.871,33.819 26.241,35.08 25.711,36.649 C25.171,38.25 24.721,39.79 24.371,41.219 L24.28,41.599 L16.77,41.599 L16.77,22.16 L74.65,22.16 Z" id="Path"></path>
            </g>
        </g>
    </g>
</svg>