<svg width="49" height="48" viewBox="0 0 49 48" fill="none" xmlns="http://www.w3.org/2000/svg">
<path fill-rule="evenodd" clip-rule="evenodd" d="M18.341 6.71425C17.4987 6.71425 16.7644 7.28753 16.5601 8.10473L11.539 28.1893H18.341C19.6428 28.1893 20.6981 29.2446 20.6981 30.5464C20.6981 31.8482 19.6428 32.9036 18.341 32.9036H10.3604L7.53308 44.2126C7.21736 45.4757 5.9376 46.2435 4.67467 45.9277C3.41173 45.6121 2.64387 44.3324 2.95961 43.0693L6.22133 30.0226C6.22887 29.9893 6.23714 29.9562 6.24609 29.9235L11.9866 6.96137C12.7156 4.04553 15.3354 2 18.341 2C21.3466 2 23.9664 4.04553 24.6954 6.96137L26.3567 13.6064C26.6724 14.8694 25.9045 16.1491 24.6416 16.4649C23.3787 16.7806 22.0989 16.0127 21.7832 14.7498L20.1219 8.10473C19.9176 7.28753 19.1833 6.71425 18.341 6.71425Z" fill="#D7DBDF"/>
<path fill-rule="evenodd" clip-rule="evenodd" d="M34.7096 23.0836C34.5418 23.0836 34.3925 23.1902 34.3381 23.349L30.8074 33.6464H38.6117L35.0811 23.349C35.0267 23.1902 34.8774 23.0836 34.7096 23.0836ZM44.1233 35.187L39.5404 21.8201C38.8327 19.7558 36.8917 18.3694 34.7096 18.3694C32.5274 18.3694 30.5863 19.7558 29.8786 21.8201L25.2956 35.187C25.283 35.2212 25.2711 35.2558 25.26 35.2907L22.6588 42.8778C22.2366 44.1092 22.8926 45.4496 24.1241 45.872C25.3555 46.2941 26.696 45.6382 27.1182 44.4065L29.1911 38.3606H40.2278L42.3008 44.4065C42.7229 45.6382 44.0636 46.2941 45.295 45.872C46.5263 45.4496 47.1826 44.1092 46.7602 42.8778L44.1591 35.2907C44.1478 35.2558 44.1362 35.2212 44.1233 35.187Z" fill="#3E63DD"/>
</svg>
