<?xml version="1.0" encoding="UTF-8"?>
<svg width="124px" height="124px" viewBox="0 0 124 124" version="1.1" xmlns="http://www.w3.org/2000/svg" xmlns:xlink="http://www.w3.org/1999/xlink">
    <title>textarea</title>
    <g id="Page-1" stroke="none" stroke-width="1" fill="none" fill-rule="evenodd">
        <g id="textarea" fill="#434b53" fill-rule="nonzero">
            <path d="M90.25,113.115 C89.354,113.115 88.459,112.773 87.775,112.09 C86.408,110.724 86.408,108.507 87.775,107.141 L105.189,89.727 C106.556,88.36 108.771,88.36 110.138,89.727 C111.505,91.093 111.505,93.31 110.138,94.676 L92.724,112.09 C92.041,112.773 91.146,113.115 90.25,113.115 Z" id="Path"></path>
            <path d="M102.297,115.068 C101.401,115.068 100.506,114.726 99.822,114.043 C98.455,112.677 98.455,110.46 99.822,109.094 L107.142,101.774 C108.509,100.407 110.724,100.407 112.091,101.774 C113.458,103.14 113.458,105.357 112.091,106.723 L104.771,114.043 C104.088,114.727 103.192,115.068 102.297,115.068 Z" id="Path"></path>
            <g id="Group">
                <path d="M119.65,0.85 L4.35,0.85 C2.411,0.85 0.85,2.411 0.85,4.35 L0.85,119.65 C0.85,121.589 2.411,123.15 4.35,123.15 L119.65,123.15 C121.589,123.15 123.15,121.589 123.15,119.65 L123.15,4.35 C123.15,2.41 121.59,0.85 119.65,0.85 Z M116.15,116.15 L7.85,116.15 L7.85,7.85 L116.15,7.85 L116.15,116.15 Z" id="Shape"></path>
                <path d="M55.12,22.16 L55.12,35.279 L49.89,35.279 L49.79,34.91 C49.399,33.5 49.08,32.45 48.85,31.76 C48.621,31.12 48.38,30.57 48.121,30.13 C47.85,29.69 47.57,29.319 47.291,29.04 C47.011,28.76 46.711,28.529 46.391,28.359 C46.071,28.189 45.671,28.069 45.191,27.979 C44.681,27.889 44.002,27.849 43.162,27.849 L41.382,27.849 L41.382,58.99 C41.382,60.099 41.412,60.939 41.472,61.49 C41.532,62.019 41.632,62.439 41.772,62.75 C41.922,63.05 42.092,63.29 42.282,63.47 C42.482,63.651 42.772,63.821 43.152,63.981 C43.543,64.14 44.092,64.27 44.793,64.371 L45.223,64.431 L45.223,67.461 L26.7,67.461 L26.7,64.441 L27.12,64.371 C27.95,64.231 28.62,64.051 29.099,63.821 C29.529,63.621 29.829,63.35 30.029,63.001 C30.25,62.621 30.389,62.121 30.45,61.501 C30.51,60.831 30.54,59.991 30.54,58.991 L30.54,27.85 L28.47,27.85 C27.27,27.85 26.36,27.98 25.75,28.25 C25.149,28.51 24.62,28.93 24.18,29.5 C23.72,30.08 23.32,30.89 22.97,31.91 C22.62,32.97 22.32,33.97 22.1,34.889 L22.01,35.279 L16.77,35.279 L16.77,22.16 L55.12,22.16 Z" id="Path"></path>
            </g>
        </g>
    </g>
</svg>
