<svg width="49" height="48" viewBox="0 0 49 48" fill="none" xmlns="http://www.w3.org/2000/svg">
<path fill-rule="evenodd" clip-rule="evenodd" d="M8.38867 4.35714C8.38867 3.05533 9.44401 2 10.7458 2H24.8887H39.0314C40.3332 2 41.3886 3.05533 41.3886 4.35714V12.2143C41.3886 13.5161 40.3332 14.5714 39.0314 14.5714C37.7296 14.5714 36.6743 13.5161 36.6743 12.2143V6.71428H27.2458V31.8602H31.1744C32.4762 31.8602 33.5315 32.9155 33.5315 34.2174C33.5315 35.5192 32.4762 36.5745 31.1744 36.5745H18.603C17.3011 36.5745 16.2458 35.5192 16.2458 34.2174C16.2458 32.9155 17.3011 31.8602 18.603 31.8602H22.5315V6.71428H13.103V12.2143C13.103 13.5161 12.0476 14.5714 10.7458 14.5714C9.44401 14.5714 8.38867 13.5161 8.38867 12.2143V4.35714Z" fill="#D7DBDF"/>
<path fill-rule="evenodd" clip-rule="evenodd" d="M2.88867 43.6428C2.88867 42.341 3.944 41.2856 5.24581 41.2856H44.5315C45.8333 41.2856 46.8886 42.341 46.8886 43.6428C46.8886 44.9446 45.8333 45.9999 44.5315 45.9999H5.24581C3.944 45.9999 2.88867 44.9446 2.88867 43.6428Z" fill="#3E63DD"/>
</svg>
