<svg width="20" height="20" viewBox="0 0 20 20" fill="none" xmlns="http://www.w3.org/2000/svg">
<g clip-path="url(#clip0_640_18045)">
<path d="M1.87502 3.125C1.87502 2.62772 2.07257 2.15081 2.4242 1.79917C2.77583 1.44754 3.25274 1.25 3.75002 1.25H16.25C16.7473 1.25 17.2242 1.44754 17.5759 1.79917C17.9275 2.15081 18.125 2.62772 18.125 3.125V7.57875C18.6622 7.71687 19.1382 8.02973 19.4781 8.46806C19.818 8.9064 20.0025 9.44532 20.0025 10C20.0025 10.5547 19.818 11.0936 19.4781 11.5319C19.1382 11.9703 18.6622 12.2831 18.125 12.4213V16.875C18.125 17.3723 17.9275 17.8492 17.5759 18.2008C17.2242 18.5525 16.7473 18.75 16.25 18.75H3.75002C3.25274 18.75 2.77583 18.5525 2.4242 18.2008C2.07257 17.8492 1.87502 17.3723 1.87502 16.875V12.4213C1.33782 12.2831 0.861806 11.9703 0.521915 11.5319C0.182024 11.0936 -0.00244141 10.5547 -0.00244141 10C-0.00244141 9.44532 0.182024 8.9064 0.521915 8.46806C0.861806 8.02973 1.33782 7.71687 1.87502 7.57875V3.125ZM3.12502 7.57875C3.66223 7.71687 4.13824 8.02973 4.47813 8.46806C4.81803 8.9064 5.00249 9.44532 5.00249 10C5.00249 10.5547 4.81803 11.0936 4.47813 11.5319C4.13824 11.9703 3.66223 12.2831 3.12502 12.4213V16.875C3.12502 17.0408 3.19087 17.1997 3.30808 17.3169C3.42529 17.4342 3.58426 17.5 3.75002 17.5H16.25C16.4158 17.5 16.5748 17.4342 16.692 17.3169C16.8092 17.1997 16.875 17.0408 16.875 16.875V12.4213C16.3378 12.2831 15.8618 11.9703 15.5219 11.5319C15.182 11.0936 14.9976 10.5547 14.9976 10C14.9976 9.44532 15.182 8.9064 15.5219 8.46806C15.8618 8.02973 16.3378 7.71687 16.875 7.57875V3.125C16.875 2.95924 16.8092 2.80027 16.692 2.68306C16.5748 2.56585 16.4158 2.5 16.25 2.5H3.75002C3.58426 2.5 3.42529 2.56585 3.30808 2.68306C3.19087 2.80027 3.12502 2.95924 3.12502 3.125V7.57875ZM2.50002 8.75C2.1685 8.75 1.85056 8.8817 1.61614 9.11612C1.38172 9.35054 1.25002 9.66848 1.25002 10C1.25002 10.3315 1.38172 10.6495 1.61614 10.8839C1.85056 11.1183 2.1685 11.25 2.50002 11.25C2.83155 11.25 3.14949 11.1183 3.38391 10.8839C3.61833 10.6495 3.75002 10.3315 3.75002 10C3.75002 9.66848 3.61833 9.35054 3.38391 9.11612C3.14949 8.8817 2.83155 8.75 2.50002 8.75ZM17.5 8.75C17.1685 8.75 16.8506 8.8817 16.6161 9.11612C16.3817 9.35054 16.25 9.66848 16.25 10C16.25 10.3315 16.3817 10.6495 16.6161 10.8839C16.8506 11.1183 17.1685 11.25 17.5 11.25C17.8315 11.25 18.1495 11.1183 18.3839 10.8839C18.6183 10.6495 18.75 10.3315 18.75 10C18.75 9.66848 18.6183 9.35054 18.3839 9.11612C18.1495 8.8817 17.8315 8.75 17.5 8.75Z" fill="#61656F"/>
<path d="M14.2925 5H5.7075L5.625 7.4925H6.1075C6.37 5.9275 6.8725 5.685 8.82375 5.62375L9.2525 5.61V13.5388C9.2525 14.21 9.1075 14.37 7.94125 14.4738V15H12.0588V14.4738C10.8863 14.37 10.7413 14.2113 10.7413 13.5388V5.61L11.1762 5.6225C13.1262 5.685 13.63 5.9275 13.8925 7.4925H14.375L14.2925 5Z" fill="#61656F"/>
</g>
<defs>
<clipPath id="clip0_640_18045">
<rect width="20" height="20" fill="white"/>
</clipPath>
</defs>
</svg>
