<svg width="16" height="18" viewBox="0 0 16 18" fill="none" xmlns="http://www.w3.org/2000/svg">
<path d="M0.777728 1.02773C0.519866 1.28559 0.375 1.63533 0.375 2V4C0.375 4.36467 0.519866 4.71441 0.777728 4.97227C1.03559 5.23013 1.38533 5.375 1.75 5.375C2.11467 5.375 2.46441 5.23013 2.72227 4.97227C2.98013 4.71441 3.125 4.36467 3.125 4V3.375H6.625V14.625H6C5.63533 14.625 5.28559 14.7699 5.02773 15.0277C4.76987 15.2856 4.625 15.6353 4.625 16C4.625 16.3647 4.76987 16.7144 5.02773 16.9723C5.28559 17.2301 5.63533 17.375 6 17.375H10C10.3647 17.375 10.7144 17.2301 10.9723 16.9723C11.2301 16.7144 11.375 16.3647 11.375 16C11.375 15.6353 11.2301 15.2856 10.9723 15.0277C10.7144 14.7699 10.3647 14.625 10 14.625H9.375V3.375H12.875V4C12.875 4.36467 13.0199 4.71441 13.2777 4.97227C13.5356 5.23013 13.8853 5.375 14.25 5.375C14.6147 5.375 14.9644 5.23013 15.2223 4.97227C15.4801 4.71441 15.625 4.36467 15.625 4V2C15.625 1.63533 15.4801 1.28559 15.2223 1.02773C14.9644 0.769866 14.6147 0.625 14.25 0.625H1.75C1.38533 0.625 1.03559 0.769866 0.777728 1.02773Z" fill="#61656F" stroke="#61656F" stroke-width="0.75"/>
</svg>
