<svg width="49" height="48" viewBox="0 0 49 48" fill="none" xmlns="http://www.w3.org/2000/svg">
<path d="M24.8889 46C35.3034 46 43.746 37.5574 43.746 27.1429C43.746 16.7284 35.3034 8.28577 24.8889 8.28577C14.4744 8.28577 6.03174 16.7284 6.03174 27.1429C6.03174 37.5574 14.4744 46 24.8889 46Z" fill="#D7DBDF"/>
<path fill-rule="evenodd" clip-rule="evenodd" d="M15.1834 3.24937C15.7954 4.39832 15.3602 5.82592 14.2112 6.43796C11.4832 7.89125 9.04886 9.83869 7.03221 12.1812C6.18286 13.1678 4.69456 13.279 3.70798 12.4297C2.7214 11.5803 2.61015 10.092 3.4595 9.10546C5.85714 6.32042 8.75132 4.00505 11.9947 2.27724C13.1437 1.66518 14.5713 2.10042 15.1834 3.24937ZM34.5941 3.24937C35.206 2.10042 36.6338 1.66518 37.7825 2.27724C41.026 4.00505 43.9202 6.32042 46.3179 9.10546C47.1671 10.092 47.0558 11.5803 46.0693 12.4297C45.0828 13.279 43.5946 13.1678 42.7451 12.1812C40.7286 9.83869 38.2942 7.89125 35.5662 6.43796C34.4172 5.82592 33.982 4.39832 34.5941 3.24937ZM26.853 17.7147C26.853 16.6299 25.9735 15.7505 24.8887 15.7505C23.8038 15.7505 22.9244 16.6299 22.9244 17.7147V27.1433C22.9244 28.2282 23.8038 29.1076 24.8887 29.1076H32.7458C33.8307 29.1076 34.7101 28.2282 34.7101 27.1433C34.7101 26.0585 33.8307 25.179 32.7458 25.179H26.853V17.7147Z" fill="#3E63DD"/>
</svg>
