<svg width="49" height="48" viewBox="0 0 49 48" fill="none" xmlns="http://www.w3.org/2000/svg">
<path fill-rule="evenodd" clip-rule="evenodd" d="M20.1867 18.007C21.4958 18.007 22.557 19.0683 22.557 20.3774V29.8587C22.557 31.1678 21.4958 32.2291 20.1867 32.2291C18.8776 32.2291 17.8164 31.1678 17.8164 29.8587V20.3774C17.8164 19.0683 18.8776 18.007 20.1867 18.007ZM22.557 34.5995C22.557 33.2903 23.6183 32.2291 24.9274 32.2291H37.273V29.7245C37.273 28.7658 37.8507 27.9015 38.7363 27.5346C39.6222 27.1677 40.6417 27.3705 41.3196 28.0484L46.1943 32.9232C46.4399 33.1686 46.62 33.4544 46.7354 33.7592C46.8176 33.9757 46.8688 34.2073 46.8839 34.4488C46.8871 34.4987 46.8887 34.5487 46.8887 34.5995C46.8887 34.6403 46.8877 34.6811 46.8855 34.7215C46.871 35.006 46.8065 35.2771 46.7003 35.5268C46.602 35.7582 46.4655 35.9772 46.2901 36.1738C46.2556 36.2126 46.2199 36.2503 46.1833 36.2866L41.3196 41.1502C40.6417 41.8281 39.6222 42.031 38.7363 41.6641C37.8507 41.2972 37.273 40.4328 37.273 39.4742V36.9699H24.9274C23.6183 36.9699 22.557 35.9086 22.557 34.5995ZM5.25902 32.2291C3.94991 32.2291 2.88867 33.2903 2.88867 34.5995C2.88867 35.9086 3.94991 36.9699 5.25901 36.9699H15.4461C16.7552 36.9699 17.8165 35.9086 17.8165 34.5995C17.8165 33.2903 16.7552 32.2291 15.4461 32.2291H5.25902Z" fill="#3E63DD"/>
<path fill-rule="evenodd" clip-rule="evenodd" d="M20.1866 28.2785C16.6957 28.2785 13.8657 31.1084 13.8657 34.5995C13.8657 38.0902 16.6957 40.9204 20.1866 40.9204C23.6776 40.9204 26.5076 38.0902 26.5076 34.5995C26.5076 31.1084 23.6776 28.2785 20.1866 28.2785Z" fill="#D7DBDF"/>
<path fill-rule="evenodd" clip-rule="evenodd" d="M10.7052 6.15527C9.83247 6.15527 9.125 6.86277 9.125 7.7355V20.3773C9.125 21.2501 9.83247 21.9576 10.7052 21.9576H29.668C30.5407 21.9576 31.2482 21.2501 31.2482 20.3773V7.7355C31.2482 6.86277 30.5407 6.15527 29.668 6.15527H10.7052Z" fill="#D7DBDF"/>
</svg>
