<svg width="49" height="48" viewBox="0 0 49 48" fill="none" xmlns="http://www.w3.org/2000/svg">
<path fill-rule="evenodd" clip-rule="evenodd" d="M12.3172 2C7.11 2 2.88867 6.22133 2.88867 11.4286C2.88867 16.6358 7.11 20.8571 12.3172 20.8571H37.4601C42.6675 20.8571 46.8887 16.6358 46.8887 11.4286C46.8887 6.22133 42.6675 2 37.4601 2H12.3172ZM12.3172 27.1429C7.11 27.1429 2.88867 31.3642 2.88867 36.5714C2.88867 41.7788 7.11 46 12.3172 46H37.4601C42.6675 46 46.8887 41.7788 46.8887 36.5714C46.8887 31.3642 42.6675 27.1429 37.4601 27.1429H12.3172Z" fill="#D7DBDF"/>
<path fill-rule="evenodd" clip-rule="evenodd" d="M35.8889 16.1412C38.4928 16.1412 40.6032 14.0306 40.6032 11.4269C40.6032 8.8233 38.4928 6.71265 35.8889 6.71265C33.2854 6.71265 31.1747 8.8233 31.1747 11.4269C31.1747 14.0306 33.2854 16.1412 35.8889 16.1412ZM13.8896 41.284C16.4932 41.284 18.6039 39.1733 18.6039 36.5698C18.6039 33.9662 16.4932 31.8555 13.8896 31.8555C11.286 31.8555 9.17529 33.9662 9.17529 36.5698C9.17529 39.1733 11.286 41.284 13.8896 41.284Z" fill="#3E63DD"/>
</svg>
