<svg width="49" height="48" viewBox="0 0 49 48" fill="none" xmlns="http://www.w3.org/2000/svg">
<path fill-rule="evenodd" clip-rule="evenodd" d="M22.5317 26.3572V38.1429H27.246V26.3572H37.4602C37.8943 26.3572 38.246 26.709 38.246 27.1429V38.1429C38.246 39.4447 39.3013 40.5 40.6031 40.5C41.9049 40.5 42.9602 39.4447 42.9602 38.1429V27.1429C42.9602 24.1053 40.4978 21.6429 37.4602 21.6429H27.246V9.85718H22.5317V21.6429H12.3174C9.27981 21.6429 6.81738 24.1053 6.81738 27.1429V38.1429C6.81738 39.4447 7.87272 40.5 9.17453 40.5C10.4763 40.5 11.5317 39.4447 11.5317 38.1429V27.1429C11.5317 26.709 11.8834 26.3572 12.3174 26.3572H22.5317Z" fill="#D7DBDF"/>
<path fill-rule="evenodd" clip-rule="evenodd" d="M31.1744 9.85872C31.1744 13.3302 28.3602 16.1444 24.8887 16.1444C21.4172 16.1444 18.603 13.3302 18.603 9.85872C18.603 6.38721 21.4172 3.573 24.8887 3.573C28.3602 3.573 31.1744 6.38721 31.1744 9.85872ZM9.17439 44.427C12.6459 44.427 15.4601 41.6129 15.4601 38.1413C15.4601 34.6697 12.6459 31.8556 9.17439 31.8556C5.70288 31.8556 2.88867 34.6697 2.88867 38.1413C2.88867 41.6129 5.70288 44.427 9.17439 44.427ZM24.8887 44.427C28.3602 44.427 31.1744 41.6129 31.1744 38.1413C31.1744 34.6697 28.3602 31.8556 24.8887 31.8556C21.4172 31.8556 18.603 34.6697 18.603 38.1413C18.603 41.6129 21.4172 44.427 24.8887 44.427ZM40.603 44.427C44.0746 44.427 46.8887 41.6129 46.8887 38.1413C46.8887 34.6697 44.0746 31.8556 40.603 31.8556C37.1314 31.8556 34.3172 34.6697 34.3172 38.1413C34.3172 41.6129 37.1314 44.427 40.603 44.427Z" fill="#3E63DD"/>
</svg>
