<svg width="24" height="24" viewBox="0 0 24 24" fill="none" xmlns="http://www.w3.org/2000/svg">
<g clip-path="url(#clip0_815_23)">
<path fill-rule="evenodd" clip-rule="evenodd" d="M13.3235 13.2499V8.83176H10.6765V13.2499L6.95308 15.459L8.27654 17.8099L12 15.6008L15.7235 17.8099L17.0469 15.459L13.3235 13.2499Z" fill="#669DF6"/>
<path fill-rule="evenodd" clip-rule="evenodd" d="M13.3235 13.2499V8.83176H12V14.02L7.61481 16.6344L8.27654 17.8099L12 15.6008L15.7235 17.8099L17.0469 15.459L13.3235 13.2499Z" fill="#4285F4"/>
<path fill-rule="evenodd" clip-rule="evenodd" d="M10.6667 3.12668L8.66173 4.36295V8.14268L12 9.99708V6.84561L10.6667 6.21735V3.12668Z" fill="#AECBFA"/>
<path fill-rule="evenodd" clip-rule="evenodd" d="M13.3333 6.21735L12 6.84561V9.99708L15.3383 8.14268V4.36295L13.3333 3.12668V6.21735ZM18.0642 17.6275L17.9852 19.036L20.6519 20.5864L18.4988 21.8024L15.2988 19.9075L15.4074 16.0264L18.637 13.9997L21.8765 15.9048V18.428L19.2198 16.8573L18.0642 17.6275ZM5.9358 17.6275L4.78025 16.8573L2.12346 18.428V15.9048L5.31358 14.0099L8.54321 16.0365L8.65185 19.9176L5.50123 21.8328L3.34815 20.5864L6.01481 19.0056L5.9358 17.6275Z" fill="#669DF6"/>
<path fill-rule="evenodd" clip-rule="evenodd" d="M21.8765 18.428L21.8272 15.9048L18.637 14.02L15.4074 16.0568L18.0642 17.6275L19.2099 16.8574L21.8765 18.428ZM2.12346 18.428L4.79012 16.8574L5.9358 17.6275L8.59259 16.0568L5.36296 14.02L2.17284 15.9048L2.12346 18.428Z" fill="#AECBFA"/>
</g>
<defs>
<clipPath id="clip0_815_23">
<rect width="20" height="19" fill="white" transform="translate(2 3)"/>
</clipPath>
</defs>
</svg>
