<svg width="14" height="14" viewBox="0 0 14 14" fill="none" xmlns="http://www.w3.org/2000/svg">
  <path
    d="M13.1667 3.11667L10.8833 0.833337C10.5853 0.553417 10.1948 0.392803 9.78611 0.382047C9.3774 0.371291 8.97899 0.511145 8.66667 0.775004L1.16667 8.275C0.897308 8.54664 0.72959 8.90267 0.69167 9.28334L0.333336 12.7583C0.322111 12.8804 0.337948 13.0034 0.379721 13.1187C0.421493 13.2339 0.488172 13.3385 0.575003 13.425C0.65287 13.5022 0.745217 13.5633 0.846748 13.6048C0.948279 13.6463 1.057 13.6673 1.16667 13.6667H1.24167L4.71667 13.35C5.09733 13.3121 5.45337 13.1444 5.725 12.875L13.225 5.375C13.5161 5.06748 13.6734 4.65709 13.6625 4.23378C13.6516 3.81047 13.4733 3.40876 13.1667 3.11667ZM4.56667 11.6833L2.06667 11.9167L2.29167 9.41667L7 4.76667L9.25 7.01667L4.56667 11.6833ZM10.3333 5.9L8.1 3.66667L9.725 2L12 4.275L10.3333 5.9Z"
    fill="#8092AC"
  />
</svg>