<svg width="auto" height="auto" viewBox="0 0 24 24" fill="none" xmlns="http://www.w3.org/2000/svg">
<path d="M14.5869 2.67239C13.5746 1.47131 12.7167 0.270241 12.528 0.0128686C12.5108 -0.00428954 12.4765 -0.00428954 12.4593 0.0128686C12.2877 0.270241 11.4127 1.47131 10.4003 2.67239C1.75263 13.7051 11.7558 21.1517 11.7558 21.1517L11.8416 21.2032C11.9103 22.3528 12.099 24 12.099 24H12.4765H12.854C12.854 24 13.0427 22.3528 13.1113 21.2032L13.1971 21.1346C13.2314 21.1517 23.2347 13.7051 14.5869 2.67239ZM12.4936 20.9802C12.4936 20.9802 12.0475 20.6027 11.9274 20.3968V20.3796L12.4765 8.3689C12.4765 8.33459 12.528 8.33459 12.528 8.3689L13.077 20.3796V20.3968C12.9569 20.6027 12.4936 20.9802 12.4936 20.9802Z" fill="#001E2B"/>
</svg>
