<svg width="24" height="25" viewBox="0 0 24 25" fill="none" xmlns="http://www.w3.org/2000/svg">
<path fill-rule="evenodd" clip-rule="evenodd" d="M2 6.5C2 4.29086 3.79086 2.5 6 2.5H18C20.2091 2.5 22 4.29086 22 6.5V12.949L19.7535 11.4786C18.019 10.3433 15.7486 10.4639 14.1442 11.7766L8.906 16.0624C7.80825 16.9606 6.25482 17.0431 5.06808 16.2663L2 14.2581V6.5ZM18.932 12.7336L22 14.7418V18.5C22 20.7091 20.2091 22.5 18 22.5H6C3.79086 22.5 2 20.7091 2 18.5V16.0509L4.24659 17.5214C5.98106 18.6567 8.25145 18.536 9.85585 17.2233L15.0941 12.9375C16.1918 12.0394 17.7452 11.9568 18.932 12.7336ZM8.5 11.5C9.88071 11.5 11 10.3807 11 9C11 7.61929 9.88071 6.5 8.5 6.5C7.11929 6.5 6 7.61929 6 9C6 10.3807 7.11929 11.5 8.5 11.5Z" fill="#C1C8CD"/>
</svg>
