<svg width="12" height="12" viewBox="0 0 12 12" fill="none" xmlns="http://www.w3.org/2000/svg">
<path fill-rule="evenodd" clip-rule="evenodd" d="M7.2971 1.02738C7.23189 1.00025 7.1601 0.99308 7.09082 1.00677C7.02154 1.02046 6.95787 1.0544 6.90789 1.1043L5.8364 2.17579C5.80316 2.20894 5.77679 2.24832 5.7588 2.29168C5.74081 2.33504 5.73155 2.38152 5.73155 2.42847C5.73155 2.47541 5.74081 2.52189 5.7588 2.56525C5.77679 2.60861 5.80316 2.64799 5.8364 2.68115L6.90789 3.75264C6.9578 3.80252 7.02138 3.83649 7.0906 3.85025C7.15981 3.86401 7.23155 3.85694 7.29675 3.82994C7.36194 3.80294 7.41767 3.75721 7.45689 3.69855C7.49611 3.63988 7.51706 3.57091 7.51709 3.50034V2.96498H8.23167C8.72473 2.96498 9.12471 3.36496 9.12471 3.85802V5.28641C9.12471 5.4285 9.18115 5.56477 9.28163 5.66524C9.3821 5.76571 9.51837 5.82216 9.66045 5.82216C9.80254 5.82216 9.93881 5.76571 10.0393 5.66524C10.1398 5.56477 10.1962 5.4285 10.1962 5.28641V3.85725C10.1962 3.33622 9.98922 2.83654 9.6208 2.46812C9.25238 2.0997 8.7527 1.89272 8.23167 1.89272H7.51709V1.35736C7.5171 1.28668 7.49613 1.21759 7.45683 1.15884C7.41753 1.10009 7.36244 1.05434 7.2971 1.02738ZM8.23167 5.28564C8.23167 5.09612 8.15639 4.91437 8.02238 4.78036C7.88837 4.64635 7.70661 4.57106 7.51709 4.57106H2.51732C2.3278 4.57106 2.14604 4.64635 2.01203 4.78036C1.87802 4.91437 1.80273 5.09612 1.80273 5.28564V10.2854C1.80273 10.4749 1.87802 10.6567 2.01203 10.7907C2.14604 10.9247 2.3278 11 2.51732 11H7.51709C7.70661 11 7.88837 10.9247 8.02238 10.7907C8.15639 10.6567 8.23167 10.4749 8.23167 10.2854V5.28564Z" fill="#6A727C"/>
</svg>
