<svg width="12" height="12" viewBox="0 0 12 12" fill="none" xmlns="http://www.w3.org/2000/svg">
<path fill-rule="evenodd" clip-rule="evenodd" d="M5.63487 2.06929C4.68931 2.06929 3.78248 2.44491 3.11387 3.11352C2.44527 3.78213 2.06964 4.68896 2.06964 5.63451C2.06964 6.58007 2.44527 7.4869 3.11387 8.15551C3.78248 8.82412 4.68931 9.19974 5.63487 9.19974C6.58043 9.19974 7.48726 8.82412 8.15586 8.15551C8.82447 7.4869 9.2001 6.58007 9.2001 5.63451C9.2001 4.68896 8.82447 3.78213 8.15586 3.11352C7.48726 2.44491 6.58043 2.06929 5.63487 2.06929ZM1 5.63451C1.00006 4.90259 1.17345 4.18108 1.506 3.52907C1.83854 2.87705 2.32077 2.31305 2.91321 1.88326C3.50565 1.45346 4.19146 1.17008 4.91449 1.05633C5.63752 0.942566 6.37721 1.00166 7.07301 1.22877C7.76881 1.45587 8.40093 1.84454 8.91762 2.36294C9.43432 2.88134 9.82089 3.51474 10.0457 4.21129C10.2705 4.90783 10.3272 5.64771 10.211 6.37036C10.0949 7.09301 9.80922 7.77788 9.37747 8.3689L10.7735 9.76489C10.8435 9.83021 10.8997 9.90896 10.9387 9.99646C10.9776 10.084 10.9986 10.1784 11.0002 10.2742C11.0019 10.3699 10.9843 10.4651 10.9484 10.5539C10.9125 10.6427 10.8591 10.7233 10.7914 10.7911C10.7237 10.8588 10.643 10.9122 10.5542 10.9481C10.4654 10.9839 10.3703 11.0016 10.2745 10.9999C10.1788 10.9982 10.0843 10.9773 9.99681 10.9383C9.90932 10.8993 9.83056 10.8432 9.76525 10.7731L8.36926 9.37712C7.67821 9.88204 6.86086 10.1858 6.00778 10.2546C5.1547 10.3235 4.29921 10.1548 3.53613 9.76724C2.77304 9.3797 2.13216 8.78843 1.68452 8.05898C1.23688 7.32952 0.999952 6.49037 1 5.63451ZM5.63487 3.31708C5.77661 3.31708 5.91255 3.37339 6.01277 3.47361C6.113 3.57384 6.16931 3.70978 6.16931 3.85152V5.09931H7.4171C7.55894 5.09931 7.69498 5.15566 7.79527 5.25595C7.89557 5.35625 7.95192 5.49229 7.95192 5.63413C7.95192 5.77597 7.89557 5.91201 7.79527 6.01231C7.69498 6.11261 7.55894 6.16895 7.4171 6.16895H6.16931V7.41674C6.16931 7.55859 6.11296 7.69462 6.01266 7.79492C5.91236 7.89522 5.77633 7.95157 5.63449 7.95157C5.49264 7.95157 5.35661 7.89522 5.25631 7.79492C5.15601 7.69462 5.09966 7.55859 5.09966 7.41674V6.16895H3.85187C3.71003 6.16895 3.574 6.11261 3.4737 6.01231C3.3734 5.91201 3.31705 5.77597 3.31705 5.63413C3.31705 5.49229 3.3734 5.35625 3.4737 5.25595C3.574 5.15566 3.71003 5.09931 3.85187 5.09931H5.09966V3.85152C5.09966 3.70978 5.15597 3.57384 5.2562 3.47361C5.35642 3.37339 5.49313 3.31708 5.63487 3.31708Z" fill="#6A727C"/>
</svg>
