<svg width="24" height="24" viewBox="0 0 24 24" fill="none" xmlns="http://www.w3.org/2000/svg">
<g clip-path="url(#clip0_835_11)">
<path d="M17.0183 8.77016V6.4214C17.3287 6.27633 17.5915 6.04609 17.7761 5.75747C17.9608 5.46886 18.0596 5.13374 18.0612 4.79113V4.73724C18.0612 3.7383 17.2514 2.9285 16.2525 2.9285H16.1986C15.1996 2.9285 14.3898 3.7383 14.3898 4.73724V4.79113C14.3914 5.13374 14.4903 5.46886 14.6749 5.75747C14.8595 6.04609 15.1223 6.27633 15.4327 6.4214V8.77016C14.5406 8.90678 13.7005 9.27668 12.9973 9.84241L6.55569 4.82504C6.60162 4.65923 6.62558 4.48872 6.62829 4.31757C6.62908 3.91447 6.5103 3.52019 6.28697 3.1846C6.06365 2.84902 5.74581 2.5872 5.37367 2.43228C5.00153 2.27735 4.5918 2.23627 4.1963 2.31424C3.80081 2.39221 3.43733 2.58572 3.15183 2.87029C2.86633 3.15487 2.67165 3.51772 2.5924 3.91296C2.51315 4.30819 2.55289 4.71805 2.70661 5.0907C2.86033 5.46334 3.12111 5.78202 3.45597 6.00643C3.79083 6.23085 4.18473 6.35091 4.58783 6.35143C4.94047 6.34976 5.28651 6.25562 5.59138 6.07839L11.9345 11.0143C10.7684 12.776 10.7996 15.072 12.0131 16.8015L10.0839 18.7313C9.92783 18.6814 9.76544 18.6549 9.6017 18.6527C8.67775 18.6535 7.92924 19.4028 7.92948 20.3268C7.92972 21.2506 8.6787 21.9995 9.60258 21.9998C10.5265 22 11.2758 21.2515 11.2766 20.3276C11.2744 20.1639 11.2479 20.0014 11.198 19.8455L13.1065 17.9362C14.8119 19.249 17.154 19.3621 18.978 18.2197C20.8018 17.0773 21.7223 14.9205 21.2853 12.8133C20.8482 10.7059 19.1461 9.09319 17.0183 8.77016ZM16.2272 16.4951C15.8746 16.5046 15.5237 16.4433 15.1952 16.3149C14.8666 16.1865 14.5672 15.9936 14.3144 15.7476C14.0617 15.5016 13.8608 15.2074 13.7236 14.8824C13.5864 14.5575 13.5158 14.2083 13.5158 13.8556C13.5158 13.5029 13.5864 13.1537 13.7236 12.8288C13.8608 12.5038 14.0617 12.2096 14.3144 11.9636C14.5672 11.7176 14.8666 11.5246 15.1952 11.3963C15.5237 11.2679 15.8746 11.2066 16.2272 11.2161C17.6481 11.2659 18.7745 12.4318 18.7753 13.8537C18.7759 15.2754 17.6508 16.4425 16.2298 16.4937" fill="#FF7A59"/>
</g>
<defs>
<clipPath id="clip0_835_11">
<rect width="20" height="20" fill="white" transform="translate(2 2)"/>
</clipPath>
</defs>
</svg>
