<svg width="10000" height="9307" viewBox="0 0 10000 9307" fill="none" xmlns="http://www.w3.org/2000/svg">
<g clip-path="url(#clip0_508_26)">
<mask id="mask0_508_26" style="mask-type:luminance" maskUnits="userSpaceOnUse" x="71" y="0" width="9952" height="9257">
<path d="M9732.97 1674.7L7483.03 161.164C7194.27 -35.0355 6821.29 -35.0355 6532.53 161.164L5064.65 1142.16L5040.59 1128.14H5028.56L3572.71 147.149C3283.95 -49.0497 2910.97 -49.0497 2622.21 147.149L372.27 1660.68C179.762 1786.82 71.4766 2025.06 71.4766 2277.31V5150.23C71.4766 5640.73 300.079 6089.19 661.032 6327.43L5040.59 9256.41L9432.22 6327.43C9793.11 6089.19 10021.8 5626.71 10021.8 5136.21V2277.31C10033.8 2025.06 9925.5 1800.83 9732.97 1674.7Z" fill="white"/>
</mask>
<g mask="url(#mask0_508_26)">
<path d="M3349.36 9253.73L-320.328 6983.44L-428.613 2106.49L3120.76 -500.156L6790.45 1770.15L6898.73 6647.1L3349.36 9253.73Z" fill="#BE185D"/>
<path d="M7243.92 9465.76L3586.27 7209.5L3465.95 2332.55L7027.36 -274.094L10697 1996.21L10805.3 6859.15L7243.92 9465.76Z" fill="#B22977"/>
<path d="M5244.46 10896.2L1586.8 8639.89L1466.49 3762.91L5027.88 1156.27L7786.34 3161.48L7786.34 8252.62L5244.46 10896.2Z" fill="#BE185D"/>
<path opacity="0.36" d="M10682.4 5648.89L4822.95 9909.22L4714.66 5046.28L10813.4 1320.03L10682.4 5648.89Z" fill="#A6256E"/>
<path d="M-951.205 6077.6L5076.7 9777.34L4968.41 4914.42L-1071.53 1214.67L-951.205 6077.6Z" fill="#D74078"/>
</g>
<mask id="mask1_508_26" style="mask-type:luminance" maskUnits="userSpaceOnUse" x="71" y="0" width="9952" height="9257">
<path d="M9732.97 1674.7L7483.03 161.164C7194.27 -35.0355 6821.29 -35.0355 6532.53 161.164L5064.65 1142.16L5040.59 1128.14H5028.56L3572.71 147.149C3283.95 -49.0497 2910.97 -49.0497 2622.21 147.149L372.27 1660.68C179.762 1786.82 71.4766 2025.06 71.4766 2277.31V5150.23C71.4766 5640.73 300.079 6089.19 661.032 6327.43L5040.59 9256.41L9432.22 6327.43C9793.11 6089.19 10021.8 5626.71 10021.8 5136.21V2277.31C10033.8 2025.06 9925.5 1800.83 9732.97 1674.7Z" fill="white"/>
</mask>
<g mask="url(#mask1_508_26)">
<path d="M3349.36 9253.73L-320.328 6983.44L-428.613 2106.49L3120.76 -500.156L6790.45 1770.15L6898.73 6647.1L3349.36 9253.73Z" fill="#BE185D"/>
<path d="M7243.92 9465.76L3586.27 7209.5L3465.95 2332.55L7027.36 -274.094L10697 1996.21L10805.3 6859.15L7243.92 9465.76Z" fill="#B22977"/>
<path d="M5244.46 10896.2L1586.8 8639.89L1466.49 3762.91L5027.88 1156.27L7786.34 3161.48L7786.34 8252.62L5244.46 10896.2Z" fill="#BE185D"/>
<path opacity="0.36" d="M10682.4 5648.9L4822.95 9909.22L4714.66 5046.28L10813.4 1320.03L10682.4 5648.9Z" fill="#A6256E"/>
<path d="M-951.205 6077.6L5076.7 9777.34L4968.41 4914.42L-1071.53 1214.67L-951.205 6077.6Z" fill="#D74078"/>
</g>
</g>
<defs>
<clipPath id="clip0_508_26">
<rect width="10000" height="9306.22" fill="white"/>
</clipPath>
</defs>
</svg>
