<svg xmlns="http://www.w3.org/2000/svg" width="17" height="16" viewBox="0 0 17 16" fill="none">
  <path fill-rule="evenodd" clip-rule="evenodd" d="M15.0885 8C15.0885 11.6819 12.1037 14.6667 8.42179 14.6667C4.7399 14.6667 1.75513 11.6819 1.75513 8C1.75513 4.3181 4.7399 1.33334 8.42179 1.33334C12.1037 1.33334 15.0885 4.3181 15.0885 8ZM9.08846 4.66667C9.08846 5.03486 8.78998 5.33334 8.42179 5.33334C8.0536 5.33334 7.75513 5.03486 7.75513 4.66667C7.75513 4.29848 8.0536 4 8.42179 4C8.78998 4 9.08846 4.29848 9.08846 4.66667ZM7.75513 6.16667C7.47898 6.16667 7.25513 6.39053 7.25513 6.66667C7.25513 6.94281 7.47898 7.16667 7.75513 7.16667H7.92179V11.3333C7.92179 11.6095 8.14565 11.8333 8.42179 11.8333C8.69794 11.8333 8.92179 11.6095 8.92179 11.3333V6.66667C8.92179 6.39053 8.69794 6.16667 8.42179 6.16667H7.75513Z" fill="#4368E3"/>
</svg>