<svg width="100%" height="100%" viewBox="0 0 24 24" fill="none" xmlns="http://www.w3.org/2000/svg">
<path fill-rule="evenodd" clip-rule="evenodd" d="M0 17.95H12.1295L24 6.04999H0V17.95" fill="url(#paint0_linear_817_123587)"/>
<path fill-rule="evenodd" clip-rule="evenodd" d="M14.2427 8.42999H11.8725L11.8804 14.0177L9.81639 8.42787H7.76983L6.00794 13.0961C5.82062 11.9082 4.59537 11.4983 3.63131 11.1913C2.99468 10.9864 2.319 10.6849 2.32586 10.3517C2.33114 10.0783 2.68731 9.82467 3.39518 9.86248C3.87008 9.88813 4.28958 9.92648 5.12409 10.3305L5.94462 8.89726C5.18372 8.50906 4.13154 8.26392 3.2688 8.26312H3.26353C2.25753 8.26312 1.41985 8.58971 0.900623 9.12786C0.538641 9.50337 0.343404 9.98095 0.335489 10.509C0.322297 11.2357 0.587979 11.7509 1.14625 12.1626C1.61799 12.509 2.22138 12.7338 2.75301 12.8988C3.40864 13.1025 3.94422 13.2796 3.93763 13.6567C3.93235 13.7942 3.88064 13.9228 3.78196 14.0264C3.61839 14.1957 3.36774 14.2591 3.0208 14.266C2.35145 14.2803 1.85544 14.1748 1.06499 13.7064L0.334961 15.1582C1.12462 15.6083 1.96282 15.8342 2.91527 15.8342L3.1295 15.8326C3.95847 15.8175 4.63125 15.6184 5.16578 15.1873C5.19638 15.1627 5.22382 15.1379 5.25232 15.1128L5.16261 15.5761L7.16248 15.5697L7.5213 14.6489C7.89858 14.778 8.32757 14.8494 8.78295 14.8494C9.22672 14.8494 9.64411 14.7817 10.0143 14.66L10.2644 15.5697L13.8525 15.5732L13.8612 13.474H14.6248C16.4703 13.474 17.5613 12.5326 17.5613 10.9538C17.5607 9.19555 16.5001 8.42972 14.2428 8.42972L14.2427 8.42999ZM8.78295 13.2064C8.50724 13.2064 8.24868 13.1583 8.02627 13.0736L8.7745 10.7055H8.78902L9.52511 13.0802C9.30349 13.1596 9.051 13.2064 8.78268 13.2064H8.78295ZM14.3815 11.8458H13.8607V9.93732H14.3818C15.0757 9.93732 15.6297 10.169 15.6297 10.8793C15.6291 11.6144 15.0757 11.8458 14.3818 11.8458" fill="white"/>
<defs>
<linearGradient id="paint0_linear_817_123587" x1="12" y1="6.04999" x2="12" y2="17.9503" gradientUnits="userSpaceOnUse">
<stop stop-color="#00AEEF"/>
<stop offset="0.212" stop-color="#0097DC"/>
<stop offset="0.519" stop-color="#007CC5"/>
<stop offset="0.792" stop-color="#006CB8"/>
<stop offset="1" stop-color="#0066B3"/>
</linearGradient>
</defs>
</svg>
