
<?xml version="1.0" standalone="no"?>
<!DOCTYPE svg PUBLIC "-//W3C//DTD SVG 1.0//EN" "http://www.w3.org/TR/2001/REC-SVG-20010904/DTD/svg10.dtd">
<svg viewBox="0 0 48 48" xmlns="http://www.w3.org/2000/svg" xmlns:xlink="http://www.w3.org/1999/xlink" id="body_1" >

<g transform="matrix(0.20000002 0 0 0.20000002 -0 19.4)">
	<g>
        <path d="M15.0736 15.8466C 15.1841 16.3988 15.2393 16.932499 15.2393 17.447899C 15.2393 17.9264 15.1841 18.441698 15.0736 18.993898L15.0736 18.993898L8.06135 18.938698L8.06135 37.4908C 8.06135 39.0368 8.7791395 39.8098 10.2147 39.8098L10.2147 39.8098L14.410999 39.8098C 14.668699 40.4356 14.7975 41.061398 14.7975 41.6871C 14.7975 42.3129 14.760699 42.699398 14.687099 42.8466C 12.993899 43.0675 11.245399 43.1779 9.441719 43.1779C 5.871169 43.1779 4.085889 41.6503 4.085889 38.5951L4.085889 38.5951L4.085889 18.9387L0.16564298 18.9939C 0.055213675 18.4417 -1.0281801E-06 17.926401 -1.0281801E-06 17.4479C -1.0281801E-06 16.9325 0.05521367 16.3988 0.16564298 15.846601L0.16564298 15.846601L4.085889 15.9018L4.085889 10.1043C 4.085889 9.11043 4.233129 8.41105 4.527609 8.00614C 4.8220887 7.5644197 5.3926387 7.3435597 6.239259 7.3435597L6.239259 7.3435597L7.7300587 7.3435597L8.061349 7.6748495L8.061349 15.9571L15.0736 15.8466z" stroke="none" fill="#1035BC" fill-rule="nonzero" />
        <path d="M41.7915 16.1227L34.2271 42.018402C 32.8283 46.766903 31.3375 50.1166 29.7547 52.0675C 28.1719 54.018402 25.7976 54.9939 22.632 54.9939C 21.0124 54.9939 19.5216 54.7546 18.1596 54.2761C 18.0492 53.2454 18.343699 52.2515 19.043 51.2945C 20.1841 51.699398 21.3989 51.9018 22.687199 51.9018C 24.638098 51.9018 26.128899 51.2393 27.1596 49.914097C 28.1903 48.588997 29.128899 46.527596 29.9756 43.730095L29.9756 43.730095L30.1412 43.177895C 29.1841 43.104294 28.448 42.883396 27.932598 42.515293C 27.454098 42.147194 27.049198 41.466293 26.717897 40.472393L26.717897 40.472393L18.987797 16.177893C 20.128897 15.699392 20.938696 15.460093 21.417297 15.460093C 22.484797 15.460093 23.202597 16.104292 23.570698 17.392593L23.570698 17.392593L27.932598 31.251493C 28.079899 31.693293 28.926498 34.564392 30.472498 39.864994C 30.546099 40.122696 30.730198 40.251495 31.024597 40.251495L31.024597 40.251495L37.760796 15.846596C 38.239395 15.699396 38.865097 15.625795 39.638096 15.625795C 40.447994 15.625795 41.128895 15.736196 41.681095 15.957095L41.681095 15.957095L41.7915 16.1227z" stroke="none" fill="#1035BC" fill-rule="nonzero" />
        <path d="M52.4009 41.135L52.4009 52.067497C 52.4009 53.0613 52.2537 53.760696 51.9592 54.165596C 51.664703 54.607395 51.0758 54.828197 50.192303 54.828197L50.192303 54.828197L48.701504 54.828197L48.370304 54.4969L48.370304 16.012299L48.701504 15.680999L50.137104 15.680999C 51.020603 15.680999 51.609505 15.920198 51.904003 16.398798C 52.235302 16.840498 52.4009 17.576698 52.4009 18.607399L52.4009 18.607399L52.4009 18.883398C 54.6095 16.417198 57.2414 15.183998 60.2966 15.183998C 63.4255 15.183998 65.7813 16.453999 67.3641 18.993898C 68.9469 21.496899 69.738396 24.975498 69.738396 29.429499C 69.738396 31.601198 69.44389 33.552097 68.8549 35.2822C 68.302795 37.0123 67.548195 38.4847 66.591095 39.6994C 65.6709 40.8773 64.60339 41.7975 63.388695 42.460102C 62.173893 43.085903 60.922394 43.398804 59.634094 43.398804C 57.094193 43.398804 54.683094 42.644203 52.400894 41.135002L52.400894 41.135002L52.4009 41.135zM52.4009 23.190199L52.4009 37.380398C 54.6463 39.036797 56.7629 39.864998 58.750603 39.864998C 60.738403 39.864998 62.376404 38.981598 63.664703 37.2147C 64.9531 35.4479 65.597305 32.7791 65.597305 29.2086C 65.597305 27.4417 65.4316 25.914099 65.1003 24.6258C 64.8058 23.3006 64.4009 22.214699 63.885605 21.3681C 63.370304 20.4847 62.762905 19.8405 62.063503 19.435598C 61.4009 18.993898 60.6831 18.772999 59.910103 18.772999C 58.437702 18.772999 57.039 19.159498 55.713802 19.932499C 54.388702 20.7055 53.2844 21.791399 52.4009 23.190199z" stroke="none" fill="#1035BC" fill-rule="nonzero" />
        <path d="M97.6973 30.6442L80.5807 30.6442C 80.7648 36.9018 83.13901 40.0307 87.70341 40.0307C 90.206505 40.0307 92.875206 39.2577 95.7095 37.7117C 96.5194 38.4478 97.016304 39.3865 97.2004 40.5276C 94.182 42.589 90.7954 43.6196 87.0408 43.6196C 85.1267 43.6196 83.4887 43.269897 82.1267 42.5706C 80.7648 41.8344 79.642105 40.8405 78.7586 39.588997C 77.911995 38.3006 77.2862 36.791397 76.8813 35.0613C 76.4764 33.3313 76.274 31.435598 76.274 29.374199C 76.274 27.276098 76.5132 25.362 76.9918 23.631899C 77.507095 21.901798 78.2433 20.411 79.2003 19.159498C 80.1574 17.907999 81.2985 16.932499 82.6237 16.233099C 83.9856 15.533699 85.5316 15.183999 87.2617 15.183999C 88.9549 15.183999 90.4642 15.496899 91.78931 16.1227C 93.151306 16.7117 94.27401 17.5399 95.15741 18.607399C 96.07771 19.637999 96.77701 20.889599 97.25561 22.362C 97.73411 23.797499 97.973404 25.3436 97.973404 27C 97.973404 27.6626 97.9365 28.3067 97.86291 28.9325C 97.82611 29.521502 97.770905 30.092001 97.6973 30.644201L97.6973 30.644201L97.6973 30.6442zM80.5807 27.496899L93.832306 27.496899L93.832306 26.779099C 93.832306 24.239298 93.29851 22.196299 92.231 20.6503C 91.1635 19.1043 89.5623 18.331299 87.4273 18.331299C 85.3292 18.331299 83.6911 19.159498 82.5132 20.815998C 81.3721 22.472399 80.728 24.699398 80.580696 27.496899z" stroke="none" fill="#1035BC" fill-rule="nonzero" />
        <path d="M103.381 41.0245C 103.417 40.214703 103.638 39.331303 104.043 38.374203C 104.485 37.3804 104.982 36.607403 105.534 36.055202C 108.44199 37.638004 111 38.429504 113.209 38.429504C 114.423 38.429504 115.399 38.190205 116.135 37.711704C 116.908005 37.233105 117.295006 36.589005 117.295006 35.779106C 117.295006 34.490807 116.301 33.460106 114.313 32.687107L114.313 32.687107L111.221 31.527607C 106.583 29.834408 104.264 27.128807 104.264 23.411007C 104.264 22.085907 104.503 20.908007 104.982 19.877308C 105.497 18.809809 106.196 17.908009 107.08 17.171808C 108 16.398808 109.086 15.809809 110.338005 15.404908C 111.589005 15.000009 112.98801 14.797508 114.534004 14.797508C 115.233 14.797508 116.006004 14.852808 116.853004 14.963208C 117.73601 15.073608 118.62 15.239308 119.503006 15.460108C 120.38701 15.644208 121.23301 15.865007 122.04301 16.122707C 122.853004 16.380407 123.55201 16.656406 124.14101 16.950907C 124.14101 17.871206 123.95701 18.828207 123.589005 19.822107C 123.221 20.816008 122.72401 21.552107 122.09801 22.030708C 119.19001 20.742308 116.66901 20.098207 114.534004 20.098207C 113.577 20.098207 112.82201 20.337408 112.270004 20.816008C 111.718 21.257708 111.442 21.846607 111.442 22.582808C 111.442 23.723907 112.362 24.625807 114.203 25.288307L114.203 25.288307L117.571 26.503107C 120 27.349707 121.804 28.509207 122.982 29.981607C 124.16 31.454008 124.749 33.165607 124.749 35.116608C 124.749 37.730106 123.773 39.82821 121.822 41.411007C 119.871 42.957108 117.074 43.730106 113.43 43.730106C 109.859 43.730106 106.509 42.828205 103.381 41.024506L103.381 41.024506L103.381 41.0245z" stroke="none" fill="#1035BC" fill-rule="nonzero" />
        <path d="M151.772 31.5828L136.533 31.5828C 136.644 33.6074 137.104 35.2086 137.91301 36.3865C 138.76001 37.527603 140.214 38.0982 142.27501 38.0982C 144.41 38.0982 146.858 37.4724 149.619 36.2209C 150.686 37.3251 151.367 38.779102 151.662 40.5828C 148.717 42.681004 145.183 43.730103 141.061 43.730103C 137.15901 43.730103 134.196 42.533703 132.171 40.1411C 130.183 37.7117 129.19 34.122704 129.19 29.374203C 129.19 27.165604 129.447 25.177902 129.963 23.411003C 130.478 21.607403 131.232 20.079803 132.226 18.828203C 133.22 17.539904 134.435 16.546003 135.87 15.846603C 137.306 15.147203 138.944 14.797503 140.78499 14.797503C 142.66199 14.797503 144.318 15.092004 145.75398 15.681004C 147.18999 16.233103 148.40398 17.042904 149.39798 18.110403C 150.39198 19.141104 151.12798 20.374203 151.60698 21.809803C 152.12198 23.245403 152.37997 24.809803 152.37997 26.503103C 152.37997 27.423304 152.32397 28.306704 152.21397 29.153404C 152.10397 29.963203 151.95598 30.773005 151.77197 31.582804L151.77197 31.582804L151.772 31.5828zM141.116 19.9877C 138.245 19.9877 136.699 22.1595 136.478 26.5031L136.478 26.5031L145.64299 26.5031L145.64299 25.8405C 145.64299 24.0736 145.275 22.6564 144.53899 21.589C 143.803 20.521502 142.66199 19.987701 141.11598 19.987701z" stroke="none" fill="#1035BC" fill-rule="nonzero" />
        <path d="M182.033 24.5153L182.033 36.5521C 182.033 38.908 182.419 40.656403 183.192 41.7975C 182.014 42.8282 180.597 43.3436 178.941 43.3436C 177.358 43.3436 176.27199 42.9939 175.683 42.294502C 175.094 41.558304 174.799 40.417202 174.799 38.8712L174.799 38.8712L174.799 26.0061C 174.799 24.349699 174.597 23.190199 174.192 22.5276C 173.787 21.865 173.033 21.533699 171.92801 21.533699C 169.977 21.533699 168.15501 22.417198 166.462 24.1841L166.462 24.1841L166.462 42.9571C 165.91 43.0675 165.321 43.141098 164.695 43.1779C 164.106 43.2147 163.49901 43.233097 162.873 43.233097C 162.247 43.233097 161.622 43.2147 160.996 43.1779C 160.407 43.141098 159.836 43.067497 159.284 42.9571L159.284 42.9571L159.284 15.625799L159.61499 15.239299L162.37599 15.239299C 164.43799 15.239299 165.726 16.3436 166.241 18.5521C 168.928 16.233099 171.597 15.073599 174.247 15.073599C 176.898 15.073599 178.849 15.938699 180.09999 17.6687C 181.38799 19.362 182.03299 21.6442 182.03299 24.515299L182.03299 24.515299L182.033 24.5153z" stroke="none" fill="#1035BC" fill-rule="nonzero" />
        <path d="M187.825 41.0245C 187.861 40.214703 188.082 39.331303 188.487 38.374203C 188.929 37.3804 189.426 36.607403 189.978 36.055202C 192.886 37.638004 195.444 38.429504 197.653 38.429504C 198.867 38.429504 199.843 38.190205 200.579 37.711704C 201.35199 37.233105 201.739 36.589005 201.739 35.779106C 201.739 34.490807 200.745 33.460106 198.757 32.687107L198.757 32.687107L195.66501 31.527607C 191.02701 29.834408 188.70801 27.128807 188.70801 23.411007C 188.70801 22.085907 188.947 20.908007 189.42601 19.877308C 189.94101 18.809809 190.64001 17.908009 191.52402 17.171808C 192.44402 16.398808 193.53001 15.809809 194.78201 15.404908C 196.03302 15.000009 197.432 14.797508 198.97801 14.797508C 199.67702 14.797508 200.45001 14.852808 201.29701 14.963208C 202.18001 15.073608 203.06401 15.239308 203.947 15.460108C 204.83101 15.644208 205.677 15.865007 206.487 16.122707C 207.297 16.380407 207.996 16.656406 208.585 16.950907C 208.585 17.871206 208.401 18.828207 208.033 19.822107C 207.66501 20.816008 207.168 21.552107 206.542 22.030708C 203.634 20.742308 201.113 20.098207 198.97801 20.098207C 198.02101 20.098207 197.266 20.337408 196.71402 20.816008C 196.16202 21.257708 195.88602 21.846607 195.88602 22.582808C 195.88602 23.723907 196.80602 24.625807 198.64702 25.288307L198.64702 25.288307L202.01501 26.503107C 204.44402 27.349707 206.24802 28.509207 207.42601 29.981607C 208.604 31.454008 209.19301 33.165607 209.19301 35.116608C 209.19301 37.730106 208.21701 39.82821 206.266 41.411007C 204.315 42.957108 201.518 43.730106 197.87401 43.730106C 194.30301 43.730106 190.953 42.828205 187.82501 41.024506L187.82501 41.024506L187.825 41.0245z" stroke="none" fill="#1035BC" fill-rule="nonzero" />
        <path d="M236.216 31.5828L220.977 31.5828C 221.088 33.6074 221.548 35.2086 222.35701 36.3865C 223.20401 37.527603 224.658 38.0982 226.71901 38.0982C 228.854 38.0982 231.302 37.4724 234.063 36.2209C 235.13 37.3251 235.811 38.779102 236.106 40.5828C 233.161 42.681004 229.627 43.730103 225.505 43.730103C 221.60301 43.730103 218.64 42.533703 216.615 40.1411C 214.627 37.7117 213.634 34.122704 213.634 29.374203C 213.634 27.165604 213.891 25.177902 214.407 23.411003C 214.922 21.607403 215.676 20.079803 216.67 18.828203C 217.664 17.539904 218.879 16.546003 220.315 15.846603C 221.75 15.147203 223.388 14.797503 225.229 14.797503C 227.106 14.797503 228.76201 15.092004 230.198 15.681004C 231.634 16.233103 232.84799 17.042904 233.842 18.110403C 234.836 19.141104 235.57199 20.374203 236.051 21.809803C 236.566 23.245403 236.82399 24.809803 236.82399 26.503103C 236.82399 27.423304 236.769 28.306704 236.65799 29.153404C 236.54799 29.963203 236.4 30.773005 236.21599 31.582804L236.21599 31.582804L236.216 31.5828zM225.56 19.9877C 222.689 19.9877 221.143 22.1595 220.922 26.5031L220.922 26.5031L230.088 26.5031L230.088 25.8405C 230.088 24.0736 229.719 22.6564 228.983 21.589C 228.24701 20.521502 227.106 19.987701 225.56 19.987701z" stroke="none" fill="#1035BC" fill-rule="nonzero" />
        <path d="M244.777 50.6871L244.777 0.1656456C 245.329 0.0552157 245.95499 5.9604645E-07 246.655 5.9604645E-07C 247.39099 5.9604645E-07 248.072 0.055215698 248.697 0.1656456L248.697 0.1656456L248.697 50.6871C 248.072 50.7975 247.391 50.8528 246.655 50.8528C 245.955 50.8528 245.329 50.797497 244.777 50.6871z" stroke="none" fill="#1035BC" fill-rule="nonzero" />
	</g>
</g>
</svg>