<svg width="100%" height="100%" viewBox="0 0 24 24" fill="none" xmlns="http://www.w3.org/2000/svg">
<g clip-path="url(#clip0_817_123578)">
<path d="M7.37946 19.931C7.18688 20.0185 6.90675 20.1148 6.53909 20.2199C6.18894 20.3249 5.82128 20.3774 5.43611 20.3774C4.35064 20.3774 3.47526 20.0623 2.80997 19.432C2.16219 18.8018 1.8383 17.8826 1.8383 16.6746V9.0325H0.0262614L0 7.45682H1.8383V4.22666L3.93921 3.62265V7.45682H6.25022L6.93302 9.0325H3.93921V16.3857C3.93921 17.0335 4.07927 17.5675 4.3594 17.9876C4.63952 18.3903 5.10347 18.5917 5.75125 18.5917C5.94384 18.5917 6.15393 18.5654 6.38153 18.5129C6.60912 18.4428 6.7842 18.3816 6.90675 18.329L7.37946 19.931Z" fill="#0008AB"/>
<path d="M8.86621 18.9856C9.26889 19.2832 9.74159 19.5371 10.2843 19.7472C10.8446 19.9398 11.3961 20.0798 11.9388 20.1674C12.4815 20.2549 12.928 20.2987 13.2781 20.2987C15.0114 20.2987 16.3245 19.9485 17.2173 19.2482C18.1277 18.5479 18.5829 17.5762 18.5829 16.3332C18.5829 15.5804 18.3641 14.9326 17.9264 14.3898C17.5062 13.8296 16.9635 13.3481 16.2982 12.9455C15.6504 12.5428 14.9676 12.2276 14.2498 12C13.8121 11.8425 13.3657 11.6674 12.9105 11.4748C12.4728 11.2647 12.2627 11.0284 12.2802 10.7658C12.2802 10.4681 12.4203 10.2143 12.7004 10.0042C12.998 9.77658 13.3657 9.66278 13.8034 9.66278C14.3811 9.66278 14.9326 9.74157 15.4578 9.89914C15.9831 10.0567 16.5521 10.2668 17.1648 10.5294L18.189 8.24467C17.7688 7.94704 17.2874 7.70193 16.7446 7.50935C16.2019 7.31676 15.6679 7.16795 15.1427 7.0629C14.635 6.95786 14.1973 6.90533 13.8296 6.90533C12.2889 6.90533 11.0722 7.25549 10.1793 7.95579C9.3039 8.63859 8.86621 9.584 8.86621 10.792C8.86621 11.4923 9.0763 12.0963 9.49649 12.6041C9.93418 13.1118 10.4769 13.5407 11.1247 13.8909C11.79 14.2235 12.4465 14.5036 13.0943 14.7312C13.5845 14.8713 13.9872 15.0289 14.3023 15.2039C14.635 15.379 14.8888 15.5716 15.0639 15.7817C15.239 15.9743 15.3265 16.1931 15.3265 16.4382C15.3265 16.6833 15.204 16.8934 14.9589 17.0685C14.7313 17.2261 14.4599 17.3486 14.1448 17.4362C13.8296 17.5062 13.5232 17.5412 13.2256 17.5412C12.9105 17.5412 12.5691 17.5062 12.2014 17.4362C11.8513 17.3661 11.4836 17.2698 11.0984 17.1473C10.7133 17.0072 10.3106 16.8584 9.89041 16.7008L8.86621 18.9856Z" fill="#0008AB"/>
<path d="M21.7725 0.465892C21.7725 0.258695 21.9404 0.0907288 22.1476 0.0907288H23.6248C23.832 0.0907288 24 0.258695 24 0.465892V23.5341C24 23.7413 23.832 23.9093 23.6248 23.9093H22.1476C21.9404 23.9093 21.7725 23.7413 21.7725 23.5341V0.465892Z" fill="#0008AB"/>
</g>
<defs>
<clipPath id="clip0_817_123578">
<rect width="24" height="24" fill="white"/>
</clipPath>
</defs>
</svg>
