<svg width="68" height="68" viewBox="0 0 68 68" fill="none" xmlns="http://www.w3.org/2000/svg">
 <title>Portkey Icon</title>
 <desc>An icon representing the Portkey plugin</desc>
<path fill-rule="evenodd" clip-rule="evenodd" d="M24.5004 2.435C18.8792 2.435 13.7158 5.48676 10.9352 10.3901L2.08076 26.0036C-0.682154 30.8756 -0.694254 36.8659 2.04873 41.7492L10.9258 57.5532C13.6977 62.4882 18.8785 65.565 24.523 65.565H41.9664C47.5706 65.565 52.7212 62.5315 55.5081 57.6513L64.5329 41.8476C67.3502 36.9141 67.3379 30.8273 64.5002 25.9055L55.4981 10.2917L52.9864 11.7398L55.4981 10.2917C52.7028 5.44346 47.5699 2.435 41.9891 2.435H24.5004ZM17.0368 13.8503C18.5919 11.1081 21.4453 9.44944 24.5004 9.44944H41.9891C45.0224 9.44944 47.8584 11.0846 49.4213 13.7953L58.4234 29.4091C60.0159 32.1712 60.023 35.6 58.4417 38.3692L49.4169 54.1729C47.8585 56.9018 45.0124 58.5506 41.9664 58.5506H24.523C21.4553 58.5506 18.5919 56.8783 17.0415 54.118L8.16444 38.314C6.62469 35.5728 6.63161 32.1983 8.18236 29.4638L17.0368 13.8503ZM39.5946 19.2959C38.322 17.8356 36.1066 17.6834 34.6463 18.956C33.186 20.2285 33.0338 22.444 34.3063 23.9043L43.1041 34L34.3063 44.0957C33.0338 45.556 33.186 47.7715 34.6463 49.044C36.1066 50.3166 38.322 50.1644 39.5946 48.7041L49.3963 37.4563C51.1225 35.4754 51.1225 32.5246 49.3963 30.5437L39.5946 19.2959Z" fill="url(#paint0_linear_1035_155)"/>
<defs>
<linearGradient id="paint0_linear_1035_155" x1="-23.0034" y1="-2.89125" x2="73" y2="81.935" gradientUnits="userSpaceOnUse">
<stop offset="0.250068" stop-color="#39ACE6"/>
<stop offset="1" stop-color="#FF0000"/>
</linearGradient>
</defs>
</svg>
