<svg width="100%" height="100%" viewBox="0 0 24 24" fill="none" xmlns="http://www.w3.org/2000/svg">
<g clip-path="url(#clip0_817_123562)">
<path d="M23.0538 17.5748C21.7739 18.2418 15.1403 20.9689 13.729 21.7054C12.3178 22.4419 11.5324 22.4342 10.4161 21.9011C9.29972 21.3681 2.24241 18.516 0.970268 17.9096C0.340634 17.6044 0.00585938 17.3482 0.00585938 17.1061V14.6816C0.00585938 14.6816 9.19543 12.6807 10.68 12.1463C12.1646 11.6119 12.6771 11.5939 13.9402 12.0562C15.2033 12.5184 22.7512 13.8833 24.0002 14.3352C24.0002 14.3352 24.0002 16.5022 24.0002 16.7263C24.0002 16.9503 23.7131 17.2297 23.0602 17.5684L23.0538 17.5748Z" fill="#A41E11"/>
<path d="M23.0536 15.1477C21.7738 15.816 15.1401 18.5431 13.7289 19.2796C12.3177 20.0161 11.5322 20.0084 10.4159 19.4753C9.29954 18.9422 2.24223 16.0902 0.970088 15.4838C-0.302056 14.8773 -0.327807 14.4537 0.92116 13.9683C2.17013 13.4828 9.19525 10.73 10.6798 10.1917C12.1644 9.65353 12.6769 9.64065 13.94 10.1029C15.2032 10.5651 21.7944 13.1931 23.0433 13.6464C24.2923 14.0996 24.3399 14.4807 23.0588 15.1477H23.0536Z" fill="#D82C20"/>
<path d="M23.0538 13.6193C21.7739 14.2863 15.1403 17.0134 13.729 17.7499C12.3178 18.4864 11.5376 18.4787 10.4212 17.9405C9.30487 17.4023 2.24756 14.5618 0.975418 13.949C0.340634 13.6502 0.00585938 13.394 0.00585938 13.1519V10.73C0.00585938 10.73 9.19543 8.72518 10.68 8.1934C12.1646 7.66162 12.6771 7.64231 13.9402 8.10456C15.2033 8.5668 22.7512 9.92908 24.0002 10.3862C24.0002 10.3862 24.0002 12.5519 24.0002 12.7772C24.0002 13.0026 23.7118 13.2794 23.0538 13.6193Z" fill="#A41E11"/>
<path d="M23.0539 11.1935C21.774 11.8605 15.1403 14.5876 13.7291 15.3241C12.3179 16.0606 11.5325 16.0529 10.4161 15.5198C9.29976 14.9867 2.2476 12.1347 0.975459 11.5283C-0.296684 10.9218 -0.322436 10.4982 0.926531 10.0128C2.1755 9.52733 9.19547 6.7693 10.6801 6.23752C12.1647 5.70575 12.6771 5.68515 13.9403 6.14739C15.2034 6.60964 21.7946 9.23762 23.0436 9.69214C24.2925 10.1467 24.3414 10.5252 23.0539 11.1935Z" fill="#D82C20"/>
<path d="M23.0538 9.51701C21.7791 10.1853 15.1454 12.9188 13.7342 13.6489C12.323 14.379 11.5376 14.3777 10.4212 13.8446C9.30487 13.3116 2.24756 10.4595 0.975418 9.85179C0.340634 9.54792 0.00585938 9.29169 0.00585938 9.05606V6.62508C0.00585938 6.62508 9.19543 4.62415 10.68 4.09238C12.1646 3.5606 12.6771 3.54 13.9402 4.00353C15.2033 4.46707 22.7512 5.82677 24.0002 6.28386C24.0002 6.28386 24.0002 8.45089 24.0002 8.67493C24.0002 8.89897 23.7118 9.18481 23.0538 9.51701Z" fill="#A41E11"/>
<path d="M23.0536 7.09119C21.7738 7.75945 15.1401 10.4866 13.7289 11.2231C12.3177 11.9596 11.5322 11.9519 10.4159 11.4188C9.29954 10.8857 2.24223 8.03371 0.970088 7.42725C-0.302056 6.8208 -0.327807 6.39718 0.92116 5.91175C2.17013 5.42633 9.19525 2.6683 10.6798 2.13524C12.1644 1.60217 12.6769 1.58801 13.94 2.04639C15.2032 2.50478 21.7944 5.13662 23.0433 5.58985C24.2923 6.04309 24.3412 6.42422 23.0536 7.09119Z" fill="#D82C20"/>
<path d="M15.1465 4.7555L13.0671 4.97182L12.6022 6.09203L11.8503 4.84177L9.4502 4.62546L11.2412 3.98037L10.7043 2.98892L12.3808 3.64431L13.9619 3.12669L13.5344 4.15162L15.1465 4.7555Z" fill="white"/>
<path d="M12.4785 10.1892L8.59766 8.57966L14.1575 7.72598L12.4785 10.1892Z" fill="white"/>
<path d="M7.09921 7.68221C8.74047 7.68221 10.071 7.16626 10.071 6.52981C10.071 5.89336 8.74047 5.37741 7.09921 5.37741C5.45795 5.37741 4.12744 5.89336 4.12744 6.52981C4.12744 7.16626 5.45795 7.68221 7.09921 7.68221Z" fill="white"/>
<path d="M17.603 5.06195L20.8941 6.36242L17.6069 7.66161L17.603 5.06195Z" fill="#7A0C00"/>
<path d="M13.9634 6.50148L17.6034 5.06195L17.6073 7.66161L17.2493 7.80067L13.9634 6.50148Z" fill="#AD2115"/>
</g>
<defs>
<clipPath id="clip0_817_123562">
<rect width="24" height="24" fill="white"/>
</clipPath>
</defs>
</svg>
