<svg width="492" height="493" viewBox="0 0 492 493" fill="none" xmlns="http://www.w3.org/2000/svg">
<path d="M246 492.1C381.752 492.1 491.8 382.052 491.8 246.3C491.8 110.548 381.752 0.5 246 0.5C110.248 0.5 0.199997 110.548 0.199997 246.3C0.199997 382.052 110.248 492.1 246 492.1Z" fill="#F2C50A"/>
<path d="M232.9 111.5C231.7 111.4 230.5 111.4 229.4 111.4C208.3 111.2 188.4 119.3 173.4 134.1C158.4 148.9 150 168.7 149.9 189.7L149.1 297.5H149V335.4C149 342.5 154.7 348.2 161.8 348.2H200L208.1 348.3L208.7 175.6C202.6 155 204.3 138.3 214 125.9C219 119.4 225.8 114.8 232.9 111.5Z" fill="#54E4FC"/>
<path d="M407.2 270.5C407.5 226.5 381.5 186.9 342.3 169.3C338.8 167.7 336.1 164.6 335.1 160.9C329.6 140.7 318.3 122.4 302.5 108.2C282.5 90.2 256.6 80.1 229.5 79.9C200.1 79.8 172.3 91 151.3 111.6C130.3 132.3 118.7 159.9 118.5 189.3L118 266.1H117.7V336.4C117.7 360.1 136.9 379.3 160.6 379.3H199.8L296.2 380C296.5 380 296.7 380 297 380C326.1 380 353.6 368.7 374.4 348.3C395.3 327.5 407 299.9 407.2 270.5ZM208.7 175.3L208 348L199.9 347.9H161.8C154.7 347.9 149 342.2 149 335.1V297.2H149.1L149.9 189.4C150 168.3 158.4 148.6 173.4 133.8C188.4 119 208.3 110.8 229.4 111.1C230.6 111.1 231.8 111.1 232.9 111.2C225.8 114.5 219 119.1 213.9 125.6C204.3 138 202.5 154.7 208.7 175.3ZM375.9 270.2C375.8 287.2 370.3 303.4 360.3 316.8C351.3 317 341 316.1 330.1 312.8C330.5 311.8 330.7 310.7 330.7 309.6C330.7 304.8 326.8 301 322.1 301C317.3 301 313.5 304.9 313.5 309.6C313.5 313.2 315.7 316.3 318.8 317.6C318.8 317.6 318.9 317.6 318.9 317.7C331.1 322.6 342.8 324.6 353.2 325.1C352.9 325.4 352.7 325.7 352.4 325.9C337.5 340.6 317.9 348.6 297 348.6C296.8 348.6 296.6 348.6 296.4 348.6L216.2 348L216.8 174L216.6 173.4C211.1 155.3 212.3 140.8 220.3 130.6C227.6 121.2 239.5 116.4 250.3 114C261.8 117.3 272.5 123.1 281.5 131.2C295.7 144 304.8 161.5 307.1 180.4L307.3 182.3C307.9 187.4 311.5 191.7 316.5 193.1L318.3 193.6C352.5 203.3 376.2 234.8 375.9 270.2Z" fill="black"/>
</svg>
