<?xml version="1.0" encoding="utf-8"?>
<!-- Generator: Adobe Illustrator 24.2.1, SVG Export Plug-In . SVG Version: 6.00 Build 0)  -->
<svg version="1.1" id="Layer_1" xmlns="http://www.w3.org/2000/svg" xmlns:xlink="http://www.w3.org/1999/xlink" x="0px" y="0px"
	 viewBox="0 0 500 500" style="enable-background:new 0 0 500 500;" xml:space="preserve">
<style type="text/css">
	.st0{fill:#FF6D5A;}
</style>
<path class="st0" d="M448.22,122.54c-23.84,0-43.89,16.42-49.55,38.52h-71.31c-27.98,0-50.75,22.76-50.75,50.75
	c0,13.98-11.37,25.37-25.37,25.37h-10.17c-5.66-22.1-25.69-38.52-49.55-38.52c-23.84,0-43.89,16.42-49.55,38.52h-40.74
	c-5.66-22.1-25.69-38.52-49.55-38.52c-28.23,0-51.21,22.96-51.21,51.21c0,28.23,22.96,51.21,51.21,51.21
	c23.84,0,43.89-16.42,49.55-38.52h40.79c5.66,22.1,25.69,38.52,49.55,38.52c23.69,0,43.6-16.18,49.43-38.06h10.27
	c13.98,0,25.37,11.37,25.37,25.37c0,27.98,22.76,50.75,50.75,50.75h16.61c5.66,22.1,25.69,38.52,49.55,38.52
	c28.23,0,51.21-22.96,51.21-51.21c0-28.23-22.96-51.21-51.21-51.21c-23.84,0-43.89,16.42-49.55,38.52h-16.61
	c-13.98,0-25.37-11.37-25.37-25.37c0-15.27-6.83-28.98-17.54-38.28c10.73-9.32,17.54-23.01,17.54-38.28
	c0-13.98,11.37-25.37,25.37-25.37h71.31c5.66,22.1,25.69,38.52,49.55,38.52c28.23,0,51.21-22.96,51.21-51.21
	C499.43,145.52,476.45,122.54,448.22,122.54z M51.71,275.68c-14.25,0-25.84-11.59-25.84-25.84c0-14.25,11.59-25.84,25.84-25.84
	s25.84,11.59,25.84,25.84C77.55,264.09,65.96,275.68,51.71,275.68z M191.56,275.68c-14.25,0-25.84-11.59-25.84-25.84
	c0-14.25,11.59-25.84,25.84-25.84s25.84,11.59,25.84,25.84C217.39,264.09,205.81,275.68,191.56,275.68z M393.52,300.59
	c14.25,0,25.84,11.59,25.84,25.84s-11.59,25.84-25.84,25.84c-14.25,0-25.84-11.59-25.84-25.84
	C367.71,312.18,379.3,300.59,393.52,300.59z M448.22,199.59c-14.25,0-25.84-11.59-25.84-25.84c0-14.25,11.59-25.84,25.84-25.84
	s25.84,11.59,25.84,25.84C474.06,188,462.47,199.59,448.22,199.59z"/>
</svg>