<svg width="100%" height="100%" viewBox="0 0 24 24" fill="none" xmlns="http://www.w3.org/2000/svg">
<path d="M21.5416 5.87329C20.3885 5.87329 19.4255 6.65893 19.1594 7.72334H15.7254C14.3822 7.72334 13.2798 8.81309 13.2798 10.1689C13.2798 10.8405 12.7349 11.3854 12.0633 11.3854H11.5691C11.303 10.321 10.3273 9.53537 9.18686 9.53537C8.03376 9.53537 7.07072 10.321 6.80462 11.3854H4.84053C4.57443 10.321 3.59872 9.53537 2.45828 9.53537C1.10242 9.53537 0 10.6378 0 11.9936C0 13.3495 1.10242 14.4519 2.45828 14.4519C3.61139 14.4519 4.57443 13.6663 4.84053 12.6019H6.80462C7.07072 13.6663 8.04643 14.4519 9.18686 14.4519C10.3273 14.4519 11.2903 13.679 11.5691 12.6146H12.0633C12.7349 12.6146 13.2798 13.1594 13.2798 13.831C13.2798 15.1742 14.3695 16.2766 15.7254 16.2766H16.5237C16.7898 17.341 17.7655 18.1267 18.9059 18.1267C20.2618 18.1267 21.3642 17.0242 21.3642 15.6684C21.3642 14.3125 20.2618 13.2101 18.9059 13.2101C17.7528 13.2101 16.7898 13.9957 16.5237 15.0602H15.7254C15.0538 15.0602 14.5089 14.5153 14.5089 13.8437C14.5089 13.1087 14.1795 12.4498 13.6599 12.0063C14.1795 11.5628 14.5089 10.9039 14.5089 10.1689C14.5089 9.49735 15.0538 8.95248 15.7254 8.95248H19.1594C19.4255 10.0169 20.4012 10.8025 21.5416 10.8025C22.8975 10.8025 23.9999 9.7001 23.9999 8.34424C24.0126 6.98839 22.8975 5.87329 21.5416 5.87329ZM2.45828 13.2481C1.77402 13.2481 1.21647 12.6906 1.21647 12.0063C1.21647 11.3221 1.77402 10.7645 2.45828 10.7645C3.14254 10.7645 3.70009 11.3221 3.70009 12.0063C3.71276 12.6906 3.15521 13.2481 2.45828 13.2481ZM9.18686 13.2481C8.5026 13.2481 7.94505 12.6906 7.94505 12.0063C7.94505 11.3221 8.5026 10.7645 9.18686 10.7645C9.87113 10.7645 10.4287 11.3221 10.4287 12.0063C10.4413 12.6906 9.8838 13.2481 9.18686 13.2481ZM18.9059 14.4393C19.5902 14.4393 20.1477 14.9968 20.1477 15.6811C20.1477 16.3653 19.5902 16.9229 18.9059 16.9229C18.2217 16.9229 17.6641 16.3653 17.6641 15.6811C17.6641 14.9968 18.2217 14.4393 18.9059 14.4393ZM21.5416 9.58605C20.8574 9.58605 20.2998 9.0285 20.2998 8.34424C20.2998 7.65998 20.8574 7.10243 21.5416 7.10243C22.2259 7.10243 22.7834 7.65998 22.7834 8.34424C22.7834 9.0285 22.2259 9.58605 21.5416 9.58605Z" fill="#ED6C5D"/>
</svg>
