<?xml version="1.0" encoding="utf-8"?>
<!-- Generator: Adobe Illustrator 24.2.1, SVG Export Plug-In . SVG Version: 6.00 Build 0)  -->
<svg version="1.1" id="Layer_1" xmlns="http://www.w3.org/2000/svg" xmlns:xlink="http://www.w3.org/1999/xlink" x="0px" y="0px"
	 viewBox="0 0 154 36" style="enable-background:new 0 0 154 36;" xml:space="preserve">
<style type="text/css">
	.st0{fill:#FF6D5A;}
	.st1{fill:#384D5B;}
</style>
<g>
	<path class="st0" d="M60.84,1.34c-3.21,0-5.9,2.21-6.67,5.18h-9.6c-3.76,0-6.83,3.06-6.83,6.83c0,1.88-1.53,3.41-3.41,3.41h-1.37
		c-0.76-2.97-3.46-5.18-6.67-5.18c-3.21,0-5.9,2.21-6.67,5.18h-5.48c-0.76-2.97-3.46-5.18-6.67-5.18c-3.8,0-6.89,3.09-6.89,6.89
		s3.09,6.89,6.89,6.89c3.21,0,5.9-2.21,6.67-5.18h5.48c0.76,2.97,3.46,5.18,6.67,5.18c3.19,0,5.87-2.18,6.65-5.12h1.38
		c1.88,0,3.41,1.53,3.41,3.41c0,3.76,3.06,6.83,6.83,6.83h2.24c0.76,2.97,3.46,5.18,6.67,5.18c3.8,0,6.89-3.09,6.89-6.89
		s-3.09-6.89-6.89-6.89c-3.21,0-5.9,2.21-6.67,5.18h-2.24c-1.88,0-3.41-1.53-3.41-3.41c0-2.06-0.92-3.9-2.36-5.15
		c1.44-1.25,2.36-3.1,2.36-5.15c0-1.88,1.53-3.41,3.41-3.41h9.6c0.76,2.97,3.46,5.18,6.67,5.18c3.8,0,6.89-3.09,6.89-6.89
		S64.64,1.34,60.84,1.34z M7.49,21.94c-1.92,0-3.48-1.56-3.48-3.48s1.56-3.48,3.48-3.48s3.48,1.56,3.48,3.48S9.4,21.94,7.49,21.94z
		 M26.3,21.94c-1.92,0-3.48-1.56-3.48-3.48s1.56-3.48,3.48-3.48c1.92,0,3.48,1.56,3.48,3.48S28.22,21.94,26.3,21.94z M53.48,25.3
		c1.92,0,3.48,1.56,3.48,3.48s-1.56,3.48-3.48,3.48c-1.92,0-3.48-1.56-3.48-3.48S51.57,25.3,53.48,25.3z M60.84,11.7
		c-1.92,0-3.48-1.56-3.48-3.48c0-1.92,1.56-3.48,3.48-3.48c1.92,0,3.48,1.56,3.48,3.48C64.32,10.14,62.76,11.7,60.84,11.7z"/>
	<g>
		<path class="st1" d="M72.49,16.81c0-0.41-0.22-0.61-0.61-0.61h-1.13v-2.29h2.57c1.19,0,1.77,0.52,1.77,1.55v0.52
			c0,0.44-0.06,0.8-0.06,0.8h0.06c0.55-1.22,2.21-3.2,5.25-3.2c3.32,0,4.81,1.8,4.81,5.36v6.05c0,0.41,0.22,0.61,0.61,0.61h1.13
			v2.29h-2.65c-1.24,0-1.77-0.52-1.77-1.77v-6.58c0-1.96-0.39-3.51-2.62-3.51c-2.15,0-3.87,1.41-4.42,3.43
			c-0.19,0.55-0.25,1.19-0.25,1.88v6.55h-2.68V16.81z"/>
		<path class="st1" d="M92.49,17.31v-0.06c0,0-2.4-1.27-2.4-3.98s2.15-5.22,6.08-5.22c3.73,0,6.11,2.24,6.11,5.28
			c0,2.87-2.35,4.64-2.35,4.64v0.06c1.77,1.02,2.9,2.38,2.9,4.48c0,3.04-2.76,5.72-6.74,5.72c-3.67,0-6.8-2.29-6.8-5.91
			C89.28,19.11,92.49,17.31,92.49,17.31z M96.08,25.71c2.04,0,3.95-1.35,3.95-3.29c0-1.71-1.46-2.46-3.29-3.2
			c-0.75-0.3-1.8-0.72-2.02-0.72c-0.69,0-2.65,1.6-2.65,3.67C92.07,24.36,93.95,25.71,96.08,25.71z M97.52,16.87
			c0.66,0,2.07-1.63,2.07-3.37c0-1.8-1.44-2.93-3.43-2.93c-2.13,0-3.37,1.22-3.37,2.76c0,1.71,1.46,2.38,3.2,3.07
			C96.38,16.57,97.18,16.87,97.52,16.87z"/>
		<path class="st1" d="M107.07,16.81c0-0.41-0.22-0.61-0.61-0.61h-1.13v-2.29h2.57c1.19,0,1.77,0.52,1.77,1.55v0.52
			c0,0.44-0.06,0.8-0.06,0.8h0.06c0.55-1.22,2.21-3.2,5.25-3.2c3.32,0,4.81,1.8,4.81,5.36v6.05c0,0.41,0.22,0.61,0.61,0.61h1.13
			v2.29h-2.65c-1.24,0-1.77-0.52-1.77-1.77v-6.58c0-1.96-0.39-3.51-2.62-3.51c-2.15,0-3.87,1.41-4.42,3.43
			c-0.19,0.55-0.25,1.19-0.25,1.88v6.55h-2.68V16.81z"/>
		<path class="st1" d="M124.64,25.05h2.74v2.85h-2.74V25.05z"/>
		<path class="st1" d="M131.08,16.81c0-0.41-0.22-0.61-0.61-0.61h-1.13v-2.29h2.62c1.24,0,1.77,0.52,1.77,1.77v9.31
			c0,0.41,0.22,0.61,0.61,0.61h1.13v2.29h-2.62c-1.24,0-1.77-0.52-1.77-1.77V16.81z"/>
		<path class="st1" d="M145.39,13.58c4.17,0,7.54,3.07,7.54,7.29c0,4.25-3.37,7.35-7.54,7.35s-7.51-3.09-7.51-7.35
			C137.87,16.65,141.22,13.58,145.39,13.58z M145.39,25.9c2.65,0,4.81-2.1,4.81-5.03c0-2.9-2.15-4.97-4.81-4.97
			c-2.62,0-4.78,2.07-4.78,4.97C140.61,23.8,142.76,25.9,145.39,25.9z"/>
	</g>
	<g>
		<g>
			<path class="st0" d="M132.3,13.08c-1.38,0-2.5-1.12-2.5-2.5s1.12-2.5,2.5-2.5s2.5,1.12,2.5,2.5S133.68,13.08,132.3,13.08z
				 M132.3,9.29c-0.71,0-1.29,0.58-1.29,1.29c0,0.71,0.58,1.29,1.29,1.29c0.71,0,1.29-0.58,1.29-1.29
				C133.59,9.87,133.01,9.29,132.3,9.29z"/>
		</g>
	</g>
</g>
</svg>
