<?xml version="1.0" encoding="utf-8"?>
<svg width="24" height="24" viewBox="0 0 24 24" fill="none" xmlns="http://www.w3.org/2000/svg">
  <path d="M8.48 13.92C9.01333 13.92 10.08 13.8933 11.5733 13.28C13.3067 12.56 16.72 11.28 19.2 9.94667C20.9333 9.01333 21.68 7.78667 21.68 6.13333C21.68 3.86667 19.84 2 17.5467 2H7.94667C4.66667 2 2 4.66667 2 7.94667C2 11.2267 4.50667 13.92 8.48 13.92Z" fill="#39594D"/>
  <path d="M10.1067 18C10.1067 16.4 11.0667 14.9333 12.56 14.32L15.5733 13.0667C18.64 11.8133 22 14.0533 22 17.36C22 19.92 19.92 22 17.36 22H14.08C11.8933 22 10.1067 20.2133 10.1067 18Z" fill="#D18EE2"/>
  <path d="M5.44 14.6933C3.54667 14.6933 2 16.24 2 18.1333V18.5867C2 20.4533 3.54667 22 5.44 22C7.33333 22 8.88 20.4533 8.88 18.56V18.1067C8.85333 16.24 7.33333 14.6933 5.44 14.6933Z" fill="#FF7759"/>
</svg>