<svg width="100%" height="100%" viewBox="0 0 24 24" fill="none" xmlns="http://www.w3.org/2000/svg">
<g clip-path="url(#clip0_817_123566)">
<path d="M22.5997 14.7561C19.7382 15.346 19.5409 14.3771 19.5409 14.3771C22.5626 9.89437 23.8244 4.20252 22.7345 2.80983C19.7616 -0.989298 14.6147 0.807719 14.5288 0.854598L14.4995 0.858505C13.935 0.741308 13.3021 0.67099 12.5911 0.65927C11.2961 0.637784 10.3136 0.999141 9.56938 1.56364C9.56938 1.56364 0.38702 -2.21986 0.814788 6.32183C0.906592 8.13837 3.41851 20.069 6.41679 16.4652C7.51258 15.1467 8.57126 14.0334 8.57126 14.0334C9.09669 14.383 9.7276 14.5608 10.3859 14.4963L10.4366 14.4533C10.421 14.6174 10.4288 14.7776 10.4562 14.967C9.68463 15.8304 9.91121 15.9808 8.36616 16.2992C6.80354 16.6215 7.72158 17.1938 8.32124 17.3442C9.04786 17.5258 10.7277 17.7837 11.8645 16.1937L11.8196 16.3754C12.1223 16.6176 12.3352 17.9516 12.3001 19.1607C12.2649 20.3698 12.2415 21.2 12.4798 21.8484C12.7181 22.4969 12.9564 23.956 14.9858 23.5204C16.6813 23.1571 17.5602 22.2157 17.6833 20.6452C17.7693 19.5279 17.9665 19.694 17.9783 18.6958L18.1365 18.2232C18.3181 16.7094 18.1658 16.221 19.2108 16.4476L19.4647 16.4691C20.2343 16.5043 21.2402 16.3461 21.8301 16.0706C23.0978 15.4827 23.8537 14.4963 22.5997 14.7561Z" fill="#336791"/>
<path d="M11.634 15.6136C11.6399 15.4182 11.802 15.2639 11.9973 15.2698C12.1927 15.2756 12.347 15.4378 12.3411 15.6331C12.3001 17.0844 12.3079 18.5396 12.3606 19.7037C12.4095 20.7526 12.4935 21.5418 12.6107 21.8348C12.7357 22.1453 12.929 22.6043 13.3002 22.9149C13.6615 23.2196 14.2182 23.4052 15.105 23.2157C15.8804 23.0497 16.402 22.8133 16.7497 22.452C17.0934 22.0945 17.2888 21.5886 17.4099 20.8816C17.4997 20.3659 17.6228 19.4654 17.7341 18.5689C17.8747 17.4477 18.0037 16.3148 18.031 15.9495C18.0447 15.7542 18.2146 15.6077 18.4099 15.6233C18.6053 15.637 18.7518 15.8069 18.7361 16.0023C18.7088 16.3578 18.5799 17.5043 18.4334 18.6587C18.3162 19.5846 18.1912 20.5026 18.1052 21.0007C17.9587 21.8465 17.7107 22.4696 17.2556 22.9423C16.8024 23.413 16.1676 23.7099 15.2476 23.9072C14.1049 24.1513 13.351 23.8837 12.8411 23.454C12.3392 23.0321 12.1009 22.4735 11.9504 22.0965C11.802 21.7273 11.7024 20.8562 11.6496 19.733C11.5989 18.5591 11.593 17.0844 11.634 15.6136Z" fill="white"/>
<path d="M9.68476 1.17298C9.86641 1.24525 9.95431 1.45035 9.88204 1.632C9.80977 1.81366 9.60467 1.90156 9.42302 1.82928C9.39958 1.81952 0.746552 -1.71592 1.14697 6.26909C1.19581 7.25549 1.97712 11.291 3.16471 14.1056C3.53974 14.9924 3.95188 15.7503 4.38942 16.2347C4.75468 16.641 5.12776 16.8363 5.48716 16.7074C5.68639 16.6351 5.8993 16.473 6.12393 16.2035C7.22362 14.8811 8.2237 13.8361 8.22761 13.8341C8.36239 13.6935 8.58506 13.6876 8.7257 13.8224C8.86633 13.9572 8.87219 14.1799 8.73742 14.3205C8.73546 14.3225 7.75882 15.3401 6.66694 16.6547C6.35637 17.0297 6.03994 17.2621 5.72155 17.3754C5.04572 17.6157 4.42458 17.3344 3.86203 16.7094C3.36981 16.1644 2.91664 15.3382 2.51427 14.3791C1.29347 11.4902 0.490672 7.32581 0.439887 6.30229C-0.0152269 -2.79217 9.65741 1.16126 9.68476 1.17298Z" fill="white"/>
<path d="M14.7027 1.11828L14.1772 0.54402C14.2202 0.528394 14.2632 0.514721 14.3062 0.503001C14.4214 0.465889 14.5464 0.428776 14.6812 0.389711C14.8785 0.331112 15.1676 0.254935 15.5211 0.18657C17.2849 -0.155254 20.7266 -0.340815 22.9943 2.55785C23.635 3.37627 23.5823 5.40182 22.9201 7.80045C22.3341 9.92367 21.2774 12.3711 19.8164 14.5393C19.707 14.7014 19.4863 14.7444 19.3241 14.635C19.162 14.5256 19.119 14.3049 19.2284 14.1427C20.6465 12.0391 21.67 9.66583 22.2384 7.61098C22.8439 5.4194 22.9397 3.63215 22.4377 2.99148C20.4023 0.391664 17.2634 0.567459 15.652 0.881937C15.3219 0.946395 15.0582 1.01476 14.8785 1.0675L14.7027 1.11828Z" fill="white"/>
<path d="M19.8572 14.2326C19.8611 14.2424 19.8631 14.2521 19.865 14.2619C19.865 14.2639 19.9861 14.8948 22.5078 14.3752C22.8653 14.301 23.1192 14.3166 23.2833 14.3967C23.4962 14.4982 23.588 14.6682 23.5743 14.8869C23.5665 15.0198 23.504 15.1624 23.4004 15.305C23.1621 15.6311 22.6172 16.0531 21.955 16.3597C21.4589 16.5902 20.703 16.7445 20.0096 16.7836C19.6013 16.807 19.2107 16.7914 18.9001 16.7289C18.5094 16.6508 18.2125 16.4886 18.0895 16.2249C18.0563 16.1546 18.0367 16.0785 18.0328 15.9964C17.9547 14.6252 18.6227 14.385 19.0896 14.2521C19.0407 14.1818 18.9743 14.0978 18.9001 14.006C18.6637 13.7111 18.361 13.3321 18.1207 12.752C18.0836 12.6641 17.9762 12.4688 17.8317 12.211C17.2203 11.1152 16.0171 8.95484 16.2534 7.48011C16.4214 6.4273 17.2242 5.72802 19.2302 5.93702L19.2107 5.87843C19.115 5.60692 18.9626 5.25142 18.7419 4.85295C17.8668 3.25908 15.9585 1.03625 12.5695 0.981556C7.39919 0.897565 7.56912 7.41761 7.56912 7.43519C7.57303 7.63052 7.41677 7.79069 7.22144 7.79459C7.02611 7.7985 6.86594 7.64224 6.86204 7.44691C6.86204 7.42542 6.67062 0.178758 12.5793 0.274469C16.31 0.33502 18.404 2.76881 19.3611 4.51113C19.5994 4.94476 19.7693 5.33932 19.8767 5.64599C19.9978 5.98976 20.0428 6.25932 20.0232 6.37847C19.9959 6.55426 19.8982 6.66364 19.7302 6.69685L19.6033 6.6988C17.7633 6.40386 17.0679 6.85507 16.9507 7.5895C16.7534 8.82592 17.8785 10.8417 18.4489 11.8672C18.6032 12.1445 18.7204 12.3555 18.7731 12.4844C18.9763 12.9747 19.2419 13.3067 19.449 13.5685C19.6423 13.8048 19.7947 13.9963 19.8572 14.2326ZM22.6504 15.0667C20.7811 15.4534 19.9099 15.1702 19.5095 14.8655C19.4548 14.883 19.3962 14.8987 19.3337 14.9162C19.0837 14.9866 18.695 15.0959 18.736 15.9359C18.7653 15.9671 18.8747 16.0003 19.0349 16.0335C19.2908 16.0843 19.6189 16.096 19.9685 16.0765C20.5799 16.0413 21.2382 15.9105 21.6581 15.7151C22.0898 15.514 22.4512 15.2717 22.6738 15.0608L22.6504 15.0667Z" fill="white"/>
<path d="M10.6984 15.1702C10.5539 15.3323 10.4347 15.4827 10.3331 15.6116C9.8995 16.1624 9.76473 16.3343 8.41892 16.6117C8.17671 16.6625 8.01264 16.7113 7.91107 16.7601C8.03608 16.85 8.22359 16.9242 8.38767 16.9652C8.71972 17.0492 9.27055 17.1488 9.86044 17.0492C10.4347 16.9516 11.0539 16.6566 11.5559 15.9534C11.5715 15.93 11.5852 15.9046 11.5969 15.8792C11.6477 15.7561 11.636 15.6018 11.5852 15.4553C11.5305 15.2991 11.4309 15.1623 11.3156 15.0784C11.2883 15.0588 11.2609 15.0432 11.2316 15.0315L11.2141 15.0237C11.1418 14.9944 11.0617 14.9631 10.9933 14.969C10.9191 14.9768 10.8254 15.0276 10.6984 15.1702ZM9.77645 15.1721C9.87216 15.051 9.98349 14.9104 10.1515 14.7209C10.1651 14.7033 10.1808 14.6857 10.1964 14.6701C10.4562 14.3889 10.7043 14.2834 10.9328 14.2638C11.1594 14.2443 11.3352 14.3088 11.4836 14.3713C11.4895 14.3732 11.4953 14.3752 11.5031 14.3791C11.5793 14.4103 11.6535 14.4533 11.7258 14.5041C11.9583 14.6701 12.1497 14.9338 12.2532 15.2209C12.3587 15.5198 12.3763 15.8538 12.2513 16.1507C12.22 16.2249 12.1809 16.2953 12.1321 16.3636C11.4992 17.2504 10.7101 17.6215 9.97959 17.7465C9.26273 17.8696 8.61034 17.7504 8.21578 17.6528C7.92864 17.5805 7.57315 17.4203 7.36415 17.225C7.24109 17.1098 7.1571 16.973 7.13366 16.8207C7.10631 16.639 7.16101 16.4632 7.32703 16.307C7.4872 16.1566 7.7841 16.0198 8.27437 15.9183C9.36626 15.6936 9.46392 15.5706 9.77645 15.1721Z" fill="white"/>
<path d="M10.7353 14.8635C10.7646 15.0569 10.6318 15.2385 10.4384 15.2659C10.245 15.2932 10.0634 15.1624 10.036 14.969C10.0282 14.9221 10.0243 14.8752 10.0204 14.8264C9.90318 14.8225 9.78794 14.8147 9.67465 14.7971C8.91678 14.6916 8.23118 14.3088 7.71551 13.7423C7.20571 13.1837 6.86193 12.4453 6.78184 11.6211C6.75255 11.3281 6.75841 11.0234 6.80138 10.7167C6.97522 9.47831 6.90881 8.3708 6.8756 7.79654C6.86584 7.64027 6.85998 7.52308 6.85998 7.43323C6.86193 7.20079 7.44596 6.68903 8.21555 6.3726C8.56324 6.23001 8.95194 6.11086 9.33673 6.05226C9.74302 5.99171 10.1532 5.99757 10.5224 6.11281C11.1005 6.29446 11.5596 6.72223 11.7354 7.54066C12.3702 10.4725 11.8018 11.7324 11.3584 12.7188C11.2822 12.8887 11.2099 13.0489 11.1552 13.1934C11.1533 13.2032 11.1494 13.211 11.1455 13.2208C10.9599 13.7208 11.2314 12.9884 11.0908 13.3614C10.8701 13.963 10.6767 14.4787 10.7353 14.8635ZM10.0966 14.1213C10.1727 13.8068 10.2977 13.4747 10.4306 13.1173C10.536 12.836 10.2606 13.5724 10.4814 12.9766C10.4853 12.9669 10.4892 12.9571 10.4931 12.9473C10.5614 12.7657 10.6357 12.6036 10.7118 12.4317C11.1142 11.539 11.626 10.3983 11.0419 7.69497C10.9287 7.16953 10.6532 6.89998 10.3095 6.79255C10.0516 6.71247 9.74888 6.71051 9.4383 6.75739C9.10625 6.80818 8.77419 6.90975 8.47729 7.03085C7.95577 7.24376 7.5612 7.42346 7.5612 7.43909C7.5612 7.48987 7.56706 7.60511 7.57683 7.75942C7.61199 8.35517 7.68035 9.50956 7.4987 10.8183C7.46354 11.0741 7.45768 11.3222 7.48112 11.5605C7.54558 12.2246 7.82294 12.8204 8.23508 13.2716C8.64137 13.7169 9.17852 14.0197 9.76841 14.1017C9.87779 14.1134 9.98718 14.1213 10.0966 14.1213Z" fill="white"/>
<path d="M9.52078 7.38635C9.50515 7.5016 9.73368 7.81217 10.0306 7.85319C10.3275 7.89421 10.5834 7.652 10.599 7.53676C10.6146 7.42151 10.3861 7.2926 10.0892 7.25158C9.79228 7.21056 9.5364 7.27111 9.52078 7.38635Z" fill="white"/>
<path d="M9.63761 7.40198C9.63371 7.42737 9.67473 7.49378 9.74309 7.56605C9.81927 7.64614 9.9267 7.71841 10.0458 7.73599H10.0478C10.165 7.75162 10.2744 7.71255 10.3564 7.6559C10.4326 7.60512 10.4795 7.55043 10.4853 7.51918C10.4853 7.51332 10.456 7.49574 10.4072 7.46839C10.3271 7.42346 10.2099 7.38635 10.0751 7.36682H10.0712C9.93842 7.34924 9.81536 7.35315 9.72746 7.37463C9.67277 7.38831 9.63761 7.39807 9.63761 7.40198ZM9.57315 7.72818C9.45791 7.60707 9.39345 7.46253 9.40517 7.37268V7.36877C9.4208 7.25744 9.52042 7.18126 9.67277 7.14415C9.78802 7.1168 9.94037 7.11094 10.1025 7.13243C10.1044 7.13243 10.1064 7.13243 10.1084 7.13243C10.2724 7.15587 10.4189 7.20274 10.5224 7.26134C10.6592 7.33752 10.7354 7.44104 10.7197 7.55043C10.708 7.63637 10.6201 7.76138 10.4892 7.84928C10.3662 7.93327 10.1982 7.99382 10.0165 7.96843H10.0146C9.83489 7.94499 9.68059 7.84147 9.57315 7.72818Z" fill="white"/>
<path d="M18.5917 7.15C18.6073 7.26524 18.3788 7.57581 18.0819 7.61683C17.783 7.65785 17.5291 7.41564 17.5135 7.3004C17.4978 7.18516 17.7264 7.05624 18.0252 7.01522C18.3202 6.9742 18.5741 7.03475 18.5917 7.15Z" fill="white"/>
<path d="M18.6484 7.14219C18.6582 7.21642 18.5996 7.34338 18.4961 7.45276C18.3965 7.55824 18.2519 7.65395 18.0878 7.67544H18.0859C17.9218 7.69692 17.7695 7.64223 17.6562 7.56605C17.539 7.48792 17.4628 7.38049 17.4511 7.30822C17.4394 7.22423 17.5038 7.14219 17.6191 7.07774C17.7167 7.02304 17.8554 6.97812 18.0117 6.95663C18.1679 6.93515 18.3144 6.941 18.4238 6.9664C18.5527 6.9957 18.6367 7.05625 18.6484 7.14219ZM18.4101 7.37073C18.4902 7.28674 18.5371 7.20079 18.5312 7.15782C18.5273 7.12657 18.4765 7.09922 18.3984 7.07969C18.3027 7.05625 18.1718 7.05234 18.0292 7.07187C17.8886 7.09141 17.7636 7.13243 17.6777 7.1793C17.6073 7.21837 17.5663 7.25939 17.5702 7.29064C17.5761 7.33361 17.6347 7.40589 17.7245 7.46644C17.8163 7.52894 17.9413 7.57387 18.0742 7.55629H18.0761C18.207 7.53871 18.3261 7.45862 18.4101 7.37073Z" fill="white"/>
<path d="M19.3028 6.3648C19.293 6.16947 19.4434 6.00344 19.6387 5.99368C19.8341 5.98391 20.0001 6.13431 20.0098 6.32964C20.0391 6.87656 19.9727 7.31018 19.9024 7.7653C19.8497 8.10517 19.795 8.46067 19.7833 8.85718C19.7715 9.23416 19.8204 9.65217 19.8731 10.0819C20.0098 11.2128 20.1544 12.4239 19.3145 13.6759C19.2051 13.838 18.9863 13.881 18.8242 13.7736C18.6621 13.6642 18.6191 13.4454 18.7265 13.2833C19.418 12.25 19.2891 11.1738 19.168 10.1659C19.1133 9.71662 19.0606 9.27909 19.0762 8.83765C19.0899 8.38058 19.1465 8.01532 19.2012 7.66177C19.2676 7.23596 19.3282 6.83358 19.3028 6.3648Z" fill="white"/>
</g>
<defs>
<clipPath id="clip0_817_123566">
<rect width="24" height="24" fill="white"/>
</clipPath>
</defs>
</svg>
