<svg viewBox="0 0 127 72" fill="none" xmlns="http://www.w3.org/2000/svg"><path d="M90.0084 36.377c1.465 11.6839 2.8248 22.6568 4.2362 33.6232.1697 1.3125-.101 1.7766-1.5467 1.8496-8.713.4296-8.7066.4748-11.8558-7.5874-1.3104-3.3554-2.5885-6.7238-3.9848-10.0449a2.7707 2.7707 0 0 1 .5456-3.407c4.1266-4.5842 8.1244-9.2822 12.6055-14.4335ZM38.8048 46.1709c1.2459 6.4338 2.479 12.4788 3.5617 18.5517.3351 1.8796 1.8453 4.2684.5521 5.538-1.1106 1.0912-3.5767-.4533-5.4714-.3824-5.0332.1912-7.3769-2.174-8.1953-7.1406-.4791-2.9151-.6939-4.9408 1.7185-7.1964a98.3364 98.3364 0 0 0 7.8344-9.3703Z" fill="#00B06D"/><path d="M53.0158 57.9055c0-3.611-.0559-7.2243.0279-10.8353.0322-1.4178-.363-1.8969-1.8689-1.9463a2216.8366 2216.8366 0 0 1-30.8349-1.2374c-1.6133-.0752-2.2513.3824-2.5929 1.9785-1.5853 7.3897-3.3855 14.7344-4.9408 22.1262-.4296 2.0773-1.2266 2.8485-3.4005 2.6079a45.2763 45.2763 0 0 0-7.2566-.1611c-1.8238.0924-2.1697-.6659-2.1482-2.2577.1568-11.0954.3889-22.1907.2815-33.2839a15.0652 15.0652 0 0 1 3.233-9.4133c5.6819-7.901 11.1705-15.946 16.6741-23.9715A2.8807 2.8807 0 0 1 23.3366.066a9224.7467 9224.7467 0 0 0 61.6527 6.3887 7.8583 7.8583 0 0 1 3.5724 1.3662C100.793 15.769 113.006 23.7474 125.295 31.599c1.835 1.1729 1.891 1.8409.121 2.8978-.382.2051-.724.478-1.008.8056-3.542 4.5756-7.686 4.3673-12.702 2.348-6.064-2.4425-12.4593-4.0644-18.689-6.1416a3.899 3.899 0 0 0-3.6519.3802A1315.7985 1315.7985 0 0 1 72.126 42.415a3.6235 3.6235 0 0 0-1.8904 2.8077c-1.2675 7.626-2.7153 15.2241-3.8796 22.8652-.3352 2.1911-1.1149 2.885-3.2932 2.7325a72.2642 72.2642 0 0 0-8.3048-.0129c-1.6412.073-2.0602-.507-2.015-2.0665.1074-3.6111.0344-7.2265.0344-10.8398l.2384.0043Z" fill="#00B06D"/></svg>
