<svg width="13" height="14" viewBox="0 0 13 14" fill="none" xmlns="http://www.w3.org/2000/svg">
  <path
    d="M1.41257 12.0293H2.02923L9.3459 4.69595L8.71257 4.07928L1.41257 11.396V12.0293ZM11.6126 3.99595L9.42923 1.81262L10.0959 1.14595C10.307 0.934838 10.5653 0.83206 10.8709 0.837616C11.1765 0.843172 11.4403 0.951505 11.6626 1.16262L12.2959 1.77928C12.5181 2.00151 12.6209 2.26262 12.6042 2.56262C12.5876 2.86262 12.4737 3.11817 12.2626 3.32928L11.6126 3.99595ZM0.962565 13.1293C0.773676 13.1293 0.615343 13.0654 0.487565 12.9376C0.359787 12.8098 0.295898 12.6515 0.295898 12.4626V11.2293C0.295898 11.1404 0.312565 11.0571 0.345898 10.9793C0.379232 10.9015 0.429232 10.8293 0.495898 10.7626L8.72923 2.51262L10.9126 4.67928L2.67923 12.9293C2.61257 12.9959 2.53757 13.046 2.45423 13.0793C2.3709 13.1126 2.28479 13.1293 2.1959 13.1293H0.962565ZM9.0459 4.37928L8.71257 4.07928L9.3459 4.69595L9.0459 4.37928Z"
    fill="#9BA3AF"
  />
</svg>