<svg width="100%" height="100%" viewBox="0 0 24 24" fill="none" xmlns="http://www.w3.org/2000/svg">
<path d="M5.43 21.8233L0.20925 12.7806C-0.06975 12.2976 -0.06975 11.7021 0.20925 11.2191L5.43 2.17669C5.70862 1.69406 6.22312 1.39669 6.78 1.39594H17.2264C17.7814 1.39856 18.2932 1.69594 18.5707 2.17669L23.7908 11.2191C24.0697 11.7021 24.0697 12.2976 23.7908 12.7806L18.57 21.8233C18.2914 22.3059 17.7769 22.6033 17.22 22.6041H6.77625C6.22012 22.6022 5.7075 22.3048 5.42887 21.8233H5.43Z" fill="#4386FA"/>
<path opacity="0.1" d="M15.2612 9.08795C15.2612 9.08795 16.7125 12.5691 14.734 14.5423C12.7555 16.5156 9.15283 15.2526 9.15283 15.2526L16.4811 22.6011H17.2251C17.7823 22.6003 18.2968 22.3026 18.5751 21.8203L22.0311 15.8361L15.2612 9.08795Z" fill="black"/>
<path d="M16.9753 16.2111L15.3752 14.6072C15.3578 14.5893 15.3378 14.5742 15.316 14.5622C15.9966 13.6855 16.3174 12.5823 16.2129 11.4773C16.1085 10.3723 15.5867 9.34877 14.7538 8.61512C13.921 7.88147 12.8398 7.49296 11.7305 7.52873C10.6212 7.56449 9.56721 8.02186 8.78336 8.80763C7.99951 9.59341 7.54474 10.6485 7.5117 11.7579C7.47866 12.8673 7.86983 13.9475 8.60552 14.7786C9.34122 15.6096 10.3661 16.1289 11.4713 16.2306C12.5765 16.3323 13.6789 16.0089 14.554 15.3261C14.5654 15.3467 14.5796 15.3657 14.5963 15.3823L16.2002 16.9862C16.2473 17.0333 16.3112 17.0597 16.3778 17.0597C16.4444 17.0597 16.5082 17.0333 16.5553 16.9862L16.9753 16.5662C17.0224 16.5191 17.0488 16.4552 17.0488 16.3886C17.0488 16.322 17.0224 16.2582 16.9753 16.2111ZM11.8652 15.1738C11.2162 15.1739 10.5818 14.9815 10.0421 14.621C9.50245 14.2605 9.08182 13.748 8.83343 13.1484C8.58503 12.5488 8.52002 11.8891 8.64662 11.2525C8.77321 10.616 9.08573 10.0313 9.54464 9.57238C10.0036 9.11346 10.5883 8.80095 11.2248 8.67435C11.8613 8.54775 12.5211 8.61277 13.1207 8.86116C13.7203 9.10956 14.2327 9.53018 14.5933 10.0698C14.9538 10.6095 15.1462 11.2439 15.1461 11.8929C15.146 12.7631 14.8003 13.5975 14.185 14.2128C13.5698 14.828 12.7353 15.1737 11.8652 15.1738ZM9.76784 11.7178V13.0738C9.97671 13.4424 10.279 13.7499 10.6446 13.9644V11.7096L9.76784 11.7178ZM11.4085 10.5936V14.2581C11.6983 14.3115 11.9954 14.3115 12.2852 14.2581V10.5936H11.4085ZM13.945 13.0708V12.2676H13.069V13.9551C13.4341 13.7411 13.7364 13.4349 13.9457 13.0671L13.945 13.0708Z" fill="white"/>
</svg>
