<svg width="24" height="24" viewBox="0 0 24 24" fill="none" xmlns="http://www.w3.org/2000/svg">
<g clip-path="url(#clip0_724_105)">
<path d="M11.9416 2.117C6.45123 2.117 2 6.56771 2 12.0582C2 17.5486 6.45123 21.9996 11.9416 21.9996C17.4319 21.9996 21.883 17.5486 21.883 12.0582C21.883 6.56771 17.4318 2.117 11.9416 2.117ZM11.9416 20.7231C10.3795 20.7231 9.11298 19.6796 9.11298 18.3928H14.7702C14.7702 19.6795 13.5037 20.7231 11.9416 20.7231ZM16.6135 17.621H7.26912V15.9267H16.6137L16.6135 17.621ZM16.58 15.0545H7.29579C7.26491 15.0189 7.23333 14.9838 7.20351 14.9477C6.24702 13.7863 6.02175 13.18 5.80298 12.5621C5.7993 12.5417 6.96281 12.7998 7.78789 12.9854C7.78789 12.9854 8.21246 13.0837 8.83316 13.1968C8.23719 12.4982 7.88333 11.6102 7.88333 10.7024C7.88333 8.70964 9.41175 6.96823 8.86035 5.56069C9.39702 5.60437 9.97105 6.69332 10.0098 8.39595C10.5804 7.60753 10.8191 6.16771 10.8191 5.2849C10.8191 4.37086 11.4214 3.30911 12.0239 3.27279C11.4868 4.15788 12.163 4.91665 12.764 6.79893C12.9895 7.50595 12.9607 8.69578 13.1347 9.45034C13.1925 7.88314 13.4619 5.59648 14.4561 4.807C14.0175 5.80121 14.5211 7.04525 14.8654 7.64332C15.4211 8.60823 15.7579 9.33929 15.7579 10.7219C15.7579 11.6489 15.4156 12.5217 14.8382 13.204C15.4947 13.0809 15.9481 12.9698 15.9481 12.9698L18.08 12.5538C18.08 12.5538 17.7704 13.8277 16.58 15.0545Z" fill="#E6522C"/>
</g>
<defs>
<clipPath id="clip0_724_105">
<rect width="20" height="20" fill="white" transform="translate(2 2)"/>
</clipPath>
</defs>
</svg>
