<svg width="25" height="25" viewBox="0 0 25 25" fill="none" xmlns="http://www.w3.org/2000/svg">
<path d="M8.25 0.75C6.26088 0.75 4.35322 1.54018 2.9467 2.9467C1.54018 4.35322 0.75 6.26088 0.75 8.25V17C0.75 18.9891 1.54018 20.8968 2.9467 22.3033C4.35322 23.7098 6.26088 24.5 8.25 24.5H17C18.9891 24.5 20.8968 23.7098 22.3033 22.3033C23.7098 20.8968 24.5 18.9891 24.5 17V10.75C24.5 10.4185 24.3683 10.1005 24.1339 9.86612C23.8995 9.6317 23.5815 9.5 23.25 9.5H22C21.6685 9.5 21.3505 9.3683 21.1161 9.13388C20.8817 8.89946 20.75 8.58152 20.75 8.25C20.75 6.26088 19.9598 4.35322 18.5533 2.9467C17.1468 1.54018 15.2391 0.75 13.25 0.75H8.25ZM8.25 7H13.25C13.9375 7 14.5 7.5625 14.5 8.25C14.5 8.9375 13.9375 9.5 13.25 9.5H8.25C7.5625 9.5 7 8.9375 7 8.25C7 7.5625 7.5625 7 8.25 7ZM8.25 15.75H17C17.6875 15.75 18.25 16.3125 18.25 17C18.25 17.6875 17.6875 18.25 17 18.25H8.25C7.5625 18.25 7 17.6875 7 17C7 16.3125 7.5625 15.75 8.25 15.75Z" fill="#4D72FA"/>
</svg>
