<svg xmlns="http://www.w3.org/2000/svg" width="28" height="25" viewBox="0 0 28 25" fill="none">
<path d="M13.6044 24.5421C13.1788 24.5421 12.8196 24.3957 12.5268 24.1029C12.2341 23.8102 12.0877 23.451 12.0877 23.0254C12.0877 22.5998 12.2341 22.2406 12.5268 21.9478C12.8196 21.6551 13.1788 21.5087 13.6044 21.5087L22.8819 21.5167V12.0341C22.8819 9.48189 21.9777 7.32549 20.1692 5.56487C18.3608 3.80424 16.1725 2.92393 13.6044 2.92393C11.0363 2.92393 8.84797 3.80424 7.0395 5.56487C5.23105 7.32549 4.32683 9.48189 4.32683 12.0341L4.3667 18.9218C4.37201 19.3474 4.22696 19.7079 3.93153 20.0033C3.63613 20.2987 3.27563 20.4464 2.85003 20.4464H2.81017C2.03432 20.4464 1.372 20.1733 0.8232 19.6272C0.2744 19.0811 0 18.4201 0 17.6442V14.842C0 14.3701 0.114011 13.9272 0.342033 13.5134C0.570055 13.0997 0.889867 12.7626 1.30147 12.5022L1.36957 11.0863C1.50483 9.51138 1.9238 8.05026 2.62647 6.70293C3.32911 5.35558 4.22681 4.18287 5.31957 3.1848C6.41232 2.18673 7.67127 1.40642 9.0964 0.843866C10.5215 0.281288 12.0242 0 13.6044 0C15.1846 0 16.683 0.281288 18.0997 0.843866C19.5163 1.40642 20.7753 2.18251 21.8765 3.17213C22.9777 4.16173 23.8754 5.33153 24.5696 6.68153C25.2638 8.03153 25.687 9.49398 25.8392 11.0689L25.9073 12.4515C26.3242 12.6727 26.6453 12.9887 26.8707 13.3993C27.096 13.8099 27.2087 14.2428 27.2087 14.6978V17.7884C27.2087 18.2648 27.1 18.7202 26.8826 19.1547C26.6652 19.5893 26.3401 19.9198 25.9073 20.1464V21.5167C25.9073 22.351 25.6116 23.0638 25.0203 23.6551C24.429 24.2464 23.7162 24.5421 22.8819 24.5421H13.6044ZM9.70003 15.145C9.31161 15.145 8.98565 15.0132 8.72213 14.7497C8.4586 14.4861 8.32683 14.1628 8.32683 13.7797C8.32683 13.3966 8.4586 13.0733 8.72213 12.8098C8.98565 12.5463 9.31161 12.4145 9.70003 12.4145C10.0884 12.4145 10.4144 12.5463 10.6779 12.8098C10.9414 13.0733 11.0732 13.3966 11.0732 13.7797C11.0732 14.1628 10.9414 14.4861 10.6779 14.7497C10.4144 15.0132 10.0884 15.145 9.70003 15.145ZM17.5087 15.145C17.1203 15.145 16.7943 15.0132 16.5308 14.7497C16.2673 14.4861 16.1355 14.1628 16.1355 13.7797C16.1355 13.3966 16.2673 13.0733 16.5308 12.8098C16.7943 12.5463 17.1203 12.4145 17.5087 12.4145C17.8971 12.4145 18.2231 12.5463 18.4866 12.8098C18.7501 13.0733 18.8819 13.3966 18.8819 13.7797C18.8819 14.1628 18.7501 14.4861 18.4866 14.7497C18.2231 15.0132 17.8971 15.145 17.5087 15.145Z" fill="#3E63DD"/>
<path opacity="0.4" d="M5.62167 12.6559C5.47673 10.3482 6.1998 8.38048 7.79087 6.7527C9.38193 5.12492 11.342 4.31104 13.6709 4.31104C15.6593 4.31104 17.4089 4.92818 18.9195 6.16247C20.4301 7.39678 21.3171 8.98639 21.5804 10.9313C19.606 10.9091 17.7741 10.4032 16.0847 9.41357C14.3953 8.42395 13.0898 7.05257 12.168 5.29944C11.7859 7.01877 11.0107 8.52505 9.8423 9.81827C8.67394 11.1115 7.26707 12.0574 5.62167 12.6559Z" fill="#3E63DD"/>
</svg>