<svg width="18" height="26" viewBox="0 0 18 26" fill="none" xmlns="http://www.w3.org/2000/svg">
<path d="M9 0.75V6.875C9 7.57119 9.27656 8.23887 9.76884 8.73116C10.2611 9.22344 10.9288 9.5 11.625 9.5H17.75V22.625C17.75 23.3212 17.4734 23.9889 16.9812 24.4812C16.4889 24.9734 15.8212 25.25 15.125 25.25H2.875C2.17881 25.25 1.51113 24.9734 1.01884 24.4812C0.526562 23.9889 0.25 23.3212 0.25 22.625V3.375C0.25 2.67881 0.526562 2.01113 1.01884 1.51884C1.51113 1.02656 2.17881 0.75 2.875 0.75H9ZM10.75 1.1875V6.875C10.75 7.10706 10.8422 7.32962 11.0063 7.49372C11.1704 7.65781 11.3929 7.75 11.625 7.75H17.3125L10.75 1.1875Z" fill="#4D72FA"/>
</svg>
