<svg width="25" height="24" viewBox="0 0 25 24" fill="none" xmlns="http://www.w3.org/2000/svg">
<path fill-rule="evenodd" clip-rule="evenodd" d="M20.3111 2H4.68889C3.47778 2 2.5 2.97778 2.5 4.18889V19.8111C2.5 21.0222 3.47778 22 4.68889 22H13.4667C13.1333 21.4111 13.1 20.6889 13.3556 20.0778H4.68889C4.54444 20.0778 4.42222 19.9556 4.42222 19.8111V13.7889L8.65556 9.55556C8.95556 9.25556 9.43333 9.25556 9.73333 9.55556L13.6778 13.5C13.7222 13.4333 13.7667 13.3778 13.8222 13.3222C14.6889 12.4778 16.0667 12.4889 16.9111 13.3222L18.4 14.8111L19.8778 13.3222C20.6 12.6333 21.6778 12.5111 22.5 12.9889V4.18889C22.5 2.97778 21.5111 2 20.3111 2ZM15.9556 11.2333C14.4667 11.2333 13.2667 10.0222 13.2667 8.53333C13.2667 7.04444 14.4667 5.84444 15.9556 5.84444C17.4444 5.84444 18.6556 7.04444 18.6556 8.53333C18.6556 10.0222 17.4444 11.2333 15.9556 11.2333Z" fill="#ACB2B9"/>
<path fill-rule="evenodd" clip-rule="evenodd" d="M22.0778 20.2889C22.2556 20.6556 22.1778 21.1 21.8778 21.4C21.5778 21.7 21.1333 21.7556 20.7556 21.6C20.6556 21.5444 20.5556 21.4889 20.4778 21.4L19 19.9111L18.3889 19.3L16.2889 21.4C16.0889 21.5889 15.8444 21.6889 15.5889 21.6889C15.3333 21.6889 15.0889 21.5889 14.8889 21.4C14.5 21.0111 14.5 20.3889 14.8889 20L16.9778 17.9111L14.8889 15.8222C14.5556 15.4889 14.5111 14.9667 14.7556 14.5778C14.8 14.5111 14.8333 14.4667 14.8889 14.4111C15.2778 14.0333 15.9 14.0333 16.2778 14.4111L18.3778 16.5111L20.4667 14.4111C20.8556 14.0333 21.4778 14.0333 21.8556 14.4111C22.2333 14.7889 22.2444 15.4222 21.8556 15.8111L19.7667 17.9L21.8556 19.9889C21.9444 20.0778 22.0111 20.1889 22.0556 20.2889H22.0778Z" fill="#ACB2B9"/>
<path d="M22.0778 20.2889C22.2556 20.6556 22.1778 21.1 21.8778 21.4C21.5778 21.7 21.1333 21.7556 20.7556 21.6C20.6556 21.5444 20.5556 21.4889 20.4778 21.4L19 19.9111L18.3889 19.3L16.2889 21.4C16.0889 21.5889 15.8444 21.6889 15.5889 21.6889C15.3333 21.6889 15.0889 21.5889 14.8889 21.4C14.5 21.0111 14.5 20.3889 14.8889 20L16.9778 17.9111L14.8889 15.8222C14.5556 15.4889 14.5111 14.9667 14.7556 14.5778C14.8 14.5111 14.8333 14.4667 14.8889 14.4111C15.2778 14.0333 15.9 14.0333 16.2778 14.4111L18.3778 16.5111L20.4667 14.4111C20.8556 14.0333 21.4778 14.0333 21.8556 14.4111C22.2333 14.7889 22.2444 15.4222 21.8556 15.8111L19.7667 17.9L21.8556 19.9889C21.9444 20.0778 22.0111 20.1889 22.0556 20.2889H22.0778Z" fill="#ACB2B9"/>
</svg>
