<svg width="21" height="21" viewBox="0 0 21 21" fill="none" xmlns="http://www.w3.org/2000/svg">
<circle opacity="0.4" cx="10.5208" cy="10.5257" r="8.33333" fill="#E54D2E"/>
<path d="M11.3542 6.35872C11.3542 6.81896 10.9811 7.19206 10.5208 7.19206C10.0606 7.19206 9.6875 6.81896 9.6875 6.35872C9.6875 5.89849 10.0606 5.52539 10.5208 5.52539C10.9811 5.52539 11.3542 5.89849 11.3542 6.35872Z" fill="#E54D2E"/>
<path fill-rule="evenodd" clip-rule="evenodd" d="M9.0625 8.85938C9.0625 8.5142 9.34232 8.23438 9.6875 8.23438H10.5208C10.866 8.23438 11.1458 8.5142 11.1458 8.85938V14.6927C11.1458 15.0379 10.866 15.3177 10.5208 15.3177C10.1757 15.3177 9.89583 15.0379 9.89583 14.6927V9.48438H9.6875C9.34232 9.48438 9.0625 9.20455 9.0625 8.85938Z" fill="#E54D2E"/>
</svg>
