 <svg width="28" height="28" viewBox="0 0 28 28" fill="none" xmlns="http://www.w3.org/2000/svg">
    <circle cx="13.9999" cy="14" r="11.6667" fill="#3A3F42" />
    <path
    d="M15.1666 8.16667C15.1666 8.811 14.6443 9.33333 13.9999 9.33333C13.3556 9.33333 12.8333 8.811 12.8333 8.16667C12.8333 7.52233 13.3556 7 13.9999 7C14.6443 7 15.1666 7.52233 15.1666 8.16667Z"
    fill="#ECEDEE"
    />
    <path
    fill-rule="evenodd"
    clip-rule="evenodd"
    d="M11.9583 11.6667C11.9583 11.1835 12.35 10.7917 12.8333 10.7917H13.9999C14.4832 10.7917 14.8749 11.1835 14.8749 11.6667V19.8334C14.8749 20.3167 14.4832 20.7084 13.9999 20.7084C13.5167 20.7084 13.1249 20.3167 13.1249 19.8334V12.5417H12.8333C12.35 12.5417 11.9583 12.15 11.9583 11.6667Z"
    fill="#ECEDEE"
    />
</svg>