<svg width="32" height="32" viewBox="0 0 32 32" fill="none" xmlns="http://www.w3.org/2000/svg">
<rect width="32" height="32" fill="#4368E3"/>
<path d="M28.2237 16L25.8501 19.3949L25.4999 19.8933L23.4766 22.7859V22.7898L22.7762 23.7865H13.2743L13.9747 22.7859L16.0019 19.8933H20.749L21.0992 19.3949L23.4766 16L21.0992 12.6051L20.749 12.1068H16.6984L18.7256 9.21409V9.2102L19.426 8.21353H22.7762L23.4766 9.2102V9.21409L25.4999 12.1068L25.8501 12.6051L28.2237 16Z" fill="white"/>
<path d="M13.9747 16L11.6011 19.3949L11.2509 19.8933L8.5272 23.7865H3.77625L6.49997 19.8933L9.2237 16L6.49997 12.1068L3.77625 8.21353H8.5272L11.2509 12.1068L11.6011 12.6051L13.9747 16Z" fill="white"/>
</svg>
