<svg width="20" height="20" viewBox="0 0 20 20" fill="none" xmlns="http://www.w3.org/2000/svg">
<g clip-path="url(#clip0_4324_3515)">
<path d="M15.0001 18.3418V18.3337C15.0001 17.8734 15.3732 17.5003 15.8334 17.5003C16.2937 17.5003 16.6667 17.8734 16.6667 18.3337V18.3418C16.6667 18.802 16.2937 19.1751 15.8334 19.1751C15.3732 19.1751 15.0001 18.802 15.0001 18.3418ZM15.0001 15.8337V13.3337C15.0001 12.8734 15.3732 12.5003 15.8334 12.5003C16.2937 12.5003 16.6667 12.8734 16.6667 13.3337V15.8337C16.6667 16.2939 16.2937 16.667 15.8334 16.667C15.3732 16.667 15.0001 16.2939 15.0001 15.8337ZM16.6667 10.0003V5.00033C16.6667 4.5583 16.491 4.1345 16.1785 3.82194C15.8659 3.50938 15.4421 3.33366 15.0001 3.33366H5.00008C4.55805 3.33366 4.13426 3.50938 3.8217 3.82194C3.50914 4.1345 3.33341 4.5583 3.33341 5.00033V11.3219L6.08895 8.56641C6.60073 8.07396 7.23116 7.77539 7.91675 7.77539C8.60233 7.77539 9.23277 8.07396 9.74455 8.56641L11.6667 10.4886L11.9223 10.2331C12.6692 9.51427 13.6465 9.23834 14.6013 9.60075C15.0315 9.76408 15.2479 10.2447 15.0847 10.675C14.9214 11.1052 14.4407 11.3215 14.0105 11.1584C13.7538 11.0609 13.4392 11.0865 13.0779 11.4342L12.8451 11.667L13.0893 11.9111C13.4147 12.2366 13.4147 12.7641 13.0893 13.0895C12.7638 13.415 12.2363 13.415 11.9109 13.0895L8.58895 9.76758L8.49211 9.68132C8.2699 9.49865 8.07224 9.44206 7.91675 9.44206C7.73903 9.44206 7.50609 9.5159 7.24455 9.76758L3.33341 13.6787V15.0003L3.34155 15.1647C3.37937 15.5464 3.54812 15.9051 3.8217 16.1787C4.13426 16.4913 4.55805 16.667 5.00008 16.667H12.5001C12.9603 16.667 13.3334 17.0401 13.3334 17.5003C13.3334 17.9606 12.9603 18.3337 12.5001 18.3337H5.00008C4.11603 18.3337 3.26843 17.9822 2.64331 17.3571C2.01819 16.732 1.66675 15.8844 1.66675 15.0003V5.00033C1.66675 4.11627 2.01819 3.26868 2.64331 2.64355C3.26843 2.01843 4.11603 1.66699 5.00008 1.66699H15.0001C15.8841 1.66699 16.7317 2.01843 17.3569 2.64355C17.982 3.26868 18.3334 4.11627 18.3334 5.00033V10.0003C18.3334 10.4606 17.9603 10.8337 17.5001 10.8337C17.0398 10.8337 16.6667 10.4606 16.6667 10.0003ZM12.5082 5.83366C12.9685 5.83366 13.3416 6.20676 13.3416 6.66699C13.3416 7.12723 12.9685 7.50033 12.5082 7.50033H12.5001C12.0398 7.50033 11.6667 7.12723 11.6667 6.66699C11.6667 6.20676 12.0398 5.83366 12.5001 5.83366H12.5082Z" fill="#ACB2B9"/>
</g>
<defs>
<clipPath id="clip0_4324_3515">
<rect width="20" height="20" fill="white"/>
</clipPath>
</defs>
</svg>
