<svg xmlns="http://www.w3.org/2000/svg" xmlns:xlink="http://www.w3.org/1999/xlink" width="29px" height="29px" viewBox="0 0 29 29" version="1.1">
<defs>
<clipPath id="clip1">
  <path d="M 5.273438 5.273438 L 23.726562 5.273438 L 23.726562 23.726562 L 5.273438 23.726562 Z M 5.273438 5.273438 "/>
</clipPath>
</defs>
<g id="surface1">
<path style=" stroke:none;fill-rule:nonzero;fill:rgb(24.313725%,38.823529%,86.666667%);fill-opacity:1;" d="M 3.953125 0 L 25.046875 0 C 27.230469 0 29 1.769531 29 3.953125 L 29 25.046875 C 29 27.230469 27.230469 29 25.046875 29 L 3.953125 29 C 1.769531 29 0 27.230469 0 25.046875 L 0 3.953125 C 0 1.769531 1.769531 0 3.953125 0 Z M 3.953125 0 "/>
<g clip-path="url(#clip1)" clip-rule="nonzero">
<path style=" stroke:none;fill-rule:nonzero;fill:rgb(99.215686%,99.215686%,99.607843%);fill-opacity:1;" d="M 13.6875 23.726562 C 13.6875 22.445312 13.679688 21.207031 13.695312 19.972656 C 13.699219 19.695312 13.617188 19.511719 13.421875 19.320312 C 12.117188 18.03125 10.824219 16.734375 9.527344 15.4375 C 9.425781 15.335938 9.324219 15.292969 9.179688 15.292969 C 7.957031 15.300781 6.730469 15.296875 5.503906 15.296875 C 5.429688 15.296875 5.351562 15.296875 5.277344 15.296875 C 5.277344 15.265625 5.269531 15.25 5.273438 15.242188 C 5.761719 14.300781 6.15625 13.304688 6.785156 12.441406 C 7.320312 11.714844 7.992188 11.175781 8.917969 11.042969 C 9.222656 11 9.53125 11.011719 9.839844 11.007812 C 10.386719 11.003906 10.933594 11.003906 11.480469 11.011719 C 11.628906 11.015625 11.71875 10.960938 11.808594 10.847656 C 13.429688 8.804688 15.410156 7.222656 17.804688 6.171875 C 19.144531 5.585938 20.539062 5.242188 22.019531 5.273438 C 22.578125 5.289062 23.136719 5.277344 23.695312 5.277344 C 23.707031 5.304688 23.726562 5.324219 23.726562 5.339844 C 23.71875 6.171875 23.746094 7.003906 23.699219 7.835938 C 23.625 9.25 23.164062 10.566406 22.535156 11.828125 C 21.484375 13.9375 20.007812 15.707031 18.15625 17.164062 C 18.035156 17.261719 17.980469 17.355469 17.980469 17.511719 C 17.992188 18.148438 17.96875 18.785156 17.988281 19.421875 C 18.023438 20.503906 17.589844 21.367188 16.75 22.019531 C 16.347656 22.328125 15.902344 22.589844 15.457031 22.835938 C 14.890625 23.148438 14.300781 23.421875 13.6875 23.726562 Z M 19.421875 10.996094 C 19.414062 10.203125 18.78125 9.574219 17.988281 9.578125 C 17.199219 9.578125 16.554688 10.21875 16.554688 11 C 16.550781 11.789062 17.214844 12.445312 18.003906 12.4375 C 18.792969 12.429688 19.425781 11.785156 19.421875 10.996094 Z M 19.421875 10.996094 "/>
</g>
<path style=" stroke:none;fill-rule:nonzero;fill:rgb(99.215686%,99.215686%,99.607843%);fill-opacity:1;" d="M 10.761719 20.328125 C 9.726562 21.703125 8.207031 22.195312 6.511719 22.453125 C 6.839844 20.816406 7.25 19.257812 8.648438 18.214844 C 9.347656 18.914062 10.054688 19.621094 10.761719 20.328125 Z M 10.761719 20.328125 "/>
</g>
</svg>
