<svg width="100%" height="100%" viewBox="0 0 63 16" fill="none" xmlns="http://www.w3.org/2000/svg">
<g clip-path="url(#clip0_925_122320)">
<path d="M14.0226 0H2.23548C1.01613 0 0 1 0 2.2V13.8C0 15 1.01613 16 2.23548 16H14.0226C15.2419 16 16.2581 15 16.2581 13.8V2.2C16.2581 1 15.2419 0 14.0226 0Z" fill="#3E63DD"/>
<path d="M7.72238 12.7C7.72238 12.1 7.72238 11.4 7.72238 10.8C7.72238 10.7 7.72238 10.6 7.62077 10.5C6.90948 9.79999 6.2998 9.19999 5.58851 8.49999C5.4869 8.39999 5.4869 8.39999 5.38529 8.39999C4.77561 8.39999 4.06432 8.39999 3.45464 8.39999H3.35303C3.55625 7.89999 3.75948 7.39999 4.16593 6.99999C4.47077 6.59999 4.77561 6.39999 5.28367 6.29999C5.4869 6.29999 5.58851 6.29999 5.79174 6.29999C6.09658 6.29999 6.40141 6.29999 6.60464 6.29999C6.70625 6.29999 6.70625 6.29999 6.80787 6.19999C7.62077 5.19999 8.6369 4.39999 9.95787 3.79999C10.6692 3.49999 11.3804 3.29999 12.1933 3.29999C12.4982 3.29999 12.803 3.29999 13.1079 3.29999C13.1079 3.69999 13.1079 4.09999 13.1079 4.59999C13.1079 5.29999 12.803 5.99999 12.4982 6.59999C11.9901 7.69999 11.1772 8.59999 10.2627 9.29999C10.1611 9.29999 10.1611 9.39999 10.1611 9.49999C10.1611 9.79999 10.1611 10.1 10.1611 10.5C10.1611 11 9.95787 11.5 9.55141 11.8C9.34819 12 9.14496 12.1 8.84012 12.2C8.33206 12.4 8.02722 12.5 7.72238 12.7ZM10.6692 6.19999C10.6692 5.79999 10.3643 5.49999 9.95787 5.49999C9.55141 5.49999 9.14496 5.79999 9.14496 6.19999C9.14496 6.59999 9.55141 6.99999 9.95787 6.99999C10.3643 6.99999 10.6692 6.59999 10.6692 6.19999Z" fill="#FDFDFE"/>
<path d="M6.09697 11.2C5.4873 11.9 4.67439 12.2 3.75988 12.4C3.86149 11.4 4.06472 10.6 4.87762 10C5.28407 10.4 5.69052 10.8 6.09697 11.2Z" fill="#FDFDFE"/>
<path d="M23.0661 12.5V5.19999H20.3226V3.89999H27.3339V5.29999H24.5903V12.6H23.0661V12.5Z" fill="white"/>
<path d="M30.6871 12.6C30.0774 12.6 29.4677 12.5 28.9597 12.2C28.4516 11.9 28.0452 11.5 27.7403 11C27.5371 10.5 27.4355 9.89999 27.4355 9.19999C27.4355 8.49999 27.5371 7.99999 27.8419 7.39999C28.1468 6.89999 28.5532 6.49999 29.0613 6.19999C29.4677 5.99999 30.0774 5.79999 30.6871 5.79999C31.2968 5.79999 31.9064 5.89999 32.4145 6.19999C32.9226 6.49999 33.329 6.89999 33.6339 7.39999C33.9387 7.89999 34.0403 8.49999 34.0403 9.19999C34.0403 9.89999 33.9387 10.4 33.6339 11C33.329 11.5 32.9226 11.9 32.4145 12.2C31.9064 12.5 31.3984 12.6 30.6871 12.6ZM30.6871 11.3C31.0935 11.3 31.3984 11.2 31.6016 11.1C31.9065 10.9 32.1097 10.7 32.2113 10.4C32.4145 10.1 32.4145 9.69999 32.4145 9.29999C32.4145 8.89999 32.3129 8.49999 32.2113 8.19999C32.0081 7.89999 31.8048 7.59999 31.6016 7.49999C31.2968 7.29999 30.9919 7.29999 30.6871 7.29999C30.2806 7.29999 29.9758 7.39999 29.7726 7.49999C29.4677 7.69999 29.2645 7.89999 29.1629 8.19999C28.9597 8.49999 28.9597 8.89999 28.9597 9.29999C28.9597 9.69999 29.0613 10.1 29.1629 10.4C29.3661 10.7 29.5694 11 29.7726 11.1C30.0774 11.2 30.3823 11.3 30.6871 11.3Z" fill="white"/>
<path d="M38.308 12.6C37.6983 12.6 37.0886 12.5 36.5805 12.2C36.0725 11.9 35.666 11.5 35.3612 11C35.0563 10.5 34.9547 9.89999 34.9547 9.19999C34.9547 8.49999 35.0563 7.99999 35.3612 7.39999C35.666 6.99999 36.0725 6.59999 36.5805 6.29999C37.0886 5.99999 37.5967 5.79999 38.308 5.79999C38.9176 5.79999 39.5273 5.89999 40.0354 6.19999C40.5434 6.49999 40.9499 6.89999 41.2547 7.39999C41.458 7.99999 41.6612 8.59999 41.6612 9.19999C41.6612 9.89999 41.5596 10.4 41.2547 11C40.9499 11.5 40.5434 11.9 40.0354 12.2C39.5273 12.5 38.9176 12.6 38.308 12.6ZM38.308 11.3C38.7144 11.3 39.0193 11.2 39.2225 11.1C39.5273 10.9 39.7305 10.7 39.8322 10.4C40.0354 10.1 40.0354 9.69999 40.0354 9.29999C40.0354 8.89999 39.9338 8.49999 39.8322 8.19999C39.6289 7.89999 39.4257 7.59999 39.2225 7.49999C38.9176 7.29999 38.6128 7.29999 38.308 7.29999C37.9015 7.29999 37.5967 7.39999 37.3934 7.49999C37.0886 7.69999 36.8854 7.89999 36.7838 8.19999C36.5805 8.49999 36.5805 8.89999 36.5805 9.29999C36.5805 9.69999 36.6822 10.1 36.7838 10.4C36.987 10.7 37.1902 11 37.3934 11.1C37.5967 11.2 37.9015 11.3 38.308 11.3Z" fill="white"/>
<path d="M42.9822 12.5L42.5757 3.29999H43.9983V12.5H42.9822Z" fill="white"/>
<path d="M47.3517 12.7C46.8436 12.7 46.3356 12.6 45.9291 12.4C45.5227 12.2 45.1162 11.9 44.8114 11.5L45.7259 10.4C45.9291 10.7 46.234 11 46.4372 11.1C46.742 11.3 47.0469 11.3 47.3517 11.3C48.1646 11.3 48.6727 10.8 48.6727 9.69999V5.19999H45.7259V3.89999H50.1969V9.69999C50.1969 10.7 49.9936 11.5 49.4856 12C48.8759 12.4 48.1646 12.7 47.3517 12.7Z" fill="white"/>
<path d="M57.5131 7.49999C57.2083 6.99999 56.9034 6.59999 56.3954 6.29999C55.8873 5.99999 55.3792 5.89999 54.7696 5.89999C54.1599 5.89999 53.5502 5.99999 53.0421 6.29999C52.5341 6.59999 52.1276 6.99999 51.9244 7.49999C51.6195 7.99999 51.5179 8.59999 51.5179 9.29999C51.5179 9.99999 51.6195 10.5 51.9244 11.1C52.2292 11.6 52.6357 12 53.1437 12.3C53.6518 12.6 54.2615 12.7 54.9728 12.7C55.4808 12.7 55.9889 12.6 56.3954 12.4C56.8018 12.2 57.2083 11.9 57.4115 11.6L56.5986 10.6C56.3954 10.8 56.0905 11 55.8873 11.1C55.5825 11.2 55.2776 11.3 54.9728 11.3C54.5663 11.3 54.1599 11.2 53.855 11.1C53.5502 10.9 53.347 10.7 53.1437 10.4C53.0421 10.2 52.9405 9.99999 52.9405 9.79999H57.9195C57.9195 9.69999 57.9195 9.59999 57.9195 9.59999C57.9195 9.49999 57.9195 9.39999 57.9195 9.39999C57.9195 8.59999 57.7163 7.99999 57.5131 7.49999ZM52.9405 8.69999C52.9405 8.49999 53.0421 8.19999 53.1437 7.99999C53.347 7.69999 53.5502 7.49999 53.7534 7.29999C54.0583 7.09999 54.3631 7.09999 54.6679 7.09999C54.9728 7.09999 55.3792 7.19999 55.5825 7.29999C55.8873 7.49999 56.0905 7.69999 56.2937 7.99999C56.3954 8.19999 56.497 8.39999 56.497 8.69999H52.9405Z" fill="white"/>
<path d="M62.9999 12.2C62.7967 12.4 62.5934 12.5 62.3902 12.5C62.187 12.6 61.8821 12.6 61.5773 12.6C60.866 12.6 60.358 12.4 59.9515 12C59.5451 11.6 59.3418 11.1 59.3418 10.3V7.2H58.3257V6H59.3418V4.5H60.866V6H62.5934V7.2H60.866V10.3C60.866 10.6 60.9676 10.9 61.0692 11C61.1709 11.2 61.4757 11.3 61.6789 11.3C61.9838 11.3 62.2886 11.2 62.4918 11L62.9999 12.2Z" fill="white"/>
</g>
<defs>
<clipPath id="clip0_925_122320">
<rect width="63" height="16" fill="white"/>
</clipPath>
</defs>
</svg>
