<svg width="120" height="21" viewBox="0 0 120 21" fill="none" xmlns="http://www.w3.org/2000/svg">
<g clip-path="url(#clip0_5892_2467)">
<path d="M31.8734 10.4669L28.8252 14.8269L28.3754 15.4669L25.7769 19.1819V19.1869L24.8774 20.4669H12.6743L13.5738 19.1819L16.1773 15.4669H22.2739L22.7236 14.8269L25.7769 10.4669L22.7236 6.10692L22.2739 5.46692H17.0718L19.6754 1.75192V1.74692L20.5748 0.466919H24.8774L25.7769 1.74692V1.75192L28.3754 5.46692L28.8252 6.10692L31.8734 10.4669Z" fill="#4368E3"/>
<path d="M13.5738 10.4669L10.5255 14.8269L10.0758 15.4669L6.57774 20.4669H0.476196L3.97422 15.4669L7.47224 10.4669L3.97422 5.46692L0.476196 0.466919H6.57774L10.0758 5.46692L10.5255 6.10692L13.5738 10.4669Z" fill="#4368E3"/>
<path d="M41.8378 19.2219V4.16692H36.9905V1.71692H49.3835V4.17192H44.5363V19.2219H41.8378Z" fill="#2D343B"/>
<path d="M55.2302 19.5219C53.9959 19.5219 52.9015 19.2669 51.9421 18.7569C50.9826 18.2519 50.228 17.5169 49.6784 16.5669C49.1287 15.6169 48.8538 14.4919 48.8538 13.1919V12.8169C48.8538 11.5169 49.1287 10.3969 49.6784 9.45694C50.233 8.51694 50.9826 7.78194 51.9421 7.26694C52.9015 6.75194 53.9959 6.49194 55.2302 6.49194C56.4645 6.49194 57.5639 6.75194 58.5283 7.26694C59.4928 7.78194 60.2524 8.51194 60.8071 9.45694C61.3617 10.4019 61.6316 11.5169 61.6316 12.8169V13.1919C61.6316 14.4919 61.3567 15.6169 60.8071 16.5669C60.2524 17.5169 59.5028 18.2469 58.5283 18.7569C57.5639 19.2619 56.4645 19.5219 55.2302 19.5219ZM55.2302 17.2169C56.3596 17.2169 57.284 16.8569 57.9936 16.1269C58.7032 15.4019 59.058 14.3969 59.058 13.1169V12.8919C59.058 11.6119 58.7082 10.6069 58.0086 9.88194C57.304 9.15194 56.3846 8.79194 55.2352 8.79194C54.0859 8.79194 53.2064 9.15194 52.4968 9.88194C51.7872 10.6069 51.4324 11.6119 51.4324 12.8919V13.1169C51.4324 14.4019 51.7872 15.4019 52.4968 16.1269C53.2064 16.8519 54.1158 17.2169 55.2352 17.2169H55.2302Z" fill="#2D343B"/>
<path d="M70.1418 19.5219C68.9075 19.5219 67.8131 19.2669 66.8536 18.7569C65.8942 18.2519 65.1396 17.5169 64.5899 16.5669C64.0402 15.6169 63.7654 14.4919 63.7654 13.1919V12.8169C63.7654 11.5169 64.0402 10.3969 64.5899 9.45694C65.1446 8.51694 65.8942 7.78194 66.8536 7.26694C67.8131 6.75194 68.9075 6.49194 70.1418 6.49194C71.3761 6.49194 72.4754 6.75194 73.4399 7.26694C74.4044 7.78194 75.1639 8.51194 75.7186 9.45694C76.2733 10.4019 76.5431 11.5169 76.5431 12.8169V13.1919C76.5431 14.4919 76.2683 15.6169 75.7186 16.5669C75.1639 17.5169 74.4144 18.2469 73.4399 18.7569C72.4754 19.2619 71.3761 19.5219 70.1418 19.5219ZM70.1418 17.2169C71.2711 17.2169 72.1956 16.8569 72.9052 16.1269C73.6148 15.4019 73.9696 14.3969 73.9696 13.1169V12.8919C73.9696 11.6119 73.6198 10.6069 72.9202 9.88194C72.2156 9.15194 71.2961 8.79194 70.1468 8.79194C68.9974 8.79194 68.1179 9.15194 67.4083 9.88194C66.6987 10.6069 66.3439 11.6119 66.3439 12.8919V13.1169C66.3439 14.4019 66.6987 15.4019 67.4083 16.1269C68.1179 16.8519 69.0274 17.2169 70.1468 17.2169H70.1418Z" fill="#2D343B"/>
<path d="M78.9418 19.2769V1.72192H81.5203V19.2769H78.9418Z" fill="#2D343B"/>
<path d="M89.8806 19.5719C88.1316 19.5719 86.7423 19.0869 85.7029 18.1119C84.6685 17.1369 84.1538 15.7569 84.1538 13.9769V12.4719H86.8523V13.9769C86.8523 14.9119 87.1071 15.6569 87.6169 16.2119C88.1216 16.7719 88.8611 17.0469 89.8256 17.0469C90.7901 17.0469 91.4497 16.7719 91.8994 16.2219C92.3492 15.6769 92.574 14.9219 92.574 13.9719V4.16692H88.8761V1.71692H97.2264V4.17192H95.2725V13.9719C95.2725 15.7919 94.8028 17.1719 93.8583 18.1319C92.9188 19.0919 91.5846 19.5669 89.8706 19.5669L89.8806 19.5719Z" fill="#2D343B"/>
<path d="M104.028 19.5719C102.778 19.5719 101.684 19.3069 100.754 18.7819C99.82 18.2569 99.0904 17.5169 98.5657 16.5569C98.041 15.5969 97.7761 14.4869 97.7761 13.2219V12.9219C97.7761 11.6369 98.036 10.5169 98.5507 9.56187C99.0654 8.60187 99.79 7.86187 100.714 7.33687C101.639 6.81187 102.713 6.54688 103.928 6.54688C105.142 6.54688 106.146 6.81187 107.041 7.33687C107.935 7.86187 108.625 8.59187 109.125 9.52687C109.624 10.4619 109.874 11.5519 109.874 12.8019V13.7769H100.4C100.43 14.8619 100.799 15.7219 101.489 16.3619C102.179 17.0019 103.043 17.3219 104.078 17.3219C105.112 17.3219 105.772 17.1069 106.266 16.6719C106.756 16.2369 107.141 15.7369 107.401 15.1769L109.529 16.2769C109.3 16.7419 108.955 17.2369 108.515 17.7519C108.07 18.2669 107.491 18.7019 106.776 19.0519C106.056 19.4019 105.142 19.5769 104.023 19.5769H104.028V19.5719ZM100.43 11.7969H107.256C107.191 10.8619 106.851 10.1319 106.256 9.60687C105.657 9.08187 104.872 8.81687 103.908 8.81687C102.943 8.81687 102.154 9.08187 101.544 9.60687C100.934 10.1319 100.565 10.8619 100.435 11.7969H100.43Z" fill="#2D343B"/>
<path d="M115.716 19.2769C114.966 19.2769 114.367 19.0519 113.932 18.6019C113.487 18.1519 113.272 17.5519 113.272 16.8019V8.7219H111.244V6.5469H113.272V4.1719L115.851 2.8269V6.5469H119.529V8.7219H115.851V16.3519C115.851 16.8519 116.081 17.1019 116.556 17.1019H119.529V19.2769H115.721H115.716Z" fill="#2D343B"/>
</g>
<defs>
<clipPath id="clip0_5892_2467">
<rect width="119.048" height="20" fill="white" transform="translate(0.476196 0.466919)"/>
</clipPath>
</defs>
</svg>
