<svg width="100%" height="100%" viewBox="0 0 65 16" fill="none" xmlns="http://www.w3.org/2000/svg">
<path d="M14.0369 0H2.27803C1.06036 0 0.0732422 0.976833 0.0732422 2.18182V13.8182C0.0732422 15.0232 1.06036 16 2.27803 16H14.0369C15.2545 16 16.2417 15.0232 16.2417 13.8182V2.18182C16.2417 0.976833 15.2545 0 14.0369 0Z" fill="#3E63DD"/>
<path d="M7.74198 12.6666C7.74198 12.0178 7.73771 11.3922 7.74545 10.7672C7.74717 10.6284 7.70641 10.5341 7.60657 10.437C6.939 9.78678 6.27769 9.13032 5.61611 8.47389C5.5642 8.42236 5.51256 8.40109 5.43856 8.40139C4.81225 8.40422 4.18567 8.40309 3.55939 8.40309C3.52095 8.40309 3.48222 8.40309 3.44435 8.40309C3.4432 8.38809 3.43976 8.37986 3.44235 8.37476C3.69108 7.89843 3.89191 7.39603 4.21467 6.95964C4.48749 6.59094 4.83091 6.31847 5.30429 6.25221C5.4592 6.23041 5.61843 6.23607 5.77564 6.23467C6.05479 6.23211 6.33394 6.23128 6.61309 6.23581C6.68969 6.23694 6.73557 6.21004 6.78233 6.15198C7.60974 5.12002 8.62191 4.31886 9.84576 3.78815C10.5309 3.49079 11.2444 3.31691 11.9995 3.33447C12.2852 3.34126 12.5715 3.3356 12.8567 3.3356C12.8636 3.35004 12.8722 3.3591 12.8719 3.36817C12.8693 3.78843 12.8817 4.20983 12.859 4.62896C12.8206 5.34545 12.5862 6.01151 12.2646 6.6484C11.7261 7.7155 10.9716 8.61009 10.0254 9.34811C9.96369 9.39625 9.9353 9.44381 9.93644 9.52398C9.9416 9.84541 9.92984 10.1674 9.94045 10.4885C9.95854 11.0374 9.73531 11.4724 9.30612 11.802C9.10159 11.9592 8.87465 12.0914 8.64684 12.2155C8.35681 12.3732 8.05556 12.5114 7.74141 12.6663L7.74198 12.6666ZM10.672 6.22814C10.6694 5.82771 10.3444 5.50911 9.9393 5.50998C9.53565 5.51081 9.20716 5.83395 9.20658 6.23071C9.20601 6.62944 9.54482 6.96164 9.94732 6.9568C10.3507 6.952 10.6746 6.62634 10.672 6.22788V6.22814Z" fill="#FDFDFE"/>
<path d="M6.10904 11.1594C5.54291 11.9034 4.709 12.1714 3.78125 12.311C3.96055 11.4229 4.1844 10.5778 4.95159 10.0129C5.33444 10.3921 5.7225 10.7766 6.10904 11.1594Z" fill="#FDFDFE"/>
<path d="M23.8024 12.5426V5.21975H21.0498V3.85449H28.0974V5.21975H25.3448V12.5426H23.8024Z" fill="#11181C"/>
<path d="M31.5463 12.6294C30.8977 12.6294 30.3203 12.4846 29.8141 12.195C29.3079 11.8972 28.9084 11.4917 28.6158 10.9787C28.3231 10.4657 28.1768 9.88235 28.1768 9.22867C28.1768 8.56671 28.3231 7.98337 28.6158 7.47865C28.9084 6.96562 29.3079 6.56432 29.8141 6.27471C30.3203 5.98514 30.8977 5.84033 31.5463 5.84033C32.2028 5.84033 32.7842 5.98514 33.2904 6.27471C33.8046 6.56432 34.204 6.9615 34.4888 7.46622C34.7815 7.97097 34.9278 8.55847 34.9278 9.22867C34.9278 9.88235 34.7815 10.4657 34.4888 10.9787C34.204 11.4917 33.8046 11.8972 33.2904 12.195C32.7842 12.4846 32.2028 12.6294 31.5463 12.6294ZM31.5463 11.3014C31.9102 11.3014 32.2345 11.2187 32.5192 11.0532C32.804 10.8877 33.0255 10.6477 33.1837 10.3333C33.3498 10.0189 33.4328 9.65068 33.4328 9.22867C33.4328 8.79841 33.3498 8.43019 33.1837 8.12406C33.0255 7.80962 32.804 7.56967 32.5192 7.40419C32.2345 7.23868 31.9141 7.15594 31.5582 7.15594C31.1943 7.15594 30.8701 7.23868 30.5853 7.40419C30.3084 7.56967 30.087 7.80962 29.9209 8.12406C29.7548 8.43019 29.6717 8.79841 29.6717 9.22867C29.6717 9.65068 29.7548 10.0189 29.9209 10.3333C30.087 10.6477 30.3084 10.8877 30.5853 11.0532C30.8701 11.2187 31.1904 11.3014 31.5463 11.3014Z" fill="#11181C"/>
<path d="M39.1576 12.6294C38.509 12.6294 37.9317 12.4846 37.4255 12.195C36.919 11.8972 36.5197 11.4917 36.227 10.9787C35.9344 10.4657 35.7881 9.88235 35.7881 9.22867C35.7881 8.56671 35.9344 7.98337 36.227 7.47865C36.5197 6.96562 36.919 6.56432 37.4255 6.27471C37.9317 5.98514 38.509 5.84033 39.1576 5.84033C39.814 5.84033 40.3954 5.98514 40.9019 6.27471C41.4159 6.56432 41.8152 6.9615 42.1001 7.46622C42.3928 7.97097 42.539 8.55847 42.539 9.22867C42.539 9.88235 42.3928 10.4657 42.1001 10.9787C41.8152 11.4917 41.4159 11.8972 40.9019 12.195C40.3954 12.4846 39.814 12.6294 39.1576 12.6294ZM39.1576 11.3014C39.5217 11.3014 39.8458 11.2187 40.1307 11.0532C40.4152 10.8877 40.6368 10.6477 40.795 10.3333C40.961 10.0189 41.044 9.65068 41.044 9.22867C41.044 8.79841 40.961 8.43019 40.795 8.12406C40.6368 7.80962 40.4152 7.56967 40.1307 7.40419C39.8458 7.23868 39.5254 7.15594 39.1695 7.15594C38.8058 7.15594 38.4813 7.23868 38.1968 7.40419C37.9198 7.56967 37.6984 7.80962 37.5321 8.12406C37.3661 8.43019 37.2831 8.79841 37.2831 9.22867C37.2831 9.65068 37.3661 10.0189 37.5321 10.3333C37.6984 10.6477 37.9198 10.8877 38.1968 11.0532C38.4813 11.2187 38.8017 11.3014 39.1576 11.3014Z" fill="#11181C"/>
<path d="M43.8686 12.5426L43.4912 3.33325H44.9742V12.5426H43.8686Z" fill="#11181C"/>
<path d="M48.2678 12.6667C47.7377 12.6667 47.2472 12.5591 46.7963 12.344C46.3537 12.1289 45.9896 11.8186 45.7051 11.4131L46.5829 10.3085C46.8124 10.6395 47.0614 10.8877 47.3305 11.0532C47.6072 11.2187 47.9078 11.3014 48.2323 11.3014C49.0943 11.3014 49.5254 10.7677 49.5254 9.70034V5.20735H46.5709V3.85449H51.0678V9.61347C51.0678 10.6395 50.8267 11.4049 50.3441 11.9096C49.8693 12.4144 49.1773 12.6667 48.2678 12.6667Z" fill="#11181C"/>
<path d="M55.9778 12.6294C55.2739 12.6294 54.6567 12.4846 54.1269 12.195C53.6047 11.8972 53.1975 11.4917 52.9048 10.9787C52.62 10.4657 52.4775 9.88235 52.4775 9.22867C52.4775 8.56671 52.6159 7.98337 52.8929 7.47865C53.1777 6.96562 53.5651 6.56432 54.0555 6.27471C54.5539 5.98514 55.1195 5.84033 55.7524 5.84033C56.3692 5.84033 56.9188 5.98098 57.4014 6.26231C57.884 6.54364 58.2635 6.94082 58.5405 7.45382C58.8172 7.96685 58.9558 8.57087 58.9558 9.2659C58.9558 9.33212 58.9517 9.40658 58.9439 9.48932C58.9439 9.57207 58.9398 9.65068 58.9319 9.72515H53.6521V8.695H58.1491L57.5674 9.01768C57.5756 8.63705 57.5005 8.30194 57.342 8.01236C57.1838 7.72275 56.9663 7.49521 56.6896 7.32969C56.4208 7.16421 56.1083 7.08147 55.7524 7.08147C55.3883 7.08147 55.0679 7.16421 54.7912 7.32969C54.5224 7.49521 54.3086 7.72688 54.1505 8.02476C54.0002 8.31437 53.9251 8.65773 53.9251 9.05491V9.30313C53.9251 9.70031 54.0121 10.052 54.186 10.3581C54.3602 10.6643 54.6054 10.9001 54.9217 11.0656C55.238 11.2311 55.6021 11.3138 56.0133 11.3138C56.3692 11.3138 56.6896 11.2559 56.9745 11.14C57.259 11.0242 57.5121 10.8422 57.7337 10.5939L58.5285 11.5496C58.2437 11.8972 57.884 12.1661 57.4489 12.3564C57.0219 12.5384 56.5315 12.6294 55.9778 12.6294Z" fill="#11181C"/>
<path d="M62.6762 12.6294C61.9801 12.6294 61.4425 12.4432 61.0627 12.0709C60.6829 11.6903 60.4934 11.1317 60.4934 10.3953V4.4502H61.9764V10.3581C61.9764 10.6725 62.0515 10.9166 62.2018 11.0904C62.36 11.2641 62.5775 11.351 62.8542 11.351C63.1865 11.351 63.4632 11.26 63.6849 11.078L64.1002 12.1826C63.926 12.3315 63.7125 12.4432 63.4594 12.5177C63.2063 12.5922 62.9454 12.6294 62.6762 12.6294ZM59.4492 7.20556V5.96439H63.6729V7.20556H59.4492Z" fill="#11181C"/>
</svg>