<svg width="32" height="32" viewBox="0 0 32 32" fill="none" xmlns="http://www.w3.org/2000/svg">
<path d="M15.1996 25.4001C15.1996 24.2001 15.1996 22.8001 15.1996 21.6001C15.1996 21.4001 15.1996 21.2001 14.9996 21.0001C13.5996 19.6001 12.3996 18.4001 10.9996 17.0001C10.7996 16.8001 10.7996 16.8001 10.5996 16.8001C9.39961 16.8001 7.99961 16.8001 6.79961 16.8001H6.59961C6.99961 15.8001 7.39961 14.8001 8.19961 14.0001C8.79961 13.2001 9.39961 12.8001 10.3996 12.6001C10.7996 12.6001 10.9996 12.6001 11.3996 12.6001C11.9996 12.6001 12.5996 12.6001 12.9996 12.6001C13.1996 12.6001 13.1996 12.6001 13.3996 12.4001C14.9996 10.4001 16.9996 8.8001 19.5996 7.6001C20.9996 7.0001 22.3996 6.6001 23.9996 6.6001C24.5996 6.6001 25.1996 6.6001 25.7996 6.6001C25.7996 7.4001 25.7996 8.2001 25.7996 9.2001C25.7996 10.6001 25.1996 12.0001 24.5996 13.2001C23.5996 15.4001 21.9996 17.2001 20.1996 18.6001C19.9996 18.6001 19.9996 18.8001 19.9996 19.0001C19.9996 19.6001 19.9996 20.2001 19.9996 21.0001C19.9996 22.0001 19.5996 23.0001 18.7996 23.6001C18.3996 24.0001 17.9996 24.2001 17.3996 24.4001C16.3996 24.8001 15.7996 25.0001 15.1996 25.4001ZM20.9996 12.4001C20.9996 11.6001 20.3996 11.0001 19.5996 11.0001C18.7996 11.0001 17.9996 11.6001 17.9996 12.4001C17.9996 13.2001 18.7996 14.0001 19.5996 14.0001C20.3996 14.0001 20.9996 13.2001 20.9996 12.4001Z" fill="#3E63DD"/>
<path d="M12.0004 22.4C10.8004 23.8 9.20039 24.4 7.40039 24.8C7.60039 22.8 8.00039 21.2 9.60039 20C10.4004 20.8 11.2004 21.6 12.0004 22.4Z" fill="#3E63DD"/>
</svg>
