<svg width="21" height="20" viewBox="0 0 21 20" fill="none" xmlns="http://www.w3.org/2000/svg">
<path d="M6.34241 16.7707C5.14192 18.3649 3.37358 18.9393 1.40625 19.2384C1.78645 17.3353 2.26114 15.5244 3.88799 14.314C4.69985 15.1264 5.52274 15.9505 6.34241 16.7707Z" fill="#3E63DD"/>
<path d="M9.80312 20C9.80312 18.6097 9.79405 17.2692 9.81048 15.9299C9.81412 15.6325 9.72769 15.4305 9.51597 15.2223C8.10036 13.829 6.69803 12.4223 5.29513 11.0156C5.18506 10.9052 5.07555 10.8597 4.91862 10.8603C3.59051 10.8664 2.26183 10.8639 0.933793 10.8639C0.852276 10.8639 0.770146 10.8639 0.689843 10.8639C0.687408 10.8318 0.680107 10.8142 0.685586 10.8032C1.21304 9.78252 1.63889 8.70596 2.32333 7.77082C2.90185 6.98076 3.63008 6.3969 4.6339 6.25491C4.96241 6.20819 5.30006 6.22033 5.63343 6.21733C6.22537 6.21183 6.81732 6.21005 7.40927 6.21976C7.5717 6.22219 7.66899 6.16455 7.76813 6.04012C9.52269 3.82878 11.669 2.11201 14.2643 0.974773C15.7171 0.337579 17.2301 -0.0350255 18.8313 0.00260279C19.4372 0.0171669 20.0444 0.00503123 20.6491 0.00503123C20.6637 0.035981 20.6819 0.0553952 20.6813 0.0748164C20.6758 0.975373 20.702 1.87837 20.6539 2.77651C20.5724 4.31185 20.0754 5.73912 19.3934 7.1039C18.2515 9.39052 16.6515 11.3075 14.6451 12.889C14.5143 12.9921 14.4541 13.0941 14.4565 13.2658C14.4675 13.9546 14.4425 14.6446 14.465 15.3328C14.5034 16.5088 14.03 17.441 13.1199 18.1473C12.6862 18.4841 12.205 18.7675 11.7219 19.0333C11.1069 19.3713 10.4681 19.6674 9.80191 19.9994L9.80312 20ZM16.0164 6.20333C16.0109 5.34527 15.3216 4.66256 14.4626 4.66442C13.6067 4.6662 12.9101 5.35863 12.9089 6.20883C12.9076 7.06326 13.6261 7.77511 14.4796 7.76475C15.335 7.75446 16.0219 7.05661 16.0164 6.20276V6.20333Z" fill="#3E63DD"/>
</svg>
