<svg xmlns="http://www.w3.org/2000/svg" width="20" height="20" viewBox="0 0 20 20" fill="none">
  <path d="M5.65881 16.7711C4.45833 18.3654 2.68998 18.9397 0.722656 19.2389C1.10286 17.3358 1.57754 15.5249 3.2044 14.3145C4.01626 15.1269 4.83914 15.951 5.65881 16.7711Z" fill="#3E63DD"/>
  <path d="M9.11953 20C9.11953 18.6097 9.11046 17.2692 9.12689 15.9299C9.13053 15.6325 9.0441 15.4305 8.83238 15.2223C7.41676 13.829 6.01444 12.4223 4.61154 11.0156C4.50146 10.9052 4.39196 10.8597 4.23503 10.8603C2.90691 10.8664 1.57823 10.8639 0.250199 10.8639C0.168683 10.8639 0.0865519 10.8639 0.00624955 10.8639C0.00381376 10.8318 -0.00348679 10.8142 0.00199195 10.8032C0.529443 9.78252 0.955299 8.70596 1.63973 7.77082C2.21825 6.98076 2.94649 6.3969 3.9503 6.25491C4.27881 6.20819 4.61647 6.22033 4.94983 6.21733C5.54178 6.21183 6.13373 6.21005 6.72567 6.21976C6.88811 6.22219 6.98539 6.16455 7.08454 6.04012C8.83909 3.82878 10.9854 2.11201 13.5807 0.974773C15.0335 0.337579 16.5465 -0.0350255 18.1477 0.00260279C18.7536 0.0171669 19.3608 0.00503123 19.9655 0.00503123C19.9801 0.035981 19.9984 0.0553952 19.9977 0.0748164C19.9922 0.975373 20.0184 1.87837 19.9704 2.77651C19.8888 4.31185 19.3918 5.73912 18.7098 7.1039C17.5679 9.39052 15.9679 11.3075 13.9615 12.889C13.8307 12.9921 13.7705 13.0941 13.773 13.2658C13.7839 13.9546 13.759 14.6446 13.7815 15.3328C13.8198 16.5088 13.3464 17.441 12.4363 18.1473C12.0026 18.4841 11.5214 18.7675 11.0383 19.0333C10.4233 19.3713 9.78448 19.6674 9.11831 19.9994L9.11953 20ZM15.3328 6.20333C15.3273 5.34527 14.6381 4.66256 13.779 4.66442C12.9231 4.6662 12.2265 5.35863 12.2253 6.20883C12.2241 7.06326 12.9425 7.77511 13.796 7.76475C14.6514 7.75446 15.3383 7.05661 15.3328 6.20276V6.20333Z" fill="#3E63DD"/>
</svg>