<svg width="26" height="26" viewBox="0 0 63 63" fill="none" xmlns="http://www.w3.org/2000/svg">
<path d="M57.7503 31.5L52.6532 38.7905L51.9012 39.8606L47.5561 46.0726V46.0809L46.0521 48.2213H25.647L27.151 46.0726L31.5045 39.8606H41.6986L42.4507 38.7905L47.5561 31.5L42.4507 24.2095L41.6986 23.1394H33.0001L37.3536 16.9274V16.9191L38.8576 14.7787H46.0521L47.5561 16.9191V16.9274L51.9012 23.1394L52.6532 24.2095L57.7503 31.5Z" fill="#4368E3"/>
<path d="M27.1503 31.5L22.0532 38.7905L21.3012 39.8606L15.4521 48.2213H5.24951L11.0987 39.8606L16.9478 31.5L11.0987 23.1394L5.24951 14.7787H15.4521L21.3012 23.1394L22.0532 24.2095L27.1503 31.5Z" fill="#4368E3"/>
</svg>
