<svg width="38" height="32" viewBox="0 0 38 32" fill="none" xmlns="http://www.w3.org/2000/svg">
<path d="M19 16L4.826 10.338L5.7 31.2H1.9L2.812 9.52099L0 8.39999L19 0.799988L38 8.39999L19 16ZM19 6.49999C17.955 6.49999 17.1 6.91799 17.1 7.44999C17.1 7.98199 17.955 8.39999 19 8.39999C20.045 8.39999 20.9 7.98199 20.9 7.44999C20.9 6.91799 20.045 6.49999 19 6.49999ZM19 17.9L29.583 13.663C30.932 15.449 31.863 17.596 32.167 19.933C31.597 19.857 31.008 19.8 30.4 19.8C25.555 19.8 21.318 22.403 19 26.279C17.8234 24.3044 16.1543 22.6692 14.1559 21.5335C12.1576 20.3978 9.89853 19.8004 7.6 19.8C6.992 19.8 6.403 19.857 5.833 19.933C6.137 17.596 7.068 15.449 8.417 13.663L19 17.9Z" fill="#4D72FA"/>
</svg>
