<?xml version="1.0" standalone="no"?>
<!DOCTYPE svg PUBLIC "-//W3C//DTD SVG 20010904//EN"
 "http://www.w3.org/TR/2001/REC-SVG-20010904/DTD/svg10.dtd">
<svg version="1.0" xmlns="http://www.w3.org/2000/svg"
 width="487.000000pt" height="512.000000pt" viewBox="0 0 487.000000 512.000000"
 preserveAspectRatio="xMidYMid meet">

<g transform="translate(0.000000,512.000000) scale(0.100000,-0.100000)"
fill="#FF3621" stroke="none">
<path d="M1850 4782 c-1279 -695 -1689 -917 -1767 -960 l-83 -44 0 -62 c0 -61
1 -63 33 -78 19 -9 551 -299 1183 -646 632 -346 1167 -639 1190 -650 l41 -21
564 310 c310 171 636 350 724 398 88 49 324 179 525 289 201 111 374 204 383
208 16 6 17 -11 15 -265 l-3 -272 -1099 -605 c-604 -332 -1104 -604 -1111
-604 -12 0 -80 36 -650 350 -143 79 -343 189 -445 245 -102 55 -425 233 -718
394 l-532 293 -50 -32 -50 -32 0 -442 0 -442 488 -264 c268 -145 579 -314 692
-375 113 -62 313 -170 445 -242 132 -72 369 -201 527 -287 158 -86 289 -156
292 -156 5 0 466 251 1724 937 266 144 485 263 488 263 2 0 3 -120 2 -267 l-3
-266 -1104 -608 -1105 -607 -30 15 c-34 17 -1678 913 -2072 1128 l-241 132
-52 -31 -51 -31 0 -60 1 -60 341 -185 c188 -102 381 -206 428 -231 47 -25 442
-240 879 -478 l795 -432 1213 662 1213 662 0 446 0 446 -44 28 c-24 15 -46 27
-50 27 -4 0 -244 -130 -534 -289 -1557 -853 -1795 -982 -1808 -977 -14 5 -687
375 -1349 741 -121 67 -363 200 -537 296 l-318 174 0 262 c0 145 4 263 8 263
8 0 306 -162 1702 -922 272 -148 497 -270 500 -271 5 -2 416 221 2339 1264
l86 47 3 449 2 450 -43 23 -44 23 -269 -148 c-148 -81 -422 -232 -609 -335
-960 -529 -1455 -800 -1461 -800 -5 0 -1027 559 -1244 680 -122 68 -809 444
-847 464 -18 9 -33 20 -33 24 0 4 111 69 248 144 136 75 609 335 1051 578 442
243 809 444 817 447 7 2 63 -23 126 -58 151 -83 1280 -700 1448 -792 30 -16
76 -41 101 -55 l45 -25 63 33 62 33 -3 50 -3 50 -195 107 c-254 138 -920 503
-1175 643 -375 205 -453 247 -462 247 -4 0 -271 -144 -593 -318z"/>
</g>
</svg>
