<svg width="23" height="23" viewBox="0 0 23 23" fill="none" xmlns="http://www.w3.org/2000/svg">
<path fill-rule="evenodd" clip-rule="evenodd" d="M21.254 21.2544C21.5487 20.9598 21.7143 20.56 21.7143 20.1433V6.78613L16.2143 1.28613H6.00002C5.58324 1.28613 5.18355 1.45169 4.88884 1.74639C4.59415 2.04109 4.42859 2.44079 4.42859 2.85756V14.2899L4.62502 14.4863L6.01975 13.0916C7.0937 12.0177 8.83491 12.0176 9.90885 13.0916C10.9828 14.1655 10.9828 15.9067 9.90885 16.9806L8.5141 18.3754L9.90885 19.7702C10.4458 20.3072 10.7143 21.0109 10.7143 21.7147H20.1429C20.5596 21.7147 20.9594 21.5491 21.254 21.2544Z" fill="#CCD1D5"/>
<path fill-rule="evenodd" clip-rule="evenodd" d="M5.99997 2.07143C5.79159 2.07143 5.59175 2.1542 5.44439 2.30155C5.44438 2.30155 5.44438 2.30156 5.44437 2.30156M5.44437 2.30156C5.29703 2.44892 5.21425 2.64877 5.21425 2.85714V12.2857C5.21425 12.7197 4.86247 13.0714 4.42854 13.0714C3.9946 13.0714 3.64282 12.7197 3.64282 12.2857V2.85714C3.64282 2.23198 3.89117 1.63244 4.3332 1.1904L4.33321 1.19038C4.77527 0.748343 5.3748 0.5 5.99997 0.5H16.2143C16.4226 0.5 16.6225 0.58278 16.7698 0.73013L22.2698 6.23013C22.4172 6.37748 22.5 6.57733 22.5 6.78571V20.1429C22.5 20.768 22.2515 21.3676 21.8096 21.8096C21.3676 22.2516 20.768 22.5 20.1428 22.5H12.2857C11.8517 22.5 11.5 22.1482 11.5 21.7143C11.5 21.2803 11.8517 20.9286 12.2857 20.9286H20.1428C20.3511 20.9286 20.5511 20.8457 20.6984 20.6984C20.8457 20.5511 20.9285 20.3512 20.9285 20.1429V7.11117L15.8888 2.07143H5.99997" fill="#ACB2B9"/>
<path fill-rule="evenodd" clip-rule="evenodd" d="M8.51987 14.4801C8.82671 14.787 8.82671 15.2845 8.51987 15.5913L1.8413 22.2699C1.53446 22.5767 1.03697 22.5767 0.73013 22.2699C0.42329 21.963 0.42329 21.4655 0.73013 21.1587L7.4087 14.4801C7.71554 14.1733 8.21303 14.1733 8.51987 14.4801Z" fill="#ACB2B9"/>
<path fill-rule="evenodd" clip-rule="evenodd" d="M0.73013 14.4801C1.03697 14.1733 1.53446 14.1733 1.8413 14.4801L8.51987 21.1587C8.82671 21.4655 8.82671 21.963 8.51987 22.2699C8.21303 22.5767 7.71554 22.5767 7.4087 22.2699L0.73013 15.5913C0.42329 15.2845 0.42329 14.787 0.73013 14.4801Z" fill="#ACB2B9"/>
</svg>
