<svg id="af37ba8d-cf8f-4443-ba8a-6bf7da051a26" data-name="Layer 1" xmlns="http://www.w3.org/2000/svg" width="1131.14" height="783.2" viewBox="0 0 1131.14 783.2"><title>unboxing</title><path d="M618.92,192c-71.37,12-142.69,6.62-211.31-1.15s-137-17.88-208.48-15.06C153.18,177.65,102,186.74,70,213.42,39.19,239.1,34.46,273.84,34.43,305.2c0,23.6,2,48,18.63,66.83,11.51,13.06,29.22,22.44,42.56,34.49,46.44,41.93,32.5,107.71,2.23,163.61-14.2,26.22-31.58,52-41.23,78.82s-10.88,55.63,6.56,77.6c17.28,21.77,50.64,34.1,85.4,40.53,70.61,13.07,149.21,5.25,225.26-5.42,168.35-23.61,334.94-60.78,501.08-97.86,61.48-13.73,123.23-27.52,182.46-47.38,32.89-11,66.37-24.83,87.58-46.33,26.92-27.31,27.54-64.65,1.45-87-43.77-37.57-142.62-29.49-176.5-72.39C951.26,387,959.28,355,974,326.8c31.59-60.58,92.8-120.35,84.68-180.84-5.58-41.54-47.5-76-103.59-85-58.79-9.52-134.22,8.07-168,49.76C752.4,153.61,681.94,181.42,618.92,192Z" transform="translate(-34.43 -58.4)" fill="#6c63ff" opacity="0.1"/><path d="M889.11,165.49c-1.21,3.88-2.43,7.76-4,11.53A97.55,97.55,0,0,1,875,195.63a135.06,135.06,0,0,1-8.44,11.06c-3.76,4.43-7.95,8.89-9.28,14.55-.77,3.27-.51,6.69-.84,10s-1.4,6.88-4.11,8.88c-1.93,1.43-4.4,1.86-6.77,2.24-1.7.27-3.82.35-4.71-1.12a4.4,4.4,0,0,1-.46-1.94l-.41-4.89c-.09-1.05-.46-2.41-1.52-2.46s-1.59,1.36-2.49,2c-1.2.84-3,0-3.66-1.27a6.19,6.19,0,0,1-.11-4.29,20.37,20.37,0,0,1,10.48-13,30.09,30.09,0,0,0,5.1-2.66,17.43,17.43,0,0,0,4-5.06c9.28-15.28,18.61-30.64,25.15-47.27a34.72,34.72,0,0,0,2.6-9.31c.32-3.28-.19-6.56-.4-9.85a56.21,56.21,0,0,1,1.61-17.52,14,14,0,0,1,1.68-4.27c2.7-4.09,9-4.7,13-1.87a13.36,13.36,0,0,1,5.18,9.47c.29,3.31-1.62,6.75-2.59,9.84Q893.56,151.21,889.11,165.49Z" transform="translate(-34.43 -58.4)" fill="#a1616a"/><path d="M889.11,165.49c-1.21,3.88-2.43,7.76-4,11.53A97.55,97.55,0,0,1,875,195.63a135.06,135.06,0,0,1-8.44,11.06c-3.76,4.43-7.95,8.89-9.28,14.55-.77,3.27-.51,6.69-.84,10s-1.4,6.88-4.11,8.88c-1.93,1.43-4.4,1.86-6.77,2.24-1.7.27-3.82.35-4.71-1.12a4.4,4.4,0,0,1-.46-1.94l-.41-4.89c-.09-1.05-.46-2.41-1.52-2.46s-1.59,1.36-2.49,2c-1.2.84-3,0-3.66-1.27a6.19,6.19,0,0,1-.11-4.29,20.37,20.37,0,0,1,10.48-13,30.09,30.09,0,0,0,5.1-2.66,17.43,17.43,0,0,0,4-5.06c9.28-15.28,18.61-30.64,25.15-47.27a34.72,34.72,0,0,0,2.6-9.31c.32-3.28-.19-6.56-.4-9.85a56.21,56.21,0,0,1,1.61-17.52,14,14,0,0,1,1.68-4.27c2.7-4.09,9-4.7,13-1.87a13.36,13.36,0,0,1,5.18,9.47c.29,3.31-1.62,6.75-2.59,9.84Q893.56,151.21,889.11,165.49Z" transform="translate(-34.43 -58.4)" opacity="0.05"/><path d="M947.41,328.87a13.49,13.49,0,0,1-5.64.67c-.14-1.56-2.24-1.91-3.8-1.83a4.34,4.34,0,0,0-2.17.5c-.39.25-.69.62-1.07.87a4.54,4.54,0,0,1-2.21.57l-8.12.68c-3.62.31-7.39.6-10.78-.7a3.65,3.65,0,0,1-1.73-1.16c-.92-1.32,0-3.21,1.27-4.16s2.91-1.4,4.19-2.38c2.82-2.15,3.21-6.17,4.7-9.38a27.12,27.12,0,0,1,3.89-5.64,21.23,21.23,0,0,1,3.83-3.92c3.25-2.36,7-2.31,10.83-2.65,2.7-.24,5.24-.39,7.18,2,2.39,3,1.44,9,1.29,12.51A90.61,90.61,0,0,1,947.41,328.87Z" transform="translate(-34.43 -58.4)" fill="#514e7f"/><path d="M947.41,328.87a13.49,13.49,0,0,1-5.64.67c-.14-1.56-2.24-1.91-3.8-1.83a4.34,4.34,0,0,0-2.17.5c-.39.25-.69.62-1.07.87a4.54,4.54,0,0,1-2.21.57l-8.12.68c-3.62.31-7.39.6-10.78-.7a3.65,3.65,0,0,1-1.73-1.16c-.92-1.32,0-3.21,1.27-4.16s2.91-1.4,4.19-2.38c2.82-2.15,3.21-6.17,4.7-9.38a27.12,27.12,0,0,1,3.89-5.64,21.23,21.23,0,0,1,3.83-3.92c3.25-2.36,7-2.31,10.83-2.65,2.7-.24,5.24-.39,7.18,2,2.39,3,1.44,9,1.29,12.51A90.61,90.61,0,0,1,947.41,328.87Z" transform="translate(-34.43 -58.4)" opacity="0.05"/><path d="M944.13,170.91c2.48.8,3.56,3.89,3.1,6.47s-2,4.78-3.27,7.06c-3.62,6.47-5.18,13.87-8.22,20.62-2.27,5.05-5.34,9.71-7.59,14.77s-3.62,10.77-2.27,16.13c.67,2.61,2,5,2.8,7.57a42,42,0,0,1,1.64,8.55,162.41,162.41,0,0,1,.59,29.66,8.82,8.82,0,0,1-.74,3.5c-.51,1-1.39,2-1,3,.17.41.53.71.72,1.11.52,1.12-.52,2.31-1.47,3.11a2.56,2.56,0,0,0,1.59,1.23,3.78,3.78,0,0,0-1.61,4.2c.85.12.9,1.42.37,2.09s-1.37,1.1-1.75,1.87a2.61,2.61,0,0,0,1.44,3.28,6.77,6.77,0,0,0,3.92.3A43,43,0,0,0,939,304a6.22,6.22,0,0,0,2-.91,6,6,0,0,0,1.81-4,72.81,72.81,0,0,0,.45-12.27c-.36-19.84,0-39.7.86-59.53.35-8,2.75-15.75,5.83-23.11a124,124,0,0,1,5.7-11.05C960.09,185,964,176,963,166.72c-.11-1-.48-2.19-1.46-2.35a2.12,2.12,0,0,0-1.13.19,49.47,49.47,0,0,0-5.95,3.29A22.57,22.57,0,0,1,944.13,170.91Z" transform="translate(-34.43 -58.4)" fill="#464353"/><path d="M944.13,170.91c2.48.8,3.56,3.89,3.1,6.47s-2,4.78-3.27,7.06c-3.62,6.47-5.18,13.87-8.22,20.62-2.27,5.05-5.34,9.71-7.59,14.77s-3.62,10.77-2.27,16.13c.67,2.61,2,5,2.8,7.57a42,42,0,0,1,1.64,8.55,162.41,162.41,0,0,1,.59,29.66,8.82,8.82,0,0,1-.74,3.5c-.51,1-1.39,2-1,3,.17.41.53.71.72,1.11.52,1.12-.52,2.31-1.47,3.11a2.56,2.56,0,0,0,1.59,1.23,3.78,3.78,0,0,0-1.61,4.2c.85.12.9,1.42.37,2.09s-1.37,1.1-1.75,1.87a2.61,2.61,0,0,0,1.44,3.28,6.77,6.77,0,0,0,3.92.3A43,43,0,0,0,939,304a6.22,6.22,0,0,0,2-.91,6,6,0,0,0,1.81-4,72.81,72.81,0,0,0,.45-12.27c-.36-19.84,0-39.7.86-59.53.35-8,2.75-15.75,5.83-23.11a124,124,0,0,1,5.7-11.05C960.09,185,964,176,963,166.72c-.11-1-.48-2.19-1.46-2.35a2.12,2.12,0,0,0-1.13.19,49.47,49.47,0,0,0-5.95,3.29A22.57,22.57,0,0,1,944.13,170.91Z" transform="translate(-34.43 -58.4)" opacity="0.05"/><path d="M977.66,146.8a8.53,8.53,0,0,1,4.32-1.37c1.78.09,3.3,1.26,4.69,2.38a48,48,0,0,1,4.68,4.1,25,25,0,0,1,5.56,24.68c-1.47,4.41-4.16,8.3-6.82,12.11l-5.4,7.76c-8.24,11.83-16.48,23.66-25.11,35.21a1.34,1.34,0,0,1-.94,1.27c-.32.08-.7.07-.89.33a1,1,0,0,0-.11.53,7.76,7.76,0,0,0,.48,2.51,1.16,1.16,0,0,1,.1.85c-.28.65-1.46.29-1.84.89-.25.4.06.92.39,1.26s.74.72.68,1.19-.88,1-.85,1.58c0,.34.3.6.51.87a2.23,2.23,0,0,1-.27,2.84c-.57,5.64,2.5,11,3.11,16.62,1,8.88-3.05,17.55-3.54,26.46a6.85,6.85,0,0,1-.56,2.92c-.83,1.54-3,2.47-2.89,4.22a18.13,18.13,0,0,0,.6,2.12c.17,1-.3,2-.32,3s.86,2.23,1.81,1.84q-1.06,3.53-1.89,7.13l-18.9,1.56a16.77,16.77,0,0,1,.17-5.1c.38-1.82,1.21-3.53,1.64-5.34a6.3,6.3,0,0,0-.75-5.35,2.09,2.09,0,0,0,2.09-1.71,8.31,8.31,0,0,0,0-2.94c-.5-4.93,1.57-9.79,1.5-14.74-.05-3.9-1.42-7.64-2.11-11.48-1.48-8.2.06-17.09-3.59-24.57-2.21-4.52-5.27-9.52-2.79-13.89,1.22-2.16,3.38-3.64,4.79-5.68a23.18,23.18,0,0,0,2.56-6.18c2.91-9,7.62-17.37,11.75-25.92A27.22,27.22,0,0,0,952,182a34.61,34.61,0,0,0,.31-6.28,94.82,94.82,0,0,1,.7-11.3,10.74,10.74,0,0,1,1.37-4.67,10.54,10.54,0,0,1,3-2.69C963.58,152.75,971,150.32,977.66,146.8Z" transform="translate(-34.43 -58.4)" fill="#464353"/><path d="M955,335.79a13.55,13.55,0,0,1-5.65.67c-.14-1.55-2.23-1.91-3.79-1.83a4.4,4.4,0,0,0-2.18.5c-.38.25-.68.62-1.07.87a4.52,4.52,0,0,1-2.21.57l-8.11.69c-3.63.3-7.39.59-10.79-.71a3.5,3.5,0,0,1-1.72-1.16c-.93-1.32,0-3.2,1.27-4.16s2.91-1.4,4.18-2.37c2.82-2.16,3.21-6.17,4.71-9.39a26.75,26.75,0,0,1,3.88-5.63,21.94,21.94,0,0,1,3.83-3.93c3.26-2.36,7-2.31,10.83-2.64,2.71-.25,5.25-.4,7.18,2,2.4,3,1.44,9,1.3,12.51A90.47,90.47,0,0,1,955,335.79Z" transform="translate(-34.43 -58.4)" fill="#514e7f"/><circle cx="836.81" cy="36.94" r="18.72" fill="#a1616a"/><path d="M888.89,100.9c2.69,2.31,6.54,2.49,10.06,2.85A62.75,62.75,0,0,1,920.58,110a7.5,7.5,0,0,1,2.5,1.72,7,7,0,0,1,1.27,2.67,17.72,17.72,0,0,1,.71,6.51,18.67,18.67,0,0,1-1.81,6.13,33.05,33.05,0,0,1-11.6,13.22,8.5,8.5,0,0,1-2.94,1.41c-2.46.51-4.84-.91-7.27-1.55a11.8,11.8,0,0,0-6.71.22c-2,.67-4.19,1.92-6.17,1.09a6.35,6.35,0,0,1-2.79-3.19,108.21,108.21,0,0,1-5.11-11.17,41.75,41.75,0,0,0-1.85-4.35c-2.17-4.14-5.92-7.33-7.79-11.61a2.54,2.54,0,0,1-.18-2.19,3,3,0,0,1,1.38-1A32.75,32.75,0,0,0,879.7,102c1.23-1.17,3.49-4.37,5.26-4.64C887,97,887.55,99.74,888.89,100.9Z" transform="translate(-34.43 -58.4)" fill="#a1616a"/><path d="M888.46,138.94c2.17,1,4.72.57,7.08.08,6.06-1.26,12.19-2.55,17.8-5.17a9.64,9.64,0,0,0,4.37-3.36,10.93,10.93,0,0,0,1.22-4.19l1-7c.36-2.43-.27-4.68-.32-7.14a2.07,2.07,0,0,1,.41-1.55,1.67,1.67,0,0,1,1.22-.39c2.82,0,4.52,3,6.49,5a12.07,12.07,0,0,0,4,2.67c1.79.74,4,1.26,4.75,3.06.3.75.26,1.6.58,2.35,1.26,3,6.63,2,8,5,.38.84.36,1.89,1,2.55s1.84.65,2.83.81c3.9.64,5.8,5.16,9.14,7.29,2.81,1.79,6.43,1.75,9.45,3.15,1.69.78,3.18,2,5,2.51s3.79.24,5.7.29a1.49,1.49,0,0,1,1.13.37,1.52,1.52,0,0,1,.19,1.24,34.46,34.46,0,0,1-21.3,26.68,7.22,7.22,0,0,0-1.81.88c-1.7,1.27-2,4-3.93,4.9a4,4,0,0,1-4.09-.88,36.68,36.68,0,0,1-3-3.26,11.75,11.75,0,0,0-6.59-3.47c-2.32-.37-4.92-.1-6.79-1.52a22.13,22.13,0,0,1-2.14-2.29,13.54,13.54,0,0,0-4.86-2.9,49.44,49.44,0,0,0-15.43-3.38c-4.92-.27-10,.17-14.65-1.43a8.71,8.71,0,0,1-3.27-1.85,9.71,9.71,0,0,1-2.18-3.79A28.88,28.88,0,0,1,888.46,138.94Z" transform="translate(-34.43 -58.4)" fill="#6c63ff"/><path d="M912.58,111.35c-1.38-.12-2.76.05-4.15,0-1.63,0-3.24-.4-4.87-.41a12.12,12.12,0,0,0-11.42,8.69,2.25,2.25,0,0,0-.07,1.23.87.87,0,0,0,.94.64,21.49,21.49,0,0,1,2.1-4.21,11.94,11.94,0,0,1,6.29-4.38,16.39,16.39,0,0,1,7.72-.28c1.06.2,2.11.49,3.15.77l5,1.38c.92.25,1.84.5,2.74.83.69.26,1.87,1.21,2.55,1.25.92,0,.17-.8-.24-1.34a6.56,6.56,0,0,0-3.26-2.37A27.79,27.79,0,0,0,912.58,111.35Z" transform="translate(-34.43 -58.4)" fill="#6c63ff"/><path d="M900,167.58c-1.21,3.88-2.42,7.77-3.94,11.54a97.6,97.6,0,0,1-10.21,18.61,135.06,135.06,0,0,1-8.44,11.06c-3.76,4.43-8,8.89-9.28,14.55-.77,3.27-.51,6.69-.83,10s-1.41,6.88-4.11,8.88c-1.94,1.43-4.41,1.86-6.78,2.23-1.69.28-3.81.36-4.7-1.11a4.41,4.41,0,0,1-.47-1.94l-.4-4.89c-.09-1-.47-2.41-1.52-2.46s-1.6,1.36-2.5,2c-1.2.84-3,0-3.66-1.27a6.17,6.17,0,0,1-.1-4.3,20.39,20.39,0,0,1,10.47-13,31.33,31.33,0,0,0,5.11-2.66,17.4,17.4,0,0,0,4-5.06c9.28-15.28,18.61-30.64,25.16-47.27a35,35,0,0,0,2.59-9.32c.32-3.27-.18-6.56-.4-9.84a55.87,55.87,0,0,1,1.62-17.52,13.74,13.74,0,0,1,1.68-4.27c2.69-4.09,9-4.7,13-1.87a13.41,13.41,0,0,1,5.19,9.47c.29,3.31-1.63,6.75-2.59,9.84Q904.43,153.29,900,167.58Z" transform="translate(-34.43 -58.4)" fill="#a1616a"/><path d="M844,82.11c-.15-1.56,1.25-3,2.84-4a38.82,38.82,0,0,0,4.81-3c1.42-1.23,2.19-2.82,3.62-4.06a15.84,15.84,0,0,1,5.39-2.68,41.23,41.23,0,0,1,12.92-2.33c4.46,0,9,1,12.36,3.27a7.59,7.59,0,0,1,2.1,1.95,8.58,8.58,0,0,1,1,3.1,61.18,61.18,0,0,0,3.23,9.81c1.39,3.53,2.87,7.19,6.14,9.92,3.5,2.91,8.85,4.59,11.16,8.12a2.61,2.61,0,0,1,.51,2.26c-.33.9-1.39,1.5-2.37,2.06-5.69,3.26-10.58,7.49-13.11,12.54s-2.44,11,1.15,15.65c1.32,1.72,3.14,3.76,1.85,5.49-2,2.63-8.69,1.12-10.25,3.91-.49.88-.2,1.9-.21,2.86,0,2.92-2.8,5.51-6.21,6.86s-7.36,1.67-11.2,1.84a9.78,9.78,0,0,1-.28-7.25,2.9,2.9,0,0,0,.29-1.64,3.93,3.93,0,0,0-1.29-1.59c-4.1-3.87-3.24-9.58-.77-14.19s6.3-8.82,7.73-13.67c.7-2.41.71-5.12-1.21-7.11a24,24,0,0,0-3.52-2.58,13.29,13.29,0,0,1-4.94-6.2c-1.15-3.19-1-7-4.34-9.14-3.21-2-7.72-1.43-11.27-2.8C847.41,88.54,844.23,84.39,844,82.11Z" transform="translate(-34.43 -58.4)" fill="#464353"/><path d="M510.36,166.59c-.75,8.17,5.43,16.1,3.63,24.1-.39,1.71-1.12,3.33-1.39,5.06-.75,4.75,2.08,9.24,4.79,13.22l23.23,34.1a21.91,21.91,0,0,0,3.32,4.1c4.45,4,11.11,3.53,16.94,4.72a28.94,28.94,0,0,1,11.35,5,.71.71,0,0,1,.15,1,9.75,9.75,0,0,1-8.44,4c-.61.8,0,2,.84,2.56,1.25.87,3,1.1,3.22,3.21a3.59,3.59,0,0,1-.43,2.13,6.59,6.59,0,0,1-4.06,2.82c-8,2.46-16.74-1.86-22.76-7.74s-10.34-13.3-16.25-19.29c-3.27-3.31-7-6.14-10.36-9.35-6.72-6.41-11.95-14.19-17-22a24.2,24.2,0,0,1-3.68-7.49c-.62-2.65-.34-5.47-1.06-8.1-.94-3.46-3.46-6.21-5.57-9.11-4.12-5.68-6.87-12.62-6.33-19.62S485.38,156,492,153.65a10.28,10.28,0,0,1,6.43-.39c2.7.83,4.69,3.07,6.55,5.21l4.4,5.1a11.82,11.82,0,0,1,2.57,3.9,4.09,4.09,0,0,1-.9,4.34" transform="translate(-34.43 -58.4)" fill="#fbbebe"/><path d="M510.36,166.59c-.75,8.17,5.43,16.1,3.63,24.1-.39,1.71-1.12,3.33-1.39,5.06-.75,4.75,2.08,9.24,4.79,13.22l23.23,34.1a21.91,21.91,0,0,0,3.32,4.1c4.45,4,11.11,3.53,16.94,4.72a28.94,28.94,0,0,1,11.35,5,.71.71,0,0,1,.15,1,9.75,9.75,0,0,1-8.44,4c-.61.8,0,2,.84,2.56,1.25.87,3,1.1,3.22,3.21a3.59,3.59,0,0,1-.43,2.13,6.59,6.59,0,0,1-4.06,2.82c-8,2.46-16.74-1.86-22.76-7.74s-10.34-13.3-16.25-19.29c-3.27-3.31-7-6.14-10.36-9.35-6.72-6.41-11.95-14.19-17-22a24.2,24.2,0,0,1-3.68-7.49c-.62-2.65-.34-5.47-1.06-8.1-.94-3.46-3.46-6.21-5.57-9.11-4.12-5.68-6.87-12.62-6.33-19.62S485.38,156,492,153.65a10.28,10.28,0,0,1,6.43-.39c2.7.83,4.69,3.07,6.55,5.21l4.4,5.1a11.82,11.82,0,0,1,2.57,3.9,4.09,4.09,0,0,1-.9,4.34" transform="translate(-34.43 -58.4)" opacity="0.05"/><path d="M492.78,376.89c5.07,3.09,11.39,3.28,17.29,2.56.95-.12,2.08-.19,2.69.54.88,1.07-.16,2.63-1.24,3.49a25.65,25.65,0,0,1-11.89,4.89,79,79,0,0,1-11.62.77c-10.6.18-21.26.36-31.76-1.17a4.32,4.32,0,0,1-1.73-.5,3.35,3.35,0,0,1-1.31-2c-.72-2.72.67-5.66,2.76-7.55s4.78-3,7.4-4l9.23-3.59c2.16-.84,5.63-3.08,8-2.91C484.93,367.76,489.11,374.74,492.78,376.89Z" transform="translate(-34.43 -58.4)" fill="#3f3d56"/><path d="M492.78,376.89c5.07,3.09,11.39,3.28,17.29,2.56.95-.12,2.08-.19,2.69.54.88,1.07-.16,2.63-1.24,3.49a25.65,25.65,0,0,1-11.89,4.89,79,79,0,0,1-11.62.77c-10.6.18-21.26.36-31.76-1.17a4.32,4.32,0,0,1-1.73-.5,3.35,3.35,0,0,1-1.31-2c-.72-2.72.67-5.66,2.76-7.55s4.78-3,7.4-4l9.23-3.59c2.16-.84,5.63-3.08,8-2.91C484.93,367.76,489.11,374.74,492.78,376.89Z" transform="translate(-34.43 -58.4)" opacity="0.05"/><path d="M486.34,254.43c3.83,5.11,7.81,11,6.86,17.33-.51,3.41-2.42,6.42-3.82,9.57a67.6,67.6,0,0,0-3.87,13.44c-1.44,6.69-2.88,13.4-3.76,20.19-1,7.67,3.71,29.87,4.15,37.59.1,1.86.32,3.88,1.61,5.22.51.53,1.19,1,1.41,1.65a2.81,2.81,0,0,1-.3,1.95c-2.17,4.88-6.6,8.51-11.52,10.59s-16.89,5.66-22.23,5.84a4.34,4.34,0,0,1-2.09-.27,4.06,4.06,0,0,1-1.62-1.85c-3.85-7.38-.15-33.62-.21-41.94,0-6.95-1.69-13.85-1.38-20.79.24-5.57,1.73-11,2.28-16.56.89-9.11-.79-18.25-2.46-27.25-1.28-6.89-2.57-13.79-4.21-20.61-1-4.15-2.16-8.35-4.45-12-1.81-2.87-4.27-5.26-6.33-7.95a36,36,0,0,1-7.1-26.37c.12-.93,13.33,3.34,14.47,3.84a45.31,45.31,0,0,1,12.89,8.3c3,2.9,5.46,6.79,8.13,10.05q5.67,6.9,11.19,13.92Q480.25,246.33,486.34,254.43Z" transform="translate(-34.43 -58.4)" fill="#464353"/><path d="M486.34,254.12c3.83,5.12,7.81,11,6.86,17.34-.51,3.41-2.42,6.41-3.82,9.56a67.6,67.6,0,0,0-3.87,13.44c-1.44,6.7-2.88,13.4-3.76,20.19-1,7.68,3.71,29.87,4.15,37.6.1,1.86.32,3.88,1.61,5.22.51.52,1.19.95,1.41,1.64a2.81,2.81,0,0,1-.3,1.95c-2.17,4.88-6.6,8.52-11.52,10.6s-16.89,4-22.23,4.16a4.34,4.34,0,0,1-2.09-.27,4.06,4.06,0,0,1-1.62-1.85c-3.85-7.38-.15-31.95-.21-40.27,0-6.95-1.69-13.84-1.38-20.79.24-5.57,1.73-11,2.28-16.56.89-9.1-.79-18.25-2.46-27.24-1.28-6.9-2.57-13.8-4.21-20.61-1-4.16-2.16-8.36-4.45-12-1.81-2.86-4.27-5.26-6.33-7.94a36,36,0,0,1-7.1-26.38c.12-.92,13.33,3.35,14.47,3.85a44.88,44.88,0,0,1,12.89,8.3c3,2.9,5.46,6.79,8.13,10q5.67,6.9,11.19,13.92Q480.25,246,486.34,254.12Z" transform="translate(-34.43 -58.4)" opacity="0.05"/><circle cx="494.6" cy="61.99" r="21.53" fill="#fbbebe"/><path d="M509.65,119.49A27.9,27.9,0,0,1,491.79,132l1.62,5.87c2.8,10.13,5.94,20.84,13.77,27.86-.86-3.43.25-7.11,2.18-10.07a38.89,38.89,0,0,1,7.31-7.64l12.39-10.78a3.42,3.42,0,0,0,.93-1,3.16,3.16,0,0,0,0-2.36c-1.58-4.91-6.09-8-9.73-11.29a34.28,34.28,0,0,1-4.91-5.72C512.81,113.33,511.28,116.86,509.65,119.49Z" transform="translate(-34.43 -58.4)" fill="#fbbebe"/><path d="M557.4,98.75l.48-4c-3.4.88-6.62-2-8.79-5s-4.19-6.52-7.5-7.76c-4-1.51-8.28.91-12.12,2.91a38.33,38.33,0,0,1-13.92,4.55,9.45,9.45,0,0,0-2.3.38c-2.5.89-3.68,4-4.05,6.87s-.26,5.87-1.5,8.41c-.93,1.92-2.54,3.36-3.52,5.25-2.63,5.09-.09,12.05-2.87,17.05l6.9-6.32c.64-.58,1.53-1.19,2.22-.7s.6,1.23.82,1.91c.67,2,3.13,2.55,4.92,1.78s3.08-2.47,4.38-4c3.05-3.6,6.69-6.76,11-8.3a14.06,14.06,0,0,1,11.59.69c3.22,1.82,5.58,6.06,9.53,6.21,5.41.2,7.66-9.87,10.16-13.85a4.9,4.9,0,0,1-1.42-6.11C561,98.55,557.47,98.13,557.4,98.75Z" transform="translate(-34.43 -58.4)" fill="#464353"/><path d="M467.67,376.71a22.63,22.63,0,0,0,15.48,5.77c1.45,0,3.46.28,3.47,1.73a2.42,2.42,0,0,1-.43,1.2,14.16,14.16,0,0,1-8,6.26c-3.11.94-6.42.79-9.66.62l-9.45-.49c-1.79-.09-3.58-.19-5.36-.4s-3.7-.6-5.55-.87a72.86,72.86,0,0,0-13.77-.65c-1.21.05-2.63,0-3.38-.91s-.35-2.59-.08-3.92c.56-2.74,0-5.61.52-8.36.91-4.82,5.06-8.52,9.65-10.27,4.25-1.62,11.79-3.47,15.81-.78C461.26,368.54,463.85,373.26,467.67,376.71Z" transform="translate(-34.43 -58.4)" fill="#3f3d56"/><path d="M458.31,215.1c-.84,4-4.68,7-4.79,11.05-.09,3.24,2.22,6,3.88,8.74a57.65,57.65,0,0,1,4,9A137.13,137.13,0,0,0,473.05,267c2.22,3.51,4.7,7.33,4.19,11.46a17.17,17.17,0,0,1-2,5.48l-6.65,13.21a37.72,37.72,0,0,0-3.39,8.35c-.58,2.51-.64,5.11-1,7.67-1.05,8.1-4.85,16.26-2.6,24.12.19.67.9,1.49,1.42,1-2.19,4.1-4,8.24-3.79,12.89.09,2.44.84,5-.07,7.26a8.15,8.15,0,0,0-1,2.86c0,.67.31,1.3.38,2,.19,1.87-1.53,3.43-3.31,4s-3.73.56-5.53,1.09c-3.46,1-5.93,4-8.9,6.08a18.68,18.68,0,0,1-10.21,3.33,2.59,2.59,0,0,1-1.51-.3,2.47,2.47,0,0,1-.84-1.83,10.16,10.16,0,0,1,3.66-8.81,4.1,4.1,0,0,0,1.36-1.42,3.53,3.53,0,0,0,.12-1.59,118.6,118.6,0,0,1,.39-21.81,33.08,33.08,0,0,0,.35-6.95c-.19-1.93-.77-3.85-.56-5.78s1.19-3.67,1.77-5.53c1-3.3.75-6.84.85-10.3.18-6,1.55-11.88,2.92-17.72.54-2.29,1.14-4.7,2.76-6.4,1.38-1.44,3.62-2.82,3.1-4.75a5.62,5.62,0,0,0-1.27-1.89,7.63,7.63,0,0,1-1.59-5.79,2.58,2.58,0,0,1-3-1.4c-10.81-5.09-19.55-15.29-23.4-26.61a8.84,8.84,0,0,0-1-2.37c-1-1.4-2.74-2-4.28-2.78-4.84-2.43-8.19-7-11.26-11.47-1.78-2.59-3.57-5.27-4.34-8.33a27.33,27.33,0,0,1-.6-6l-.27-10.42a5.61,5.61,0,0,1,.2-2,4.86,4.86,0,0,1,1.13-1.65,20,20,0,0,1,11.05-6c2.83-.5,5.73-.41,8.6-.64,5.57-.47,11.07-2.19,16.65-1.79,8.75.65,16.55,6.71,20.67,14.46C453.67,212.69,455.2,215.05,458.31,215.1Z" transform="translate(-34.43 -58.4)" fill="#464353"/><path d="M506.91,147.34a11.41,11.41,0,0,0,.64,4.74c.67,1.46,2.39,2.59,3.89,2-.46-1,.74-2.18,1.86-2.06a3.46,3.46,0,0,1,2.45,2.09,7.83,7.83,0,0,1,.72,4.81c-.36,2-1.54,4-1.23,6.05.25,1.7,1.5,3.4.83,5a8.1,8.1,0,0,1-1.6,1.92,5.43,5.43,0,0,0,.57,7.45l-16.78.34c.62,2.8-.64,5.67-2.08,8.16a51.44,51.44,0,0,1-38.35,25,3.34,3.34,0,0,1,.81,5.1c-1.37,1.35-3.68,1.19-5.39.3s-3.05-2.33-4.62-3.45a14.11,14.11,0,0,0-9.48-2.55c-2.1.2-4.14.87-6.25,1-6.21.33-11.56-4.14-17.5-6-4.36-1.34-9.3-1.33-13-4.05-1.57-1.17-2.87-3.1-2.41-5a8.46,8.46,0,0,1,1.82-2.94c2.1-2.72,3.34-6,4.85-9.09A54.45,54.45,0,0,1,418.82,170a109,109,0,0,1,12-9.12,20.63,20.63,0,0,1,3.25-2,34.11,34.11,0,0,0,4.46-1.81c2-1.24,3.11-3.43,4.63-5.2,3.32-3.88,8.43-5.66,12.53-8.71,2.75-2.05,5.18-4.75,8.46-5.74,1.59-.48,3.3-.52,4.89-1,3.63-1.1,6.27-4.32,9.82-5.62,2.82-1,5.92-.76,8.9-1.13a20.56,20.56,0,0,0,9.13-3.47,11.16,11.16,0,0,1,3-1.72c4.49-1.37,4.86,7,5.28,9.91C505.79,138.69,506.91,143,506.91,147.34Z" transform="translate(-34.43 -58.4)" fill="#6c63ff"/><path d="M502.52,175.44c-.75,8.17,5.42,16.1,3.63,24.1-.39,1.71-1.13,3.33-1.4,5.05-.74,4.75,2.09,9.25,4.8,13.23l23.23,34.09a21.22,21.22,0,0,0,3.32,4.1c4.45,3.95,11.11,3.54,16.94,4.72a29.08,29.08,0,0,1,11.35,5,.74.74,0,0,1,.15,1,9.77,9.77,0,0,1-8.44,4c-.61.8,0,2,.84,2.56,1.25.86,3,1.09,3.21,3.21a3.52,3.52,0,0,1-.42,2.13,6.62,6.62,0,0,1-4.06,2.82c-8,2.46-16.74-1.86-22.76-7.74s-10.34-13.3-16.25-19.29c-3.27-3.31-7-6.15-10.36-9.36-6.72-6.4-11.95-14.19-17-22a24.2,24.2,0,0,1-3.68-7.49c-.62-2.66-.34-5.47-1.06-8.11-.94-3.45-3.47-6.2-5.57-9.1-4.12-5.68-6.88-12.62-6.33-19.62s4.87-13.89,11.47-16.27a10.29,10.29,0,0,1,6.43-.39c2.71.83,4.7,3.07,6.55,5.21l4.41,5.09a12,12,0,0,1,2.57,3.91,4.07,4.07,0,0,1-.91,4.34" transform="translate(-34.43 -58.4)" fill="#fbbebe"/><path d="M490.77,141.87c3.06.18,6.41.49,8.57,2.66a12.23,12.23,0,0,1,2.16,3.39c2.1,4.26,4.13,8.72,4.29,13.47.12,3.8-1,7.51-1.56,11.27-.48,3.12.74,6.31,1,9.46-3.79-1.15-8.79-2.73-12.22-4.7a40.52,40.52,0,0,0-7.16-3.71c-3.64-1.22-9.78.87-13.22,2.57-.19-2.43,1.64-6.67,1.45-9.11a10.33,10.33,0,0,0-.55-3,17.74,17.74,0,0,0-1.83-2.91,11.92,11.92,0,0,1,1.07-14c3.07-3.46,7.89-4.76,12.49-5.29a54,54,0,0,1,8.72-.31" transform="translate(-34.43 -58.4)" fill="#6c63ff"/><polygon points="1020.3 303.2 1000.3 503.2 311.3 783.2 78.3 564.2 61.3 358.2 718.3 166.2 1020.3 303.2" fill="#dfe6f5"/><polygon points="311.3 783.2 78.3 564.2 61.3 358.2 305.3 557.2 311.3 783.2" opacity="0.1"/><polygon points="1020.3 303.2 1000.3 503.2 311.3 783.2 305.3 557.2 1020.3 303.2" opacity="0.05"/><polygon points="80.8 373.7 722.8 191.7 988.8 314.7 304.8 556.7 80.8 373.7" fill="#a7adb8"/><path d="M871.23,142.69l-7.89.8L656.19,164.33a42.09,42.09,0,0,0-26,12.53l-113,116.28L263.43,554.19l75.3,61.41,181.58-64.5L599.48,523,822.1,256.53l70.17-84S894.09,148.64,871.23,142.69ZM659.65,271.78c-9.55,5.55-20,5.4-23.32-.33-2.25-3.88-.65-9.33,3.58-14.17A30.73,30.73,0,0,1,647.6,251c7.9-4.59,16.39-5.27,21-2.13a7.63,7.63,0,0,1,2.34,2.46C674.25,257.09,669.2,266.24,659.65,271.78Z" transform="translate(-34.43 -58.4)" fill="#454b69"/><path d="M871.23,142.69l-7.89.8c9.67,10.17,4.64,13.1,4.64,13.1l-76,86.26L520.31,551.1,599.48,523,822.1,256.53l70.17-84S894.09,148.64,871.23,142.69Z" transform="translate(-34.43 -58.4)" opacity="0.1"/><path d="M647.6,251a30.73,30.73,0,0,0-7.69,6.25l28.67-8.38C664,245.76,655.5,246.44,647.6,251Z" transform="translate(-34.43 -58.4)" fill="#dfe6f5"/><path d="M636.33,271.45c3.33,5.73,13.77,5.88,23.32.33s14.6-14.69,11.27-20.42a7.63,7.63,0,0,0-2.34-2.46l-28.67,8.38C635.68,262.12,634.08,267.57,636.33,271.45Z" transform="translate(-34.43 -58.4)" fill="#dfe6f5"/><ellipse cx="781.16" cy="716.62" rx="44.07" ry="7.08" transform="translate(-272.71 367.53) rotate(-26.62)" fill="#6c63ff" opacity="0.1"/><ellipse cx="746.99" cy="653.41" rx="3.8" ry="4.98" fill="#3f3d56"/><ellipse cx="746.99" cy="647.32" rx="3.8" ry="4.98" fill="#3f3d56"/><ellipse cx="746.99" cy="641.24" rx="3.8" ry="4.98" fill="#3f3d56"/><ellipse cx="746.99" cy="635.16" rx="3.8" ry="4.98" fill="#3f3d56"/><ellipse cx="746.99" cy="629.08" rx="3.8" ry="4.98" fill="#3f3d56"/><ellipse cx="746.99" cy="623" rx="3.8" ry="4.98" fill="#3f3d56"/><ellipse cx="746.99" cy="616.92" rx="3.8" ry="4.98" fill="#3f3d56"/><path d="M795.65,633.7a18.65,18.65,0,0,0,1.41-2.09l-10-1.64,10.81.08a18.25,18.25,0,0,0,.34-14.42l-14.49,7.51,13.37-9.82A18.21,18.21,0,1,0,767,633.7,18,18,0,0,0,765,637l13,6.73-13.82-4.64a18.24,18.24,0,0,0,2.93,17.1,18.21,18.21,0,1,0,28.63,0,18.23,18.23,0,0,0,0-22.51Z" transform="translate(-34.43 -58.4)" fill="#6c63ff"/><path d="M763.13,645A18.14,18.14,0,0,0,767,656.21a18.21,18.21,0,1,0,28.63,0C798.09,653.11,763.13,642.91,763.13,645Z" transform="translate(-34.43 -58.4)" opacity="0.1"/><ellipse cx="1011.16" cy="649.75" rx="28.81" ry="4.63" transform="translate(-218.38 463.49) rotate(-26.62)" fill="#6c63ff" opacity="0.1"/><ellipse cx="976.9" cy="588.21" rx="2.48" ry="3.25" fill="#3f3d56"/><ellipse cx="976.9" cy="584.23" rx="2.48" ry="3.25" fill="#3f3d56"/><ellipse cx="976.9" cy="580.25" rx="2.48" ry="3.25" fill="#3f3d56"/><ellipse cx="976.9" cy="576.28" rx="2.48" ry="3.25" fill="#3f3d56"/><ellipse cx="976.9" cy="572.3" rx="2.48" ry="3.25" fill="#3f3d56"/><ellipse cx="976.9" cy="568.33" rx="2.48" ry="3.25" fill="#3f3d56"/><ellipse cx="976.9" cy="564.35" rx="2.48" ry="3.25" fill="#3f3d56"/><path d="M1020.63,595.54a11.19,11.19,0,0,0,.92-1.36l-6.53-1.07,7.07,0a12,12,0,0,0,1.09-5,11.76,11.76,0,0,0-.87-4.45l-9.47,4.91,8.74-6.42a11.9,11.9,0,1,0-19.66,13.32,12.17,12.17,0,0,0-1.36,2.17l8.48,4.41-9-3a11.9,11.9,0,0,0,1.92,11.18,11.91,11.91,0,1,0,18.71,0,11.9,11.9,0,0,0,0-14.72Z" transform="translate(-34.43 -58.4)" fill="#6c63ff"/><path d="M999.37,602.9a11.83,11.83,0,0,0,2.55,7.36,11.91,11.91,0,1,0,18.71,0C1022.22,608.23,999.37,601.56,999.37,602.9Z" transform="translate(-34.43 -58.4)" opacity="0.1"/><ellipse cx="240.7" cy="820.63" rx="10.77" ry="26.16" transform="translate(-544.21 352.16) rotate(-45)" fill="#6c63ff" opacity="0.1"/><ellipse cx="208.12" cy="756.37" rx="5.78" ry="7.57" fill="#3f3d56"/><ellipse cx="208.12" cy="747.12" rx="5.78" ry="7.57" fill="#3f3d56"/><ellipse cx="208.12" cy="737.86" rx="5.78" ry="7.57" fill="#3f3d56"/><ellipse cx="208.12" cy="728.6" rx="5.78" ry="7.57" fill="#3f3d56"/><ellipse cx="208.12" cy="719.35" rx="5.78" ry="7.57" fill="#3f3d56"/><ellipse cx="208.12" cy="710.09" rx="5.78" ry="7.57" fill="#3f3d56"/><ellipse cx="208.12" cy="700.84" rx="5.78" ry="7.57" fill="#3f3d56"/><path d="M264.21,695.9a27.57,27.57,0,0,0,2.15-3.17l-15.2-2.5,16.44.12a27.71,27.71,0,0,0,.53-22l-22.06,11.44,20.34-15a27.71,27.71,0,1,0-45.76,31,27.43,27.43,0,0,0-3.16,5.05l19.73,10.25-21-7.06a27.74,27.74,0,0,0,4.47,26,27.71,27.71,0,1,0,43.56,0,27.71,27.71,0,0,0,0-34.26Z" transform="translate(-34.43 -58.4)" fill="#6c63ff"/><path d="M214.72,713a27.59,27.59,0,0,0,5.93,17.13,27.71,27.71,0,1,0,43.56,0C267.92,725.45,214.72,709.92,214.72,713Z" transform="translate(-34.43 -58.4)" opacity="0.1"/></svg>