<svg width="100%" height="100%" viewBox="0 0 24 24" fill="none" xmlns="http://www.w3.org/2000/svg">
<g clip-path="url(#clip0_817_123573)">
<path d="M10.717 2.21467L1.76917 5.91717C1.27158 6.1231 1.27673 6.82988 1.77744 7.02834L10.7627 10.5915C11.5522 10.9046 12.4314 10.9046 13.2208 10.5915L22.2062 7.02834C22.7068 6.82988 22.7121 6.1231 22.2144 5.91717L13.2667 2.21467C12.4503 1.87689 11.5332 1.87689 10.717 2.21467Z" fill="#FFBF00"/>
<path d="M12.7886 12.5373V21.4386C12.7886 21.862 13.2155 22.1519 13.609 21.9959L23.6214 18.1095C23.8499 18.0189 23.9998 17.7981 23.9998 17.5523V8.65097C23.9998 8.22758 23.5729 7.93768 23.1794 8.09369L13.1671 11.98C12.9386 12.0706 12.7886 12.2915 12.7886 12.5373Z" fill="#26B5F8"/>
<path d="M10.4508 12.9966L7.47934 14.4313L7.17764 14.5771L0.905106 17.5826C0.507494 17.7744 0 17.4847 0 17.043V8.68837C0 8.52856 0.0819371 8.3906 0.19182 8.28668C0.237672 8.2407 0.289629 8.20285 0.34362 8.17287C0.493522 8.08293 0.707318 8.05892 0.889099 8.13081L10.4009 11.8995C10.8843 12.0913 10.9223 12.7688 10.4508 12.9966Z" fill="#ED3049"/>
<path d="M10.4509 12.9966L7.47941 14.4313L0.191895 8.28668C0.237747 8.2407 0.289704 8.20285 0.343695 8.17287C0.493597 8.08293 0.707393 8.05892 0.889174 8.13081L10.4009 11.8995C10.8844 12.0913 10.9224 12.7688 10.4509 12.9966Z" fill="black" fill-opacity="0.25"/>
</g>
<defs>
<clipPath id="clip0_817_123573">
<rect width="24" height="24" fill="white"/>
</clipPath>
</defs>
</svg>
