<svg width="100%" height="100%" viewBox="0 0 24 24" fill="none" xmlns="http://www.w3.org/2000/svg">
<g clip-path="url(#clip0_817_123584)">
<path d="M6.34162 13.8H0.00830078C0.00950111 13.8313 0.0103013 13.8621 0.0119018 13.8929C0.0143024 13.9525 0.0187036 14.0117 0.0223046 14.0713C0.023905 14.0969 0.0251053 14.1225 0.0271059 14.1477C0.0319072 14.2166 0.0379088 14.2854 0.0443105 14.3538C0.045911 14.3694 0.0471113 14.385 0.0487117 14.3998C0.0559137 14.4762 0.064316 14.5527 0.0731183 14.6283C0.0735184 14.6355 0.0743187 14.6431 0.075519 14.6503C0.0855217 14.7319 0.0959245 14.8139 0.107928 14.8951C0.107928 14.8963 0.107928 14.8975 0.108328 14.8983C0.181348 15.4044 0.290727 15.9045 0.435617 16.3948C0.436417 16.3968 0.437217 16.3988 0.437617 16.4008C0.460423 16.4784 0.48443 16.5552 0.508836 16.6316C0.510437 16.636 0.512037 16.6408 0.513238 16.6452C0.514438 16.6496 0.516038 16.654 0.517639 16.6588C0.540045 16.728 0.563651 16.7969 0.587258 16.8661C0.593259 16.8833 0.599261 16.9009 0.605663 16.9185C0.626868 16.9781 0.648474 17.0377 0.67088 17.0977C0.681283 17.1245 0.691286 17.1514 0.701288 17.1786C0.720894 17.2282 0.739699 17.2774 0.759304 17.3266C0.774108 17.3638 0.789312 17.401 0.804917 17.4378C0.820921 17.4766 0.836925 17.5147 0.85333 17.5535C0.873335 17.6007 0.894541 17.6475 0.915346 17.6947C0.92775 17.7227 0.940553 17.7503 0.952957 17.7783C0.978563 17.8347 1.00497 17.8912 1.03178 17.9472C1.04058 17.9652 1.04898 17.9832 1.05779 18.0008C1.08899 18.0656 1.1206 18.1292 1.15261 18.1928C1.15821 18.2024 1.16261 18.2124 1.16781 18.222C1.20382 18.2925 1.24063 18.3625 1.27864 18.4321C1.28025 18.4353 1.28225 18.4381 1.28345 18.4417C1.29145 18.4561 1.30025 18.4701 1.30825 18.4845L6.71732 15.2264L6.73732 15.2144C6.52407 14.7647 6.39123 14.2862 6.34162 13.8Z" fill="#93D500"/>
<path d="M7.89829 16.7076L7.88308 16.7228L3.42188 21.1837C3.44468 21.2049 3.46749 21.2269 3.49109 21.2473C3.53271 21.2853 3.57512 21.3225 3.61713 21.3597C3.63913 21.3789 3.66034 21.3981 3.68235 21.4173C3.73276 21.4609 3.78397 21.5033 3.83479 21.5462C3.84879 21.5578 3.86199 21.569 3.876 21.5806C3.94083 21.6339 4.00632 21.6865 4.07245 21.7382C4.13567 21.7882 4.19929 21.8366 4.2641 21.8854C4.2669 21.887 4.2689 21.8886 4.27131 21.8906C4.54047 22.0917 4.81899 22.28 5.10593 22.4548C5.11553 22.4612 5.12554 22.4668 5.13554 22.4732C5.19035 22.5056 5.24477 22.538 5.29998 22.57L5.40081 22.6276C5.43282 22.646 5.46443 22.6637 5.49644 22.6813C5.55445 22.7129 5.61247 22.7445 5.67088 22.7753C5.67889 22.7797 5.68689 22.7841 5.69529 22.7881C5.85733 22.8729 6.02218 22.9517 6.18862 23.0278L6.34707 22.6432L8.59088 17.195L8.59888 17.175C8.35401 17.0437 8.11915 16.8885 7.89829 16.7076Z" fill="#4D5A31"/>
<path d="M7.43384 16.2631C7.3859 16.2097 7.33946 16.155 7.2946 16.0991C7.25459 16.0498 7.21618 16.0002 7.17897 15.9498C7.13616 15.8922 7.09455 15.8338 7.05494 15.7746C7.01533 15.7149 6.97611 15.6549 6.9393 15.5941L1.52344 18.8562C1.60666 18.9946 1.69308 19.1291 1.78191 19.2619C1.78471 19.2667 1.78751 19.2715 1.79071 19.2759C1.79151 19.2779 1.79271 19.2791 1.79391 19.2811C1.79671 19.2851 1.79951 19.2899 1.80231 19.2943C1.80271 19.2947 1.80311 19.2951 1.80311 19.2959C1.81032 19.3063 1.81752 19.3167 1.82472 19.3275C1.82512 19.3279 1.82552 19.3287 1.82632 19.3295C1.82712 19.3303 1.82672 19.3299 1.82672 19.3303C1.92075 19.4692 2.01757 19.606 2.1172 19.7396C2.1192 19.7424 2.1216 19.7452 2.1236 19.748C2.126 19.7508 2.128 19.7536 2.13 19.7564C2.17361 19.8137 2.21683 19.8709 2.26164 19.9277C2.26764 19.9353 2.27324 19.9425 2.27964 19.9497C2.32525 20.0085 2.37207 20.0665 2.41968 20.1237C2.43088 20.1373 2.44249 20.151 2.45369 20.165C2.4965 20.2162 2.53931 20.267 2.58292 20.3174C2.60173 20.339 2.62093 20.361 2.64014 20.3822C2.67735 20.4246 2.71416 20.467 2.75217 20.5086C2.77298 20.5315 2.79458 20.5547 2.81579 20.5775C2.82539 20.5883 2.83499 20.5983 2.845 20.6091C2.8726 20.6391 2.90021 20.6691 2.92822 20.6987C2.93942 20.7103 2.95142 20.7219 2.96263 20.7339C3.01184 20.7851 3.06185 20.8367 3.11227 20.8871L7.58028 16.4199C7.52906 16.3687 7.48105 16.3159 7.43384 16.2631Z" fill="#6BA43A"/>
<path d="M13.3558 16.7052C13.3066 16.7448 13.257 16.7836 13.2065 16.8208L13.2173 16.8396L16.475 22.2463C16.6259 22.1479 16.7751 22.0462 16.9207 21.9394C17.236 21.707 17.5409 21.4549 17.835 21.1836L13.3734 16.7228L13.3558 16.7052Z" fill="#4D5A31"/>
<path d="M16.0021 22.2908L15.8917 22.1071L12.8508 17.0605C12.7892 17.0973 12.7264 17.131 12.6636 17.1646C12.6 17.199 12.5363 17.2306 12.4715 17.2614C11.8874 17.5383 11.2552 17.6799 10.6218 17.6799C10.2069 17.6799 9.7924 17.6199 9.39149 17.5003C9.32307 17.4798 9.25626 17.453 9.18904 17.429C9.12142 17.4054 9.053 17.3846 8.98658 17.3574L6.74438 22.8021L6.65675 23.0153L6.58153 23.1982L6.58113 23.199C6.58673 23.2014 6.59273 23.2034 6.59834 23.2058C6.60474 23.2082 6.61074 23.2102 6.61674 23.213H6.61754C6.61914 23.2138 6.62074 23.2142 6.62194 23.2146C6.67476 23.2366 6.72797 23.255 6.78119 23.2758C6.848 23.3018 6.91442 23.3282 6.98124 23.3526C7.01565 23.365 7.04926 23.3794 7.08327 23.3915H7.08367C7.78635 23.6395 8.51303 23.8134 9.25185 23.9104C9.28106 23.914 9.30947 23.918 9.33868 23.922C9.36869 23.9256 9.39909 23.9284 9.4295 23.932C9.48632 23.9384 9.54313 23.9448 9.60035 23.9504L9.64276 23.954C9.71278 23.9608 9.7828 23.9668 9.85242 23.9716C9.87642 23.9736 9.90043 23.9744 9.92404 23.9764C9.98525 23.9804 10.0465 23.984 10.1077 23.9868C10.1453 23.9892 10.1829 23.99 10.2205 23.9916C10.2693 23.9932 10.3177 23.9952 10.3666 23.9968C10.4366 23.9984 10.5074 23.9988 10.5778 23.9992C10.5946 23.9992 10.611 23.9996 10.6278 24C11.218 24 11.8081 23.9508 12.3919 23.8528C12.4015 23.8512 12.4115 23.8496 12.4215 23.8484C12.4831 23.8376 12.5447 23.826 12.6064 23.8148C12.6416 23.808 12.6772 23.8012 12.7116 23.7944C12.7476 23.7868 12.784 23.7796 12.82 23.7716C12.88 23.7591 12.9401 23.7459 13.0005 23.7319C13.0113 23.7295 13.0221 23.7275 13.0329 23.7243C13.9203 23.5179 14.7774 23.1978 15.5824 22.7741V22.7737C15.6352 22.7461 15.6868 22.7145 15.7392 22.6857C15.8016 22.6516 15.8636 22.616 15.9261 22.5804C15.9689 22.556 16.0125 22.5332 16.0553 22.5076C16.0557 22.5072 16.0561 22.5068 16.0565 22.5068H16.0569C16.0577 22.5064 16.0581 22.506 16.0589 22.5056L16.0597 22.5048L16.0517 22.4916L16.0597 22.5048C16.0601 22.5048 16.0605 22.5044 16.0609 22.5044C16.0617 22.504 16.0621 22.5036 16.0629 22.5032C16.0653 22.5016 16.0677 22.5004 16.0701 22.4988C16.0837 22.4904 16.0977 22.4824 16.1117 22.474L16.0021 22.2908ZM7.90109 10.0386C7.9503 9.99862 8.00032 9.96021 8.05033 9.9226L8.03953 9.9042L4.78184 4.49713C4.6306 4.59596 4.48136 4.69799 4.33532 4.80481C4.02044 5.03688 3.71515 5.28855 3.42188 5.55942L7.88348 10.0206L7.90109 10.0386Z" fill="#93D500"/>
<path d="M3.11267 5.85669C3.06185 5.90751 3.01384 5.95992 2.96423 6.01113C2.91501 6.06275 2.8646 6.11396 2.81619 6.16598C2.49045 6.51812 2.18888 6.89187 1.91354 7.28468C1.90034 7.30268 1.88753 7.32189 1.87433 7.34029C1.84392 7.38511 1.81351 7.42952 1.78391 7.47433C1.7527 7.52074 1.72189 7.56796 1.69188 7.61477C1.68068 7.63197 1.66948 7.64958 1.65867 7.66678C0.632395 9.27642 0.0826461 11.1021 0.00862604 12.943C0.00582528 13.0146 0.00422485 13.0863 0.00262441 13.1575C0.00142409 13.2287 -0.000976562 13.3003 -0.000976562 13.3715H6.31793C6.31793 13.3003 6.32434 13.2291 6.32834 13.1575C6.33194 13.0858 6.33274 13.0142 6.33994 12.943C6.42156 12.1204 6.73925 11.317 7.293 10.6424C7.33781 10.5876 7.38863 10.536 7.43704 10.4831C7.48465 10.4299 7.52946 10.3751 7.58068 10.3239L3.11267 5.85669ZM16.1502 4.28827C16.1418 4.28307 16.1326 4.27786 16.1242 4.27266C16.0686 4.23865 16.0126 4.20585 15.9561 4.17304C15.9237 4.15423 15.8909 4.13583 15.8585 4.11742C15.8253 4.09902 15.7929 4.08061 15.7597 4.06261C15.7026 4.03151 15.6453 4.00057 15.588 3.96978C15.5788 3.96538 15.57 3.96058 15.5608 3.95578C15.1903 3.76213 14.8098 3.59168 14.4213 3.44364C14.4113 3.43964 14.4013 3.43564 14.3913 3.43204C14.3065 3.40043 14.2217 3.36882 14.1361 3.33921C13.4456 3.09836 12.7322 2.92903 12.0071 2.83387L11.9183 2.82187C11.8882 2.81827 11.8586 2.81547 11.829 2.81227C11.7718 2.80547 11.715 2.79906 11.6574 2.79346C11.6418 2.79186 11.6258 2.79106 11.6094 2.78906C11.5417 2.78306 11.4733 2.77706 11.4053 2.77186L11.3257 2.76706C11.2677 2.76345 11.2085 2.75905 11.1504 2.75665C11.1192 2.75505 11.088 2.75385 11.0572 2.75305V9.08637C11.3821 9.11998 11.7042 9.1892 12.0167 9.29522L16.6783 4.63436C16.5051 4.51433 16.3302 4.3975 16.1502 4.28827Z" fill="#4D5A31"/>
<path d="M10.4143 2.74787C10.3427 2.74947 10.271 2.74947 10.1998 2.75227C9.75289 2.77028 9.30677 2.81589 8.86425 2.89031C8.85465 2.89191 8.84505 2.89351 8.83504 2.89511C8.77303 2.90591 8.71141 2.91712 8.64979 2.92872C8.61498 2.93552 8.57977 2.94192 8.54456 2.94873C8.50815 2.95593 8.47214 2.96353 8.43573 2.97153C8.37572 2.98393 8.3157 2.99714 8.25609 3.01114C8.24488 3.01314 8.23408 3.01594 8.22328 3.01834C7.33632 3.22543 6.47943 3.5449 5.67339 3.969C5.62097 3.99701 5.56976 4.02862 5.51734 4.05703C5.45493 4.09143 5.39251 4.12664 5.33049 4.16225C5.28448 4.18906 5.23767 4.21347 5.19166 4.24067C5.19126 4.24108 5.19046 4.24147 5.19006 4.24147C5.18685 4.24348 5.18365 4.24548 5.18045 4.24708C5.16845 4.25468 5.15605 4.26068 5.14404 4.26788L5.14444 4.26868L5.25527 4.45233L8.40613 9.68295C8.46774 9.64614 8.53056 9.61213 8.59338 9.57852C8.65659 9.54451 8.72061 9.5125 8.78503 9.48209C9.23032 9.26957 9.70893 9.13544 10.1998 9.08559C10.271 9.07839 10.3423 9.07238 10.4139 9.06878C10.4851 9.06518 10.5567 9.06158 10.6283 9.06158V2.74347C10.5567 2.74347 10.4855 2.74667 10.4143 2.74787Z" fill="#6BA43A"/>
<path d="M21.245 12.8494C21.2418 12.7926 21.2386 12.7361 21.2346 12.6789C21.2332 12.6506 21.2313 12.6223 21.229 12.5941C21.2246 12.5273 21.219 12.4605 21.2126 12.3936C21.2114 12.3764 21.2098 12.3592 21.2082 12.342C21.201 12.2672 21.193 12.1928 21.1842 12.1184C21.1834 12.1124 21.183 12.1064 21.1822 12.1004L21.181 12.092C21.1714 12.0115 21.1606 11.9311 21.1494 11.8511L21.1482 11.8435C21.0753 11.3385 20.9661 10.8393 20.8217 10.3499C20.8205 10.3463 20.8197 10.3435 20.8185 10.3403C20.7957 10.2639 20.7721 10.1882 20.7485 10.1126C20.7449 10.1026 20.7417 10.0926 20.7385 10.0826C20.7161 10.0142 20.6933 9.94618 20.6697 9.87816L20.6505 9.82295C20.6297 9.76413 20.6081 9.70532 20.5864 9.6465C20.5756 9.61849 20.5652 9.59049 20.554 9.56288C20.5356 9.51407 20.5168 9.46565 20.4972 9.41764C20.482 9.37883 20.4664 9.34082 20.4508 9.30321C20.4352 9.2652 20.4192 9.22799 20.4036 9.19038C20.3828 9.14237 20.3616 9.09435 20.3404 9.04674C20.3284 9.01993 20.3164 8.99273 20.304 8.96552C20.278 8.9087 20.2512 8.85149 20.2244 8.79467C20.2159 8.77787 20.2075 8.76026 20.1991 8.74306C20.1679 8.67824 20.1359 8.61302 20.1031 8.549C20.0987 8.5402 20.0939 8.531 20.0895 8.5222C20.0531 8.45138 20.0155 8.38016 19.9779 8.31014C19.9763 8.30774 19.9751 8.30494 19.9735 8.30254C19.7898 7.96488 19.5879 7.63738 19.3689 7.32147L14.7061 11.9843C14.8121 12.2968 14.8809 12.6189 14.9145 12.9434H21.249C21.2474 12.9118 21.2466 12.8802 21.245 12.8494Z" fill="#4D5A31"/>
<path d="M14.939 13.3715C14.939 13.4431 14.9322 13.5144 14.9286 13.586C14.925 13.6576 14.9238 13.7292 14.9166 13.8C14.835 14.6231 14.5177 15.4265 13.9639 16.1015C13.9191 16.1563 13.8683 16.2075 13.8199 16.2607C13.7719 16.3135 13.7275 16.3683 13.6763 16.4195L18.1443 20.8868C18.1951 20.8359 18.2427 20.7835 18.2923 20.7319C18.3419 20.6803 18.3923 20.6295 18.4404 20.5771C18.7708 20.219 19.0733 19.8445 19.3454 19.4552C19.3566 19.4396 19.3666 19.4244 19.3774 19.4092C19.4106 19.3615 19.4426 19.3131 19.4754 19.2651C19.5038 19.2219 19.5323 19.1791 19.5599 19.1355C19.5739 19.1147 19.5875 19.0931 19.6007 19.0723C20.6254 17.4634 21.1739 15.6397 21.2475 13.8C21.2503 13.7288 21.2519 13.6572 21.2531 13.5856C21.2547 13.5144 21.2567 13.4431 21.2567 13.3715H14.939Z" fill="#6BA43A"/>
<path d="M23.1344 0.866935C21.9785 -0.288978 20.1044 -0.288978 18.9485 0.866935C18.0262 1.78878 17.8418 3.16716 18.3911 4.27386L11.943 10.7216C10.8363 10.1727 9.45749 10.3567 8.53524 11.2786C7.37933 12.4345 7.37973 14.3086 8.53524 15.4645C9.69156 16.6204 11.5661 16.62 12.722 15.4645C13.6442 14.5422 13.8283 13.1639 13.2789 12.0572L19.7271 5.60982C20.8342 6.15877 22.2121 5.97472 23.1344 5.05247C24.2903 3.89696 24.2903 2.02285 23.1344 0.866935Z" fill="#424143"/>
</g>
<defs>
<clipPath id="clip0_817_123584">
<rect width="24" height="24" fill="white"/>
</clipPath>
</defs>
</svg>
