<svg xmlns="http://www.w3.org/2000/svg" xmlns:xlink="http://www.w3.org/1999/xlink" viewBox="0 0 66 66" fill="#fff" fill-rule="evenodd" stroke="#000" stroke-linecap="round" stroke-linejoin="round"><use xlink:href="#A" x=".5" y=".5"/><symbol id="A" overflow="visible"><g stroke="none" fill-rule="nonzero"><path d="M16.913 36.796H.026l.01.247.029.476.012.203.046.55.011.123.066.608.006.059.086.654c.195 1.354.486 2.688.874 3.998l.006.017.202.651.011.036.186.553.049.139.174.478.082.216.154.4.122.297.129.309.171.376.1.229.21.45.07.144.253.511.04.078.309.586.066.114 14.47-8.732a11.51 11.51 0 0 1-1.055-3.771zM.824 44.545l.005.015.545-.171z" fill="#93d500"/><path d="M21.063 44.553L9.122 56.494l.185.17.51.453.4.344.11.091.464.374.06.047.511.392c.007.004.013.009.019.014l2.226 1.504.08.049.438.259.269.153.255.143.465.251.065.034 1.316.639 6.426-15.61a11.46 11.46 0 0 1-1.868-1.246z" fill="#4d5a31"/><path d="M19.825 43.368l-.371-.437-.308-.398-.33-.467-.309-.482-14.442 8.699.744 1.168.06.088.003.006.776 1.094.034.046.351.457.421.523.09.114.345.407.152.173.299.343.17.184.077.083.229.24.091.094.4.409 11.913-11.913-.39-.417z" fill="#6ba43a"/><path d="M35.616 44.547l-.398.309.03.05 8.686 14.418 1.188-.818c.849-.627 1.663-1.299 2.438-2.015L35.663 44.595z" fill="#4d5a31"/><g fill="#93d500"><path d="M42.835 60.01l.02-.011-.001-.001-.019.011zm-.008.006h.001z"/><path d="M42.855 59.993l.114-.057-.002-.004-.112.067zm-.025.02l.006-.003z"/><path d="M42.827 60.015h.001l-.021-.035zm.008-.006l.02-.01-.02.01zm-.011.006l-.006.003.006-.002z"/><path d="M42.824 60.016l.003-.001h-.001z"/><path d="M42.83 60.013l-.003.002.009-.006zm.025-.013l.113-.064-.113.064zm.113-.064l-.002-.004zm-.153.086h.001z"/><path d="M42.819 60.02l-.003.002.003-.002z"/><path d="M42.671 59.443l-8.402-13.941-.499.278-.512.257c-1.541.733-3.226 1.114-4.932 1.116-1.111 0-2.216-.161-3.281-.479l-.54-.19-.539-.191-6.414 15.578.047.017.049.019h.001l.013.006 1.231.471c1.874.661 3.812 1.125 5.782 1.384l.231.031.698.076.113.01.56.047.19.012.49.028.3.012.39.014.696.008a28.43 28.43 0 0 0 4.704-.392l.079-.011.494-.09.286-.054.289-.061.481-.106.087-.02a28.48 28.48 0 0 0 6.798-2.535v-.001l.417-.228.847-.478-.014-.04.021.036.027-.016.111-.067zM21.07 26.77l.398-.308-.03-.05-8.685-14.413-1.191.821c-.84.618-1.653 1.289-2.435 2.012l11.897 11.891z"/></g><path d="M8.303 15.618l-.791.826c-.879.951-1.682 1.943-2.407 2.982l-.104.149-.242.357-.246.375-.089.137A28.27 28.27 0 0 0 .025 34.514l-.015.571-.01.571h16.848l.027-.571.032-.571a11.43 11.43 0 0 1 2.541-6.136c.114-.146.255-.283.384-.425l.383-.424zm34.763-4.182l-.07-.042-.447-.266-.261-.149-.263-.146-.457-.247-.072-.038c-.986-.514-2.001-.972-3.038-1.371l-.08-.031-.686-.247c-1.84-.643-3.743-1.094-5.677-1.347l-.237-.032-.237-.026-.457-.05-.128-.011-.545-.046-.686-.042-.248-.01v16.889c.867.09 1.726.274 2.559.557L44.47 12.358a28 28 0 0 0-1.408-.922z" fill="#4d5a31"/><path d="M14.016 11.873l-.295-.49zm-.303-.491l.002.003zm14.059-4.054l-.571.012c-1.192.048-2.381.17-3.561.367l-.078.013-.494.09-.286.054-.29.061-.48.105-.087.019c-2.365.552-4.649 1.404-6.798 2.536l-1.411.797.002.003 8.696 14.438.499-.278.511-.258c1.187-.566 2.463-.924 3.772-1.057l.571-.046.571-.019V7.316c-.191 0-.381.008-.571.011z" fill="#6ba43a"/><path d="M56.651 34.265l-.027-.454-.015-.227-.055-.672-.057-.596-.006-.048-.003-.023-.086-.642c-.001-.006-.001-.014-.003-.02-.194-1.347-.485-2.678-.871-3.984l-.008-.025-.187-.607-.026-.08-.183-.545-.057-.147-.171-.47-.086-.229-.151-.387-.125-.305-.126-.3-.168-.383-.097-.216-.213-.455-.066-.138-.256-.518-.334-.643c-.004-.006-.007-.014-.011-.02-.49-.9-1.028-1.774-1.612-2.616L39.214 31.957c.281.829.467 1.687.556 2.558H56.66l-.009-.25z" fill="#4d5a31"/><path d="M39.837 35.658l-.027.571-.032.571c-.217 2.194-1.064 4.342-2.54 6.136-.114.146-.255.283-.384.425l-.383.424 11.913 11.913.4-.413.4-.413c.882-.954 1.687-1.954 2.413-2.992l.085-.122.262-.385.226-.346.114-.169c2.732-4.285 4.194-9.153 4.391-14.059l.015-.571.01-.571H39.837z" fill="#6ba43a"/><path d="M61.689 2.312c-3.082-3.082-8.08-3.082-11.162 0-2.459 2.459-2.951 6.134-1.486 9.086L31.848 28.591c-2.952-1.464-6.628-.973-9.086 1.486a7.9 7.9 0 0 0 0 11.163 7.9 7.9 0 0 0 11.163-.001c2.459-2.459 2.949-6.134 1.486-9.086l17.198-17.198c2.952 1.464 6.628.973 9.086-1.486 3.083-3.081 3.083-8.079 0-11.161z" fill="#424143"/></g></symbol></svg>