<svg xmlns="http://www.w3.org/2000/svg" width="100%" height="100%" fill="none" viewBox="0 0 112 98"><path fill="#FD366E" d="M111.1 73.473v24.49H48.87c-18.13 0-33.96-9.849-42.429-24.49A48.683 48.683 0 0 1 0 52.293V45.67a48.52 48.52 0 0 1 1.732-10.048C7.545 15.064 26.448 0 48.871 0c22.422 0 41.322 15.064 47.136 35.623H69.398C65.03 28.922 57.47 24.491 48.871 24.491s-16.16 4.43-20.528 11.132a24.262 24.262 0 0 0-3.042 6.68 24.488 24.488 0 0 0-.921 6.679c0 7.02 2.952 13.348 7.685 17.811a24.39 24.39 0 0 0 16.806 6.68H111.1Z"/><path fill="#FD366E" d="M111.1 42.303v24.49H65.676a24.406 24.406 0 0 0 7.686-17.81c0-2.316-.321-4.556-.922-6.68h38.66Z"/></svg>
