
<?xml version="1.0" encoding="UTF-8"?>
<svg xmlns="http://www.w3.org/2000/svg" xmlns:xlink="http://www.w3.org/1999/xlink" width="24px" height="24px" viewBox="0 0 24 24" version="1.1">
<g id="surface1">
<path style=" stroke:none;fill-rule:evenodd;fill:rgb(94.117647%,18.039216%,39.607843%);fill-opacity:1;" d="M 15.339844 15.699219 C 14.121094 15.699219 12.980469 15.375 12 14.804688 C 11.265625 15.230469 10.445312 15.515625 9.585938 15.636719 C 7.835938 15.878906 6.0625 15.417969 4.652344 14.355469 C 3.953125 13.828125 3.363281 13.167969 2.921875 12.414062 C 2.476562 11.660156 2.1875 10.828125 2.066406 9.960938 C 1.941406 9.09375 1.992188 8.210938 2.214844 7.363281 C 2.433594 6.519531 2.816406 5.722656 3.34375 5.023438 C 3.871094 4.324219 4.53125 3.738281 5.285156 3.292969 C 6.039062 2.851562 6.875 2.558594 7.742188 2.4375 C 8.605469 2.316406 9.488281 2.367188 10.335938 2.589844 C 10.921875 2.742188 11.480469 2.972656 12 3.273438 C 12.984375 2.703125 14.121094 2.378906 15.339844 2.378906 C 19.019531 2.378906 22 5.359375 22 9.039062 C 22 12.71875 19.019531 15.699219 15.339844 15.699219 Z M 10.886719 4.085938 L 10.886719 4.082031 C 9.964844 3.667969 8.933594 3.515625 7.914062 3.660156 C 6.484375 3.859375 5.195312 4.617188 4.328125 5.765625 C 3.460938 6.917969 3.085938 8.363281 3.285156 9.789062 C 3.484375 11.21875 4.242188 12.507812 5.394531 13.375 C 6.542969 14.242188 7.988281 14.617188 9.417969 14.417969 C 10.84375 14.21875 12.132812 13.460938 13 12.308594 C 13.867188 11.160156 14.242188 9.710938 14.042969 8.285156 C 13.949219 7.628906 13.742188 7 13.425781 6.425781 C 12.859375 5.394531 11.964844 4.570312 10.886719 4.085938 Z M 3.765625 18.246094 C 3.59375 18.117188 3.382812 18.054688 3.136719 18.054688 C 2.917969 18.054688 2.71875 18.105469 2.546875 18.203125 C 2.375 18.300781 2.242188 18.445312 2.144531 18.632812 C 2.046875 18.824219 2 19.042969 2 19.296875 C 2 19.550781 2.046875 19.769531 2.144531 19.960938 C 2.242188 20.148438 2.375 20.292969 2.550781 20.394531 C 2.722656 20.492188 2.917969 20.542969 3.136719 20.542969 C 3.382812 20.542969 3.59375 20.480469 3.765625 20.351562 C 3.941406 20.226562 4.058594 20.054688 4.125 19.847656 L 4.125 20.511719 L 4.433594 20.511719 L 4.433594 18.085938 L 4.125 18.085938 L 4.125 18.75 C 4.058594 18.542969 3.941406 18.371094 3.765625 18.246094 Z M 2.5625 18.589844 C 2.726562 18.417969 2.945312 18.328125 3.21875 18.328125 C 3.390625 18.328125 3.546875 18.371094 3.683594 18.449219 C 3.820312 18.53125 3.929688 18.644531 4.007812 18.789062 C 4.085938 18.9375 4.125 19.105469 4.125 19.296875 C 4.125 19.492188 4.085938 19.660156 4.007812 19.808594 C 3.929688 19.953125 3.820312 20.066406 3.683594 20.148438 C 3.546875 20.226562 3.390625 20.269531 3.21875 20.269531 C 2.945312 20.269531 2.726562 20.179688 2.5625 20.007812 C 2.398438 19.835938 2.316406 19.597656 2.316406 19.296875 C 2.316406 19 2.398438 18.761719 2.5625 18.589844 Z M 6.996094 18.203125 C 6.824219 18.105469 6.628906 18.054688 6.40625 18.054688 C 6.15625 18.054688 5.945312 18.117188 5.773438 18.246094 C 5.601562 18.371094 5.484375 18.542969 5.417969 18.75 L 5.417969 18.085938 L 5.109375 18.085938 L 5.109375 21.660156 L 5.417969 21.660156 L 5.417969 19.847656 C 5.484375 20.054688 5.601562 20.226562 5.773438 20.351562 C 5.945312 20.480469 6.15625 20.542969 6.40625 20.542969 C 6.625 20.542969 6.820312 20.492188 6.992188 20.394531 C 7.164062 20.292969 7.300781 20.148438 7.394531 19.960938 C 7.492188 19.769531 7.539062 19.550781 7.539062 19.296875 C 7.539062 19.042969 7.492188 18.824219 7.394531 18.632812 C 7.300781 18.445312 7.164062 18.300781 6.996094 18.203125 Z M 5.855469 18.449219 C 5.996094 18.371094 6.148438 18.328125 6.320312 18.328125 C 6.597656 18.328125 6.816406 18.417969 6.980469 18.589844 C 7.144531 18.761719 7.222656 19 7.222656 19.296875 C 7.222656 19.597656 7.144531 19.835938 6.980469 20.007812 C 6.816406 20.179688 6.597656 20.269531 6.320312 20.269531 C 6.148438 20.269531 5.996094 20.226562 5.855469 20.148438 C 5.71875 20.066406 5.613281 19.953125 5.535156 19.808594 C 5.457031 19.660156 5.417969 19.492188 5.417969 19.296875 C 5.417969 19.105469 5.457031 18.9375 5.535156 18.789062 C 5.613281 18.644531 5.71875 18.53125 5.855469 18.449219 Z M 9.988281 18.203125 C 9.816406 18.105469 9.621094 18.054688 9.398438 18.054688 C 9.148438 18.054688 8.9375 18.117188 8.765625 18.246094 C 8.59375 18.371094 8.476562 18.542969 8.410156 18.75 L 8.410156 18.085938 L 8.101562 18.085938 L 8.101562 21.660156 L 8.410156 21.660156 L 8.410156 19.847656 C 8.476562 20.054688 8.59375 20.226562 8.765625 20.351562 C 8.9375 20.480469 9.148438 20.542969 9.398438 20.542969 C 9.617188 20.542969 9.8125 20.492188 9.984375 20.394531 C 10.15625 20.292969 10.292969 20.148438 10.386719 19.960938 C 10.484375 19.769531 10.53125 19.550781 10.53125 19.296875 C 10.53125 19.042969 10.484375 18.824219 10.386719 18.632812 C 10.292969 18.445312 10.160156 18.300781 9.988281 18.203125 Z M 8.851562 18.449219 C 8.988281 18.371094 9.140625 18.328125 9.3125 18.328125 C 9.589844 18.328125 9.808594 18.417969 9.972656 18.589844 C 10.136719 18.761719 10.21875 19 10.21875 19.296875 C 10.21875 19.597656 10.136719 19.835938 9.972656 20.007812 C 9.808594 20.179688 9.589844 20.269531 9.3125 20.269531 C 9.140625 20.269531 8.988281 20.226562 8.851562 20.148438 C 8.710938 20.066406 8.605469 19.953125 8.527344 19.808594 C 8.449219 19.660156 8.410156 19.492188 8.410156 19.296875 C 8.410156 19.105469 8.449219 18.9375 8.527344 18.789062 C 8.605469 18.644531 8.710938 18.53125 8.851562 18.449219 Z M 14.566406 18.050781 L 13.980469 18.050781 L 13.574219 19.953125 L 13.023438 18.050781 L 12.359375 18.050781 L 11.8125 19.953125 L 11.414062 18.050781 L 10.785156 18.050781 L 11.445312 20.511719 L 12.136719 20.511719 L 12.679688 18.722656 L 13.210938 20.511719 L 13.902344 20.511719 Z M 15.867188 18.148438 C 15.71875 18.238281 15.59375 18.363281 15.503906 18.519531 L 15.503906 18.050781 L 14.875 18.050781 L 14.875 20.511719 L 15.503906 20.511719 L 15.503906 19.324219 C 15.503906 18.898438 15.734375 18.683594 16.191406 18.683594 L 16.375 18.683594 L 16.375 18.015625 C 16.1875 18.015625 16.019531 18.058594 15.867188 18.148438 Z M 16.757812 17.09375 C 16.6875 17.160156 16.652344 17.242188 16.652344 17.34375 C 16.652344 17.441406 16.6875 17.519531 16.757812 17.585938 C 16.828125 17.648438 16.921875 17.679688 17.039062 17.679688 C 17.152344 17.679688 17.246094 17.648438 17.316406 17.585938 C 17.390625 17.519531 17.425781 17.441406 17.425781 17.34375 C 17.425781 17.242188 17.390625 17.160156 17.316406 17.09375 C 17.246094 17.03125 17.152344 17 17.039062 17 C 16.921875 17 16.828125 17.03125 16.757812 17.09375 Z M 17.347656 18.050781 L 16.722656 18.050781 L 16.722656 20.511719 L 17.347656 20.511719 Z M 19.234375 19.976562 L 18.988281 19.976562 C 18.878906 19.976562 18.796875 19.949219 18.75 19.902344 C 18.703125 19.855469 18.679688 19.773438 18.679688 19.65625 L 18.679688 18.578125 L 19.230469 18.578125 L 19.230469 18.050781 L 18.679688 18.050781 L 18.679688 17.441406 L 18.050781 17.441406 L 18.050781 18.050781 L 17.710938 18.050781 L 17.710938 18.578125 L 18.050781 18.578125 L 18.050781 19.644531 C 18.050781 19.957031 18.125 20.179688 18.273438 20.3125 C 18.417969 20.445312 18.628906 20.511719 18.90625 20.511719 L 19.234375 20.511719 Z M 21.976562 19.402344 C 21.992188 19.320312 22 19.25 22 19.1875 C 22 18.960938 21.949219 18.761719 21.851562 18.585938 C 21.75 18.410156 21.609375 18.269531 21.429688 18.167969 C 21.246094 18.070312 21.035156 18.019531 20.789062 18.019531 C 20.550781 18.019531 20.335938 18.070312 20.148438 18.167969 C 19.964844 18.269531 19.820312 18.417969 19.714844 18.609375 C 19.609375 18.796875 19.558594 19.023438 19.558594 19.28125 C 19.558594 19.539062 19.609375 19.761719 19.714844 19.953125 C 19.820312 20.140625 19.964844 20.289062 20.148438 20.390625 C 20.335938 20.492188 20.550781 20.542969 20.789062 20.542969 C 20.996094 20.542969 21.179688 20.503906 21.347656 20.429688 C 21.515625 20.351562 21.652344 20.246094 21.761719 20.109375 C 21.867188 19.972656 21.9375 19.816406 21.96875 19.644531 L 21.304688 19.644531 C 21.28125 19.765625 21.21875 19.863281 21.121094 19.933594 C 21.027344 20.003906 20.90625 20.042969 20.757812 20.042969 C 20.597656 20.042969 20.460938 19.988281 20.351562 19.886719 C 20.242188 19.78125 20.179688 19.621094 20.171875 19.402344 Z M 21.210938 18.667969 C 21.324219 18.769531 21.378906 18.925781 21.367188 19.125 L 20.171875 19.125 C 20.183594 18.925781 20.25 18.769531 20.363281 18.667969 C 20.480469 18.5625 20.621094 18.511719 20.789062 18.511719 C 20.957031 18.511719 21.097656 18.5625 21.210938 18.667969 Z M 21.210938 18.667969 "/>
<path style=" stroke:none;fill-rule:nonzero;fill:rgb(94.117647%,18.039216%,39.607843%);fill-opacity:1;" d="M 8.84375 6.734375 C 8.835938 6.753906 8.734375 7.152344 8.625 7.628906 C 8.507812 8.101562 8.328125 8.851562 8.226562 9.292969 C 8.03125 10.105469 7.914062 10.640625 7.914062 10.710938 C 7.914062 10.730469 8.035156 10.746094 8.183594 10.746094 L 8.453125 10.746094 L 8.578125 10.203125 C 8.648438 9.910156 8.804688 9.234375 8.929688 8.707031 C 9.054688 8.175781 9.207031 7.535156 9.265625 7.273438 C 9.324219 7.015625 9.382812 6.78125 9.394531 6.753906 C 9.40625 6.71875 9.339844 6.707031 9.136719 6.707031 C 8.984375 6.707031 8.851562 6.71875 8.84375 6.734375 Z M 6.738281 8.433594 L 6.375 8.824219 L 6.484375 8.949219 C 6.542969 9.019531 6.703125 9.195312 6.839844 9.339844 L 7.089844 9.609375 L 7.804688 9.609375 L 7.464844 9.242188 C 7.28125 9.046875 7.128906 8.859375 7.128906 8.835938 C 7.128906 8.808594 7.269531 8.632812 7.441406 8.445312 C 7.617188 8.25 7.757812 8.085938 7.757812 8.066406 C 7.757812 8.050781 7.609375 8.039062 7.425781 8.039062 L 7.101562 8.039062 Z M 9.480469 8.0625 C 9.480469 8.074219 9.546875 8.148438 9.632812 8.230469 C 9.9375 8.539062 10.152344 8.796875 10.140625 8.847656 C 10.132812 8.875 9.984375 9.058594 9.804688 9.25 L 9.476562 9.609375 L 9.84375 9.609375 L 10.207031 9.605469 L 10.539062 9.238281 C 10.726562 9.035156 10.875 8.855469 10.875 8.832031 C 10.875 8.8125 10.71875 8.628906 10.519531 8.421875 L 10.167969 8.039062 L 9.828125 8.039062 C 9.636719 8.039062 9.480469 8.050781 9.480469 8.0625 Z M 9.480469 8.0625 "/>
</g>
</svg>

