<svg width="auto" height="auto" viewBox="0 0 24 24" fill="none" xmlns="http://www.w3.org/2000/svg">
<path fill-rule="evenodd" clip-rule="evenodd" d="M16.0071 19.9945C14.5472 19.9945 13.1788 19.6031 12.001 18.9196C11.1173 19.4311 10.1353 19.7734 9.1044 19.9176C7.005 20.2112 4.87491 19.6587 3.18278 18.3819C2.34411 17.7498 1.63819 16.9588 1.10535 16.0539C0.57252 15.149 0.223222 14.148 0.0774146 13.1081C-0.0683854 12.0681 -0.00783039 11.0097 0.255615 9.9931C0.51906 8.97655 0.980235 8.02191 1.61278 7.18369C2.24533 6.34546 3.03686 5.64009 3.94213 5.10789C4.8474 4.5757 5.84865 4.22711 6.88875 4.08204C7.92877 3.93697 8.98717 3.99827 10.0036 4.26243C10.7051 4.44476 11.3771 4.72128 12.0015 5.08329C13.1792 4.39998 14.5475 4.00872 16.0071 4.00872C20.4215 4.00872 24 7.58721 24 12.0016C24 16.416 20.4215 19.9945 16.0071 19.9945ZM10.6631 6.05761L10.6655 6.05551C9.5556 5.5575 8.31878 5.37597 7.0947 5.54715C5.3829 5.78655 3.83624 6.69616 2.79506 8.07589C1.75389 9.45565 1.30346 11.1924 1.54285 12.9043C1.78225 14.6161 2.69186 16.1627 4.07159 17.2039C5.4513 18.245 7.18815 18.6955 8.89995 18.4561C10.6118 18.2167 12.1585 17.3071 13.1996 15.9274C14.2408 14.5476 14.6912 12.8109 14.4518 11.099C14.3414 10.3092 14.0883 9.55465 13.7122 8.86863C13.031 7.63118 11.9593 6.63886 10.6631 6.05761Z" fill="#F02E65"/>
<path d="M8.21168 9.23619C8.20208 9.25982 8.0799 9.73982 7.94828 10.3091C7.8117 10.8785 7.59525 11.7771 7.47315 12.3088C7.23765 13.2827 7.0965 13.9226 7.0965 14.0074C7.0965 14.0307 7.24245 14.0498 7.4211 14.0498H7.74593L7.89158 13.4003C7.97648 13.0475 8.16473 12.2381 8.31525 11.603C8.46585 10.9677 8.64923 10.1961 8.71995 9.88547C8.79038 9.57489 8.86095 9.29282 8.8752 9.25982C8.88938 9.21752 8.8092 9.20349 8.56463 9.20349C8.38103 9.20349 8.2209 9.21752 8.21168 9.23619ZM5.68485 11.2736L5.25195 11.7442L5.37915 11.8946C5.4495 11.9792 5.64263 12.1911 5.80733 12.3653L6.10845 12.6851H6.9648L6.56025 12.2474C6.33893 12.0125 6.1554 11.7865 6.1554 11.7583C6.1554 11.7254 6.3249 11.5137 6.53198 11.2878C6.7389 11.0574 6.90833 10.8595 6.90833 10.836C6.90833 10.8172 6.72953 10.8031 6.51315 10.8031H6.12263L5.68485 11.2736ZM8.97855 10.8312C8.97855 10.8455 9.05858 10.9348 9.1572 11.0336C9.52448 11.4006 9.78323 11.7113 9.76905 11.7723C9.75975 11.8054 9.5808 12.0263 9.3645 12.257L8.97413 12.6851H9.41153L9.84915 12.6804L10.2489 12.2429C10.4702 11.9984 10.649 11.7817 10.649 11.7535C10.649 11.7302 10.4608 11.5089 10.2254 11.2597L9.80213 10.8031H9.39255C9.162 10.8031 8.97855 10.8172 8.97855 10.8312Z" fill="#F02E65"/>
</svg>
