<svg xmlns="http://www.w3.org/2000/svg" width="auto" height="auto" fill="none" viewBox="0 0 200 37">
    <path fill="#19191D" d="M58.419 29.39c3.27 0 4.924-1.678 5.643-2.821h.324c.144 1.214 1.006 2.357 2.696 2.357h3.199v-3.571h-.827c-.575 0-.862-.322-.862-.821v-14.32H64.35V12.5h-.324c-.826-1.143-2.552-2.75-5.715-2.75-5.033 0-8.771 4.143-8.771 9.82 0 5.678 3.81 9.82 8.879 9.82Zm.755-4.07c-2.984 0-5.32-2.179-5.32-5.714 0-3.464 2.264-5.82 5.284-5.82 2.875 0 5.284 2.106 5.284 5.82 0 3.178-2.05 5.713-5.248 5.713Zm13.611 10.86h4.242v-9.61h.323c.791 1.143 2.48 2.82 5.824 2.82 5.032 0 8.699-4.213 8.699-9.819 0-5.642-3.918-9.82-8.987-9.82-3.235 0-4.817 1.75-5.571 2.714h-.324v-2.25h-4.206v25.967Zm9.49-10.754c-2.912 0-5.32-2.142-5.32-5.856 0-3.178 2.049-5.856 5.248-5.856 2.984 0 5.32 2.321 5.32 5.856 0 3.464-2.264 5.856-5.248 5.856ZM94.062 36.18h4.241v-9.61h.324c.79 1.143 2.48 2.82 5.823 2.82 5.033 0 8.35-4.213 8.35-9.819 0-5.642-3.569-9.82-8.637-9.82-3.236 0-4.817 1.75-5.572 2.714h-.324v-2.25h-4.205v25.967Zm9.489-10.754c-2.911 0-5.32-2.142-5.32-5.856 0-3.178 2.049-5.856 5.249-5.856 2.983 0 5.32 2.321 5.32 5.856 0 3.464-2.265 5.856-5.249 5.856Zm14.856 3.934h6.003l3.415-14.676h.215l3.415 14.676h5.967l4.779-18.71h-4.275l-3.415 14.71h-.324l-3.415-14.71h-5.643l-3.451 14.71h-.324l-3.379-14.71h-4.529l4.961 18.71Zm25.943 0h4.241v-9.248c0-3.535 1.654-5.713 4.745-5.713h1.869v-4.214h-1.402c-2.408 0-4.241 1.643-4.96 3.214h-.288v-2.75h-4.205V29.36Zm31.905 0h3.307v-3.75h-3.271c-1.294 0-1.834-.57-1.834-1.892v-9.355h5.32v-3.714h-5.32V5.4h-4.026v5.25h-3.522v3.713h3.271v9.391c0 3.963 2.408 5.606 6.075 5.606Zm14.686.03c3.919 0 7.369-1.928 8.592-5.82l-3.883-.929c-.683 2.071-2.66 3.142-4.744 3.142-3.092 0-5.141-2-5.177-5.142H200v-1.178c0-5.57-3.487-9.712-9.238-9.712-5.069 0-9.418 3.963-9.418 9.855 0 5.713 3.846 9.784 9.597 9.784Zm-5.176-11.82c.252-2.249 2.301-4.141 4.997-4.141 2.588 0 4.709 1.606 4.924 4.142h-9.921Z"/>
    <path fill="#19191D" fill-rule="evenodd" d="M165.023 29.36h-4.242V14.363h-3.307v-3.714h7.549V29.36Z" clip-rule="evenodd"/>
    <path fill="#19191D" d="M162.586 8.053c1.546 0 2.696-1.143 2.696-2.643 0-1.464-1.15-2.606-2.696-2.606-1.545 0-2.696 1.142-2.696 2.606 0 1.5 1.151 2.643 2.696 2.643Z"/>
    <path fill="#FD366E" d="M37.035 24.772v8.258H16.29c-6.044 0-11.32-3.321-14.144-8.258A16.573 16.573 0 0 1 0 17.631v-2.232a16.469 16.469 0 0 1 .577-3.388C2.515 5.079 8.817 0 16.291 0s13.775 5.079 15.712 12.01h-8.87c-1.456-2.259-3.976-3.753-6.842-3.753-2.867 0-5.387 1.494-6.843 3.754a8.226 8.226 0 0 0-1.014 2.252 8.347 8.347 0 0 0-.307 2.252c0 2.367.984 4.5 2.562 6.005a8.081 8.081 0 0 0 5.602 2.252h20.744Z"/>
    <path fill="#FD366E" d="M37.035 14.263v8.257H21.893a8.273 8.273 0 0 0 2.562-6.005c0-.781-.107-1.536-.307-2.252h12.887Z"/>
</svg>
