<svg height="82" preserveAspectRatio="xMidYMid" viewBox="0 0 512 82" width="512" xmlns="http://www.w3.org/2000/svg"><path d="m0 78.9936682v-5.2950612c0-1.0806301.54030697-1.6209371 1.6209371-1.6209371h5.61924863v-56.1924863h-5.61924863c-1.08063013 0-1.6209371-.5403069-1.6209371-1.6209371v-5.40312366c0-1.08063014.54030697-1.62093711 1.6209371-1.62093711 9.2213772-.43225205 16.8937361-.64837484 23.0173069-.64837484 18.7309224 0 28.0962431 6.69980641 28.0962431 20.09962011 0 4.6827306-1.1886753 8.8070738-3.5660616 12.3731532-2.3773863 3.5660795-5.5471872 6.2856245-9.5094977 8.1587168l12.6433094 24.8543689h6.6998734c1.0806301 0 1.6209371.540307 1.6209371 1.6209371v5.2950612c0 1.0806302-.540307 1.6209371-1.6209371 1.6209371h-14.2642465c-1.0806302 0-1.8730804-.468266-2.3773744-1.4048121l-14.6964965-29.0688054h-2.1612494c-2.3053443 0-4.3585108-.1080614-6.159561-.3241875v22.2608696h6.8079358c1.0806302 0 1.6209371.540307 1.6209371 1.6209371v5.2950612c0 1.0806302-.5403069 1.6209371-1.6209371 1.6209371h-24.5301815c-1.08063013 0-1.6209371-.5403069-1.6209371-1.6209371zm19.3431828-63.432672v26.0430561c.5763361.0720421 1.4048067.1080625 2.4854369.1080625 5.8354027 0 10.3739812-1.1526548 13.6158716-3.4579991 3.2418905-2.3053443 4.8628114-5.7633089 4.8628114-10.3739975 0-8.2127891-5.6912334-12.319122-17.0738709-12.319122zm71.5373575 66.3503588c-8.5729991 0-14.8585701-2.5034223-18.8569016-7.5103419-3.9983315-5.0069197-5.9974673-11.6346851-5.9974673-19.8834952 0-8.24881 2.1252074-15.074688 6.3756859-20.4778387 4.2504786-5.4031507 10.3739575-8.1046855 18.3706205-8.1046855 3.9623105 0 7.3662444.7384195 10.2119042 2.2152807 2.845659 1.4768612 5.024897 3.4759969 6.537779 5.9974673 2.881681 4.8988566 4.322499 10.5540695 4.322499 16.9658083 0 3.0257644-.144082 4.6827058-.43225 4.9708738s-.828475.4322499-1.620937.4322499h-31.770367c.36021 5.1870247 1.6389365 9.2033064 3.8362178 12.0489658 2.1972812 2.8456594 5.9974402 4.2684677 11.4005909 4.2684677 3.9623105 0 8.0326233-.9365321 12.2110593-2.8096243 1.008588-.5042941 1.728998-.2161303 2.16125.8644998l2.053187 4.9708738c.36021.8645041.036026 1.5849134-.972563 2.1612495-4.754772 2.5935123-10.6981488 3.890249-17.8303077 3.890249zm-12.8594343-33.3913043h22.476994c.144084-9.0052512-3.385921-13.5078092-10.590122-13.5078092-4.2504785 0-7.2581873 1.3507674-9.0232165 4.0523427-1.7650292 2.7015754-2.7195715 5.853366-2.8636555 9.4554665zm58.569861-12.535247v27.2317434c0 3.3859744.432245 5.835366 1.296749 7.3482482s2.485425 2.2693119 4.862812 2.2693119c2.377386 0 4.682696-.5042865 6.915998-1.5128746.792462-.288168 1.368789-.0000043 1.729.8644998l1.945124 4.9708738c.072042.216126.108063.5222999.108063.918531 0 .396231-.360205.8104664-1.080625 1.2427184-3.458017 1.7290083-7.56435 2.5934994-12.319122 2.5934994-6.411739 0-10.626133-1.6569414-12.64331-4.9708738-1.44084-2.1612603-2.26931-4.2504472-2.485436-6.2676235-.288169-2.7375963-.43225-5.6192335-.43225-8.6449978v-26.0430562h-6.159561c-1.080631 0-1.620937-.540307-1.620937-1.6209371v-5.6192486c0-1.0806302.540306-1.6209371 1.620937-1.6209371h6.159561v-14.588434c0-1.0806301.540307-1.6209371 1.620937-1.6209371h8.861123c1.08063 0 1.620937.540307 1.620937 1.6209371v14.588434h10.914309c1.080631 0 1.620938.5403069 1.620938 1.6209371v5.6192486c0 1.0806301-.540307 1.6209371-1.620938 1.6209371zm20.53187-28.74461797v-5.61924863c0-1.08063013.540307-1.6209371 1.620937-1.6209371h16.317433c1.08063 0 1.620937.54030697 1.620937 1.6209371v33.2832419c4.034353-5.9794868 9.617525-8.9691853 16.749684-8.9691853 11.166511 0 16.749683 6.1234789 16.749683 18.3706205v27.7720557h6.375686c1.08063 0 1.620937.540307 1.620937 1.6209371v5.2950612c0 1.0806302-.540307 1.6209371-1.620937 1.6209371h-23.665682c-1.08063 0-1.620937-.5403069-1.620937-1.6209371v-5.2950612c0-1.0806301.540307-1.6209371 1.620937-1.6209371h5.186999v-22.368932c0-4.5386466-.576327-7.8525293-1.728999-9.9417476-1.152673-2.0892183-3.530023-3.1338117-7.132124-3.1338117-3.6021 0-6.591799 1.0806139-8.969185 3.2418742-2.377386 2.1612602-3.566062 4.6106518-3.566062 7.3482482v24.8543689h6.591811c1.08063 0 1.620937.540307 1.620937 1.6209371v5.2950612c0 1.0806302-.540307 1.6209371-1.620937 1.6209371h-24.530181c-1.08063 0-1.620937-.5403069-1.620937-1.6209371v-5.2950612c0-1.0806301.540307-1.6209371 1.620937-1.6209371h5.835373v-63.21654706h-5.835373c-1.08063 0-1.620937-.54030697-1.620937-1.62093711zm84.829041 64.83748417h6.807936c1.08063 0 1.620937.540307 1.620937 1.6209371v5.2950612c0 1.0806302-.540307 1.6209371-1.620937 1.6209371h-25.718868c-1.080631 0-1.620938-.5403069-1.620938-1.6209371v-5.2950612c0-1.0806301.540307-1.6209371 1.620938-1.6209371h6.807935v-36.0928662h-5.835373c-1.08063 0-1.620937-.540307-1.620937-1.6209371v-5.6192486c0-1.0806302.540307-1.6209371 1.620937-1.6209371h16.317433c1.08063 0 1.620937.5403069 1.620937 1.6209371zm-15.128746-60.0827353c0-2.23330232.702399-4.08835623 2.107218-5.56521742 1.40482-1.47686119 3.277884-2.21528071 5.619249-2.21528071s4.214429.73841952 5.619249 2.21528071c1.404819 1.47686119 2.107218 3.3319151 2.107218 5.56521742 0 2.2333023-.720409 4.0703459-2.16125 5.5111861-1.44084 1.4408402-3.331914 2.1612495-5.673279 2.1612495-2.341366 0-4.19642-.7204093-5.565218-2.1612495s-2.053187-3.2778838-2.053187-5.5111861zm27.339806 22.4769945v-5.7273111c0-1.0806302.540307-1.6209371 1.620937-1.6209371h14.696496c.936547 0 1.512874.5403069 1.729 1.6209371l.972562 6.2676235c4.034353-6.0515288 9.797627-9.0772478 17.289996-9.0772478 11.166512 0 16.749683 6.1234789 16.749683 18.3706205v27.7720557h6.267624c1.08063 0 1.620937.540307 1.620937 1.6209371v5.2950612c0 1.0806302-.540307 1.6209371-1.620937 1.6209371h-23.557619c-1.08063 0-1.620937-.5403069-1.620937-1.6209371v-5.2950612c0-1.0806301.540307-1.6209371 1.620937-1.6209371h5.186998v-22.368932c0-4.5386466-.576327-7.8525293-1.728999-9.9417476s-3.530023-3.1338117-7.132123-3.1338117c-3.602101 0-6.591799 1.0806139-8.969186 3.2418742-2.377386 2.1612602-3.566061 4.6106518-3.566061 7.3482482v24.8543689h6.699873c1.08063 0 1.620937.540307 1.620937 1.6209371v5.2950612c0 1.0806302-.540307 1.6209371-1.620937 1.6209371h-24.530181c-1.080631 0-1.620938-.5403069-1.620938-1.6209371v-5.2950612c0-1.0806301.540307-1.6209371 1.620938-1.6209371h5.727311v-36.0928662h-5.835374c-1.08063 0-1.620937-.5042865-1.620937-1.5128746zm84.829042-32.850992v43.116927h5.511186l16.749683-16.425496c.792462-.7924621 1.728994-1.1886872 2.809625-1.1886872h8.428873c1.08063 0 1.620937.5403069 1.620937 1.6209371v5.6192486c0 1.0806301-.540307 1.6209371-1.620937 1.6209371h-6.591811l-11.886872 11.5626847 14.804558 24.5301815h6.375686c1.080631 0 1.620938.540307 1.620938 1.6209371v5.2950612c0 1.0806302-.540307 1.6209371-1.620938 1.6209371h-13.940059c-1.008588 0-1.837059-.468266-2.485437-1.4048121l-16.209371-26.1511187h-3.566061v19.0189954h5.727311c1.08063 0 1.620937.540307 1.620937 1.6209371v5.2950612c0 1.0806302-.540307 1.6209371-1.620937 1.6209371h-23.557619c-1.080631 0-1.620938-.5403069-1.620938-1.6209371v-5.2950612c0-1.0806301.540307-1.6209371 1.620938-1.6209371h5.727311v-63.32460954h-5.835374c-1.08063 0-1.620937-.54030696-1.620937-1.6209371v-5.51118616c0-1.08063013.540307-1.6209371 1.620937-1.6209371h16.317434c1.08063 0 1.620937.54030697 1.620937 1.6209371zm44.845926 5.61924863c9.221377-.43225205 16.065266-.64837484 20.53187-.64837484 4.466605 0 7.798498.09005116 9.995779.27015618 2.197281.18010503 4.700704.5583199 7.510342 1.13465598 2.809638.57633607 5.313061 1.35077606 7.510342 2.32334315 2.197281.9725672 4.41254 2.359355 6.645842 4.1604053 2.233302 1.8010502 4.106366 3.8902371 5.619249 6.2676234 3.313932 5.4751927 4.970873 12.5352037 4.970873 21.1802449 0 13.0396036-3.602046 22.7471188-10.806247 29.1228366s-17.037788 9.5635289-29.501055 9.5635289h-22.476995c-1.08063 0-1.620937-.5403069-1.620937-1.6209371v-5.2950612c0-1.0806301.540307-1.6209371 1.620937-1.6209371h5.619249v-56.0844238h-5.619249c-1.08063 0-1.620937-.540307-1.620937-1.6209371v-5.51118616c0-1.08063014.540307-1.62093711 1.620937-1.62093711zm43.279021 57.16504857c4.358542-5.1870247 6.53778-12.2830562 6.53778-21.2883073 0-9.0052512-2.035157-15.8491394-6.10553-20.53187-4.070374-4.6827306-10.427986-7.0240608-19.073027-7.0240608h-6.915998v56.6247362h7.132123c7.924621 0 14.06611-2.5934735 18.424652-7.7804981zm28.366399 14.5884339v-5.2950612c0-1.0806301.540307-1.6209371 1.620937-1.6209371h5.727312v-56.0844238h-5.619249c-1.08063 0-1.620937-.540307-1.620937-1.6209371v-5.51118616c0-1.15267215.540307-1.72899958 1.620937-1.72899958 8.645041-.36021005 16.857707-.54031237 24.638244-.54031237s13.994067 1.49484927 18.640777 4.48459261c4.646709 2.9897434 6.970029 7.2581685 6.970029 12.8054032 0 4.0343525-1.242706 7.5463478-3.728155 10.5360911-2.48545 2.9897434-5.421117 5.1689815-8.807092 6.5377797 5.547235.8645041 9.779639 2.9176706 12.697341 6.159561 2.917701 3.2418904 4.37653 7.2041415 4.37653 11.8868721 0 6.1235708-2.269289 11.0763846-6.807936 14.8585901-4.538646 3.7822055-10.554064 5.9254231-18.046433 6.4297172-3.097806.216126-8.06863.3241874-14.912621.3241874h-15.128747c-1.08063 0-1.620937-.5403069-1.620937-1.6209371zm19.451246-32.4187421v25.7188688h4.862811c6.339697 0 11.25649-1.0085731 14.750528-3.0257493 3.494037-2.0171763 5.241029-5.5111613 5.241029-10.48206 0-8.140747-5.691233-12.2110595-17.07387-12.2110595zm0-31.2300548v22.2608695h4.106374c10.662217 0 15.993246-3.7101078 15.993246-11.1304348 0-4.1784365-1.296737-7.0780839-3.890249-8.6990291-2.593513-1.6209452-6.303621-2.4314056-11.130435-2.4314056z" fill="#204956"/></svg>