<svg width="24" height="24" viewBox="0 0 24 24" fill="none" xmlns="http://www.w3.org/2000/svg">
<path d="M13.5785 5.33379C13.9276 4.98463 13.9276 4.41854 13.5785 4.0694C13.2293 3.72025 12.6632 3.72026 12.3141 4.06942C11.9649 4.41858 11.9649 4.98467 12.3141 5.33381C12.6632 5.68296 13.2293 5.68295 13.5785 5.33379Z" fill="#5B87DA"/>
<path d="M16.1051 7.86124C16.4929 7.47347 16.4928 6.84479 16.1051 6.45703C15.7173 6.06928 15.0886 6.06929 14.7009 6.45706C14.3131 6.84483 14.3131 7.47352 14.7009 7.86127C15.0887 8.24902 15.7173 8.24901 16.1051 7.86124Z" fill="#5B87DA"/>
<path d="M18.6328 10.3887C19.0594 9.96206 19.0594 9.27039 18.6327 8.84378C18.2061 8.41718 17.5145 8.4172 17.0879 8.84381C16.6613 9.27043 16.6613 9.9621 17.0879 10.3887C17.5145 10.8153 18.2062 10.8153 18.6328 10.3887Z" fill="#5B87DA"/>
<path d="M21.1577 12.9135C21.6229 12.4483 21.6229 11.694 21.1577 11.2288C20.6924 10.7636 19.9382 10.7636 19.473 11.2288C19.0077 11.6941 19.0078 12.4483 19.473 12.9135C19.9382 13.3787 20.6925 13.3787 21.1577 12.9135Z" fill="#5B87DA"/>
<path d="M8.59598 5.26315C8.90628 4.95284 8.90627 4.44973 8.59596 4.13943C8.28565 3.82913 7.78255 3.82915 7.47225 4.13946C7.16195 4.44977 7.16195 4.95287 7.47226 5.26317C7.78257 5.57347 8.28568 5.57346 8.59598 5.26315Z" fill="#1EDCFF"/>
<path d="M11.1235 7.79149C11.4727 7.44233 11.4727 6.87624 11.1235 6.5271C10.7743 6.17795 10.2083 6.17797 9.85911 6.52712C9.50997 6.87628 9.50998 7.44237 9.85913 7.79151C10.2083 8.14066 10.7744 8.14065 11.1235 7.79149Z" fill="#1EDCFF"/>
<path d="M13.6481 10.316C14.0358 9.92819 14.0358 9.2995 13.648 8.91175C13.2603 8.52399 12.6316 8.52401 12.2438 8.91177C11.8561 9.29954 11.8561 9.92823 12.2439 10.316C12.6316 10.7037 13.2603 10.7037 13.6481 10.316Z" fill="#1EDCFF"/>
<path d="M16.1751 12.8421C16.6017 12.4155 16.6017 11.7238 16.1751 11.2972C15.7485 10.8706 15.0568 10.8706 14.6302 11.2972C14.2036 11.7238 14.2036 12.4155 14.6302 12.8421C15.0569 13.2687 15.7485 13.2687 16.1751 12.8421Z" fill="#1EDCFF"/>
<path d="M18.7022 15.3708C19.1675 14.9056 19.1674 14.1513 18.7022 13.6861C18.237 13.2209 17.4827 13.2209 17.0175 13.6861C16.5523 14.1514 16.5523 14.9056 17.0175 15.3708C17.4828 15.8361 18.237 15.836 18.7022 15.3708Z" fill="#1EDCFF"/>
<path d="M3.61745 5.19633C3.88914 4.92463 3.88914 4.48412 3.61744 4.21243C3.34574 3.94074 2.90523 3.94075 2.63354 4.21245C2.36185 4.48415 2.36186 4.92465 2.63356 5.19634C2.90526 5.46803 3.34576 5.46803 3.61745 5.19633Z" fill="black"/>
<path d="M6.14016 7.71908C6.45046 7.40877 6.45046 6.90566 6.14015 6.59537C5.82984 6.28507 5.32674 6.28508 5.01644 6.59539C4.70614 6.9057 4.70614 7.4088 5.01645 7.7191C5.32676 8.0294 5.82987 8.02939 6.14016 7.71908Z" fill="black"/>
<path d="M8.66906 10.2486C9.01821 9.89949 9.0182 9.3334 8.66904 8.98425C8.31988 8.63511 7.75379 8.63512 7.40465 8.98428C7.0555 9.33344 7.05551 9.89953 7.40467 10.2487C7.75383 10.5978 8.31991 10.5978 8.66906 10.2486Z" fill="black"/>
<path d="M11.1948 12.7744C11.5826 12.3867 11.5826 11.758 11.1948 11.3702C10.807 10.9825 10.1783 10.9825 9.79059 11.3702C9.40284 11.758 9.40285 12.3867 9.79062 12.7744C10.1784 13.1622 10.8071 13.1622 11.1948 12.7744Z" fill="black"/>
<path d="M13.7207 15.301C14.1473 14.8743 14.1473 14.1827 13.7206 13.7561C13.294 13.3295 12.6024 13.3295 12.1758 13.7561C11.7492 14.1827 11.7492 14.8744 12.1758 15.301C12.6024 15.7276 13.2941 15.7276 13.7207 15.301Z" fill="black"/>
<path d="M16.2446 17.8241C16.7098 17.3588 16.7098 16.6046 16.2446 16.1394C15.7793 15.6741 15.0251 15.6742 14.5599 16.1394C14.0947 16.6046 14.0947 17.3589 14.5599 17.8241C15.0251 18.2893 15.7794 18.2893 16.2446 17.8241Z" fill="black"/>
<path d="M8.59656 15.0868C8.90689 14.7765 8.90689 14.2733 8.59654 13.9629C8.28619 13.6526 7.78302 13.6526 7.47268 13.963C7.16234 14.2733 7.16235 14.7765 7.4727 15.0868C7.78305 15.3972 8.28622 15.3972 8.59656 15.0868Z" fill="#5B87DA"/>
<path d="M6.14087 17.5426C6.45121 17.2322 6.4512 16.7291 6.14085 16.4187C5.8305 16.1084 5.32733 16.1084 5.017 16.4187C4.70666 16.7291 4.70667 17.2323 5.01702 17.5426C5.32736 17.8529 5.83053 17.8529 6.14087 17.5426Z" fill="#5B87DA"/>
<path d="M3.68579 20.0003C3.99613 19.6899 3.99612 19.1867 3.68577 18.8764C3.37542 18.5661 2.87225 18.5661 2.56192 18.8764C2.25158 19.1868 2.25159 19.6899 2.56194 20.0003C2.87229 20.3106 3.37545 20.3106 3.68579 20.0003Z" fill="#5B87DA"/>
<path d="M8.5968 19.9989C8.90714 19.6885 8.90713 19.1854 8.59678 18.875C8.28643 18.5647 7.78326 18.5647 7.47293 18.875C7.16259 19.1854 7.1626 19.6886 7.47295 19.9989C7.7833 20.3092 8.28646 20.3092 8.5968 19.9989Z" fill="#5B87DA"/>
<path d="M13.5092 20.0007C13.8195 19.6904 13.8195 19.1872 13.5091 18.8769C13.1988 18.5665 12.6956 18.5665 12.3853 18.8769C12.0749 19.1872 12.075 19.6904 12.3853 20.0007C12.6956 20.3111 13.1988 20.3111 13.5092 20.0007Z" fill="#5B87DA"/>
<path d="M11.0522 17.5425C11.3626 17.2321 11.3626 16.729 11.0522 16.4186C10.7419 16.1083 10.2387 16.1083 9.92837 16.4187C9.61803 16.729 9.61804 17.2322 9.92839 17.5425C10.2387 17.8528 10.7419 17.8528 11.0522 17.5425Z" fill="#5B87DA"/>
</svg>
