<svg width="100%" height="100%" viewBox="0 0 24 24" fill="none" xmlns="http://www.w3.org/2000/svg">
<path d="M12.994 23.3236L12.3298 22.6472L12.3244 18.2135L12.3191 13.7798L12.2757 13.7736C12.2338 13.7676 11.0381 14.367 7.67685 16.0787C6.81876 16.5156 6.11174 16.8683 6.10573 16.8623C6.09971 16.8562 6.11629 16.7533 6.14258 16.6334C6.59448 14.5724 7.74642 12.2794 9.17943 10.5884C10.3917 9.15785 11.836 7.98524 13.5041 7.07724L13.6688 6.98757V11.5153L13.7221 11.5287C13.8595 11.5632 14.4217 11.2114 14.743 10.8899C15.0809 10.5518 15.3018 10.1929 15.4548 9.73322C15.7341 8.89379 15.609 7.94426 15.1219 7.20856C14.9505 6.94952 14.7543 6.73614 13.298 5.22446C11.7079 3.57392 11.5381 3.39015 11.3503 3.11601C11.2063 2.9058 11.1144 2.71324 11.048 2.48249C10.9804 2.24785 10.9817 1.75712 11.0505 1.51536C11.1844 1.04464 11.4969 0.610746 11.8903 0.349664C12.1444 0.181001 12.5624 0.0222852 12.7748 0.0138255C12.8567 0.0138255 12.9993 -0.02047 13.2756 0.0189693C13.8749 0.104502 14.4603 0.489802 14.9005 1.08827C15.1015 1.36166 16.8817 4.24976 17.778 5.75679C17.9146 5.98635 17.9319 6.05011 17.8323 5.95644C17.7063 5.8379 14.9925 3.00119 14.3453 2.3114C13.6023 1.51955 13.5184 1.44007 13.3287 1.34838C13.2049 1.28846 13.1708 1.28159 12.9993 1.28198C12.7616 1.28251 12.6497 1.33059 12.4753 1.50728C12.3117 1.67312 12.2585 1.81356 12.2709 2.04675C12.281 2.23622 12.333 2.36355 12.4646 2.52111C12.5056 2.57015 13.1928 3.29171 13.9917 4.12461C14.7907 4.95749 15.544 5.74416 15.6658 5.87276C16.2523 6.49182 16.6156 7.17449 16.7853 7.97636C16.8595 8.32682 16.88 9.02345 16.827 9.39055C16.7175 10.1481 16.397 10.8817 15.9217 11.463C15.7396 11.6856 15.3619 12.0397 15.1347 12.2008C14.8645 12.3923 14.746 12.461 14.1708 12.7596L13.6795 13.0146L13.6688 18.5073L13.6582 24L12.994 23.3236ZM9.58631 13.7006C11.0277 12.9616 11.9878 12.4651 12.1308 12.3847C12.3337 12.2707 12.3183 12.3919 12.3252 10.8572C12.3286 10.1148 12.326 9.48593 12.3195 9.45963C12.2985 9.37461 12.2138 9.39969 12.0358 9.54381C10.5292 10.7633 9.39328 12.1582 8.45393 13.9423C8.28914 14.2553 8.27212 14.3442 8.38379 14.3088C8.40724 14.3014 8.94834 14.0277 9.58628 13.7006H9.58631Z" fill="#C62B47"/>
</svg>
