<?xml version="1.0" standalone="no"?>
<!DOCTYPE svg PUBLIC "-//W3C//DTD SVG 20010904//EN"
 "http://www.w3.org/TR/2001/REC-SVG-20010904/DTD/svg10.dtd">
<svg version="1.0" xmlns="http://www.w3.org/2000/svg"
 width="2401.000000pt" height="362.000000pt" viewBox="0 0 2401.000000 362.000000"
 preserveAspectRatio="xMidYMid meet">

<g transform="translate(0.000000,362.000000) scale(0.100000,-0.100000)"
fill="#C72C48" stroke="none">
<path d="M20825 3603 c-1274 -82 -2189 -582 -2439 -1333 -60 -181 -71 -252
-71 -465 0 -212 11 -284 71 -464 218 -654 938 -1122 1974 -1281 432 -67 956
-76 1410 -24 630 71 1168 255 1560 532 127 89 339 302 417 417 344 510 338
1164 -14 1658 -121 170 -343 368 -554 495 -429 257 -999 416 -1657 461 -139
10 -571 12 -697 4z m625 -463 c1047 -73 1743 -485 1877 -1111 21 -100 24 -332
4 -424 -58 -278 -202 -499 -441 -679 -364 -274 -859 -422 -1527 -456 -540 -28
-1095 49 -1496 207 -624 245 -955 701 -899 1236 28 265 121 457 317 652 117
118 218 191 376 274 324 170 758 278 1229 304 134 8 427 6 560 -3z"/>
<path d="M258 3531 c-76 -25 -119 -53 -172 -112 -82 -92 -76 54 -76 -1746 l0
-1603 670 0 670 0 0 760 c0 830 -2 796 57 836 18 12 45 18 78 17 46 0 109 -32
845 -429 545 -293 815 -434 860 -446 89 -25 210 -24 295 3 36 11 442 214 902
451 833 429 835 430 886 425 42 -4 56 -10 84 -41 l33 -36 0 -770 0 -770 670 0
670 0 0 1603 c0 1041 -4 1615 -10 1638 -24 86 -107 171 -208 211 -71 28 -223
31 -288 7 -23 -9 -646 -340 -1385 -737 -739 -396 -1367 -733 -1396 -747 -39
-21 -60 -26 -85 -21 -18 3 -653 338 -1410 745 -757 406 -1396 746 -1420 756
-65 26 -200 30 -270 6z"/>
<path d="M7790 1805 l0 -1745 673 2 672 3 3 1743 2 1742 -675 0 -675 0 0
-1745z"/>
<path d="M10466 3539 c-104 -25 -205 -105 -250 -199 l-21 -45 -3 -1613 -2
-1612 675 0 675 0 0 795 c0 877 -2 846 62 885 18 11 51 20 73 20 31 0 402
-169 1835 -837 987 -460 1817 -843 1843 -851 68 -20 196 -12 269 17 75 29 150
98 185 169 l28 57 3 1613 2 1612 -685 0 -685 0 0 -813 c0 -893 4 -839 -60
-872 -72 -37 4 -70 -1879 812 -971 455 -1795 837 -1831 850 -69 24 -162 29
-234 12z"/>
<path d="M16892 1808 l3 -1743 308 -3 307 -2 0 1745 0 1745 -310 0 -310 0 2
-1742z"/>
</g>
</svg>
