<svg width="13" height="14" viewBox="0 0 13 14" fill="none" xmlns="http://www.w3.org/2000/svg">
  <path
    d="M2.61247 13.2459C2.25691 13.2459 1.94858 13.1154 1.68747 12.8543C1.42636 12.5932 1.2958 12.2848 1.2958 11.9293V2.59595H1.11247C0.923579 2.59595 0.765245 2.53206 0.637467 2.40428C0.50969 2.2765 0.445801 2.11817 0.445801 1.92928C0.445801 1.74039 0.50969 1.58206 0.637467 1.45428C0.765245 1.3265 0.923579 1.26261 1.11247 1.26261H3.9958C3.9958 1.07373 4.05969 0.915392 4.18747 0.787614C4.31524 0.659836 4.47358 0.595947 4.66247 0.595947H8.02913C8.21802 0.595947 8.37913 0.662614 8.51247 0.795947C8.6458 0.929281 8.71247 1.08484 8.71247 1.26261H11.5791C11.768 1.26261 11.9264 1.3265 12.0541 1.45428C12.1819 1.58206 12.2458 1.74039 12.2458 1.92928C12.2458 2.11817 12.1819 2.2765 12.0541 2.40428C11.9264 2.53206 11.768 2.59595 11.5791 2.59595H11.3958V11.9293C11.3958 12.2848 11.2652 12.5932 11.0041 12.8543C10.743 13.1154 10.4347 13.2459 10.0791 13.2459H2.61247ZM2.61247 2.59595V11.9293H10.0791V2.59595H2.61247ZM4.3458 9.99595C4.3458 10.1515 4.40136 10.2848 4.51247 10.3959C4.62358 10.5071 4.75691 10.5626 4.91247 10.5626C5.07913 10.5626 5.21802 10.5071 5.32913 10.3959C5.44025 10.2848 5.4958 10.1515 5.4958 9.99595V4.51261C5.4958 4.34595 5.43747 4.20428 5.3208 4.08761C5.20413 3.97095 5.06802 3.91261 4.91247 3.91261C4.7458 3.91261 4.60969 3.97095 4.50413 4.08761C4.39858 4.20428 4.3458 4.34595 4.3458 4.51261V9.99595ZM7.1958 9.99595C7.1958 10.1515 7.25413 10.2848 7.3708 10.3959C7.48747 10.5071 7.62358 10.5626 7.77913 10.5626C7.9458 10.5626 8.08469 10.5071 8.1958 10.3959C8.30691 10.2848 8.36247 10.1515 8.36247 9.99595V4.51261C8.36247 4.34595 8.30413 4.20428 8.18747 4.08761C8.0708 3.97095 7.93469 3.91261 7.77913 3.91261C7.61247 3.91261 7.47358 3.97095 7.36247 4.08761C7.25136 4.20428 7.1958 4.34595 7.1958 4.51261V9.99595ZM2.61247 2.59595V11.9293V2.59595Z"
    fill="#EB1414"
  />
</svg>