<svg width="24" height="24" viewBox="0 0 24 24" fill="none" xmlns="http://www.w3.org/2000/svg">
<g clip-path="url(#clip0_830_24)">
<path d="M3.36364 19.8148H6.54545V12.183L2 8.81595V18.468C2 19.2133 2.61136 19.8148 3.36364 19.8148Z" fill="#4285F4"/>
<path d="M17.4545 19.8148H20.6363C21.3909 19.8148 22 19.211 22 18.468V8.81595L17.4545 12.183" fill="#34A853"/>
<path d="M17.4545 6.34681V12.1829L22 8.81594V7.02021C22 5.35466 20.075 4.40517 18.7273 5.40405" fill="#FBBC04"/>
<path d="M6.54546 12.1829V6.3468L12 10.3872L17.4545 6.3468V12.1829L12 16.2233" fill="#EA4335"/>
<path d="M2 7.02021V8.81594L6.54545 12.1829V6.34681L5.27273 5.40405C3.92273 4.40517 2 5.35466 2 7.02021Z" fill="#C5221F"/>
</g>
<defs>
<clipPath id="clip0_830_24">
<rect width="20" height="14.8148" fill="white" transform="translate(2 5)"/>
</clipPath>
</defs>
</svg>
