<?xml version="1.0" encoding="UTF-8" standalone="no"?>
<svg
   width="400"
   height="400"
   viewBox="0 0 17200 5520"
   xmlns="http://www.w3.org/2000/svg">
  <defs
     id="defs54">
    <style
       id="style52">.cls-1{fill:#282828;}.cls-2{fill:#f06b66;}.cls-3{fill:#1e2224;}.cls-4{fill:#272727;}</style>
  </defs>
  <path
     class="cls-2"
     d="m 192.82,277.51 a 27.5,27.5 0 1 1 27.5,-27.51 27.54,27.54 0 0 1 -27.5,27.51 z"
     id="path56" />
  <path
     class="cls-2"
     d="M 8599.3279,11359.997 C 3859.1035,11359.997 0,7501.1964 0,2759.9988 0,-1981.1981 3859.1035,-5840 8599.3279,-5840 13339.552,-5840 17200,-1982.5422 17200,2759.9988 a 2773.7167,2773.4997 0 0 1 -4230.456,2361.8648 l -39.867,-24.636 -22.847,41.209 a 4918.0612,4917.6766 0 1 1 613.695,-2378.4378 903.07078,903.00015 0 1 0 1806.141,0 c 0,-3709.1971 -3017.85,-6726.8117 -6727.3381,-6726.8117 -3709.4877,0 -6727.3379,3017.6146 -6727.3379,6726.8117 0,3709.1976 3017.4023,6726.8116 6727.3379,6726.8116 a 6716.5872,6716.0617 0 0 0 5125.0141,-2369.031 l 1433.446,1204 A 8583.6496,8582.978 0 0 1 8599.3279,11359.997 Z m 0,-11645.8311 A 3049.2069,3048.9684 0 1 0 11648.086,2759.9988 3052.3426,3052.1038 0 0 0 8599.3279,-288.5216 Z"
     id="path58"
     style="stroke-width:44.7933" />
</svg>
