<svg width="100%" height="100%" viewBox="0 0 24 24" fill="none" xmlns="http://www.w3.org/2000/svg">
<g clip-path="url(#clip0_817_123559)">
<path d="M11.9998 9.92307C13.1471 9.92307 14.077 10.8528 14.077 11.9997C14.077 13.1469 13.1471 14.0768 11.9998 14.0768C10.8529 14.0768 9.92297 13.1467 9.92297 11.9997C9.92297 10.8528 10.8529 9.92307 11.9998 9.92307ZM4.92309 11.9997C4.92309 8.09129 8.09147 4.923 11.9998 4.923C15.9087 4.923 19.0768 8.09129 19.0768 11.9997C19.0768 12.2585 19.063 12.5137 19.0359 12.7647C18.9822 13.4546 19.4885 13.9812 20.174 13.9812C21.3373 13.9812 21.4613 12.4812 21.4613 11.9997C21.4613 6.7741 17.2253 2.53829 11.9998 2.53829C6.77428 2.53829 2.53847 6.77419 2.53847 11.9997C2.53847 17.225 6.77428 21.461 11.9997 21.461C14.7749 21.461 17.271 20.2669 19.0018 18.3639L20.9468 19.9973C18.7498 22.4532 15.5553 24.0002 11.9998 24.0002C5.37244 24.0002 0 18.6272 0 11.9997C0 5.37225 5.37244 -0.000183105 11.9998 -0.000183105C18.6276 -0.000183105 24 5.37225 24 11.9998C24 14.6637 22.7316 16.827 20.1838 16.827C19.0626 16.827 18.381 16.3133 18.0088 15.7399C16.7591 17.7431 14.5356 19.077 11.9998 19.077C8.09138 19.077 4.92309 15.9082 4.92309 11.9998V11.9997ZM11.9998 7.46129C9.4935 7.46129 7.46137 9.49313 7.46137 11.9997C7.46137 14.5063 9.4935 16.5383 11.9998 16.5383C14.5063 16.5383 16.5385 14.5063 16.5385 11.9997C16.5385 9.49313 14.5063 7.46129 11.9998 7.46129Z" fill="#AF252A"/>
</g>
<defs>
<clipPath id="clip0_817_123559">
<rect width="24" height="24" fill="white"/>
</clipPath>
</defs>
</svg>
