<svg id="Layer_1" data-name="Layer 1" xmlns="http://www.w3.org/2000/svg" width="1920" height="568" viewBox="0 0 1920 568"><defs><style>.cls-1{fill:#f06b66;}.cls-2{fill:#131b20;}</style></defs><path class="cls-1" d="M197.31,256a27.5,27.5,0,1,1,27.5-27.5A27.54,27.54,0,0,1,197.31,256Z"/><path class="cls-1" d="M197.31,420.46c-105.85,0-192-86.12-192-192s86.12-192,192-192,192,86.12,192,192a61.92,61.92,0,0,1-94.44,52.73l-.89-.55-.51.92a109.79,109.79,0,1,1,13.73-53.1,20.16,20.16,0,0,0,40.32,0c0-82.81-67.37-150.18-150.18-150.18S47.13,145.68,47.13,228.49,114.5,378.66,197.31,378.66a149.93,149.93,0,0,0,114.41-52.88l32,26.88A191.63,191.63,0,0,1,197.31,420.46Zm0-260a68.06,68.06,0,1,0,68.06,68.06A68.14,68.14,0,0,0,197.31,160.43Z"/><path class="cls-2" d="M490.84,136.49h40v23a79.39,79.39,0,0,1,13.4-14.3,50.56,50.56,0,0,1,14.9-8.4,53.89,53.89,0,0,1,18.3-2.9q22,0,39.2,10a86,86,0,0,1,29,28.2q11.6-18.4,29-28.3t39-9.9q25,0,44.8,12.7a86.42,86.42,0,0,1,30.8,34.4,103.56,103.56,0,0,1,11,47.5v108h-40v-108a65.26,65.26,0,0,0-5.7-27.6,47.38,47.38,0,0,0-16.3-19.7,42.3,42.3,0,0,0-24.6-7.3,43.81,43.81,0,0,0-24.8,7.3,48.84,48.84,0,0,0-17.1,19.8,61.8,61.8,0,0,0-6.1,27.5v108h-40v-108a61.06,61.06,0,0,0-6.2-27.5,49.75,49.75,0,0,0-17.2-19.8,43.83,43.83,0,0,0-24.8-7.3,39.46,39.46,0,0,0-23.8,7.7,52.65,52.65,0,0,0-16.7,20.6,64.82,64.82,0,0,0-6.1,28.1v106.2h-40Z"/><path class="cls-2" d="M1036,136.49v200H996v-30.4a77.36,77.36,0,0,1-26.6,26.1q-16.2,9.49-37,9.5a102,102,0,0,1-52.7-14.2,106.52,106.52,0,0,1-38.3-38.3,105.45,105.45,0,0,1,0-105.7,106.1,106.1,0,0,1,38.3-38.4,101.89,101.89,0,0,1,52.7-14.2q20.79,0,37,9.5a77.19,77.19,0,0,1,26.6,26.1v-30Zm-103.2,166.6q17.6,0,31.2-9a60.77,60.77,0,0,0,21.1-24.1,74.29,74.29,0,0,0,7.5-33.5,75.33,75.33,0,0,0-7.5-33.8,59.77,59.77,0,0,0-21.1-24.1q-13.6-8.91-31.2-8.9a61.16,61.16,0,0,0-32.4,9,67.22,67.22,0,0,0-32.2,57.8,65.47,65.47,0,0,0,8.8,33.4,67,67,0,0,0,23.7,24.2A61,61,0,0,0,932.84,303.09Z"/><path class="cls-2" d="M1126,136.49v200h-40v-200Z"/><path class="cls-2" d="M1176,36.49h39.8v299.8H1176Z"/><path class="cls-2" d="M1411.84,136.49v29.4a75.75,75.75,0,0,0-26.1-25.5q-15.9-9.3-35.9-9.3a98.19,98.19,0,0,0-51.6,14.2,105.27,105.27,0,0,0-37.5,38.4,107,107,0,0,0,0,105.5,105.45,105.45,0,0,0,37.5,38.3,98.28,98.28,0,0,0,51.6,14.2q20,0,35.9-9.3a75.75,75.75,0,0,0,26.1-25.5v35a46,46,0,0,1-9.2,27.9,62,62,0,0,1-24.2,19.5,74.85,74.85,0,0,1-32,7,58.47,58.47,0,0,1-25-5.7,66.15,66.15,0,0,1-21.3-15.8,63.31,63.31,0,0,1-4.73-5.9h-45a104.36,104.36,0,0,0,21.9,34.4,107.48,107.48,0,0,0,34.1,24.4,96,96,0,0,0,40,8.8,112.72,112.72,0,0,0,51.8-12.3,101.86,101.86,0,0,0,38.9-34,84.23,84.23,0,0,0,14.7-48.3V136.49Zm-10,133.3a59.88,59.88,0,0,1-20.9,24.3,54.07,54.07,0,0,1-30.7,9,58.29,58.29,0,0,1-31.2-8.9,64.19,64.19,0,0,1-22.8-24.2,68.47,68.47,0,0,1-8.4-33.5,69.17,69.17,0,0,1,8.3-33.5,64.19,64.19,0,0,1,22.7-24.3,58.13,58.13,0,0,1,31.4-9,53.75,53.75,0,0,1,30.5,9,60.63,60.63,0,0,1,21,24.3,78.6,78.6,0,0,1,.1,66.8Z"/><path class="cls-2" d="M1488.84,136.49h40v104A69.08,69.08,0,0,0,1536,272a57.77,57.77,0,0,0,19.9,22.7,50.17,50.17,0,0,0,28.3,8.4,47.09,47.09,0,0,0,27.5-8.4,55.9,55.9,0,0,0,18.8-22.7,73.46,73.46,0,0,0,6.7-31.5v-104h40v200h-40v-28a82.5,82.5,0,0,1-26.1,24.6,64.64,64.64,0,0,1-33.1,8.8q-26.2,0-46.4-13.5a90.59,90.59,0,0,1-31.4-36.5q-11.21-23-11.4-50.6Z"/><path class="cls-2" d="M1915.64,336.49h-40V232.09a69.2,69.2,0,0,0-7.2-31.4,57.35,57.35,0,0,0-20-22.8,50.36,50.36,0,0,0-28.2-8.4,47,47,0,0,0-27.5,8.4,55.68,55.68,0,0,0-18.8,22.7,73.25,73.25,0,0,0-6.7,31.5v104.4h-40v-200h40v27.8a80.17,80.17,0,0,1,25.9-24.6,64.87,64.87,0,0,1,33.3-8.8q26.19,0,46.4,13.5a89.92,89.92,0,0,1,31.3,36.5,118.51,118.51,0,0,1,11.5,50.4Z"/><circle class="cls-2" cx="1106.04" cy="87.32" r="21.2"/><path class="cls-2" d="M1598.6,524.58l15.5-9q4.62,9.23,15.5,9.23c6.9,0,11.08-3.08,11.08-7.51s-5.91-5.9-16-8c-13.9-3.07-22.88-8.73-22.88-20.54,0-12.68,12.92-21.41,27.31-21.41,12.31,0,20.8,3.32,28.3,12.67l-14.89,8.49c-2.83-4.92-7-7.26-13.16-7.26-6.4,0-9.84,2.83-9.84,6.64,0,4.68,7,5.66,16.48,8,12.92,3.32,22.89,7.75,22.89,20.8,0,13.41-13.17,22.64-29.65,22.64C1615.58,539.22,1605.24,535.41,1598.6,524.58Zm69.76,12.8V477.46l17.48-10.09v70Zm29.66,0V500.59c0-18.83,13.9-33.22,33.22-33.22,19.56,0,33.22,15.38,33.22,33.22v36.79h-17.72V501.82c0-10.83-6.64-17.23-15.5-17.23-9.72,0-15.5,6.89-15.5,17.23v35.56Zm75.92-34.21c0-21,15.13-35.8,36.29-35.8,13.17,0,25,6.89,30.64,17.47l-15.13,9a17.38,17.38,0,0,0-15.75-9.47c-10.34,0-18.21,7.75-18.21,18.82,0,10.83,7.26,19.07,18.21,19.07,7,0,13.16-3.56,16-9.47l15.14,8.74a35.22,35.22,0,0,1-30.89,17.71C1789.32,539.22,1773.94,524.21,1773.94,503.17Zm76.65,34.21V448.29l17.47-10.09v34.46a29.66,29.66,0,0,1,16.25-5.17c19.31,0,32.73,13.16,32.73,32.73v37.16h-17.72V501.82c0-10.83-6.65-17.23-15.51-17.23-9.72,0-15.5,6.89-15.5,17.23v35.56Z"/><path class="cls-2" d="M1491.92,507.23c0,18.09-13.91,32.24-31,32.24-10.46,0-18.21-4.68-23.13-12.06V538h-10.71V452.35h10.71V487.3c4.92-7.51,12.67-12.06,23.13-12.06C1478,475.12,1491.92,489.14,1491.92,507.23Zm-10.71,0c0-12.43-9.47-21.9-21.65-21.9a21.9,21.9,0,0,0,0,43.8C1471.86,529.13,1481.21,519.66,1481.21,507.23Z"/><path class="cls-2" d="M1556.27,476.59l-25,65c-5.17,13.66-14.64,21.53-27.19,20.67v-10c8.24.61,13.29-4.43,16.49-12.43l1.11-2.34L1495,476.59h11.45l20.79,48,17.6-48Z"/></svg>
