<svg width="738" height="119" viewBox="0 0 738 119" fill="none" xmlns="http://www.w3.org/2000/svg">
<g clip-path="url(#clip0_398_48)">
<path d="M149.256 71.2509L134.789 91.9609L132.654 95.0009L120.322 112.647V112.671L116.053 118.751H58.1367L62.4057 112.647L74.762 95.0009H103.696L105.831 91.9609L120.322 71.2509L105.831 50.5409L103.696 47.5009H79.0073L91.3636 29.8546V29.8309L95.6326 23.7509H116.053L120.322 29.8309V29.8546L132.654 47.5009L134.789 50.5409L149.256 71.2509Z" fill="#4368E3"/>
<path d="M62.4057 71.2509L47.9386 91.9609L45.8041 95.0009L29.2025 118.751H0.244568L16.8462 95.0009L33.4478 71.2509L16.8462 47.5009L0.244568 23.7509H29.2025L45.8041 47.5009L47.9386 50.5409L62.4057 71.2509Z" fill="#4368E3"/>
<path d="M196.547 112.837V41.3259H173.542V29.6884H232.359V41.3496H209.354V112.837H196.547Z" fill="white"/>
<path d="M260.107 114.262C254.249 114.262 249.055 113.051 244.502 110.628C239.948 108.23 236.367 104.738 233.758 100.226C231.149 95.7134 229.845 90.3696 229.845 84.1946V82.4134C229.845 76.2384 231.149 70.9184 233.758 66.4534C236.391 61.9884 239.948 58.4971 244.502 56.0509C249.055 53.6046 254.249 52.3696 260.107 52.3696C265.965 52.3696 271.183 53.6046 275.76 56.0509C280.337 58.4971 283.942 61.9646 286.575 66.4534C289.207 70.9421 290.488 76.2384 290.488 82.4134V84.1946C290.488 90.3696 289.184 95.7134 286.575 100.226C283.942 104.738 280.385 108.206 275.76 110.628C271.183 113.027 265.965 114.262 260.107 114.262ZM260.107 103.313C265.467 103.313 269.855 101.603 273.222 98.1359C276.59 94.6921 278.274 89.9184 278.274 83.8384V82.7696C278.274 76.6896 276.614 71.9159 273.294 68.4721C269.949 65.0046 265.586 63.2946 260.131 63.2946C254.676 63.2946 250.502 65.0046 247.134 68.4721C243.766 71.9159 242.082 76.6896 242.082 82.7696V83.8384C242.082 89.9421 243.766 94.6921 247.134 98.1359C250.502 101.58 254.818 103.313 260.131 103.313H260.107Z" fill="white"/>
<path d="M330.877 114.262C325.019 114.262 319.825 113.051 315.272 110.628C310.718 108.23 307.137 104.738 304.528 100.226C301.919 95.7134 300.615 90.3696 300.615 84.1946V82.4134C300.615 76.2384 301.919 70.9184 304.528 66.4534C307.161 61.9884 310.718 58.4971 315.272 56.0509C319.825 53.6046 325.019 52.3696 330.877 52.3696C336.735 52.3696 341.953 53.6046 346.53 56.0509C351.108 58.4971 354.712 61.9646 357.345 66.4534C359.978 70.9421 361.258 76.2384 361.258 82.4134V84.1946C361.258 90.3696 359.954 95.7134 357.345 100.226C354.712 104.738 351.155 108.206 346.53 110.628C341.953 113.027 336.735 114.262 330.877 114.262ZM330.877 103.313C336.237 103.313 340.625 101.603 343.993 98.1359C347.36 94.6921 349.044 89.9184 349.044 83.8384V82.7696C349.044 76.6896 347.384 71.9159 344.064 68.4721C340.72 65.0046 336.356 63.2946 330.901 63.2946C325.446 63.2946 321.272 65.0046 317.904 68.4721C314.537 71.9159 312.853 76.6896 312.853 82.7696V83.8384C312.853 89.9421 314.537 94.6921 317.904 98.1359C321.272 101.58 325.589 103.313 330.901 103.313H330.877Z" fill="white"/>
<path d="M372.642 113.098V29.7122H384.88V113.098H372.642Z" fill="white"/>
<path d="M424.558 114.5C416.257 114.5 409.664 112.196 404.731 107.565C399.821 102.933 397.379 96.3784 397.379 87.9234V80.7746H410.186V87.9234C410.186 92.3646 411.395 95.9034 413.814 98.5396C416.21 101.2 419.72 102.506 424.297 102.506C428.874 102.506 432.005 101.2 434.139 98.5871C436.274 95.9984 437.341 92.4121 437.341 87.8996V41.3259H419.791V29.6884H459.421V41.3496H450.148V87.8996C450.148 96.5446 447.919 103.1 443.436 107.66C438.978 112.22 432.645 114.476 424.51 114.476L424.558 114.5Z" fill="white"/>
<path d="M491.699 114.5C485.77 114.5 480.576 113.241 476.165 110.747C471.73 108.253 468.267 104.738 465.777 100.178C463.287 95.6184 462.03 90.3459 462.03 84.3371V82.9121C462.03 76.8084 463.263 71.4884 465.706 66.9521C468.149 62.3921 471.588 58.8771 475.975 56.3834C480.363 53.8896 485.462 52.6309 491.225 52.6309C496.988 52.6309 501.755 53.8896 506.001 56.3834C510.246 58.8771 513.519 62.3446 515.89 66.7859C518.262 71.2271 519.448 76.4046 519.448 82.3421V86.9734H474.481C474.624 92.1271 476.379 96.2121 479.651 99.2521C482.924 102.292 487.027 103.812 491.937 103.812C496.846 103.812 499.977 102.791 502.324 100.725C504.649 98.6584 506.475 96.2834 507.708 93.6234L517.811 98.8484C516.72 101.057 515.084 103.408 512.997 105.855C510.886 108.301 508.135 110.367 504.744 112.03C501.328 113.692 496.988 114.523 491.676 114.523H491.699V114.5ZM474.624 77.5684H507.02C506.712 73.1271 505.099 69.6596 502.277 67.1659C499.431 64.6721 495.708 63.4134 491.13 63.4134C486.553 63.4134 482.806 64.6721 479.912 67.1659C477.019 69.6596 475.264 73.1271 474.647 77.5684H474.624Z" fill="white"/>
<path d="M547.173 113.098C543.615 113.098 540.769 112.03 538.706 109.892C536.595 107.755 535.575 104.905 535.575 101.342V62.9621H525.946V52.6308H535.575V41.3496L547.813 34.9608V52.6308H565.268V62.9621H547.813V99.2046C547.813 101.58 548.904 102.767 551.157 102.767H565.268V113.098H547.196H547.173Z" fill="white"/>
</g>
<path d="M588.683 0.789475H602.367C608.245 0.789475 612.587 2.74123 615.394 6.64474C618.245 10.5482 619.67 16.25 619.67 23.75C619.67 31.25 618.245 36.9518 615.394 40.8553C612.587 44.7588 608.245 46.7105 602.367 46.7105H588.683V0.789475ZM601.907 40.6579C605.284 40.6579 607.784 39.5395 609.407 37.3026C611.073 35.0219 611.907 31.7763 611.907 27.5658V19.9342C611.907 15.7237 611.073 12.5 609.407 10.2632C607.784 7.98246 605.284 6.84211 601.907 6.84211H595.986V40.6579H601.907Z" fill="#4368E3"/>
<path d="M642.473 47.5C639.578 47.5 637.057 46.9737 634.907 45.9211C632.802 44.8246 631.048 43.2675 629.644 41.25C628.285 39.2325 627.276 36.7544 626.618 33.8158C625.96 30.8772 625.631 27.5219 625.631 23.75C625.631 20.0219 625.96 16.6886 626.618 13.75C627.276 10.7675 628.285 8.26755 629.644 6.25C631.048 4.23246 632.802 2.69737 634.907 1.64474C637.057 0.548245 639.578 0 642.473 0C645.368 0 647.868 0.548245 649.973 1.64474C652.122 2.69737 653.877 4.23246 655.236 6.25C656.64 8.26755 657.671 10.7675 658.328 13.75C658.986 16.6886 659.315 20.0219 659.315 23.75C659.315 27.5219 658.986 30.8772 658.328 33.8158C657.671 36.7544 656.64 39.2325 655.236 41.25C653.877 43.2675 652.122 44.8246 649.973 45.9211C647.868 46.9737 645.368 47.5 642.473 47.5ZM642.473 41.3816C645.763 41.3816 648.087 40.1535 649.447 37.6974C650.807 35.1974 651.486 31.8202 651.486 27.5658V19.8684C651.486 15.6579 650.807 12.3246 649.447 9.86842C648.087 7.36842 645.763 6.11842 642.473 6.11842C639.184 6.11842 636.859 7.36842 635.5 9.86842C634.14 12.3246 633.46 15.6579 633.46 19.8684V27.6316C633.46 31.8421 634.14 35.1974 635.5 37.6974C636.859 40.1535 639.184 41.3816 642.473 41.3816Z" fill="#4368E3"/>
<path d="M683.237 47.5C677.404 47.5 673.062 45.4386 670.211 41.3158C667.404 37.193 666 31.3377 666 23.75C666 16.1623 667.404 10.307 670.211 6.18421C673.062 2.0614 677.404 0 683.237 0C685.474 0 687.404 0.307017 689.026 0.921052C690.693 1.49123 692.119 2.30263 693.303 3.35526C694.487 4.36403 695.474 5.57018 696.263 6.97368C697.097 8.33333 697.776 9.80263 698.303 11.3816L691.658 13.6184C691.307 12.5658 690.912 11.5789 690.474 10.6579C690.035 9.73684 689.487 8.94737 688.829 8.28947C688.171 7.63158 687.382 7.10526 686.461 6.71053C685.583 6.31579 684.487 6.11842 683.171 6.11842C679.926 6.11842 677.557 7.36842 676.066 9.86842C674.575 12.3246 673.829 15.6579 673.829 19.8684V27.6316C673.829 31.8421 674.575 35.1974 676.066 37.6974C677.557 40.1535 679.926 41.3816 683.171 41.3816C684.487 41.3816 685.583 41.1842 686.461 40.7895C687.382 40.3947 688.171 39.8684 688.829 39.2105C689.487 38.5526 690.035 37.7632 690.474 36.8421C690.912 35.9211 691.307 34.9342 691.658 33.8816L698.303 36.1184C697.776 37.6974 697.097 39.1886 696.263 40.5921C695.474 41.9518 694.487 43.1579 693.303 44.2105C692.119 45.2193 690.693 46.0307 689.026 46.6447C687.404 47.2149 685.474 47.5 683.237 47.5Z" fill="#4368E3"/>
<path d="M720.974 47.5C716.983 47.5 713.628 46.7982 710.909 45.3947C708.189 43.9912 705.952 42.1272 704.198 39.8026L708.935 35.2632C710.689 37.3684 712.553 38.9254 714.527 39.9342C716.501 40.8991 718.738 41.3816 721.238 41.3816C724.132 41.3816 726.347 40.7237 727.882 39.4079C729.461 38.0921 730.251 36.2061 730.251 33.75C730.251 31.7763 729.681 30.2632 728.54 29.2105C727.4 28.114 725.448 27.3246 722.685 26.8421L717.685 26.0526C715.492 25.7018 713.65 25.1316 712.159 24.3421C710.667 23.5088 709.461 22.5439 708.54 21.4474C707.619 20.307 706.939 19.057 706.501 17.6974C706.106 16.2939 705.909 14.8246 705.909 13.2895C705.909 8.94737 707.312 5.65789 710.119 3.42105C712.926 1.14035 716.786 0 721.698 0C725.338 0 728.431 0.592105 730.974 1.77632C733.562 2.91667 735.645 4.53948 737.224 6.64474L732.619 11.25C731.347 9.71491 729.834 8.48684 728.08 7.56579C726.369 6.60088 724.242 6.11842 721.698 6.11842C718.979 6.11842 716.895 6.71053 715.448 7.89474C714.045 9.03509 713.343 10.7237 713.343 12.9605C713.343 14.8465 713.891 16.3377 714.988 17.4342C716.128 18.4868 718.124 19.2544 720.974 19.7368L725.843 20.5921C729.966 21.3377 732.97 22.8509 734.856 25.1316C736.742 27.3684 737.685 30.1097 737.685 33.3553C737.685 35.4605 737.312 37.3904 736.567 39.1447C735.865 40.8991 734.79 42.3903 733.343 43.6184C731.939 44.8465 730.185 45.8114 728.08 46.5132C726.018 47.1711 723.65 47.5 720.974 47.5Z" fill="#4368E3"/>
<defs>
<clipPath id="clip0_398_48">
<rect width="565" height="95" fill="white" transform="translate(0.244568 23.7509)"/>
</clipPath>
</defs>
</svg>
