<svg width="738" height="120" viewBox="0 0 738 120" fill="none" xmlns="http://www.w3.org/2000/svg">
<g clip-path="url(#clip0_378_110)">
<path d="M149.256 71.671L134.789 92.381L132.654 95.421L120.322 113.067V113.091L116.053 119.171H58.1367L62.4057 113.067L74.762 95.421H103.696L105.831 92.381L120.322 71.671L105.831 50.961L103.696 47.921H79.0073L91.3636 30.2748V30.251L95.6326 24.171H116.053L120.322 30.251V30.2748L132.654 47.921L134.789 50.961L149.256 71.671Z" fill="#4368E3"/>
<path d="M62.4057 71.671L47.9386 92.381L45.8041 95.421L29.2025 119.171H0.244568L16.8462 95.421L33.4478 71.671L16.8462 47.921L0.244568 24.171H29.2025L45.8041 47.921L47.9386 50.961L62.4057 71.671Z" fill="#4368E3"/>
<path d="M196.547 113.257V41.746H173.542V30.1085H232.359V41.7698H209.354V113.257H196.547Z" fill="#2D343B"/>
<path d="M260.107 114.682C254.249 114.682 249.055 113.471 244.502 111.049C239.948 108.65 236.367 105.159 233.758 100.646C231.149 96.1335 229.845 90.7898 229.845 84.6148V82.8335C229.845 76.6585 231.149 71.3385 233.758 66.8735C236.391 62.4085 239.948 58.9173 244.502 56.471C249.055 54.0248 254.249 52.7898 260.107 52.7898C265.965 52.7898 271.183 54.0248 275.76 56.471C280.337 58.9173 283.942 62.3848 286.575 66.8735C289.207 71.3623 290.488 76.6585 290.488 82.8335V84.6148C290.488 90.7898 289.184 96.1335 286.575 100.646C283.942 105.159 280.385 108.626 275.76 111.049C271.183 113.447 265.965 114.682 260.107 114.682ZM260.107 103.734C265.467 103.734 269.855 102.024 273.222 98.556C276.59 95.1123 278.274 90.3385 278.274 84.2585V83.1898C278.274 77.1098 276.614 72.336 273.294 68.8923C269.949 65.4248 265.586 63.7148 260.131 63.7148C254.676 63.7148 250.502 65.4248 247.134 68.8923C243.766 72.336 242.082 77.1098 242.082 83.1898V84.2585C242.082 90.3623 243.766 95.1123 247.134 98.556C250.502 102 254.818 103.734 260.131 103.734H260.107Z" fill="#2D343B"/>
<path d="M330.877 114.682C325.019 114.682 319.825 113.471 315.272 111.049C310.718 108.65 307.137 105.159 304.528 100.646C301.919 96.1335 300.615 90.7898 300.615 84.6148V82.8335C300.615 76.6585 301.919 71.3385 304.528 66.8735C307.161 62.4085 310.718 58.9173 315.272 56.471C319.825 54.0248 325.019 52.7898 330.877 52.7898C336.735 52.7898 341.953 54.0248 346.53 56.471C351.108 58.9173 354.712 62.3848 357.345 66.8735C359.978 71.3623 361.258 76.6585 361.258 82.8335V84.6148C361.258 90.7898 359.954 96.1335 357.345 100.646C354.712 105.159 351.155 108.626 346.53 111.049C341.953 113.447 336.735 114.682 330.877 114.682ZM330.877 103.734C336.237 103.734 340.625 102.024 343.993 98.556C347.36 95.1123 349.044 90.3385 349.044 84.2585V83.1898C349.044 77.1098 347.384 72.336 344.064 68.8923C340.72 65.4248 336.356 63.7148 330.901 63.7148C325.446 63.7148 321.272 65.4248 317.904 68.8923C314.537 72.336 312.853 77.1098 312.853 83.1898V84.2585C312.853 90.3623 314.537 95.1123 317.904 98.556C321.272 102 325.589 103.734 330.901 103.734H330.877Z" fill="#2D343B"/>
<path d="M372.642 113.519V30.1323H384.88V113.519H372.642Z" fill="#2D343B"/>
<path d="M424.558 114.92C416.257 114.92 409.664 112.616 404.731 107.985C399.821 103.354 397.379 96.7985 397.379 88.3435V81.1948H410.186V88.3435C410.186 92.7848 411.395 96.3235 413.814 98.9598C416.21 101.62 419.72 102.926 424.297 102.926C428.874 102.926 432.005 101.62 434.139 99.0073C436.274 96.4185 437.341 92.8323 437.341 88.3198V41.746H419.791V30.1085H459.421V41.7698H450.148V88.3198C450.148 96.9648 447.919 103.52 443.436 108.08C438.978 112.64 432.645 114.896 424.51 114.896L424.558 114.92Z" fill="#2D343B"/>
<path d="M491.699 114.92C485.77 114.92 480.576 113.661 476.165 111.167C471.73 108.674 468.267 105.159 465.777 100.599C463.287 96.0385 462.03 90.766 462.03 84.7573V83.3323C462.03 77.2285 463.263 71.9085 465.706 67.3723C468.149 62.8123 471.588 59.2973 475.975 56.8035C480.363 54.3098 485.462 53.051 491.225 53.051C496.988 53.051 501.755 54.3098 506.001 56.8035C510.246 59.2973 513.519 62.7648 515.89 67.206C518.262 71.6473 519.448 76.8248 519.448 82.7623V87.3935H474.481C474.624 92.5473 476.379 96.6323 479.651 99.6723C482.924 102.712 487.027 104.232 491.937 104.232C496.846 104.232 499.977 103.211 502.324 101.145C504.649 99.0785 506.475 96.7035 507.708 94.0435L517.811 99.2685C516.72 101.477 515.084 103.829 512.997 106.275C510.886 108.721 508.135 110.787 504.744 112.45C501.328 114.112 496.988 114.944 491.676 114.944H491.699V114.92ZM474.624 77.9885H507.02C506.712 73.5473 505.099 70.0798 502.277 67.586C499.431 65.0923 495.708 63.8335 491.13 63.8335C486.553 63.8335 482.806 65.0923 479.912 67.586C477.019 70.0798 475.264 73.5473 474.647 77.9885H474.624Z" fill="#2D343B"/>
<path d="M547.173 113.518C543.615 113.518 540.769 112.45 538.706 110.312C536.595 108.175 535.575 105.325 535.575 101.762V63.3822H525.946V53.051H535.575V41.7697L547.813 35.381V53.051H565.268V63.3822H547.813V99.6247C547.813 102 548.904 103.187 551.157 103.187H565.268V113.518H547.196H547.173Z" fill="#2D343B"/>
</g>
<path d="M588.683 1.20964H602.367C608.245 1.20964 612.587 3.1614 615.394 7.0649C618.245 10.9684 619.67 16.6702 619.67 24.1702C619.67 31.6702 618.245 37.3719 615.394 41.2754C612.587 45.1789 608.245 47.1307 602.367 47.1307H588.683V1.20964ZM601.907 41.0781C605.284 41.0781 607.784 39.9596 609.407 37.7228C611.073 35.4421 611.907 32.1965 611.907 27.986V20.3544C611.907 16.1439 611.073 12.9202 609.407 10.6833C607.784 8.40262 605.284 7.26227 601.907 7.26227H595.986V41.0781H601.907Z" fill="#4368E3"/>
<path d="M642.473 47.9202C639.578 47.9202 637.057 47.3938 634.907 46.3412C632.802 45.2447 631.048 43.6877 629.644 41.6702C628.285 39.6526 627.276 37.1746 626.618 34.236C625.96 31.2974 625.631 27.9421 625.631 24.1702C625.631 20.4421 625.96 17.1088 626.618 14.1702C627.276 11.1877 628.285 8.68771 629.644 6.67017C631.048 4.65262 632.802 3.11753 634.907 2.0649C637.057 0.968411 639.578 0.420166 642.473 0.420166C645.368 0.420166 647.868 0.968411 649.973 2.0649C652.122 3.11753 653.877 4.65262 655.236 6.67017C656.64 8.68771 657.671 11.1877 658.328 14.1702C658.986 17.1088 659.315 20.4421 659.315 24.1702C659.315 27.9421 658.986 31.2974 658.328 34.236C657.671 37.1746 656.64 39.6526 655.236 41.6702C653.877 43.6877 652.122 45.2447 649.973 46.3412C647.868 47.3938 645.368 47.9202 642.473 47.9202ZM642.473 41.8017C645.763 41.8017 648.087 40.5737 649.447 38.1175C650.807 35.6175 651.486 32.2403 651.486 27.986V20.2886C651.486 16.0781 650.807 12.7447 649.447 10.2886C648.087 7.78859 645.763 6.53859 642.473 6.53859C639.184 6.53859 636.859 7.78859 635.5 10.2886C634.14 12.7447 633.46 16.0781 633.46 20.2886V28.0517C633.46 32.2623 634.14 35.6175 635.5 38.1175C636.859 40.5737 639.184 41.8017 642.473 41.8017Z" fill="#4368E3"/>
<path d="M683.237 47.9202C677.404 47.9202 673.062 45.8588 670.211 41.736C667.404 37.6131 666 31.7579 666 24.1702C666 16.5824 667.404 10.7272 670.211 6.60437C673.062 2.48157 677.404 0.420166 683.237 0.420166C685.474 0.420166 687.404 0.727184 689.026 1.34122C690.693 1.91139 692.119 2.7228 693.303 3.77543C694.487 4.7842 695.474 5.99034 696.263 7.39385C697.097 8.7535 697.776 10.2228 698.303 11.8017L691.658 14.0386C691.307 12.986 690.912 11.9991 690.474 11.0781C690.035 10.157 689.487 9.36753 688.829 8.70964C688.171 8.05174 687.382 7.52543 686.461 7.13069C685.583 6.73595 684.487 6.53859 683.171 6.53859C679.926 6.53859 677.557 7.78859 676.066 10.2886C674.575 12.7447 673.829 16.0781 673.829 20.2886V28.0517C673.829 32.2623 674.575 35.6175 676.066 38.1175C677.557 40.5737 679.926 41.8017 683.171 41.8017C684.487 41.8017 685.583 41.6044 686.461 41.2096C687.382 40.8149 688.171 40.2886 688.829 39.6307C689.487 38.9728 690.035 38.1833 690.474 37.2623C690.912 36.3412 691.307 35.3544 691.658 34.3017L698.303 36.5386C697.776 38.1175 697.097 39.6088 696.263 41.0123C695.474 42.3719 694.487 43.5781 693.303 44.6307C692.119 45.6395 690.693 46.4509 689.026 47.0649C687.404 47.6351 685.474 47.9202 683.237 47.9202Z" fill="#4368E3"/>
<path d="M720.974 47.9202C716.983 47.9202 713.628 47.2184 710.909 45.8149C708.189 44.4114 705.952 42.5474 704.198 40.2228L708.935 35.6833C710.689 37.7886 712.553 39.3456 714.527 40.3544C716.501 41.3193 718.738 41.8017 721.238 41.8017C724.132 41.8017 726.347 41.1438 727.882 39.8281C729.461 38.5123 730.251 36.6263 730.251 34.1702C730.251 32.1965 729.681 30.6833 728.54 29.6307C727.4 28.5342 725.448 27.7447 722.685 27.2623L717.685 26.4728C715.492 26.1219 713.65 25.5517 712.159 24.7623C710.667 23.9289 709.461 22.964 708.54 21.8675C707.619 20.7272 706.939 19.4772 706.501 18.1175C706.106 16.714 705.909 15.2447 705.909 13.7096C705.909 9.36753 707.312 6.07806 710.119 3.84122C712.926 1.56052 716.786 0.420166 721.698 0.420166C725.338 0.420166 728.431 1.01227 730.974 2.19648C733.562 3.33683 735.645 4.95964 737.224 7.0649L732.619 11.6702C731.347 10.1351 729.834 8.90701 728.08 7.98596C726.369 7.02104 724.242 6.53859 721.698 6.53859C718.979 6.53859 716.895 7.13069 715.448 8.3149C714.045 9.45525 713.343 11.1439 713.343 13.3807C713.343 15.2667 713.891 16.7579 714.988 17.8544C716.128 18.907 718.124 19.6746 720.974 20.157L725.843 21.0123C729.966 21.7579 732.97 23.271 734.856 25.5517C736.742 27.7886 737.685 30.5298 737.685 33.7754C737.685 35.8807 737.312 37.8105 736.567 39.5649C735.865 41.3193 734.79 42.8105 733.343 44.0386C731.939 45.2667 730.185 46.2316 728.08 46.9333C726.018 47.5912 723.65 47.9202 720.974 47.9202Z" fill="#4368E3"/>
<defs>
<clipPath id="clip0_378_110">
<rect width="565" height="95" fill="white" transform="translate(0.244568 24.171)"/>
</clipPath>
</defs>
</svg>
