<svg width="24" height="24" viewBox="0 0 24 24" fill="none" xmlns="http://www.w3.org/2000/svg">
<path fill-rule="evenodd" clip-rule="evenodd" d="M12.0082 1.99997C6.49501 1.99997 2.03809 6.58328 2.03809 12.2535C2.03809 16.786 4.89379 20.6226 8.8554 21.9805C9.35071 22.0826 9.53214 21.7599 9.53214 21.4884C9.53214 21.2507 9.51581 20.4359 9.51581 19.587C6.74235 20.1982 6.1648 18.3647 6.1648 18.3647C5.71909 17.1764 5.05869 16.8709 5.05869 16.8709C4.15093 16.2428 5.12481 16.2428 5.12481 16.2428C6.13174 16.3107 6.66011 17.2953 6.66011 17.2953C7.55133 18.857 8.98744 18.4157 9.5652 18.1441C9.64765 17.482 9.91193 17.0237 10.1925 16.7691C7.98051 16.5314 5.65317 15.6487 5.65317 11.7101C5.65317 10.5897 6.04909 9.67306 6.67643 8.96015C6.57746 8.70557 6.23072 7.65286 6.77562 6.24391C6.77562 6.24391 7.61745 5.97224 9.51561 7.29641C10.3283 7.07196 11.1664 6.95779 12.0082 6.95682C12.8501 6.95682 13.7082 7.07578 14.5007 7.29641C16.399 5.97224 17.2409 6.24391 17.2409 6.24391C17.7858 7.65286 17.4388 8.70557 17.3399 8.96015C17.9837 9.67306 18.3633 10.5897 18.3633 11.7101C18.3633 15.6487 16.036 16.5143 13.8074 16.7691C14.1707 17.0916 14.4842 17.7026 14.4842 18.6703C14.4842 20.0453 14.4678 21.1488 14.4678 21.4882C14.4678 21.7599 14.6495 22.0826 15.1446 21.9807C19.1062 20.6224 21.9619 16.786 21.9619 12.2535C21.9782 6.58328 17.505 1.99997 12.0082 1.99997Z" fill="#24292F"/>
</svg>
