<svg width="17" height="17" viewBox="0 0 17 17" fill="none" xmlns="http://www.w3.org/2000/svg">
<path d="M13.9446 0.583008H2.30828C1.1033 0.583008 0.126465 1.55984 0.126465 2.76483V14.4012C0.126465 15.6062 1.1033 16.583 2.30828 16.583H13.9446C15.1496 16.583 16.1265 15.6062 16.1265 14.4012V2.76483C16.1265 1.55984 15.1496 0.583008 13.9446 0.583008Z" fill="#3E63DD"/>
<path d="M6.09993 11.7424C5.5397 12.4864 4.71447 12.7544 3.79639 12.894C3.97382 12.0059 4.19533 11.1608 4.95453 10.5959C5.3334 10.9751 5.71741 11.3597 6.09993 11.7424Z" fill="white"/>
<path d="M7.7155 13.2496C7.7155 12.6008 7.71126 11.9752 7.71893 11.3502C7.72063 11.2114 7.6803 11.1171 7.58149 11.02C6.92087 10.3698 6.26645 9.71332 5.61177 9.0569C5.5604 9.00536 5.5093 8.9841 5.43606 8.9844C4.81628 8.98723 4.19622 8.9861 3.57648 8.9861C3.53844 8.9861 3.50011 8.9861 3.46263 8.9861C3.4615 8.9711 3.45809 8.96286 3.46065 8.95776C3.70679 8.48143 3.90552 7.97904 4.22493 7.54264C4.4949 7.17395 4.83474 6.90148 5.30319 6.83522C5.4565 6.81342 5.61407 6.81908 5.76964 6.81768C6.04588 6.81512 6.32212 6.81428 6.59836 6.81882C6.67417 6.81995 6.71957 6.79305 6.76584 6.73498C7.58463 5.70303 8.58626 4.90187 9.79736 4.37115C10.4753 4.0738 11.1814 3.89991 11.9286 3.91747C12.2114 3.92427 12.4947 3.91861 12.7769 3.91861C12.7837 3.93305 12.7923 3.94211 12.792 3.95117C12.7894 4.37143 12.8016 4.79283 12.7792 5.21196C12.7412 5.92846 12.5092 6.59452 12.191 7.23141C11.6581 8.2985 10.9114 9.1931 9.9751 9.93112C9.91406 9.97926 9.88596 10.0268 9.8871 10.107C9.8922 10.4284 9.88056 10.7504 9.89106 11.0715C9.90896 11.6204 9.68806 12.0554 9.26334 12.385C9.06094 12.5422 8.83636 12.6744 8.61092 12.7985C8.32392 12.9562 8.02581 13.0944 7.71493 13.2493L7.7155 13.2496ZM10.615 6.81115C10.6124 6.41072 10.2908 6.09212 9.88993 6.09299C9.49048 6.09382 9.16541 6.41695 9.16484 6.81372C9.16427 7.21245 9.49955 7.54464 9.89786 7.53981C10.297 7.53501 10.6176 7.20935 10.615 6.81088V6.81115Z" fill="white"/>
</svg>
