<svg width="65" height="16" viewBox="0 0 65 16" fill="none" xmlns="http://www.w3.org/2000/svg">
<path d="M14.7295 0H2.97065C1.75298 0 0.765869 0.976833 0.765869 2.18182V13.8182C0.765869 15.0232 1.75298 16 2.97065 16H14.7295C15.9472 16 16.9343 15.0232 16.9343 13.8182V2.18182C16.9343 0.976833 15.9472 0 14.7295 0Z" fill="#3E63DD"/>
<path d="M8.43485 12.6666C8.43485 12.0178 8.43058 11.3922 8.43832 10.7672C8.44004 10.6284 8.39928 10.5341 8.29944 10.437C7.63187 9.78678 6.97056 9.13032 6.30898 8.47389C6.25707 8.42236 6.20543 8.40109 6.13143 8.40139C5.50512 8.40422 4.87854 8.40309 4.25227 8.40309C4.21382 8.40309 4.17509 8.40309 4.13722 8.40309C4.13608 8.38809 4.13263 8.37986 4.13522 8.37476C4.38395 7.89843 4.58478 7.39603 4.90754 6.95964C5.18036 6.59094 5.52378 6.31847 5.99716 6.25221C6.15208 6.23041 6.31131 6.23607 6.46851 6.23467C6.74766 6.23211 7.02681 6.23128 7.30596 6.23581C7.38256 6.23694 7.42844 6.21004 7.4752 6.15198C8.30261 5.12002 9.31478 4.31886 10.5386 3.78815C11.2238 3.49079 11.9372 3.31691 12.6923 3.33447C12.9781 3.34126 13.2644 3.3356 13.5496 3.3356C13.5565 3.35004 13.5651 3.3591 13.5648 3.36817C13.5622 3.78843 13.5745 4.20983 13.5519 4.62896C13.5134 5.34545 13.279 6.01151 12.9574 6.6484C12.4189 7.7155 11.6644 8.61009 10.7182 9.34811C10.6566 9.39625 10.6282 9.44381 10.6293 9.52398C10.6345 9.84541 10.6227 10.1674 10.6333 10.4885C10.6514 11.0374 10.4282 11.4724 9.99899 11.802C9.79446 11.9592 9.56752 12.0914 9.33971 12.2155C9.04968 12.3732 8.74843 12.5114 8.43428 12.6663L8.43485 12.6666ZM11.3649 6.22814C11.3623 5.82771 11.0373 5.50911 10.6322 5.50998C10.2285 5.51081 9.90003 5.83394 9.89945 6.23071C9.89888 6.62944 10.2377 6.96164 10.6402 6.9568C11.0436 6.952 11.3675 6.62634 11.3649 6.22788V6.22814Z" fill="#FDFDFE"/>
<path d="M6.80215 11.1594C6.23603 11.9034 5.40212 12.1714 4.47437 12.311C4.65366 11.4229 4.87751 10.5778 5.6447 10.0129C6.02756 10.3921 6.41561 10.7766 6.80215 11.1594Z" fill="#FDFDFE"/>
<path d="M24.4943 12.5426V5.21975H21.7417V3.85449H28.7893V5.21975H26.0367V12.5426H24.4943Z" fill="#11181C"/>
<path d="M32.2377 12.6294C31.5891 12.6294 31.0117 12.4846 30.5055 12.195C29.9993 11.8972 29.5998 11.4917 29.3072 10.9787C29.0145 10.4657 28.8682 9.88235 28.8682 9.22867C28.8682 8.56671 29.0145 7.98337 29.3072 7.47865C29.5998 6.96562 29.9993 6.56432 30.5055 6.27471C31.0117 5.98514 31.5891 5.84033 32.2377 5.84033C32.8943 5.84033 33.4756 5.98514 33.9818 6.27471C34.496 6.56432 34.8954 6.9615 35.1802 7.46622C35.4729 7.97097 35.6192 8.55847 35.6192 9.22867C35.6192 9.88235 35.4729 10.4657 35.1802 10.9787C34.8954 11.4917 34.496 11.8972 33.9818 12.195C33.4756 12.4846 32.8943 12.6294 32.2377 12.6294ZM32.2377 11.3014C32.6016 11.3014 32.9259 11.2187 33.2106 11.0532C33.4954 10.8877 33.7169 10.6477 33.8751 10.3333C34.0412 10.0189 34.1242 9.65068 34.1242 9.22867C34.1242 8.79841 34.0412 8.43019 33.8751 8.12406C33.7169 7.80962 33.4954 7.56967 33.2106 7.40419C32.9259 7.23868 32.6055 7.15594 32.2496 7.15594C31.8857 7.15594 31.5615 7.23868 31.2767 7.40419C30.9998 7.56967 30.7784 7.80962 30.6123 8.12406C30.4462 8.43019 30.3631 8.79841 30.3631 9.22867C30.3631 9.65068 30.4462 10.0189 30.6123 10.3333C30.7784 10.6477 30.9998 10.8877 31.2767 11.0532C31.5615 11.2187 31.8818 11.3014 32.2377 11.3014Z" fill="#11181C"/>
<path d="M39.8497 12.6294C39.2011 12.6294 38.6239 12.4846 38.1177 12.195C37.6111 11.8972 37.2119 11.4917 36.9192 10.9787C36.6265 10.4657 36.4802 9.88235 36.4802 9.22867C36.4802 8.56671 36.6265 7.98337 36.9192 7.47865C37.2119 6.96562 37.6111 6.56432 38.1177 6.27471C38.6239 5.98514 39.2011 5.84033 39.8497 5.84033C40.5062 5.84033 41.0875 5.98514 41.594 6.27471C42.1081 6.56432 42.5074 6.9615 42.7922 7.46622C43.0849 7.97097 43.2311 8.55847 43.2311 9.22867C43.2311 9.88235 43.0849 10.4657 42.7922 10.9787C42.5074 11.4917 42.1081 11.8972 41.594 12.195C41.0875 12.4846 40.5062 12.6294 39.8497 12.6294ZM39.8497 11.3014C40.2138 11.3014 40.5379 11.2187 40.8228 11.0532C41.1073 10.8877 41.329 10.6477 41.4871 10.3333C41.6531 10.0189 41.7361 9.65068 41.7361 9.22867C41.7361 8.79841 41.6531 8.43019 41.4871 8.12406C41.329 7.80962 41.1073 7.56967 40.8228 7.40419C40.5379 7.23868 40.2176 7.15594 39.8617 7.15594C39.4979 7.15594 39.1734 7.23868 38.8889 7.40419C38.6119 7.56967 38.3906 7.80962 38.2242 8.12406C38.0582 8.43019 37.9752 8.79841 37.9752 9.22867C37.9752 9.65068 38.0582 10.0189 38.2242 10.3333C38.3906 10.6477 38.6119 10.8877 38.8889 11.0532C39.1734 11.2187 39.4938 11.3014 39.8497 11.3014Z" fill="#11181C"/>
<path d="M44.5605 12.5426L44.1831 3.33325H45.6661V12.5426H44.5605Z" fill="#11181C"/>
<path d="M48.9594 12.6667C48.4293 12.6667 47.9389 12.5591 47.488 12.344C47.0453 12.1289 46.6812 11.8186 46.3967 11.4131L47.2745 10.3085C47.5041 10.6395 47.753 10.8877 48.0222 11.0532C48.2989 11.2187 48.5994 11.3014 48.9239 11.3014C49.786 11.3014 50.217 10.7677 50.217 9.70034V5.20735H47.2626V3.85449H51.7595V9.61347C51.7595 10.6395 51.5184 11.4049 51.0357 11.9096C50.561 12.4144 49.869 12.6667 48.9594 12.6667Z" fill="#11181C"/>
<path d="M56.6697 12.6294C55.9658 12.6294 55.3486 12.4846 54.8188 12.195C54.2966 11.8972 53.8894 11.4917 53.5967 10.9787C53.3119 10.4657 53.1694 9.88235 53.1694 9.22867C53.1694 8.56671 53.3078 7.98337 53.5848 7.47865C53.8696 6.96562 54.2569 6.56432 54.7474 6.27471C55.2457 5.98514 55.8114 5.84033 56.4443 5.84033C57.0611 5.84033 57.6107 5.98098 58.0933 6.26231C58.5759 6.54364 58.9554 6.94082 59.2324 7.45382C59.5091 7.96685 59.6477 8.57087 59.6477 9.2659C59.6477 9.33212 59.6436 9.40658 59.6358 9.48932C59.6358 9.57207 59.6317 9.65068 59.6238 9.72515H54.344V8.695H58.841L58.2593 9.01768C58.2675 8.63705 58.1924 8.30194 58.0339 8.01236C57.8757 7.72275 57.6582 7.49521 57.3815 7.32969C57.1127 7.16421 56.8002 7.08147 56.4443 7.08147C56.0802 7.08147 55.7598 7.16421 55.4831 7.32969C55.2143 7.49521 55.0005 7.72688 54.8424 8.02476C54.6921 8.31437 54.6169 8.65773 54.6169 9.05491V9.30313C54.6169 9.70032 54.704 10.052 54.8779 10.3581C55.0521 10.6643 55.2973 10.9001 55.6136 11.0656C55.9299 11.2311 56.294 11.3138 56.7052 11.3138C57.0611 11.3138 57.3815 11.2559 57.6664 11.14C57.9509 11.0242 58.204 10.8422 58.4256 10.5939L59.2204 11.5496C58.9356 11.8972 58.5759 12.1661 58.1408 12.3564C57.7138 12.5384 57.2234 12.6294 56.6697 12.6294Z" fill="#11181C"/>
<path d="M63.3679 12.6294C62.6718 12.6294 62.1342 12.4432 61.7544 12.0709C61.3746 11.6903 61.185 11.1317 61.185 10.3953V4.4502H62.668V10.3581C62.668 10.6725 62.7432 10.9166 62.8935 11.0904C63.0516 11.2641 63.2692 11.351 63.5458 11.351C63.8782 11.351 64.1548 11.26 64.3765 11.078L64.7918 12.1826C64.6176 12.3315 64.4042 12.4432 64.1511 12.5177C63.898 12.5922 63.637 12.6294 63.3679 12.6294ZM60.1409 7.20556V5.96439H64.3646V7.20556H60.1409Z" fill="#11181C"/>
</svg>
