<svg width="107" height="21" viewBox="0 0 107 21" fill="none" xmlns="http://www.w3.org/2000/svg">
<g clip-path="url(#clip0_101_17315)">
<path d="M16.471 1H2.62581C1.19355 1 0 2.25 0 3.75V18.25C0 19.75 1.19355 21 2.62581 21H16.471C17.9032 21 19.0968 19.75 19.0968 18.25V3.75C19.0968 2.25 17.9032 1 16.471 1Z" fill="#4368E3"/>
<g clip-path="url(#clip1_101_17315)">
<path d="M7.15339 15.354C7.22307 15.4269 7.23126 15.5428 7.16876 15.6244C6.32757 16.7189 5.2456 17.0719 3.92285 17.2468C3.72818 17.2715 3.56015 17.0966 3.58474 16.8927C3.75072 15.5074 4.08884 14.3743 5.13392 13.4933C5.21179 13.4289 5.32245 13.4364 5.39212 13.5094L7.15339 15.354Z" fill="white"/>
<path d="M15.4997 5.00753C15.4936 4.87662 15.3942 4.77253 15.2702 4.76717C14.9536 4.75107 14.6432 4.74142 14.3573 4.75858C13.3594 4.81546 12.5007 5.03758 11.6257 5.42602C10.0018 6.20184 8.75278 7.23734 7.75278 8.53251C7.66945 8.61836 7.58646 8.66128 7.50381 8.66128C7.2538 8.66235 6.8911 8.61299 6.5161 8.61299C6.26712 8.61299 6.13597 8.61621 5.8788 8.66128C5.2538 8.79112 4.90134 9.04007 4.47716 9.52723C4.24662 9.79121 4.0581 10.1314 3.89519 10.4565C3.86855 10.5102 3.69949 10.9136 3.59293 11.1701C3.55092 11.2688 3.6206 11.3804 3.72408 11.3793C4.48433 11.3783 5.24355 11.3793 6.0038 11.3793C6.08713 11.38 6.17047 11.4233 6.2538 11.5092C6.7497 12.0221 7.19643 12.5039 7.65749 12.9803C8.11241 13.4632 8.57143 13.93 9.06221 14.4493C9.14418 14.5366 9.1855 14.6239 9.18619 14.7112C9.18619 15.5063 9.18619 16.3025 9.18516 17.0987C9.18516 17.2071 9.2907 17.28 9.38598 17.2371C9.62984 17.1255 10.0151 16.9474 10.0663 16.9195C10.3768 16.75 10.7016 16.5514 10.9546 16.31C11.4188 15.8668 11.6565 15.4966 11.7794 14.8421C11.8245 14.5738 11.8266 14.4365 11.8266 14.1746C11.8266 13.7819 11.7794 13.4031 11.7794 13.1413C11.7794 13.054 11.8208 12.9667 11.9034 12.8795C13.1401 11.8332 14.1288 10.5241 14.8696 8.82331C15.2415 7.90692 15.4536 7.00878 15.5079 5.96255C15.5233 5.66424 15.5141 5.33803 15.4997 5.00753ZM12.802 9.34911C12.3389 9.83413 11.5889 9.83413 11.1247 9.34911C10.6616 8.86301 10.6616 8.07647 11.1247 7.59145C11.5889 7.10535 12.3389 7.10535 12.802 7.59145C13.2671 8.07647 13.2671 8.86301 12.802 9.34911Z" fill="white"/>
</g>
<path d="M27.0936 16.625V7.5H23.871V5.875H32.1065V7.625H28.8839V16.75H27.0936V16.625Z" fill="#11181C"/>
<path d="M36.0452 16.75C35.3291 16.75 34.6129 16.625 34.0162 16.25C33.4194 15.875 32.942 15.375 32.5839 14.75C32.3452 14.125 32.2258 13.375 32.2258 12.5C32.2258 11.625 32.3452 11 32.7032 10.25C33.0613 9.625 33.5387 9.125 34.1355 8.75C34.6129 8.5 35.3291 8.25 36.0452 8.25C36.7613 8.25 37.4774 8.375 38.0742 8.75C38.671 9.125 39.1484 9.625 39.5065 10.25C39.8645 10.875 39.9839 11.625 39.9839 12.5C39.9839 13.375 39.8645 14 39.5065 14.75C39.1484 15.375 38.671 15.875 38.0742 16.25C37.4774 16.625 36.8807 16.75 36.0452 16.75ZM36.0452 15.125C36.5226 15.125 36.8807 15 37.1194 14.875C37.4774 14.625 37.7162 14.375 37.8355 14C38.0742 13.625 38.0742 13.125 38.0742 12.625C38.0742 12.125 37.9549 11.625 37.8355 11.25C37.5968 10.875 37.3581 10.5 37.1194 10.375C36.7613 10.125 36.4033 10.125 36.0452 10.125C35.5678 10.125 35.2097 10.25 34.971 10.375C34.6129 10.625 34.3742 10.875 34.2549 11.25C34.0162 11.625 34.0162 12.125 34.0162 12.625C34.0162 13.125 34.1355 13.625 34.2549 14C34.4936 14.375 34.7323 14.75 34.971 14.875C35.3291 15 35.6871 15.125 36.0452 15.125Z" fill="#11181C"/>
<path d="M44.9967 16.75C44.2806 16.75 43.5644 16.625 42.9677 16.25C42.3709 15.875 41.8935 15.375 41.5354 14.75C41.1773 14.125 41.058 13.375 41.058 12.5C41.058 11.625 41.1773 11 41.5354 10.25C41.8935 9.75 42.3709 9.25 42.9677 8.875C43.5644 8.5 44.1612 8.25 44.9967 8.25C45.7128 8.25 46.4289 8.375 47.0257 8.75C47.6225 9.125 48.0999 9.625 48.458 10.25C48.6967 11 48.9354 11.75 48.9354 12.5C48.9354 13.375 48.816 14 48.458 14.75C48.0999 15.375 47.6225 15.875 47.0257 16.25C46.4289 16.625 45.7128 16.75 44.9967 16.75ZM44.9967 15.125C45.4741 15.125 45.8322 15 46.0709 14.875C46.4289 14.625 46.6677 14.375 46.787 14C47.0257 13.625 47.0257 13.125 47.0257 12.625C47.0257 12.125 46.9064 11.625 46.787 11.25C46.5483 10.875 46.3096 10.5 46.0709 10.375C45.7128 10.125 45.3548 10.125 44.9967 10.125C44.5193 10.125 44.1612 10.25 43.9225 10.375C43.5644 10.625 43.3257 10.875 43.2064 11.25C42.9677 11.625 42.9677 12.125 42.9677 12.625C42.9677 13.125 43.087 13.625 43.2064 14C43.4451 14.375 43.6838 14.75 43.9225 14.875C44.1612 15 44.5193 15.125 44.9967 15.125Z" fill="#11181C"/>
<path d="M50.487 16.625L50.0096 5.125H51.6805V16.625H50.487Z" fill="#11181C"/>
<path d="M55.6195 16.875C55.0227 16.875 54.4259 16.75 53.9485 16.5C53.4711 16.25 52.9937 15.875 52.6356 15.375L53.7098 14C53.9485 14.375 54.3066 14.75 54.5453 14.875C54.9034 15.125 55.2614 15.125 55.6195 15.125C56.5743 15.125 57.1711 14.5 57.1711 13.125V7.5H53.7098V5.875H58.9614V13.125C58.9614 14.375 58.7227 15.375 58.1259 16C57.4098 16.5 56.5743 16.875 55.6195 16.875Z" fill="#11181C"/>
<path d="M67.5551 10.375C67.197 9.75 66.8389 9.25 66.2422 8.875C65.6454 8.5 65.0486 8.375 64.3325 8.375C63.6164 8.375 62.9002 8.5 62.3034 8.875C61.7067 9.25 61.2292 9.75 60.9905 10.375C60.6325 11 60.5131 11.75 60.5131 12.625C60.5131 13.5 60.6325 14.125 60.9905 14.875C61.3486 15.5 61.826 16 62.4228 16.375C63.0196 16.75 63.7357 16.875 64.5712 16.875C65.168 16.875 65.7647 16.75 66.2422 16.5C66.7196 16.25 67.197 15.875 67.4357 15.5L66.4809 14.25C66.2422 14.5 65.8841 14.75 65.6454 14.875C65.2873 15 64.9292 15.125 64.5712 15.125C64.0938 15.125 63.6163 15 63.2583 14.875C62.9002 14.625 62.6615 14.375 62.4228 14C62.3034 13.75 62.1841 13.5 62.1841 13.25H68.0325C68.0325 13.125 68.0325 13 68.0325 13C68.0325 12.875 68.0325 12.75 68.0325 12.75C68.0325 11.75 67.7938 11 67.5551 10.375ZM62.1841 11.875C62.1841 11.625 62.3034 11.25 62.4228 11C62.6615 10.625 62.9002 10.375 63.1389 10.125C63.497 9.875 63.8551 9.875 64.2131 9.875C64.5712 9.875 65.0486 10 65.2873 10.125C65.6454 10.375 65.8841 10.625 66.1228 11C66.2422 11.25 66.3615 11.5 66.3615 11.875H62.1841Z" fill="#11181C"/>
<path d="M73.9999 16.25C73.7612 16.5 73.5225 16.625 73.2838 16.625C73.0451 16.75 72.687 16.75 72.3289 16.75C71.4934 16.75 70.8967 16.5 70.4193 16C69.9418 15.5 69.7031 14.875 69.7031 13.875V10H68.5096V8.5H69.7031V6.625H71.4935V8.5H73.5225V10H71.4935V13.875C71.4935 14.25 71.6128 14.625 71.7322 14.75C71.8515 15 72.2096 15.125 72.4483 15.125C72.8064 15.125 73.1644 15 73.4031 14.75L73.9999 16.25Z" fill="#11181C"/>
</g>
<path d="M78.984 1.07344H81.48C82.552 1.07344 83.344 1.42944 83.856 2.14144C84.376 2.85344 84.636 3.89344 84.636 5.26144C84.636 6.62944 84.376 7.66944 83.856 8.38144C83.344 9.09344 82.552 9.44944 81.48 9.44944H78.984V1.07344ZM81.396 8.34544C82.012 8.34544 82.468 8.14144 82.764 7.73344C83.068 7.31744 83.22 6.72544 83.22 5.95744V4.56544C83.22 3.79744 83.068 3.20944 82.764 2.80144C82.468 2.38544 82.012 2.17744 81.396 2.17744H80.316V8.34544H81.396Z" fill="#4368E3"/>
<path d="M88.7953 9.59344C88.2673 9.59344 87.8073 9.49744 87.4153 9.30544C87.0313 9.10544 86.7113 8.82144 86.4553 8.45344C86.2073 8.08544 86.0233 7.63344 85.9033 7.09744C85.7833 6.56144 85.7233 5.94944 85.7233 5.26144C85.7233 4.58144 85.7833 3.97344 85.9033 3.43744C86.0233 2.89344 86.2073 2.43744 86.4553 2.06944C86.7113 1.70144 87.0313 1.42144 87.4153 1.22944C87.8073 1.02944 88.2673 0.929443 88.7953 0.929443C89.3233 0.929443 89.7793 1.02944 90.1633 1.22944C90.5553 1.42144 90.8753 1.70144 91.1233 2.06944C91.3793 2.43744 91.5673 2.89344 91.6873 3.43744C91.8073 3.97344 91.8673 4.58144 91.8673 5.26144C91.8673 5.94944 91.8073 6.56144 91.6873 7.09744C91.5673 7.63344 91.3793 8.08544 91.1233 8.45344C90.8753 8.82144 90.5553 9.10544 90.1633 9.30544C89.7793 9.49744 89.3233 9.59344 88.7953 9.59344ZM88.7953 8.47744C89.3953 8.47744 89.8193 8.25344 90.0673 7.80544C90.3153 7.34944 90.4393 6.73344 90.4393 5.95744V4.55344C90.4393 3.78544 90.3153 3.17744 90.0673 2.72944C89.8193 2.27344 89.3953 2.04544 88.7953 2.04544C88.1953 2.04544 87.7713 2.27344 87.5233 2.72944C87.2753 3.17744 87.1513 3.78544 87.1513 4.55344V5.96944C87.1513 6.73744 87.2753 7.34944 87.5233 7.80544C87.7713 8.25344 88.1953 8.47744 88.7953 8.47744Z" fill="#4368E3"/>
<path d="M96.2306 9.59344C95.1666 9.59344 94.3746 9.21744 93.8546 8.46544C93.3426 7.71344 93.0866 6.64544 93.0866 5.26144C93.0866 3.87744 93.3426 2.80944 93.8546 2.05744C94.3746 1.30544 95.1666 0.929443 96.2306 0.929443C96.6386 0.929443 96.9906 0.985443 97.2866 1.09744C97.5906 1.20144 97.8506 1.34944 98.0666 1.54144C98.2826 1.72544 98.4626 1.94544 98.6066 2.20144C98.7586 2.44944 98.8826 2.71744 98.9786 3.00544L97.7666 3.41344C97.7026 3.22144 97.6306 3.04144 97.5506 2.87344C97.4706 2.70544 97.3706 2.56144 97.2506 2.44144C97.1306 2.32144 96.9866 2.22544 96.8186 2.15344C96.6586 2.08144 96.4586 2.04544 96.2186 2.04544C95.6266 2.04544 95.1946 2.27344 94.9226 2.72944C94.6506 3.17744 94.5146 3.78544 94.5146 4.55344V5.96944C94.5146 6.73744 94.6506 7.34944 94.9226 7.80544C95.1946 8.25344 95.6266 8.47744 96.2186 8.47744C96.4586 8.47744 96.6586 8.44144 96.8186 8.36944C96.9866 8.29744 97.1306 8.20144 97.2506 8.08144C97.3706 7.96144 97.4706 7.81744 97.5506 7.64944C97.6306 7.48144 97.7026 7.30144 97.7666 7.10944L98.9786 7.51744C98.8826 7.80544 98.7586 8.07744 98.6066 8.33344C98.4626 8.58144 98.2826 8.80144 98.0666 8.99344C97.8506 9.17744 97.5906 9.32544 97.2866 9.43744C96.9906 9.54144 96.6386 9.59344 96.2306 9.59344Z" fill="#4368E3"/>
<path d="M103.114 9.59344C102.386 9.59344 101.774 9.46544 101.278 9.20944C100.782 8.95344 100.374 8.61344 100.054 8.18944L100.918 7.36144C101.238 7.74544 101.578 8.02944 101.938 8.21344C102.298 8.38944 102.706 8.47744 103.162 8.47744C103.69 8.47744 104.094 8.35744 104.374 8.11744C104.662 7.87744 104.806 7.53344 104.806 7.08544C104.806 6.72544 104.702 6.44944 104.494 6.25744C104.286 6.05744 103.93 5.91344 103.426 5.82544L102.514 5.68144C102.114 5.61744 101.778 5.51344 101.506 5.36944C101.234 5.21744 101.014 5.04144 100.846 4.84144C100.678 4.63344 100.554 4.40544 100.474 4.15744C100.402 3.90144 100.366 3.63344 100.366 3.35344C100.366 2.56144 100.622 1.96144 101.134 1.55344C101.646 1.13744 102.35 0.929443 103.246 0.929443C103.91 0.929443 104.474 1.03744 104.938 1.25344C105.41 1.46144 105.79 1.75744 106.078 2.14144L105.238 2.98144C105.006 2.70144 104.73 2.47744 104.41 2.30944C104.098 2.13344 103.71 2.04544 103.246 2.04544C102.75 2.04544 102.37 2.15344 102.106 2.36944C101.85 2.57744 101.722 2.88544 101.722 3.29344C101.722 3.63744 101.822 3.90944 102.022 4.10944C102.23 4.30144 102.594 4.44144 103.114 4.52944L104.002 4.68544C104.754 4.82144 105.302 5.09744 105.646 5.51344C105.99 5.92144 106.162 6.42144 106.162 7.01344C106.162 7.39744 106.094 7.74944 105.958 8.06944C105.83 8.38944 105.634 8.66144 105.37 8.88544C105.114 9.10944 104.794 9.28544 104.41 9.41344C104.034 9.53344 103.602 9.59344 103.114 9.59344Z" fill="#4368E3"/>
<defs>
<clipPath id="clip0_101_17315">
<rect width="74" height="20" fill="white" transform="translate(0 1)"/>
</clipPath>
<clipPath id="clip1_101_17315">
<rect width="11.9355" height="12.5" fill="white" transform="translate(3.58063 4.75)"/>
</clipPath>
</defs>
</svg>
