<svg width="66" height="16" viewBox="0 0 66 16" fill="none" xmlns="http://www.w3.org/2000/svg">
<g clip-path="url(#clip0_24_53543)">
<path fill-rule="evenodd" clip-rule="evenodd" d="M15.2295 0H3.47065C2.25298 0 1.26587 0.976833 1.26587 2.18182V13.8182C1.26587 15.0232 2.25298 16 3.47065 16H15.2295C16.4472 16 17.4343 15.0232 17.4343 13.8182V2.18182C17.4343 0.976833 16.4472 0 15.2295 0ZM8.93485 12.6664V12.6658C9.02754 12.6201 9.11911 12.5758 9.2096 12.5321L9.20967 12.5321C9.42564 12.4277 9.63546 12.3263 9.83971 12.2153C10.0675 12.0912 10.2945 11.959 10.499 11.8018C10.9282 11.4722 11.1514 11.0372 11.1333 10.4883C11.1273 10.3057 11.1285 10.1229 11.1297 9.94002C11.1306 9.80123 11.1315 9.66243 11.1293 9.52373C11.1282 9.44356 11.1566 9.396 11.2182 9.34786C12.1644 8.60984 12.9189 7.71525 13.4574 6.64815C13.779 6.01126 14.0134 5.3452 14.0519 4.62871C14.0677 4.33499 14.0664 4.04015 14.0651 3.74537V3.74533V3.74532C14.0646 3.61948 14.064 3.49365 14.0648 3.36792C14.065 3.36208 14.0615 3.35625 14.0571 3.34897C14.0547 3.34495 14.0521 3.34049 14.0496 3.33535C13.9605 3.33535 13.8713 3.3359 13.7821 3.33646C13.5856 3.33767 13.3888 3.33889 13.1923 3.33422C12.4372 3.31666 11.7238 3.49054 11.0386 3.7879C9.81478 4.31861 8.80261 5.11977 7.9752 6.15173C7.92844 6.20979 7.88256 6.23669 7.80596 6.23556C7.52681 6.23103 7.24766 6.23186 6.96851 6.23442C6.93636 6.23471 6.90413 6.2347 6.87186 6.23469C6.74636 6.23466 6.6204 6.23462 6.49716 6.25196C6.02378 6.31822 5.68036 6.59069 5.40754 6.95939C5.17589 7.2726 5.00704 7.61981 4.83822 7.96699L4.83821 7.96701C4.77181 8.10354 4.70542 8.24007 4.63522 8.37451C4.63362 8.37767 4.63433 8.38202 4.63537 8.38843C4.63601 8.39238 4.63678 8.39712 4.63722 8.40284H4.75227L5.16956 8.40295C5.65683 8.40315 6.14421 8.40334 6.63143 8.40114C6.70543 8.40084 6.75707 8.42211 6.80898 8.47364L6.8552 8.5195C7.50137 9.16065 8.14742 9.80168 8.79944 10.4368C8.89928 10.5339 8.94004 10.6282 8.93832 10.767C8.93262 11.2269 8.93343 11.6871 8.93426 12.1567V12.1567L8.93426 12.1587C8.93455 12.3264 8.93485 12.4953 8.93485 12.6658L8.93428 12.6661L8.93485 12.6664ZM11.8649 6.22789C11.8623 5.82746 11.5373 5.50886 11.1322 5.50973C10.7285 5.51056 10.4 5.83369 10.3995 6.23046C10.3989 6.62919 10.7377 6.96139 11.1402 6.95655C11.5436 6.95175 11.8675 6.62609 11.8649 6.22763V6.22789ZM4.97437 12.3108C5.90212 12.1712 6.73602 11.9032 7.30215 11.1592L6.1447 10.0127C5.37751 10.5776 5.15366 11.4227 4.97437 12.3108Z" fill="white"/>
<path d="M24.9943 12.5426V5.21975H22.2417V3.85449H29.2893V5.21975H26.5367V12.5426H24.9943Z" fill="white"/>
<path d="M32.7377 12.6289C32.0891 12.6289 31.5117 12.4841 31.0055 12.1945C30.4993 11.8967 30.0998 11.4912 29.8072 10.9782C29.5145 10.4652 29.3682 9.88186 29.3682 9.22818C29.3682 8.56622 29.5145 7.98288 29.8072 7.47816C30.0998 6.96513 30.4993 6.56383 31.0055 6.27422C31.5117 5.98465 32.0891 5.83984 32.7377 5.83984C33.3943 5.83984 33.9756 5.98465 34.4818 6.27422C34.996 6.56383 35.3954 6.96101 35.6802 7.46573C35.9729 7.97048 36.1192 8.55798 36.1192 9.22818C36.1192 9.88186 35.9729 10.4652 35.6802 10.9782C35.3954 11.4912 34.996 11.8967 34.4818 12.1945C33.9756 12.4841 33.3943 12.6289 32.7377 12.6289ZM32.7377 11.3009C33.1016 11.3009 33.4259 11.2182 33.7106 11.0527C33.9954 10.8872 34.2169 10.6472 34.3751 10.3328C34.5412 10.0184 34.6242 9.65019 34.6242 9.22818C34.6242 8.79792 34.5412 8.4297 34.3751 8.12357C34.2169 7.80913 33.9954 7.56918 33.7106 7.4037C33.4259 7.23819 33.1055 7.15545 32.7496 7.15545C32.3857 7.15545 32.0615 7.23819 31.7767 7.4037C31.4998 7.56918 31.2784 7.80913 31.1123 8.12357C30.9462 8.4297 30.8631 8.79792 30.8631 9.22818C30.8631 9.65019 30.9462 10.0184 31.1123 10.3328C31.2784 10.6472 31.4998 10.8872 31.7767 11.0527C32.0615 11.2182 32.3818 11.3009 32.7377 11.3009Z" fill="white"/>
<path d="M40.3497 12.6289C39.7011 12.6289 39.1239 12.4841 38.6177 12.1945C38.1111 11.8967 37.7119 11.4912 37.4192 10.9782C37.1265 10.4652 36.9802 9.88186 36.9802 9.22818C36.9802 8.56622 37.1265 7.98288 37.4192 7.47816C37.7119 6.96513 38.1111 6.56383 38.6177 6.27422C39.1239 5.98465 39.7011 5.83984 40.3497 5.83984C41.0062 5.83984 41.5875 5.98465 42.094 6.27422C42.6081 6.56383 43.0074 6.96101 43.2922 7.46573C43.5849 7.97048 43.7311 8.55798 43.7311 9.22818C43.7311 9.88186 43.5849 10.4652 43.2922 10.9782C43.0074 11.4912 42.6081 11.8967 42.094 12.1945C41.5875 12.4841 41.0062 12.6289 40.3497 12.6289ZM40.3497 11.3009C40.7138 11.3009 41.0379 11.2182 41.3228 11.0527C41.6073 10.8872 41.829 10.6472 41.9871 10.3328C42.1531 10.0184 42.2361 9.65019 42.2361 9.22818C42.2361 8.79792 42.1531 8.4297 41.9871 8.12357C41.829 7.80913 41.6073 7.56918 41.3228 7.4037C41.0379 7.23819 40.7176 7.15545 40.3617 7.15545C39.9979 7.15545 39.6734 7.23819 39.3889 7.4037C39.1119 7.56918 38.8906 7.80913 38.7242 8.12357C38.5582 8.4297 38.4752 8.79792 38.4752 9.22818C38.4752 9.65019 38.5582 10.0184 38.7242 10.3328C38.8906 10.6472 39.1119 10.8872 39.3889 11.0527C39.6734 11.2182 39.9938 11.3009 40.3497 11.3009Z" fill="white"/>
<path d="M45.0605 12.5424L44.6831 3.33301H46.1661V12.5424H45.0605Z" fill="white"/>
<path d="M49.4594 12.6667C48.9293 12.6667 48.4389 12.5591 47.988 12.344C47.5453 12.1289 47.1812 11.8186 46.8967 11.4131L47.7745 10.3085C48.0041 10.6395 48.253 10.8877 48.5222 11.0532C48.7989 11.2187 49.0994 11.3014 49.4239 11.3014C50.286 11.3014 50.717 10.7677 50.717 9.70034V5.20735H47.7626V3.85449H52.2595V9.61347C52.2595 10.6395 52.0184 11.4049 51.5357 11.9096C51.061 12.4144 50.369 12.6667 49.4594 12.6667Z" fill="white"/>
<path d="M57.1697 12.6289C56.4658 12.6289 55.8486 12.4841 55.3188 12.1945C54.7966 11.8967 54.3894 11.4912 54.0967 10.9782C53.8119 10.4652 53.6694 9.88186 53.6694 9.22818C53.6694 8.56622 53.8078 7.98288 54.0848 7.47816C54.3696 6.96513 54.7569 6.56383 55.2474 6.27422C55.7457 5.98465 56.3114 5.83984 56.9443 5.83984C57.5611 5.83984 58.1107 5.98049 58.5933 6.26182C59.0759 6.54315 59.4554 6.94033 59.7324 7.45333C60.0091 7.96636 60.1477 8.57038 60.1477 9.26541C60.1477 9.33163 60.1436 9.40609 60.1358 9.48883C60.1358 9.57158 60.1317 9.65019 60.1238 9.72466H54.844V8.69451H59.341L58.7593 9.01719C58.7675 8.63656 58.6924 8.30145 58.5339 8.01187C58.3757 7.72226 58.1582 7.49472 57.8815 7.3292C57.6127 7.16372 57.3002 7.08098 56.9443 7.08098C56.5802 7.08098 56.2598 7.16372 55.9831 7.3292C55.7143 7.49472 55.5005 7.72639 55.3424 8.02427C55.1921 8.31388 55.1169 8.65724 55.1169 9.05442V9.30264C55.1169 9.69983 55.204 10.0515 55.3779 10.3576C55.5521 10.6638 55.7973 10.8996 56.1136 11.0651C56.4299 11.2306 56.794 11.3133 57.2052 11.3133C57.5611 11.3133 57.8815 11.2554 58.1664 11.1395C58.4509 11.0237 58.704 10.8417 58.9256 10.5934L59.7204 11.5491C59.4356 11.8967 59.0759 12.1656 58.6408 12.3559C58.2138 12.5379 57.7234 12.6289 57.1697 12.6289Z" fill="white"/>
<path d="M63.8679 12.6294C63.1718 12.6294 62.6342 12.4432 62.2544 12.0709C61.8746 11.6903 61.685 11.1317 61.685 10.3953V4.4502H63.168V10.3581C63.168 10.6725 63.2432 10.9166 63.3935 11.0904C63.5516 11.2641 63.7692 11.351 64.0458 11.351C64.3782 11.351 64.6548 11.26 64.8765 11.078L65.2918 12.1826C65.1176 12.3315 64.9042 12.4432 64.6511 12.5177C64.398 12.5922 64.137 12.6294 63.8679 12.6294ZM60.6409 7.20556V5.96439H64.8646V7.20556H60.6409Z" fill="white"/>
</g>
<defs>
<clipPath id="clip0_24_53543">
<rect width="65" height="16" fill="white" transform="translate(0.5)"/>
</clipPath>
</defs>
</svg>
