<?xml version="1.0" encoding="UTF-8"?>
<svg width="637px" height="128px" viewBox="0 0 637 128" version="1.1" xmlns="http://www.w3.org/2000/svg" xmlns:xlink="http://www.w3.org/1999/xlink">
    <title>logo</title>
    <g id="Page-1" stroke="none" stroke-width="1" fill="none" fill-rule="evenodd">
        <g id="logo" fill="#4D72FA" fill-rule="nonzero">
            <path d="M98.855,2.691 L98.855,22.238 C98.855,22.921 98.296,23.479 97.614,23.479 L62.044,23.479 L62.044,126.315 C62.044,126.999 61.485,127.556 60.803,127.556 L38.165,127.556 C37.482,127.556 36.924,126.998 36.924,126.315 L36.924,23.479 L1.442,23.479 C0.759,23.479 0.201,22.921 0.201,22.238 L0.201,2.691 C0.201,2.009 0.76,1.45 1.442,1.45 L97.614,1.45 C98.296,1.45 98.855,2.009 98.855,2.691 Z" id="Path"></path>
            <path d="M193.215,56.977 C190.584,50.821 186.885,45.385 182.219,40.805 C177.552,36.225 171.905,32.565 165.464,29.909 C158.998,27.253 151.862,25.9 144.216,25.9 C136.633,25.9 129.534,27.253 123.105,29.909 C116.688,32.565 111.067,36.226 106.4,40.805 C101.721,45.385 98.035,50.821 95.442,56.977 C92.847,63.133 91.532,69.797 91.532,76.771 C91.532,83.76 92.86,90.423 95.491,96.579 C98.11,102.735 101.796,108.173 106.438,112.751 C111.08,117.33 116.677,120.98 123.068,123.599 C129.46,126.229 136.546,127.558 144.13,127.558 C151.824,127.558 158.998,126.229 165.452,123.599 C171.906,120.98 177.565,117.33 182.256,112.751 C186.96,108.173 190.671,102.749 193.265,96.629 C195.859,90.499 197.187,83.822 197.187,76.772 C197.187,69.797 195.846,63.132 193.215,56.977 Z M144.403,105.986 C140.469,105.986 136.745,105.254 133.345,103.814 C129.932,102.376 126.916,100.339 124.372,97.769 C121.84,95.202 119.805,92.086 118.328,88.524 C116.851,84.974 116.094,80.991 116.094,76.684 C116.094,72.452 116.852,68.493 118.328,64.931 C119.805,61.369 121.84,58.266 124.372,55.697 C126.916,53.128 129.932,51.117 133.333,49.702 C136.746,48.288 140.469,47.568 144.403,47.568 C148.276,47.568 151.974,48.3 155.411,49.74 C158.861,51.192 161.89,53.203 164.434,55.747 C166.966,58.291 169.001,61.381 170.478,64.931 C171.955,68.493 172.7,72.452 172.7,76.684 C172.7,80.991 171.955,84.987 170.478,88.574 C169,92.161 166.965,95.288 164.421,97.857 C161.889,100.426 158.874,102.437 155.473,103.851 C152.06,105.267 148.337,105.986 144.403,105.986 Z" id="Shape"></path>
            <path d="M312.174,56.977 C309.555,50.821 305.857,45.385 301.177,40.805 C296.511,36.225 290.876,32.565 284.422,29.909 C277.969,27.253 270.82,25.9 263.175,25.9 C255.605,25.9 248.492,27.253 242.065,29.909 C235.648,32.565 230.026,36.226 225.36,40.805 C220.694,45.384 217.006,50.821 214.401,56.977 C211.807,63.133 210.491,69.797 210.491,76.771 C210.491,83.76 211.819,90.423 214.451,96.579 C217.082,102.735 220.767,108.173 225.397,112.751 C230.04,117.33 235.636,120.98 242.027,123.599 C248.42,126.229 255.506,127.558 263.09,127.558 C270.783,127.558 277.957,126.229 284.411,123.599 C290.877,120.98 296.524,117.33 301.227,112.751 C305.931,108.173 309.63,102.749 312.224,96.629 C314.829,90.499 316.146,83.822 316.146,76.772 C316.146,69.797 314.805,63.132 312.174,56.977 Z M263.361,105.986 C259.426,105.986 255.704,105.254 252.302,103.814 C248.889,102.376 245.874,100.339 243.33,97.769 C240.798,95.202 238.762,92.098 237.285,88.524 C235.807,84.962 235.063,80.978 235.063,76.684 C235.063,72.452 235.807,68.493 237.285,64.931 C238.762,61.369 240.798,58.266 243.33,55.697 C245.874,53.128 248.889,51.117 252.29,49.702 C255.703,48.288 259.426,47.568 263.36,47.568 C267.232,47.568 270.944,48.3 274.381,49.74 C277.819,51.192 280.847,53.203 283.392,55.747 C285.923,58.291 287.959,61.381 289.436,64.931 C290.914,68.493 291.658,72.452 291.658,76.684 C291.658,80.991 290.914,84.987 289.436,88.574 C287.959,92.173 285.923,95.288 283.379,97.857 C280.847,100.426 277.832,102.437 274.431,103.851 C271.019,105.267 267.296,105.986 263.361,105.986 Z" id="Shape"></path>
            <path d="M359.385,2.691 L359.385,126.316 C359.385,127 358.826,127.557 358.144,127.557 L336.053,127.557 C335.369,127.557 334.812,126.999 334.812,126.316 L334.812,2.691 C334.812,2.009 335.37,1.45 336.053,1.45 L358.144,1.45 C358.826,1.45 359.385,2.009 359.385,2.691 Z" id="Path"></path>
            <path d="M433.527,2.691 L433.527,85.782 C433.527,92.583 432.509,98.638 430.486,103.778 C428.45,108.964 425.484,113.382 421.673,116.92 C417.864,120.444 413.149,123.139 407.675,124.9 C402.263,126.663 396.046,127.556 389.195,127.556 L374.836,127.556 C374.153,127.556 373.596,126.998 373.596,126.315 L373.596,106.767 C373.596,106.085 374.154,105.526 374.836,105.526 L389.195,105.526 C396.133,105.526 401.122,103.814 404.026,100.426 C407.005,96.976 408.506,92.023 408.506,85.682 L408.58,2.69 C408.58,2.008 409.139,1.449 409.821,1.449 L432.285,1.449 C432.969,1.449 433.527,2.009 433.527,2.691 Z" id="Path"></path>
            <path d="M551.803,56.977 C549.172,50.821 545.473,45.385 540.795,40.805 C536.129,36.225 530.494,32.565 524.04,29.909 C517.586,27.253 510.437,25.9 502.792,25.9 C495.223,25.9 488.122,27.253 481.693,29.909 C475.265,32.565 469.642,36.226 464.976,40.805 C460.31,45.384 456.622,50.821 454.03,56.977 C451.424,63.133 450.107,69.797 450.107,76.771 C450.107,83.76 451.423,90.412 454.03,96.53 C456.623,102.661 460.31,108.085 464.976,112.664 C469.642,117.23 475.265,120.905 481.693,123.561 C488.122,126.216 495.222,127.557 502.792,127.557 C509.085,127.557 514.955,126.663 520.23,124.901 C525.517,123.151 530.295,120.743 534.466,117.791 C538.635,114.824 542.259,111.349 545.238,107.489 C548.203,103.618 550.5,99.521 552.051,95.289 C552.187,94.917 552.137,94.495 551.902,94.16 C551.666,93.825 551.294,93.626 550.884,93.626 L526.981,93.626 C526.522,93.626 526.112,93.874 525.889,94.272 C523.828,97.984 520.776,101.037 516.804,103.333 C512.844,105.642 508.19,106.808 502.978,106.808 C499.689,106.808 496.437,106.237 493.31,105.108 C490.182,103.978 487.29,102.365 484.708,100.304 C482.14,98.257 479.905,95.725 478.081,92.759 C476.506,90.214 475.338,87.372 474.606,84.295 L553.974,84.295 C554.594,84.295 555.116,83.835 555.203,83.227 C555.327,82.372 555.438,81.491 555.563,80.583 C555.699,79.603 555.760006,78.361 555.760006,76.772 C555.762,69.797 554.435,63.132 551.803,56.977 Z M502.979,46.117 C506.455,46.117 509.693,46.651 512.598,47.718 C515.514,48.785 518.158,50.287 520.466,52.186 C522.774,54.097 524.76,56.394 526.373,59.024 C527.726,61.221 528.806,63.616 529.6,66.172 L475.352,66.172 C476.159,63.629 477.263,61.233 478.665,59.036 C480.341,56.406 482.401,54.109 484.797,52.21 C487.192,50.298 489.947,48.797 492.987,47.717 C496.016,46.65 499.379,46.117 502.979,46.117 Z" id="Shape"></path>
            <path d="M636.458,108.146 L636.271,126.327 C636.258,127.011 635.712,127.556 635.03,127.556 L617.122,127.556 C612.033,127.556 607.168,127.022 602.662,125.968 C598.058,124.9 593.988,122.902 590.587,120.035 C587.187,117.155 584.456,113.183 582.471,108.231 C580.51,103.317 579.517,96.951 579.517,89.317 L579.517,52.11 L565.133,52.11 C564.449,52.11 563.892,51.551 563.892,50.869 L563.892,33.779 C563.892,33.22 564.264,32.736 564.797,32.587 L579.108,28.616 L583.426,1.486 C583.526,0.89 584.046,0.443 584.655,0.443 L602.85,0.443 C603.532,0.443 604.09,1.002 604.09,1.684 L604.09,30.539 L632.673,30.539 C633.356,30.539 633.914,31.098 633.914,31.78 L633.914,50.868 C633.914,51.55 633.355,52.109 632.673,52.109 L604.003,52.109 L604.003,89.13 C604.003,92.742 604.425,95.734 605.244,98.03 C606.063,100.3 607.143,102.099 608.483,103.379 C609.812,104.657 611.399,105.563 613.199,106.071 C615.061,106.618 617.084,106.89 619.219,106.89 L635.217,106.89 C635.552,106.89 635.862,107.027 636.098,107.262 C636.333,107.5 636.458,107.811 636.458,108.146 Z" id="Path"></path>
        </g>
    </g>
</svg>