<svg width="24" height="24" viewBox="0 0 24 24" fill="none" xmlns="http://www.w3.org/2000/svg">
<path d="M6.21655 14.6433C6.21655 15.8057 5.27782 16.7452 4.11633 16.7452C2.95485 16.7452 2.01611 15.8057 2.01611 14.6433C2.01611 13.4809 2.95485 12.5414 4.11633 12.5414H6.21655V14.6433ZM7.26666 14.6433C7.26666 13.4809 8.2054 12.5414 9.36688 12.5414C10.5284 12.5414 11.4671 13.4809 11.4671 14.6433V19.8981C11.4671 21.0605 10.5284 22 9.36688 22C8.2054 22 7.26666 21.0605 7.26666 19.8981V14.6433Z" fill="#E01E5A"/>
<path d="M9.36668 6.20383C8.20519 6.20383 7.26646 5.26433 7.26646 4.10191C7.26646 2.93949 8.20519 2 9.36668 2C10.5282 2 11.4669 2.93949 11.4669 4.10191V6.20383H9.36668ZM9.36668 7.27071C10.5282 7.27071 11.4669 8.2102 11.4669 9.37262C11.4669 10.535 10.5282 11.4745 9.36668 11.4745H4.10022C2.93873 11.4745 2 10.535 2 9.37262C2 8.2102 2.93873 7.27071 4.10022 7.27071H9.36668Z" fill="#36C5F0"/>
<path d="M17.7838 9.37262C17.7838 8.2102 18.7225 7.27071 19.884 7.27071C21.0455 7.27071 21.9842 8.2102 21.9842 9.37262C21.9842 10.535 21.0455 11.4745 19.884 11.4745H17.7838V9.37262ZM16.7336 9.37262C16.7336 10.535 15.7949 11.4745 14.6334 11.4745C13.4719 11.4745 12.5332 10.535 12.5332 9.37262V4.10191C12.5332 2.93949 13.4719 2 14.6334 2C15.7949 2 16.7336 2.93949 16.7336 4.10191V9.37262V9.37262Z" fill="#2EB67D"/>
<path d="M14.6334 17.7962C15.7949 17.7962 16.7336 18.7357 16.7336 19.8981C16.7336 21.0605 15.7949 22 14.6334 22C13.4719 22 12.5332 21.0605 12.5332 19.8981V17.7962H14.6334ZM14.6334 16.7452C13.4719 16.7452 12.5332 15.8057 12.5332 14.6433C12.5332 13.4809 13.4719 12.5414 14.6334 12.5414H19.8999C21.0614 12.5414 22.0001 13.4809 22.0001 14.6433C22.0001 15.8057 21.0614 16.7452 19.8999 16.7452H14.6334Z" fill="#ECB22E"/>
</svg>
