<svg width="92" height="92" viewBox="0 0 92 92" fill="none" xmlns="http://www.w3.org/2000/svg">
<rect width="92" height="92" fill="#4368E3"/>
<path d="M66.7878 46L62.7513 51.7734L62.1558 52.6209L58.7149 57.5402V57.5468L57.5238 59.2418H41.3647L42.5558 57.5402L46.0034 52.6209H54.0763L54.6718 51.7734L58.7149 46L54.6718 40.2266L54.0763 39.3791H47.1878L50.6354 34.4598V34.4532L51.8264 32.7582H57.5238L58.7149 34.4532V34.4598L62.1558 39.3791L62.7513 40.2266L66.7878 46Z" fill="white"/>
<path d="M42.5558 46L38.5193 51.7734L37.9238 52.6209L33.2918 59.2418H25.2123L29.8443 52.6209L34.4763 46L29.8443 39.3791L25.2123 32.7582H33.2918L37.9238 39.3791L38.5193 40.2266L42.5558 46Z" fill="white"/>
</svg>
