<svg width="24" height="24" viewBox="0 0 24 24" fill="none" xmlns="http://www.w3.org/2000/svg">
<path d="M20.7255 10.6233C21.044 10.7889 21.3696 10.942 21.6761 11.1287C21.7537 11.176 21.7806 11.3271 21.8128 11.4363C21.8694 11.628 21.8891 11.8349 21.9675 12.0153C22.0405 12.1831 21.98 12.2869 21.8878 12.3985C21.4905 12.8799 21.0887 13.3574 20.6949 13.8419C20.2038 14.4461 19.7195 15.0562 19.2309 15.6625C19.1398 15.7756 19.0417 15.8827 18.9268 15.9891C18.8907 15.9314 18.8749 15.8771 18.8589 15.8229C18.6529 15.1253 18.4489 14.4271 18.24 13.7305C18.1392 13.3943 18.0291 13.0611 17.9228 12.7129C17.9003 12.5936 17.8782 12.4879 17.8691 12.3821C18.0151 12.3349 18.1499 12.2929 18.2803 12.2393C18.4534 12.1682 18.6279 12.0976 18.7933 12.0097C19.0378 11.8796 19.2822 11.7463 19.5129 11.5923C19.7084 11.4618 19.8891 11.3059 20.0676 11.1505C20.2803 10.9655 20.397 10.654 20.7255 10.6233Z" fill="#40328A"/>
<path d="M17.9234 12.7266C18.0293 13.0611 18.1394 13.3943 18.2402 13.7304C18.4492 14.4271 18.6531 15.1253 18.8591 15.8229C18.8751 15.8771 18.891 15.9314 18.9166 15.9937C18.823 16.0011 18.7184 16.0106 18.6164 15.9979C18.1952 15.9454 17.7752 15.8823 17.3539 15.8306C17.0179 15.7894 16.6802 15.7631 16.3441 15.7231C16.0036 15.6827 15.6643 15.6325 15.3241 15.589C15.1185 15.5628 14.9123 15.5411 14.7063 15.5178C14.5008 15.4946 14.2953 15.4719 14.0718 15.4495C14.0539 15.4501 14.0467 15.4475 14.0502 15.4364C14.0549 15.4101 14.0561 15.3947 14.0628 15.3669C14.0886 15.1924 14.1143 15.0308 14.1286 14.8681C14.1739 14.3498 14.215 13.8311 14.2656 13.3123C14.2735 13.3121 14.2892 13.3117 14.3049 13.3119C14.916 13.3096 15.5133 13.3548 16.0942 13.1504C16.2891 13.0819 16.5036 13.0725 16.7092 13.0369C16.8336 13.0153 16.9607 13.0052 17.0821 12.9724C17.364 12.8961 17.6432 12.8092 17.9234 12.7266Z" fill="#573085"/>
<path d="M9.86065 21C9.82712 20.9928 9.78437 20.9969 9.76151 20.9767C9.57438 20.812 9.38925 20.6448 9.20678 20.4746C8.8368 20.1294 8.46888 19.7819 8.09717 19.4124C8.10702 19.3578 8.1153 19.3231 8.13326 19.295C8.44801 18.8034 8.70462 18.2851 8.8708 17.717C8.93311 17.504 9.06524 17.3137 9.15379 17.1077C9.21985 16.954 9.29518 16.7953 9.31513 16.6321C9.33757 16.4486 9.30177 16.2576 9.29255 16.0698C9.28067 15.8279 9.27003 15.586 9.26816 15.3343C9.35345 15.3126 9.4292 15.2986 9.50546 15.2889C9.81148 15.2498 10.1177 15.212 10.4224 15.1879C10.4052 15.3317 10.3881 15.4613 10.3741 15.5913C10.324 16.0555 10.2731 16.5195 10.2263 16.984C10.1875 17.3698 10.1561 17.7563 10.1177 18.1421C10.0781 18.5389 10.0346 18.9353 9.99187 19.3317C9.95098 19.7111 9.90434 20.0899 9.86937 20.4699C9.85363 20.6409 9.86013 20.8141 9.85776 20.9897C9.859 20.993 9.86065 21 9.86065 21Z" fill="#611D75"/>
<path d="M14.0574 15.4501C14.0001 15.849 13.9415 16.2483 13.8772 16.6466C13.8068 17.083 13.7309 17.5184 13.6576 17.9542C13.5797 18.4174 13.5059 18.8814 13.4193 19.3429C13.4093 19.3961 13.3362 19.4523 13.28 19.4782C12.9259 19.6411 12.568 19.7949 12.2121 19.9536C11.8467 20.1165 11.4823 20.2819 11.1172 20.4454C10.7069 20.6292 10.2962 20.8122 9.8732 20.9977C9.86065 21 9.85899 20.993 9.86385 20.9805C9.99951 20.7917 10.1297 20.615 10.2612 20.4393C10.6965 19.8578 11.1308 19.2754 11.5683 18.6958C12.1211 17.9634 12.6758 17.2326 13.2316 16.5027C13.5009 16.149 13.7747 15.7991 14.0464 15.4474C14.0464 15.4474 14.0536 15.45 14.0574 15.4501Z" fill="#41217A"/>
<path d="M11.7891 3.91278C12.8965 4.16136 14.0005 4.42941 15.1138 4.64548C15.4101 4.70297 15.4116 4.91119 15.4866 5.09392C15.6009 5.37225 15.6904 5.66142 15.7819 5.9643C15.6932 6.04091 15.6206 6.11969 15.532 6.15398C15.1257 6.31108 14.7177 6.46478 14.3045 6.6009C14.107 6.66597 13.8966 6.6892 13.6866 6.72127C13.6561 6.68065 13.6288 6.65186 13.6065 6.61938C13.1698 5.9828 12.7313 5.34748 12.2985 4.70806C12.1223 4.44764 11.9585 4.17815 11.7891 3.91278Z" fill="#46C397"/>
<path d="M9.25905 15.3441C9.27022 15.586 9.28086 15.8279 9.29274 16.0698C9.30196 16.2576 9.33776 16.4486 9.31532 16.6321C9.29537 16.7953 9.22004 16.954 9.15399 17.1077C9.06543 17.3137 8.9333 17.504 8.87099 17.717C8.70481 18.2851 8.4482 18.8034 8.13345 19.295C8.11549 19.3231 8.10721 19.3578 8.093 19.4018C7.7546 19.1044 7.41762 18.7944 7.07178 18.4674C7.14891 18.2848 7.22422 18.1121 7.32285 17.9549C7.64613 17.4398 7.89557 16.8908 8.06637 16.3029C8.10906 16.1559 8.17296 16.0144 8.20368 15.8652C8.22907 15.7419 8.21992 15.6109 8.23953 15.4812C8.58834 15.4342 8.92369 15.3891 9.25905 15.3441Z" fill="#691D74"/>
<path d="M3.62433 9.03798C3.52554 8.76152 3.42675 8.48506 3.33545 8.18517C3.62108 8.15 3.86147 8.27897 4.10764 8.38386C4.27287 8.45426 4.43447 8.5927 4.59842 8.59389C4.86064 8.59579 5.06719 8.69086 5.27176 8.82981C5.54463 9.01514 5.81786 9.1999 6.09243 9.39864C6.12625 9.56391 6.15858 9.71544 6.17949 9.86835C6.14509 9.88465 6.11105 9.89393 6.10082 9.91537C5.98318 10.1617 5.81116 10.3853 5.8252 10.6851C5.83553 10.9057 5.82728 11.1272 5.82701 11.3614C5.74908 11.5381 5.67144 11.7017 5.58382 11.8599C5.31465 11.4806 5.05442 11.1075 4.79651 10.7326C4.41731 10.1815 4.03975 9.6291 3.65746 9.06876C3.64372 9.05283 3.63403 9.0454 3.62433 9.03798Z" fill="#A22E79"/>
<path d="M8.22608 15.4833C8.21992 15.6109 8.22908 15.7419 8.20368 15.8652C8.17296 16.0144 8.10906 16.1559 8.06637 16.3029C7.89558 16.8909 7.64614 17.4398 7.32286 17.9549C7.22423 18.1121 7.14892 18.2849 7.06146 18.4625C6.8427 18.2803 6.62269 18.0891 6.4088 17.891C6.13634 17.6386 5.86883 17.3805 5.60645 17.1128C5.65938 17.0612 5.7199 17.0308 5.74832 16.9808C5.93868 16.6461 6.12463 16.3086 6.30573 15.9685C6.33869 15.9066 6.34273 15.8282 6.36904 15.7479C6.4721 15.722 6.56623 15.7056 6.67472 15.6894C7.10153 15.6319 7.51399 15.5744 7.93981 15.5155C8.04415 15.5038 8.13511 15.4936 8.22608 15.4833Z" fill="#771D73"/>
<path d="M20.72 10.6122C20.397 10.654 20.2803 10.9655 20.0676 11.1505C19.8891 11.3059 19.7084 11.4618 19.5129 11.5923C19.2822 11.7463 19.0379 11.8797 18.7933 12.0097C18.6279 12.0976 18.4535 12.1682 18.2803 12.2393C18.1499 12.2929 18.0151 12.3349 17.8599 12.3741C17.7104 11.9237 17.5833 11.4812 17.4668 11.0338C17.6237 10.949 17.7707 10.8705 17.916 10.7887C18.2779 10.5852 18.5568 10.2773 18.8532 9.99117C18.9356 9.91161 19.0154 9.83323 18.9893 9.7005C19.5644 10.0007 20.1395 10.3009 20.72 10.6122Z" fill="#403C8C"/>
<path d="M6.09057 9.38492C5.81749 9.19992 5.54426 9.01516 5.2714 8.82983C5.06683 8.69088 4.86028 8.59581 4.59806 8.59391C4.43411 8.59272 4.2725 8.45428 4.10728 8.38388C3.8611 8.279 3.62072 8.15002 3.33415 8.17198C3.17111 7.76577 3.0165 7.34932 2.87354 6.91825C2.89909 6.89133 2.913 6.87903 2.9269 6.86673C2.9269 6.86673 2.92742 6.86929 2.9398 6.86972C3.00459 6.85644 3.05877 6.84763 3.10913 6.82825C3.42693 6.70596 3.74388 6.58133 4.0622 6.46936C4.13819 6.579 4.2068 6.6829 4.28928 6.77325C4.47085 6.97215 4.68917 7.14276 4.83843 7.36391C5.08495 7.72916 5.46471 7.82489 5.82537 7.98682C5.86037 8.15222 5.89448 8.30328 5.92797 8.46869C5.98175 8.78366 6.03616 9.08429 6.09057 9.38492Z" fill="#A4377C"/>
<path d="M11.7808 3.90835C11.9584 4.17813 12.1222 4.44762 12.2985 4.70804C12.7313 5.34746 13.1697 5.98279 13.6064 6.61936C13.6287 6.65185 13.656 6.68063 13.691 6.73194C13.8175 6.92451 13.9325 7.09743 14.051 7.26776C14.2072 7.49229 14.3661 7.71481 14.5283 7.94893C14.5974 8.06654 14.662 8.17341 14.7147 8.2795C14.4103 8.08387 14.1177 7.88902 13.8186 7.68501C13.3012 7.31919 12.7892 6.96425 12.28 6.6052C12.0037 6.41036 11.732 6.2085 11.46 5.9954C11.4716 5.9424 11.4877 5.90426 11.4903 5.86517C11.5253 5.33616 11.5504 4.80628 11.5972 4.27843C11.6094 4.14015 11.5584 3.96184 11.7284 3.87073C11.7431 3.88179 11.7579 3.89286 11.7808 3.90835Z" fill="#648497"/>
<path d="M5.95996 4.49753C6.51894 4.06249 7.07792 3.62745 7.6483 3.20319C7.69334 3.28502 7.73145 3.35423 7.75985 3.42746C7.8934 3.77186 8.02477 4.11718 8.15599 4.46255C8.2691 4.76024 8.38097 5.05843 8.48478 5.36638C8.29235 5.41362 8.10854 5.45088 7.91053 5.48872C7.84727 5.49608 7.79811 5.50215 7.74917 5.50975C7.35236 5.57141 6.95559 5.63337 6.55776 5.68302C6.44066 5.47267 6.31572 5.2794 6.21117 5.07497C6.11593 4.88878 6.04282 4.69049 5.95996 4.49753Z" fill="#B9537C"/>
<path d="M7.92725 3.01566C8.84958 3.01438 9.77193 3.01311 10.7074 3.02595C10.6778 3.16544 10.5973 3.29131 10.5987 3.41613C10.6054 3.9797 10.636 4.54296 10.6564 5.10639C10.6606 5.22334 10.6579 5.34056 10.6479 5.45291C10.465 5.33528 10.2926 5.22239 10.1161 5.09924C9.95918 4.94024 9.8089 4.78849 9.65279 4.64346C9.38995 4.39927 9.12011 4.16305 8.85927 3.91664C8.54529 3.62005 8.23764 3.3163 7.92725 3.01566Z" fill="#727C93"/>
<path d="M2.52414 14.3818C2.37688 14.2565 2.23451 14.1244 2.08054 14.0087C1.98662 13.9381 1.9857 13.8772 2.02283 13.77C2.20096 13.2553 2.36729 12.7363 2.5495 12.2253C2.59855 12.2507 2.64855 12.2958 2.67097 12.2842C2.74809 12.2441 2.81293 12.1797 2.88734 12.1329C2.99795 12.0633 3.11072 11.9966 3.22645 11.9366C3.30372 11.8966 3.39534 11.8829 3.4671 11.8356C3.61464 11.7383 3.75317 11.6264 3.90491 11.5303C3.92746 11.6346 3.94353 11.7287 3.95302 11.8236C3.99005 12.1934 4.025 12.5634 4.04901 12.9347C3.97724 13.0206 3.92345 13.111 3.85602 13.1887C3.60778 13.4749 3.35969 13.7615 3.10221 14.0386C2.94419 14.2087 2.81517 14.4455 2.52414 14.3818Z" fill="#892172"/>
<path d="M18.9787 9.69501C19.0156 9.8332 18.9358 9.91159 18.8534 9.99115C18.5571 10.2773 18.2781 10.5852 17.9163 10.7887C17.771 10.8704 17.624 10.9489 17.4598 11.03C17.4327 11.0242 17.4264 11.0151 17.4218 10.9909C17.3213 10.6306 17.2222 10.2833 17.1183 9.92443C17.0061 9.57588 16.8987 9.23902 16.7907 8.88855C16.7676 8.758 16.745 8.64105 16.7231 8.5235C16.7238 8.5229 16.7251 8.52155 16.7251 8.52155C17.0576 8.69449 17.3902 8.86727 17.7226 9.0404C18.1377 9.25663 18.5527 9.47315 18.9787 9.69501Z" fill="#3F478E"/>
<path d="M14.5236 7.93823C14.3659 7.71484 14.207 7.49233 14.0508 7.2678C13.9323 7.09746 13.8173 6.92455 13.6963 6.74209C13.8964 6.68922 14.1068 6.66599 14.3043 6.60092C14.7174 6.4648 15.1254 6.3111 15.5317 6.154C15.6204 6.11971 15.6929 6.04093 15.7835 5.97736C15.9373 6.37599 16.0806 6.77991 16.2174 7.20701C15.6993 7.42318 15.1869 7.61416 14.677 7.81195C14.6188 7.83453 14.5744 7.89521 14.5236 7.93823Z" fill="#43B694"/>
<path d="M10.6583 5.45768C10.6578 5.34058 10.6605 5.22336 10.6563 5.10641C10.6359 4.54298 10.6054 3.97973 10.5987 3.41615C10.5972 3.29133 10.6777 3.16547 10.7228 3.02829C11.0626 2.9443 11.3095 3.0421 11.4514 3.39197C11.5171 3.55407 11.6277 3.69677 11.723 3.8595C11.5582 3.96186 11.6092 4.14017 11.5969 4.27845C11.5502 4.80629 11.525 5.33618 11.4901 5.86518C11.4875 5.90427 11.4714 5.94241 11.4483 5.99387C11.3983 5.99563 11.3616 5.98452 11.3201 5.9629C11.2602 5.90697 11.2068 5.85904 11.1496 5.81662C10.9867 5.69577 10.8222 5.57717 10.6583 5.45768Z" fill="#6B8195"/>
<path d="M7.91533 3.01379C8.23764 3.31632 8.5453 3.62006 8.85927 3.91666C9.12012 4.16307 9.38995 4.39928 9.6528 4.64347C9.8089 4.78851 9.95918 4.94025 10.1109 5.10009C10.1097 5.11119 10.0991 5.11282 10.0846 5.11208C9.951 5.13025 9.83188 5.14949 9.71266 5.16797C9.30632 5.23093 8.89995 5.29362 8.4936 5.35641C8.38118 5.05845 8.26932 4.76026 8.15621 4.46257C8.02498 4.1172 7.89362 3.77188 7.76007 3.42748C7.73167 3.35424 7.69356 3.28504 7.65967 3.20156C7.74074 3.13006 7.82208 3.07099 7.91533 3.01379Z" fill="#B25D7F"/>
<path d="M5.94902 4.49902C6.04307 4.69053 6.11618 4.88882 6.21141 5.07502C6.31597 5.27944 6.44091 5.47272 6.55019 5.68466C6.54341 5.69846 6.52781 5.70187 6.51443 5.70105C6.40011 5.72202 6.29957 5.74621 6.19812 5.76516C5.94149 5.81312 5.68444 5.85873 5.41509 5.90624C4.9555 6.09062 4.50839 6.27405 4.06127 6.45748C3.74404 6.58134 3.42709 6.70597 3.1093 6.82826C3.05893 6.84764 3.00476 6.85645 2.93896 6.86892C3.13367 6.69653 3.33808 6.52032 3.5505 6.35512C4.24155 5.81768 4.93571 5.28453 5.62817 4.74903C5.73279 4.66811 5.83468 4.58342 5.94902 4.49902Z" fill="#CE3973"/>
<path d="M3.8954 11.5206C3.75316 11.6264 3.61464 11.7383 3.46709 11.8356C3.39534 11.8829 3.30371 11.8967 3.22645 11.9367C3.11072 11.9966 2.99795 12.0633 2.88733 12.1329C2.81292 12.1797 2.74808 12.2441 2.67096 12.2842C2.64855 12.2959 2.59855 12.2508 2.56055 12.2187C2.67648 11.852 2.79275 11.4981 2.90971 11.1445C3.14051 10.4468 3.37169 9.74924 3.61342 9.0448C3.63384 9.04544 3.64354 9.05286 3.65744 9.08396C3.69696 9.49893 3.73021 9.89045 3.76814 10.2815C3.80823 10.6948 3.85279 11.1076 3.8954 11.5206Z" fill="#8D2672"/>
<path d="M2.52881 14.3926C2.81509 14.4455 2.94411 14.2088 3.10213 14.0387C3.3596 13.7615 3.60769 13.4749 3.85594 13.1887C3.92337 13.111 3.97716 13.0206 4.05075 12.9489C4.07645 13.0686 4.0895 13.1755 4.10061 13.2826C4.14329 13.6944 4.18536 14.1064 4.21754 14.5233C4.05503 14.7306 3.90663 14.9363 3.74785 15.133C3.69884 15.1937 3.62153 15.2301 3.55718 15.2775C3.37208 15.1245 3.18525 14.9737 3.00242 14.8179C2.84378 14.6826 2.68967 14.5417 2.52881 14.3926Z" fill="#801D72"/>
<path d="M14.5283 7.94896C14.5746 7.8952 14.619 7.83452 14.6772 7.81194C15.1871 7.61415 15.6995 7.42317 16.2183 7.22034C16.3247 7.46926 16.4255 7.72739 16.5227 7.98698C16.5812 8.14332 16.6341 8.30194 16.6918 8.47523C16.694 8.49092 16.6941 8.49735 16.6783 8.49487C16.0284 8.44282 15.3945 8.39324 14.7593 8.33425C14.7476 8.30999 14.7371 8.29515 14.7267 8.28031C14.662 8.17344 14.5974 8.06657 14.5283 7.94896Z" fill="#41A892"/>
<path d="M6.36005 15.7574C6.34266 15.8282 6.33862 15.9065 6.30566 15.9684C6.12457 16.3086 5.93861 16.6461 5.74825 16.9808C5.71984 17.0308 5.65932 17.0612 5.60176 17.1021C5.43978 16.975 5.2862 16.8506 5.14037 16.7171C4.89121 16.4891 4.64691 16.2554 4.3981 16.011C4.39564 15.998 4.40009 15.9931 4.41434 15.9955C4.75036 15.9525 5.07212 15.9072 5.40866 15.8618C5.73564 15.827 6.04785 15.7922 6.36005 15.7574Z" fill="#801D72"/>
<path d="M3.56201 15.2883C3.62169 15.23 3.699 15.1937 3.74801 15.133C3.90679 14.9363 4.05519 14.7306 4.22737 14.5331C4.27417 14.8185 4.3012 15.0991 4.32976 15.3937C4.35424 15.6029 4.37718 15.798 4.40013 15.9931C4.40013 15.9931 4.39568 15.998 4.39355 16.0005C4.1946 15.8376 3.9973 15.6727 3.80118 15.5064C3.72169 15.439 3.64477 15.3683 3.56201 15.2883Z" fill="#771D73"/>
<path d="M2.91613 6.86761C2.91299 6.87901 2.89908 6.89131 2.87549 6.90505C2.87899 6.89383 2.89218 6.88117 2.91613 6.86761Z" fill="#CE3973"/>
<path d="M16.6924 8.48816C16.7005 8.49166 16.7102 8.49789 16.7225 8.51283C16.725 8.52153 16.7237 8.52288 16.717 8.52055C16.7023 8.51338 16.6969 8.50641 16.6941 8.49731C16.6941 8.49731 16.694 8.49088 16.6924 8.48816Z" fill="#3F478E"/>
<path d="M17.4227 11.004C17.4261 11.0151 17.4324 11.0242 17.4488 11.0348C17.5832 11.4811 17.7104 11.9236 17.8467 12.3741C17.8781 12.4878 17.9003 12.5936 17.9228 12.7129C17.6429 12.8092 17.3637 12.8961 17.0819 12.9724C16.9605 13.0052 16.8333 13.0153 16.709 13.0369C16.5033 13.0725 16.2889 13.0818 16.094 13.1504C15.513 13.3548 14.9157 13.3096 14.3053 13.2972C14.3007 13.1431 14.3113 13.0039 14.3227 12.85C14.3349 12.7224 14.3432 12.6091 14.358 12.4968C14.3889 12.2624 14.4232 12.0285 14.4618 11.8057C14.501 11.8303 14.5373 11.8599 14.5675 11.8544C14.8263 11.8075 15.0876 11.7689 15.3411 11.6999C15.9463 11.535 16.5601 11.3952 17.1232 11.0943C17.2138 11.0458 17.3224 11.0332 17.4227 11.004Z" fill="#573B89"/>
<path d="M14.0501 15.4365C13.7749 15.7991 13.5011 16.1491 13.2318 16.5027C12.676 17.2326 12.1213 17.9634 11.5686 18.6958C11.131 19.2755 10.6968 19.8578 10.2614 20.4393C10.1299 20.615 9.99973 20.7918 9.86284 20.9772C9.86034 20.8141 9.85385 20.6409 9.86959 20.4699C9.90456 20.0899 9.9512 19.7111 9.99209 19.3317C10.0348 18.9353 10.0783 18.5389 10.1179 18.1422C10.1563 17.7564 10.1877 17.3698 10.2266 16.9841C10.2733 16.5196 10.3243 16.0555 10.3743 15.5913C10.3883 15.4614 10.4054 15.3318 10.4232 15.1788C10.4255 15.1495 10.4256 15.1434 10.4404 15.1383C10.8295 15.1625 11.2041 15.1857 11.5788 15.2088C11.7769 15.2211 11.9751 15.2329 12.1733 15.2451C12.6903 15.277 13.2073 15.309 13.7388 15.3423C13.8546 15.3556 13.956 15.3675 14.0573 15.3794C14.0561 15.3947 14.0548 15.4101 14.0501 15.4365Z" fill="#312556"/>
<path d="M14.0626 15.367C13.9558 15.3675 13.8545 15.3556 13.7387 15.3293C13.7271 15.1463 13.5915 15.1455 13.4877 15.104C13.3776 15.06 13.2661 15.018 13.1609 14.9635C13.0219 14.8913 12.8885 14.8076 12.7525 14.7292C12.4969 14.5819 12.2288 14.4534 11.9889 14.2824C11.7474 14.1104 11.5297 13.9012 11.31 13.6985C11.1947 13.5921 11.0974 13.4648 11.0054 13.3469C11.2092 13.3355 11.3998 13.3134 11.5901 13.315C11.8986 13.3175 12.2071 13.3341 12.5154 13.3478C12.6083 13.3519 12.7022 13.3813 12.7932 13.3725C13.0395 13.3486 13.2839 13.2935 13.5303 13.2827C13.7719 13.2722 14.0151 13.301 14.2576 13.3125C14.2148 13.8311 14.1737 14.3498 14.1284 14.8681C14.1141 15.0308 14.0884 15.1924 14.0626 15.367Z" fill="#892172"/>
<path d="M14.2654 13.3123C14.0151 13.301 13.7719 13.2722 13.5303 13.2827C13.2839 13.2935 13.0395 13.3486 12.7932 13.3725C12.7022 13.3813 12.6083 13.3519 12.5154 13.3478C12.2071 13.3341 11.8986 13.3175 11.5901 13.3149C11.3998 13.3134 11.2092 13.3354 10.9935 13.3456C10.5869 13.1038 10.2055 12.8633 9.82959 12.6125C9.93117 12.518 10.0273 12.4338 10.1232 12.3495C10.3583 12.1429 10.5934 11.9362 10.836 11.7291C10.8436 11.7286 10.8587 11.7273 10.8704 11.7286C11.2037 11.9165 11.5188 12.1165 11.8484 12.2867C12.3784 12.5605 12.9558 12.6933 13.5294 12.8216C13.7847 12.8786 14.0572 12.8529 14.322 12.8647C14.3114 13.0039 14.3008 13.1431 14.2896 13.297C14.289 13.3117 14.2733 13.3121 14.2654 13.3123Z" fill="#8D2672"/>
<path d="M10.4254 15.1373C10.4253 15.1434 10.4251 15.1495 10.4243 15.1646C10.1175 15.212 9.81137 15.2498 9.50534 15.2889C9.42908 15.2986 9.35333 15.3126 9.26804 15.3343C8.92338 15.3891 8.58803 15.4341 8.23922 15.4812C8.1348 15.4935 8.04383 15.5038 7.93945 15.4996C7.94933 15.1799 7.97279 14.8746 7.99588 14.5693C8.02169 14.2278 8.0941 13.9008 8.21574 13.5788C8.281 13.4061 8.28369 13.2024 8.28791 13.0121C8.29307 12.7795 8.27024 12.5462 8.26957 12.3079C8.30244 12.2708 8.31915 12.2295 8.34919 12.209C8.45224 12.1389 8.61078 11.9952 8.65634 12.0258C8.79141 12.1165 8.9247 12.2606 8.98072 12.4142C9.05651 12.6221 9.05278 12.8597 9.09712 13.0815C9.12064 13.1992 9.14245 13.3709 9.21926 13.4133C9.43861 13.5346 9.68572 13.6023 9.92443 13.7038C10.0931 14.1902 10.2593 14.6638 10.4254 15.1373Z" fill="#4E1A5F"/>
<path d="M4.32829 15.3797C4.30126 15.0991 4.27424 14.8185 4.23754 14.528C4.18558 14.1064 4.14352 13.6945 4.10083 13.2826C4.08973 13.1755 4.07668 13.0686 4.06269 12.9475C4.02514 12.5635 3.99019 12.1934 3.95316 11.8236C3.94367 11.7288 3.9276 11.6346 3.90505 11.5304C3.85294 11.1076 3.80838 10.6948 3.76829 10.2815C3.73035 9.89045 3.6971 9.49894 3.66162 9.09247C4.03971 9.62914 4.41726 10.1815 4.79646 10.7326C5.05438 11.1075 5.3146 11.4807 5.5882 11.8709C5.7219 12.075 5.84121 12.2628 5.95008 12.4564C5.90237 12.5433 5.86058 12.6227 5.82867 12.7062C5.70129 13.0394 5.60942 13.3924 5.44373 13.7035C5.21072 14.1411 4.92812 14.5509 4.65758 14.9663C4.56158 15.1137 4.43882 15.2425 4.32829 15.3797Z" fill="#7B165B"/>
<path d="M6.09225 9.39863C6.03635 9.08426 5.98194 8.78363 5.93994 8.47002C6.16693 8.55142 6.38152 8.6458 6.59609 8.74018C6.61466 8.72779 6.63323 8.71541 6.6518 8.70302C6.582 8.32815 6.5122 7.95327 6.44355 7.58453C6.60802 7.49011 6.73114 7.52429 6.85594 7.66696C6.96051 7.78652 7.10153 7.87198 7.2266 7.98527C7.27443 8.07869 7.31019 8.17126 7.37218 8.23765C7.5062 8.38118 7.65696 8.50782 7.79484 8.64773C7.98855 8.84429 7.99829 8.96644 7.852 9.20496C7.63219 9.56336 7.63241 9.58245 7.87029 9.92062C7.93838 10.0174 8.00409 10.1166 8.07955 10.207C8.11687 10.2517 8.17388 10.2788 8.21889 10.3256C8.1868 10.4219 8.15779 10.5065 8.12364 10.6023C8.06613 10.7441 8.01377 10.8746 7.94906 11.0046C7.89034 10.9769 7.83781 10.957 7.7987 10.9213C7.6538 10.7892 7.51272 10.6526 7.37142 10.5163C7.2827 10.4307 7.22124 10.4228 7.19085 10.5674C7.15232 10.7507 7.07563 10.9314 7.07053 11.1149C7.06043 11.4785 6.79398 11.5992 6.55628 11.7492C6.509 11.5388 6.46769 11.3403 6.42671 11.1278C6.34829 10.6982 6.26951 10.2826 6.19073 9.86697C6.1584 9.71543 6.12607 9.5639 6.09225 9.39863Z" fill="#75777C"/>
<path d="M6.42646 11.1419C6.46778 11.3404 6.5091 11.5388 6.55555 11.7634C6.5612 11.8366 6.56173 11.8837 6.55698 11.9418C6.51026 12.032 6.46505 12.1094 6.42815 12.1908C6.3473 12.3692 6.27068 12.5495 6.18248 12.7235C6.10192 12.6288 6.03121 12.5398 5.96049 12.4507C5.84118 12.2628 5.72187 12.075 5.59814 11.8762C5.67136 11.7017 5.749 11.5382 5.83897 11.3602C6.04302 11.2778 6.23474 11.2099 6.42646 11.1419Z" fill="#8D2672"/>
<path d="M6.42671 11.1278C6.23464 11.2098 6.04292 11.2778 5.83916 11.347C5.8271 11.1271 5.83535 10.9057 5.82503 10.6851C5.81099 10.3853 5.983 10.1617 6.10064 9.91536C6.11088 9.89393 6.14492 9.88465 6.17932 9.86835C6.26951 10.2826 6.34828 10.6982 6.42671 11.1278Z" fill="#8A3177"/>
<path d="M8.25997 12.3133C8.27069 12.5462 8.29353 12.7795 8.28837 13.0121C8.28414 13.2024 8.28145 13.4061 8.2162 13.5788C8.09455 13.9008 8.02215 14.2279 7.99633 14.5693C7.97324 14.8746 7.94979 15.1799 7.92654 15.501C7.51413 15.5744 7.10167 15.6319 6.6748 15.6752C6.70632 15.4862 6.75247 15.3114 6.79815 15.1365C6.93972 14.5945 7.08511 14.0535 7.21748 13.5091C7.23394 13.4415 7.18099 13.3557 7.16128 13.2655C7.32956 12.7903 7.49677 12.328 7.6759 11.8657C7.74834 11.9089 7.81072 11.9497 7.86899 11.9959C8.00039 12.1003 8.12977 12.2073 8.25997 12.3133Z" fill="#581D60"/>
<path d="M7.16005 13.2784C7.18083 13.3557 7.23378 13.4415 7.21732 13.5092C7.08495 14.0535 6.93956 14.5945 6.79799 15.1365C6.75231 15.3114 6.70616 15.4862 6.66029 15.6751C6.56621 15.7056 6.47207 15.7219 6.36902 15.7478C6.04789 15.7922 5.73568 15.827 5.40869 15.8485C5.40869 15.7876 5.41811 15.7375 5.43907 15.6931C5.68412 15.1749 5.93047 14.6573 6.17743 14.14C6.30415 13.8745 6.43278 13.6101 6.57055 13.3507C6.69581 13.5025 6.81106 13.6489 6.9265 13.7949C6.92668 13.7947 6.92613 13.7951 6.92674 13.8036C6.9325 13.8213 6.93764 13.8304 6.94278 13.8396C6.94804 13.825 6.95329 13.8103 6.96326 13.784C7.032 13.6076 7.09603 13.443 7.16005 13.2784Z" fill="#61155C"/>
<path d="M7.22657 7.97254C7.10168 7.87198 6.96066 7.78652 6.85608 7.66696C6.73129 7.52429 6.60817 7.49011 6.44369 7.58453C6.51235 7.95327 6.58215 8.32815 6.65195 8.70302C6.63338 8.71541 6.61481 8.7278 6.59624 8.74018C6.38166 8.6458 6.16708 8.55142 5.94072 8.45568C5.89482 8.30325 5.8607 8.15219 5.82519 7.97311C5.69178 7.26514 5.55976 6.58519 5.42773 5.90525C5.68461 5.85869 5.94166 5.81308 6.19829 5.76512C6.29974 5.74617 6.40028 5.72198 6.51449 5.71362C6.5613 5.80415 6.58912 5.8846 6.62936 5.95775C6.86025 6.3775 7.0941 6.79553 7.32682 7.22953C7.29332 7.48746 7.25994 7.73 7.22657 7.97254Z" fill="#838780"/>
<path d="M5.41523 5.90619C5.55972 6.58518 5.69174 7.26513 5.82428 7.95876C5.46501 7.82485 5.08525 7.72912 4.83873 7.36387C4.68947 7.14272 4.47115 6.97211 4.28958 6.77321C4.2071 6.68286 4.13849 6.57896 4.0625 6.46932C4.50853 6.274 4.95564 6.09057 5.41523 5.90619Z" fill="#9F417F"/>
<path d="M14.7149 8.27948C14.7373 8.2951 14.7478 8.30994 14.7579 8.34377C14.7572 8.36916 14.7568 8.37555 14.7452 8.38462C14.4754 8.60521 14.2168 8.82314 13.9463 9.03554C13.6501 9.02195 13.3637 9.03309 13.0821 9.00048C12.7939 8.96713 12.5104 8.89089 12.2249 8.81977C12.2086 8.74686 12.1945 8.68681 12.1755 8.62848C12.0817 8.34055 11.9865 8.05307 11.9058 7.7654C12.147 7.78833 12.374 7.8151 12.6016 7.83268C12.7222 7.842 12.8456 7.84919 12.9647 7.83315C13.2525 7.79438 13.5385 7.7414 13.8253 7.69415C14.1178 7.889 14.4104 8.08385 14.7149 8.27948Z" fill="#3B637A"/>
<path d="M13.8182 7.685C13.5381 7.74142 13.252 7.79439 12.9642 7.83316C12.8451 7.8492 12.7217 7.84201 12.6012 7.8327C12.3735 7.81511 12.1465 7.78834 11.8987 7.75593C11.727 7.67237 11.5759 7.59826 11.4246 7.51071C11.3905 7.38967 11.3596 7.28093 11.3219 7.17477C11.271 7.0312 11.1632 6.88618 11.1719 6.74792C11.1881 6.48742 11.2702 6.23132 11.3249 5.97339C11.3615 5.9845 11.3982 5.99561 11.4464 6.00826C11.7316 6.2085 12.0033 6.41035 12.2797 6.60519C12.7889 6.96425 13.3008 7.31918 13.8182 7.685Z" fill="#426F7C"/>
<path d="M7.32691 7.21418C7.09407 6.79557 6.86023 6.37755 6.62933 5.95779C6.58909 5.88464 6.56127 5.80419 6.52783 5.71449C6.52795 5.70188 6.54355 5.69847 6.55137 5.69687C6.95598 5.63341 7.35275 5.57146 7.74956 5.5098C7.7985 5.50219 7.84766 5.49613 7.91248 5.50149C8.24828 6.04945 8.55959 6.59124 8.89464 7.11685C8.97658 7.24539 9.13628 7.32094 9.26029 7.43424C9.1842 7.669 9.10804 7.89038 9.02885 8.12412C8.95914 8.29987 8.89249 8.46325 8.81374 8.62521C8.67379 8.58564 8.64888 8.47416 8.62819 8.36094C8.60374 8.22718 8.57914 8.09337 8.55853 7.95894C8.48917 7.50657 8.24923 7.17224 7.87905 6.90728C7.84858 6.99826 7.82092 7.08273 7.79203 7.16676C7.72032 7.37536 7.69649 7.38485 7.50956 7.29164C7.45039 7.26214 7.38789 7.2398 7.32691 7.21418Z" fill="#6D9B88"/>
<path d="M9.25983 7.42085C9.13588 7.32094 8.97618 7.24539 8.89424 7.11684C8.55918 6.59124 8.24788 6.04945 7.92627 5.5009C8.10852 5.45092 8.29234 5.41366 8.48476 5.36642C8.89973 5.29364 9.3061 5.23095 9.71243 5.16799C9.83165 5.14951 9.95077 5.13027 10.0829 5.12579C10.0833 5.18937 10.0748 5.24008 10.0577 5.28747C9.83771 5.89596 9.61654 6.50398 9.39035 7.12322C9.34329 7.22984 9.30156 7.32534 9.25983 7.42085Z" fill="#63A68B"/>
<path d="M9.396 7.11209C9.61686 6.50395 9.83803 5.89593 10.058 5.28744C10.0751 5.24005 10.0836 5.18934 10.0977 5.1265C10.0992 5.11281 10.1098 5.11119 10.115 5.11035C10.2927 5.2224 10.4651 5.33528 10.648 5.45291C10.8224 5.57715 10.9868 5.69575 11.1498 5.8166C11.207 5.85903 11.2603 5.90695 11.3203 5.96288C11.2705 6.23132 11.1884 6.48742 11.1722 6.74792C11.1635 6.88618 11.2712 7.0312 11.3222 7.17477C11.3599 7.28093 11.3908 7.38967 11.4098 7.51072C11.3121 7.52099 11.2286 7.50991 11.1465 7.5163C10.979 7.52933 10.8109 7.5447 10.646 7.57599C10.6106 7.58271 10.5719 7.6577 10.5623 7.70699C10.5319 7.86266 10.5145 8.02107 10.4793 8.17828C10.3529 8.11518 10.2207 8.0727 10.13 7.98449C9.99263 7.85083 9.88668 7.68316 9.76274 7.53406C9.64356 7.39067 9.51848 7.25253 9.396 7.11209Z" fill="#4C6779"/>
<path d="M17.4216 10.9909C17.3226 11.0332 17.214 11.0458 17.1233 11.0943C16.5603 11.3952 15.9465 11.535 15.3412 11.6999C15.0878 11.7689 14.8264 11.8075 14.5677 11.8544C14.5374 11.8599 14.5012 11.8302 14.4619 11.79C14.4668 11.6136 14.4774 11.4639 14.489 11.2989C14.5027 11.1213 14.5153 10.9591 14.5425 10.797C14.6286 10.7938 14.7043 10.8054 14.7708 10.7848C15.3227 10.614 15.8732 10.4385 16.4231 10.2607C16.4794 10.2425 16.526 10.1946 16.5811 10.17C16.7607 10.0897 16.9422 10.0137 17.1229 9.9361C17.222 10.2833 17.3211 10.6305 17.4216 10.9909Z" fill="#56468B"/>
<path d="M17.1179 9.92444C16.9419 10.0138 16.7605 10.0897 16.5809 10.17C16.5258 10.1947 16.4791 10.2425 16.4229 10.2607C15.873 10.4385 15.3225 10.6141 14.7705 10.7849C14.7041 10.8054 14.6284 10.7938 14.543 10.783C14.5494 10.5891 14.5685 10.409 14.5908 10.2294C14.6101 10.0738 14.6331 9.91875 14.6684 9.76324C14.8597 9.72436 15.0421 9.70188 15.2133 9.64406C15.7652 9.45772 16.2913 9.20921 16.7908 8.90216C16.8983 9.23902 17.0057 9.57589 17.1179 9.92444Z" fill="#56518E"/>
<path d="M16.7904 8.88854C16.2914 9.20919 15.7653 9.4577 15.2134 9.64404C15.0422 9.70186 14.8597 9.72434 14.6689 9.7473C14.689 9.28172 14.7225 8.83185 14.7561 8.38197C14.7565 8.37557 14.7569 8.36918 14.7588 8.35321C15.3943 8.39321 16.0282 8.44279 16.678 8.49485C16.6967 8.50642 16.7021 8.51338 16.7161 8.52116C16.7447 8.64104 16.7673 8.75799 16.7904 8.88854Z" fill="#566492"/>
<path d="M6.56038 13.3452C6.43261 13.6101 6.30397 13.8745 6.17725 14.1399C5.93029 14.6572 5.68395 15.1748 5.43889 15.6931C5.41793 15.7374 5.40851 15.7876 5.39375 15.8484C5.07199 15.9071 4.75023 15.9525 4.41421 15.9954C4.37701 15.798 4.35407 15.6028 4.32959 15.3937C4.43859 15.2424 4.56134 15.1136 4.65735 14.9662C4.92788 14.5509 5.21049 14.141 5.4435 13.7035C5.60918 13.3923 5.70106 13.0394 5.82844 12.7061C5.86035 12.6227 5.90214 12.5432 5.94984 12.4563C6.03101 12.5397 6.10172 12.6288 6.18377 12.7353C6.31686 12.9502 6.43862 13.1477 6.56038 13.3452Z" fill="#6B135A"/>
<path d="M14.4881 11.3143C14.4775 11.464 14.4669 11.6136 14.4563 11.7788C14.4234 12.0285 14.3891 12.2624 14.3582 12.4968C14.3434 12.6092 14.3351 12.7224 14.3229 12.85C14.0574 12.8529 13.7848 12.8786 13.5296 12.8216C12.956 12.6934 12.3785 12.5605 11.8485 12.2868C11.519 12.1165 11.2038 11.9165 10.8755 11.7183C11.1874 11.4376 11.506 11.1686 11.8298 10.9105C11.9 10.9607 11.9606 11.018 12.0307 11.0361C12.3615 11.1215 12.692 11.216 13.0283 11.2684C13.2996 11.3106 13.5789 11.2999 13.8547 11.3078C14.0657 11.3139 14.277 11.3124 14.4881 11.3143Z" fill="#8A3177"/>
<path d="M10.4403 15.1383C10.2596 14.6638 10.0934 14.1902 9.92064 13.6924C9.84064 13.4654 9.76524 13.2633 9.69427 13.0597C9.59885 12.7858 9.60032 12.7853 9.82414 12.6227C10.2056 12.8633 10.587 13.1038 10.9802 13.3456C11.0975 13.4647 11.1948 13.5921 11.3101 13.6985C11.5298 13.9012 11.7475 14.1103 11.989 14.2824C12.2289 14.4533 12.497 14.5819 12.7526 14.7292C12.8886 14.8076 13.022 14.8913 13.161 14.9634C13.2662 15.018 13.3777 15.0599 13.4878 15.104C13.5916 15.1455 13.7272 15.1463 13.7243 15.3279C13.2072 15.309 12.6903 15.277 12.1733 15.2451C11.9751 15.2329 11.7769 15.221 11.5787 15.2088C11.2041 15.1857 10.8295 15.1624 10.4403 15.1383Z" fill="#8E1B6E"/>
<path d="M11.8243 10.8995C11.5057 11.1686 11.1871 11.4376 10.8635 11.717C10.8585 11.7273 10.8434 11.7286 10.8238 11.7272C10.6222 11.577 10.4402 11.4281 10.258 11.2647C10.2471 11.0339 10.2263 10.8175 10.2285 10.6013C10.2306 10.4055 10.011 10.1557 9.81695 10.1243C9.59721 10.0888 9.37738 10.0374 9.23474 9.82656C9.17902 9.74421 9.10646 9.67405 9.01367 9.56578C9.1785 9.352 9.35185 9.12715 9.53703 8.9035C9.75331 9.03828 9.97519 9.15056 10.1581 9.3105C10.4234 9.54256 10.716 9.63335 11.0558 9.62886C11.3814 9.62455 11.7037 9.62618 12.0151 9.7812C12.2193 9.88281 12.4577 9.91009 12.6796 9.97487C12.7197 9.98659 12.7543 10.0187 12.7861 10.0514C12.6913 10.1369 12.6005 10.2108 12.5126 10.2883C12.2825 10.4912 12.0537 10.6957 11.8243 10.8995Z" fill="#42436F"/>
<path d="M10.2585 11.2792C10.4405 11.4281 10.6225 11.577 10.8165 11.7277C10.5934 11.9362 10.3584 12.1428 10.1233 12.3494C10.0274 12.4338 9.93126 12.518 9.82968 12.6125C9.6003 12.7853 9.59884 12.7858 9.69426 13.0597C9.76523 13.2633 9.84062 13.4654 9.91812 13.6796C9.68599 13.6023 9.43888 13.5346 9.21952 13.4133C9.14272 13.3708 9.12091 13.1992 9.09739 13.0815C9.05305 12.8597 9.05678 12.6221 8.98098 12.4142C8.92497 12.2606 8.79167 12.1165 8.6566 12.0258C8.61105 11.9952 8.45251 12.1389 8.34946 12.209C8.31942 12.2294 8.30271 12.2708 8.26984 12.3079C8.12958 12.2073 8.00021 12.1002 7.8688 11.9959C7.81053 11.9496 7.74816 11.9089 7.6792 11.8538C7.76765 11.563 7.86455 11.2841 7.96145 11.0051C8.01382 10.8746 8.06618 10.7441 8.13578 10.6023C8.23091 10.6405 8.30679 10.6938 8.38716 10.7384C8.52996 10.8177 8.66937 10.9106 8.82136 10.9635C9.02719 11.0352 9.24558 10.9985 9.46267 11.1168C9.69186 11.2417 9.99029 11.2308 10.2585 11.2792Z" fill="#4C2C66"/>
<path d="M10.258 11.2647C9.98999 11.2308 9.69157 11.2417 9.46237 11.1168C9.24529 10.9985 9.0269 11.0353 8.82106 10.9636C8.66908 10.9106 8.52967 10.8178 8.38687 10.7384C8.3065 10.6938 8.23061 10.6405 8.14062 10.5911C8.15755 10.5065 8.18655 10.4219 8.22434 10.3144C8.40857 9.81208 8.58466 9.33297 8.75883 8.85311C8.78559 8.77937 8.80348 8.70219 8.82547 8.6266C8.89212 8.46322 8.95878 8.29983 9.03942 8.12506C9.30206 8.3181 9.40224 8.61747 9.52516 8.9023C9.35181 9.12715 9.17845 9.35199 9.01363 9.56577C9.10642 9.67404 9.17898 9.74421 9.23469 9.82655C9.37734 10.0374 9.59716 10.0888 9.81691 10.1243C10.0109 10.1557 10.2305 10.4055 10.2285 10.6013C10.2263 10.8175 10.247 11.0339 10.258 11.2647Z" fill="#50376A"/>
<path d="M8.81359 8.62516C8.80369 8.70217 8.7858 8.77935 8.75904 8.85308C8.58487 9.33294 8.40878 9.81205 8.22763 10.3026C8.17384 10.2788 8.11684 10.2517 8.07952 10.207C8.00406 10.1166 7.93835 10.0174 7.87026 9.92061C7.63237 9.58244 7.63216 9.56334 7.85197 9.20494C7.99825 8.96643 7.98851 8.84428 7.79481 8.64772C7.65693 8.50781 7.50616 8.38117 7.37214 8.23764C7.31015 8.17125 7.27439 8.07868 7.22656 7.98525C7.25976 7.72999 7.29314 7.48745 7.32664 7.22952C7.38773 7.23974 7.45024 7.26209 7.5094 7.29159C7.69633 7.38479 7.72016 7.37531 7.79187 7.1667C7.82076 7.08268 7.84843 6.9982 7.8789 6.90723C8.24908 7.17218 8.48902 7.50651 8.55838 7.95888C8.57899 8.09331 8.60358 8.22712 8.62803 8.36088C8.64873 8.4741 8.67363 8.58558 8.81359 8.62516Z" fill="#688882"/>
<path d="M7.94877 11.0046C7.86422 11.2841 7.76732 11.563 7.66694 11.8538C7.49625 12.328 7.32905 12.7903 7.16076 13.2655C7.09567 13.443 7.03165 13.6076 6.95481 13.7839C6.94199 13.7955 6.92577 13.7951 6.92577 13.7951C6.92577 13.7951 6.92632 13.7947 6.92634 13.7802C6.88162 13.514 6.84141 13.2612 6.79104 13.0106C6.71852 12.6498 6.63862 12.2906 6.56187 11.9307C6.56135 11.8837 6.56082 11.8366 6.56112 11.7754C6.7937 11.5993 7.06015 11.4786 7.07025 11.1149C7.07535 10.9315 7.15204 10.7507 7.19056 10.5675C7.22096 10.4229 7.28242 10.4307 7.37114 10.5163C7.51243 10.6526 7.65352 10.7892 7.79841 10.9214C7.83752 10.957 7.89006 10.977 7.94877 11.0046Z" fill="#6E6475"/>
<path d="M6.55701 11.9418C6.63903 12.2906 6.71894 12.6498 6.79146 13.0106C6.84182 13.2612 6.88203 13.514 6.92657 13.7805C6.81111 13.6489 6.69586 13.5025 6.57061 13.3507C6.43885 13.1477 6.31709 12.9502 6.19385 12.7409C6.27071 12.5495 6.34734 12.3691 6.42818 12.1908C6.46508 12.1094 6.51029 12.032 6.55701 11.9418Z" fill="#892172"/>
<path d="M6.92677 13.8036C6.92616 13.7951 6.94238 13.7955 6.95048 13.7956C6.95332 13.8103 6.94807 13.8249 6.94282 13.8396C6.93767 13.8304 6.93253 13.8213 6.92677 13.8036Z" fill="#892172"/>
<path d="M9.537 8.90353C9.40225 8.6175 9.30207 8.31814 9.04248 8.11273C9.10769 7.89038 9.18384 7.669 9.25994 7.43424C9.30161 7.32535 9.34334 7.22984 9.3904 7.12323C9.51822 7.25257 9.64329 7.39071 9.76247 7.53409C9.88642 7.6832 9.99237 7.85087 10.1297 7.98453C10.2204 8.07274 10.3527 8.11522 10.4891 8.18344C10.7729 8.43821 11.0621 8.65086 11.41 8.73361C11.6749 8.7966 11.9525 8.80229 12.2244 8.83348C12.51 8.89094 12.7935 8.96718 13.0816 9.00053C13.3633 9.03314 13.6497 9.022 13.9396 9.0449C13.5606 9.38697 13.176 9.7142 12.7914 10.0414C12.7543 10.0187 12.7197 9.98662 12.6795 9.9749C12.4576 9.91012 12.2192 9.88284 12.0151 9.78123C11.7037 9.62621 11.3814 9.62458 11.0558 9.62889C10.716 9.63338 10.4234 9.54259 10.158 9.31053C9.97516 9.15059 9.75328 9.03831 9.537 8.90353Z" fill="#455173"/>
<path d="M12.7862 10.0514C13.1761 9.71417 13.5607 9.38694 13.9516 9.0504C14.2165 8.82317 14.4751 8.60524 14.7449 8.38464C14.7226 8.83185 14.689 9.28173 14.655 9.74753C14.6332 9.91874 14.6102 10.0738 14.5909 10.2294C14.5686 10.409 14.5495 10.589 14.5284 10.7829C14.5151 10.9591 14.5025 11.1213 14.4889 11.2989C14.2768 11.3124 14.0655 11.3139 13.8545 11.3078C13.5787 11.2999 13.2994 11.3106 13.0281 11.2684C12.6918 11.216 12.3613 11.1215 12.0305 11.0361C11.9604 11.018 11.8998 10.9607 11.8296 10.9105C12.0538 10.6957 12.2826 10.4912 12.5127 10.2883C12.6006 10.2108 12.6914 10.1369 12.7862 10.0514Z" fill="#89417C"/>
<path d="M12.2246 8.81978C11.9526 8.80225 11.675 8.79656 11.4102 8.73357C11.0622 8.65082 10.7731 8.43817 10.502 8.18354C10.5144 8.02106 10.5317 7.86266 10.5621 7.70699C10.5718 7.65769 10.6105 7.5827 10.6459 7.57598C10.8107 7.54469 10.9788 7.52933 11.1464 7.51629C11.2285 7.5099 11.3119 7.52099 11.4098 7.52416C11.576 7.59826 11.7272 7.67237 11.8849 7.75596C11.9862 8.05308 12.0814 8.34056 12.1752 8.62849C12.1942 8.68682 12.2083 8.74687 12.2246 8.81978Z" fill="#446078"/>
</svg>
