<svg viewBox="0 0 2000 2000" fill="none" xmlns="http://www.w3.org/2000/svg">
<path d="M1550.7 686.639V1057.67C1550.7 1081.14 1537.04 1102.46 1515.71 1112.26L1023.76 1338.44C1013.09 1343.34 1006.26 1354.01 1006.26 1365.75V1709.26C1006.26 1725.83 992.82 1739.27 976.25 1739.27H699.99C683.42 1739.27 669.99 1725.84 669.99 1709.27V1169.44C669.99 1146 683.64 1124.71 704.93 1114.92L1232.91 872.159L704.94 629.409C683.64 619.619 669.99 598.319 669.99 574.879V290.039C669.99 268.159 692.65 253.639 712.53 262.779L1515.74 632.069C1537.05 641.869 1550.71 663.179 1550.71 686.629L1550.7 686.639Z" fill="black"/>
<path d="M827.06 872.159C827.06 874.609 825.35 876.669 823.04 877.179C822.99 877.199 822.94 877.209 822.89 877.219C794.4 883.359 767.76 894.469 743.91 909.589C730.76 916.579 718.73 925.369 708.13 935.649C702.8 940.809 697.83 946.349 693.27 952.229C693.25 952.249 693.23 952.279 693.22 952.299C693.16 952.369 693.11 952.439 693.06 952.509C668.78 982.299 651.39 1017.9 643.27 1056.92C642.79 1059.31 640.72 1061.11 638.21 1061.19H637.85C635.34 1061.11 633.27 1059.31 632.79 1056.92C624.67 1017.9 607.28 982.299 583 952.509C582.95 952.439 582.9 952.369 582.84 952.299C582.83 952.279 582.81 952.249 582.79 952.229C578.23 946.349 573.26 940.809 567.93 935.649C557.33 925.369 545.3 916.579 532.15 909.589C508.3 894.469 481.66 883.359 453.17 877.219C453.12 877.209 453.07 877.199 453.02 877.179C450.71 876.669 449 874.609 449 872.159C449 869.709 450.71 867.649 453.02 867.139C453.07 867.119 453.12 867.109 453.17 867.099C481.66 860.959 508.3 849.849 532.15 834.729C545.3 827.739 557.33 818.949 567.93 808.669C573.26 803.509 578.23 797.969 582.79 792.089C582.81 792.069 582.83 792.039 582.84 792.019C582.9 791.949 582.95 791.879 583 791.809C607.28 762.019 624.67 726.419 632.79 687.399C633.27 685.009 635.34 683.209 637.85 683.129H638.21C640.72 683.209 642.79 685.009 643.27 687.399C651.39 726.419 668.78 762.019 693.06 791.809C693.11 791.879 693.16 791.949 693.22 792.019C693.23 792.039 693.25 792.069 693.27 792.089C697.83 797.969 702.8 803.509 708.13 808.669C718.73 818.949 730.76 827.739 743.91 834.729C767.76 849.849 794.4 860.959 822.89 867.099C822.94 867.109 822.99 867.119 823.04 867.139C825.35 867.649 827.06 869.709 827.06 872.159Z" fill="black"/>
</svg>
