<svg width="24" height="24" viewBox="0 0 24 24" fill="none" xmlns="http://www.w3.org/2000/svg">
<g clip-path="url(#clip0_519_49)">
<path d="M16.9116 2.39346H7.08579C6.70857 2.39346 6.4032 2.70255 6.4032 3.08759V3.09021V5.3743H17.5967V3.09021C17.5967 2.70516 17.2939 2.39346 16.9167 2.39346C16.9141 2.39346 16.9141 2.39346 16.9116 2.39346Z" fill="#BC3618"/>
<path d="M18.0689 3.78959H5.93102C5.387 3.78959 4.94305 4.24012 4.94305 4.79542V4.79804V5.59171H19.0594V4.79804C19.0594 4.24274 18.6181 3.78959 18.074 3.78959C18.0715 3.78959 18.0715 3.78959 18.0689 3.78959Z" fill="#D13816"/>
<path d="M19.4932 5.21976H4.50686C3.96283 5.21976 3.51889 5.6703 3.51889 6.2256V6.22822V20.5929C3.51889 21.1508 3.96283 21.6039 4.51199 21.6066H19.488C20.0346 21.6066 20.4786 21.1534 20.4811 20.5929V6.22822C20.4811 5.67292 20.0398 5.22238 19.4932 5.21976Z" fill="#E15A18"/>
<path d="M8.5229 6.6997C7.48361 6.6997 6.63935 7.56147 6.64191 8.62232C6.64448 9.68316 7.48618 10.5449 8.52547 10.5423C9.56476 10.5423 10.4065 9.68054 10.4065 8.6197C10.409 7.56147 9.56476 6.6997 8.5229 6.6997ZM8.5229 9.86652C7.848 9.86652 7.29885 9.30859 7.29885 8.61708C7.29885 7.92818 7.84544 7.36764 8.5229 7.36764C9.1978 7.36764 9.74695 7.92556 9.74695 8.61708C9.74695 9.30859 9.20036 9.86652 8.5229 9.86652C8.52547 9.86652 8.52547 9.86652 8.5229 9.86652Z" fill="#F7B192"/>
<path d="M9.2311 10.3354H7.83511V14.233H9.2311V10.3354Z" fill="#F7B192"/>
<path d="M17.4685 8.64852C17.4685 7.58767 16.6242 6.7259 15.5849 6.7259C14.5456 6.7259 13.7014 7.58767 13.7014 8.64852C13.7014 9.44481 14.1812 10.1573 14.9075 10.4428V11.7629L7.83516 14.1466H7.82233V16.5905C6.86002 16.9886 6.39812 18.1071 6.78817 19.0893C7.17823 20.0716 8.27397 20.5431 9.23628 20.1449C10.1986 19.7468 10.6605 18.6283 10.2704 17.6461C10.0831 17.172 9.71615 16.7974 9.25681 16.5983V15.0843L16.2906 12.7112L16.2752 12.6823H16.2906V10.4245C17.0014 10.1363 17.4685 9.43171 17.4685 8.64852ZM9.74694 18.3795C9.74694 19.0684 9.20035 19.6289 8.52289 19.6289C7.84542 19.6289 7.29883 19.071 7.29883 18.3795C7.29883 17.6906 7.84542 17.13 8.52289 17.13C9.20035 17.1327 9.74694 17.6906 9.74694 18.3795ZM15.5849 9.89272C14.91 9.89272 14.3609 9.33479 14.3609 8.64328C14.3609 7.95438 14.9075 7.39384 15.5849 7.39384C16.2598 7.39384 16.809 7.95176 16.809 8.64328C16.809 9.33479 16.2598 9.89272 15.5849 9.89272Z" fill="#FCDACB"/>
</g>
<defs>
<clipPath id="clip0_519_49">
<rect width="18" height="20" fill="white" transform="translate(3 2)"/>
</clipPath>
</defs>
</svg>
