<svg width="17" height="16" viewBox="0 0 17 16" fill="none" xmlns="http://www.w3.org/2000/svg" data-cy="eye-close-icon">
<path fill-rule="evenodd" clip-rule="evenodd" d="M2.51494 3.02021C2.31967 2.82495 2.31967 2.50837 2.51494 2.3131C2.7102 2.11784 3.02678 2.11784 3.22204 2.3131L13.8887 12.9798C14.084 13.175 14.084 13.4916 13.8887 13.6869C13.6934 13.8821 13.3769 13.8821 13.1816 13.6869L11.2971 11.8024C10.3576 12.3139 9.30851 12.6667 8.20182 12.6667C5.65815 12.6667 3.41882 10.8031 2.11496 9.43126C1.34189 8.61787 1.34189 7.3821 2.11496 6.56872C2.66817 5.98666 3.38979 5.31608 4.23161 4.73689L2.51494 3.02021ZM6.47873 6.98401C6.30279 7.28176 6.20182 7.62909 6.20182 7.99999C6.20182 9.10456 7.09725 9.99999 8.20182 9.99999C8.57273 9.99999 8.92005 9.89902 9.21781 9.72308L6.47873 6.98401ZM8.20182 3.33332C10.7455 3.33332 12.9848 5.19688 14.2887 6.56872C15.0618 7.3821 15.0618 8.61788 14.2887 9.43126C13.9953 9.73993 13.6546 10.0735 13.2737 10.4051L6.47696 3.60842C7.02994 3.43503 7.60757 3.33332 8.20182 3.33332Z" fill="#ACB2B9"/>
</svg>