<svg width="17" height="16" viewBox="0 0 24 24" fill="none" xmlns="http://www.w3.org/2000/svg" data-cy="eye-open-icon">
  <path fill-rule="evenodd" clip-rule="evenodd" d="M12 4.5C7 4.5 2.73 7.61 1 12C2.73 16.39 7 19.5 12 19.5C17 19.5 21.27 16.39 23 12C21.27 7.61 17 4.5 12 4.5ZM12 17.5C9.24 17.5 7 15.26 7 12.5C7 9.74 9.24 7.5 12 7.5C14.76 7.5 17 9.74 17 12.5C17 15.26 14.76 17.5 12 17.5ZM12 15.5C13.38 15.5 14.5 14.38 14.5 13C14.5 11.62 13.38 10.5 12 10.5C10.62 10.5 9.5 11.62 9.5 13C9.5 14.38 10.62 15.5 12 15.5Z" fill="#ACB2B9"/>
</svg>
