<svg width="24" height="24" viewBox="0 0 24 24" fill="none" xmlns="http://www.w3.org/2000/svg">
<path d="M12.9372 10.269L13.5105 11.0849L14.3925 10.4454V15.0761H15.3407V8.99008H14.5469L12.9372 10.269Z" fill="#1E88E5"/>
<path d="M11.4157 11.8567C11.7685 11.548 11.989 11.0849 11.989 10.5998C11.989 9.62955 11.129 8.83572 10.0926 8.83572C9.21059 8.83572 8.43881 9.38699 8.24035 10.2029L9.16648 10.4454C9.25469 10.0706 9.6516 9.80595 10.0926 9.80595C10.6218 9.80595 11.0408 10.1588 11.0408 10.5998C11.0408 11.0408 10.6218 11.3936 10.0926 11.3936H9.54135V12.3638H10.0926C10.688 12.3638 11.1951 12.7828 11.1951 13.2679C11.1951 13.7751 10.71 14.172 10.1147 14.172C9.58545 14.172 9.12238 13.8412 9.05623 13.3782L8.1301 13.5325C8.28446 14.4366 9.14443 15.1202 10.1367 15.1202C11.2613 15.1202 12.1654 14.2822 12.1654 13.2459C12.1433 12.6946 11.8567 12.1874 11.4157 11.8567Z" fill="#1E88E5"/>
<path d="M17.5678 21.9779H6.45424V17.5457H17.5678V21.9779Z" fill="#FBC02D"/>
<path d="M22 17.5457V6.43219H17.5678V17.5457H22Z" fill="#4CAF50"/>
<path d="M17.5678 6.43219V2H3.67585C2.74972 2 2 2.74972 2 3.67585V17.5678H6.43219V6.43219H17.5678Z" fill="#1E88E5"/>
<path d="M17.5678 17.5457V21.9779L22 17.5457H17.5678Z" fill="#E53935"/>
<path d="M20.3462 2H17.5678V6.43219H22V3.6538C22 2.72767 21.2723 2 20.3462 2Z" fill="#1565C0"/>
<path d="M3.67585 21.9779H6.45424V17.5457H2.02205V20.3241C2.02205 21.2503 2.74972 21.9779 3.67585 21.9779Z" fill="#1565C0"/>
</svg>
