<svg width="20" height="20" viewBox="0 0 20 20" fill="none" xmlns="http://www.w3.org/2000/svg">
<g id="warning">
<path id="vector" fill-rule="evenodd" clip-rule="evenodd" d="M8.30674 3.4716C9.04479 2.17613 10.9554 2.17613 11.6934 3.4716L18.0869 14.6937C18.8042 15.9527 17.8705 17.5 16.3935 17.5H3.60665C2.12963 17.5 1.196 15.9527 1.91331 14.6937L8.30674 3.4716ZM10.8334 14.1667C10.8334 14.6269 10.4603 15 10 15C9.53979 15 9.1667 14.6269 9.1667 14.1667C9.1667 13.7064 9.53979 13.3333 10 13.3333C10.4603 13.3333 10.8334 13.7064 10.8334 14.1667ZM10.625 7.5C10.625 7.15482 10.3452 6.875 10 6.875C9.65485 6.875 9.37503 7.15482 9.37503 7.5V11.6667C9.37503 12.0118 9.65485 12.2917 10 12.2917C10.3452 12.2917 10.625 12.0118 10.625 11.6667V7.5Z" fill="#D72D39"/>
</g>
</svg>
