<svg width="20" height="20" viewBox="0 0 20 20" fill="none" xmlns="http://www.w3.org/2000/svg">
<g id="idea">
<g id="vector">
<path d="M13.3334 14.7917V15C13.3334 16.841 11.841 18.3334 10.0001 18.3334C8.15913 18.3334 6.66675 16.841 6.66675 15V14.7917H13.3334Z" fill="#1E823B"/>
<path d="M13.3334 13.5417V13.1573C13.3334 12.6125 13.6113 12.1136 14.0071 11.7393C15.1317 10.6759 15.8334 9.16992 15.8334 7.50002C15.8334 4.27836 13.2217 1.66669 10.0001 1.66669C6.77842 1.66669 4.16675 4.27836 4.16675 7.50002C4.16675 9.16992 4.86843 10.6759 5.99302 11.7393C6.38891 12.1136 6.66675 12.6125 6.66675 13.1573V13.5417H9.37508V9.42557L7.89147 7.94196C7.6474 7.69788 7.6474 7.30216 7.89147 7.05808C8.13555 6.814 8.53128 6.814 8.77536 7.05808L10.0001 8.2828L11.2248 7.05808C11.4689 6.814 11.8646 6.814 12.1087 7.05808C12.3528 7.30216 12.3528 7.69788 12.1087 7.94196L10.6251 9.42557V13.5417H13.3334Z" fill="#1E823B"/>
</g>
</g>
</svg>
