<svg width="20" height="20" viewBox="0 0 20 20" fill="none" xmlns="http://www.w3.org/2000/svg">
<g id="information">
<path id="vector" fill-rule="evenodd" clip-rule="evenodd" d="M18.3334 10C18.3334 14.6024 14.6025 18.3334 10.0001 18.3334C5.39771 18.3334 1.66675 14.6024 1.66675 10C1.66675 5.39765 5.39771 1.66669 10.0001 1.66669C14.6025 1.66669 18.3334 5.39765 18.3334 10ZM10.8334 5.83335C10.8334 6.29359 10.4603 6.66669 10.0001 6.66669C9.53984 6.66669 9.16675 6.29359 9.16675 5.83335C9.16675 5.37312 9.53984 5.00002 10.0001 5.00002C10.4603 5.00002 10.8334 5.37312 10.8334 5.83335ZM9.16675 7.70835C8.82157 7.70835 8.54175 7.98818 8.54175 8.33335C8.54175 8.67853 8.82157 8.95835 9.16675 8.95835H9.37508V14.1667C9.37508 14.5119 9.6549 14.7917 10.0001 14.7917C10.3453 14.7917 10.6251 14.5119 10.6251 14.1667V8.33335C10.6251 7.98818 10.3453 7.70835 10.0001 7.70835H9.16675Z" fill="#4368E3"/>
</g>
</svg>
