<svg width="20" height="20" viewBox="0 0 20 20" fill="none" xmlns="http://www.w3.org/2000/svg">
<path fill-rule="evenodd" clip-rule="evenodd" d="M10 0.833252C4.93751 0.833252 0.833344 4.93742 0.833344 9.99992C0.833344 15.0624 4.93751 19.1666 10 19.1666C15.0625 19.1666 19.1667 15.0624 19.1667 9.99992C19.1667 4.93742 15.0625 0.833252 10 0.833252ZM13.9733 8.44992C14.0465 8.36629 14.1022 8.26887 14.1372 8.16339C14.1721 8.05792 14.1856 7.94651 14.1769 7.83574C14.1682 7.72497 14.1374 7.61706 14.0863 7.51836C14.0353 7.41966 13.965 7.33217 13.8796 7.26104C13.7943 7.1899 13.6955 7.13655 13.5893 7.10414C13.483 7.07172 13.3713 7.06089 13.2607 7.07228C13.1502 7.08366 13.0431 7.11704 12.9456 7.17045C12.8482 7.22385 12.7624 7.29621 12.6933 7.38325L9.11001 11.6824L7.25584 9.82742C7.09868 9.67562 6.88817 9.59163 6.66968 9.59352C6.45118 9.59542 6.24217 9.68306 6.08766 9.83757C5.93316 9.99208 5.84551 10.2011 5.84362 10.4196C5.84172 10.6381 5.92571 10.8486 6.07751 11.0058L8.57751 13.5058C8.65939 13.5876 8.75742 13.6515 8.86536 13.6933C8.97329 13.7351 9.08876 13.754 9.2044 13.7488C9.32004 13.7435 9.43332 13.7143 9.53702 13.6628C9.64072 13.6113 9.73255 13.5388 9.80668 13.4499L13.9733 8.44992Z" fill="#2ECC71"/>
</svg>
