<svg width="24" height="24" viewBox="0 0 24 24" fill="none" xmlns="http://www.w3.org/2000/svg">
<path d="M11.9388 19.1052C13.8791 19.1052 15.7399 18.3344 17.1119 16.9625C18.4839 15.5905 19.2546 13.7297 19.2546 11.7894C19.2546 9.84915 18.4839 7.98835 17.1119 6.61638C15.7399 5.2444 13.8791 4.47363 11.9388 4.47363C9.99857 4.47363 8.13777 5.2444 6.76579 6.61638C5.39382 7.98835 4.62305 9.84915 4.62305 11.7894C4.62305 13.7297 5.39382 15.5905 6.76579 16.9625C8.13777 18.3344 9.99857 19.1052 11.9388 19.1052Z" fill="#FFD21E"/>
<path d="M19.2547 11.7895C19.2547 9.84922 18.4839 7.98842 17.1119 6.61644C15.74 5.24447 13.8792 4.4737 11.9389 4.4737C9.99863 4.4737 8.13783 5.24447 6.76586 6.61644C5.39388 7.98842 4.62311 9.84922 4.62311 11.7895C4.62311 13.7298 5.39388 15.5906 6.76586 16.9625C8.13783 18.3345 9.99863 19.1053 11.9389 19.1053C13.8792 19.1053 15.74 18.3345 17.1119 16.9625C18.4839 15.5906 19.2547 13.7298 19.2547 11.7895ZM3.78101 11.7895C3.78101 10.7182 3.99202 9.65736 4.40199 8.6676C4.81196 7.67783 5.41287 6.77851 6.1704 6.02098C6.92793 5.26345 7.82725 4.66255 8.81701 4.25257C9.80677 3.8426 10.8676 3.63159 11.9389 3.63159C13.0102 3.63159 14.071 3.8426 15.0608 4.25257C16.0506 4.66255 16.9499 5.26345 17.7074 6.02098C18.4649 6.77851 19.0658 7.67783 19.4758 8.6676C19.8858 9.65736 20.0968 10.7182 20.0968 11.7895C20.0968 13.9531 19.2373 16.0281 17.7074 17.558C16.1775 19.0879 14.1025 19.9474 11.9389 19.9474C9.77529 19.9474 7.7003 19.0879 6.1704 17.558C4.6405 16.0281 3.78101 13.9531 3.78101 11.7895Z" fill="#FF9D0B"/>
<path d="M14.3158 9.80003C14.5853 9.89266 14.6906 10.4442 14.9621 10.3011C15.146 10.2034 15.2968 10.0535 15.3955 9.87012C15.4942 9.68677 15.5362 9.47828 15.5164 9.27102C15.4965 9.06376 15.4157 8.86704 15.284 8.70575C15.1523 8.54445 14.9758 8.42582 14.7767 8.36486C14.5777 8.30389 14.365 8.30334 14.1656 8.36327C13.9662 8.42319 13.789 8.5409 13.6565 8.70151C13.524 8.86212 13.4422 9.05842 13.4212 9.26557C13.4003 9.47272 13.4413 9.68143 13.539 9.86529C13.6674 10.1074 14.0758 9.71371 14.3179 9.79792L14.3158 9.80003ZM9.35793 9.80003C9.08845 9.89266 8.98109 10.4442 8.71161 10.3011C8.52772 10.2034 8.37691 10.0535 8.27825 9.87012C8.1796 9.68677 8.13754 9.47828 8.15738 9.27102C8.17723 9.06376 8.25809 8.86704 8.38975 8.70575C8.5214 8.54445 8.69793 8.42582 8.89702 8.36486C9.0961 8.30389 9.30879 8.30334 9.50818 8.36327C9.70758 8.42319 9.88473 8.5409 10.0172 8.70151C10.1497 8.86212 10.2316 9.05842 10.2525 9.26557C10.2734 9.47272 10.2325 9.68143 10.1348 9.86529C10.0063 10.1074 9.59582 9.71371 9.35582 9.79792L9.35793 9.80003Z" fill="#3A3B45"/>
<path d="M11.8863 14.8506C13.9558 14.8506 14.6232 13.0064 14.6232 12.059C14.6232 11.5664 14.2927 11.7221 13.7621 11.9832C13.2716 12.2253 12.6127 12.56 11.8885 12.56C10.3748 12.56 9.15161 11.1116 9.15161 12.059C9.15161 13.0064 9.81687 14.8506 11.8885 14.8506H11.8863Z" fill="#FF323D"/>
<path fill-rule="evenodd" clip-rule="evenodd" d="M10.301 14.3684C10.4121 14.1427 10.5685 13.9422 10.7605 13.7796C10.9524 13.617 11.1758 13.4956 11.4168 13.4231C11.501 13.3979 11.5873 13.5431 11.6778 13.6926C11.762 13.8358 11.8505 13.981 11.9389 13.981C12.0336 13.981 12.1284 13.8379 12.2189 13.6968C12.3136 13.5495 12.4063 13.4063 12.4968 13.4337C12.949 13.5772 13.327 13.8924 13.5494 14.3116C14.3347 13.6926 14.6231 12.6821 14.6231 12.0589C14.6231 11.5663 14.2926 11.7221 13.762 11.9831L13.7326 11.9979C13.2463 12.24 12.5978 12.56 11.8863 12.56C11.1747 12.56 10.5284 12.24 10.0399 11.9979C9.49257 11.7263 9.14941 11.5558 9.14941 12.0589C9.14941 12.701 9.45678 13.7558 10.301 14.3684Z" fill="#3A3B45"/>
<path d="M16.8863 10.7894C17.0678 10.7894 17.2418 10.7174 17.3701 10.589C17.4984 10.4607 17.5705 10.2867 17.5705 10.1052C17.5705 9.92377 17.4984 9.74974 17.3701 9.62142C17.2418 9.49311 17.0678 9.42102 16.8863 9.42102C16.7049 9.42102 16.5308 9.49311 16.4025 9.62142C16.2742 9.74974 16.2021 9.92377 16.2021 10.1052C16.2021 10.2867 16.2742 10.4607 16.4025 10.589C16.5308 10.7174 16.7049 10.7894 16.8863 10.7894ZM7.09685 10.7894C7.27831 10.7894 7.45234 10.7174 7.58066 10.589C7.70897 10.4607 7.78106 10.2867 7.78106 10.1052C7.78106 9.92377 7.70897 9.74974 7.58066 9.62142C7.45234 9.49311 7.27831 9.42102 7.09685 9.42102C6.91538 9.42102 6.74135 9.49311 6.61304 9.62142C6.48472 9.74974 6.41264 9.92377 6.41264 10.1052C6.41264 10.2867 6.48472 10.4607 6.61304 10.589C6.74135 10.7174 6.91538 10.7894 7.09685 10.7894ZM5.68843 13.1052C5.34737 13.1052 5.04422 13.2442 4.83158 13.4989C4.65027 13.7229 4.55141 14.0023 4.55158 14.2905C4.41902 14.2506 4.28157 14.2294 4.14316 14.2273C3.81685 14.2273 3.52211 14.3515 3.31369 14.5768C3.12774 14.7699 3.01051 15.0188 2.98007 15.2851C2.94963 15.5515 3.00768 15.8204 3.14527 16.0505C2.95895 16.2026 2.82677 16.4108 2.76843 16.6442C2.7179 16.8337 2.66737 17.2337 2.93685 17.6421C2.83583 17.7974 2.77572 17.9757 2.7621 18.1605C2.74848 18.3453 2.7818 18.5305 2.85895 18.6989C3.07369 19.1873 3.61053 19.5705 4.65264 19.9831C5.29895 20.24 5.89264 20.4042 5.89685 20.4063C6.64682 20.6141 7.41984 20.7272 8.1979 20.7431C9.43158 20.7431 10.3137 20.3642 10.8211 19.6189C11.6379 18.421 11.5221 17.3242 10.4632 16.2673C9.88 15.6821 9.49053 14.821 9.41053 14.6315C9.24632 14.0715 8.81264 13.4484 8.09474 13.4484C7.90375 13.4514 7.71625 13.5 7.54781 13.5901C7.37937 13.6801 7.23487 13.8091 7.12632 13.9663C6.91579 13.701 6.70948 13.4926 6.52422 13.3726C6.27699 13.2052 5.98689 13.1124 5.68843 13.1052ZM5.68843 13.9473C5.79579 13.9473 5.92843 13.9937 6.07158 14.0842C6.52211 14.3705 7.38737 15.8589 7.70527 16.4379C7.81053 16.6315 7.99369 16.7137 8.15579 16.7137C8.48211 16.7137 8.73474 16.3915 8.18737 15.981C7.36211 15.3642 7.65053 14.3558 8.04422 14.2947C8.06106 14.2905 8.08001 14.2905 8.09474 14.2905C8.45264 14.2905 8.61053 14.9073 8.61053 14.9073C8.61053 14.9073 9.07369 16.0694 9.86948 16.8652C10.6632 17.6589 10.7053 18.2968 10.1263 19.1452C9.73053 19.7242 8.97474 19.8989 8.1979 19.8989C7.39579 19.8989 6.57053 19.7094 6.10948 19.5915C6.08632 19.5852 3.2779 18.7915 3.63369 18.1179C3.69264 18.0042 3.79158 17.9579 3.91579 17.9579C4.41685 17.9579 5.32632 18.7031 5.72 18.7031C5.80632 18.7031 5.86737 18.6673 5.89474 18.5768C6.06106 17.9768 3.35579 17.7242 3.58316 16.8568C3.62527 16.7031 3.73264 16.6421 3.88632 16.6421C4.54737 16.6421 6.03369 17.8063 6.34527 17.8063C6.36843 17.8063 6.38737 17.8 6.39579 17.7852C6.55158 17.5326 6.46527 17.3558 5.36422 16.6905C4.26737 16.0252 3.49474 15.6252 3.93264 15.1473C3.98316 15.0926 4.05474 15.0673 4.14316 15.0673C4.81053 15.0673 6.38737 16.5031 6.38737 16.5031C6.38737 16.5031 6.81264 16.9452 7.07158 16.9452C7.13053 16.9452 7.18106 16.9242 7.21474 16.8652C7.39579 16.5579 5.5179 15.1347 5.41264 14.5473C5.34106 14.1473 5.46316 13.9473 5.68843 13.9473Z" fill="#FF9D0B"/>
<path d="M10.1263 19.1452C10.7053 18.2947 10.6632 17.6568 9.86948 16.8631C9.07369 16.0694 8.61053 14.9052 8.61053 14.9052C8.61053 14.9052 8.4379 14.2315 8.04421 14.2947C7.65053 14.3578 7.36211 15.3642 8.18737 15.981C9.01053 16.5978 8.02316 17.0168 7.70527 16.4378C7.38948 15.8589 6.52211 14.3705 6.07158 14.0842C5.62316 13.7999 5.30737 13.9578 5.41263 14.5473C5.5179 15.1347 7.3979 16.5578 7.21474 16.8631C7.03158 17.1726 6.38737 16.5031 6.38737 16.5031C6.38737 16.5031 4.37263 14.6694 3.93263 15.1473C3.49474 15.6252 4.26737 16.0252 5.36421 16.6905C6.46527 17.3557 6.55158 17.5326 6.39579 17.7852C6.2379 18.0378 3.81053 15.9894 3.58316 16.8589C3.35579 17.7242 6.06105 17.9747 5.89474 18.5747C5.72632 19.1747 3.98737 17.4421 3.63369 18.1157C3.27579 18.7915 6.08632 19.5852 6.10948 19.5915C7.01474 19.8273 9.32 20.3263 10.1263 19.1452Z" fill="#FFD21E"/>
<path d="M18.2948 13.1052C18.6358 13.1052 18.9411 13.2442 19.1516 13.4989C19.3329 13.7229 19.4318 14.0023 19.4316 14.2905C19.5649 14.2504 19.703 14.2292 19.8422 14.2273C20.1685 14.2273 20.4632 14.3515 20.6716 14.5768C20.8576 14.7699 20.9748 15.0188 21.0052 15.2851C21.0357 15.5515 20.9776 15.8204 20.84 16.0505C21.0256 16.2029 21.157 16.4111 21.2148 16.6442C21.2653 16.8336 21.3158 17.2336 21.0464 17.6421C21.1474 17.7974 21.2075 17.9757 21.2211 18.1605C21.2347 18.3453 21.2014 18.5305 21.1243 18.6989C20.9095 19.1873 20.3727 19.5705 19.3327 19.9831C18.6843 20.24 18.0906 20.4042 18.0864 20.4063C17.3364 20.6141 16.5634 20.7272 15.7853 20.7431C14.5516 20.7431 13.6695 20.3642 13.1622 19.6189C12.3453 18.421 12.4611 17.3242 13.5201 16.2673C14.1053 15.6821 14.4948 14.821 14.5748 14.6315C14.739 14.0715 15.1706 13.4484 15.8885 13.4484C16.0795 13.4514 16.267 13.5 16.4354 13.59C16.6038 13.6801 16.7483 13.8091 16.8569 13.9663C17.0674 13.701 17.2737 13.4926 17.4611 13.3726C17.7077 13.2056 17.997 13.1128 18.2948 13.1052ZM18.2948 13.9473C18.1874 13.9473 18.0569 13.9936 17.9116 14.0842C17.4632 14.3705 16.5958 15.8589 16.2779 16.4379C16.235 16.5205 16.1704 16.5898 16.091 16.6384C16.0116 16.687 15.9205 16.713 15.8274 16.7136C15.5032 16.7136 15.2485 16.3915 15.7979 15.981C16.6211 15.3642 16.3327 14.3558 15.939 14.2947C15.9223 14.292 15.9054 14.2906 15.8885 14.2905C15.5306 14.2905 15.3727 14.9073 15.3727 14.9073C15.3727 14.9073 14.9095 16.0694 14.1158 16.8652C13.32 17.6589 13.2779 18.2968 13.859 19.1452C14.2527 19.7242 15.0106 19.8989 15.7853 19.8989C16.5895 19.8989 17.4127 19.7094 17.8758 19.5915C17.8969 19.5852 20.7074 18.7915 20.3516 18.1179C20.2906 18.0042 20.1937 17.9579 20.0695 17.9579C19.5685 17.9579 18.6569 18.7031 18.2653 18.7031C18.1769 18.7031 18.1158 18.6673 18.0906 18.5768C17.9222 17.9768 20.6274 17.7242 20.4001 16.8568C20.3601 16.7031 20.2527 16.6421 20.0969 16.6421C19.4358 16.6421 17.9495 17.8063 17.6379 17.8063C17.6169 17.8063 17.5979 17.8 17.5895 17.7852C17.4337 17.5326 17.5179 17.3558 18.6169 16.6905C19.7179 16.0252 20.4906 15.6252 20.0485 15.1473C20.0001 15.0926 19.9285 15.0673 19.8422 15.0673C19.1727 15.0673 17.5958 16.5031 17.5958 16.5031C17.5958 16.5031 17.1706 16.9452 16.9137 16.9452C16.8848 16.9465 16.8561 16.9397 16.8308 16.9256C16.8055 16.9115 16.7846 16.8906 16.7706 16.8652C16.5874 16.5579 18.4653 15.1347 18.5706 14.5473C18.6422 14.1473 18.5201 13.9473 18.2948 13.9473Z" fill="#FF9D0B"/>
<path d="M13.859 19.1452C13.28 18.2947 13.32 17.6568 14.1158 16.8631C14.9095 16.0694 15.3726 14.9052 15.3726 14.9052C15.3726 14.9052 15.5453 14.2315 15.9411 14.2947C16.3326 14.3578 16.6211 15.3642 15.7979 15.981C14.9726 16.5978 15.9621 17.0168 16.2779 16.4378C16.5958 15.8589 17.4632 14.3705 17.9116 14.0842C18.36 13.7999 18.6779 13.9578 18.5705 14.5473C18.4653 15.1347 16.5874 16.5578 16.7705 16.8631C16.9516 17.1726 17.5958 16.5031 17.5958 16.5031C17.5958 16.5031 19.6126 14.6694 20.0505 15.1473C20.4884 15.6252 19.7179 16.0252 18.619 16.6905C17.5179 17.3557 17.4337 17.5326 17.5874 17.7852C17.7453 18.0378 20.1726 15.9894 20.4 16.8589C20.6274 17.7242 17.9242 17.9747 18.0905 18.5747C18.259 19.1747 19.9958 17.4421 20.3516 18.1157C20.7074 18.7915 17.899 19.5852 17.8758 19.5915C16.9684 19.8273 14.6632 20.3263 13.859 19.1452Z" fill="#FFD21E"/>
</svg>