<svg width="12" height="12" viewBox="0 0 12 12" fill="none" xmlns="http://www.w3.org/2000/svg">
<path fill-rule="evenodd" clip-rule="evenodd" d="M0.889661 0.889783C1.1872 0.59224 1.66961 0.59224 1.96716 0.889783L5.99984 4.92246L10.0325 0.889783C10.3301 0.59224 10.8125 0.59224 11.11 0.889783C11.4076 1.18733 11.4076 1.66974 11.11 1.96728L7.07733 5.99996L11.11 10.0326C11.4076 10.3302 11.4076 10.8126 11.11 11.1101C10.8125 11.4077 10.3301 11.4077 10.0325 11.1101L5.99984 7.07745L1.96716 11.1101C1.66961 11.4077 1.1872 11.4077 0.889661 11.1101C0.592118 10.8126 0.592118 10.3302 0.889661 10.0326L4.92234 5.99996L0.889661 1.96728C0.592118 1.66974 0.592118 1.18733 0.889661 0.889783Z" fill="#697177"/>
</svg>
