<svg width="12" height="14" viewBox="0 0 12 14" fill="none" xmlns="http://www.w3.org/2000/svg">
<path d="M4.24383 0.927107C4.49111 0.556175 4.90742 0.333374 5.35323 0.333374H6.59274C7.03854 0.333374 7.45485 0.556176 7.70214 0.927107L8.30631 1.83337H10.8063C11.0825 1.83337 11.3063 2.05723 11.3063 2.33337C11.3063 2.60952 11.0825 2.83337 10.8063 2.83337H1.13965C0.863506 2.83337 0.639648 2.60952 0.639648 2.33337C0.639648 2.05723 0.863506 1.83337 1.13965 1.83337H3.63965L4.24383 0.927107Z" fill="#889096"/>
<path fill-rule="evenodd" clip-rule="evenodd" d="M7.97298 13.6667H3.97298C2.50022 13.6667 1.30632 12.4728 1.30632 11V3.66671H10.6396V11C10.6396 12.4728 9.44574 13.6667 7.97298 13.6667ZM4.63965 5.83337C4.91579 5.83337 5.13965 6.05723 5.13965 6.33337V11C5.13965 11.2762 4.91579 11.5 4.63965 11.5C4.36351 11.5 4.13965 11.2762 4.13965 11L4.13965 6.33337C4.13965 6.05723 4.36351 5.83337 4.63965 5.83337ZM7.30631 5.83337C7.58246 5.83337 7.80631 6.05723 7.80631 6.33337V11C7.80632 11.2762 7.58246 11.5 7.30631 11.5C7.03017 11.5 6.80632 11.2762 6.80631 11V6.33337C6.80631 6.05723 7.03017 5.83337 7.30631 5.83337Z" fill="#889096"/>
</svg>
