<svg width="14" height="14" viewBox="0 0 14 14" fill="none" xmlns="http://www.w3.org/2000/svg">
<path d="M3.6667 13.0917C2.71791 13.0917 1.90988 12.7581 1.2426 12.0908C0.575333 11.4235 0.241699 10.6155 0.241699 9.6667C0.241699 9.02853 0.397677 8.44604 0.709632 7.91923C1.02159 7.39242 1.44218 6.98059 1.97142 6.68373C2.21537 6.54773 2.45311 6.54852 2.68463 6.68608C2.91615 6.82364 3.03192 7.0266 3.03192 7.29497C3.03192 7.4225 3.00227 7.54025 2.94297 7.64822C2.88367 7.75619 2.8016 7.83772 2.69677 7.89278C2.38034 8.06476 2.12424 8.3083 1.92847 8.6234C1.7327 8.9385 1.63482 9.28627 1.63482 9.6667C1.63482 10.2276 1.83258 10.7064 2.22812 11.1033C2.62365 11.5002 3.10318 11.6986 3.6667 11.6986C4.23022 11.6986 4.70975 11.5008 5.10528 11.1053C5.50082 10.7097 5.69858 10.2302 5.69858 9.6667C5.69858 9.46984 5.75601 9.3042 5.87087 9.16978C5.98572 9.03536 6.14158 8.96815 6.33843 8.96815H9.57142C9.66562 8.86815 9.77727 8.78759 9.90637 8.72648C10.0355 8.66537 10.1778 8.63482 10.3334 8.63482C10.6218 8.63482 10.8659 8.73469 11.0656 8.93445C11.2654 9.1342 11.3652 9.37829 11.3652 9.6667C11.3652 9.95244 11.2654 10.1959 11.0656 10.3969C10.8659 10.598 10.6218 10.6986 10.3334 10.6986C10.1778 10.6986 10.0355 10.668 9.90637 10.6069C9.77727 10.5458 9.66562 10.4652 9.57142 10.3652H7.02105C6.85753 11.1505 6.46568 11.8012 5.8455 12.3174C5.22533 12.8336 4.49907 13.0917 3.6667 13.0917ZM3.6667 10.6986C3.38095 10.6986 3.13754 10.598 2.93645 10.3969C2.73536 10.1959 2.63482 9.95244 2.63482 9.6667C2.63482 9.41694 2.71325 9.20051 2.87013 9.01742C3.02702 8.83433 3.21923 8.71368 3.44677 8.65547L4.96163 6.14315C4.63143 5.83784 4.37334 5.46888 4.18735 5.03627C4.00136 4.60365 3.90837 4.14713 3.90837 3.6667C3.90837 2.71791 4.24267 1.90988 4.91127 1.2426C5.57987 0.575333 6.38723 0.241699 7.33337 0.241699C8.12709 0.241699 8.82848 0.481793 9.43753 0.961982C10.0466 1.44218 10.4495 2.0487 10.6464 2.78155C10.7099 3.01392 10.6737 3.21953 10.5377 3.3984C10.4017 3.57727 10.2107 3.6667 9.96453 3.6667C9.80945 3.6667 9.66737 3.61127 9.53827 3.5004C9.40915 3.38952 9.31972 3.25099 9.26997 3.08482C9.14242 2.66259 8.90444 2.31537 8.55602 2.04315C8.20758 1.77093 7.80003 1.63482 7.33337 1.63482C6.76984 1.63482 6.29032 1.83258 5.89478 2.22812C5.49925 2.62365 5.30148 3.10318 5.30148 3.6667C5.30148 4.03868 5.39315 4.37811 5.57648 4.685C5.75982 4.99188 5.99725 5.23554 6.2888 5.41598C6.45499 5.51284 6.55952 5.63258 6.60238 5.77522C6.64526 5.91785 6.62515 6.06114 6.54207 6.2051L4.64858 9.37068C4.6708 9.42624 4.68469 9.47558 4.69025 9.5187C4.6958 9.56181 4.69858 9.61114 4.69858 9.6667C4.69858 9.95244 4.5987 10.1959 4.39895 10.3969C4.19919 10.598 3.95511 10.6986 3.6667 10.6986ZM10.3334 13.0917C10.0365 13.0917 9.74533 13.0543 9.45982 12.9794C9.1743 12.9045 8.91223 12.8006 8.67358 12.6678C8.36029 12.4878 8.23819 12.2258 8.30728 11.8815C8.37636 11.5373 8.608 11.3652 9.0022 11.3652C9.07104 11.3652 9.14412 11.377 9.22142 11.4006C9.2987 11.4241 9.3731 11.4552 9.4446 11.4939C9.58373 11.5663 9.72763 11.6186 9.8763 11.6506C10.025 11.6826 10.1773 11.6986 10.3334 11.6986C10.8969 11.6986 11.3764 11.5008 11.7719 11.1053C12.1675 10.7097 12.3652 10.2302 12.3652 9.6667C12.3652 9.10318 12.1675 8.62365 11.7719 8.22812C11.3764 7.83258 10.8969 7.63482 10.3334 7.63482C10.2223 7.63482 10.116 7.64315 10.0147 7.65982C9.91338 7.67648 9.81272 7.70148 9.71272 7.73482C9.52165 7.79568 9.34369 7.80045 9.17883 7.74913C9.01398 7.6978 8.89001 7.60571 8.80692 7.47287L7.1301 4.67793C6.89145 4.62818 6.69369 4.51242 6.5368 4.33065C6.37992 4.14888 6.30148 3.92757 6.30148 3.6667C6.30148 3.38095 6.40203 3.13754 6.60312 2.93645C6.8042 2.73536 7.04762 2.63482 7.33337 2.63482C7.62178 2.63482 7.86586 2.73536 8.06562 2.93645C8.26537 3.13754 8.36525 3.38095 8.36525 3.6667C8.36525 3.72225 8.36459 3.76881 8.36327 3.80637C8.36193 3.84393 8.35148 3.89049 8.33192 3.94605L9.7301 6.2917C9.81633 6.27213 9.9141 6.2589 10.0234 6.25202C10.1327 6.24514 10.236 6.2417 10.3334 6.2417C11.2822 6.2417 12.0902 6.57467 12.7575 7.24062C13.4247 7.90656 13.7584 8.71525 13.7584 9.6667C13.7584 10.6128 13.4247 11.4202 12.7575 12.0888C12.0902 12.7574 11.2822 13.0917 10.3334 13.0917Z" fill="#C1C8CD"/>
</svg>
