<svg width="18" height="16" viewBox="0 0 18 16" fill="none" xmlns="http://www.w3.org/2000/svg">
<path fill-rule="evenodd" clip-rule="evenodd" d="M1.86437 1.77532C1.6203 1.53124 1.6203 1.13551 1.86437 0.891432C2.10845 0.647355 2.50418 0.647355 2.74826 0.891432L16.0816 14.2248C16.3257 14.4688 16.3257 14.8646 16.0816 15.1086C15.8375 15.3527 15.4418 15.3527 15.1977 15.1086L12.8421 12.753C11.6677 13.3924 10.3563 13.8334 8.97298 13.8334C5.79339 13.8334 2.99423 11.5039 1.3644 9.78912C0.398063 8.7724 0.398064 7.22768 1.3644 6.21096C2.05592 5.48338 2.95794 4.64516 4.01022 3.92116L1.86437 1.77532ZM6.81912 6.73006C6.59919 7.10226 6.47298 7.53641 6.47298 8.00004C6.47298 9.38075 7.59227 10.5 8.97298 10.5C9.43661 10.5 9.87076 10.3738 10.243 10.1539L6.81912 6.73006ZM8.97298 2.16671C12.1526 2.16671 14.9517 4.49615 16.5816 6.21096C17.5479 7.22768 17.5479 8.7724 16.5816 9.78912C16.2148 10.175 15.7889 10.5919 15.3128 11.0065L6.8169 2.51057C7.50812 2.29384 8.23017 2.16671 8.97298 2.16671Z" fill="#C1C8CD"/>
</svg>
