<svg width="100%" height="100%" viewBox="0 0 24 24" fill="none" xmlns="http://www.w3.org/2000/svg">
<path d="M6.58765 3.82269L1.72803 11.5594L6.58765 19.2975L6.67239 19.237L6.6102 3.83858L6.58765 3.82269Z" fill="#876929"/>
<path d="M12.0153 17.9068L6.58789 19.2975V3.82269L12.0153 5.21302V17.9068Z" fill="#D9A741"/>
<path d="M22.2702 5.77003L19.6541 6.20266L13.6481 0.00262451L10.6622 1.31006L11.0561 2.04459L8.94287 2.8893V22.4244L12.0148 23.9614L12.066 23.9214L12.0187 3.84002L18.5303 13.7082L22.2702 5.77003Z" fill="#876929"/>
<path d="M13.6484 0.00262451L21.6477 4.00204L18.4845 9.74152L13.6484 0.00262451Z" fill="#D9A741"/>
<path d="M22.27 5.77004L22.272 18.829L12.015 23.9614L12.0137 1.66245L18.4842 13.4023L22.27 5.77004Z" fill="#D9A741"/>
</svg>
