<svg xmlns="http://www.w3.org/2000/svg" xmlns:xlink="http://www.w3.org/1999/xlink" width="1em" height="1em" preserveAspectRatio="xMidYMid meet" viewBox="0 0 256 256" style="-ms-transform: rotate(360deg); -webkit-transform: rotate(360deg); transform: rotate(360deg);"><defs><linearGradient id="IconifyId-1840ef948a0-982476-3246" x1="0%" x2="100%" y1="100%" y2="0%"><stop offset="0%" stop-color="#BD0816"/><stop offset="100%" stop-color="#FF5252"/></linearGradient></defs><path fill="url(#IconifyId-1840ef948a0-982476-3246)" d="M0 0h256v256H0z"/><path fill="#FFF" d="M182.4 195.2c0-5.204-4.397-9.6-9.6-9.6c-5.203 0-9.6 4.396-9.6 9.6c0 5.203 4.397 9.6 9.6 9.6c5.203 0 9.6-4.397 9.6-9.6ZM128 192c-5.203 0-9.6 4.396-9.6 9.6c0 5.203 4.397 9.6 9.6 9.6c5.203 0 9.6-4.397 9.6-9.6c0-5.204-4.397-9.6-9.6-9.6Zm-44.8-6.4c-5.203 0-9.6 4.396-9.6 9.6c0 5.203 4.397 9.6 9.6 9.6c5.203 0 9.6-4.397 9.6-9.6c0-5.204-4.397-9.6-9.6-9.6Zm8.336-48.001h72.928l-24.5-22.046l-9.887 8.474a3.176 3.176 0 0 1-2.08.771a3.18 3.18 0 0 1-2.08-.77l-9.885-8.475L91.536 137.6ZM86.4 90.155v43.46l24.733-22.26l-24.733-21.2Zm77.75-3.757h-72.3l36.147 30.986l36.153-30.986Zm5.45 47.216v-43.46l-24.733 21.198l24.733 22.262Zm19.2 61.586c0 8.672-7.328 16-16 16s-16-7.328-16-16c0-7.581 5.6-14.132 12.8-15.661v-9.94h-38.4v16.34c7.2 1.53 12.8 8.08 12.8 15.66c0 8.673-7.328 16.001-16 16.001s-16-7.328-16-16c0-7.581 5.6-14.132 12.8-15.661v-16.34H86.4v9.94c7.2 1.53 12.8 8.08 12.8 15.66c0 8.673-7.328 16-16 16s-16-7.327-16-16c0-7.58 5.6-14.13 12.8-15.66v-13.14a3.2 3.2 0 0 1 3.2-3.2h41.6v-19.2H83.2a3.2 3.2 0 0 1-3.2-3.2V83.198a3.2 3.2 0 0 1 3.2-3.2h89.6a3.2 3.2 0 0 1 3.2 3.2v57.6a3.2 3.2 0 0 1-3.2 3.2h-41.6V163.2h41.6a3.2 3.2 0 0 1 3.2 3.2v13.14c7.2 1.53 12.8 8.08 12.8 15.66Zm28.8-67.202c0 18.903-5.834 36.993-16.874 52.305l-5.193-3.744c10.25-14.218 15.667-31.008 15.667-48.56c0-45.873-37.322-83.199-83.197-83.199c-45.878 0-83.203 37.326-83.203 83.198c0 17.553 5.418 34.343 15.667 48.561l-5.193 3.744C44.234 164.991 38.4 146.901 38.4 127.998c0-49.402 40.195-89.598 89.597-89.598c49.405 0 89.603 40.196 89.603 89.598Z"/></svg>
