<?xml version="1.0" encoding="iso-8859-1"?>
<!-- Generator: Adobe Illustrator 19.0.0, SVG Export Plug-In . SVG Version: 6.00 Build 0)  -->
<svg class="w-6 h-6" height="40" width="40" xmlns="http://www.w3.org/2000/svg">
	<defs>
		<linearGradient x1="0%" y1="100%" x2="100%" y2="0%" id="Arch_AWS-Simple-Email-Service_32_svg__a">
			<stop stop-color="#2E27AD" offset="0%"></stop>
			<stop stop-color="#527FFF" offset="100%"></stop>
		</linearGradient>
	</defs>
	<g fill="none" fill-rule="evenodd">
		<path d="M0 0h40v40H0z" fill="url(#Arch_AWS-Simple-Email-Service_32_svg__a)"></path>
		<path d="M27.882 30.426c0-.814-.614-1.428-1.429-1.428-.814 0-1.428.614-1.428 1.428s.614 1.428 1.428 1.428c.815 0 1.429-.614 1.429-1.428zM20 30.14c-.827 0-1.5.641-1.5 1.43 0 .788.673 1.43 1.5 1.43s1.5-.642 1.5-1.43c0-.789-.673-1.43-1.5-1.43zm-6.515-1.142c-.815 0-1.429.614-1.429 1.428s.614 1.428 1.429 1.428c.814 0 1.428-.614 1.428-1.428s-.614-1.428-1.428-1.428zm.474-7.937h12.082l-4.256-3.17-1.468 1.209a.5.5 0 01-.635 0l-1.468-1.208-4.255 3.17zm-1.009-7.503v7.007l4.469-3.328-4.469-3.679zM26.155 13H13.844l6.155 5.067 6.156-5.067zm.895 7.566v-7.007l-4.47 3.679 4.47 3.328zm1.832 9.861a2.402 2.402 0 01-2.429 2.428 2.401 2.401 0 01-2.428-2.428c0-1.19.814-2.153 1.928-2.378V26.06H20.5v3.13c1.14.224 2 1.205 2 2.378C22.5 32.91 21.379 34 20 34s-2.5-1.09-2.5-2.43c0-1.174.861-2.155 2-2.38v-3.13h-5.515v1.988a2.398 2.398 0 011.928 2.378 2.401 2.401 0 01-2.428 2.428 2.402 2.402 0 01-2.429-2.428c0-1.19.814-2.153 1.929-2.378V25.56c0-.277.223-.5.5-.5H19.5v-3h-7.05a.5.5 0 01-.5-.5V12.5a.5.5 0 01.5-.5h15.1a.5.5 0 01.5.5v9.062a.5.5 0 01-.5.5H20.5v3h5.953c.277 0 .5.223.5.5v2.487a2.398 2.398 0 011.929 2.378zM34 20c0 2.737-.966 5.83-2.583 8.275l-.834-.552C32.074 25.469 33 22.51 33 19.999c0-7.168-5.831-13-12.999-13C12.832 7 7 12.832 7 20c0 2.505.926 5.465 2.417 7.724l-.834.55C6.966 25.824 6 22.73 6 20 6 12.28 12.28 6 19.999 6 27.719 6 34 12.28 34 19.999z"
			  fill="#FFF"></path>
	</g>
</svg>
