<svg width="100%" height="100%" viewBox="0 0 24 24" fill="none" xmlns="http://www.w3.org/2000/svg">
<g clip-path="url(#clip0_817_123591)">
<path d="M2.22729 4.85693H21.7629C22.9992 4.85693 24.0001 5.85771 24.0001 7.09409V14.5512C24.0001 15.7874 22.9993 16.7883 21.7629 16.7883H14.7573L15.7189 19.1431L11.4899 16.7883H2.23723C1.00095 16.7883 7.15324e-05 15.7875 7.15324e-05 14.5512V7.09409C-0.00974034 5.86756 0.991103 4.85693 2.22738 4.85693H2.22729Z" fill="#7F54B3"/>
<path d="M1.36658 6.89599C1.50316 6.71063 1.70805 6.61306 1.98121 6.59355C2.47877 6.55453 2.7617 6.78867 2.83 7.29599C3.13244 9.33505 3.46414 11.0618 3.81541 12.4765L5.95197 8.40824C6.14709 8.03751 6.39099 7.84239 6.68368 7.82288C7.11295 7.79361 7.37636 8.06678 7.48367 8.64239C7.72757 9.93999 8.03977 11.0424 8.41051 11.979C8.66417 9.50086 9.09344 7.71558 9.69835 6.61308C9.84469 6.33991 10.0593 6.20333 10.3423 6.18381C10.5666 6.1643 10.7715 6.23259 10.9569 6.37893C11.1423 6.52527 11.2398 6.71064 11.2593 6.93503C11.2691 7.11064 11.2398 7.25697 11.1618 7.40332C10.7813 8.10576 10.4691 9.28629 10.2154 10.9252C9.97155 12.5155 9.88374 13.7545 9.94228 14.6423C9.96179 14.8862 9.92277 15.1009 9.8252 15.2862C9.70813 15.5008 9.53252 15.6179 9.30813 15.6374C9.05447 15.6569 8.79107 15.5399 8.53741 15.2765C7.63009 14.3496 6.90812 12.9643 6.38134 11.1203C5.7472 12.3691 5.27894 13.3057 4.9765 13.9301C4.40089 15.0325 3.91309 15.5984 3.50331 15.6276C3.23989 15.6472 3.0155 15.4228 2.82038 14.9545C2.32282 13.6764 1.78622 11.2081 1.2106 7.54963C1.17157 7.29597 1.23011 7.07158 1.36669 6.89597L1.36658 6.89599ZM22.3328 8.42768C21.9816 7.81304 21.4645 7.44227 20.7719 7.29593C20.5865 7.2569 20.4109 7.23739 20.2451 7.23739C19.3085 7.23739 18.5475 7.7252 17.9524 8.70083C17.4451 9.53009 17.1914 10.4472 17.1914 11.452C17.1914 12.2032 17.3475 12.8471 17.6597 13.3837C18.0109 13.9984 18.528 14.3691 19.2207 14.5155C19.406 14.5545 19.5816 14.574 19.7475 14.574C20.6938 14.574 21.4548 14.0862 22.0401 13.1106C22.5475 12.2716 22.8011 11.3545 22.8011 10.3496C22.8109 9.58867 22.645 8.95455 22.3328 8.42768ZM21.1036 11.1301C20.967 11.774 20.7231 12.252 20.3621 12.5741C20.0792 12.8277 19.8158 12.935 19.5719 12.8862C19.3377 12.8375 19.1426 12.6326 18.9963 12.2521C18.8792 11.9497 18.8207 11.6472 18.8207 11.3643C18.8207 11.1204 18.8402 10.8765 18.889 10.6521C18.9768 10.2521 19.1426 9.86186 19.406 9.49111C19.728 9.01306 20.0694 8.81794 20.4207 8.88624C20.6548 8.93502 20.8499 9.13989 20.9963 9.52038C21.1134 9.82282 21.1719 10.1253 21.1719 10.4082C21.1719 10.6618 21.1524 10.9057 21.1036 11.1301L21.1036 11.1301ZM16.2255 8.42768C15.8743 7.81304 15.3474 7.44227 14.6646 7.29593C14.4792 7.2569 14.3036 7.23739 14.1377 7.23739C13.2011 7.23739 12.4402 7.7252 11.8451 8.70083C11.3377 9.53009 11.0841 10.4472 11.0841 11.452C11.0841 12.2032 11.2402 12.8471 11.5524 13.3837C11.9036 13.9984 12.4207 14.3691 13.1133 14.5155C13.2987 14.5545 13.4743 14.574 13.6401 14.574C14.5865 14.574 15.3474 14.0862 15.9328 13.1106C16.4401 12.2716 16.6938 11.3545 16.6938 10.3496C16.6938 9.58867 16.5377 8.95455 16.2255 8.42768ZM14.9865 11.1301C14.8499 11.774 14.606 12.252 14.245 12.5741C13.9621 12.8277 13.6987 12.935 13.4548 12.8862C13.2206 12.8375 13.0255 12.6326 12.8792 12.2521C12.7621 11.9497 12.7036 11.6472 12.7036 11.3643C12.7036 11.1204 12.7231 10.8765 12.7719 10.6521C12.8597 10.2521 13.0255 9.86186 13.2889 9.49111C13.6109 9.01306 13.9523 8.81794 14.3036 8.88624C14.5377 8.93502 14.7329 9.13989 14.8792 9.52038C14.9963 9.82282 15.0548 10.1253 15.0548 10.4082C15.0646 10.6618 15.0353 10.9057 14.9865 11.1301L14.9865 11.1301Z" fill="white"/>
</g>
<defs>
<clipPath id="clip0_817_123591">
<rect width="24" height="24" fill="white"/>
</clipPath>
</defs>
</svg>
