<svg width="100%" height="100%" viewBox="0 0 24 24" fill="none" xmlns="http://www.w3.org/2000/svg">
<path d="M2.58522 17.6616L3.44775 18.1596L13.0568 1.51682L12.1942 1.01882L2.58522 17.6616Z" fill="#E535AB"/>
<path d="M21.6062 16.332H2.38818V17.328H21.6062V16.332Z" fill="#E535AB"/>
<path d="M2.76875 16.8915L12.3813 22.4415L12.8793 21.579L3.26675 16.029L2.76875 16.8915Z" fill="#E535AB"/>
<path d="M11.1188 2.42681L20.7314 7.97681L21.2294 7.11427L11.6168 1.56427L11.1188 2.42681Z" fill="#E535AB"/>
<path d="M2.77104 7.11049L3.26904 7.97302L12.8816 2.42302L12.3836 1.56049L2.77104 7.11049Z" fill="#E535AB"/>
<path d="M10.9452 1.517L20.5542 18.1598L21.4167 17.6618L11.8077 1.019L10.9452 1.517Z" fill="#E535AB"/>
<path d="M4.1459 6.45001H3.1499V17.55H4.1459V6.45001Z" fill="#E535AB"/>
<path d="M20.85 6.45001H19.854V17.55H20.85V6.45001Z" fill="#E535AB"/>
<path d="M11.7764 21.2665L12.2114 22.02L20.5718 17.193L20.1368 16.4395L11.7764 21.2665Z" fill="#E535AB"/>
<path d="M22.1699 17.874C21.5939 18.876 20.3099 19.218 19.3079 18.642C18.3059 18.066 17.9639 16.782 18.5399 15.78C19.1159 14.778 20.3999 14.436 21.4019 15.012C22.4099 15.594 22.7519 16.872 22.1699 17.874Z" fill="#E535AB"/>
<path d="M5.45404 8.22C4.87804 9.222 3.59404 9.564 2.59204 8.988C1.59004 8.412 1.24804 7.128 1.82404 6.126C2.40004 5.124 3.68404 4.782 4.68604 5.358C5.68804 5.94 6.03004 7.218 5.45404 8.22Z" fill="#E535AB"/>
<path d="M1.8299 17.874C1.2539 16.872 1.5959 15.594 2.5979 15.012C3.5999 14.436 4.8779 14.778 5.4599 15.78C6.0359 16.782 5.6939 18.06 4.6919 18.642C3.6839 19.218 2.4059 18.876 1.8299 17.874Z" fill="#E535AB"/>
<path d="M18.5462 8.22C17.9702 7.218 18.3122 5.94 19.3142 5.358C20.3162 4.782 21.5942 5.124 22.1762 6.126C22.7522 7.128 22.4102 8.406 21.4082 8.988C20.4062 9.564 19.1222 9.222 18.5462 8.22Z" fill="#E535AB"/>
<path d="M12.0002 23.748C10.8422 23.748 9.90625 22.812 9.90625 21.654C9.90625 20.496 10.8422 19.56 12.0002 19.56C13.1582 19.56 14.0942 20.496 14.0942 21.654C14.0942 22.806 13.1582 23.748 12.0002 23.748Z" fill="#E535AB"/>
<path d="M12.0002 4.44001C10.8422 4.44001 9.90625 3.50401 9.90625 2.34601C9.90625 1.18801 10.8422 0.252014 12.0002 0.252014C13.1582 0.252014 14.0942 1.18801 14.0942 2.34601C14.0942 3.50401 13.1582 4.44001 12.0002 4.44001Z" fill="#E535AB"/>
</svg>
