<svg width="24" height="24" viewBox="0 0 24 24" fill="none" xmlns="http://www.w3.org/2000/svg">
<path opacity="0.4" fill-rule="evenodd" clip-rule="evenodd" d="M11.4697 18.5303C11.7626 18.8232 12.2374 18.8232 12.5303 18.5303L16.5303 14.5303C16.8232 14.2374 16.8232 13.7626 16.5303 13.4697C16.2374 13.1768 15.7626 13.1768 15.4697 13.4697L12.75 16.1893V6C12.75 5.58579 12.4142 5.25 12 5.25C11.5858 5.25 11.25 5.58579 11.25 6V16.1893L8.53033 13.4697C8.23744 13.1768 7.76256 13.1768 7.46967 13.4697C7.17678 13.7626 7.17678 14.2374 7.46967 14.5303L11.4697 18.5303Z" fill="#121212"/>
<path d="M12.5303 18.5303C12.2374 18.8232 11.7626 18.8232 11.4697 18.5303L7.46967 14.5303C7.17678 14.2374 7.17678 13.7626 7.46967 13.4697C7.76256 13.1768 8.23744 13.1768 8.53033 13.4697L11.9975 16.9708L15.4697 13.4697C15.7626 13.1768 16.2374 13.1768 16.5303 13.4697C16.8232 13.7626 16.8232 14.2374 16.5303 14.5303L12.5303 18.5303Z" fill="#121212"/>
</svg>
