<svg width="24" height="24" viewBox="0 0 24 24" fill="none" xmlns="http://www.w3.org/2000/svg">
<path opacity="0.4" d="M22 18V7.65685C22 6.59599 21.5786 5.57857 20.8284 4.82843L19.1716 3.17157C18.4214 2.42143 17.404 2 16.3431 2H7.65685C6.59599 2 5.57857 2.42143 4.82843 3.17157L3.17157 4.82843C2.42143 5.57857 2 6.59599 2 7.65685V18C2 20.2091 3.79086 22 6 22H18C20.2091 22 22 20.2091 22 18Z" fill="#121212"/>
<path d="M16.3431 2H7.65677C6.5959 2 5.57849 2.42143 4.82834 3.17157L3.17149 4.82843C2.57799 5.42193 2.19025 6.18274 2.0542 7H21.9456C21.8096 6.18274 21.4218 5.42193 20.8283 4.82843L19.1715 3.17157C18.4213 2.42143 17.4039 2 16.3431 2Z" fill="#121212"/>
<path fill-rule="evenodd" clip-rule="evenodd" d="M15.25 19C15.25 18.5858 15.5858 18.25 16 18.25H19C19.4142 18.25 19.75 18.5858 19.75 19C19.75 19.4142 19.4142 19.75 19 19.75H16C15.5858 19.75 15.25 19.4142 15.25 19Z" fill="#121212"/>
<path fill-rule="evenodd" clip-rule="evenodd" d="M15.25 16C15.25 15.5858 15.5858 15.25 16 15.25H19C19.4142 15.25 19.75 15.5858 19.75 16C19.75 16.4142 19.4142 16.75 19 16.75H16C15.5858 16.75 15.25 16.4142 15.25 16Z" fill="#121212"/>
</svg>
