<svg width="24" height="24" viewBox="0 0 24 24" fill="none" xmlns="http://www.w3.org/2000/svg">
<path opacity="0.4" fill-rule="evenodd" clip-rule="evenodd" d="M16.9697 16.9697C17.2626 16.6768 17.7374 16.6768 18.0303 16.9697L22.5303 21.4697C22.8232 21.7626 22.8232 22.2374 22.5303 22.5303C22.2374 22.8232 21.7626 22.8232 21.4697 22.5303L16.9697 18.0303C16.6768 17.7374 16.6768 17.2626 16.9697 16.9697Z" fill="#121212"/>
<path fill-rule="evenodd" clip-rule="evenodd" d="M11.5 21C16.7467 21 21 16.7467 21 11.5C21 6.25329 16.7467 2 11.5 2C6.25329 2 2 6.25329 2 11.5C2 16.7467 6.25329 21 11.5 21ZM15.5 12.25C15.9142 12.25 16.25 11.9142 16.25 11.5C16.25 11.0858 15.9142 10.75 15.5 10.75H7.5C7.08579 10.75 6.75 11.0858 6.75 11.5C6.75 11.9142 7.08579 12.25 7.5 12.25H15.5Z" fill="#121212"/>
</svg>
