<svg width="11" height="14" viewBox="0 0 11 14" fill="none" xmlns="http://www.w3.org/2000/svg">
<path fill-rule="evenodd" clip-rule="evenodd" d="M3.33317 3.49967C3.33317 2.30306 4.30322 1.33301 5.49984 1.33301C6.69645 1.33301 7.6665 2.30306 7.6665 3.49967V4.33301H3.33317V3.49967ZM2.33317 4.37981V3.49967C2.33317 1.75077 3.75094 0.333008 5.49984 0.333008C7.24874 0.333008 8.6665 1.75077 8.6665 3.49967V4.37981C9.90027 4.61384 10.8332 5.69781 10.8332 6.99967V10.9997C10.8332 12.4724 9.63926 13.6663 8.1665 13.6663H2.83317C1.36041 13.6663 0.166504 12.4724 0.166504 10.9997V6.99967C0.166504 5.69781 1.09941 4.61384 2.33317 4.37981ZM6.83317 8.99967C6.83317 9.73605 6.23622 10.333 5.49984 10.333C4.76346 10.333 4.1665 9.73605 4.1665 8.99967C4.1665 8.2633 4.76346 7.66634 5.49984 7.66634C6.23622 7.66634 6.83317 8.2633 6.83317 8.99967Z" fill="#ACB2B9"/>
</svg>
