<svg width="32" height="32" viewBox="0 0 32 32" fill="none" xmlns="http://www.w3.org/2000/svg">
<path fill-rule="evenodd" clip-rule="evenodd" d="M15.1665 8.5H16.8332C20.9753 8.5 24.3332 11.8579 24.3332 16C24.3332 20.1421 20.9753 23.5 16.8332 23.5H10.9998C9.15889 23.5 7.6665 22.0076 7.6665 20.1667V16C7.6665 11.8579 11.0244 8.5 15.1665 8.5ZM12.6665 18.2917C12.3213 18.2917 12.0415 18.0118 12.0415 17.6667C12.0415 17.3215 12.3213 17.0417 12.6665 17.0417H15.9998C16.345 17.0417 16.6248 17.3215 16.6248 17.6667C16.6248 18.0118 16.345 18.2917 15.9998 18.2917H12.6665ZM12.6665 14.9583C12.3213 14.9583 12.0415 14.6785 12.0415 14.3333C12.0415 13.9882 12.3213 13.7083 12.6665 13.7083H19.3332C19.6783 13.7083 19.9582 13.9882 19.9582 14.3333C19.9582 14.6785 19.6783 14.9583 19.3332 14.9583H12.6665Z" fill="#C1C8CD"/>
</svg>
