<svg width="33" height="33" viewBox="0 0 33 33" fill="none" xmlns="http://www.w3.org/2000/svg">
<path fill-rule="evenodd" clip-rule="evenodd" d="M13.5417 12.1292C13.188 12.1292 12.8489 12.2697 12.5989 12.5198C12.3488 12.7698 12.2083 13.1089 12.2083 13.4626V20.5198L13.7369 18.9912C13.862 18.8661 14.0315 18.7959 14.2083 18.7959H20.2083C20.562 18.7959 20.9011 18.6554 21.1511 18.4054C21.4012 18.1553 21.5417 17.8162 21.5417 17.4626V13.4626C21.5417 13.1089 21.4012 12.7698 21.1511 12.5198C20.9011 12.2697 20.562 12.1292 20.2083 12.1292H13.5417ZM11.656 11.5769C12.1561 11.0769 12.8344 10.7959 13.5417 10.7959H20.2083C20.9156 10.7959 21.5939 11.0769 22.094 11.5769C22.594 12.077 22.875 12.7553 22.875 13.4626V17.4626C22.875 18.1698 22.594 18.8481 22.094 19.3482C21.5939 19.8483 20.9156 20.1292 20.2083 20.1292H14.4845L12.0131 22.6006C11.8224 22.7913 11.5357 22.8483 11.2865 22.7452C11.0374 22.642 10.875 22.3989 10.875 22.1292V13.4626C10.875 12.7553 11.156 12.077 11.656 11.5769ZM14.2083 14.7959C14.5765 14.7959 14.875 15.0944 14.875 15.4626V15.4692C14.875 15.8374 14.5765 16.1359 14.2083 16.1359C13.8401 16.1359 13.5417 15.8374 13.5417 15.4692V15.4626C13.5417 15.0944 13.8401 14.7959 14.2083 14.7959ZM16.875 14.7959C17.2432 14.7959 17.5417 15.0944 17.5417 15.4626V15.4692C17.5417 15.8374 17.2432 16.1359 16.875 16.1359C16.5068 16.1359 16.2083 15.8374 16.2083 15.4692V15.4626C16.2083 15.0944 16.5068 14.7959 16.875 14.7959ZM19.5417 14.7959C19.9099 14.7959 20.2083 15.0944 20.2083 15.4626V15.4692C20.2083 15.8374 19.9099 16.1359 19.5417 16.1359C19.1735 16.1359 18.875 15.8374 18.875 15.4692V15.4626C18.875 15.0944 19.1735 14.7959 19.5417 14.7959Z" fill="#121212"/>
</svg>
