<svg width="17" height="17" viewBox="0 0 17 17" fill="none" xmlns="http://www.w3.org/2000/svg">
<path fill-rule="evenodd" clip-rule="evenodd" d="M5.02995 4.12923C4.67633 4.12923 4.33719 4.26971 4.08714 4.51976C3.83709 4.7698 3.69661 5.10894 3.69661 5.46257V12.5198L5.22521 10.9912C5.35023 10.8661 5.5198 10.7959 5.69661 10.7959H11.6966C12.0502 10.7959 12.3894 10.6554 12.6394 10.4054C12.8895 10.1553 13.0299 9.81619 13.0299 9.46257V5.46257C13.0299 5.10894 12.8895 4.7698 12.6394 4.51976C12.3894 4.26971 12.0502 4.12923 11.6966 4.12923H5.02995ZM3.14433 3.57695C3.64443 3.07685 4.3227 2.7959 5.02995 2.7959H11.6966C12.4039 2.7959 13.0821 3.07685 13.5822 3.57695C14.0823 4.07704 14.3633 4.75532 14.3633 5.46257V9.46257C14.3633 10.1698 14.0823 10.8481 13.5822 11.3482C13.0821 11.8483 12.4039 12.1292 11.6966 12.1292H5.97276L3.50135 14.6006C3.31069 14.7913 3.02394 14.8483 2.77483 14.7452C2.52571 14.642 2.36328 14.3989 2.36328 14.1292V5.46257C2.36328 4.75532 2.64423 4.07704 3.14433 3.57695ZM5.69661 6.7959C6.0648 6.7959 6.36328 7.09438 6.36328 7.46257V7.46923C6.36328 7.83742 6.0648 8.1359 5.69661 8.1359C5.32842 8.1359 5.02995 7.83742 5.02995 7.46923V7.46257C5.02995 7.09438 5.32842 6.7959 5.69661 6.7959ZM8.36328 6.7959C8.73147 6.7959 9.02995 7.09438 9.02995 7.46257V7.46923C9.02995 7.83742 8.73147 8.1359 8.36328 8.1359C7.99509 8.1359 7.69661 7.83742 7.69661 7.46923V7.46257C7.69661 7.09438 7.99509 6.7959 8.36328 6.7959ZM11.0299 6.7959C11.3981 6.7959 11.6966 7.09438 11.6966 7.46257V7.46923C11.6966 7.83742 11.3981 8.1359 11.0299 8.1359C10.6618 8.1359 10.3633 7.83742 10.3633 7.46923V7.46257C10.3633 7.09438 10.6618 6.7959 11.0299 6.7959Z" fill="#121212"/>
</svg>
