<svg width="33" height="33" viewBox="0 0 33 33" fill="none" xmlns="http://www.w3.org/2000/svg">
<rect x="0.863281" y="1.20898" width="31" height="31" rx="5.5" fill="#E6EDFE"/>
<path fill-rule="evenodd" clip-rule="evenodd" d="M13.0299 12.7093C12.6763 12.7093 12.3372 12.8498 12.0871 13.0998C11.8371 13.3499 11.6966 13.689 11.6966 14.0426V21.0998L13.2252 19.5712C13.3502 19.4462 13.5198 19.376 13.6966 19.376H19.6966C20.0502 19.376 20.3894 19.2355 20.6394 18.9855C20.8895 18.7354 21.0299 18.3963 21.0299 18.0426V14.0426C21.0299 13.689 20.8895 13.3499 20.6394 13.0998C20.3894 12.8498 20.0502 12.7093 19.6966 12.7093H13.0299ZM11.1443 12.157C11.6444 11.6569 12.3227 11.376 13.0299 11.376H19.6966C20.4039 11.376 21.0821 11.6569 21.5822 12.157C22.0823 12.6571 22.3633 13.3354 22.3633 14.0426V18.0426C22.3633 18.7499 22.0823 19.4282 21.5822 19.9283C21.0821 20.4284 20.4039 20.7093 19.6966 20.7093H13.9728L11.5014 23.1807C11.3107 23.3714 11.0239 23.4284 10.7748 23.3252C10.5257 23.222 10.3633 22.979 10.3633 22.7093V14.0426C10.3633 13.3354 10.6442 12.6571 11.1443 12.157ZM13.6966 15.376C14.0648 15.376 14.3633 15.6745 14.3633 16.0426V16.0493C14.3633 16.4175 14.0648 16.716 13.6966 16.716C13.3284 16.716 13.0299 16.4175 13.0299 16.0493V16.0426C13.0299 15.6745 13.3284 15.376 13.6966 15.376ZM16.3633 15.376C16.7315 15.376 17.0299 15.6745 17.0299 16.0426V16.0493C17.0299 16.4175 16.7315 16.716 16.3633 16.716C15.9951 16.716 15.6966 16.4175 15.6966 16.0493V16.0426C15.6966 15.6745 15.9951 15.376 16.3633 15.376ZM19.0299 15.376C19.3981 15.376 19.6966 15.6745 19.6966 16.0426V16.0493C19.6966 16.4175 19.3981 16.716 19.0299 16.716C18.6618 16.716 18.3633 16.4175 18.3633 16.0493V16.0426C18.3633 15.6745 18.6618 15.376 19.0299 15.376Z" fill="#3E63DD"/>
<rect x="0.863281" y="1.20898" width="31" height="31" rx="5.5" stroke="#3E63DD"/>
</svg>
