<svg width="22" height="20" viewBox="0 0 22 20" fill="none" xmlns="http://www.w3.org/2000/svg">
<path d="M18.125 1H3.875C3.17942 1.00198 2.51289 1.27918 2.02103 1.77103C1.52918 2.26289 1.25198 2.92942 1.25 3.625V12.625C1.25198 13.3206 1.52918 13.9871 2.02103 14.479C2.51289 14.9708 3.17942 15.248 3.875 15.25H5.75V19L10.1431 15.3372C10.2106 15.2808 10.2957 15.25 10.3836 15.25H18.125C18.8206 15.248 19.4871 14.9708 19.979 14.479C20.4708 13.9871 20.748 13.3206 20.75 12.625V3.625C20.748 2.92942 20.4708 2.26289 19.979 1.77103C19.4871 1.27918 18.8206 1.00198 18.125 1V1Z" stroke="black" stroke-linejoin="round"/>
</svg>
