<svg width="12" height="12" viewBox="0 0 12 12" fill="none" xmlns="http://www.w3.org/2000/svg">
<path d="M4 2H3C2.44772 2 2 2.44772 2 3V3.5C2 4.05228 2.44772 4.5 3 4.5H4C4.55228 4.5 5 4.05228 5 3.5V3C5 2.44772 4.55228 2 4 2Z" stroke="#2C3E50" stroke-linecap="round" stroke-linejoin="round"/>
<path d="M4 6.5H3C2.44772 6.5 2 6.94772 2 7.5V9C2 9.55228 2.44772 10 3 10H4C4.55228 10 5 9.55228 5 9V7.5C5 6.94772 4.55228 6.5 4 6.5Z" stroke="#2C3E50" stroke-linecap="round" stroke-linejoin="round"/>
<path d="M9 2H8C7.44772 2 7 2.44772 7 3V9C7 9.55229 7.44772 10 8 10H9C9.55228 10 10 9.55229 10 9V3C10 2.44772 9.55228 2 9 2Z" stroke="#2C3E50" stroke-linecap="round" stroke-linejoin="round"/>
</svg>
