<svg width="33" height="33" viewBox="0 0 33 33" fill="none" xmlns="http://www.w3.org/2000/svg">
<rect x="0.363281" y="0.871094" width="32" height="32" rx="4" fill="#E6EDFE"/>
<path fill-rule="evenodd" clip-rule="evenodd" d="M9.65537 10.4516C9.3735 10.7015 9.36328 10.8456 9.36328 10.8711C9.36328 10.8966 9.3735 11.0407 9.65537 11.2906C9.93607 11.5394 10.3993 11.8092 11.0576 12.0561C12.3667 12.547 14.2423 12.8711 16.3633 12.8711C18.4843 12.8711 20.3599 12.547 21.669 12.0561C22.3273 11.8092 22.7905 11.5394 23.0712 11.2906C23.3531 11.0407 23.3633 10.8966 23.3633 10.8711C23.3633 10.8456 23.3531 10.7015 23.0712 10.4516C22.7905 10.2027 22.3273 9.93295 21.669 9.6861C20.3599 9.19518 18.4843 8.87109 16.3633 8.87109C14.2423 8.87109 12.3667 9.19518 11.0576 9.6861C10.3993 9.93295 9.93607 10.2027 9.65537 10.4516ZM23.3633 13.4873C23.0542 13.6509 22.7207 13.7977 22.3713 13.9287C20.785 14.5236 18.6606 14.8711 16.3633 14.8711C14.066 14.8711 11.9416 14.5236 10.3553 13.9287C10.0059 13.7977 9.67239 13.6509 9.36328 13.4873V16.8711C9.36328 16.8898 9.37017 17.0305 9.64339 17.2778C9.91625 17.5248 10.3769 17.8008 11.0576 18.0561C12.4157 18.5654 14.3248 18.8711 16.3633 18.8711C18.4018 18.8711 20.3108 18.5654 21.669 18.0561C22.3497 17.8008 22.8103 17.5248 23.0832 17.2778C23.3564 17.0305 23.3633 16.8898 23.3633 16.8711V13.4873ZM23.3633 19.4869C23.0569 19.6493 22.7242 19.7964 22.3713 19.9287C20.7288 20.5446 18.5683 20.8711 16.3633 20.8711C14.1583 20.8711 11.9977 20.5446 10.3553 19.9287C10.0024 19.7964 9.66962 19.6493 9.36328 19.4869V22.8711C9.36328 22.8898 9.37017 23.0305 9.64339 23.2778C9.91625 23.5248 10.3769 23.8008 11.0576 24.0561C12.4157 24.5654 14.3248 24.8711 16.3633 24.8711C18.4018 24.8711 20.3108 24.5654 21.669 24.0561C22.3497 23.8008 22.8103 23.5248 23.0832 23.2778C23.3564 23.0305 23.3633 22.8898 23.3633 22.8711V19.4869ZM25.3633 22.8711C25.3633 23.648 24.9487 24.2867 24.4255 24.7605C23.9018 25.2345 23.1909 25.6214 22.3713 25.9287C20.7288 26.5446 18.5683 26.8711 16.3633 26.8711C14.1583 26.8711 11.9977 26.5446 10.3553 25.9287C9.53566 25.6214 8.82474 25.2345 8.3011 24.7605C7.77782 24.2867 7.36328 23.648 7.36328 22.8711V10.8711C7.36328 10.0682 7.80077 9.42303 8.32855 8.9551C8.8575 8.48614 9.56584 8.10949 10.3553 7.81344C11.9416 7.21858 14.066 6.87109 16.3633 6.87109C18.6606 6.87109 20.785 7.21858 22.3713 7.81344C23.1607 8.10949 23.8691 8.48614 24.398 8.9551C24.9258 9.42303 25.3633 10.0682 25.3633 10.8711V22.8711Z" fill="#3E63DD"/>
</svg>
