<svg width="25" height="25" viewBox="0 0 25 25" fill="none" xmlns="http://www.w3.org/2000/svg">
<path fill-rule="evenodd" clip-rule="evenodd" d="M5.65537 5.62935C5.3735 5.87925 5.36328 6.02329 5.36328 6.04883C5.36328 6.07436 5.3735 6.2184 5.65537 6.4683C5.93607 6.71717 6.3993 6.98697 7.05755 7.23382C8.36668 7.72474 10.2423 8.04883 12.3633 8.04883C14.4843 8.04883 16.3599 7.72474 17.669 7.23382C18.3273 6.98697 18.7905 6.71717 19.0712 6.4683C19.3531 6.2184 19.3633 6.07436 19.3633 6.04883C19.3633 6.02329 19.3531 5.87925 19.0712 5.62935C18.7905 5.38048 18.3273 5.11068 17.669 4.86384C16.3599 4.37291 14.4843 4.04883 12.3633 4.04883C10.2423 4.04883 8.36668 4.37291 7.05755 4.86384C6.3993 5.11068 5.93607 5.38048 5.65537 5.62935ZM19.3633 8.66502C19.0542 8.82864 18.7207 8.97545 18.3713 9.10648C16.785 9.70134 14.6606 10.0488 12.3633 10.0488C10.066 10.0488 7.94161 9.70134 6.3553 9.10648C6.0059 8.97545 5.67239 8.82864 5.36328 8.66502V12.0488C5.36328 12.0675 5.37017 12.2082 5.64339 12.4556C5.91625 12.7026 6.37691 12.9786 7.05755 13.2338C8.41572 13.7431 10.3248 14.0488 12.3633 14.0488C14.4018 14.0488 16.3108 13.7431 17.669 13.2338C18.3497 12.9786 18.8103 12.7026 19.0832 12.4556C19.3564 12.2082 19.3633 12.0675 19.3633 12.0488V8.66502ZM19.3633 14.6646C19.0569 14.8271 18.7242 14.9741 18.3713 15.1065C16.7288 15.7224 14.5683 16.0488 12.3633 16.0488C10.1583 16.0488 7.99772 15.7224 6.3553 15.1065C6.00238 14.9741 5.66962 14.8271 5.36328 14.6646V18.0488C5.36328 18.0675 5.37017 18.2082 5.64339 18.4556C5.91625 18.7026 6.37691 18.9786 7.05755 19.2338C8.41572 19.7431 10.3248 20.0488 12.3633 20.0488C14.4018 20.0488 16.3108 19.7431 17.669 19.2338C18.3497 18.9786 18.8103 18.7026 19.0832 18.4556C19.3564 18.2082 19.3633 18.0675 19.3633 18.0488V14.6646ZM21.3633 18.0488C21.3633 18.8258 20.9487 19.4645 20.4255 19.9382C19.9018 20.4123 19.1909 20.7991 18.3713 21.1065C16.7288 21.7224 14.5683 22.0488 12.3633 22.0488C10.1583 22.0488 7.99772 21.7224 6.3553 21.1065C5.53566 20.7991 4.82474 20.4123 4.3011 19.9382C3.77782 19.4645 3.36328 18.8258 3.36328 18.0488V6.04883C3.36328 5.24593 3.80077 4.60076 4.32855 4.13283C4.8575 3.66387 5.56584 3.28723 6.3553 2.99118C7.94161 2.39631 10.066 2.04883 12.3633 2.04883C14.6606 2.04883 16.785 2.39631 18.3713 2.99118C19.1607 3.28723 19.8691 3.66387 20.398 4.13283C20.9258 4.60076 21.3633 5.24593 21.3633 6.04883V18.0488Z" fill="#C1C8CD"/>
</svg>
