<svg width="33" height="33" viewBox="0 0 33 33" fill="none" xmlns="http://www.w3.org/2000/svg">
<path fill-rule="evenodd" clip-rule="evenodd" d="M9.65537 9.80123C9.3735 10.0511 9.36328 10.1952 9.36328 10.2207C9.36328 10.2462 9.3735 10.3903 9.65537 10.6402C9.93607 10.889 10.3993 11.1588 11.0576 11.4057C12.3667 11.8966 14.2423 12.2207 16.3633 12.2207C18.4843 12.2207 20.3599 11.8966 21.669 11.4057C22.3273 11.1588 22.7905 10.889 23.0712 10.6402C23.3531 10.3903 23.3633 10.2462 23.3633 10.2207C23.3633 10.1952 23.3531 10.0511 23.0712 9.80123C22.7905 9.55236 22.3273 9.28256 21.669 9.03571C20.3599 8.54479 18.4843 8.2207 16.3633 8.2207C14.2423 8.2207 12.3667 8.54479 11.0576 9.03571C10.3993 9.28256 9.93607 9.55236 9.65537 9.80123ZM23.3633 12.8369C23.0542 13.0005 22.7207 13.1473 22.3713 13.2784C20.785 13.8732 18.6606 14.2207 16.3633 14.2207C14.066 14.2207 11.9416 13.8732 10.3553 13.2784C10.0059 13.1473 9.67239 13.0005 9.36328 12.8369V16.2207C9.36328 16.2394 9.37017 16.3801 9.64339 16.6274C9.91625 16.8745 10.3769 17.1505 11.0576 17.4057C12.4157 17.915 14.3248 18.2207 16.3633 18.2207C18.4018 18.2207 20.3108 17.915 21.669 17.4057C22.3497 17.1505 22.8103 16.8745 23.0832 16.6274C23.3564 16.3801 23.3633 16.2394 23.3633 16.2207V12.8369ZM23.3633 18.8365C23.0569 18.9989 22.7242 19.146 22.3713 19.2784C20.7288 19.8943 18.5683 20.2207 16.3633 20.2207C14.1583 20.2207 11.9977 19.8943 10.3553 19.2784C10.0024 19.146 9.66962 18.9989 9.36328 18.8365V22.2207C9.36328 22.2394 9.37017 22.3801 9.64339 22.6274C9.91625 22.8745 10.3769 23.1505 11.0576 23.4057C12.4157 23.915 14.3248 24.2207 16.3633 24.2207C18.4018 24.2207 20.3108 23.915 21.669 23.4057C22.3497 23.1505 22.8103 22.8745 23.0832 22.6274C23.3564 22.3801 23.3633 22.2394 23.3633 22.2207V18.8365ZM25.3633 22.2207C25.3633 22.9977 24.9487 23.6363 24.4255 24.1101C23.9018 24.5841 23.1909 24.971 22.3713 25.2784C20.7288 25.8943 18.5683 26.2207 16.3633 26.2207C14.1583 26.2207 11.9977 25.8943 10.3553 25.2784C9.53566 24.971 8.82474 24.5841 8.3011 24.1101C7.77782 23.6363 7.36328 22.9977 7.36328 22.2207V10.2207C7.36328 9.41781 7.80077 8.77264 8.32855 8.30471C8.8575 7.83575 9.56584 7.4591 10.3553 7.16305C11.9416 6.56819 14.066 6.2207 16.3633 6.2207C18.6606 6.2207 20.785 6.56819 22.3713 7.16305C23.1607 7.4591 23.8691 7.83575 24.398 8.30471C24.9258 8.77264 25.3633 9.41781 25.3633 10.2207V22.2207Z" fill="#C1C8CD"/>
</svg>
