<svg width="33" height="33" viewBox="0 0 33 33" fill="none" xmlns="http://www.w3.org/2000/svg">
<rect x="0.363281" y="0.128906" width="32" height="32" rx="4" fill="#E6EDFE"/>
<path fill-rule="evenodd" clip-rule="evenodd" d="M16.3633 10.1289C15.8328 10.1289 15.3241 10.3396 14.9491 10.7147C14.574 11.0898 14.3633 11.5985 14.3633 12.1289H18.3633C18.3633 11.5985 18.1526 11.0898 17.7775 10.7147C17.4024 10.3396 16.8937 10.1289 16.3633 10.1289ZM12.9304 14.1289C12.6003 14.7556 12.4062 15.447 12.3633 16.1577V19.1289C12.3633 20.1898 12.7847 21.2072 13.5349 21.9573C14.0444 22.4669 14.6773 22.8247 15.3633 23.0019V18.1289C15.3633 17.5766 15.811 17.1289 16.3633 17.1289C16.9156 17.1289 17.3633 17.5766 17.3633 18.1289V23.0019C18.0493 22.8247 18.6822 22.4669 19.1917 21.9573C19.9419 21.2072 20.3633 20.1898 20.3633 19.1289V16.1577C20.3203 15.447 20.1263 14.7556 19.7961 14.1289H12.9304ZM21.8879 13.9004C22.1596 14.592 22.3205 15.3255 22.3618 16.0739C22.3628 16.0922 22.3633 16.1105 22.3633 16.1289H25.3633C25.9156 16.1289 26.3633 16.5766 26.3633 17.1289C26.3633 17.6812 25.9156 18.1289 25.3633 18.1289H22.3633V19.1289C22.3633 19.6477 22.2961 20.1595 22.1666 20.6528L24.8759 22.2703C25.3501 22.5534 25.505 23.1673 25.2219 23.6415C24.9388 24.1157 24.3249 24.2706 23.8507 23.9875L21.3361 22.4863C21.123 22.8018 20.879 23.0985 20.6059 23.3715C19.4807 24.4968 17.9546 25.1289 16.3633 25.1289C14.772 25.1289 13.2459 24.4968 12.1206 23.3715C11.8476 23.0985 11.6035 22.8018 11.3905 22.4863L8.87589 23.9875C8.40169 24.2706 7.78777 24.1157 7.50466 23.6415C7.22155 23.1673 7.37647 22.5534 7.85067 22.2703L10.56 20.6528C10.4305 20.1595 10.3633 19.6477 10.3633 19.1289V18.1289H7.36328C6.811 18.1289 6.36328 17.6812 6.36328 17.1289C6.36328 16.5766 6.811 16.1289 7.36328 16.1289H10.3633C10.3633 16.1105 10.3638 16.0922 10.3648 16.0739C10.4061 15.3255 10.567 14.592 10.8386 13.9004L7.82423 11.9712C7.35905 11.6735 7.2233 11.055 7.52101 10.5899C7.81872 10.1247 8.43716 9.98892 8.90233 10.2866L11.933 12.2262C12.0654 12.1631 12.2121 12.1289 12.3633 12.1289C12.3633 11.068 12.7847 10.0506 13.5349 9.30048C14.285 8.55033 15.3024 8.12891 16.3633 8.12891C17.4241 8.12891 18.4416 8.55033 19.1917 9.30048C19.9419 10.0506 20.3633 11.068 20.3633 12.1289C20.5145 12.1289 20.6611 12.1631 20.7936 12.2262L23.8242 10.2866C24.2894 9.98892 24.9078 10.1247 25.2056 10.5899C25.5033 11.055 25.3675 11.6735 24.9023 11.9712L21.8879 13.9004Z" fill="#3E63DD"/>
</svg>
