<svg width="25" height="25" viewBox="0 0 25 25" fill="none" xmlns="http://www.w3.org/2000/svg">
<path fill-rule="evenodd" clip-rule="evenodd" d="M12.3633 6.04883C11.8328 6.04883 11.3241 6.25954 10.9491 6.63461C10.574 7.00969 10.3633 7.51839 10.3633 8.04883H14.3633C14.3633 7.51839 14.1526 7.00969 13.7775 6.63461C13.4024 6.25954 12.8937 6.04883 12.3633 6.04883ZM8.93042 10.0488C8.60031 10.6755 8.40621 11.3669 8.36328 12.0776V15.0488C8.36328 16.1097 8.78471 17.1271 9.53485 17.8773C10.0444 18.3868 10.6773 18.7447 11.3633 18.9218V14.0488C11.3633 13.4965 11.811 13.0488 12.3633 13.0488C12.9156 13.0488 13.3633 13.4965 13.3633 14.0488V18.9218C14.0493 18.7447 14.6822 18.3868 15.1917 17.8773C15.9419 17.1271 16.3633 16.1097 16.3633 15.0488V12.0776C16.3203 11.3669 16.1263 10.6755 15.7961 10.0488H8.93042ZM17.8879 9.82031C18.1596 10.512 18.3205 11.2455 18.3618 11.9938C18.3628 12.0121 18.3633 12.0305 18.3633 12.0488H21.3633C21.9156 12.0488 22.3633 12.4965 22.3633 13.0488C22.3633 13.6011 21.9156 14.0488 21.3633 14.0488H18.3633V15.0488C18.3633 15.5676 18.2961 16.0794 18.1666 16.5727L20.8759 18.1902C21.3501 18.4733 21.505 19.0872 21.2219 19.5614C20.9388 20.0356 20.3249 20.1906 19.8507 19.9074L17.3361 18.4062C17.123 18.7217 16.879 19.0184 16.6059 19.2915C15.4807 20.4167 13.9546 21.0488 12.3633 21.0488C10.772 21.0488 9.24586 20.4167 8.12064 19.2915C7.84756 19.0184 7.60352 18.7217 7.39051 18.4062L4.87589 19.9074C4.40169 20.1906 3.78777 20.0356 3.50466 19.5614C3.22155 19.0872 3.37647 18.4733 3.85067 18.1902L6.56 16.5727C6.43046 16.0794 6.36328 15.5676 6.36328 15.0488V14.0488H3.36328C2.811 14.0488 2.36328 13.6011 2.36328 13.0488C2.36328 12.4965 2.811 12.0488 3.36328 12.0488H6.36328C6.36328 12.0305 6.36379 12.0121 6.3648 11.9938C6.40605 11.2455 6.567 10.512 6.83863 9.82031L3.82423 7.8911C3.35905 7.59339 3.2233 6.97495 3.52101 6.50977C3.81872 6.0446 4.43716 5.90885 4.90233 6.20656L7.93296 8.14615C8.06542 8.083 8.21209 8.04883 8.36328 8.04883C8.36328 6.98796 8.78471 5.97055 9.53485 5.2204C10.285 4.47026 11.3024 4.04883 12.3633 4.04883C13.4241 4.04883 14.4416 4.47026 15.1917 5.2204C15.9419 5.97055 16.3633 6.98796 16.3633 8.04883C16.5145 8.04883 16.6611 8.083 16.7936 8.14615L19.8242 6.20656C20.2894 5.90885 20.9078 6.0446 21.2056 6.50977C21.5033 6.97495 21.3675 7.59339 20.9023 7.8911L17.8879 9.82031Z" fill="#C1C8CD"/>
</svg>
