<?xml version="1.0" encoding="iso-8859-1"?>
<!-- Generator: Adobe Illustrator 19.0.0, SVG Export Plug-In . SVG Version: 6.00 Build 0)  -->
<svg version="1.1" id="Layer_1" xmlns="http://www.w3.org/2000/svg" xmlns:xlink="http://www.w3.org/1999/xlink" x="0px" y="0px"
	 viewBox="0 0 480.002 480.002" style="enable-background:new 0 0 480.002 480.002;" xml:space="preserve">
<g>
	<g>
		<g>
			<path d="M454.937,253.555h-46.129c-0.737-24.46-4.62-48.219-11.407-70.503h46.216c5.522,0,10-4.478,10-10V93.87
				c0-5.522-4.478-10-10-10c-5.522,0-10,4.478-10,10v69.183h-43.249c-7.879-19.665-18.15-37.878-30.643-54.015
				c-12.418-16.041-26.445-29.301-41.623-39.564l41.302-53.352c3.381-4.367,2.581-10.648-1.786-14.028
				c-4.365-3.38-10.647-2.582-14.028,1.786l-42.882,55.394c-19.67-9.842-40.834-14.994-62.653-14.994
				c-19.866,0-39.188,4.275-57.333,12.466L139.78,3.878c-3.382-4.367-9.661-5.165-14.029-1.783
				c-4.366,3.382-5.165,9.662-1.783,14.029l38.879,50.204c-17.042,10.643-32.736,24.978-46.461,42.711
				c-12.488,16.136-22.758,34.348-30.635,54.014H46.386V93.87c0-5.522-4.478-10-10-10c-5.523,0-10,4.478-10,10v79.183
				c0,5.522,4.477,10,10,10H78.72c-6.784,22.284-10.666,46.042-11.403,70.503H25.065c-5.522,0-10,4.477-10,10
				c0,5.522,4.477,10,10,10h42.344c0.984,24.499,5.134,48.26,12.191,70.502H36.386c-5.523,0-10,4.478-10,10v79.183
				c0,5.522,4.477,10,10,10c5.522,0,10-4.478,10-10v-69.183h40.509c7.718,18.586,17.604,35.822,29.491,51.182
				c32.321,41.763,75.531,64.762,121.669,64.762c46.133,0,89.343-22.999,121.671-64.761c11.891-15.36,21.779-32.597,29.498-51.183
				h44.393v69.183c0,5.522,4.478,10,10,10c5.522,0,10-4.478,10-10v-79.183c0-5.522-4.478-10-10-10H396.52
				c7.06-22.242,11.21-46.003,12.195-70.502h46.222c5.523,0,10-4.478,10-10C464.937,258.033,460.46,253.555,454.937,253.555z
				 M238.055,64.279c32.317,0,62.292,13.396,86.871,36.167c-58.356,25.081-103.911,23.195-132.054,17.058
				c-20.526-4.478-35.005-11.78-42.527-16.266C175.079,77.985,205.368,64.279,238.055,64.279z M230.001,459.717
				C153.423,454.41,91.808,373.87,87.432,273.555h142.569V459.717z M250.001,459.382V273.555h138.691
				C384.39,372.165,324.774,451.665,250.001,459.382z M87.325,253.555c0.875-26.747,5.817-52.131,14.036-75.121
				c0.762-1.189,1.274-2.549,1.476-4.01c8.366-22.088,19.781-41.852,33.529-58.327c7.627,4.987,24.998,14.808,50.975,20.665
				c11.776,2.655,26.268,4.662,43.177,4.662c28.859,0,64.756-5.846,106.179-24.283c0.957-0.426,1.813-0.984,2.558-1.643
				c28.994,34.435,47.759,83.41,49.546,138.057H87.325z"/>
			<path d="M170.013,148.917c-23.06,0-41.819,18.761-41.819,41.82c0,23.051,18.76,41.805,41.819,41.805
				c23.051,0,41.805-18.754,41.805-41.805C211.817,167.678,193.063,148.917,170.013,148.917z M170.013,212.542
				c-12.031,0-21.819-9.781-21.819-21.805c0-12.032,9.788-21.82,21.819-21.82c12.023,0,21.805,9.788,21.805,21.82
				C191.817,202.761,182.036,212.542,170.013,212.542z"/>
			<path d="M305.752,148.917c-23.06,0-41.819,18.761-41.819,41.82c-0.001,23.051,18.759,41.805,41.819,41.805
				s41.819-18.754,41.819-41.805C347.571,167.678,328.811,148.917,305.752,148.917z M305.752,212.542
				c-12.031,0-21.819-9.781-21.819-21.805c-0.001-12.032,9.788-21.82,21.819-21.82s21.819,9.788,21.819,21.82
				C327.571,202.76,317.783,212.542,305.752,212.542z"/>
		</g>
	</g>
</g>
<g>
</g>
<g>
</g>
<g>
</g>
<g>
</g>
<g>
</g>
<g>
</g>
<g>
</g>
<g>
</g>
<g>
</g>
<g>
</g>
<g>
</g>
<g>
</g>
<g>
</g>
<g>
</g>
<g>
</g>
</svg>
