<svg width="33" height="33" viewBox="0 0 33 33" fill="none" xmlns="http://www.w3.org/2000/svg">
<path fill-rule="evenodd" clip-rule="evenodd" d="M16.3633 10.7383C15.8328 10.7383 15.3241 10.949 14.9491 11.3241C14.574 11.6991 14.3633 12.2078 14.3633 12.7383H18.3633C18.3633 12.2078 18.1526 11.6991 17.7775 11.3241C17.4024 10.949 16.8937 10.7383 16.3633 10.7383ZM12.9304 14.7383C12.6003 15.3649 12.4062 16.0564 12.3633 16.7671V19.7383C12.3633 20.7991 12.7847 21.8166 13.5349 22.5667C14.0444 23.0763 14.6773 23.4341 15.3633 23.6113V18.7383C15.3633 18.186 15.811 17.7383 16.3633 17.7383C16.9156 17.7383 17.3633 18.186 17.3633 18.7383V23.6113C18.0493 23.4341 18.6822 23.0763 19.1917 22.5667C19.9419 21.8166 20.3633 20.7991 20.3633 19.7383V16.7671C20.3203 16.0564 20.1263 15.3649 19.7961 14.7383H12.9304ZM21.8879 14.5098C22.1596 15.2014 22.3205 15.9349 22.3618 16.6832C22.3628 16.7016 22.3633 16.7199 22.3633 16.7383H25.3633C25.9156 16.7383 26.3633 17.186 26.3633 17.7383C26.3633 18.2906 25.9156 18.7383 25.3633 18.7383H22.3633V19.7383C22.3633 20.257 22.2961 20.7689 22.1666 21.2621L24.8759 22.8797C25.3501 23.1628 25.505 23.7767 25.2219 24.2509C24.9388 24.7251 24.3249 24.88 23.8507 24.5969L21.3361 23.0956C21.123 23.4111 20.879 23.7078 20.6059 23.9809C19.4807 25.1061 17.9546 25.7383 16.3633 25.7383C14.772 25.7383 13.2459 25.1061 12.1206 23.9809C11.8476 23.7078 11.6035 23.4111 11.3905 23.0956L8.87589 24.5969C8.40169 24.88 7.78777 24.7251 7.50466 24.2509C7.22155 23.7767 7.37647 23.1628 7.85067 22.8797L10.56 21.2621C10.4305 20.7689 10.3633 20.257 10.3633 19.7383V18.7383H7.36328C6.811 18.7383 6.36328 18.2906 6.36328 17.7383C6.36328 17.186 6.811 16.7383 7.36328 16.7383H10.3633C10.3633 16.7199 10.3638 16.7016 10.3648 16.6832C10.4061 15.9349 10.567 15.2014 10.8386 14.5098L7.82423 12.5806C7.35905 12.2828 7.2233 11.6644 7.52101 11.1992C7.81872 10.7341 8.43716 10.5983 8.90233 10.896L11.933 12.8356C12.0654 12.7724 12.2121 12.7383 12.3633 12.7383C12.3633 11.6774 12.7847 10.66 13.5349 9.90985C14.285 9.15971 15.3024 8.73828 16.3633 8.73828C17.4241 8.73828 18.4416 9.15971 19.1917 9.90985C19.9419 10.66 20.3633 11.6774 20.3633 12.7383C20.5145 12.7383 20.6611 12.7724 20.7936 12.8356L23.8242 10.896C24.2894 10.5983 24.9078 10.7341 25.2056 11.1992C25.5033 11.6644 25.3675 12.2828 24.9023 12.5806L21.8879 14.5098Z" fill="#C1C8CD"/>
</svg>
