<svg xmlns="http://www.w3.org/2000/svg" width="16" height="16" viewBox="0 0 16 16" fill="none">
  <path fill-rule="evenodd" clip-rule="evenodd" d="M1.36621 3.33333V11.5C1.36621 12.6966 2.35306 13.6667 3.54967 13.6667C4.72788 13.6667 5.69954 12.7115 5.69954 11.5333C5.69954 11.2388 5.93833 11 6.23288 11H12.0329V3.33333C12.0329 2.22876 11.1374 1.33333 10.0329 1.33333H3.36621C2.26164 1.33333 1.36621 2.22876 1.36621 3.33333ZM9.02882 4.95705C9.23663 5.13889 9.25769 5.45477 9.07585 5.66259L7.16258 7.84918C6.75145 8.31904 6.04329 8.38196 5.55576 7.99194L4.38722 7.0571C4.17158 6.8846 4.13662 6.56995 4.30913 6.35432C4.48163 6.13869 4.79628 6.10373 5.01191 6.27623L6.18046 7.21107C6.2501 7.26679 6.35127 7.2578 6.41 7.19068L8.32327 5.00408C8.50512 4.79626 8.821 4.77521 9.02882 4.95705Z" fill="#C1C8CD"/>
  <path d="M14.6173 12.6599C14.3236 13.8135 13.2779 14.6667 12.0329 14.6667H4.03288C5.27787 14.6667 6.32358 13.8135 6.61726 12.6599C6.7081 12.3031 6.99802 12 7.36621 12H14.0329C14.4011 12 14.7081 12.3031 14.6173 12.6599Z" fill="#C1C8CD"/>
</svg>