<svg xmlns="http://www.w3.org/2000/svg" width="16" height="16" viewBox="0 0 16 16" fill="none">
  <path fill-rule="evenodd" clip-rule="evenodd" d="M1.3335 3.33334V11.5C1.3335 12.6966 2.32034 13.6667 3.51696 13.6667C4.69517 13.6667 5.66683 12.7115 5.66683 11.5333C5.66683 11.2388 5.90561 11 6.20016 11H12.0002V3.33334C12.0002 2.22877 11.1047 1.33334 10.0002 1.33334H3.3335C2.22893 1.33334 1.3335 2.22877 1.3335 3.33334ZM7.72751 8.43442C7.92277 8.62969 8.23935 8.62969 8.43461 8.43442C8.62988 8.23916 8.62988 7.92258 8.43461 7.72732L7.37394 6.66665L8.43459 5.606C8.62985 5.41074 8.62985 5.09416 8.43458 4.8989C8.23932 4.70363 7.92274 4.70363 7.72748 4.8989L6.66684 5.95954L5.60619 4.89889C5.41092 4.70363 5.09434 4.70363 4.89908 4.89889C4.70382 5.09415 4.70382 5.41074 4.89908 5.606L5.95973 6.66665L4.89905 7.72732C4.70379 7.92259 4.70379 8.23917 4.89905 8.43443C5.09431 8.62969 5.4109 8.62969 5.60616 8.43443L6.66684 7.37375L7.72751 8.43442Z" fill="#C1C8CD"/>
  <path d="M14.5845 12.6599C14.2909 13.8135 13.2452 14.6667 12.0002 14.6667H4.00016C5.24515 14.6667 6.29087 13.8135 6.58454 12.6599C6.67538 12.3031 6.96531 12 7.3335 12H14.0002C14.3684 12 14.6754 12.3031 14.5845 12.6599Z" fill="#C1C8CD"/>
</svg>