<svg width="33" height="33" viewBox="0 0 33 33" fill="none" xmlns="http://www.w3.org/2000/svg">
<rect x="0.363281" y="0.738281" width="32" height="32" rx="4" fill="#E6EDFE"/>
<path fill-rule="evenodd" clip-rule="evenodd" d="M9.66177 10.0257C9.93805 9.7537 10.3466 9.66592 10.7102 9.80042L22.4972 14.1604C22.5151 14.167 22.5328 14.1742 22.5503 14.1818C22.7905 14.2866 22.9952 14.4589 23.1395 14.6777C23.2838 14.8965 23.3615 15.1525 23.3633 15.4146L23.3634 15.428C23.3616 15.6901 23.2838 15.9461 23.1395 16.1649C22.9952 16.3837 22.7905 16.556 22.5503 16.6608L22.5348 16.6674L18.1104 18.5104L16.0893 22.946L16.08 22.9657C15.9677 23.1985 15.7917 23.3947 15.5724 23.5315C15.3547 23.6672 15.1032 23.7389 14.8468 23.7383C14.5904 23.7386 14.339 23.6666 14.1216 23.5306C13.9024 23.3936 13.7267 23.1972 13.6149 22.9642C13.5991 22.9314 13.5852 22.8978 13.5731 22.8635L9.42009 11.0705C9.29131 10.7048 9.3855 10.2976 9.66177 10.0257ZM14.8468 23.7383C14.8448 23.7383 14.8429 23.7383 14.8409 23.7383L14.8473 22.7383L14.8527 23.7383C14.8507 23.7383 14.8487 23.7383 14.8468 23.7383ZM12.014 12.4151L14.9243 20.6793L16.4533 17.3237C16.558 17.0939 16.7457 16.9123 16.9788 16.8152L20.2385 15.4574L12.014 12.4151Z" fill="#3E63DD"/>
<path fill-rule="evenodd" clip-rule="evenodd" d="M17.1562 17.5312C17.5467 17.1407 18.1799 17.1407 18.5704 17.5312L23.0704 22.0312C23.4609 22.4217 23.4609 23.0549 23.0704 23.4454C22.6799 23.8359 22.0467 23.8359 21.6562 23.4454L17.1562 18.9454C16.7657 18.5549 16.7657 17.9217 17.1562 17.5312Z" fill="#3E63DD"/>
</svg>
