<svg width="25" height="25" viewBox="0 0 25 25" fill="none" xmlns="http://www.w3.org/2000/svg">
<path fill-rule="evenodd" clip-rule="evenodd" d="M5.66177 5.33622C5.93805 5.06425 6.34663 4.97647 6.71024 5.11096L18.4972 9.47096C18.5151 9.47758 18.5328 9.4847 18.5503 9.49233C18.7905 9.59717 18.9952 9.76945 19.1395 9.98827C19.2838 10.2071 19.3615 10.4631 19.3633 10.7252L19.3634 10.7385C19.3616 11.0006 19.2838 11.2566 19.1395 11.4754C18.9952 11.6943 18.7905 11.8665 18.5503 11.9714L18.5348 11.978L14.1104 13.8209L12.0893 18.2565L12.08 18.2763C11.9677 18.5091 11.7917 18.7053 11.5724 18.842C11.3547 18.9777 11.1032 19.0494 10.8468 19.0489C10.5904 19.0491 10.339 18.9772 10.1216 18.8412C9.90245 18.7041 9.72673 18.5077 9.61485 18.2747C9.59911 18.2419 9.58517 18.2083 9.57309 18.174L5.42009 6.38102C5.29131 6.01535 5.3855 5.60819 5.66177 5.33622ZM10.8468 19.0489C10.8448 19.0489 10.8429 19.0488 10.8409 19.0488L10.8473 18.0489L10.8527 19.0488C10.8507 19.0489 10.8487 19.0489 10.8468 19.0489ZM8.01401 7.72567L10.9243 15.9898L12.4533 12.6342C12.558 12.4045 12.7457 12.2228 12.9788 12.1257L16.2385 10.7679L8.01401 7.72567Z" fill="#C1C8CD"/>
<path fill-rule="evenodd" clip-rule="evenodd" d="M13.1562 12.8417C13.5467 12.4512 14.1799 12.4512 14.5704 12.8417L19.0704 17.3417C19.4609 17.7323 19.4609 18.3654 19.0704 18.756C18.6799 19.1465 18.0467 19.1465 17.6562 18.756L13.1562 14.256C12.7657 13.8654 12.7657 13.2323 13.1562 12.8417Z" fill="#C1C8CD"/>
</svg>
