<svg width="33" height="33" viewBox="0 0 33 33" fill="none" xmlns="http://www.w3.org/2000/svg">
<path fill-rule="evenodd" clip-rule="evenodd" d="M9.66177 9.5081C9.93805 9.23612 10.3466 9.14834 10.7102 9.28284L22.4972 13.6428C22.5151 13.6495 22.5328 13.6566 22.5503 13.6642C22.7905 13.769 22.9952 13.9413 23.1395 14.1601C23.2838 14.379 23.3615 14.6349 23.3633 14.8971L23.3634 14.9104C23.3616 15.1725 23.2838 15.4285 23.1395 15.6473C22.9952 15.8661 22.7905 16.0384 22.5503 16.1433L22.5348 16.1498L18.1104 17.9928L16.0893 22.4284L16.08 22.4481C15.9677 22.6809 15.7917 22.8771 15.5724 23.0139C15.3547 23.1496 15.1032 23.2213 14.8468 23.2207C14.5904 23.221 14.339 23.149 14.1216 23.0131C13.9024 22.876 13.7267 22.6796 13.6149 22.4466C13.5991 22.4138 13.5852 22.3802 13.5731 22.3459L9.42009 10.5529C9.29131 10.1872 9.3855 9.78007 9.66177 9.5081ZM14.8468 23.2207C14.8448 23.2207 14.8429 23.2207 14.8409 23.2207L14.8473 22.2207L14.8527 23.2207C14.8507 23.2207 14.8487 23.2207 14.8468 23.2207ZM12.014 11.8975L14.9243 20.1617L16.4533 16.8061C16.558 16.5763 16.7457 16.3947 16.9788 16.2976L20.2385 14.9398L12.014 11.8975Z" fill="#C1C8CD"/>
<path fill-rule="evenodd" clip-rule="evenodd" d="M17.1562 17.0136C17.5467 16.6231 18.1799 16.6231 18.5704 17.0136L23.0704 21.5136C23.4609 21.9041 23.4609 22.5373 23.0704 22.9278C22.6799 23.3184 22.0467 23.3184 21.6562 22.9278L17.1562 18.4278C16.7657 18.0373 16.7657 17.4041 17.1562 17.0136Z" fill="#C1C8CD"/>
</svg>
