<svg width="25" height="25" viewBox="0 0 25 25" fill="none" xmlns="http://www.w3.org/2000/svg">
<path fill-rule="evenodd" clip-rule="evenodd" d="M7.36328 4.04883C7.09806 4.04883 6.84371 4.15418 6.65617 4.34172C6.46864 4.52926 6.36328 4.78361 6.36328 5.04883V19.0488C6.36328 19.314 6.46864 19.5684 6.65617 19.7559C6.84371 19.9435 7.09807 20.0488 7.36328 20.0488H17.3633C17.6285 20.0488 17.8829 19.9435 18.0704 19.7559C18.2579 19.5684 18.3633 19.314 18.3633 19.0488V9.04883H15.3633C14.8328 9.04883 14.3241 8.83811 13.9491 8.46304C13.574 8.08797 13.3633 7.57926 13.3633 7.04883V4.04883H7.36328ZM15.3633 5.46304L16.9491 7.04883H15.3633V5.46304ZM5.24196 2.92751C5.80457 2.3649 6.56763 2.04883 7.36328 2.04883H14.3633C14.6285 2.04883 14.8829 2.15418 15.0704 2.34172L20.0704 7.34172C20.2579 7.52926 20.3633 7.78361 20.3633 8.04883V19.0488C20.3633 19.8445 20.0472 20.6075 19.4846 21.1701C18.922 21.7328 18.1589 22.0488 17.3633 22.0488H7.36328C6.56763 22.0488 5.80457 21.7328 5.24196 21.1701C4.67935 20.6075 4.36328 19.8445 4.36328 19.0488V5.04883C4.36328 4.25318 4.67935 3.49012 5.24196 2.92751ZM8.36328 13.0488C8.36328 12.4965 8.811 12.0488 9.36328 12.0488H15.3633C15.9156 12.0488 16.3633 12.4965 16.3633 13.0488C16.3633 13.6011 15.9156 14.0488 15.3633 14.0488H9.36328C8.811 14.0488 8.36328 13.6011 8.36328 13.0488ZM8.36328 17.0488C8.36328 16.4965 8.811 16.0488 9.36328 16.0488H15.3633C15.9156 16.0488 16.3633 16.4965 16.3633 17.0488C16.3633 17.6011 15.9156 18.0488 15.3633 18.0488H9.36328C8.811 18.0488 8.36328 17.6011 8.36328 17.0488Z" fill="#C1C8CD"/>
</svg>
