<svg width="33" height="33" viewBox="0 0 33 33" fill="none" xmlns="http://www.w3.org/2000/svg">
<rect x="0.363281" y="0.220703" width="32" height="32" rx="4" fill="#E6EDFE"/>
<path fill-rule="evenodd" clip-rule="evenodd" d="M11.3633 8.2207C11.0981 8.2207 10.8437 8.32606 10.6562 8.5136C10.4686 8.70113 10.3633 8.95549 10.3633 9.2207V23.2207C10.3633 23.4859 10.4686 23.7403 10.6562 23.9278C10.8437 24.1153 11.0981 24.2207 11.3633 24.2207H21.3633C21.6285 24.2207 21.8829 24.1153 22.0704 23.9278C22.2579 23.7403 22.3633 23.4859 22.3633 23.2207V13.2207H19.3633C18.8328 13.2207 18.3241 13.01 17.9491 12.6349C17.574 12.2598 17.3633 11.7511 17.3633 11.2207V8.2207H11.3633ZM19.3633 9.63492L20.9491 11.2207H19.3633V9.63492ZM9.24196 7.09938C9.80457 6.53677 10.5676 6.2207 11.3633 6.2207H18.3633C18.6285 6.2207 18.8829 6.32606 19.0704 6.5136L24.0704 11.5136C24.2579 11.7011 24.3633 11.9555 24.3633 12.2207V23.2207C24.3633 24.0164 24.0472 24.7794 23.4846 25.342C22.922 25.9046 22.1589 26.2207 21.3633 26.2207H11.3633C10.5676 26.2207 9.80457 25.9046 9.24196 25.342C8.67935 24.7794 8.36328 24.0164 8.36328 23.2207V9.2207C8.36328 8.42505 8.67935 7.66199 9.24196 7.09938ZM12.3633 17.2207C12.3633 16.6684 12.811 16.2207 13.3633 16.2207H19.3633C19.9156 16.2207 20.3633 16.6684 20.3633 17.2207C20.3633 17.773 19.9156 18.2207 19.3633 18.2207H13.3633C12.811 18.2207 12.3633 17.773 12.3633 17.2207ZM12.3633 21.2207C12.3633 20.6684 12.811 20.2207 13.3633 20.2207H19.3633C19.9156 20.2207 20.3633 20.6684 20.3633 21.2207C20.3633 21.773 19.9156 22.2207 19.3633 22.2207H13.3633C12.811 22.2207 12.3633 21.773 12.3633 21.2207Z" fill="#3E63DD"/>
</svg>
