<svg width="24" height="24" viewBox="0 0 24 24" fill="none" xmlns="http://www.w3.org/2000/svg">
<path d="M13.5371 20.7996H10.4389C10.1825 20.7996 9.95825 20.7179 9.76623 20.5543C9.57364 20.3902 9.45598 20.1729 9.41324 19.9022L9.15684 18.0433C9.01439 17.9863 8.85058 17.9045 8.66539 17.798C8.48021 17.6909 8.3164 17.5803 8.17395 17.4664L6.44321 18.2142C6.20105 18.3282 5.95548 18.3387 5.70648 18.2458C5.45691 18.1535 5.2609 17.9934 5.11845 17.7655L3.55866 14.9664C3.43045 14.7385 3.39484 14.4997 3.45182 14.2502C3.5088 14.0012 3.637 13.7983 3.83643 13.6416L5.28939 12.5306C5.27515 12.4308 5.26461 12.3311 5.25777 12.2314C5.25036 12.1317 5.24666 12.032 5.24666 11.9323C5.24666 11.8468 5.25036 11.7613 5.25777 11.6759C5.26461 11.5904 5.27515 11.4907 5.28939 11.3767L3.83643 10.3084C3.62276 10.1659 3.49455 9.96279 3.45182 9.69898C3.40909 9.43574 3.45182 9.19016 3.58002 8.96224L5.11845 6.24862C5.2609 6.03495 5.45321 5.87455 5.69537 5.76743C5.93753 5.66088 6.17256 5.66459 6.40048 5.77854L8.08848 6.48366C8.24517 6.3697 8.42323 6.25916 8.62266 6.15204C8.82209 6.04549 9.00727 5.94948 9.1782 5.86401L9.41324 4.04781C9.44173 3.77716 9.55569 3.55978 9.75512 3.39569C9.95454 3.23216 10.1825 3.15039 10.4389 3.15039H13.5371C13.8077 3.15039 14.0428 3.23216 14.2422 3.39569C14.4416 3.55978 14.5556 3.77716 14.5841 4.04781L14.8191 5.88538C15.0043 5.98509 15.1861 6.0811 15.3644 6.17341C15.5422 6.26628 15.7165 6.37682 15.8875 6.50503L17.5755 5.79991C17.8034 5.68595 18.0421 5.67513 18.2917 5.76743C18.5407 5.86031 18.7364 6.02071 18.8789 6.24862L20.4173 8.96224C20.5455 9.19016 20.5848 9.43574 20.5353 9.69898C20.4851 9.96279 20.3603 10.1659 20.1609 10.3084L18.6438 11.4408C18.6581 11.5405 18.6652 11.6368 18.6652 11.7297V11.9964C18.6652 12.0676 18.6618 12.1531 18.6549 12.2528C18.6475 12.3525 18.6438 12.4593 18.6438 12.5733L20.0968 13.663C20.3105 13.8055 20.4458 14.0049 20.5028 14.2613C20.5598 14.5177 20.517 14.7599 20.3746 14.9878L18.8148 17.7655C18.6866 17.9934 18.4977 18.1501 18.2481 18.2356C17.9991 18.321 17.7535 18.3068 17.5114 18.1928L15.7806 17.4664C15.6239 17.5803 15.4673 17.6837 15.3106 17.7766C15.1539 17.8689 14.9972 17.9507 14.8405 18.0219L14.5841 19.9022C14.5413 20.1729 14.424 20.3902 14.232 20.5543C14.0394 20.7179 13.8077 20.7996 13.5371 20.7996V20.7996ZM11.9346 15.116C12.8177 15.116 13.5656 14.8097 14.1781 14.1972C14.7906 13.5847 15.0969 12.8368 15.0969 11.9536C15.0969 11.0705 14.7906 10.3226 14.1781 9.71009C13.5656 9.09757 12.8177 8.79131 11.9346 8.79131C11.0656 8.79131 10.3212 9.09757 9.70127 9.71009C9.08191 10.3226 8.77223 11.0705 8.77223 11.9536C8.77223 12.8368 9.08191 13.5847 9.70127 14.1972C10.3212 14.8097 11.0656 15.116 11.9346 15.116V15.116ZM11.9346 13.2784C11.5642 13.2784 11.2508 13.1502 10.9944 12.8938C10.738 12.6374 10.6098 12.324 10.6098 11.9536C10.6098 11.5833 10.7417 11.2699 11.0055 11.0135C11.2688 10.7571 11.5856 10.6289 11.9559 10.6289C12.312 10.6289 12.6183 10.7571 12.8747 11.0135C13.1311 11.2699 13.2593 11.5833 13.2593 11.9536C13.2593 12.324 13.1311 12.6374 12.8747 12.8938C12.6183 13.1502 12.3049 13.2784 11.9346 13.2784ZM11.1226 18.9621H12.8106L13.1311 16.6544C13.587 16.5404 14.0038 16.3732 14.3815 16.1527C14.7587 15.9316 15.1254 15.6501 15.4815 15.3083L17.5541 16.1843L18.4302 14.7314L16.614 13.3425C16.6852 13.1146 16.735 12.8867 16.7635 12.6588C16.792 12.4308 16.8063 12.1958 16.8063 11.9536C16.8063 11.7115 16.7954 11.487 16.7738 11.2801C16.7527 11.0739 16.7065 10.8426 16.6353 10.5861L18.4302 9.21865L17.6182 7.76569L15.4815 8.62037C15.1966 8.30699 14.8442 8.02551 14.4243 7.77594C14.0038 7.52694 13.5727 7.35259 13.1311 7.25288L12.8747 4.98796H11.1226L10.8662 7.23151C10.3819 7.34547 9.9403 7.51982 9.54145 7.75458C9.14259 7.9899 8.77223 8.2785 8.43036 8.62037L6.37911 7.76569L5.52443 9.21865L7.2979 10.5861C7.22668 10.8568 7.17682 11.099 7.14833 11.3126C7.11984 11.5263 7.1056 11.74 7.1056 11.9536C7.1056 12.1388 7.11984 12.3454 7.14833 12.5733C7.17682 12.8012 7.22668 13.0647 7.2979 13.3639L5.52443 14.7314L6.37911 16.1843L8.45172 15.3083C8.83633 15.6644 9.22464 15.9527 9.61666 16.1732C10.0081 16.3943 10.4246 16.5618 10.8662 16.6758L11.1226 18.9621Z" fill="#C1C8CD"/>
</svg>
