<svg width="33" height="33" viewBox="0 0 33 33" fill="none" xmlns="http://www.w3.org/2000/svg">
<path fill-rule="evenodd" clip-rule="evenodd" d="M11.3633 8.73828C11.0981 8.73828 10.8437 8.84364 10.6562 9.03117C10.4686 9.21871 10.3633 9.47306 10.3633 9.73828V23.7383C10.3633 24.0035 10.4686 24.2579 10.6562 24.4454C10.8437 24.6329 11.0981 24.7383 11.3633 24.7383H21.3633C21.6285 24.7383 21.8829 24.6329 22.0704 24.4454C22.2579 24.2579 22.3633 24.0035 22.3633 23.7383V13.7383H19.3633C18.8328 13.7383 18.3241 13.5276 17.9491 13.1525C17.574 12.7774 17.3633 12.2687 17.3633 11.7383V8.73828H11.3633ZM19.3633 10.1525L20.9491 11.7383H19.3633V10.1525ZM9.24196 7.61696C9.80457 7.05435 10.5676 6.73828 11.3633 6.73828H18.3633C18.6285 6.73828 18.8829 6.84364 19.0704 7.03117L24.0704 12.0312C24.2579 12.2187 24.3633 12.4731 24.3633 12.7383V23.7383C24.3633 24.5339 24.0472 25.297 23.4846 25.8596C22.922 26.4222 22.1589 26.7383 21.3633 26.7383H11.3633C10.5676 26.7383 9.80457 26.4222 9.24196 25.8596C8.67935 25.297 8.36328 24.5339 8.36328 23.7383V9.73828C8.36328 8.94263 8.67935 8.17957 9.24196 7.61696ZM12.3633 17.7383C12.3633 17.186 12.811 16.7383 13.3633 16.7383H19.3633C19.9156 16.7383 20.3633 17.186 20.3633 17.7383C20.3633 18.2906 19.9156 18.7383 19.3633 18.7383H13.3633C12.811 18.7383 12.3633 18.2906 12.3633 17.7383ZM12.3633 21.7383C12.3633 21.186 12.811 20.7383 13.3633 20.7383H19.3633C19.9156 20.7383 20.3633 21.186 20.3633 21.7383C20.3633 22.2906 19.9156 22.7383 19.3633 22.7383H13.3633C12.811 22.7383 12.3633 22.2906 12.3633 21.7383Z" fill="#C1C8CD"/>
</svg>
