<svg width="32" height="32" viewBox="0 0 32 32" fill="none" xmlns="http://www.w3.org/2000/svg">
<path fill-rule="evenodd" clip-rule="evenodd" d="M15.116 7.66406H16.8841C17.8606 7.66406 18.6522 8.41045 18.6522 9.33116C18.6522 10.3848 19.7795 11.0546 20.7049 10.5509L20.7989 10.4997C21.6446 10.0394 22.726 10.3126 23.2142 11.1099L24.0983 12.5537C24.5866 13.351 24.2968 14.3706 23.4511 14.831C22.5253 15.3349 22.5253 16.6641 23.4511 17.1681C24.2968 17.6285 24.5866 18.648 24.0983 19.4454L23.2142 20.8891C22.726 21.6865 21.6446 21.9597 20.7989 21.4993L20.7049 21.4482C19.7795 20.9444 18.6522 21.6143 18.6522 22.6679C18.6522 23.5886 17.8606 24.335 16.8841 24.335H15.116C14.1394 24.335 13.3478 23.5886 13.3478 22.6679C13.3478 21.6143 12.2205 20.9444 11.2951 21.4482L11.2011 21.4993C10.3554 21.9597 9.27406 21.6865 8.7858 20.8891L7.90173 19.4454C7.41347 18.648 7.70323 17.6285 8.54891 17.1681C9.47475 16.6641 9.47475 15.3349 8.54892 14.831C7.70323 14.3706 7.41348 13.351 7.90173 12.5537L8.7858 11.1099C9.27406 10.3126 10.3554 10.0394 11.2011 10.4997L11.2951 10.5509C12.2205 11.0546 13.3478 10.3848 13.3478 9.33116C13.3478 8.41045 14.1394 7.66406 15.116 7.66406ZM16 18.778C17.5345 18.778 18.7785 17.5341 18.7785 15.9995C18.7785 14.465 17.5345 13.221 16 13.221C14.4655 13.221 13.2215 14.465 13.2215 15.9995C13.2215 17.5341 14.4655 18.778 16 18.778Z" fill="#C1C8CD"/>
</svg>
