<svg width="28" height="28" viewBox="0 0 28 28" fill="none" xmlns="http://www.w3.org/2000/svg">
<path fill-rule="evenodd" clip-rule="evenodd" d="M12.832 9.91667C12.832 9.27233 13.3544 8.75 13.9987 8.75C14.643 8.75 15.1654 9.27233 15.1654 9.91667C15.1654 10.561 14.643 11.0833 13.9987 11.0833C13.3544 11.0833 12.832 10.561 12.832 9.91667ZM12.832 14C12.832 13.3557 13.3544 12.8333 13.9987 12.8333C14.643 12.8333 15.1654 13.3557 15.1654 14C15.1654 14.6443 14.643 15.1667 13.9987 15.1667C13.3544 15.1667 12.832 14.6443 12.832 14ZM12.832 18.0833C12.832 17.439 13.3544 16.9167 13.9987 16.9167C14.643 16.9167 15.1654 17.439 15.1654 18.0833C15.1654 18.7277 14.643 19.25 13.9987 19.25C13.3544 19.25 12.832 18.7277 12.832 18.0833Z" fill="#C1C8CD"/>
</svg>
