<svg width="24" height="24" viewBox="0 0 24 24" fill="none" xmlns="http://www.w3.org/2000/svg">
<g clip-path="url(#clip0_896_122110)">
<path d="M12 22C10.72 22 9.65001 21.16 9.35001 19.92C9.26001 19.53 8.87001 19.3 8.47001 19.39C8.40001 19.41 8.33001 19.44 8.26001 19.48C7.17001 20.15 5.82001 19.98 4.92001 19.08C4.01001 18.17 3.85001 16.83 4.52001 15.74C4.62001 15.57 4.65001 15.38 4.60001 15.19C4.55001 15 4.44001 14.84 4.27001 14.74C4.21001 14.7 4.14001 14.67 4.06001 14.65C2.82001 14.35 1.98001 13.28 1.98001 12C1.98001 10.72 2.82001 9.65 4.06001 9.35C4.45001 9.26 4.69001 8.86 4.59001 8.48C4.57001 8.41 4.54001 8.34 4.50001 8.27C3.83001 7.18 3.99001 5.83 4.90001 4.93C5.81001 4.02 7.15001 3.86 8.24001 4.53C8.44001 4.65 8.68001 4.67 8.89001 4.58C9.10001 4.49 9.26001 4.31 9.32001 4.08C9.62001 2.84 10.69 2 11.97 2C13.25 2 14.31 2.84 14.62 4.08C14.71 4.47 15.11 4.71 15.49 4.61C15.56 4.59 15.63 4.56 15.7 4.52C16.8 3.85 18.14 4.02 19.04 4.92C19.95 5.83 20.11 7.17 19.44 8.26C19.34 8.43 19.31 8.62 19.35 8.81C19.39 9 19.51 9.16 19.68 9.26C19.74 9.3 19.81 9.33 19.89 9.34C21.13 9.64 21.97 10.71 21.97 11.99C21.97 13.27 21.13 14.33 19.89 14.64C19.5 14.73 19.26 15.13 19.36 15.51C19.38 15.58 19.41 15.65 19.45 15.72C20.12 16.81 19.95 18.16 19.05 19.06C18.15 19.96 16.8 20.13 15.71 19.46C15.54 19.36 15.35 19.33 15.16 19.37C14.97 19.41 14.81 19.53 14.71 19.7C14.67 19.77 14.64 19.83 14.62 19.91C14.32 21.15 13.25 21.99 11.97 21.99L12 22ZM8.65001 17.37C9.88001 17.37 11 18.21 11.3 19.45C11.42 19.96 11.87 20 12 20C12.13 20 12.58 19.96 12.7 19.45C12.77 19.17 12.87 18.91 13.02 18.67C13.4 18.05 13.99 17.61 14.7 17.44C15.41 17.27 16.14 17.38 16.76 17.76C17.21 18.03 17.55 17.75 17.65 17.65C17.74 17.56 18.03 17.21 17.76 16.76C17.61 16.52 17.5 16.26 17.44 15.98C17.09 14.52 17.99 13.05 19.44 12.69C19.95 12.57 19.99 12.12 19.99 11.99C19.99 11.86 19.95 11.41 19.44 11.29C19.17 11.22 18.91 11.12 18.67 10.97C18.05 10.59 17.61 9.99 17.44 9.29C17.27 8.58 17.38 7.85 17.76 7.23C18.03 6.78 17.75 6.44 17.65 6.34C17.56 6.25 17.21 5.96 16.76 6.23C16.52 6.38 16.26 6.49 15.98 6.55C14.52 6.9 13.05 6 12.69 4.54C12.57 4.03 12.12 3.99 11.99 3.99C11.86 3.99 11.41 4.03 11.29 4.54C11.08 5.39 10.5 6.08 9.69001 6.41C8.88001 6.75 7.98001 6.68 7.23001 6.22C6.78001 5.95 6.43001 6.23 6.34001 6.33C6.25001 6.42 5.96001 6.77 6.23001 7.22C6.38001 7.46 6.49001 7.72 6.55001 8C6.90001 9.46 6.00001 10.94 4.54001 11.29C4.03001 11.41 3.99001 11.86 3.99001 11.99C3.99001 12.12 4.03001 12.57 4.54001 12.69C4.82001 12.76 5.08001 12.87 5.32001 13.01C6.60001 13.79 7.01001 15.47 6.23001 16.75C5.96001 17.2 6.24001 17.54 6.34001 17.64C6.44001 17.74 6.78001 18.02 7.23001 17.75C7.47001 17.6 7.73001 17.49 8.01001 17.43C8.22001 17.38 8.44001 17.35 8.65001 17.35V17.37Z" fill="#121212"/>
<path d="M12 16C9.79001 16 8.00001 14.21 8.00001 12C8.00001 9.79 9.79001 8 12 8C14.21 8 16 9.79 16 12C16 14.21 14.21 16 12 16ZM12 10C10.9 10 10 10.9 10 12C10 13.1 10.9 14 12 14C13.1 14 14 13.1 14 12C14 10.9 13.1 10 12 10Z" fill="#121212"/>
</g>
<defs>
<clipPath id="clip0_896_122110">
<rect width="20" height="20" fill="white" transform="translate(2 2)"/>
</clipPath>
</defs>
</svg>
