<svg width="24" height="24" viewBox="0 0 24 24" fill="none" xmlns="http://www.w3.org/2000/svg">
<g clip-path="url(#clip0_1_1904)">
<path d="M7.29297 2.69824H8.69922L8.68945 2.77637L8.62109 2.81543L8.5332 2.83496L8.57227 2.86426L8.70898 2.92285L8.79688 2.94238L8.80664 2.95215H8.88477L9.02148 3.02051L9.13867 3.0498L9.23633 3.14746L9.28516 3.18652L9.33398 3.24512L9.48047 3.31348L9.63672 3.3916L9.64648 3.44043L9.68555 3.43066L9.76367 3.49902L9.87109 3.56738L9.94922 3.62598L10.0664 3.66504L10.1738 3.75293L10.2324 3.83105L10.252 3.87988L10.3496 3.90918L10.5156 3.96777L10.5742 3.99707V4.0752L10.623 4.08496L10.6816 4.15332L10.7012 4.16309L10.6328 4.05566L10.6035 3.99707L10.6328 4.00684V4.02637L10.6719 4.0459L10.7207 4.09473V4.14355L10.8086 4.17285L10.8477 4.23145L10.877 4.25098L11.0332 4.28027L11.082 4.31934L11.1406 4.41699L11.1895 4.51465L11.2285 4.54395L11.2676 4.55371L11.2969 4.57324H11.4336L11.5117 4.63184L11.5215 4.68066H11.5703L11.5996 4.66113L11.6289 4.68066L11.6191 4.70996L11.5898 4.73926V4.76855L11.6582 4.78809H11.6875L11.7266 4.79785L11.7363 4.84668L11.7266 4.87598L11.7754 4.88574L11.8242 4.91504V4.93457L11.9023 4.9541L11.9707 4.94434L12.0293 4.89551L12.0488 4.86621L12.1562 4.83691L12.332 4.74902L12.459 4.6416L12.5859 4.56348L12.6641 4.49512L12.752 4.41699L12.8594 4.34863L12.9473 4.2998L13.0742 4.22168L13.1621 4.16309L13.2793 4.10449L13.3574 4.0459L13.543 3.91895L13.6699 3.81152L13.7773 3.7334L14.0215 3.59668L14.0703 3.55762L14.207 3.48926L14.2852 3.43066L14.3926 3.35254L14.5781 3.21582L14.6953 3.1084L14.8516 3.03027L14.9688 2.98145L15.125 2.90332L15.2422 2.86426L15.4473 2.8252L15.418 2.80566L15.3203 2.77637L15.2227 2.75684L15.1738 2.71777V2.69824H16.2871L16.375 2.7373L16.3652 2.78613L16.2285 2.81543H15.8574L15.6133 2.80566L15.584 2.7959H15.5059L15.4473 2.8252L15.7891 2.81543L16.2773 2.88379L16.4727 2.92285L16.7363 3.01074L16.873 3.0791L17.0879 3.20605L17.2148 3.29395L17.2734 3.33301L17.3809 3.41113L17.5371 3.52832L17.6934 3.62598L17.7715 3.68457L17.7812 3.65527L17.8203 3.6748L17.8496 3.68457L17.8789 3.7334H17.8301V3.75293H17.8594V3.77246L17.8887 3.78223L17.9375 3.83105L18.0156 3.86035L18.084 3.87012L18.123 3.91895L18.1621 3.93848H18.2109L18.2793 3.97754L18.3379 3.99707L18.3867 4.05566L18.3379 4.0459H18.3281V4.06543L18.3672 4.0752L18.416 4.16309L18.4648 4.20215L18.5625 4.24121L18.6309 4.27051L18.7383 4.2998L18.7773 4.33887L18.7871 4.3877L18.8457 4.45605L18.9238 4.51465L18.9531 4.53418L18.9141 4.44629L18.8555 4.37793L18.8262 4.3291L18.8652 4.31934L18.9336 4.33887L18.9531 4.36816L18.9434 4.43652L19.0117 4.51465L19.0312 4.55371L19.1582 4.60254L19.2461 4.62207L19.3047 4.66113L19.373 4.78809L19.4219 4.83691L19.5195 4.87598L19.6074 4.88574L19.6758 4.9248L19.7148 5.00293L19.8027 5.10059L19.8613 5.13965L19.8516 5.09082L19.8027 5.00293L19.793 4.9541L19.8613 4.96387L19.8906 5.02246L19.9004 5.09082L19.998 5.18848L20.1152 5.22754L20.1836 5.2373L20.2422 5.27637L20.291 5.34473L20.3398 5.45215L20.457 5.49121L20.5254 5.50098L20.5938 5.52051L20.623 5.55957L20.6914 5.70605L20.7402 5.74512L20.7988 5.78418L20.8184 5.79395L20.7695 5.69629L20.75 5.67676L20.7402 5.58887L20.8086 5.59863L20.8281 5.61816L20.8379 5.71582L20.8672 5.74512L20.9062 5.80371L20.9551 5.83301L20.9941 5.87207L21.0234 5.8916H21.0527L21.0625 5.87207L21.1309 5.8623L21.1895 5.90137L21.2188 5.94043L21.2773 6.09668L21.3457 6.14551L21.375 6.1748L21.3945 6.13574L21.5215 6.24316L21.541 6.31152L21.5703 6.36035L21.6582 6.5459L21.7168 6.70215L21.6973 6.62402L21.6777 6.49707L21.668 6.41895L21.7363 6.47754L21.7852 6.5752L21.8047 6.66309L21.834 6.94629L21.8535 7.34668L21.8633 8.27441V11.165L21.8535 12.874L21.834 13.2256L21.8145 13.4209L21.7363 13.5967L21.707 13.7334L21.6875 13.8994L21.6484 14.0166L21.541 14.2607L21.4629 14.417L21.3457 14.6123L21.2969 14.7002L21.2676 14.7686L21.2285 14.8662L21.1895 14.915L21.0918 14.9834L20.9941 15.0225L20.9062 15.1592L20.8672 15.208L20.6914 15.3154L20.5449 15.4131L20.4375 15.4814L20.2617 15.6084L20.0664 15.7451L19.9102 15.8525L19.7539 15.9502L19.6074 16.0479L19.3926 16.1943L19.2559 16.292L19.0898 16.4092L18.9922 16.4775L18.7578 16.624L18.543 16.7607L18.3867 16.8682L18.2207 16.9854L18.1035 17.0635L17.918 17.1904L17.7324 17.3271L17.4688 17.5029L17.2148 17.6689L17.0488 17.7764L16.8926 17.8838L16.5703 18.0986L16.1406 18.3818L15.9844 18.4893L15.7988 18.6162L15.6328 18.7236L15.4082 18.8701L15.1641 19.0264L14.998 19.1436L14.7344 19.3193L14.3047 19.6025L14.0801 19.7588L13.6797 20.0225L13.4648 20.1592L13.084 20.4131L12.9766 20.4814L12.7129 20.6572L12.5078 20.7842L12.3516 20.8916L12.127 21.0186L12.0195 21.0869L11.9902 21.1162H11.9707L11.9609 21.1748L12 21.2432L11.9902 21.1943L12.0293 21.2334L12.0684 21.3018L12.0098 21.292L12 21.2822H11.8242L11.8047 21.2725L11.8145 21.2236L11.8828 21.1357L11.7949 21.0771L11.6875 21.0186L11.5898 20.9502L11.4434 20.8525L11.1602 20.667L11.0137 20.5693L10.8867 20.4912L10.7207 20.3838L10.291 20.1006L9.70508 19.71L9.48047 19.5537L9.04102 19.2607L8.5332 18.9287L8.10352 18.6455L7.9668 18.5479L7.53711 18.2646L7.37109 18.1475L6.94141 17.8643L6.47266 17.5518L6.19922 17.3662L5.78906 17.0928L4.98828 16.5654L4.76367 16.4189L4.38281 16.165L4.22656 16.0576L4.08984 15.96L3.35742 15.4717L3.19141 15.3545L3.02539 15.2178L2.67383 14.8662L2.57617 14.7393L2.48828 14.6416L2.39062 14.5244L2.3125 14.4072L2.17578 13.958L2.09766 13.7139L2.03906 13.4307V13.3623L2.01953 13.3135L2 13.2354V6.53613L2.03906 6.58496L2.05859 6.62402V6.70215L2.07812 6.73145L2.08789 6.83887L2.14648 6.76074L2.16602 6.71191L2.19531 6.59473L2.27344 6.43848L2.33203 6.28223L2.40039 6.19434L2.57617 6.07715L2.625 5.98926L2.68359 5.91113L2.77148 5.83301L2.86914 5.81348L3.08398 5.65723L3.15234 5.6377L3.2207 5.55957L3.36719 5.45215L3.45508 5.39355L3.5332 5.33496L3.62109 5.2666L3.71875 5.19824L3.80664 5.16895L3.88477 5.12012L4.07031 5.02246L4.1875 4.9248L4.27539 4.86621L4.36328 4.79785L4.44141 4.74902L4.56836 4.65137L4.61719 4.60254L4.68555 4.58301L4.83203 4.48535L4.91992 4.43652L5.01758 4.3877L5.05664 4.33887L5.14453 4.29004L5.20312 4.25098L5.27148 4.19238L5.37891 4.13379L5.50586 4.00684L5.58398 3.95801L5.66211 3.93848L5.74023 3.87988L5.87695 3.80176L5.95508 3.77246L5.99414 3.72363L6.12109 3.65527L6.19922 3.58691L6.30664 3.52832L6.36523 3.47949L6.43359 3.40137L6.47266 3.3623L6.57031 3.33301L6.64844 3.27441L6.76562 3.21582L6.81445 3.17676L6.87305 3.14746L6.91211 3.09863L7.05859 3.02051L7.09766 2.98145L7.25391 2.90332L7.38086 2.88379L7.39062 2.86426L7.58594 2.8252H7.69336L7.75195 2.81543L7.63477 2.80566L7.52734 2.77637L7.42969 2.75684L7.40039 2.71777L7.39062 2.75684L7.3125 2.74707L7.29297 2.69824Z" fill="#B0215F"/>
<path d="M2.03906 8.7041H2.08789V8.72363H2.10742V8.7041H2.12695V8.72363L2.21484 8.7334L2.26367 8.7627L2.3125 8.77246L2.3418 8.80176L2.38086 8.83105V8.87012L2.40039 8.85059V8.84082H2.44922L2.46875 8.89941L2.50781 8.91895L2.57617 8.93848V8.95801H2.625L2.71289 9.00684L2.74219 9.0166V9.0459H2.76172V9.06543L2.82031 9.0752L2.85938 9.11426V9.13379L2.88867 9.12402L2.91797 9.13379L2.92773 9.21191L2.98633 9.24121L3.01562 9.2998V9.31934L3.05469 9.30957L3.08398 9.3291V9.30957L3.12305 9.31934L3.14258 9.3291L3.17188 9.37793L3.19141 9.36816L3.21094 9.3877L3.20117 9.40723H3.2207V9.42676L3.26953 9.43652L3.33789 9.46582L3.34766 9.49512L3.44531 9.51465L3.45508 9.55371L3.50391 9.58301L3.57227 9.60254V9.62207L3.66016 9.6416L3.67969 9.63184L3.70898 9.6709L3.74805 9.68066V9.7002L3.77734 9.69043V9.70996L3.8457 9.71973L3.875 9.73926V9.75879L3.92383 9.76855L3.98242 9.79785V9.81738H4.00195V9.83691L4.09961 9.87598L4.10938 9.89551L4.1875 9.9248V9.94434L4.22656 9.97363V9.99316L4.25586 9.9834L4.28516 10.0127L4.33398 10.0225L4.32422 10.0518L4.35352 10.0615L4.32422 10.0811H4.37305L4.39258 10.1299V10.1592L4.38281 10.1885L4.45117 10.1787L4.46094 10.208L4.56836 10.2373L4.60742 10.2666L4.64648 10.2764L4.66602 10.2568V10.2764L4.70508 10.2959L4.75391 10.3154L4.76367 10.335L4.8125 10.3447V10.3643L4.85156 10.4033L4.91016 10.4131L4.94922 10.4424L4.97852 10.4521L5.01758 10.4912H5.06641L5.14453 10.5303V10.5596L5.26172 10.5791V10.6084L5.30078 10.5986L5.33008 10.6279H5.35938V10.6475H5.37891V10.6768L5.41797 10.667L5.44727 10.6865L5.50586 10.7061L5.51562 10.7256L5.58398 10.7549L5.60352 10.7939L5.64258 10.8037L5.69141 10.8623L5.74023 10.8916V10.9111H5.76953V10.9307H5.78906L5.79883 10.9502H5.84766H5.87695L5.89648 11.0088L5.94531 11.0186L6.00391 11.0967L6.07227 11.126L6.11133 11.165L6.12109 11.1455L6.15039 11.1553V11.1748L6.21875 11.1943L6.24805 11.2041V11.2236L6.29688 11.2334L6.30664 11.2627L6.3457 11.2529L6.43359 11.3115L6.46289 11.3213V11.3408H6.51172L6.52148 11.3799L6.57031 11.3994V11.4385H6.64844L6.67773 11.4482L6.6875 11.4873L6.82422 11.5557H6.86328L6.88281 11.5947H6.90234V11.6143L6.96094 11.624L7 11.6436L7.05859 11.6924L7.04883 11.7217L7.08789 11.7314L7.11719 11.751V11.7705L7.16602 11.79V11.8096H7.18555L7.19531 11.79V11.8096H7.22461V11.8291L7.29297 11.8486L7.37109 11.9072L7.41016 11.917L7.41992 11.9463L7.45898 11.9561L7.51758 11.9854V12.0342L7.55664 12.0244V12.0439L7.6543 12.0928L7.68359 12.1221L7.71289 12.1318L7.74219 12.1221L7.76172 12.1416L7.83008 12.1709L7.84961 12.1807V12.2002L7.89844 12.21L7.97656 12.2393L7.99609 12.2783L8.04492 12.2979L8.06445 12.3076V12.3369L8.11328 12.3564L8.13281 12.3662V12.3857L8.17188 12.376V12.415L8.25 12.4248L8.30859 12.4736V12.5029H8.35742L8.41602 12.5713V12.6006L8.46484 12.6104V12.6299L8.51367 12.6396L8.5332 12.6787H8.55273V12.6982L8.5918 12.708V12.7275L8.63086 12.7178L8.65039 12.7373L8.66016 12.7568L8.72852 12.7666L8.74805 12.7861L8.81641 12.8057L8.83594 12.8252L8.91406 12.8643H8.95312L8.97266 12.9033L9.02148 12.8936L9.01172 12.9619L9.05078 12.9717L9.09961 12.9912V13.0107H9.14844L9.16797 13.04L9.27539 13.0498L9.26562 13.0693L9.27539 13.0791H9.34375L9.35352 13.1182H9.38281L9.41211 13.1084L9.45117 13.1572L9.4707 13.1768H9.5293L9.55859 13.2158L9.62695 13.2451L9.65625 13.2646L9.66602 13.2939L9.75391 13.3135L9.76367 13.3623H9.85156L9.86133 13.4014L9.90039 13.4111V13.4307H9.91992V13.46H9.93945V13.4893H9.95898V13.5088H9.98828L9.97852 13.5674L10.0371 13.5576L10.0566 13.5967L10.0957 13.6064L10.1055 13.6162L10.1543 13.6357L10.1641 13.6553L10.2031 13.665L10.2227 13.6846L10.291 13.7139L10.3496 13.6943L10.3691 13.7041V13.7334L10.418 13.7236L10.4668 13.7529V13.7725L10.5352 13.792L10.5742 13.8506L10.623 13.8701V13.8896L10.6426 13.8994L10.6523 13.9287L10.7012 13.9385L10.7402 13.958V13.9775H10.7695V13.9971L10.8477 14.0068L10.8574 14.0361L10.9258 14.0557H10.9648V14.1045L11.0039 14.1143L11.0332 14.1631L11.0527 14.1533V14.1729L11.1016 14.1631L11.1113 14.2021L11.1309 14.2217L11.1602 14.2607L11.2383 14.2998L11.2676 14.3486L11.2871 14.3877L11.3457 14.4072L11.3652 14.4268H11.3848L11.4141 14.4756L11.4531 14.4854L11.4824 14.5439L11.502 14.5635L11.5117 14.583H11.5508L11.5605 14.6709L11.6191 14.6611L11.6387 14.6807L11.668 14.7197L11.707 14.7295V14.749L11.7266 14.7588V14.7979L11.707 14.8467L11.6973 14.8857H11.7266V15.0029L11.7363 15.0713L11.7266 15.1104L11.7363 15.1689L11.7266 15.2275H11.707V15.2471H11.7266L11.7363 15.3252L11.7266 15.3643V15.3936L11.7363 15.4717H11.7168L11.7363 15.6084L11.7266 15.6475L11.7461 15.6572L11.7266 15.6963L11.7363 15.7549V15.9795L11.7266 15.9893H11.7363V16.0771L11.7168 16.1064L11.7363 16.165V16.1943L11.7461 16.2236H11.7266V16.292L11.7168 16.3018L11.7266 16.3311L11.7461 16.3506L11.7266 16.4385H11.7559L11.7461 16.4971L11.7559 16.5459L11.7461 16.585H11.7266V16.7119L11.7461 16.7217V16.7412H11.7266L11.7363 16.7803L11.7266 16.7998H11.7461L11.7363 16.8975V16.9756H11.7168V16.9951H11.7363L11.7461 17.1123L11.7363 17.1807V17.21V17.2686L11.7461 17.3369V17.4346L11.7363 17.4541H11.7559L11.7461 17.542L11.7363 17.5615H11.7559V17.5811H11.7363L11.7461 17.6494L11.7559 17.7373V17.7666L11.7461 17.8154L11.7559 17.8643V17.8936L11.7461 17.9717L11.7363 17.9912H11.7559V18.0498L11.7461 18.0791V18.1963L11.7559 18.3037L11.7461 18.4307L11.7656 18.4404H11.7461L11.7559 18.4795L11.7754 18.499L11.7559 18.5381L11.7461 18.5967L11.7656 18.626H11.7461L11.7559 18.6455V18.7822L11.7461 18.8604L11.7559 19.0264L11.7656 19.0752L11.7754 19.1143L11.7559 19.1533V19.1826L11.7754 19.1924H11.7559V19.3096L11.7656 19.3486V19.417L11.7754 19.4951L11.7559 19.5244V19.6416L11.7461 19.6709H11.7656L11.7559 19.7295L11.7656 19.7686L11.7363 19.8174V19.8662L11.7461 19.8857L11.7363 19.9736L11.7559 20.042L11.7461 20.1885L11.7363 20.208L11.7559 20.2178H11.7363V20.2373H11.7559V20.3252L11.7656 20.335V20.3936L11.7461 20.4326L11.7949 20.4814H11.7656L11.7754 20.5205L11.7461 20.54L11.7266 20.5791L11.7559 20.6475V20.6865H11.7363L11.7461 20.8135L11.7559 20.833L11.7363 20.9209L11.7266 20.9697V21.0381L11.6191 20.9697L11.2383 20.7158L10.9062 20.501L10.75 20.4033L10.3398 20.1299L9.93945 19.8662L9.70508 19.71L9.48047 19.5537L9.04102 19.2607L8.5332 18.9287L8.10352 18.6455L7.9668 18.5479L7.53711 18.2646L7.37109 18.1475L6.94141 17.8643L6.47266 17.5518L6.19922 17.3662L5.78906 17.0928L4.98828 16.5654L4.76367 16.4189L4.38281 16.165L4.22656 16.0576L4.08984 15.96L3.35742 15.4717L3.19141 15.3545L3.02539 15.2178L2.67383 14.8662L2.57617 14.7393L2.48828 14.6416L2.39062 14.5244L2.3125 14.4072L2.17578 13.958L2.09766 13.7139L2.03906 13.4307V13.3623L2.01953 13.3135L2 13.2354V8.71387L2.03906 8.7041Z" fill="#D04776"/>
<path d="M15.4277 2.69824H15.877L15.8574 2.70801L15.8477 2.74707L15.8086 2.7666L15.7402 2.77637L15.623 2.75684L15.4473 2.7373L15.4277 2.69824Z" fill="#B0215F"/>
<path d="M7.29297 2.69824H7.41992L7.44922 2.7373L7.5957 2.7666L7.66406 2.78613H7.79102L7.78125 2.80566H7.63477L7.52734 2.77637L7.42969 2.75684L7.40039 2.71777L7.39062 2.75684L7.3125 2.74707L7.29297 2.69824Z" fill="#D14877"/>
<path d="M18.8359 4.31934L18.9336 4.33887L18.9531 4.36816L18.9434 4.43652L18.9531 4.45605L18.9336 4.47559L18.8945 4.41699L18.8555 4.37793L18.8262 4.3291L18.8359 4.31934Z" fill="#BC2F67"/>
<path d="M21.3848 6.13574L21.4629 6.19434L21.5215 6.24316V6.29199L21.4629 6.28223L21.4141 6.22363V6.2041L21.375 6.19434L21.3848 6.13574Z" fill="#C4386D"/>
<path d="M8.58203 2.69824H8.69922L8.68945 2.77637H8.66992L8.67969 2.70801L8.60156 2.74707H8.55273L8.5625 2.70801L8.58203 2.69824Z" fill="#D14877"/>
<path d="M18.2695 3.97754L18.3379 3.99707L18.3867 4.05566L18.3379 4.0459H18.3086L18.2598 3.99707L18.2695 3.97754Z" fill="#C93F71"/>
<path d="M9.61719 3.3916L9.64648 3.40137V3.44043L9.68555 3.43066L9.73438 3.48926L9.67578 3.46973L9.63672 3.4502L9.61719 3.3916Z" fill="#D14877"/>
<path d="M21.3555 6.07715L21.3848 6.10645L21.375 6.13574L21.3555 6.10645V6.07715Z" fill="#CA4072"/>
</g>
<defs>
<clipPath id="clip0_1_1904">
<rect width="20" height="20" fill="white" transform="translate(2 2)"/>
</clipPath>
</defs>
</svg>
