<svg width="24" height="24" viewBox="0 0 24 24" fill="none" xmlns="http://www.w3.org/2000/svg">
<g clip-path="url(#clip0_1_1879)">
<path d="M12.0467 12.5231C11.9733 12.6274 11.9115 12.7132 11.852 12.7999C10.9029 14.1968 9.95412 15.5935 9.00565 16.9901C8.1233 18.2892 7.24003 19.5875 6.35584 20.885C6.34116 20.9054 6.32237 20.9224 6.30067 20.9351C6.27897 20.9477 6.25486 20.9556 6.2299 20.9583C4.98157 20.9476 3.73355 20.934 2.48584 20.9177C2.472 20.9177 2.4577 20.9136 2.43048 20.9094C2.44056 20.8834 2.45227 20.8579 2.46554 20.8333C3.3362 19.4835 4.20686 18.134 5.07752 16.7848C5.84977 15.5891 6.62248 14.3936 7.39565 13.1985C8.25247 11.8705 9.10883 10.5416 9.96473 9.2118C10.0911 9.01574 10.2226 8.82337 10.3425 8.62362C10.3733 8.57015 10.3825 8.50697 10.3684 8.44694C10.1377 7.7116 9.90245 6.9781 9.66764 6.2446C9.56707 5.93045 9.46189 5.61813 9.36778 5.30213C9.33734 5.20064 9.28705 5.16973 9.18326 5.17019C8.39901 5.17342 7.61939 5.1725 6.83745 5.1725C6.68891 5.1725 6.68845 5.1725 6.68845 5.0258C6.68845 4.06441 6.68845 3.10303 6.68568 2.14164C6.68568 2.03461 6.72074 2.01063 6.82131 2.01063C8.39563 2.01339 9.97026 2.01339 11.5452 2.01063C11.5818 2.00595 11.6188 2.01475 11.6494 2.03538C11.6799 2.05601 11.7019 2.08706 11.7113 2.12273C12.5417 4.21127 13.372 6.29904 14.2024 8.38604C15.1712 10.82 16.1399 13.2542 17.1087 15.6887C17.4095 16.4443 17.7126 17.1995 18.0101 17.957C18.0456 18.0493 18.0825 18.0668 18.1757 18.0382C19.001 17.7831 19.8282 17.5349 20.653 17.2793C20.7568 17.247 20.7946 17.2687 20.8269 17.3716C21.1083 18.2559 21.3953 19.1384 21.6804 20.0219C21.6901 20.0523 21.6974 20.0832 21.709 20.1257C21.6499 20.1473 21.5946 20.1718 21.5378 20.1875C19.6618 20.782 17.7868 21.3768 15.913 21.9719C15.8235 22 15.7967 21.9696 15.7667 21.8944C15.1944 20.444 14.6207 18.9942 14.0455 17.5451C13.483 16.126 12.9202 14.707 12.3571 13.288C12.2727 13.0749 12.1897 12.8608 12.1052 12.6477C12.0919 12.6113 12.0734 12.5794 12.0467 12.5231Z" fill="#FA7E14"/>
</g>
<defs>
<clipPath id="clip0_1_1879">
<rect width="19.544" height="20" fill="white" transform="translate(2.228 2)"/>
</clipPath>
</defs>
</svg>
