<svg width="24" height="24" viewBox="0 0 24 24" fill="none" xmlns="http://www.w3.org/2000/svg">
<g clip-path="url(#clip0_1_1891)">
<path d="M12 17.2918L19.6055 19.1027V4.85699L12 6.66784V17.2918Z" fill="#205B97"/>
<path d="M19.6055 4.85699L21.0542 5.58133V18.3783L19.6055 19.1027V4.85699ZM12 17.2918L4.39446 19.1027V4.85699L12 6.66784V17.2918Z" fill="#5193CE"/>
<path d="M4.39446 4.85699L2.94579 5.58133V18.3783L4.39446 19.1027V4.85699Z" fill="#205B97"/>
<path d="M13.9319 22L16.8293 20.5513V3.44867L13.9319 2L13.0461 11.4971L13.9319 22Z" fill="#5193CE"/>
<path d="M10.0681 22L7.17071 20.5513V3.44867L10.0681 2L10.9539 11.4971L10.0681 22Z" fill="#205B97"/>
<path d="M10.0681 2H13.9712V21.9596H10.0681V2Z" fill="#2E73B7"/>
</g>
<defs>
<clipPath id="clip0_1_1891">
<rect width="18.1084" height="20" fill="white" transform="translate(2.94579 2)"/>
</clipPath>
</defs>
</svg>
