<svg width="24" height="24" viewBox="0 0 24 24" fill="none" xmlns="http://www.w3.org/2000/svg">
<g clip-path="url(#clip0_1_1873)">
<path d="M7.70114 10.3965C7.70114 10.6377 7.72722 10.8332 7.77284 10.9766C7.82499 11.12 7.89017 11.2765 7.98143 11.446C8.01402 11.4981 8.02706 11.5502 8.02706 11.5959C8.02706 11.6611 7.98795 11.7262 7.90321 11.7914L7.49256 12.0652C7.43389 12.1043 7.37522 12.1239 7.32308 12.1239C7.25789 12.1239 7.19271 12.0913 7.12753 12.0326C7.03627 11.9348 6.95805 11.8305 6.89287 11.7262C6.82768 11.6154 6.7625 11.4916 6.6908 11.3417C6.18237 11.9413 5.54357 12.2412 4.7744 12.2412C4.22686 12.2412 3.79013 12.0848 3.47073 11.7719C3.15133 11.459 2.98837 11.0418 2.98837 10.5203C2.98837 9.96629 3.18392 9.51652 3.58154 9.17757C3.97916 8.83861 4.50715 8.66914 5.17854 8.66914C5.40016 8.66914 5.62831 8.68869 5.86948 8.72128C6.11066 8.75387 6.35836 8.80602 6.6191 8.86469V8.38885C6.6191 7.89345 6.5148 7.54798 6.31273 7.34591C6.10415 7.14384 5.75215 7.04607 5.25024 7.04607C5.0221 7.04607 4.78744 7.07214 4.54626 7.1308C4.30508 7.18947 4.07042 7.26117 3.84228 7.35243C3.73798 7.39806 3.65976 7.42413 3.61413 7.43717C3.56851 7.4502 3.53591 7.45672 3.50984 7.45672C3.41858 7.45672 3.37296 7.39154 3.37296 7.25465V6.93525C3.37296 6.83096 3.38599 6.75274 3.41858 6.70711C3.45118 6.66148 3.50984 6.61585 3.6011 6.57023C3.82924 6.4529 4.10301 6.35512 4.42241 6.2769C4.74181 6.19216 5.08076 6.15305 5.43927 6.15305C6.21496 6.15305 6.78205 6.32905 7.14708 6.68104C7.50559 7.03303 7.68811 7.56753 7.68811 8.28455V10.3965H7.70114ZM5.05469 11.3873C5.2698 11.3873 5.49142 11.3482 5.72608 11.27C5.96074 11.1917 6.16933 11.0483 6.34532 10.8528C6.44962 10.7289 6.52784 10.5921 6.56695 10.4356C6.60606 10.2792 6.63213 10.0901 6.63213 9.86851V9.59474C6.4431 9.54911 6.24103 9.51 6.03244 9.48393C5.82386 9.45786 5.62179 9.44482 5.41972 9.44482C4.98299 9.44482 4.66359 9.52956 4.44848 9.70555C4.23338 9.88155 4.12908 10.1292 4.12908 10.4552C4.12908 10.7615 4.2073 10.9897 4.37026 11.1461C4.5267 11.3091 4.75485 11.3873 5.05469 11.3873ZM10.2889 12.0913C10.1716 12.0913 10.0934 12.0717 10.0412 12.0261C9.98908 11.987 9.94346 11.8957 9.90435 11.7719L8.37253 6.73318C8.33342 6.60282 8.31387 6.51808 8.31387 6.47245C8.31387 6.36816 8.36601 6.30949 8.47031 6.30949H9.10911C9.23296 6.30949 9.31769 6.32905 9.36332 6.37468C9.41547 6.41379 9.45458 6.50504 9.49369 6.62889L10.5888 10.944L11.6056 6.62889C11.6382 6.49852 11.6773 6.41379 11.7295 6.37468C11.7816 6.33557 11.8729 6.30949 11.9902 6.30949H12.5117C12.6355 6.30949 12.7203 6.32905 12.7724 6.37468C12.8246 6.41379 12.8702 6.50504 12.8963 6.62889L13.9262 10.9962L15.0538 6.62889C15.093 6.49852 15.1386 6.41379 15.1842 6.37468C15.2364 6.33557 15.3211 6.30949 15.4384 6.30949H16.0446C16.1489 6.30949 16.2076 6.36164 16.2076 6.47245C16.2076 6.50504 16.2011 6.53763 16.1946 6.57674C16.188 6.61585 16.175 6.668 16.1489 6.7397L14.578 11.7784C14.5389 11.9088 14.4933 11.9935 14.4411 12.0326C14.389 12.0717 14.3042 12.0978 14.1934 12.0978H13.6328C13.509 12.0978 13.4243 12.0782 13.3721 12.0326C13.32 11.987 13.2743 11.9022 13.2483 11.7719L12.2379 7.56753L11.2341 11.7654C11.2015 11.8957 11.1624 11.9805 11.1102 12.0261C11.0581 12.0717 10.9668 12.0913 10.8495 12.0913H10.2889ZM18.665 12.2673C18.3261 12.2673 17.9871 12.2282 17.6612 12.1499C17.3353 12.0717 17.0811 11.987 16.9116 11.8892C16.8073 11.8305 16.7356 11.7654 16.7095 11.7067C16.6834 11.648 16.6704 11.5828 16.6704 11.5242V11.1917C16.6704 11.0549 16.7225 10.9897 16.8203 10.9897C16.8594 10.9897 16.8985 10.9962 16.9376 11.0092C16.9768 11.0223 17.0354 11.0483 17.1006 11.0744C17.3222 11.1722 17.5634 11.2504 17.8176 11.3026C18.0784 11.3547 18.3326 11.3808 18.5933 11.3808C19.004 11.3808 19.3234 11.3091 19.545 11.1657C19.7666 11.0223 19.8839 10.8137 19.8839 10.5464C19.8839 10.3639 19.8253 10.214 19.7079 10.0901C19.5906 9.96629 19.369 9.85548 19.0496 9.75118L18.1044 9.45786C17.6286 9.30793 17.2766 9.08631 17.0615 8.79298C16.8464 8.50618 16.7356 8.18678 16.7356 7.84782C16.7356 7.57405 16.7942 7.33287 16.9116 7.12429C17.0289 6.9157 17.1853 6.73318 17.3809 6.58978C17.5764 6.43986 17.7981 6.32905 18.0588 6.25083C18.3195 6.17261 18.5933 6.14001 18.8801 6.14001C19.0235 6.14001 19.1734 6.14653 19.3168 6.16609C19.4668 6.18564 19.6037 6.21172 19.7405 6.23779C19.8709 6.27038 19.9948 6.30297 20.1121 6.34208C20.2294 6.38119 20.3207 6.4203 20.3859 6.45941C20.4771 6.51156 20.5423 6.56371 20.5814 6.62237C20.6205 6.67452 20.6401 6.74622 20.6401 6.83748V7.14384C20.6401 7.28073 20.5879 7.35243 20.4902 7.35243C20.438 7.35243 20.3533 7.32636 20.2425 7.27421C19.8709 7.10473 19.4537 7.01999 18.9909 7.01999C18.6194 7.01999 18.3261 7.07866 18.124 7.20251C17.9219 7.32636 17.8176 7.51539 17.8176 7.78264C17.8176 7.96515 17.8828 8.12159 18.0132 8.24544C18.1435 8.36929 18.3847 8.49314 18.7302 8.60395L19.6558 8.89728C20.1251 9.0472 20.4641 9.25579 20.6661 9.52304C20.8682 9.79029 20.966 10.0967 20.966 10.4356C20.966 10.7159 20.9073 10.9701 20.7965 11.1917C20.6792 11.4134 20.5227 11.6089 20.3207 11.7654C20.1186 11.9283 19.8774 12.0456 19.5971 12.1304C19.3038 12.2216 18.9974 12.2673 18.665 12.2673Z" fill="#252F3E"/>
<path fill-rule="evenodd" clip-rule="evenodd" d="M19.897 15.4352C17.7524 17.0191 14.6367 17.86 11.9576 17.86C8.20305 17.86 4.82003 16.4716 2.26483 14.1641C2.06277 13.9816 2.24528 13.7339 2.48646 13.8773C5.25024 15.4808 8.65934 16.4521 12.1858 16.4521C14.565 16.4521 17.1788 15.9567 19.5841 14.9398C19.9426 14.7768 20.249 15.1745 19.897 15.4352Z" fill="#FF9900"/>
<path fill-rule="evenodd" clip-rule="evenodd" d="M20.79 14.4183C20.5162 14.0663 18.9779 14.2489 18.2804 14.3336C18.0718 14.3597 18.0392 14.1772 18.2283 14.0403C19.4537 13.1798 21.4679 13.4275 21.7026 13.7144C21.9372 14.0077 21.6374 16.0218 20.4902 16.9866C20.3142 17.1365 20.1447 17.0583 20.2229 16.8627C20.4836 16.2174 21.0638 14.7638 20.79 14.4183Z" fill="#FF9900"/>
</g>
<defs>
<clipPath id="clip0_1_1873">
<rect width="20" height="11.72" fill="white" transform="translate(2 6.14001)"/>
</clipPath>
</defs>
</svg>
