<svg width="24" height="24" viewBox="0 0 24 24" fill="none" xmlns="http://www.w3.org/2000/svg">
<g clip-path="url(#clip0_507_12450)">
<path d="M12.2328 13.3955C15.3153 13.3955 17.8142 10.8966 17.8142 7.81406C17.8142 4.73154 15.3153 2.23267 12.2328 2.23267C9.15024 2.23267 6.65137 4.73154 6.65137 7.81406C6.65137 10.8966 9.15024 13.3955 12.2328 13.3955Z" fill="#036C70"/>
<path d="M16.8839 18.0465C19.7095 18.0465 22.0001 15.7559 22.0001 12.9302C22.0001 10.1046 19.7095 7.81396 16.8839 7.81396C14.0582 7.81396 11.7676 10.1046 11.7676 12.9302C11.7676 15.7559 14.0582 18.0465 16.8839 18.0465Z" fill="#1A9BA1"/>
<path d="M12.93 21.7676C15.1135 21.7676 16.8835 19.9975 16.8835 17.8141C16.8835 15.6306 15.1135 13.8606 12.93 13.8606C10.7466 13.8606 8.97656 15.6306 8.97656 17.8141C8.97656 19.9975 10.7466 21.7676 12.93 21.7676Z" fill="#37C6D0"/>
<path opacity="0.1" d="M13.1628 7.26986V17.1954C13.1605 17.5403 12.9515 17.8502 12.6326 17.9815C12.5311 18.0244 12.4219 18.0466 12.3117 18.0466H8.98144C8.9768 17.9675 8.97679 17.8931 8.97679 17.814C8.97525 17.7364 8.97835 17.6588 8.9861 17.5815C9.07123 16.0947 9.98715 14.7829 11.3535 14.1908V13.3257C8.31257 12.8438 6.23802 9.98792 6.71991 6.94695C6.72326 6.92589 6.72671 6.90483 6.73029 6.88381C6.75344 6.72695 6.78607 6.57163 6.82797 6.4187H12.3117C12.781 6.42049 13.1611 6.80052 13.1628 7.26986Z" fill="black"/>
<path opacity="0.2" d="M11.8467 6.88379H6.73038C6.21354 9.91929 8.25531 12.799 11.2908 13.3159C11.3827 13.3315 11.475 13.3449 11.5676 13.3559C10.1257 14.0396 9.07503 15.9815 8.98573 17.5815C8.97799 17.6587 8.97488 17.7364 8.97642 17.814C8.97642 17.8931 8.97642 17.9675 8.98107 18.0466C8.98946 18.2029 9.00968 18.3584 9.04153 18.5117H11.8462C12.1911 18.5094 12.5009 18.3004 12.6322 17.9815C12.6752 17.8799 12.6973 17.7708 12.6973 17.6605V7.73495C12.6956 7.26579 12.3158 6.88584 11.8467 6.88379Z" fill="black"/>
<path opacity="0.2" d="M11.8466 6.88379H6.73034C6.21361 9.91957 8.25569 12.7994 11.2915 13.3162C11.3536 13.3267 11.4158 13.3363 11.4783 13.3447C10.0829 14.0777 9.07361 16.015 8.98616 17.5815H11.8466C12.3152 17.5779 12.6942 17.1989 12.6978 16.7303V7.73495C12.696 7.26561 12.316 6.88558 11.8466 6.88379Z" fill="black"/>
<path opacity="0.2" d="M11.3814 6.88379H6.73019C6.24226 9.7496 8.03799 12.5094 10.8558 13.2243C9.78883 14.4433 9.13442 15.9683 8.98601 17.5815H11.3814C11.8507 17.5797 12.2307 17.1996 12.2325 16.7303V7.73495C12.2323 7.26498 11.8513 6.88405 11.3814 6.88379Z" fill="black"/>
<path d="M2.85256 6.88379H11.38C11.8509 6.88379 12.2326 7.26549 12.2326 7.73635V16.2638C12.2326 16.7346 11.8509 17.1163 11.38 17.1163H2.85256C2.3817 17.1163 2 16.7346 2 16.2638V7.73635C2 7.26549 2.3817 6.88379 2.85256 6.88379Z" fill="url(#paint0_linear_507_12450)"/>
<path d="M5.80776 11.8958C5.60797 11.7633 5.44108 11.5869 5.31985 11.38C5.20239 11.1638 5.14385 10.9204 5.15008 10.6744C5.13962 10.3413 5.25202 10.016 5.46589 9.76048C5.69064 9.5046 5.98113 9.31511 6.30589 9.21257C6.67602 9.09074 7.0637 9.03071 7.45333 9.0349C7.96573 9.01617 8.47741 9.08782 8.96496 9.24653V10.3163C8.75312 10.188 8.52238 10.0938 8.28124 10.0372C8.01958 9.97306 7.7511 9.94089 7.4817 9.94141C7.19761 9.93098 6.91534 9.99073 6.65984 10.1154C6.46259 10.2004 6.33467 10.3945 6.33426 10.6093C6.33346 10.7396 6.38352 10.8651 6.4738 10.9591C6.58043 11.0699 6.70656 11.1601 6.84589 11.2251C7.00093 11.3023 7.23349 11.405 7.54357 11.5331C7.57771 11.5438 7.61099 11.5572 7.6431 11.5731C7.94828 11.6923 8.24269 11.8375 8.5231 12.007C8.73546 12.1379 8.91368 12.3174 9.04311 12.5307C9.1758 12.7725 9.24011 13.0459 9.22915 13.3214C9.2443 13.6634 9.13968 13.9999 8.93334 14.2731C8.72767 14.5241 8.45269 14.7092 8.14264 14.8051C7.77795 14.9195 7.39733 14.9747 7.01519 14.9689C6.67234 14.9704 6.32999 14.9424 5.99194 14.8851C5.70651 14.8384 5.42796 14.7566 5.16264 14.6414V13.5135C5.41625 13.6946 5.69959 13.83 5.99985 13.9135C6.2991 14.0068 6.61017 14.0566 6.92357 14.0614C7.21363 14.0798 7.50318 14.0183 7.76078 13.8838C7.94123 13.7819 8.05098 13.589 8.04637 13.3819C8.04757 13.2377 7.99055 13.0992 7.88823 12.9977C7.76098 12.8728 7.61366 12.7701 7.45242 12.694C7.26638 12.601 6.99242 12.4783 6.63056 12.3261C6.34269 12.2103 6.06706 12.0662 5.80776 11.8958Z" fill="white"/>
</g>
<defs>
<linearGradient id="paint0_linear_507_12450" x1="3.7776" y1="6.21762" x2="10.455" y2="17.7825" gradientUnits="userSpaceOnUse">
<stop stop-color="#058F92"/>
<stop offset="0.5" stop-color="#038489"/>
<stop offset="1" stop-color="#026D71"/>
</linearGradient>
<clipPath id="clip0_507_12450">
<rect width="20" height="19.5349" fill="white" transform="translate(2 2.23267)"/>
</clipPath>
</defs>
</svg>