<svg width="24" height="24" viewBox="0 0 24 24" fill="none" xmlns="http://www.w3.org/2000/svg">
<path d="M21.9083 6.06659C21.8538 6.02153 21.7847 5.9979 21.714 6.00015C21.521 6.00015 21.2715 6.13304 21.1378 6.19949C21.1145 6.21145 21.0965 6.22142 21.0839 6.22673C20.8594 6.33708 20.6145 6.39997 20.3646 6.41146C20.1077 6.41943 19.8862 6.43471 19.5994 6.46395C17.892 6.63937 17.1341 7.94439 16.4016 9.20623C16.0023 9.89263 15.5911 10.6016 15.0262 11.1518C14.9094 11.2652 14.7851 11.3706 14.6543 11.4674C14.0701 11.902 13.3361 12.2096 12.7626 12.4289C12.213 12.6382 11.6128 12.8276 11.0326 13.0097C10.5003 13.1764 10.0006 13.3339 9.53946 13.5054C9.3312 13.5824 9.1542 13.6416 8.9985 13.6934C8.57865 13.8329 8.27523 13.9339 7.83342 14.2356C7.66108 14.3539 7.48808 14.4815 7.36765 14.5772C7.01676 14.8573 6.70621 15.1844 6.44476 15.5493C6.2207 15.8854 5.96201 16.1972 5.67292 16.4795C5.57976 16.5706 5.41408 16.6124 5.16589 16.6124C4.87512 16.6124 4.52247 16.5526 4.14919 16.4888C3.76526 16.4224 3.36736 16.3559 3.02669 16.3559C2.74922 16.3559 2.53763 16.4011 2.3786 16.4928C2.3786 16.4928 2.11245 16.6483 2 16.849L2.11045 16.8995C2.28175 16.9919 2.44051 17.1058 2.58288 17.2384C2.73072 17.3751 2.89553 17.4924 3.07326 17.5872C3.13005 17.6098 3.18149 17.644 3.22431 17.6875C3.17773 17.754 3.10919 17.8437 3.038 17.9374C2.64409 18.4517 2.41453 18.7766 2.54628 18.9534C2.60779 18.9855 2.67648 19.0015 2.74589 18.9999C3.60424 18.9999 4.06468 18.7773 4.64823 18.4955C4.81723 18.4138 4.99156 18.3294 5.19118 18.243C5.53186 18.0955 5.89915 17.8596 6.28773 17.6105C6.80274 17.2782 7.33504 16.938 7.85072 16.7732C8.27552 16.6436 8.71807 16.5815 9.16219 16.5892C9.7098 16.5892 10.282 16.6623 10.8356 16.7327C11.2488 16.7859 11.676 16.8403 12.0952 16.8656C12.2582 16.8756 12.4093 16.8802 12.5556 16.8802C12.7519 16.881 12.9481 16.8706 13.1432 16.849L13.1898 16.833C13.4839 16.6523 13.6216 16.2649 13.7553 15.8902C13.8412 15.6496 13.913 15.433 14.0248 15.2921C14.0317 15.2852 14.0393 15.2789 14.0474 15.2735C14.0528 15.2706 14.059 15.2695 14.065 15.2704C14.071 15.2714 14.0766 15.2744 14.0807 15.2788C14.0807 15.2788 14.0807 15.2788 14.0807 15.2895C14.0102 16.7546 13.422 17.6849 12.8245 18.5115L12.4252 18.9388C12.4252 18.9388 12.9835 18.9388 13.3009 18.8165C14.46 18.4696 15.3356 17.7075 15.9724 16.4908C16.1295 16.1784 16.2699 15.8579 16.3929 15.5307C16.4036 15.5034 16.5047 15.4536 16.4947 15.5971C16.4947 15.639 16.4887 15.6855 16.4854 15.73C16.4854 15.7593 16.4814 15.7885 16.4801 15.8177C16.4634 16.0171 16.4135 16.4536 16.4135 16.4536L16.7715 16.2623C17.6365 15.7154 18.3019 14.6184 18.8049 12.908C19.0152 12.1964 19.1689 11.4887 19.3046 10.8647C19.467 10.1179 19.6074 9.47334 19.7704 9.22417C20.0219 8.83346 20.4058 8.569 20.7771 8.31251L20.9288 8.20752C21.3946 7.87994 21.8604 7.50185 21.9628 6.79751V6.78157C22.0427 6.26195 21.9795 6.12839 21.9083 6.06659Z" fill="white"/>
</svg>
