<svg width="100%" height="100%" viewBox="0 0 24 24" fill="none" xmlns="http://www.w3.org/2000/svg">
<path d="M23.8879 4.07409C23.8227 4.02037 23.7399 3.99268 23.6555 3.99636C23.4239 3.99636 23.1244 4.15346 22.9632 4.23774L22.8994 4.27047C22.629 4.40137 22.3347 4.47544 22.0345 4.48812C21.7269 4.49794 21.4618 4.51594 21.1165 4.55195C19.0708 4.76223 18.1585 6.32999 17.2797 7.8462C16.801 8.67099 16.3068 9.5277 15.6293 10.1823C15.4891 10.3182 15.3402 10.4448 15.1834 10.5611C14.4821 11.0824 13.6017 11.4547 12.9168 11.7181C12.2573 11.9702 11.5373 12.1968 10.8418 12.4161C10.2043 12.6166 9.60293 12.8064 9.0498 13.0118C8.80023 13.1042 8.5883 13.1754 8.40093 13.2376C7.89689 13.4013 7.53359 13.5265 7.00254 13.8922C6.79553 14.0338 6.58769 14.1868 6.44696 14.3013C6.02542 14.6377 5.65232 15.0306 5.33823 15.469C5.06814 15.8734 4.75601 16.248 4.40707 16.5867C4.29497 16.6963 4.09614 16.7504 3.7983 16.7504C3.44972 16.7504 3.02669 16.6783 2.57911 16.6022C2.11762 16.5204 1.64058 16.4427 1.23146 16.4427C0.899252 16.4427 0.644778 16.4967 0.454945 16.6063C0.454945 16.6063 0.13501 16.7929 0 17.0343L0.132556 17.094C0.338114 17.2055 0.528428 17.343 0.698782 17.5031C0.87652 17.6673 1.0745 17.8081 1.28792 17.9221C1.35605 17.9471 1.418 17.9864 1.46957 18.0375C1.41393 18.1193 1.3321 18.2248 1.24619 18.3377C0.77406 18.9555 0.498312 19.3458 0.656233 19.5586C0.731923 19.5979 0.816462 19.617 0.901707 19.6142C1.93106 19.6142 2.48419 19.3466 3.18379 19.0079C3.38672 18.9097 3.59292 18.8091 3.83839 18.7051C4.24751 18.5276 4.68773 18.2445 5.15495 17.945C5.76618 17.5465 6.40523 17.1374 7.02546 16.9402C7.53518 16.7847 8.06612 16.7102 8.59894 16.7193C9.25354 16.7193 9.9425 16.8068 10.6069 16.8919C11.102 16.9557 11.615 17.0212 12.1182 17.0515C12.3138 17.0629 12.4946 17.0686 12.6705 17.0686C12.9059 17.0693 13.1411 17.057 13.375 17.0318L13.4315 17.0122C13.7842 16.7954 13.9494 16.3298 14.1098 15.8797C14.2129 15.5901 14.2997 15.3299 14.4371 15.1646C14.4452 15.1565 14.454 15.1491 14.4633 15.1425C14.4698 15.1389 14.4772 15.1376 14.4845 15.1388C14.4918 15.14 14.4984 15.1436 14.5034 15.149C14.5034 15.149 14.5034 15.1531 14.5034 15.1621C14.4216 16.9222 13.713 18.0399 12.9962 19.0333L12.5175 19.5463C12.5175 19.5463 13.1877 19.5463 13.569 19.399C14.96 18.9833 16.0098 18.0669 16.774 16.6055C16.9625 16.2304 17.131 15.8455 17.2789 15.4526C17.292 15.4199 17.4123 15.3593 17.4008 15.5287C17.3967 15.5786 17.3934 15.6343 17.3894 15.6924C17.3894 15.7267 17.3894 15.7619 17.3828 15.7971C17.3632 16.0426 17.3051 16.5613 17.3051 16.5613L17.7347 16.3314C18.7706 15.6768 19.5692 14.3562 20.1747 12.3015C20.4267 11.4457 20.6116 10.5955 20.7744 9.84681C20.9692 8.94674 21.1369 8.17514 21.3292 7.87566C21.6311 7.40599 22.0918 7.08851 22.5378 6.78003C22.5983 6.7383 22.6597 6.6982 22.7194 6.65402C23.2799 6.26044 23.8371 5.80632 23.9599 4.95943V4.94061C24.0491 4.30893 23.9738 4.14773 23.8879 4.07409Z" fill="#003545"/>
</svg>
