<svg width="256" height="256" viewBox="0 0 256 256" fill="none" xmlns="http://www.w3.org/2000/svg">
<g clip-path="url(#clip0_5973_212657)">
<path d="M220.8 0H35.2C16 0 0 16 0 35.2V220.8C0 240 16 256 35.2 256H220.8C240 256 256 240 256 220.8V35.2C256 16 240 0 220.8 0Z" fill="#3E63DD"/>
<path d="M121.597 203.2C121.597 193.6 121.597 182.4 121.597 172.8C121.597 171.2 121.597 169.6 119.997 168C108.797 156.8 99.1969 147.2 87.9969 136C86.3969 134.4 86.3969 134.4 84.7969 134.4C75.1969 134.4 63.9969 134.4 54.3969 134.4H52.7969C55.9969 126.4 59.1969 118.4 65.5969 112C70.3969 105.6 75.1969 102.4 83.1969 100.8C86.3969 100.8 87.9969 100.8 91.1969 100.8C95.9969 100.8 100.797 100.8 103.997 100.8C105.597 100.8 105.597 100.8 107.197 99.1998C119.997 83.1998 135.997 70.3998 156.797 60.7998C167.997 55.9998 179.197 52.7998 191.997 52.7998C196.797 52.7998 201.597 52.7998 206.397 52.7998C206.397 59.1998 206.397 65.5998 206.397 73.5998C206.397 84.7998 201.597 95.9998 196.797 105.6C188.797 123.2 175.997 137.6 161.597 148.8C159.997 148.8 159.997 150.4 159.997 152C159.997 156.8 159.997 161.6 159.997 168C159.997 176 156.797 184 150.397 188.8C147.197 192 143.997 193.6 139.197 195.2C131.197 198.4 126.397 200 121.597 203.2ZM167.997 99.1998C167.997 92.7998 163.197 87.9998 156.797 87.9998C150.397 87.9998 143.997 92.7998 143.997 99.1998C143.997 105.6 150.397 112 156.797 112C163.197 112 167.997 105.6 167.997 99.1998Z" fill="#FDFDFE"/>
<path d="M96.0031 179.2C86.4031 190.4 73.6031 195.2 59.2031 198.4C60.8031 182.4 64.0031 169.6 76.8031 160C83.2031 166.4 89.6031 172.8 96.0031 179.2Z" fill="#FDFDFE"/>
</g>
<defs>
<clipPath id="clip0_5973_212657">
<rect width="256" height="256" fill="white"/>
</clipPath>
</defs>
</svg>
