<svg width="25" height="25" viewBox="0 0 25 25" fill="none" xmlns="http://www.w3.org/2000/svg">
<g clip-path="url(#clip0_1122_124237)">
<path fill-rule="evenodd" clip-rule="evenodd" d="M22.5 13.3091C22.5 13.8591 22.06 14.3091 21.5 14.3091H18.5V15.3091C18.5 15.8291 18.44 16.3391 18.31 16.8291L18.53 16.9591L21.02 18.4491C21.49 18.7291 21.64 19.3491 21.36 19.8191C21.08 20.2991 20.46 20.4491 19.99 20.1691L19.5 19.8791L17.84 18.8891L17.79 18.8591L17.48 18.6691C17.26 18.9791 17.02 19.2791 16.75 19.5491C15.99 20.3091 15.05 20.8391 14.04 21.0991C13.88 21.1491 13.71 21.1791 13.54 21.2091V18.5991C13.54 18.0491 13.09 17.5991 12.54 17.5991C11.99 17.5991 11.54 18.0491 11.54 18.5991V21.2291C11.35 21.1991 11.16 21.1491 10.97 21.0991C9.95 20.8391 9.02 20.3091 8.26 19.5491C7.99 19.2791 7.74 18.9791 7.53 18.6691L7.21 18.8591L5.58 19.8391L5.02 20.1691C4.54 20.4491 3.93 20.2991 3.64 19.8191C3.36 19.3491 3.52 18.7291 3.99 18.4491L6.48 16.9591L6.7 16.8291C6.57 16.3391 6.5 15.8291 6.5 15.3091V14.3091H3.5C2.95 14.3091 2.5 13.8591 2.5 13.3091C2.5 12.7591 2.95 12.3091 3.5 12.3091H6.5V12.2491C6.55 11.5091 6.71 10.7691 6.98 10.0791L6.55 9.79908L3.96 8.14908C3.5 7.84908 3.36 7.23908 3.66 6.76908C3.96 6.30908 4.58 6.16908 5.04 6.46908L7.49 8.03908L8.07 8.40908C8.21 8.33908 8.35 8.30908 8.5 8.30908H16.5C16.65 8.30908 16.8 8.33908 16.93 8.40908L17.51 8.03908L19.96 6.46908C20.43 6.16908 21.05 6.30908 21.35 6.76908C21.64 7.23908 21.51 7.84908 21.04 8.14908L18.45 9.80908L18.03 10.0791C18.3 10.7691 18.46 11.5091 18.5 12.2491V12.3091H21.5C22.06 12.3091 22.5 12.7591 22.5 13.3091Z" fill="#121212"/>
<path fill-rule="evenodd" clip-rule="evenodd" d="M15.85 7.19906H9.15002C9.62002 5.79906 10.94 4.78906 12.5 4.78906C14.06 4.78906 15.38 5.79906 15.85 7.19906Z" fill="#121212"/>
</g>
<defs>
<clipPath id="clip0_1122_124237">
<rect width="20" height="16.44" fill="white" transform="translate(2.5 4.78906)"/>
</clipPath>
</defs>
</svg>
