<svg width="14" height="14" viewBox="0 0 14 14" fill="none" xmlns="http://www.w3.org/2000/svg">
<g id="layers">
<g id="Union">
<path d="M6.28275 1.32756C6.73436 1.10175 7.26594 1.10175 7.71756 1.32756L11.9856 3.4616C12.738 3.8378 12.738 4.91152 11.9856 5.28772L7.71756 7.42177C7.26594 7.64758 6.73436 7.64758 6.28275 7.42177L2.01466 5.28772C1.26226 4.91152 1.26226 3.8378 2.01466 3.4616L6.28275 1.32756Z" fill="#D6409F"/>
<path d="M1.35032 10.0303C1.44845 9.80947 1.707 9.71003 1.92779 9.80816L6.70397 11.9309C6.8925 12.0147 7.10771 12.0147 7.29625 11.9309L12.0724 9.80816C12.2932 9.71003 12.5518 9.80947 12.6499 10.0303C12.748 10.2511 12.6486 10.5096 12.4278 10.6077L7.65162 12.7305C7.23684 12.9148 6.76338 12.9148 6.34859 12.7305L1.57242 10.6077C1.35162 10.5096 1.25218 10.2511 1.35032 10.0303Z" fill="#D6409F"/>
<path d="M1.92779 7.18316C1.707 7.08503 1.44845 7.18447 1.35032 7.40527C1.25218 7.62607 1.35162 7.88461 1.57242 7.98275L6.34859 10.1055C6.76338 10.2898 7.23684 10.2898 7.65162 10.1055L12.4278 7.98275C12.6486 7.88461 12.748 7.62607 12.6499 7.40527C12.5518 7.18447 12.2932 7.08503 12.0724 7.18316L7.29625 9.3059C7.10771 9.3897 6.8925 9.3897 6.70397 9.3059L1.92779 7.18316Z" fill="#D6409F"/>
</g>
</g>
</svg>
