<svg width="15" height="14" viewBox="0 0 15 14" fill="none" xmlns="http://www.w3.org/2000/svg">
  <path
    fillRule="evenodd"
    clipRule="evenodd"
    d="M0.488156 0.98132C0.800716 0.668759 1.22464 0.493164 1.66667 0.493164H13.3333C13.7754 0.493164 14.1993 0.668759 14.5118 0.98132C14.8244 1.29388 15 1.7178 15 2.15983V5.49316C15 5.93519 14.8244 6.35911 14.5118 6.67167C14.1993 6.98424 13.7754 7.15983 13.3333 7.15983H1.66667C1.22464 7.15983 0.800716 6.98424 0.488156 6.67167C0.175595 6.35912 0 5.93519 0 5.49316V2.15983C0 1.7178 0.175595 1.29388 0.488156 0.98132ZM13.3333 2.15983H1.66667L1.66667 5.49316H13.3333V2.15983ZM7.5 8.8265C7.96024 8.8265 8.33333 9.19959 8.33333 9.65983V10.4932H9.16667C9.6269 10.4932 10 10.8663 10 11.3265C10 11.7867 9.6269 12.1598 9.16667 12.1598H8.33333V12.9932C8.33333 13.4534 7.96024 13.8265 7.5 13.8265C7.03976 13.8265 6.66667 13.4534 6.66667 12.9932V12.1598H5.83333C5.3731 12.1598 5 11.7867 5 11.3265C5 10.8663 5.3731 10.4932 5.83333 10.4932H6.66667V9.65983C6.66667 9.19959 7.03976 8.8265 7.5 8.8265Z"
    fill="#3E63DD"
  />
</svg>