<svg width="10" height="12" viewBox="0 0 10 12" fill="none" xmlns="http://www.w3.org/2000/svg">
<path d="M3.48691 0.68602C3.70328 0.361455 4.06755 0.166504 4.45763 0.166504H5.5422C5.93228 0.166504 6.29655 0.361455 6.51293 0.68602L7.04159 1.479H9.22909C9.47071 1.479 9.66659 1.67488 9.66659 1.9165C9.66659 2.15813 9.47071 2.354 9.22909 2.354H0.770752C0.529127 2.354 0.333252 2.15813 0.333252 1.9165C0.333252 1.67488 0.529127 1.479 0.770752 1.479H2.95825L3.48691 0.68602Z" fill="#E54D2E"/>
<path fill-rule="evenodd" clip-rule="evenodd" d="M6.74992 11.8332H3.24992C1.96125 11.8332 0.916585 10.7885 0.916585 9.49984V3.08317H9.08325V9.49984C9.08325 10.7885 8.03858 11.8332 6.74992 11.8332ZM3.83325 4.979C4.07488 4.979 4.27075 5.17488 4.27075 5.4165V9.49984C4.27075 9.74146 4.07488 9.93734 3.83325 9.93734C3.59163 9.93734 3.39575 9.74146 3.39575 9.49984L3.39575 5.4165C3.39575 5.17488 3.59163 4.979 3.83325 4.979ZM6.16659 4.979C6.40821 4.979 6.60409 5.17488 6.60409 5.4165V9.49984C6.60409 9.74146 6.40821 9.93734 6.16659 9.93734C5.92496 9.93734 5.72909 9.74146 5.72909 9.49984V5.4165C5.72909 5.17488 5.92496 4.979 6.16659 4.979Z" fill="#E54D2E"/>
</svg>
