<svg xmlns="http://www.w3.org/2000/svg" width="14" height="14" viewBox="0 0 14 14" fill="none">
  <path d="M5.48715 1.68602C5.70353 1.36146 6.0678 1.1665 6.45788 1.1665H7.54245C7.93253 1.1665 8.2968 1.36146 8.51317 1.68602L9.04183 2.479H11.2293C11.471 2.479 11.6668 2.67488 11.6668 2.9165C11.6668 3.15813 11.471 3.354 11.2293 3.354H2.771C2.52937 3.354 2.3335 3.15813 2.3335 2.9165C2.3335 2.67488 2.52937 2.479 2.771 2.479H4.9585L5.48715 1.68602Z" fill="#E54D2E"/>
  <path fill-rule="evenodd" clip-rule="evenodd" d="M8.75016 12.8332H5.25016C3.9615 12.8332 2.91683 11.7885 2.91683 10.4998V4.08317H11.0835V10.4998C11.0835 11.7885 10.0388 12.8332 8.75016 12.8332ZM5.8335 5.979C6.07512 5.979 6.271 6.17488 6.271 6.4165V10.4998C6.271 10.7415 6.07512 10.9373 5.8335 10.9373C5.59187 10.9373 5.396 10.7415 5.396 10.4998L5.396 6.4165C5.396 6.17488 5.59187 5.979 5.8335 5.979ZM8.16683 5.979C8.40845 5.979 8.60433 6.17488 8.60433 6.4165V10.4998C8.60433 10.7415 8.40845 10.9373 8.16683 10.9373C7.92521 10.9373 7.72933 10.7415 7.72933 10.4998V6.4165C7.72933 6.17488 7.92521 5.979 8.16683 5.979Z" fill="#E54D2E"/>
</svg>