<svg width="13" height="14" viewBox="0 0 13 14" fill="none" xmlns="http://www.w3.org/2000/svg">
  <path
    fillRule="evenodd"
    clipRule="evenodd"
    d="M4.21605 0.883688C4.46609 0.63364 4.80523 0.493164 5.15885 0.493164H7.82552C8.17914 0.493164 8.51828 0.63364 8.76833 0.883688C9.01838 1.13374 9.15885 1.47288 9.15885 1.8265V3.15983H11.1511C11.1557 3.15978 11.1605 3.15978 11.1652 3.15983H11.8255C12.1937 3.15983 12.4922 3.45831 12.4922 3.8265C12.4922 4.19469 12.1937 4.49316 11.8255 4.49316H11.7723L11.1586 11.857C11.1507 12.3764 10.9409 12.8728 10.5731 13.2407C10.198 13.6158 9.68929 13.8265 9.15885 13.8265H3.82552C3.29509 13.8265 2.78638 13.6158 2.41131 13.2407C2.04343 12.8728 1.83367 12.3764 1.82575 11.857L1.2121 4.49316H1.15885C0.790664 4.49316 0.492188 4.19469 0.492188 3.8265C0.492188 3.45831 0.790664 3.15983 1.15885 3.15983H1.81921C1.82392 3.15978 1.82863 3.15978 1.83332 3.15983H3.82552V1.8265C3.82552 1.47288 3.966 1.13374 4.21605 0.883688ZM2.55005 4.49316L3.15655 11.7711C3.15809 11.7895 3.15885 11.808 3.15885 11.8265C3.15885 12.0033 3.22909 12.1729 3.35412 12.2979C3.47914 12.4229 3.64871 12.4932 3.82552 12.4932H9.15885C9.33566 12.4932 9.50523 12.4229 9.63026 12.2979C9.75528 12.1729 9.82552 12.0033 9.82552 11.8265C9.82552 11.808 9.82629 11.7895 9.82782 11.7711L10.4343 4.49316H2.55005ZM7.82552 3.15983H5.15885V1.8265H7.82552V3.15983ZM4.68745 7.63124C4.4271 7.37089 4.4271 6.94878 4.68745 6.68843C4.9478 6.42808 5.36991 6.42808 5.63026 6.68843L6.49219 7.55036L7.35412 6.68843C7.61447 6.42808 8.03658 6.42808 8.29693 6.68843C8.55728 6.94878 8.55728 7.37089 8.29693 7.63124L7.435 8.49316L8.29693 9.35509C8.55728 9.61544 8.55728 10.0376 8.29693 10.2979C8.03658 10.5583 7.61447 10.5583 7.35412 10.2979L6.49219 9.43597L5.63026 10.2979C5.36991 10.5583 4.9478 10.5583 4.68745 10.2979C4.4271 10.0376 4.4271 9.61544 4.68745 9.35509L5.54938 8.49316L4.68745 7.63124Z"
    fill="#E54D2E"
  />
</svg>