<svg width="8" height="13" viewBox="0 0 8 13" fill="none" xmlns="http://www.w3.org/2000/svg">
<path fill-rule="evenodd" clip-rule="evenodd" d="M6.00065 0.160156C6.73703 0.160156 7.33398 0.75711 7.33398 1.49349C7.33398 2.22987 6.73703 2.82682 6.00065 2.82682C5.26427 2.82682 4.66732 2.22987 4.66732 1.49349C4.66732 0.75711 5.26427 0.160156 6.00065 0.160156ZM6.00065 4.82682C6.73703 4.82682 7.33398 5.42378 7.33398 6.16016C7.33398 6.89654 6.73703 7.49349 6.00065 7.49349C5.26427 7.49349 4.66732 6.89654 4.66732 6.16016C4.66732 5.42378 5.26427 4.82682 6.00065 4.82682ZM6.00065 9.49349C6.73703 9.49349 7.33398 10.0904 7.33398 10.8268C7.33398 11.5632 6.73703 12.1602 6.00065 12.1602C5.26427 12.1602 4.66732 11.5632 4.66732 10.8268C4.66732 10.0904 5.26427 9.49349 6.00065 9.49349ZM2.00065 0.160156C2.73703 0.160156 3.33398 0.75711 3.33398 1.49349C3.33398 2.22987 2.73703 2.82682 2.00065 2.82682C1.26427 2.82682 0.667318 2.22987 0.667318 1.49349C0.667318 0.75711 1.26427 0.160156 2.00065 0.160156ZM2.00065 4.82682C2.73703 4.82682 3.33398 5.42378 3.33398 6.16016C3.33398 6.89654 2.73703 7.49349 2.00065 7.49349C1.26427 7.49349 0.667318 6.89654 0.667318 6.16016C0.667318 5.42378 1.26427 4.82682 2.00065 4.82682ZM2.00065 9.49349C2.73703 9.49349 3.33398 10.0904 3.33398 10.8268C3.33398 11.5632 2.73703 12.1602 2.00065 12.1602C1.26427 12.1602 0.667318 11.5632 0.667318 10.8268C0.667318 10.0904 1.26427 9.49349 2.00065 9.49349Z" fill="#11181C"/>
</svg>
  