<svg width="18" height="18" viewBox="0 0 18 18" fill="none" xmlns="http://www.w3.org/2000/svg">
<circle opacity="0.4" cx="8.99984" cy="8.99984" r="8.33333" fill="#E54D2E"/>
<path d="M9.83317 4.83333C9.83317 5.29357 9.46007 5.66667 8.99984 5.66667C8.5396 5.66667 8.1665 5.29357 8.1665 4.83333C8.1665 4.3731 8.5396 4 8.99984 4C9.46007 4 9.83317 4.3731 9.83317 4.83333Z" fill="#E54D2E"/>
<path fill-rule="evenodd" clip-rule="evenodd" d="M7.5415 7.33301C7.5415 6.98783 7.82133 6.70801 8.1665 6.70801H8.99984C9.34501 6.70801 9.62484 6.98783 9.62484 7.33301V13.1663C9.62484 13.5115 9.34501 13.7913 8.99984 13.7913C8.65466 13.7913 8.37484 13.5115 8.37484 13.1663V7.95801H8.1665C7.82133 7.95801 7.5415 7.67819 7.5415 7.33301Z" fill="#E54D2E"/>
</svg>
