<svg width="14" height="14" viewBox="0 0 14 14" fill="none" xmlns="http://www.w3.org/2000/svg">
<path d="M9.21613 1.60535C9.80126 1.02022 10.7499 1.02022 11.3351 1.60535L12.3946 2.66483C12.9797 3.24997 12.9797 4.19866 12.3946 4.78379L11.4552 5.72316C11.3814 5.68665 11.3039 5.64716 11.2234 5.60481C10.6819 5.31974 10.0394 4.91965 9.55984 4.4401C9.08029 3.96055 8.6802 3.318 8.39513 2.77652C8.35278 2.69606 8.31328 2.61847 8.27676 2.54472L9.21613 1.60535Z" fill="#C1C8CD"/>
<path d="M8.87238 5.12757C9.43984 5.69503 10.1615 6.14165 10.7331 6.44529L7.039 10.1394C6.80976 10.3686 6.51235 10.5173 6.19141 10.5632L3.96651 10.881C3.47208 10.9516 3.04829 10.5278 3.11892 10.0334L3.43677 7.80851C3.48261 7.48757 3.63132 7.19016 3.86056 6.96092L7.55464 3.26684C7.85827 3.83839 8.3049 4.56009 8.87238 5.12757Z" fill="#C1C8CD"/>
<path d="M1.65286 11.8609C1.38439 11.8609 1.16675 12.0786 1.16675 12.3471C1.16675 12.6155 1.38439 12.8332 1.65286 12.8332H12.3473C12.6158 12.8332 12.8334 12.6155 12.8334 12.3471C12.8334 12.0786 12.6158 11.8609 12.3473 11.8609H1.65286Z" fill="#C1C8CD"/>
</svg>
