<svg width="8" height="7" viewBox="0 0 8 7" fill="none" xmlns="http://www.w3.org/2000/svg">
<path fill-rule="evenodd" clip-rule="evenodd" d="M7.33301 0.578617C7.56313 0.578617 7.74967 0.765165 7.74967 0.995284V3.95825C7.74967 4.24776 7.65029 4.53519 7.45907 4.75529C7.26625 4.97725 6.9911 5.11565 6.68949 5.11565H2.00558L2.77578 5.88586C2.9385 6.04857 2.9385 6.31239 2.77578 6.47511C2.61307 6.63783 2.34925 6.63783 2.18653 6.47511L0.705047 4.99363C0.626906 4.91549 0.583008 4.80951 0.583008 4.699C0.583008 4.5885 0.626907 4.48252 0.705047 4.40438L2.18653 2.92289C2.34925 2.76018 2.61307 2.76018 2.77578 2.92289C2.9385 3.08561 2.9385 3.34943 2.77578 3.51215L2.00561 4.28232H6.68949C6.72922 4.28232 6.78144 4.26464 6.82998 4.20877C6.88013 4.15104 6.91634 4.06165 6.91634 3.95825V0.995284C6.91634 0.765165 7.10289 0.578617 7.33301 0.578617Z" fill="#889096"/>
</svg>
