<svg width="15" height="14" viewBox="0 0 15 14" fill="none" xmlns="http://www.w3.org/2000/svg">
<path d="M7.68767 11.1248C7.11708 11.6954 6.42961 11.9807 5.62528 11.9807C4.82094 11.9807 4.13348 11.6954 3.56288 11.1248C2.99229 10.5542 2.70699 9.86671 2.70699 9.06238C2.70699 8.25804 2.99229 7.57058 3.56288 6.99998L4.80032 5.76255C4.91719 5.64568 5.05468 5.58724 5.2128 5.58724C5.37092 5.58724 5.50841 5.64568 5.62528 5.76255C5.74215 5.87942 5.80058 6.01691 5.80058 6.17503C5.80058 6.33314 5.74215 6.47064 5.62528 6.5875L4.38784 7.82494C4.04411 8.16867 3.87224 8.58115 3.87224 9.06238C3.87224 9.5436 4.04411 9.95608 4.38784 10.2998C4.73157 10.6435 5.14405 10.8154 5.62528 10.8154C6.1065 10.8154 6.51898 10.6435 6.86271 10.2998L8.10015 9.06238C8.21702 8.94551 8.35451 8.88707 8.51263 8.88707C8.67075 8.88707 8.80824 8.94551 8.92511 9.06238C9.04198 9.17925 9.10041 9.31674 9.10041 9.47486C9.10041 9.63297 9.04198 9.77047 8.92511 9.88734L7.68767 11.1248ZM6.86271 8.6499C6.74585 8.76677 6.60835 8.8252 6.45024 8.8252C6.29212 8.8252 6.15463 8.76677 6.03776 8.6499C5.92089 8.53303 5.86245 8.39554 5.86245 8.23742C5.86245 8.0793 5.92089 7.94181 6.03776 7.82494L8.51263 5.35007C8.6295 5.2332 8.76699 5.17476 8.92511 5.17476C9.08323 5.17476 9.22072 5.2332 9.33759 5.35007C9.45446 5.46694 9.51289 5.60443 9.51289 5.76255C9.51289 5.92066 9.45446 6.05816 9.33759 6.17503L6.86271 8.6499ZM10.575 8.23742C10.4582 8.35429 10.3207 8.41272 10.1625 8.41272C10.0044 8.41272 9.86694 8.35429 9.75007 8.23742C9.6332 8.12055 9.57476 7.98306 9.57476 7.82494C9.57476 7.66682 9.6332 7.52933 9.75007 7.41246L10.9875 6.17503C11.3312 5.83129 11.5031 5.41881 11.5031 4.93759C11.5031 4.45636 11.3312 4.04388 10.9875 3.70015C10.6438 3.35642 10.2313 3.18455 9.75007 3.18455C9.26884 3.18455 8.85636 3.35642 8.51263 3.70015L7.27519 4.93759C7.15832 5.05446 7.02083 5.11289 6.86271 5.11289C6.7046 5.11289 6.5671 5.05446 6.45024 4.93759C6.33337 4.82072 6.27493 4.68323 6.27493 4.52511C6.27493 4.36699 6.33337 4.2295 6.45024 4.11263L7.68767 2.87519C8.25827 2.3046 8.94573 2.0193 9.75007 2.0193C10.5544 2.0193 11.2419 2.3046 11.8125 2.87519C12.3831 3.44579 12.6684 4.13325 12.6684 4.93759C12.6684 5.74192 12.3831 6.42939 11.8125 6.99998L10.575 8.23742Z" fill="#889096"/>
</svg>
