<svg width="25" height="24" viewBox="0 0 25 24" fill="none" xmlns="http://www.w3.org/2000/svg">
<path opacity="0.4" d="M19.0377 18.0953C17.9559 18.0953 17.0327 17.713 16.2681 16.9483C15.5034 16.1837 15.1211 15.2605 15.1211 14.1788V9.82181C15.1211 8.7401 15.5034 7.81692 16.2681 7.05227C17.0327 6.28761 17.9559 5.90527 19.0377 5.90527C20.1194 5.90527 21.0425 6.28761 21.8072 7.05227C22.5719 7.81692 22.9542 8.7401 22.9542 9.82181V14.1788C22.9542 15.2605 22.5719 16.1837 21.8072 16.9483C21.0425 17.713 20.1194 18.0953 19.0377 18.0953ZM19.0392 15.6824C19.4573 15.6824 19.8121 15.5362 20.1038 15.2439C20.3955 14.9515 20.5413 14.5965 20.5413 14.1788V9.82181C20.5413 9.40414 20.3949 9.04912 20.1023 8.75675C19.8096 8.46438 19.4542 8.31819 19.0361 8.31819C18.618 8.31819 18.2631 8.46438 17.9715 8.75675C17.6798 9.04912 17.534 9.40414 17.534 9.82181V14.1788C17.534 14.5965 17.6804 14.9515 17.973 15.2439C18.2657 15.5362 18.6211 15.6824 19.0392 15.6824Z" fill="#889096"/>
<path opacity="0.4" d="M10.3336 18.0953C9.25183 18.0953 8.32864 17.713 7.56399 16.9483C6.79933 16.1837 6.41699 15.2605 6.41699 14.1788V9.82181C6.41699 8.7401 6.79933 7.81692 7.56399 7.05227C8.32864 6.28761 9.25183 5.90527 10.3336 5.90527C11.4153 5.90527 12.3384 6.28761 13.1031 7.05227C13.8678 7.81692 14.2501 8.7401 14.2501 9.82181V14.1788C14.2501 15.2605 13.8678 16.1837 13.1031 16.9483C12.3384 17.713 11.4153 18.0953 10.3336 18.0953ZM10.3351 15.6824C10.7532 15.6824 11.108 15.5362 11.3997 15.2439C11.6914 14.9515 11.8372 14.5965 11.8372 14.1788V9.82181C11.8372 9.40414 11.6908 9.04912 11.3982 8.75675C11.1055 8.46438 10.7501 8.31819 10.332 8.31819C9.91392 8.31819 9.55904 8.46438 9.26738 8.75675C8.97573 9.04912 8.82991 9.40414 8.82991 9.82181V14.1788C8.82991 14.5965 8.97625 14.9515 9.26893 15.2439C9.56159 15.5362 9.91697 15.6824 10.3351 15.6824Z" fill="#889096"/>
<path d="M3.24837 18.0947H4.34342C4.68085 18.0947 4.96563 17.9787 5.19773 17.7466C5.42984 17.5145 5.5459 17.2297 5.5459 16.8923V15.7972C5.5459 15.4598 5.42984 15.175 5.19773 14.9429C4.96563 14.7108 4.68085 14.5947 4.34342 14.5947H3.24837C2.91094 14.5947 2.62617 14.7108 2.39406 14.9429C2.16195 15.175 2.0459 15.4598 2.0459 15.7972V16.8923C2.0459 17.2297 2.16195 17.5145 2.39406 17.7466C2.62617 17.9787 2.91094 18.0947 3.24837 18.0947Z" fill="#889096"/>
</svg>
