<svg width="10" height="11" viewBox="0 0 10 11" fill="none" xmlns="http://www.w3.org/2000/svg">
<path d="M5.01726 9.62489C4.44667 10.1955 3.7592 10.4808 2.95487 10.4808C2.15053 10.4808 1.46307 10.1955 0.892473 9.62489C0.321877 9.0543 0.0365791 8.36683 0.036579 7.5625C0.0365791 6.75817 0.321877 6.0707 0.892473 5.50011L2.12991 4.26267C2.24678 4.1458 2.38427 4.08736 2.54239 4.08736C2.70051 4.08736 2.838 4.1458 2.95487 4.26267C3.07174 4.37954 3.13017 4.51703 3.13017 4.67515C3.13017 4.83326 3.07174 4.97076 2.95487 5.08763L1.71743 6.32506C1.3737 6.6688 1.20183 7.08127 1.20183 7.5625C1.20183 8.04373 1.3737 8.4562 1.71743 8.79994C2.06116 9.14367 2.47364 9.31554 2.95487 9.31554C3.43609 9.31554 3.84857 9.14367 4.1923 8.79994L5.42974 7.5625C5.54661 7.44563 5.6841 7.3872 5.84222 7.3872C6.00034 7.3872 6.13783 7.44563 6.2547 7.5625C6.37157 7.67937 6.43 7.81686 6.43 7.97498C6.43 8.1331 6.37157 8.27059 6.2547 8.38746L5.01726 9.62489ZM4.1923 7.15002C4.07544 7.26689 3.93794 7.32532 3.77983 7.32532C3.62171 7.32532 3.48422 7.26689 3.36735 7.15002C3.25048 7.03315 3.19204 6.89566 3.19204 6.73754C3.19204 6.57943 3.25048 6.44193 3.36735 6.32506L5.84222 3.85019C5.95909 3.73332 6.09658 3.67489 6.2547 3.67489C6.41282 3.67489 6.55031 3.73332 6.66718 3.85019C6.78405 3.96706 6.84248 4.10455 6.84248 4.26267C6.84248 4.42079 6.78405 4.55828 6.66718 4.67515L4.1923 7.15002ZM7.90462 6.73754C7.78775 6.85441 7.65025 6.91285 7.49214 6.91285C7.33402 6.91285 7.19653 6.85441 7.07966 6.73754C6.96279 6.62067 6.90435 6.48318 6.90435 6.32506C6.90435 6.16695 6.96279 6.02945 7.07966 5.91258L8.31709 4.67515C8.66083 4.33142 8.83269 3.91894 8.83269 3.43771C8.83269 2.95648 8.66083 2.54401 8.31709 2.20027C7.97336 1.85654 7.56088 1.68467 7.07966 1.68468C6.59843 1.68468 6.18595 1.85654 5.84222 2.20027L4.60478 3.43771C4.48791 3.55458 4.35042 3.61301 4.1923 3.61301C4.03419 3.61301 3.89669 3.55458 3.77983 3.43771C3.66296 3.32084 3.60452 3.18335 3.60452 3.02523C3.60452 2.86711 3.66296 2.72962 3.77983 2.61275L5.01726 1.37532C5.58786 0.80472 6.27532 0.519422 7.07966 0.519422C7.88399 0.519422 8.57146 0.80472 9.14205 1.37532C9.71265 1.94591 9.99795 2.63338 9.99795 3.43771C9.99795 4.24204 9.71265 4.92951 9.14205 5.50011L7.90462 6.73754Z" fill="#3E63DD"/>
</svg>
