<svg width="12" height="12" viewBox="0 0 12 12" fill="none" xmlns="http://www.w3.org/2000/svg">
<path fill-rule="evenodd" clip-rule="evenodd" d="M11.8332 5.99996C11.8332 9.22162 9.2215 11.8333 5.99984 11.8333C2.77818 11.8333 0.166504 9.22162 0.166504 5.99996C0.166504 2.7783 2.77818 0.166626 5.99984 0.166626C9.2215 0.166626 11.8332 2.7783 11.8332 5.99996ZM6.58317 3.08329C6.58317 3.40546 6.322 3.66663 5.99984 3.66663C5.67767 3.66663 5.4165 3.40546 5.4165 3.08329C5.4165 2.76113 5.67767 2.49996 5.99984 2.49996C6.322 2.49996 6.58317 2.76113 6.58317 3.08329ZM5.4165 4.39579C5.17488 4.39579 4.979 4.59167 4.979 4.83329C4.979 5.07492 5.17488 5.27079 5.4165 5.27079H5.56234V8.91663C5.56234 9.15825 5.75821 9.35413 5.99984 9.35413C6.24146 9.35413 6.43734 9.15825 6.43734 8.91663V4.83329C6.43734 4.59167 6.24146 4.39579 5.99984 4.39579H5.4165Z" fill="#C1C8CD"/>
</svg>
