<svg width="24" height="24" viewBox="0 0 24 24" fill="none" xmlns="http://www.w3.org/2000/svg">
<path d="M9.10784 16.1376L8.29482 19.3768C8.23684 19.6213 8.11056 19.8213 7.91599 19.9765C7.72144 20.1318 7.49355 20.2094 7.23232 20.2094C6.8718 20.2094 6.57759 20.0665 6.34969 19.7806C6.12179 19.4947 6.05549 19.1799 6.15079 18.836L6.82687 16.1376H4.24534C3.86818 16.1376 3.56564 15.9915 3.33774 15.6993C3.10984 15.4071 3.04353 15.0808 3.13882 14.7202C3.1968 14.459 3.32941 14.2508 3.53664 14.0955C3.74389 13.9403 3.98013 13.8626 4.24534 13.8626H7.39264L8.32687 10.1376H5.74534C5.36818 10.1376 5.06564 9.99154 4.83774 9.69932C4.60984 9.40712 4.54353 9.08077 4.63882 8.72025C4.6968 8.45902 4.82941 8.25077 5.03664 8.09552C5.24389 7.94027 5.48013 7.86265 5.74534 7.86265H8.89264L9.70567 4.62352C9.76365 4.37896 9.88993 4.18004 10.0845 4.02677C10.279 3.87351 10.5069 3.79688 10.7682 3.79688C11.1287 3.79688 11.4229 3.93982 11.6508 4.2257C11.8787 4.51157 11.945 4.82642 11.8497 5.17025L11.1736 7.86265H14.8926L15.7057 4.62352C15.7637 4.37896 15.8899 4.18004 16.0845 4.02677C16.279 3.87351 16.5069 3.79688 16.7682 3.79688C17.1287 3.79688 17.4229 3.93982 17.6508 4.2257C17.8787 4.51157 17.945 4.82642 17.8497 5.17025L17.1736 7.86265H19.7551C20.1323 7.86265 20.4348 8.00876 20.6627 8.30098C20.8906 8.59317 20.957 8.91953 20.8617 9.28005C20.8037 9.54128 20.6711 9.74952 20.4638 9.90477C20.2566 10.06 20.0204 10.1376 19.7551 10.1376H16.6078L15.6736 13.8626H18.2551C18.6323 13.8626 18.9348 14.0088 19.1627 14.301C19.3906 14.5932 19.457 14.9195 19.3617 15.2801C19.3037 15.5413 19.1711 15.7495 18.9638 15.9048C18.7566 16.06 18.5204 16.1376 18.2551 16.1376H15.1078L14.2948 19.3768C14.2368 19.6213 14.1106 19.8213 13.916 19.9765C13.7214 20.1318 13.4936 20.2094 13.2323 20.2094C12.8718 20.2094 12.5776 20.0665 12.3497 19.7806C12.1218 19.4947 12.0555 19.1799 12.1508 18.836L12.8269 16.1376H9.10784ZM9.67362 13.8626H13.3926L14.3269 10.1376H10.6078L9.67362 13.8626Z" fill="#889096"/>
</svg>
