<svg width="12" height="13" viewBox="0 0 12 13" fill="none" xmlns="http://www.w3.org/2000/svg">
<path fill-rule="evenodd" clip-rule="evenodd" d="M4 1.85363V0.869629H3.91C3.597 0.869629 3.294 0.931629 3.001 1.05463C2.70938 1.17688 2.44569 1.3572 2.226 1.58463C2.0122 1.79951 1.84445 2.05573 1.733 2.33763V2.33863C1.63379 2.60631 1.56731 2.88499 1.535 3.16863V3.17063C1.50656 3.45736 1.49854 3.74576 1.511 4.03363C1.523 4.32363 1.529 4.61363 1.529 4.90263C1.529 5.10563 1.489 5.29563 1.412 5.47463C1.26524 5.82396 0.992032 6.10603 0.647 6.26263C0.47106 6.33947 0.280986 6.37864 0.089 6.37763H0V7.36163H0.0899999C0.285 7.36163 0.47 7.40163 0.646 7.48263L0.647 7.48363C0.825 7.56163 0.976 7.66763 1.102 7.80163L1.104 7.80363C1.234 7.93363 1.337 8.08863 1.411 8.26863L1.412 8.27063C1.49 8.45063 1.529 8.63863 1.529 8.83663C1.529 9.12663 1.523 9.41663 1.511 9.70563C1.499 10.0016 1.507 10.2906 1.535 10.5756C1.568 10.8586 1.634 11.1346 1.732 11.4006C1.838 11.6736 2.003 11.9256 2.226 12.1546C2.449 12.3846 2.708 12.5616 3.001 12.6846C3.294 12.8076 3.597 12.8696 3.911 12.8696H4V11.8856H3.91C3.71 11.8856 3.523 11.8476 3.347 11.7706C3.17724 11.6913 3.02259 11.583 2.89 11.4506C2.76128 11.3136 2.65679 11.1557 2.581 10.9836C2.507 10.8036 2.471 10.6136 2.471 10.4106C2.471 10.1826 2.474 9.95763 2.482 9.73863C2.49 9.51063 2.49 9.28863 2.482 9.07363C2.47848 8.85928 2.4601 8.64544 2.427 8.43363C2.39519 8.22472 2.3388 8.0203 2.259 7.82463C2.10336 7.446 1.84881 7.11616 1.522 6.86963C1.84918 6.62323 2.10408 6.29338 2.26 5.91463C2.34 5.72263 2.395 5.52163 2.428 5.31263C2.461 5.10263 2.479 4.88963 2.483 4.67263C2.491 4.45263 2.491 4.23063 2.483 4.00663C2.475 3.78263 2.471 3.55663 2.471 3.32863C2.46926 3.04201 2.55135 2.76114 2.70717 2.52058C2.86299 2.28001 3.08573 2.09025 3.348 1.97463C3.52458 1.89366 3.71675 1.85236 3.911 1.85363H4ZM8 11.8856V12.8696H8.09C8.403 12.8696 8.706 12.8076 8.999 12.6846C9.292 12.5616 9.551 12.3846 9.774 12.1546C9.997 11.9246 10.162 11.6746 10.267 11.4016C10.367 11.1356 10.432 10.8576 10.465 10.5706V10.5686C10.493 10.2886 10.501 10.0016 10.489 9.70563C10.477 9.41563 10.471 9.12563 10.471 8.83663C10.471 8.63363 10.511 8.44363 10.588 8.26463V8.26363C10.7346 7.91419 11.0079 7.63307 11.353 7.47663C11.529 7.3999 11.719 7.36073 11.911 7.36163H12V6.37763H11.91C11.714 6.37763 11.529 6.33763 11.353 6.25663L11.352 6.25563C11.1803 6.18164 11.0255 6.07344 10.897 5.93763L10.895 5.93563C10.7629 5.80251 10.6585 5.64444 10.588 5.47063V5.46863C10.5099 5.29018 10.4697 5.09744 10.47 4.90263C10.47 4.61263 10.476 4.32263 10.488 4.03363C10.5005 3.74343 10.4925 3.4527 10.464 3.16363C10.4316 2.88206 10.3654 2.60441 10.267 2.33863V2.33763C10.1553 2.05564 9.98716 1.79942 9.773 1.58463C9.55329 1.35723 9.28961 1.1769 8.998 1.05463C8.71019 0.932397 8.40069 0.869476 8.088 0.869629H8V1.85363H8.09C8.29 1.85363 8.477 1.89163 8.652 1.96863C8.826 2.05063 8.978 2.15663 9.109 2.28863C9.236 2.42263 9.339 2.57863 9.418 2.75563C9.492 2.93563 9.528 3.12563 9.528 3.32863C9.528 3.55663 9.525 3.78063 9.517 4.00063C9.509 4.22863 9.509 4.45063 9.517 4.66563C9.521 4.88763 9.539 5.10063 9.572 5.30563C9.605 5.51963 9.661 5.72163 9.74 5.91463C9.89596 6.29335 10.1509 6.62319 10.478 6.86963C10.1509 7.11607 9.89596 7.44591 9.74 7.82463C9.66079 8.01808 9.60441 8.22011 9.572 8.42663C9.539 8.63663 9.521 8.84963 9.517 9.06663C9.50892 9.28856 9.50892 9.5107 9.517 9.73263C9.525 9.95663 9.529 10.1826 9.529 10.4106C9.53061 10.6972 9.44847 10.978 9.29266 11.2186C9.13686 11.4591 8.91419 11.6489 8.652 11.7646C8.47542 11.8456 8.28325 11.8869 8.089 11.8856H8Z" fill="#889096"/>
</svg>
