<svg width="11" height="10" viewBox="0 0 11 10" fill="none" xmlns="http://www.w3.org/2000/svg">
<path fill-rule="evenodd" clip-rule="evenodd" d="M10.3262 0.125L7.32617 0.125C7.11906 0.125 6.95117 0.292894 6.95117 0.5C6.95117 0.707107 7.11906 0.875001 7.32617 0.875001L9.42084 0.875L4.56101 5.73483C4.41456 5.88128 4.41456 6.11872 4.56101 6.26516C4.70745 6.41161 4.94489 6.41161 5.09134 6.26516L9.95117 1.40533L9.95117 3.5C9.95117 3.7071 10.1191 3.875 10.3262 3.875C10.5333 3.875 10.7012 3.7071 10.7012 3.5L10.7012 0.5C10.7012 0.292893 10.5333 0.125 10.3262 0.125ZM3.32617 1.125C2.0145 1.125 0.951172 2.18832 0.951172 3.5V7.5C0.951172 8.81168 2.0145 9.875 3.32617 9.875H7.32617C8.63785 9.875 9.70117 8.81168 9.70117 7.5V5C9.70117 4.79289 9.53328 4.625 9.32617 4.625C9.11907 4.625 8.95117 4.79289 8.95117 5V7.5C8.95117 8.39746 8.22363 9.125 7.32617 9.125H3.32617C2.42871 9.125 1.70117 8.39746 1.70117 7.5V3.5C1.70117 2.60254 2.42871 1.875 3.32617 1.875H5.82617C6.03328 1.875 6.20117 1.70711 6.20117 1.5C6.20117 1.29289 6.03328 1.125 5.82617 1.125H3.32617Z" fill="#889096"/>
</svg>
