<svg width="20" height="20" viewBox="0 0 20 20" fill="none" xmlns="http://www.w3.org/2000/svg">
<rect x="0.5" y="0.5" width="19" height="19" rx="3.5" fill="white"/>
<rect x="0.5" y="0.5" width="19" height="19" rx="3.5" stroke="#D7DBDF"/>
<path d="M8.91931 6C8.91931 5.44772 9.38568 5 9.96098 5C10.5363 5 11.0026 5.44772 11.0026 6C11.0026 6.55228 10.5363 7 9.96098 7C9.38568 7 8.91931 6.55228 8.91931 6Z" fill="#889096"/>
<path d="M8.91931 10C8.91931 9.44774 9.38568 9.00002 9.96098 9.00002C10.5363 9.00002 11.0026 9.44774 11.0026 10C11.0026 10.5523 10.5363 11 9.96098 11C9.38568 11 8.91931 10.5523 8.91931 10Z" fill="#889096"/>
<path d="M9.96098 13C9.38568 13 8.91931 13.4478 8.91931 14C8.91931 14.5523 9.38568 15 9.96098 15C10.5363 15 11.0026 14.5523 11.0026 14C11.0026 13.4478 10.5363 13 9.96098 13Z" fill="#889096"/>
</svg>
