<svg width="11" height="9" viewBox="0 0 11 9" fill="none" xmlns="http://www.w3.org/2000/svg">
<path fill-rule="evenodd" clip-rule="evenodd" d="M7.13472 8.15727C6.90692 7.92946 6.90692 7.56012 7.13472 7.33231L8.47224 5.99479L3.46387 5.99479C2.69032 5.99479 1.94845 5.6875 1.40147 5.14052C0.854492 4.59354 0.547201 3.85167 0.547201 3.07812C0.547201 2.30458 0.854492 1.56271 1.40147 1.01573C1.94845 0.468748 2.69032 0.161457 3.46387 0.161457L4.0472 0.161457C4.36937 0.161457 4.63053 0.422624 4.63053 0.744791C4.63053 1.06696 4.36937 1.32812 4.0472 1.32812L3.46387 1.32812C2.99974 1.32812 2.55462 1.5125 2.22643 1.84069C1.89824 2.16888 1.71387 2.61399 1.71387 3.07812C1.71387 3.54225 1.89824 3.98737 2.22643 4.31556C2.55462 4.64375 2.99974 4.82812 3.46387 4.82812L8.47224 4.82812L7.13472 3.4906C6.90692 3.2628 6.90692 2.89345 7.13472 2.66565C7.36253 2.43784 7.73187 2.43784 7.95968 2.66565L10.293 4.99898C10.5208 5.22678 10.5208 5.59613 10.293 5.82394L7.95968 8.15727C7.73187 8.38508 7.36253 8.38508 7.13472 8.15727Z" fill="#C1C8CD"/>
</svg>
