<svg width="10" height="13" viewBox="0 0 10 13" fill="none" xmlns="http://www.w3.org/2000/svg">
<path fill-rule="evenodd" clip-rule="evenodd" d="M3.76587 0.0507665C4.01499 -0.0524209 4.30174 0.0046163 4.4924 0.195282C4.93065 0.633532 5.47937 1.59117 5.75122 2.68217C5.9784 3.59392 6.03525 4.69487 5.59319 5.72657C5.60711 5.72318 5.61881 5.7185 5.62937 5.71428C5.70723 5.68317 5.84694 5.59653 6.05234 5.36746C6.25544 5.14096 6.49553 4.806 6.78149 4.32566C6.89018 4.14309 7.07938 4.02326 7.29089 4.00304C7.5024 3.98283 7.71088 4.06464 7.85219 4.22331C8.23451 4.65261 8.60247 5.30465 8.87328 5.96112C9.14265 6.61409 9.35433 7.36396 9.35433 8.00002C9.35433 9.2377 8.86267 10.4247 7.98749 11.2999C7.11233 12.175 5.92534 12.6667 4.68766 12.6667C3.44999 12.6667 2.263 12.175 1.38783 11.2999C0.512661 10.4247 0.0209961 9.2377 0.0209961 8.00002C0.0209961 6.66037 0.59973 5.17139 1.54319 4.20177C1.56475 4.17965 1.58679 4.15706 1.60853 4.13479C2.42589 3.29731 3.35433 2.34602 3.35433 0.666686C3.35433 0.397045 3.51676 0.153954 3.76587 0.0507665ZM4.33438 2.58628C3.89782 3.70344 3.14602 4.47081 2.60087 5.02725C2.56582 5.06302 2.53163 5.09792 2.49843 5.13198C1.80722 5.84236 1.35433 6.993 1.35433 8.00002C1.35433 8.88407 1.70552 9.73192 2.33064 10.357C2.95576 10.9822 3.80361 11.3334 4.68766 11.3334C5.57172 11.3334 6.41956 10.9822 7.04469 10.357C7.66981 9.73192 8.021 8.88407 8.021 8.00002C8.021 7.61475 7.88068 7.05128 7.64071 6.46959C7.55319 6.25742 7.45756 6.05525 7.35936 5.87061C7.25319 6.01317 7.14861 6.14208 7.04505 6.25758C6.76476 6.57017 6.46334 6.81687 6.12413 6.95242C5.3517 7.26108 4.71458 6.88745 4.26276 6.51373C3.99828 6.29498 3.94312 5.91117 4.13527 5.62678C4.65692 4.85474 4.68192 3.90544 4.45744 3.00454C4.4214 2.8599 4.3798 2.72009 4.33438 2.58628Z" fill="#C1C8CD"/>
</svg>
