<svg width="15" height="15" viewBox="0 0 15 15" fill="none" xmlns="http://www.w3.org/2000/svg">
<path fill-rule="evenodd" clip-rule="evenodd" d="M6.63297 1.32631H7.87067C8.55423 1.32631 9.10836 1.84878 9.10836 2.49327C9.10836 3.23081 9.89749 3.69971 10.5453 3.34709L10.6111 3.31128C11.203 2.98903 11.96 3.18027 12.3018 3.73842L12.9206 4.74904C13.2624 5.30719 13.0596 6.02089 12.4676 6.34314C11.8195 6.69593 11.8195 7.62635 12.4676 7.97913C13.0596 8.30138 13.2624 9.01509 12.9206 9.57324L12.3018 10.5839C11.96 11.142 11.203 11.3332 10.6111 11.011L10.5453 10.9752C9.89749 10.6226 9.10836 11.0915 9.10836 11.829C9.10836 12.4735 8.55423 12.996 7.87067 12.996H6.63297C5.94941 12.996 5.39528 12.4735 5.39528 11.829C5.39528 11.0915 4.60616 10.6226 3.95838 10.9752L3.89259 11.011C3.30061 11.3333 2.54365 11.142 2.20187 10.5839L1.58302 9.57324C1.24124 9.01509 1.44407 8.30139 2.03605 7.97914C2.68413 7.62635 2.68413 6.69592 2.03605 6.34313C1.44407 6.02089 1.24124 5.30718 1.58302 4.74903L2.20187 3.73841C2.54365 3.18026 3.30061 2.98902 3.89259 3.31127L3.95838 3.34708C4.60616 3.6997 5.39528 3.23081 5.39528 2.49328C5.39528 1.84878 5.94941 1.32631 6.63297 1.32631ZM7.25183 9.10608C8.32599 9.10608 9.19677 8.2353 9.19677 7.16114C9.19677 6.08698 8.32599 5.21619 7.25183 5.21619C6.17766 5.21619 5.30688 6.08698 5.30688 7.16114C5.30688 8.2353 6.17766 9.10608 7.25183 9.10608Z" fill="#889096"/>
</svg>
