<svg width="13" height="8" viewBox="0 0 13 8" fill="none" xmlns="http://www.w3.org/2000/svg">
<path d="M4.48262 7.40904C5.36226 7.40904 6.12884 7.13311 6.78235 6.58127C7.43585 6.02943 7.83879 5.33661 7.99118 4.50283H12.066C12.2522 4.50283 12.4093 4.43879 12.5374 4.3107C12.6655 4.18262 12.7295 4.02548 12.7295 3.83928C12.7295 3.65308 12.6655 3.49594 12.5374 3.36786C12.4093 3.23978 12.2522 3.17574 12.066 3.17574H7.99118C7.83879 2.34195 7.43585 1.64914 6.78235 1.0973C6.12884 0.545453 5.36226 0.269531 4.48262 0.269531C3.48947 0.269531 2.64623 0.616207 1.95289 1.30956C1.25954 2.0029 0.912865 2.84614 0.912865 3.83928C0.912865 4.83243 1.25954 5.67567 1.95289 6.36901C2.64623 7.06236 3.48947 7.40904 4.48262 7.40904Z" fill="#889096"/>
</svg>
