<svg width="20" height="21" viewBox="0 0 20 21" fill="none" xmlns="http://www.w3.org/2000/svg">
<path fill-rule="evenodd" clip-rule="evenodd" d="M15.4168 10.2445V5.66113H16.6668V10.2445C16.6668 10.5896 16.387 10.8695 16.0418 10.8695C15.6966 10.8695 15.4168 10.5896 15.4168 10.2445Z" fill="#3E63DD"/>
<path d="M13.3335 8.99447V6.49447H6.66678V8.99447C6.66678 10.8354 8.15917 12.3278 10.0001 12.3278C11.8411 12.3278 13.3335 10.8354 13.3335 8.99447Z" fill="#3E63DD"/>
<path d="M3.35682 5.28038L8.98477 2.77907C9.63118 2.49177 10.3691 2.49177 11.0155 2.77907L16.6434 5.28038C16.9733 5.42702 16.9733 5.89526 16.6434 6.04189L11.0155 8.54321C10.3691 8.8305 9.63118 8.8305 8.98477 8.54321L3.35682 6.04189C3.02689 5.89526 3.02689 5.42702 3.35682 5.28038Z" fill="#3E63DD"/>
<path d="M11.9164 13.4941L10.5926 14.8327C10.2665 15.1625 9.73376 15.1625 9.40759 14.8327L8.08382 13.4941C7.87933 13.2873 7.58079 13.1992 7.30178 13.2812C4.96417 13.9687 3.33345 15.5219 3.33345 17.3278C3.33345 18.2483 4.07964 18.9945 5.00012 18.9945H15.0001C15.9206 18.9945 16.6668 18.2483 16.6668 17.3278C16.6668 15.5219 15.0361 13.9687 12.6985 13.2812C12.4194 13.1992 12.1209 13.2873 11.9164 13.4941Z" fill="#3E63DD"/>
</svg>
