<svg width="13" height="8" viewBox="0 0 13 8" fill="none" xmlns="http://www.w3.org/2000/svg">
<path d="M7.23845 7.37141C7.08838 7.46082 6.95174 7.44925 6.82852 7.3367C6.7053 7.22415 6.68491 7.09052 6.76735 6.93581L8.09125 4.50198H1.57663C1.39043 4.50198 1.23329 4.43794 1.10521 4.30986C0.977126 4.18178 0.913086 4.02464 0.913086 3.83844C0.913086 3.65224 0.977126 3.4951 1.10521 3.36702C1.23329 3.23894 1.39043 3.1749 1.57663 3.1749H8.09125L6.76735 0.741069C6.68491 0.586359 6.7053 0.452728 6.82852 0.340173C6.95174 0.227629 7.08838 0.216059 7.23845 0.305465L11.908 3.27634C12.1159 3.40928 12.2199 3.59665 12.2199 3.83844C12.2199 4.08023 12.1159 4.2676 11.908 4.40054L7.23845 7.37141Z" fill="#889096"/>
</svg>
