<svg width="24" height="24" viewBox="0 0 24 24" fill="none" xmlns="http://www.w3.org/2000/svg">
<path opacity="0.4" fill-rule="evenodd" clip-rule="evenodd" d="M8.72616 3.35712C8.30499 3.35712 7.93786 3.64377 7.83572 4.05237L5.32515 14.0947H8.72616C9.37708 14.0947 9.90473 14.6223 9.90473 15.2732C9.90473 15.9241 9.37708 16.4518 8.72616 16.4518H4.73587L3.32221 22.1063C3.16434 22.7379 2.52446 23.1218 1.893 22.9638C1.26153 22.8061 0.877601 22.1662 1.03547 21.5346L2.66633 15.0113C2.6701 14.9946 2.67423 14.9781 2.67871 14.9617L5.54898 3.48068C5.91346 2.02276 7.22339 1 8.72616 1C10.2289 1 11.5389 2.02277 11.9034 3.48068L12.734 6.80321C12.8919 7.43468 12.5079 8.07456 11.8765 8.23243C11.245 8.39029 10.6051 8.00636 10.4473 7.3749L9.61662 4.05237C9.51446 3.64377 9.14734 3.35712 8.72616 3.35712Z" fill="#889096"/>
<path fill-rule="evenodd" clip-rule="evenodd" d="M16.9107 11.5417C16.8268 11.5417 16.7521 11.595 16.725 11.6744L14.9596 16.8231H18.8618L17.0964 11.6744C17.0693 11.595 16.9946 11.5417 16.9107 11.5417ZM21.6176 17.5934L19.3261 10.9099C18.9722 9.8778 18.0017 9.18457 16.9107 9.18457C15.8196 9.18457 14.8491 9.8778 14.4952 10.9099L12.2037 17.5934C12.1974 17.6105 12.1915 17.6278 12.1859 17.6452L10.8853 21.4388C10.6742 22.0545 11.0022 22.7247 11.6179 22.9359C12.2337 23.1469 12.9039 22.819 13.115 22.2031L14.1515 19.1802H19.6698L20.7063 22.2031C20.9173 22.819 21.5877 23.1469 22.2034 22.9359C22.8191 22.7247 23.1472 22.0545 22.936 21.4388L21.6355 17.6452C21.6298 17.6278 21.624 17.6105 21.6176 17.5934Z" fill="#889096"/>
</svg>
