<svg width="24" height="24" viewBox="0 0 24 24" fill="none" xmlns="http://www.w3.org/2000/svg">
<path opacity="0.4" fill-rule="evenodd" clip-rule="evenodd" d="M6.99843 3.24707C4.92662 3.24707 3.24707 4.92662 3.24707 6.99843C3.24707 9.07024 4.92662 10.7498 6.99843 10.7498H17.0021C19.0739 10.7498 20.7534 9.07024 20.7534 6.99843C20.7534 4.92662 19.0739 3.24707 17.0021 3.24707H6.99843ZM6.99843 13.2507C4.92662 13.2507 3.24707 14.9302 3.24707 17.0021C3.24707 19.0739 4.92662 20.7534 6.99843 20.7534H17.0021C19.0739 20.7534 20.7534 19.0739 20.7534 17.0021C20.7534 14.9302 19.0739 13.2507 17.0021 13.2507H6.99843Z" fill="#889096"/>
<path fill-rule="evenodd" clip-rule="evenodd" d="M16.3766 8.87343C17.4126 8.87343 18.2523 8.03366 18.2523 6.99775C18.2523 5.96184 17.4126 5.12207 16.3766 5.12207C15.3408 5.12207 14.501 5.96184 14.501 6.99775C14.501 8.03366 15.3408 8.87343 16.3766 8.87343ZM7.62373 18.877C8.65964 18.877 9.49941 18.0372 9.49941 17.0014C9.49941 15.9655 8.65964 15.1257 7.62373 15.1257C6.58783 15.1257 5.74805 15.9655 5.74805 17.0014C5.74805 18.0372 6.58783 18.877 7.62373 18.877Z" fill="#889096"/>
</svg>
