<svg width="15" height="14" viewBox="0 0 15 14" fill="none" xmlns="http://www.w3.org/2000/svg">
<path d="M6.42676 2.33329C6.42676 1.68896 6.97086 1.16663 7.64204 1.16663C8.31322 1.16663 8.85731 1.68896 8.85731 2.33329C8.85731 2.97762 8.31322 3.49996 7.64204 3.49996C6.97086 3.49996 6.42676 2.97762 6.42676 2.33329Z" fill="#889096"/>
<path d="M6.42676 6.99999C6.42676 6.35565 6.97086 5.83332 7.64204 5.83332C8.31322 5.83332 8.85731 6.35565 8.85731 6.99999C8.85731 7.64432 8.31322 8.16665 7.64204 8.16665C6.97086 8.16665 6.42676 7.64432 6.42676 6.99999Z" fill="#889096"/>
<path d="M7.64204 10.5C6.97086 10.5 6.42676 11.0223 6.42676 11.6667C6.42676 12.311 6.97086 12.8333 7.64204 12.8333C8.31322 12.8333 8.85731 12.311 8.85731 11.6667C8.85731 11.0223 8.31322 10.5 7.64204 10.5Z" fill="#889096"/>
</svg>
