<svg width="24" height="24" viewBox="0 0 24 24" fill="none" xmlns="http://www.w3.org/2000/svg">
<g clip-path="url(#clip0_677_52167)">
<path d="M9.38596 13.8448H5.69482L5.69654 10.1555H9.38783L9.38596 13.8448Z" fill="#1C1C1B"/>
<path d="M13.0754 17.5341H9.38428L9.386 13.8448H13.0772L13.0754 17.5341Z" fill="#1C1C1B"/>
<path d="M13.0772 13.8448H9.38599L9.38778 10.1555H13.079L13.0772 13.8448Z" fill="#1C1C1B"/>
<path d="M16.7684 13.8449H13.0772L13.0789 10.1556H16.7702L16.7684 13.8449ZM9.38784 10.1554H5.69663L5.69835 6.46606H9.38968L9.38784 10.1554ZM16.7701 10.1554H13.079L13.0807 6.46606H16.772L16.7701 10.1554ZM5.69483 13.8448H2.00366L2.00538 10.0942H5.69663L5.69483 13.8448Z" fill="#1C1C1B"/>
<path d="M5.69658 10.1554H2.00537L2.00717 6.46606H5.69842L5.69658 10.1554Z" fill="#1C1C1B"/>
<path d="M5.69835 6.5274H2.00714L2.0089 2.77673H5.70022L5.69835 6.5274ZM20.4631 6.46603H16.7719L16.7736 2.77673H20.4649L20.4631 6.46603ZM5.69288 17.5954H2.00171L2.00343 13.7834H5.69472L5.69288 17.5954Z" fill="#1C1C1B"/>
<path d="M5.69121 21.2236H2L2.00172 17.5343H5.69297L5.69121 21.2236ZM20.4595 13.8449H16.7684L16.7701 10.1556H20.4613L20.4595 13.8449ZM20.4613 10.1554H16.7701L16.7718 6.46606H20.4632L20.4613 10.1554Z" fill="#1C1C1B"/>
<path d="M20.4578 17.5341H16.7666L16.7683 13.8448H20.4596L20.4578 17.5341Z" fill="#1C1C1B"/>
<path d="M20.4558 21.2234H16.7646L16.7664 17.4728H20.4576L20.4558 21.2234Z" fill="#1C1C1B"/>
<path d="M10.9208 13.8446H7.16846L7.17025 10.1553H10.9229L10.9208 13.8446Z" fill="#FF7000"/>
<path d="M14.6104 17.5338H10.9192L10.9209 13.7831H14.6122L14.6104 17.5338Z" fill="#FF4900"/>
<path d="M14.6735 13.8446H10.8596L10.8614 10.1553H14.6754L14.6735 13.8446Z" fill="#FF7000"/>
<path d="M18.3648 13.8446H14.6123L14.6141 10.1553H18.3666L18.3648 13.8446Z" fill="#FF7000"/>
<path d="M10.9229 10.1551H7.17041L7.17217 6.46582H10.9247L10.9228 10.1551L10.9229 10.1551ZM18.3667 10.1551H14.6142L14.6159 6.46582H18.3686L18.3667 10.1551Z" fill="#FFA300"/>
<path d="M7.22987 13.9058H3.53882L3.54054 10.1552H7.23179L7.22987 13.9058Z" fill="#FF7000"/>
<path d="M7.23162 10.1551H3.54053L3.54225 6.42676H7.2335L7.23162 10.1551Z" fill="#FFA300"/>
<path d="M7.23333 6.46586H3.54224L3.54396 2.77649H7.23524L7.23333 6.46586ZM21.9981 6.50493H18.307L18.3087 2.77649H22L21.9981 6.50493Z" fill="#FFCE00"/>
<path d="M7.22792 17.6119H3.53687L3.53858 13.8445H7.22983L7.22792 17.6119Z" fill="#FF4900"/>
<path d="M7.22617 21.2233H3.53516L3.53688 17.5339H7.22812L7.22621 21.2233H7.22617Z" fill="#FF0107"/>
<path d="M21.9947 13.8446H18.3035L18.3053 10.1553H21.9965L21.9947 13.8446Z" fill="#FF7000"/>
<path d="M21.9963 10.1551H18.3052L18.3069 6.46582H21.9981L21.9963 10.1551Z" fill="#FFA300"/>
<path d="M21.9929 17.5729H18.3018L18.3035 13.8445H21.9947L21.9929 17.5729Z" fill="#FF4900"/>
<path d="M21.9911 21.2233H18.2998L18.3016 17.5339H21.9929L21.9911 21.2233Z" fill="#FF0107"/>
</g>
<defs>
<clipPath id="clip0_677_52167">
<rect width="20" height="20" fill="white" transform="translate(2 2)"/>
</clipPath>
</defs>
</svg>