<?xml version="1.0" encoding="utf-8"?>
<!-- Generator: Adobe Illustrator 19.0.0, SVG Export Plug-In . SVG Version: 6.00 Build 0)  -->
<svg version="1.1" id="Layer_1" xmlns="http://www.w3.org/2000/svg" xmlns:xlink="http://www.w3.org/1999/xlink" x="0px" y="0px"
	 viewBox="0 0 500 500" style="enable-background:new 0 0 500 500;" xml:space="preserve">
<style type="text/css">
	.st0{fill:#FFBF00;}
	.st1{fill:#26B5F8;}
	.st2{fill:#ED3049;}
	.st3{fill:#B22437;}
</style>
<g id="XMLID_1_">
	<path id="XMLID_2_" class="st0" d="M230.5,101.2L94.4,157.5c-7.6,3.1-7.5,13.9,0.1,16.9l136.7,54.2c12,4.8,25.4,4.8,37.4,0
		l136.7-54.2c7.6-3,7.7-13.8,0.1-16.9l-136.1-56.3C256.8,96,242.9,96,230.5,101.2"/>
	<path id="XMLID_3_" class="st1" d="M262,258.2v135.4c0,6.4,6.5,10.8,12.5,8.5l152.3-59.1c3.5-1.4,5.8-4.7,5.8-8.5V199.1
		c0-6.4-6.5-10.8-12.5-8.5l-152.3,59.1C264.3,251.1,262,254.4,262,258.2"/>
	<path id="XMLID_4_" class="st2" d="M226.4,265.2L181.2,287l-4.6,2.2l-95.4,45.7c-6,2.9-13.8-1.5-13.8-8.2V199.6
		c0-2.4,1.2-4.5,2.9-6.1c0.7-0.7,1.5-1.3,2.3-1.7c2.3-1.4,5.5-1.7,8.3-0.6l144.7,57.3C233,251.4,233.6,261.7,226.4,265.2"/>
	<path id="XMLID_5_" class="st3" d="M77.6,190.5c-1.8,0-3.5,0.5-4.8,1.3c-0.8,0.5-1.6,1-2.3,1.7L181.2,287l45.2-21.8
		c3.4-1.7,5.1-4.9,5.1-8.1c0-3.5-2-7.1-5.8-8.6L81,191.2C79.9,190.7,78.7,190.5,77.6,190.5"/>
</g>
</svg>
