<svg width="1478.201px" height="1478.201px" viewBox="0 -141.54 1478.201 1478.201" xmlns="http://www.w3.org/2000/svg"><g transform="matrix(.569 0 0 .569 199.451 -82.735)"><linearGradient id="a" gradientUnits="userSpaceOnUse" x1="-2901.952" y1="923.573" x2="-2061.249" y2="1420.331" gradientTransform="matrix(.1234 0 0 -.1234 1158.33 1550.273)"><stop offset="0" stop-color="#909ca9"/><stop offset="1" stop-color="#ededee"/></linearGradient><path fill="url(#a)" d="M1410.773 814.195l-286.9 93.683-249.599 110.161-69.829 18.435c-17.784 16.916-36.431 34.049-56.599 51.397-22.119 19.082-42.72 36.433-58.553 49.008-17.564 13.88-43.587 39.902-56.814 56.38-19.735 24.721-35.348 50.96-42.071 71.13-11.928 36.433-6.07 73.297 16.916 107.346 29.492 43.369 88.261 87.606 156.785 117.749 34.916 15.4 93.683 35.132 137.92 46.19 73.512 18.651 215.771 38.819 294.054 41.857 15.828.65 37.082.65 37.947 0 1.737-1.088 13.881-24.289 27.979-53.129 48.142-98.238 82.838-190.402 101.703-269.119 11.276-47.706 20.166-111.246 26.019-186.492 1.521-21.036 2.169-91.514.868-115.37-1.953-39.033-5.423-70.692-10.84-101.703-.868-4.555-1.088-8.676-.652-8.892.865-.65 3.467-1.517 38.815-11.712l-7.153-16.912v-.005h.004zm-65.49 38.386c2.602 0 9.539 66.573 11.273 108.646.436 8.89.216 14.745-.216 14.745-1.733 0-36.649-20.599-61.583-36.212-21.687-13.663-62.888-40.988-69.393-46.192-2.173-1.517-1.957-1.733 15.828-7.807 30.14-10.194 101.706-33.18 104.091-33.18zm-146.161 48.143c1.953 0 6.937 2.816 18.865 10.191 44.671 27.974 105.393 61.805 131.415 73.083 8.022 3.469 8.887 2.166-9.542 14.746-39.468 26.889-88.697 53.344-148.983 80.018-10.624 4.771-19.514 8.456-19.73 8.456-.432 0 .865-5.418 2.598-11.925 14.53-54.001 22.772-108.647 23.208-152.452.216-21.687.216-21.687 2.169-22.334-.436.217-.22.217 0 .217zm-30.142 11.492c1.297 1.299.432 49.877-1.304 63.104-3.903 31.662-9.975 61.153-19.947 94.335-2.386 8.018-4.558 14.745-4.987 15.177-.872 1.083-30.581-27.975-40.339-39.251-16.916-19.518-30.141-39.035-39.9-58.117-4.988-9.759-12.793-28.84-12.144-29.492 3.469-2.385 117.753-46.622 118.621-45.756zm-141.826 55.731c.216 0 .432 0 .652.216.432.434 1.953 3.905 3.254 7.807 6.937 18.867 22.548 46.624 35.997 64.407 14.746 19.518 34.048 40.334 50.091 53.996 5.207 4.337 9.975 8.456 10.624 9.108 1.304 1.302 1.737 1.083-33.612 14.53-40.981 15.613-85.656 31.226-136.835 47.706a6825.474 6825.474 0 0 0-36.643 11.928c-1.955.652-1.303-.434 4.335-9.323 25.371-39.686 63.97-117.536 85.657-172.618 3.687-9.542 7.373-19.082 8.025-21.251.868-3.038 1.95-4.121 4.768-5.64 1.518-.43 3.038-.866 3.687-.866zm-43.367 17.999c.649.436-10.411 23.637-21.254 44.889-21.036 40.985-44.022 81.323-74.815 130.331-5.204 8.456-10.19 16.265-10.842 17.132-1.083 1.519-1.519 1.083-4.988-5.638-7.373-14.53-13.447-33.181-16.699-50.313-3.254-16.916-2.602-46.406 1.086-64.621 2.816-13.444 2.602-13.227 9.107-16.481 27.757-14.095 117.537-56.166 118.405-55.299zm374.073 15.182v9.107c0 48.359-5.204 114.716-12.797 163.077-1.301 8.456-2.389 15.393-2.602 15.613 0 0-6.288-1.733-13.661-3.905-32.527-10.193-67.875-25.156-99.754-42.718-21.038-11.494-51.612-30.363-50.743-31.231.213-.215 9.323-4.986 19.947-10.625 42.509-22.118 83.274-45.972 118.622-69.609 13.229-8.892 33.176-23.202 37.518-27.107l3.47-2.602zm-537.802 64.185c.867 0 .65 1.735-.651 9.542-.868 5.64-1.951 16.049-2.382 23.202-1.739 31.662 3.469 55.084 19.082 87.177 4.337 8.892 7.809 16.265 7.589 16.48-1.519 1.303-145.074 43.375-190.183 55.734-13.444 3.685-25.152 6.939-26.024 7.153-1.515.436-1.733.22-1.083-3.47 4.987-31.875 29.276-73.512 63.104-108.644 22.554-23.419 40.554-37.08 71.347-54.648 22.119-12.575 56.165-31.439 58.767-32.309.002-.217.218-.217.434-.217zm338.295 60.503c.216-.216 5.42 2.605 11.708 6.29 46.408 26.891 111.03 51.83 166.108 64.623l4.991 1.086-6.941 3.899c-28.84 16.049-123.606 55.515-220.538 91.732-14.098 5.202-27.975 10.409-30.581 11.492-2.602 1.083-4.988 1.735-4.988 1.519 0-.22 3.906-7.809 8.89-17.132 27.107-50.744 54.433-112.547 68.311-155.485 1.739-4.12 2.82-7.805 3.04-8.024zm-34.48 11.278c.22.221-1.517 4.771-3.687 9.975-18.865 45.756-43.59 95.636-75.249 151.583-8.022 14.314-14.746 25.808-14.966 25.808-.213 0-6.721-3.906-14.527-8.676-45.976-28.192-86.743-62.888-113.414-96.501l-3.905-4.771 19.732-5.422c70.696-19.298 130.762-40.116 190.4-65.704 8.459-3.471 15.4-6.292 15.616-6.292zm214.253 74.815s.217.217 0 0c.216 4.988-10.844 49.661-19.953 81.969-7.589 27.107-14.098 48.361-26.022 85.874-5.204 16.485-9.755 30.143-9.975 30.143-.216 0-1.517-.216-2.818-.647-64.405-11.714-122.089-27.977-176.303-49.661-15.182-6.074-36.866-15.833-38.167-16.916-.432-.438 12.58-6.506 29.06-13.663 98.669-43.154 201.024-92.164 236.153-113.196 4.119-2.603 7.373-3.903 8.025-3.903zm-494.646 16.916c.434.432-27.107 40.118-65.709 94.114-13.444 18.867-29.057 40.985-34.911 49.225-5.856 8.241-14.746 21.253-19.734 29.06l-9.112 14.096-9.759-8.24c-11.494-9.544-31.442-29.927-40.333-41.204-18.651-23.201-31.226-47.706-36.214-70.04-2.386-10.411-2.386-15.618-.22-16.265 3.252-.867 61.153-14.53 115.37-27.11 30.143-6.937 65.054-15.177 77.632-18.213 12.579-3.041 22.774-5.423 22.99-5.423zm27.756 10.626l6.937 7.806c31.231 34.914 63.108 60.724 101.708 83.272 6.941 3.906 12.144 7.373 11.708 7.594-1.514 1.083-134.016 48.136-195.385 69.389-34.478 12.143-62.888 21.901-63.102 21.901-.216 0-2.169-1.299-4.341-2.818l-3.901-2.82 6.288-9.106c20.383-29.493 45.976-61.803 101.707-129.028l38.381-46.19zm173.053 123.822c.213-.215 9.755 3.252 21.464 7.594 28.195 10.624 50.527 17.345 80.456 24.936 36.866 9.326 90.211 18.434 121.657 21.035 4.771.432 7.373.868 6.505 1.519-1.521.868-33.395 11.494-56.816 18.867-37.302 11.708-151.149 45.32-243.962 71.995-17.132 4.987-31.879 9.108-32.746 9.323-2.166.436-9.325-1.519-9.325-2.386 0-.431 5.204-7.153 11.494-14.527 31.225-37.3 62.238-78.935 88.044-118.403 7.154-10.846 13.229-19.736 13.229-19.953zm-38.17 1.087c.216.216-15.179 24.936-42.066 67.439-11.496 17.999-24.291 38.383-28.846 45.54-4.337 6.939-10.842 17.784-14.527 23.854l-6.29 11.061-3.252-.868c-7.809-2.169-62.672-21.471-77.202-27.325-18-7.157-36.649-15.829-50.529-23.202-17.346-9.326-39.03-23.206-37.297-23.637.433-.216 30.143-8.243 65.922-17.999 94.984-25.809 147.678-40.77 182.161-51.612 6.29-1.952 11.71-3.471 11.926-3.251zm269.985 63.318h.216c.868 2.171-34.26 99.755-47.06 130.547-2.815 6.939-3.896 8.677-5.417 8.456-3.687-.213-54.646-7.37-85.66-11.925-53.994-8.24-144.641-24.073-167.409-29.275l-5.204-1.083 32.307-7.378c69.396-15.613 102.791-24.069 136.619-34.478 42.722-13.011 85.011-29.276 127.729-49.225 6.722-3.037 12.361-5.422 13.879-5.639z"/><linearGradient id="b" gradientUnits="userSpaceOnUse" x1="-2882.7" y1="10288.81" x2="-2206.249" y2="10288.81" gradientTransform="matrix(.1234 0 0 -.1234 1158.33 1550.273)"><stop offset="0" stop-color="#939fab"/><stop offset="1" stop-color="#dcdee1"/></linearGradient><path fill="url(#b)" d="M1114.983 145.414c-4.771-.647-81.757 27.11-131.415 47.275-67.01 27.327-119.052 53.351-151.148 75.899-11.925 8.461-26.891 23.422-29.273 29.276-.867 2.169-1.303 4.771-1.303 7.373l29.06 27.541 69.175 22.119 164.594 29.493 188.228 32.312 1.953-16.264c-.649 0-1.085-.216-1.73-.216l-24.728-3.905-4.984-8.89c-25.59-45.107-53.781-101.056-70.261-138.789-12.793-29.276-24.938-63.102-31.662-87.391-3.687-14.746-4.119-15.613-6.501-15.829v-.005h-.005zm-3.474 11.063h.223c.213.214 1.081 6.29 1.95 13.442 3.683 30.364 10.411 59.635 21.035 91.297 8.022 23.855 8.022 22.555-1.301 19.734-22.119-6.07-121.221-23.202-193-33.177-11.494-1.519-21.253-3.036-21.253-3.252-.867-.867 51.827-28.41 75.031-39.25 29.709-13.665 111.246-47.711 117.315-48.794zm-209.047 97.15l8.461 2.816c45.97 15.616 161.551 37.736 225.31 42.94 7.154.651 13.229 1.303 13.442 1.303.216.216-5.852 3.469-13.661 7.154-30.79 15.397-64.621 34.264-88.042 48.794-6.937 4.335-13.229 7.807-14.094 7.807-.868 0-5.42-.868-10.191-1.519l-8.674-1.303-21.683-21.253c-38.167-37.08-68.094-65.704-79.588-76.549l-11.28-10.19zm-8.671 6.721l30.576 38.168c16.696 21.035 33.611 41.635 37.301 46.187 3.683 4.557 6.721 8.245 6.505 8.461-.868.65-44.236-7.809-67.226-13.011-23.637-5.423-33.395-8.025-47.924-12.577l-11.928-3.905v-3.038c.216-14.53 18.651-36.214 49.877-58.331l2.819-1.954zm259.791 52.046c.869 0 1.95 1.951 4.552 7.806 7.373 16.263 30.364 60.07 35.997 68.526 1.74 2.822 4.771 3.038-25.802-1.95-73.512-11.93-97.152-15.829-97.152-16.263 0-.216 2.169-1.735 4.988-3.254 22.771-12.575 45.756-28.624 66.142-45.756 4.988-4.121 9.542-8.024 10.407-8.676.216-.433.652-.649.868-.433z"/><radialGradient id="c" cx="-14217.448" cy="7277.705" r="898.12" gradientTransform="matrix(-.1185 -.0178 -.036 .237 -198.955 -1314.415)" gradientUnits="userSpaceOnUse"><stop offset="0" stop-color="#ee352c"/><stop offset="1" stop-color="#a91d22"/></radialGradient><path fill="url(#c)" d="M804.66 294.828s-4.768 7.593-.215 18.87c2.822 6.937 11.061 15.393 20.384 24.069 0 0 96.5 94.114 108.211 107.561 53.344 61.585 76.549 122.305 78.718 206.012 1.301 53.78-8.894 101.054-34.264 155.919-45.106 98.453-140.307 207.098-287.117 327.67l21.472-7.157c13.878-10.411 32.745-21.467 76.982-45.756 102.137-55.952 217.071-107.346 358.028-160.258 202.971-76.335 536.715-165.681 726.676-194.736l19.737-3.038-3.038-4.771c-17.345-26.891-29.276-43.587-43.59-61.369-41.633-51.612-92.157-93.463-153.964-128.161-85.007-47.489-194.956-84.571-334.173-112.112-26.239-5.207-83.923-15.181-130.763-22.337-99.321-15.393-163.51-26.021-234.203-38.165-25.37-4.339-63.323-10.843-88.478-16.263-13.011-2.822-37.947-8.676-57.464-15.398-15.613-6.075-38.168-12.147-42.939-30.58zm55.952 54.216c.214-.214 3.683 1.083 8.24 2.602 8.24 2.816 18.865 6.07 31.446 9.542a1599.47 1599.47 0 0 0 28.624 7.589c13.011 3.251 23.852 6.288 24.068 6.288 1.521 1.519 23.424 71.558 30.797 98.449 2.815 10.195 4.988 18.867 4.771 18.867-.223.22-2.605-3.469-5.423-8.456-25.373-44.673-65.491-89.995-111.899-126.428-6.069-4.333-10.624-8.237-10.624-8.453zm106.692 29.492c1.085 0 5.856.651 11.708 1.951 36.866 8.24 103.008 20.818 145.293 27.975 7.157 1.083 12.797 2.387 12.797 2.818 0 .436-2.605 1.951-5.859 3.688-7.153 3.685-35.997 20.815-45.536 27.322-24.073 16.047-45.756 33.395-61.371 49.008-6.288 6.29-11.712 11.494-11.712 11.494s-1.297-3.685-2.386-8.242c-7.802-30.143-24.069-74.816-38.815-106.258-2.386-4.986-4.339-9.541-4.339-9.973 0 .433 0 .217.22.217zm187.795 35.781c1.301.432 3.47 7.806 7.806 24.069 8.025 31.446 11.712 66.576 10.411 99.321-.436 9.108-.868 17.564-1.304 18.651l-.649 2.166-11.276-3.685c-23.204-7.373-60.935-18.435-93.245-27.541-18.436-4.988-33.395-9.542-33.395-9.975 0-1.303 26.891-28.192 38.383-38.383 21.898-19.303 81.316-65.275 83.269-64.623zm14.963 2.166c.652-.647 89.779 14.746 130.331 22.554 30.145 5.854 73.948 14.963 76.549 16.049 1.301.432-3.254 3.034-17.784 9.539-57.248 25.808-99.754 49.008-142.036 77.202-11.06 7.373-20.386 13.444-20.602 13.444-.216 0-.433-6.287-.433-13.878 0-41.201-8.241-82.838-23.424-117.968-1.517-3.47-2.818-6.722-2.601-6.942zm230.516 45.542c.652.65-2.169 18.217-4.771 28.624-7.806 32.312-28.84 80.24-54.643 125.343-4.558 8.024-8.677 14.53-9.114 14.746-.429.216-6.285-3.038-13.009-6.941-25.154-14.746-53.778-28.624-85.007-41.637-8.671-3.685-16.263-6.723-16.48-7.153-1.521-1.303 68.308-47.493 105.174-69.612 29.276-17.781 76.982-44.239 77.85-43.37zm16.48 2.601c1.953 0 41.421 10.844 62.019 16.916 50.963 15.181 109.512 36.648 147.679 53.996l15.828 7.159-11.056 2.6c-93.245 21.467-173.049 46.192-250.034 77.418-6.289 2.602-11.928 4.771-12.357 4.771-.436 0 1.733-4.987 4.552-11.061 23.204-49.225 38.167-100.62 41.85-144.427.221-4.121.867-7.372 1.519-7.372zm-392.938 90.213c.649-.652 30.793 6.506 47.057 11.056 24.721 6.942 77.198 24.505 77.198 25.808 0 .216-5.853 5.204-12.79 11.278-28.408 23.637-55.734 48.572-88.481 80.234-9.759 9.328-17.997 16.917-18.429 16.917-.436 0-.649-1.304-.436-3.038 4.987-36.433 3.906-83.272-3.034-130.763-.653-6.074-1.302-11.276-1.085-11.492zm633.433.652c.429.431-13.881 22.984-22.988 35.777-13.009 18.649-32.098 43.375-75.252 97.588-22.765 28.622-48.358 60.936-56.812 71.778-8.678 10.842-15.831 19.948-16.051 19.948-.216 0-3.031-3.901-6.069-8.671-24.289-36.433-53.349-68.311-87.829-96.935-6.505-5.423-13.658-11.278-16.044-13.013-2.386-1.734-4.339-3.469-4.339-3.685 0-.649 36.862-16.483 64.841-27.757 49.01-19.952 115.794-43.805 165.892-59.203 26.24-8.239 54.215-16.263 54.651-15.827zm16.696 4.334c.865-.215 6.072 2.387 12.361 6.07 52.697 30.143 104.305 68.962 145.077 108.864 11.492 11.278 39.9 40.77 39.464 40.986 0 0-9.975.867-21.683 1.733-91.296 6.942-208.178 26.239-320.511 53.345-7.589 1.733-14.31 3.252-14.746 3.252-.429 0 8.025-8.456 18.653-18.647 65.922-63.538 96.067-103.656 131.628-175.22 4.986-10.623 9.325-19.731 9.757-20.383-.216 0-.216 0 0 0zm-482.936 49.446c3.038.647 31.229 13.88 52.48 24.503 19.517 9.755 48.794 25.372 50.311 26.671.216.216-10.195 5.638-22.984 11.928-40.772 20.384-75.684 39.682-112.118 61.802-10.408 6.29-19.082 11.497-19.298 11.497-.868 0-.652-.872 5.204-11.497 19.518-35.561 35.129-78.065 44.023-119.486.864-3.252 1.733-5.418 2.382-5.418zm-28.192 5.202c.652.652-6.721 27.323-11.273 41.853-8.894 27.541-23.856 62.02-38.383 88.043-3.474 6.069-8.677 14.961-11.496 19.948l-5.42 8.674-12.144-11.707c-14.094-13.663-25.59-22.12-40.333-29.712-5.859-3.033-10.411-5.638-10.411-6.069 0-1.735 37.082-35.347 65.49-59.635 20.383-17.566 63.321-52.045 63.97-51.395zm172.404 70.913l10.627 6.937c24.282 15.833 52.906 36.866 74.813 55.298 12.357 10.19 36.21 31.662 40.985 36.866l2.598 2.822-17.561 4.986c-99.321 27.538-176.087 52.043-265.649 85.007-9.975 3.685-18.433 6.721-19.085 6.721-1.297 0-2.385 1.083 19.954-19.519 57.251-52.691 107.992-110.812 145.726-167.411l7.592-11.707zm-45.324 11.276c.432.432-29.276 42.284-47.06 65.922-21.251 28.192-58.985 75.465-85.007 106.256-10.84 12.797-20.163 23.422-20.599 23.64-.652.216-.868-3.036-.868-8.024 0-26.242-6.721-54.216-18.433-78.068-4.988-9.975-5.856-12.361-4.768-13.444 4.119-3.688 67.223-39.686 107.123-61.153 26.89-14.312 68.956-35.563 69.612-35.129zm-274.107 67.225c.652 0 5.64 2.6 11.279 5.638 13.878 7.589 26.239 16.046 37.298 25.156.432.432-5.204 4.988-12.577 10.406-20.602 14.746-51.828 38.385-70.041 52.915-19.088 15.18-19.734 15.613-17.568 12.361 14.314-21.903 21.467-34.264 29.06-50.093 6.721-14.094 13.442-30.793 18.213-45.323 1.734-6.289 3.904-11.06 4.336-11.06zm73.083 57.248c1.081-.214 2.386 1.735 8.238 10.411 12.361 18.429 21.903 43.154 24.292 63.104l.429 4.339-29.705 11.494c-53.133 20.599-102.139 40.985-135.322 56.162-9.322 4.339-25.587 12.144-36.211 17.352-10.627 5.418-19.301 9.539-19.301 9.323s6.721-5.204 14.961-11.278c64.844-47.055 121.007-98.669 163.076-150.279 4.555-5.423 8.677-10.411 9.107-10.627l.436-.001zm-33.612 8.242c.868.867-23.853 28.84-40.768 45.971-41.853 42.723-83.273 76.12-134.669 108.649-6.505 4.119-12.359 7.804-13.011 8.24-1.519.867.432-1.303 22.986-25.808 14.314-15.397 25.155-28.408 37.516-44.453 8.24-10.624 9.759-12.143 21.688-20.604 31.878-22.987 105.39-72.864 106.258-71.995z"/></g><path fill="#231F1F" d="M265.747 900.102c-2.276 0-4.553.217-6.809.217-45.975 2.45-76.983 22.683-95.113 62.195-15.506 35.735-13.813 82.446.174 118.4 16.265 35.131 42.547 53.672 86.416 60.675 9.282 1.52 15.506 6.616 33.483 27.606l22.12 25.915h40.118l-26.676-26.892c-14.746-14.745-26.673-27.584-26.673-28.712 0-1.127 5.641-3.599 12.469-5.68 22.51-6.812 41.203-24.202 54.279-50.854 10.583-21.402 12.102-28.018 13.619-54.646 3.969-79.26-37.82-128.813-107.409-128.247l.002.023zm35.173 207.27c-19.517 9.453-47.857 11.34-66.356 4.553-19.127-7.025-37.646-26.889-45.975-49.377-9.259-24.591-7.937-69.956 2.646-90.386 17.023-32.528 39.534-47.49 72.43-47.49 48.792 0 76.549 29.884 80.171 86.048 2.863 46.885-12.838 82.058-42.895 96.632l-.021.02zm693.025-139.568c-16.828 0-29.709 6.811-38.385 20.231l-6.809 10.627v-27.628h-29.123v165.678h29.104v-52.956c0-48.424.604-54.084 7.371-67.335 9.326-18.172 25.371-27.234 40.879-22.897l10.408 3.036v-28.712h-13.445v-.044zm-171.098-1.519c-5.705 0-11.756.76-17.781 2.084-38.971 10.19-60.938 47.489-59.594 85.873 0 32.139 6.244 48.206 21.752 65.057 31.77 26.065 60.502 28.146 99.275 14.161 6.615-2.819 13.814-6.072 13.814-6.072v-26.065l-13.814 7.156c-31.379 13.661-55.016 13.661-73.949-2.43-12.076-12.296-17.391-27.042-19.84-43.868h117.426v-22.339c0-45.539-27.41-74.294-67.313-73.557h.024zm-47.492 72.647s4.338-28.407 20.428-39.554c7.744-5.466 16.633-8.11 25.328-8.11 8.719 0 17.414 2.818 24.592 8.306 14.748 11.341 17.219 39.143 17.219 39.143h-87.566v.215h-.001zm-702.111-29.881c-31.573-19.128-45.582-32.921-43.869-49.185 4.9-44.997 60.503-38.773 91.295-21.749l.219-30.272s-17.024-7.373-41.421-7.764c-37.429-.564-61.63 11.709-72.97 36.691-16.656 36.865-1.908 64.665 51.396 95.677 29.925 17.412 43.152 32.528 43.152 49.008 0 34.047-41.05 45.931-83.401 24.57-8.716-4.337-16.09-7.959-16.48-7.959-1.519 9.651-.736 32.745-.736 32.745s13.012 5.466 32.527 9.236c48.4 9.65 92.445-13.054 96.608-49.919 3.622-34.609-8.893-52.761-56.318-81.104l-.002.025zm1178.454-43.155c-5.682 0-11.711.78-18 2.103-38.924 10.192-60.85 47.492-59.354 85.876 0 32.095 6.225 48.011 21.729 64.838 31.771 26.089 60.504 28.191 99.473 14.184 6.592-2.818 13.77-6.026 13.77-6.026v-26.109l-13.791 7.197c-31.443 13.619-55.082 13.619-73.947-2.471-12.145-12.274-17.414-26.847-19.865-43.871h117.232v-22.336c0-45.321-27.412-74.099-67.313-73.339l.066-.046zm-47.492 72.646s4.381-28.365 20.449-39.729c7.721-5.485 16.611-8.132 25.307-8.132 8.674 0 17.414 2.819 24.594 8.327 14.746 11.342 17.219 39.338 17.219 39.338h-87.545l-.024.196zm-533.809-29.123c-31.573-19.083-45.54-32.92-43.848-49.185 4.9-45.02 60.504-38.773 91.296-21.749l.218-30.272s-17.024-7.374-41.421-7.722c-37.429-.563-61.63 11.711-72.991 36.692-16.633 36.864-1.692 64.666 51.437 95.677 29.884 17.393 43.111 32.312 43.111 48.792 0 34.047-41.029 46.126-83.381 24.569-8.674-4.337-16.046-7.916-16.48-7.916-1.519 9.649-.736 32.746-.736 32.746s12.858 5.27 32.31 9.237c48.445 9.672 92.51-13.012 96.653-49.877 3.6-34.437-8.891-52.587-56.167-80.952v-.04zm752.421-42.005c-16.828 0-29.859 6.829-38.383 20.254l-6.811 10.582v-27.583h-29.123V1136.3h29.102v-52.954c0-48.403.584-54.085 7.375-67.313 9.324-18.15 25.369-27.235 40.875-22.878l10.408 3.035v-28.775h-13.443zm-984.021 41.05V902.941h-29.361v233.728h123.478v-27.604h-94.116v-100.601zm679.015 32.896l-24.201 62.975-23.27-63.322-23.637-70.173h-30.055c19.475 55.212 40.658 111.376 62.02 165.829 9.26.216 18.541 0 27.799 0l32.682-82.058 33.287-83.75h-28.732s-12.688 33.266-25.914 70.521l.021-.022zM506.455 839.251c4.728 0 8.674-1.516 11.927-4.769 3.208-3.211 4.9-6.984 4.9-11.711 0-4.728-1.692-8.675-4.9-11.711-3.253-3.035-7.005-4.555-11.711-4.555-4.769 0-8.717 1.52-11.927 4.728-3.252 3.211-4.727 7.158-4.727 11.712 0 4.771 1.519 8.716 4.727 11.711 3.037 3.034 6.984 4.553 11.711 4.553v.042zm-10.408-26.889c2.818-2.818 6.245-4.121 10.625-4.121 4.121 0 7.548 1.303 10.411 4.121 2.819 2.819 4.337 6.245 4.337 10.409 0 4.163-1.518 7.764-4.337 10.582-2.862 2.817-6.29 4.163-10.411 4.163-4.185 0-7.59-1.301-10.408-4.163-2.819-2.818-4.337-6.419-4.337-10.582 0-4.164 1.301-7.589 4.12-10.409zm7.003 11.928h1.908c1.346 0 2.668 1.3 3.795 3.773l2.279 5.116h3.577l-2.818-5.683c-1.149-2.275-2.276-3.598-3.6-3.969 1.67-.39 2.992-.953 3.947-2.082.952-.974 1.3-2.298 1.3-3.795 0-1.734-.542-3.034-1.69-3.989-1.302-1.084-3.384-1.669-6.074-1.669h-6.026v21.187h3.035v-8.891l.367.002zm0-9.846h2.647c1.908 0 3.253.39 3.99.953.716.564.911 1.303.911 2.646 0 2.45-1.52 3.601-4.337 3.601h-3.252v-7.2h.041zm-485.018 7.958c0-7.373-.216-12.858-.39-16.09h.174c.758 3.814 1.691 6.657 2.45 8.543l28.19 62.975h4.728l28.19-63.538c.761-1.733 1.52-4.337 2.452-7.959h.216c-.563 6.29-.758 11.754-.758 16.112v55.581h9.648v-82.622h-12.1L54.919 852.87c-.955 2.276-2.278 5.683-3.969 10.193h-.392c-.563-2.234-1.886-5.639-3.772-9.803l-25.33-58.053H8.598v82.621h9.281v-55.385l.153-.041zm96.045.154h8.329v51.458h-8.329v-51.458zm4.164-18.868c1.736 0 3.21-.587 4.337-1.734 1.15-1.129 1.91-2.603 1.91-4.337 0-1.692-.565-3.211-1.887-4.337-1.171-1.15-2.668-1.737-4.381-1.737-1.69 0-3.208.587-4.338 1.737-1.146 1.126-1.907 2.645-1.907 4.337 0 1.887.586 3.208 1.907 4.337 1.304 1.147 2.647 1.734 4.338 1.734h.021zm63.54 71.455v-9.066c-4.555 3.405-9.456 5.098-14.53 5.098-6.07 0-10.995-2.081-14.595-6.07-3.577-3.947-5.485-9.436-5.485-16.266 0-7.156 1.908-12.84 5.854-17.177 3.795-4.163 8.719-6.245 14.748-6.245 4.922 0 9.647 1.52 14.009 4.557v-9.65c-3.968-2.082-8.5-3.037-13.619-3.037-9.456 0-16.827 3.037-22.335 8.894-5.466 5.854-8.285 13.813-8.285 23.42 0 8.543 2.45 15.722 7.548 21.209 5.312 5.637 12.102 8.5 20.428 8.5 6.438-.178 11.707-1.523 16.262-4.167zm23.831-27.433c0-6.788 1.518-12.273 4.337-16.049 2.647-3.403 5.855-5.116 9.65-5.116 3.21 0 5.486.585 7.155 1.908v-9.846c-1.3-.563-3.187-.758-5.637-.758-3.405 0-6.439 1.146-9.107 3.253-2.819 2.231-5.074 5.638-6.397 9.975h-.216v-12.08h-9.433v58.985h9.454V847.71h.194zm54.279 31.443c8.892 0 16.048-2.863 21.36-8.543 5.29-5.641 7.936-13.229 7.936-22.686 0-9.647-2.427-17.021-7.372-22.51-4.9-5.483-11.711-8.132-20.603-8.132s-16.048 2.647-21.36 7.764c-5.681 5.641-8.674 13.599-8.674 23.813 0 8.891 2.429 16.265 7.548 21.751 5.29 5.68 12.295 8.521 21.165 8.521v.022zm-13.445-48.055c3.6-3.795 8.329-5.683 14.182-5.683 6.074 0 10.627 1.888 14.01 5.683 3.404 3.969 5.097 9.63 5.097 17.197 0 7.198-1.519 12.859-4.729 16.654-3.208 3.969-7.936 6.071-14.183 6.071-6.071 0-10.777-2.104-14.377-6.071-3.577-3.99-5.291-9.456-5.291-16.654-.368-7.156 1.519-13.01 5.291-17.197zm84.141 42.916c3.599-3.208 5.509-7.155 5.509-12.102 0-4.337-1.52-7.936-4.338-10.777-2.3-2.275-5.854-4.337-10.994-6.419-4.556-1.906-7.374-3.6-8.893-4.923-1.517-1.517-2.45-3.402-2.45-6.071 0-2.45.955-4.337 2.821-5.855 1.908-1.516 4.337-2.253 7.59-2.253 5.096 0 9.454 1.343 13.443 4.185v-9.456c-3.816-1.906-7.958-2.817-12.686-2.817-6.071 0-11.189 1.671-14.964 4.899-3.969 3.212-5.854 7.375-5.854 12.274 0 4.337 1.3 7.938 3.771 10.582 2.082 2.256 5.641 4.556 10.583 6.614 4.729 2.083 7.938 3.968 9.65 5.485 1.691 1.52 2.45 3.405 2.45 5.641 0 5.506-3.772 8.349-11.146 8.349-5.682 0-10.776-1.866-15.333-5.638v10.189c4.121 2.475 9.066 3.601 14.53 3.601 7.005-.368 12.49-2.081 16.264-5.486l.047-.022zm45.019-56.73c-8.893 0-16.048 2.647-21.361 7.764-5.638 5.641-8.674 13.599-8.674 23.813 0 8.891 2.452 16.265 7.547 21.751 5.313 5.68 12.295 8.521 21.187 8.521 9.107 0 16.048-2.861 21.36-8.545 5.313-5.637 7.958-13.227 7.958-22.683 0-9.65-2.472-17.022-7.374-22.509-5.115-5.487-11.927-8.133-20.601-8.133l-.042.021zm18.345 31.012c0 7.198-1.518 12.859-4.727 16.654-3.21 3.969-7.938 6.071-14.184 6.071-6.074 0-10.778-2.104-14.379-6.071-3.577-3.99-5.29-9.456-5.29-16.654 0-7.59 1.888-13.444 5.683-17.393 3.576-3.773 8.306-5.682 14.182-5.682 5.854 0 10.561 1.907 13.964 5.682 3.037 4.163 4.729 9.824 4.729 17.393h.022zm25.547 29.513h9.433v-51.068h13.813v-7.938H428.93v-9.108c0-8.282 3.208-12.446 9.845-12.446 2.234 0 4.511.563 6.203 1.518v-8.521c-1.692-.759-3.969-.932-6.812-.932-5.095 0-9.258 1.519-12.664 4.727-3.969 3.773-6.071 8.674-6.071 15.312v9.672h-9.978v7.936h9.978v50.876l.067-.028zm38.75-16.091c0 11.538 5.098 17.414 15.506 17.414 3.774 0 6.614-.606 8.891-1.951v-8.11c-1.734 1.302-3.795 1.91-6.071 1.91-3.208 0-5.464-.762-6.788-2.475-1.345-1.689-2.103-4.554-2.103-8.501v-33.286h14.961v-7.938h-14.961v-17.39c-3.253 1.127-6.44 2.082-9.456 3.034v14.355h-10.192v7.938h10.192v34.979l.021.021zm1014.88 108.73c-3.209-3.034-7.004-4.553-11.709-4.553-4.77 0-8.719 1.519-11.928 4.771-3.209 3.188-4.729 7.155-4.729 11.711 0 4.728 1.52 8.675 4.705 11.709 3.211 3.036 7.156 4.556 11.928 4.556 4.705 0 8.674-1.52 11.928-4.729 3.188-3.253 4.879-7.004 4.879-11.709-.174-4.771-1.887-8.719-5.096-11.754l.022-.002zm-1.517 22.338c-2.82 2.818-6.246 4.119-10.41 4.119-4.119 0-7.545-1.301-10.408-4.119-2.818-2.863-4.338-6.441-4.338-10.627 0-4.121 1.301-7.545 4.164-10.408 2.818-2.817 6.225-4.121 10.582-4.121 4.121 0 7.549 1.304 10.41 4.121 2.818 2.863 4.336 6.287 4.336 10.408 0 4.382-1.301 7.764-4.336 10.627zm-8.502-9.651c1.691-.39 3.037-1.149 3.969-2.081.955-.977 1.303-2.301 1.303-3.815 0-1.692-.543-3.037-1.691-3.969-1.301-1.085-3.404-1.671-6.07-1.671h-6.029v21.164h3.037v-8.891h1.885c1.303 0 2.604 1.3 3.773 3.773l2.254 5.096h3.602l-2.818-5.683c-.977-2.472-2.105-3.601-3.252-3.97l.037.047zm-2.082-1.907h-3.252v-7.155h2.668c1.887 0 3.209.345 3.969.932.758.563.932 1.301.932 2.646 0 2.45-1.518 3.579-4.336 3.579l.019-.002zM933.443 816.353h2.646v-21.187h7.002v-2.646h-16.652v2.646h7.006v21.187h-.002zm16.047-15.917c0-2.062 0-3.753-.152-4.705.174 1.126.564 1.887.738 2.45l8.133 18.172h1.301l8.152-18.347c.219-.563.393-1.301.76-2.275-.174 1.887-.174 3.401-.174 4.553v16.048h2.82V792.52h-3.406l-7.371 16.438c-.174.587-.762 1.734-1.129 3.037h-.217c-.152-.761-.541-1.519-1.084-2.818l-7.373-16.655h-3.816v23.854h2.666v-15.917l.152-.023z"/></svg>