<svg fill="none" height="56" viewBox="0 0 250 56" width="250" xmlns="http://www.w3.org/2000/svg"><g fill="#1035bc"><path d="m15.0736 15.8466c.1105.5522.1657 1.0859.1657 1.6013 0 .4785-.0552.9938-.1657 1.546l-7.01225-.0552v18.5521c0 1.546.71779 2.319 2.15335 2.319h4.1963c.2577.6258.3865 1.2516.3865 1.8773 0 .6258-.0368 1.0123-.1104 1.1595-1.6932.2209-3.4417.3313-5.24538.3313-3.57055 0-5.35583-1.5276-5.35583-4.5828v-19.6564l-3.920246.0552c-.1104293-.5522-.165644-1.0675-.165644-1.546 0-.5154.0552147-1.0491.165644-1.6013l3.920246.0552v-5.7975c0-.99387.14724-1.69325.44172-2.09816.29448-.44172.86503-.66258 1.71165-.66258h1.4908l.33129.33129v8.28225z"/><path d="m41.7915 16.1227-7.5644 25.8957c-1.3988 4.7485-2.8896 8.0982-4.4724 10.0491s-3.9571 2.9264-7.1227 2.9264c-1.6196 0-3.1104-.2393-4.4724-.7178-.1104-1.0307.1841-2.0246.8834-2.9816 1.1411.4049 2.3559.6073 3.6442.6073 1.9509 0 3.4417-.6625 4.4724-1.9877 1.0307-1.3251 1.9693-3.3865 2.816-6.184l.1656-.5522c-.9571-.0736-1.6932-.2945-2.2086-.6626-.4785-.3681-.8834-1.049-1.2147-2.0429l-7.7301-24.2945c1.1411-.4785 1.9509-.7178 2.4295-.7178 1.0675 0 1.7853.6442 2.1534 1.9325l4.3619 13.8589c.1473.4418.9939 3.3129 2.5399 8.6135.0736.2577.2577.3865.5521.3865l6.7362-24.4049c.4786-.1472 1.1043-.2208 1.8773-.2208.8099 0 1.4908.1104 2.043.3313z"/><path d="m52.4009 41.135v10.9325c0 .9938-.1472 1.6932-.4417 2.0981-.2945.4418-.8834.6626-1.7669.6626h-1.4908l-.3312-.3313v-38.4846l.3312-.3313h1.4356c.8835 0 1.4724.2392 1.7669.7178.3313.4417.4969 1.1779.4969 2.2086v.276c2.2086-2.4662 4.8405-3.6994 7.8957-3.6994 3.1289 0 5.4847 1.27 7.0675 3.8099 1.5828 2.503 2.3743 5.9816 2.3743 10.4356 0 2.1717-.2945 4.1226-.8835 5.8527-.5521 1.7301-1.3067 3.2025-2.2638 4.4172-.9202 1.1779-1.9877 2.0981-3.2024 2.7607-1.2148.6258-2.4663.9387-3.7546.9387-2.5399 0-4.951-.7546-7.2332-2.2638zm0-17.9448v14.1902c2.2454 1.6564 4.362 2.4846 6.3497 2.4846 1.9878 0 3.6258-.8834 4.9141-2.6503 1.2884-1.7668 1.9326-4.4356 1.9326-8.0061 0-1.7669-.1657-3.2945-.497-4.5828-.2945-1.3252-.6994-2.4111-1.2147-3.2577-.5153-.8834-1.1227-1.5276-1.8221-1.9325-.6626-.4417-1.3804-.6626-2.1534-.6626-1.4724 0-2.8711.3865-4.1963 1.1595-1.3251.773-2.4294 1.8589-3.3129 3.2577z"/><path d="m97.6973 30.6442h-17.1166c.1841 6.2576 2.5583 9.3865 7.1227 9.3865 2.5031 0 5.1718-.773 8.0061-2.319.8099.7361 1.3068 1.6748 1.4909 2.8159-3.0184 2.0614-6.405 3.092-10.1596 3.092-1.9141 0-3.5521-.3497-4.9141-1.049-1.3619-.7362-2.4846-1.7301-3.3681-2.9816-.8466-1.2884-1.4724-2.7976-1.8773-4.5277-.4049-1.73-.6073-3.6257-.6073-5.6871 0-2.0981.2392-4.0122.7178-5.7423.5153-1.7301 1.2515-3.2209 2.2085-4.4724.9571-1.2515 2.0982-2.227 3.4234-2.9264 1.3619-.6994 2.9079-1.0491 4.638-1.0491 1.6932 0 3.2025.3129 4.5276.9387 1.362.589 2.4847 1.4172 3.3681 2.4847.9203 1.0306 1.6196 2.2822 2.0982 3.7546.4785 1.4355.7178 2.9816.7178 4.638 0 .6626-.0369 1.3067-.1105 1.9325-.0368.589-.092 1.1595-.1656 1.7117zm-17.1166-3.1473h13.2516v-.7178c0-2.5398-.5338-4.5828-1.6013-6.1288s-2.6687-2.319-4.8037-2.319c-2.0981 0-3.7362.8282-4.9141 2.4847-1.1411 1.6564-1.7852 3.8834-1.9325 6.6809z"/><path d="m103.381 41.0245c.036-.8098.257-1.6932.662-2.6503.442-.9938.939-1.7668 1.491-2.319 2.908 1.5828 5.466 2.3743 7.675 2.3743 1.214 0 2.19-.2393 2.926-.7178.773-.4786 1.16-1.1227 1.16-1.9326 0-1.2883-.994-2.319-2.982-3.092l-3.092-1.1595c-4.638-1.6932-6.957-4.3988-6.957-8.1166 0-1.3251.239-2.503.718-3.5337.515-1.0675 1.214-1.9693 2.098-2.7055.92-.773 2.006-1.362 3.258-1.7669 1.251-.4049 2.65-.6074 4.196-.6074.699 0 1.472.0553 2.319.1657.883.1104 1.767.2761 2.65.4969.884.1841 1.73.4049 2.54.6626s1.509.5337 2.098.8282c0 .9203-.184 1.8773-.552 2.8712s-.865 1.73-1.491 2.2086c-2.908-1.2884-5.429-1.9325-7.564-1.9325-.957 0-1.712.2392-2.264.7178-.552.4417-.828 1.0306-.828 1.7668 0 1.1411.92 2.043 2.761 2.7055l3.368 1.2148c2.429.8466 4.233 2.0061 5.411 3.4785s1.767 3.184 1.767 5.135c0 2.6135-.976 4.7116-2.927 6.2944-1.951 1.5461-4.748 2.3191-8.392 2.3191-3.571 0-6.921-.9019-10.049-2.7056z"/><path d="m151.772 31.5828h-15.239c.111 2.0246.571 3.6258 1.38 4.8037.847 1.1411 2.301 1.7117 4.362 1.7117 2.135 0 4.583-.6258 7.344-1.8773 1.067 1.1042 1.748 2.5582 2.043 4.3619-2.945 2.0982-6.479 3.1473-10.601 3.1473-3.902 0-6.865-1.1964-8.89-3.589-1.988-2.4294-2.981-6.0184-2.981-10.7669 0-2.2086.257-4.1963.773-5.9632.515-1.8036 1.269-3.3312 2.263-4.5828.994-1.2883 2.209-2.2822 3.644-2.9816 1.436-.6994 3.074-1.0491 4.915-1.0491 1.877 0 3.533.2945 4.969.8835 1.436.5521 2.65 1.3619 3.644 2.4294.994 1.0307 1.73 2.2638 2.209 3.6994.515 1.4356.773 3 .773 4.6933 0 .9202-.056 1.8036-.166 2.6503-.11.8098-.258 1.6196-.442 2.4294zm-10.656-11.5951c-2.871 0-4.417 2.1718-4.638 6.5154h9.165v-.6626c0-1.7669-.368-3.1841-1.104-4.2515-.736-1.0675-1.877-1.6013-3.423-1.6013z"/><path d="m182.033 24.5153v12.0368c0 2.3559.386 4.1043 1.159 5.2454-1.178 1.0307-2.595 1.5461-4.251 1.5461-1.583 0-2.669-.3497-3.258-1.0491-.589-.7362-.884-1.8773-.884-3.4233v-12.8651c0-1.6564-.202-2.8159-.607-3.4785s-1.159-.9939-2.264-.9939c-1.951 0-3.773.8835-5.466 2.6504v18.773c-.552.1104-1.141.184-1.767.2208-.589.0368-1.196.0552-1.822.0552s-1.251-.0184-1.877-.0552c-.589-.0368-1.16-.1104-1.712-.2208v-27.3313l.331-.3865h2.761c2.062 0 3.35 1.1043 3.865 3.3128 2.687-2.319 5.356-3.4785 8.006-3.4785 2.651 0 4.602.8651 5.853 2.5951 1.288 1.6933 1.933 3.9755 1.933 6.8466z"/><path d="m187.825 41.0245c.036-.8098.257-1.6932.662-2.6503.442-.9938.939-1.7668 1.491-2.319 2.908 1.5828 5.466 2.3743 7.675 2.3743 1.214 0 2.19-.2393 2.926-.7178.773-.4786 1.16-1.1227 1.16-1.9326 0-1.2883-.994-2.319-2.982-3.092l-3.092-1.1595c-4.638-1.6932-6.957-4.3988-6.957-8.1166 0-1.3251.239-2.503.718-3.5337.515-1.0675 1.214-1.9693 2.098-2.7055.92-.773 2.006-1.362 3.258-1.7669 1.251-.4049 2.65-.6074 4.196-.6074.699 0 1.472.0553 2.319.1657.883.1104 1.767.2761 2.65.4969.884.1841 1.73.4049 2.54.6626s1.509.5337 2.098.8282c0 .9203-.184 1.8773-.552 2.8712s-.865 1.73-1.491 2.2086c-2.908-1.2884-5.429-1.9325-7.564-1.9325-.957 0-1.712.2392-2.264.7178-.552.4417-.828 1.0306-.828 1.7668 0 1.1411.92 2.043 2.761 2.7055l3.368 1.2148c2.429.8466 4.233 2.0061 5.411 3.4785s1.767 3.184 1.767 5.135c0 2.6135-.976 4.7116-2.927 6.2944-1.951 1.5461-4.748 2.3191-8.392 2.3191-3.571 0-6.921-.9019-10.049-2.7056z"/><path d="m236.216 31.5828h-15.239c.111 2.0246.571 3.6258 1.38 4.8037.847 1.1411 2.301 1.7117 4.362 1.7117 2.135 0 4.583-.6258 7.344-1.8773 1.067 1.1042 1.748 2.5582 2.043 4.3619-2.945 2.0982-6.479 3.1473-10.601 3.1473-3.902 0-6.865-1.1964-8.89-3.589-1.988-2.4294-2.981-6.0184-2.981-10.7669 0-2.2086.257-4.1963.773-5.9632.515-1.8036 1.269-3.3312 2.263-4.5828.994-1.2883 2.209-2.2822 3.645-2.9816 1.435-.6994 3.073-1.0491 4.914-1.0491 1.877 0 3.533.2945 4.969.8835 1.436.5521 2.65 1.3619 3.644 2.4294.994 1.0307 1.73 2.2638 2.209 3.6994.515 1.4356.773 3 .773 4.6933 0 .9202-.055 1.8036-.166 2.6503-.11.8098-.258 1.6196-.442 2.4294zm-10.656-11.5951c-2.871 0-4.417 2.1718-4.638 6.5154h9.166v-.6626c0-1.7669-.369-3.1841-1.105-4.2515-.736-1.0675-1.877-1.6013-3.423-1.6013z"/><path d="m244.777 50.6871v-50.521455c.552-.1104299 1.178-.165645 1.878-.165645.736 0 1.417.0552151 2.042.165645v50.521455c-.625.1104-1.306.1657-2.042.1657-.7 0-1.326-.0553-1.878-.1657z"/></g></svg>