<?xml version="1.0" encoding="UTF-8" standalone="no"?>
<!-- Created with Inkscape (http://www.inkscape.org/) -->

<svg
   xmlns:dc="http://purl.org/dc/elements/1.1/"
   xmlns:cc="http://creativecommons.org/ns#"
   xmlns:rdf="http://www.w3.org/1999/02/22-rdf-syntax-ns#"
   xmlns:svg="http://www.w3.org/2000/svg"
   xmlns="http://www.w3.org/2000/svg"
   xmlns:sodipodi="http://sodipodi.sourceforge.net/DTD/sodipodi-0.dtd"
   xmlns:inkscape="http://www.inkscape.org/namespaces/inkscape"
   width="74.520531mm"
   height="69.015045mm"
   viewBox="0 0 74.520531 69.015045"
   version="1.1"
   id="svg8"
   inkscape:version="0.92.2 (5c3e80d, 2017-08-06)"
   sodipodi:docname="openid.svg">
  <defs
     id="defs2" />
  <sodipodi:namedview
     id="base"
     pagecolor="#ffffff"
     bordercolor="#666666"
     borderopacity="1.0"
     inkscape:pageopacity="0.0"
     inkscape:pageshadow="2"
     inkscape:zoom="1.979899"
     inkscape:cx="276.75422"
     inkscape:cy="125.94904"
     inkscape:document-units="mm"
     inkscape:current-layer="g823"
     showgrid="false"
     fit-margin-top="0"
     fit-margin-left="0"
     fit-margin-right="0"
     fit-margin-bottom="0"
     inkscape:window-width="3840"
     inkscape:window-height="2035"
     inkscape:window-x="-13"
     inkscape:window-y="-13"
     inkscape:window-maximized="1" />
  <metadata
     id="metadata5">
    <rdf:RDF>
      <cc:Work
         rdf:about="">
        <dc:format>image/svg+xml</dc:format>
        <dc:type
           rdf:resource="http://purl.org/dc/dcmitype/StillImage" />
        <dc:title></dc:title>
      </cc:Work>
    </rdf:RDF>
  </metadata>
  <g
     inkscape:label="Layer 1"
     inkscape:groupmode="layer"
     id="layer1"
     transform="translate(12.899989,-100.71867)">
    <g
       transform="matrix(0.35277777,0,0,-0.35277777,-107.45184,306.53977)"
       inkscape:label="openid-wordmark"
       id="g823">
      <g
         id="g825" />
      <g
         id="g909">
        <path
           inkscape:connector-curvature="0"
           id="path829"
           style="fill:#f8941c;fill-opacity:1;fill-rule:nonzero;stroke:none"
           d="M 364.021,567.7969 V 407.8578 387.7969 l 32,15.0609 v 180.5721 z" />
        <path
           inkscape:connector-curvature="0"
           id="path831"
           style="fill:#bcbec0;fill-opacity:1;fill-rule:nonzero;stroke:none"
           d="m 474.8433,514.9971 4.417,-45.864 -61.883,13.464" />
        <path
           inkscape:connector-curvature="0"
           id="path833"
           style="fill:#bcbec0;fill-opacity:1;fill-rule:nonzero;stroke:none"
           d="m 300.021,456.3047 c 0,22.674 24.707,41.769 58.383,47.598 v 20.325 c -51.51,-6.226 -90.383,-34.267 -90.383,-67.923 0,-34.869 41.725,-63.709 96,-68.508 v 20.061 c -36.516,4.578 -64,24.528 -64,48.447 m 101.617,67.915 v -20.317 c 13.399,-2.319 25.385,-6.727 34.9511,-12.64 l 22.6269,13.984 c -15.42,9.531 -35.322,16.283 -57.578,18.973" />
        <path
           inkscape:connector-curvature="0"
           id="path847"
           style="fill:#f8941c;fill-opacity:1;fill-rule:nonzero;stroke:none"
           d="M 364.021,567.7969 V 407.8578 387.7969 l 32,15.0609 v 180.5721 z" />
        <path
           inkscape:connector-curvature="0"
           id="path849"
           style="fill:#bcbec0;fill-opacity:1;fill-rule:nonzero;stroke:none"
           d="m 474.8433,514.9971 4.417,-45.864 -61.883,13.464" />
        <path
           inkscape:connector-curvature="0"
           id="path851"
           style="fill:#bcbec0;fill-opacity:1;fill-rule:nonzero;stroke:none"
           d="m 300.021,456.3047 c 0,22.674 24.707,41.769 58.383,47.598 v 20.325 c -51.51,-6.226 -90.383,-34.267 -90.383,-67.923 0,-34.869 41.725,-63.709 96,-68.508 v 20.061 c -36.516,4.578 -64,24.528 -64,48.447 m 101.617,67.915 v -20.317 c 13.399,-2.319 25.385,-6.727 34.9511,-12.64 l 22.6269,13.984 c -15.42,9.531 -35.322,16.283 -57.578,18.973" />
      </g>
    </g>
  </g>
</svg>
