<svg width="28" height="28" viewBox="0 0 28 28" fill="none" xmlns="http://www.w3.org/2000/svg">
<path d="M21.6653 6.00002H19.6655C19.6218 5.99949 19.5785 6.00811 19.5383 6.02533C19.4981 6.04256 19.462 6.068 19.4322 6.10002L13.0795 12.4533C12.0134 11.9656 10.8099 11.868 9.67927 12.1776C8.5486 12.4872 7.56267 13.1843 6.89377 14.1471C6.22487 15.1099 5.91554 16.2771 6.01983 17.4449C6.12412 18.6126 6.63541 19.7065 7.46434 20.5355C8.29327 21.3645 9.38712 21.8759 10.5548 21.9802C11.7224 22.0845 12.8895 21.7751 13.8523 21.1062C14.815 20.4372 15.512 19.4512 15.8216 18.3204C16.1312 17.1897 16.0336 15.9861 15.5459 14.9199L17.0924 13.38L18.379 13.8133C18.4912 13.8538 18.6123 13.8634 18.7296 13.8411C18.8468 13.8188 18.956 13.7655 19.0456 13.6866C19.1318 13.6131 19.1978 13.5188 19.2375 13.4127C19.2772 13.3065 19.2891 13.192 19.2722 13.08L19.0056 11.4666L19.4855 10.98L20.4588 11.4266C20.572 11.477 20.6971 11.4947 20.8199 11.4779C20.9427 11.461 21.0583 11.4103 21.1539 11.3313C21.2494 11.2524 21.3211 11.1484 21.3608 11.031C21.4005 10.9136 21.4067 10.7874 21.3787 10.6666L21.0387 9.45999L21.8986 8.59333C21.9342 8.56064 21.9618 8.52016 21.9791 8.47506C21.9965 8.42996 22.0031 8.38145 21.9986 8.33334V6.33335C21.9986 6.24495 21.9635 6.16017 21.901 6.09765C21.8385 6.03514 21.7537 6.00002 21.6653 6.00002ZM10.6663 18.3333C10.6663 18.531 10.6077 18.7244 10.4978 18.8888C10.388 19.0533 10.2318 19.1814 10.0491 19.2571C9.86638 19.3328 9.66533 19.3526 9.47137 19.314C9.27741 19.2754 9.09924 19.1802 8.9594 19.0404C8.81956 18.9005 8.72433 18.7223 8.68575 18.5283C8.64717 18.3344 8.66697 18.1333 8.74265 17.9506C8.81833 17.7678 8.94649 17.6117 9.11092 17.5018C9.27536 17.3919 9.46868 17.3333 9.66644 17.3333C9.93163 17.3333 10.186 17.4386 10.3735 17.6262C10.561 17.8137 10.6663 18.068 10.6663 18.3333Z" fill="#889096"/>
</svg>
