<svg viewBox="0 0 44 44" version="1.1" xmlns="http://www.w3.org/2000/svg" xmlns:xlink="http://www.w3.org/1999/xlink">
    <g id="Page-1" stroke="none" stroke-width="1" fill="none" fill-rule="evenodd">
        <g id="Snowflake_Logo" transform="translate(-0.002027, 0.531250)" fill="#29B5E8" fill-rule="nonzero">
            <path d="M37.2637465,33.128906 L28.0879655,27.828125 C26.7989025,27.085938 25.1504655,27.527344 24.4043715,28.816406 C24.1153085,29.324219 24.0020275,29.882812 24.0567155,30.425781 L24.0567155,40.785156 C24.0567155,42.265625 25.2598395,43.46875 26.7442155,43.46875 C28.2246835,43.46875 29.4278085,42.265625 29.4278085,40.785156 L29.4278085,34.828125 L34.5684335,37.796875 C35.8574965,38.542969 37.5098395,38.097656 38.2520275,36.808594 C38.9981215,35.519531 38.5567155,33.871094 37.2637465,33.128906" id="Path"></path>
            <path d="M14.4434335,21.769531 C14.4590585,20.8125 13.9551525,19.921875 13.1270275,19.441406 L3.95124649,14.144531 C3.55280849,13.914062 3.09577749,13.792969 2.63874649,13.792969 C1.69733949,13.792969 0.822339495,14.296875 0.353589495,15.109375 C-0.372972505,16.367188 0.060621495,17.980469 1.31843349,18.707031 L6.60749649,21.757812 L1.31843349,24.8125 C0.709058495,25.164062 0.271558495,25.730469 0.091871495,26.410156 C-0.091722505,27.089844 0.00202749493,27.800781 0.353589495,28.410156 C0.822339495,29.222656 1.69733949,29.726562 2.63483949,29.726562 C3.09577749,29.726562 3.55280849,29.605469 3.95124649,29.375 L13.1270275,24.078125 C13.9473395,23.601562 14.4512465,22.71875 14.4434335,21.769531" id="Path2"></path>
            <path d="M6.03327749,10.390625 L15.2090585,15.6875 C16.2793715,16.308594 17.5996835,16.105469 18.4434335,15.28125 C18.9785895,14.789062 19.3106215,14.085938 19.3106215,13.304688 L19.3106215,2.6875 C19.3106215,1.203125 18.1074965,5.68434189e-14 16.6270275,5.68434189e-14 C15.1426525,5.68434189e-14 13.9395275,1.203125 13.9395275,2.6875 L13.9395275,8.730469 L8.72858949,5.722656 C7.43952749,4.976562 5.79108949,5.417969 5.04499649,6.707031 C4.29890249,7.996094 4.74421549,9.644531 6.03327749,10.390625" id="Path3"></path>
            <path d="M26.6660895,22.199219 C26.6660895,22.402344 26.5489025,22.683594 26.4043715,22.832031 L22.7676525,26.46875 C22.6231215,26.613281 22.3379655,26.730469 22.1348395,26.730469 L21.2090585,26.730469 C21.0059335,26.730469 20.7207775,26.613281 20.5762465,26.46875 L16.9356215,22.832031 C16.7910895,22.683594 16.6739025,22.402344 16.6739025,22.199219 L16.6739025,21.273438 C16.6739025,21.066406 16.7910895,20.785156 16.9356215,20.640625 L20.5762465,17 C20.7207775,16.855469 21.0059335,16.738281 21.2090585,16.738281 L22.1348395,16.738281 C22.3379655,16.738281 22.6231215,16.855469 22.7676525,17 L26.4043715,20.640625 C26.5489025,20.785156 26.6660895,21.066406 26.6660895,21.273438 L26.6660895,22.199219 Z M23.4199965,21.753906 L23.4199965,21.714844 C23.4199965,21.566406 23.3340585,21.359375 23.2285895,21.25 L22.1543715,20.179688 C22.0489025,20.070312 21.8418715,19.984375 21.6895275,19.984375 L21.6504655,19.984375 C21.5020275,19.984375 21.2949965,20.070312 21.1856215,20.179688 L20.1153085,21.25 C20.0098395,21.355469 19.9239025,21.5625 19.9239025,21.714844 L19.9239025,21.753906 C19.9239025,21.90625 20.0098395,22.113281 20.1153085,22.21875 L21.1856215,23.292969 C21.2949965,23.398438 21.5020275,23.484375 21.6504655,23.484375 L21.6895275,23.484375 C21.8418715,23.484375 22.0489025,23.398438 22.1543715,23.292969 L23.2285895,22.21875 C23.3340585,22.113281 23.4199965,21.90625 23.4199965,21.753906 Z" id="Combined-Shape"></path>
            <path d="M28.0879655,15.6875 L37.2637465,10.390625 C38.5528085,9.648438 38.9981215,7.996094 38.2520275,6.707031 C37.5059335,5.417969 35.8574965,4.976562 34.5684335,5.722656 L29.4278085,8.691406 L29.4278085,2.6875 C29.4278085,1.203125 28.2246835,0 26.7442155,0 C25.2598395,0 24.0567155,1.203125 24.0567155,2.6875 L24.0567155,13.09375 C24.0059335,13.632812 24.1114025,14.195312 24.4043715,14.703125 C25.1504655,15.992188 26.7989025,16.433594 28.0879655,15.6875" id="Path4"></path>
            <path d="M17.0489025,27.515625 C16.4395275,27.398438 15.7871835,27.496094 15.2090585,27.828125 L6.03327749,33.128906 C4.74421549,33.871094 4.29890249,35.519531 5.04499649,36.808594 C5.79108949,38.101562 7.43952749,38.542969 8.72858949,37.796875 L13.9395275,34.789062 L13.9395275,40.785156 C13.9395275,42.265625 15.1426525,43.46875 16.6270275,43.46875 C18.1074965,43.46875 19.3106215,42.265625 19.3106215,40.785156 L19.3106215,30.167969 C19.3106215,28.828125 18.3301525,27.71875 17.0489025,27.515625" id="Path5"></path>
            <path d="M42.9981215,15.078125 C42.2559335,13.785156 40.6035895,13.34375 39.3145275,14.089844 L30.1387465,19.386719 C29.2598395,19.894531 28.7754655,20.824219 28.7910895,21.769531 C28.7832775,22.710938 29.2676525,23.628906 30.1387465,24.128906 L39.3145275,29.429688 C40.6035895,30.171875 42.2520275,29.730469 42.9981215,28.441406 C43.7442155,27.152344 43.2989025,25.503906 42.0098395,24.757812 L36.8145275,21.757812 L42.0098395,18.757812 C43.3028085,18.015625 43.7442155,16.367188 42.9981215,15.078125" id="Path6"></path>
        </g>
    </g>
</svg>
