<?xml version="1.0" encoding="UTF-8"?>
<svg width="184px" height="44px" viewBox="0 0 184 44" version="1.1" xmlns="http://www.w3.org/2000/svg" xmlns:xlink="http://www.w3.org/1999/xlink">
    <!-- Generator: Sketch 55.2 (78181) - https://sketchapp.com -->
    <title>Group</title>
    <desc>Created with Sketch.</desc>
    <g id="Page-1" stroke="none" stroke-width="1" fill="none" fill-rule="evenodd">
        <g id="Group" transform="translate(-0.002027, 0.531250)" fill="#29B5E8" fill-rule="nonzero">
            <path d="M37.2637465,33.128906 L28.0879655,27.828125 C26.7989025,27.085938 25.1504655,27.527344 24.4043715,28.816406 C24.1153085,29.324219 24.0020275,29.882812 24.0567155,30.425781 L24.0567155,40.785156 C24.0567155,42.265625 25.2598395,43.46875 26.7442155,43.46875 C28.2246835,43.46875 29.4278085,42.265625 29.4278085,40.785156 L29.4278085,34.828125 L34.5684335,37.796875 C35.8574965,38.542969 37.5098395,38.097656 38.2520275,36.808594 C38.9981215,35.519531 38.5567155,33.871094 37.2637465,33.128906" id="Path"></path>
            <path d="M14.4434335,21.769531 C14.4590585,20.8125 13.9551525,19.921875 13.1270275,19.441406 L3.95124649,14.144531 C3.55280849,13.914062 3.09577749,13.792969 2.63874649,13.792969 C1.69733949,13.792969 0.822339495,14.296875 0.353589495,15.109375 C-0.372972505,16.367188 0.060621495,17.980469 1.31843349,18.707031 L6.60749649,21.757812 L1.31843349,24.8125 C0.709058495,25.164062 0.271558495,25.730469 0.091871495,26.410156 C-0.091722505,27.089844 0.00202749496,27.800781 0.353589495,28.410156 C0.822339495,29.222656 1.69733949,29.726562 2.63483949,29.726562 C3.09577749,29.726562 3.55280849,29.605469 3.95124649,29.375 L13.1270275,24.078125 C13.9473395,23.601562 14.4512465,22.71875 14.4434335,21.769531" id="Path2"></path>
            <path d="M6.03327749,10.390625 L15.2090585,15.6875 C16.2793715,16.308594 17.5996835,16.105469 18.4434335,15.28125 C18.9785895,14.789062 19.3106215,14.085938 19.3106215,13.304688 L19.3106215,2.6875 C19.3106215,1.203125 18.1074965,0 16.6270275,0 C15.1426525,0 13.9395275,1.203125 13.9395275,2.6875 L13.9395275,8.730469 L8.72858949,5.722656 C7.43952749,4.976562 5.79108949,5.417969 5.04499649,6.707031 C4.29890249,7.996094 4.74421549,9.644531 6.03327749,10.390625" id="Path3"></path>
            <path d="M26.6660895,22.199219 C26.6660895,22.402344 26.5489025,22.683594 26.4043715,22.832031 L22.7676525,26.46875 C22.6231215,26.613281 22.3379655,26.730469 22.1348395,26.730469 L21.2090585,26.730469 C21.0059335,26.730469 20.7207775,26.613281 20.5762465,26.46875 L16.9356215,22.832031 C16.7910895,22.683594 16.6739025,22.402344 16.6739025,22.199219 L16.6739025,21.273438 C16.6739025,21.066406 16.7910895,20.785156 16.9356215,20.640625 L20.5762465,17 C20.7207775,16.855469 21.0059335,16.738281 21.2090585,16.738281 L22.1348395,16.738281 C22.3379655,16.738281 22.6231215,16.855469 22.7676525,17 L26.4043715,20.640625 C26.5489025,20.785156 26.6660895,21.066406 26.6660895,21.273438 L26.6660895,22.199219 Z M23.4199965,21.753906 L23.4199965,21.714844 C23.4199965,21.566406 23.3340585,21.359375 23.2285895,21.25 L22.1543715,20.179688 C22.0489025,20.070312 21.8418715,19.984375 21.6895275,19.984375 L21.6504655,19.984375 C21.5020275,19.984375 21.2949965,20.070312 21.1856215,20.179688 L20.1153085,21.25 C20.0098395,21.355469 19.9239025,21.5625 19.9239025,21.714844 L19.9239025,21.753906 C19.9239025,21.90625 20.0098395,22.113281 20.1153085,22.21875 L21.1856215,23.292969 C21.2949965,23.398438 21.5020275,23.484375 21.6504655,23.484375 L21.6895275,23.484375 C21.8418715,23.484375 22.0489025,23.398438 22.1543715,23.292969 L23.2285895,22.21875 C23.3340585,22.113281 23.4199965,21.90625 23.4199965,21.753906 Z" id="Combined-Shape"></path>
            <path d="M28.0879655,15.6875 L37.2637465,10.390625 C38.5528085,9.648438 38.9981215,7.996094 38.2520275,6.707031 C37.5059335,5.417969 35.8574965,4.976562 34.5684335,5.722656 L29.4278085,8.691406 L29.4278085,2.6875 C29.4278085,1.203125 28.2246835,-5.68434189e-14 26.7442155,-5.68434189e-14 C25.2598395,-5.68434189e-14 24.0567155,1.203125 24.0567155,2.6875 L24.0567155,13.09375 C24.0059335,13.632812 24.1114025,14.195312 24.4043715,14.703125 C25.1504655,15.992188 26.7989025,16.433594 28.0879655,15.6875" id="Path4"></path>
            <path d="M17.0489025,27.515625 C16.4395275,27.398438 15.7871835,27.496094 15.2090585,27.828125 L6.03327749,33.128906 C4.74421549,33.871094 4.29890249,35.519531 5.04499649,36.808594 C5.79108949,38.101562 7.43952749,38.542969 8.72858949,37.796875 L13.9395275,34.789062 L13.9395275,40.785156 C13.9395275,42.265625 15.1426525,43.46875 16.6270275,43.46875 C18.1074965,43.46875 19.3106215,42.265625 19.3106215,40.785156 L19.3106215,30.167969 C19.3106215,28.828125 18.3301525,27.71875 17.0489025,27.515625" id="Path5"></path>
            <path d="M42.9981215,15.078125 C42.2559335,13.785156 40.6035895,13.34375 39.3145275,14.089844 L30.1387465,19.386719 C29.2598395,19.894531 28.7754655,20.824219 28.7910895,21.769531 C28.7832775,22.710938 29.2676525,23.628906 30.1387465,24.128906 L39.3145275,29.429688 C40.6035895,30.171875 42.2520275,29.730469 42.9981215,28.441406 C43.7442155,27.152344 43.2989025,25.503906 42.0098395,24.757812 L36.8145275,21.757812 L42.0098395,18.757812 C43.3028085,18.015625 43.7442155,16.367188 42.9981215,15.078125" id="Path6"></path>
            <path d="M183.998121,21.136719 C183.998121,21.136719 183.998121,21.140625 183.998121,21.140625 L183.998121,21.238281 C183.998121,21.738281 183.580152,22.109375 183.064527,22.109375 L170.173902,22.109375 C170.197339,22.414062 170.236402,22.710938 170.298902,23.003906 C170.896558,25.796875 173.287183,27.875 176.127027,27.898438 C176.134839,27.898438 176.279371,27.898438 176.502027,27.898438 C176.537183,27.898438 176.572339,27.898438 176.607496,27.898438 L176.877027,27.898438 C176.935621,27.898438 176.994215,27.898438 177.056715,27.894531 C177.111402,27.894531 177.166089,27.890625 177.220777,27.886719 C177.224683,27.886719 177.228589,27.886719 177.232496,27.882812 C178.173902,27.808594 179.123121,27.429688 179.970777,26.820312 C179.970777,26.820312 179.970777,26.820312 179.974683,26.820312 C180.017652,26.789062 180.064527,26.753906 180.107496,26.71875 C180.115308,26.714844 180.123121,26.707031 180.134839,26.699219 C180.169996,26.671875 180.209058,26.640625 180.248121,26.609375 C180.263746,26.597656 180.275465,26.585938 180.291089,26.574219 C180.322339,26.550781 180.353589,26.523438 180.384839,26.496094 C180.404371,26.480469 180.427808,26.460938 180.447339,26.445312 C180.470777,26.421875 180.494215,26.398438 180.521558,26.378906 C180.544996,26.355469 180.572339,26.332031 180.595777,26.308594 C180.615308,26.292969 180.634839,26.273438 180.654371,26.253906 C180.685621,26.226562 180.712965,26.199219 180.744215,26.171875 C180.759839,26.15625 180.775465,26.136719 180.791089,26.121094 C180.822339,26.089844 180.853589,26.058594 180.884839,26.027344 C180.900465,26.011719 180.912183,26 180.927808,25.984375 C180.959058,25.949219 180.990308,25.914062 181.021558,25.878906 C181.037183,25.867188 181.048902,25.851562 181.060621,25.835938 C181.095777,25.800781 181.127027,25.765625 181.158277,25.730469 C181.169996,25.714844 181.185621,25.699219 181.197339,25.683594 C181.228589,25.644531 181.255933,25.609375 181.287183,25.574219 C181.302808,25.554688 181.318433,25.535156 181.334058,25.515625 C181.361402,25.480469 181.388746,25.449219 181.412183,25.417969 C181.435621,25.386719 181.455152,25.359375 181.474683,25.332031 C181.494215,25.304688 181.513746,25.28125 181.533277,25.253906 C181.564527,25.210938 181.595777,25.167969 181.623121,25.125 C181.634839,25.109375 181.642652,25.097656 181.650465,25.085938 C181.728589,24.972656 181.802808,24.855469 181.877027,24.734375 C181.877027,24.734375 181.877027,24.730469 181.880933,24.726562 C181.896558,24.699219 181.916089,24.675781 181.935621,24.648438 C181.943433,24.636719 181.951246,24.625 181.962965,24.617188 C181.974683,24.597656 181.990308,24.585938 182.002027,24.570312 C182.013746,24.558594 182.025465,24.546875 182.037183,24.535156 C182.052808,24.523438 182.064527,24.511719 182.080152,24.5 C182.091871,24.488281 182.103589,24.476562 182.119215,24.46875 C182.138746,24.453125 182.162183,24.4375 182.185621,24.425781 C182.201246,24.414062 182.220777,24.402344 182.236402,24.394531 C182.255933,24.386719 182.271558,24.378906 182.287183,24.371094 C182.302808,24.363281 182.318433,24.359375 182.330152,24.351562 C182.353589,24.34375 182.373121,24.339844 182.396558,24.332031 C182.408277,24.328125 182.416089,24.324219 182.427808,24.320312 C182.502027,24.304688 182.580152,24.292969 182.654371,24.292969 C182.736402,24.292969 182.822339,24.304688 182.900465,24.328125 C182.904371,24.328125 182.904371,24.328125 182.908277,24.328125 C182.939527,24.339844 182.974683,24.347656 183.005933,24.363281 C183.013746,24.367188 183.021558,24.367188 183.029371,24.371094 C183.064527,24.386719 183.095777,24.402344 183.127027,24.421875 L183.142652,24.429688 C183.572339,24.742188 183.705152,25.289062 183.443433,25.738281 L183.439527,25.742188 C183.408277,25.792969 183.377027,25.84375 183.345777,25.890625 C183.337965,25.902344 183.330152,25.914062 183.322339,25.925781 C182.408277,27.316406 181.166089,28.425781 179.779371,29.089844 C179.748121,29.101562 179.720777,29.117188 179.689527,29.132812 C179.685621,29.132812 179.677808,29.136719 179.673902,29.136719 C179.033277,29.433594 178.345777,29.640625 177.611402,29.726562 C177.595777,29.726562 177.580152,29.730469 177.564527,29.730469 C177.502027,29.738281 177.439527,29.746094 177.377027,29.75 C177.341871,29.75 177.306715,29.753906 177.267652,29.757812 C177.224683,29.757812 177.177808,29.761719 177.134839,29.765625 C177.048902,29.765625 176.962965,29.769531 176.877027,29.769531 C176.865308,29.769531 176.541089,29.769531 176.322339,29.769531 C176.197339,29.769531 176.127027,29.769531 176.119215,29.769531 C171.783277,29.738281 168.291089,26.121094 168.291089,21.691406 C168.291089,17.1875 171.806715,13.550781 176.177808,13.550781 C176.306715,13.550781 176.435621,13.554688 176.564527,13.558594 C178.087965,13.636719 179.494215,14.15625 180.662183,15.007812 C180.666089,15.011719 180.669996,15.015625 180.673902,15.015625 C180.740308,15.0625 180.802808,15.113281 180.865308,15.160156 C180.896558,15.1875 180.931715,15.214844 180.966871,15.242188 C180.998121,15.265625 181.029371,15.292969 181.060621,15.316406 C182.705152,16.6875 183.814527,18.746094 183.998121,21.128906 L183.998121,21.136719 Z M170.298902,20.269531 L181.966871,20.269531 C181.388746,17.457031 178.970777,15.421875 176.177808,15.421875 C173.334058,15.421875 170.935621,17.417969 170.298902,20.269531 Z" id="Combined-Shape2"></path>
            <path d="M151.041089,13.824219 C151.185621,13.96875 151.283277,14.164062 151.306715,14.390625 C151.306715,14.421875 151.310621,14.453125 151.310621,14.484375 L151.310621,28.832031 C151.310621,29.34375 150.880933,29.769531 150.373121,29.769531 C149.865308,29.769531 149.439527,29.34375 149.439527,28.832031 L149.439527,26.925781 C149.084058,27.355469 148.693433,27.746094 148.267652,28.085938 C148.255933,28.097656 148.244215,28.105469 148.232496,28.117188 C148.193433,28.148438 148.150465,28.179688 148.111402,28.207031 C146.822339,29.199219 145.255933,29.769531 143.619215,29.769531 C140.982496,29.769531 138.662183,28.367188 137.279371,26.242188 C137.267652,26.226562 137.252027,26.207031 137.240308,26.191406 C137.201246,26.125 137.162183,26.058594 137.119215,25.988281 C137.091871,25.945312 137.068433,25.902344 137.041089,25.859375 C137.013746,25.816406 136.990308,25.769531 136.966871,25.722656 C136.927808,25.65625 136.888746,25.585938 136.853589,25.519531 C136.841871,25.496094 136.834058,25.472656 136.822339,25.449219 C136.310621,24.433594 135.994215,23.289062 135.939527,22.074219 C135.931715,21.9375 135.927808,21.800781 135.927808,21.660156 C135.927808,21.519531 135.931715,21.382812 135.939527,21.246094 C135.994215,20.03125 136.310621,18.886719 136.822339,17.867188 C136.834058,17.847656 136.841871,17.824219 136.853589,17.800781 C136.888746,17.734375 136.927808,17.664062 136.966871,17.597656 C136.990308,17.550781 137.013746,17.503906 137.041089,17.460938 C137.064527,17.417969 137.091871,17.375 137.119215,17.332031 C137.158277,17.265625 137.201246,17.195312 137.240308,17.128906 C137.252027,17.113281 137.267652,17.09375 137.279371,17.078125 C138.662183,14.953125 140.982496,13.550781 143.619215,13.550781 C145.400465,13.550781 147.084058,14.203125 148.423902,15.339844 C148.791089,15.648438 149.130933,15.988281 149.439527,16.363281 L149.439527,14.484375 C149.439527,14.453125 149.439527,14.421875 149.443433,14.390625 C149.466871,14.164062 149.564527,13.96875 149.709058,13.824219 C149.709058,13.824219 149.709058,13.824219 149.709058,13.820312 C149.724683,13.804688 149.744215,13.792969 149.759839,13.777344 C149.763746,13.773438 149.771558,13.765625 149.775465,13.761719 C149.787183,13.75 149.802808,13.742188 149.814527,13.734375 C149.826246,13.726562 149.837965,13.714844 149.849683,13.707031 C149.857496,13.703125 149.865308,13.699219 149.873121,13.691406 C149.892652,13.683594 149.908277,13.671875 149.927808,13.660156 C149.931715,13.660156 149.935621,13.65625 149.939527,13.65625 C149.962965,13.644531 149.986402,13.632812 150.009839,13.621094 C150.009839,13.621094 150.009839,13.621094 150.013746,13.621094 C150.068433,13.597656 150.127027,13.582031 150.185621,13.570312 C150.189527,13.570312 150.197339,13.566406 150.201246,13.566406 C150.224683,13.5625 150.252027,13.558594 150.279371,13.554688 C150.310621,13.554688 150.341871,13.550781 150.373121,13.550781 C150.408277,13.550781 150.439527,13.554688 150.470777,13.554688 C150.498121,13.558594 150.521558,13.5625 150.548902,13.566406 C150.552808,13.566406 150.556715,13.570312 150.564527,13.570312 C150.623121,13.582031 150.681715,13.597656 150.736402,13.621094 C150.736402,13.621094 150.740308,13.621094 150.740308,13.621094 C150.763746,13.632812 150.787183,13.644531 150.806715,13.65625 C150.814527,13.65625 150.818433,13.660156 150.822339,13.660156 C150.837965,13.671875 150.857496,13.683594 150.873121,13.691406 C150.880933,13.699219 150.892652,13.703125 150.900465,13.707031 C150.912183,13.714844 150.923902,13.726562 150.935621,13.734375 C150.947339,13.742188 150.959058,13.75 150.970777,13.761719 C150.978589,13.765625 150.982496,13.773438 150.990308,13.777344 C151.005933,13.792969 151.025465,13.804688 151.037183,13.820312 C151.041089,13.824219 151.041089,13.824219 151.041089,13.824219 Z M143.619215,27.898438 C146.826246,27.898438 149.439527,25.101562 149.439527,21.660156 C149.439527,18.203125 146.826246,15.390625 143.619215,15.390625 C140.435621,15.390625 137.798902,18.199219 137.798902,21.660156 C137.798902,21.769531 137.802808,21.875 137.806715,21.980469 C137.806715,22.027344 137.814527,22.070312 137.814527,22.113281 C137.818433,22.175781 137.822339,22.238281 137.830152,22.296875 C137.834058,22.347656 137.841871,22.394531 137.845777,22.441406 C137.853589,22.496094 137.857496,22.554688 137.865308,22.609375 C137.873121,22.652344 137.880933,22.691406 137.884839,22.730469 C137.896558,22.792969 137.904371,22.855469 137.916089,22.917969 C137.923902,22.949219 137.931715,22.976562 137.935621,23.003906 C137.951246,23.078125 137.966871,23.148438 137.982496,23.222656 C137.986402,23.238281 137.990308,23.253906 137.998121,23.269531 C138.662183,25.941406 140.943433,27.898438 143.619215,27.898438 Z" id="Combined-Shape3"></path>
            <path d="M127.560621,6.785156 L127.306715,6.785156 C127.275465,6.785156 127.240308,6.785156 127.209058,6.789062 C127.173902,6.785156 127.142652,6.785156 127.107496,6.785156 C127.017652,6.785156 126.927808,6.785156 126.837965,6.789062 C126.822339,6.789062 126.802808,6.792969 126.787183,6.792969 C126.716871,6.792969 126.646558,6.796875 126.576246,6.804688 C126.564527,6.804688 126.548902,6.804688 126.537183,6.804688 C126.462965,6.8125 126.392652,6.816406 126.322339,6.824219 C126.314527,6.828125 126.306715,6.828125 126.298902,6.828125 C126.220777,6.839844 126.146558,6.847656 126.076246,6.859375 C126.072339,6.859375 126.068433,6.859375 126.068433,6.859375 C125.595777,6.933594 125.169996,7.066406 124.791089,7.253906 C124.791089,7.257812 124.787183,7.257812 124.783277,7.257812 C124.728589,7.289062 124.669996,7.320312 124.615308,7.351562 C124.603589,7.355469 124.595777,7.363281 124.584058,7.371094 C124.537183,7.398438 124.490308,7.425781 124.443433,7.457031 C124.423902,7.46875 124.408277,7.484375 124.392652,7.496094 C124.353589,7.519531 124.318433,7.546875 124.279371,7.574219 C124.252027,7.597656 124.224683,7.621094 124.197339,7.640625 C124.173902,7.660156 124.150465,7.679688 124.127027,7.699219 C124.084058,7.738281 124.044996,7.773438 124.005933,7.8125 C123.998121,7.820312 123.990308,7.828125 123.982496,7.835938 C123.935621,7.886719 123.888746,7.933594 123.841871,7.984375 C123.834058,7.996094 123.826246,8.007812 123.818433,8.015625 C123.779371,8.058594 123.740308,8.101562 123.705152,8.144531 C123.693433,8.164062 123.677808,8.183594 123.666089,8.203125 C123.634839,8.242188 123.607496,8.277344 123.580152,8.316406 C123.572339,8.332031 123.564527,8.34375 123.552808,8.355469 C123.521558,8.402344 123.490308,8.449219 123.462965,8.496094 C123.459058,8.503906 123.455152,8.507812 123.451246,8.515625 C123.197339,8.933594 123.017652,9.425781 122.904371,10.019531 C122.904371,10.027344 122.904371,10.039062 122.900465,10.046875 C122.884839,10.121094 122.873121,10.199219 122.861402,10.277344 C122.857496,10.300781 122.853589,10.324219 122.853589,10.347656 C122.841871,10.414062 122.834058,10.480469 122.826246,10.550781 C122.822339,10.589844 122.818433,10.628906 122.814527,10.671875 C122.806715,10.726562 122.798902,10.777344 122.794996,10.835938 C122.791089,10.894531 122.787183,10.953125 122.783277,11.015625 C122.779371,11.054688 122.779371,11.09375 122.775465,11.136719 C122.771558,11.21875 122.767652,11.304688 122.763746,11.390625 C122.763746,11.414062 122.759839,11.429688 122.759839,11.449219 C122.755933,11.558594 122.755933,11.671875 122.755933,11.78125 L122.755933,13.324219 L120.810621,13.324219 C120.689527,13.320312 120.568433,13.34375 120.459058,13.382812 C120.107496,13.511719 119.857496,13.84375 119.857496,14.230469 C119.857496,14.59375 120.037183,14.902344 120.318433,15.082031 C120.459058,15.171875 120.623121,15.226562 120.802808,15.234375 L120.810621,15.234375 C120.810621,15.234375 120.810621,15.238281 120.810621,15.238281 L122.755933,15.238281 L122.755933,28.863281 C122.752027,28.882812 122.755933,28.898438 122.755933,28.917969 C122.755933,28.929688 122.755933,28.941406 122.755933,28.953125 C122.767652,29.171875 122.857496,29.371094 123.002027,29.523438 L123.005933,29.527344 C123.025465,29.546875 123.048902,29.566406 123.068433,29.585938 C123.072339,29.589844 123.076246,29.589844 123.080152,29.59375 C123.095777,29.609375 123.115308,29.621094 123.130933,29.632812 C123.138746,29.640625 123.150465,29.648438 123.158277,29.652344 C123.166089,29.660156 123.173902,29.664062 123.185621,29.667969 C123.337965,29.765625 123.517652,29.820312 123.709058,29.820312 C123.740308,29.820312 123.771558,29.816406 123.798902,29.8125 C123.982496,29.796875 124.150465,29.71875 124.287183,29.605469 C124.287183,29.605469 124.291089,29.601562 124.291089,29.601562 C124.310621,29.585938 124.326246,29.570312 124.341871,29.550781 C124.345777,29.546875 124.353589,29.542969 124.357496,29.539062 C124.373121,29.523438 124.384839,29.507812 124.396558,29.496094 C124.544996,29.316406 124.627027,29.09375 124.615308,28.863281 L124.615308,15.238281 L126.709058,15.238281 C126.709058,15.238281 126.709058,15.234375 126.709058,15.234375 L126.716871,15.234375 C127.271558,15.207031 127.677808,14.773438 127.662183,14.234375 C127.662183,14.230469 127.662183,14.230469 127.662183,14.226562 C127.666089,14.207031 127.662183,14.1875 127.662183,14.167969 C127.662183,14.160156 127.662183,14.152344 127.662183,14.148438 C127.646558,13.941406 127.556715,13.753906 127.416089,13.609375 C127.416089,13.609375 127.416089,13.609375 127.416089,13.605469 C127.412183,13.605469 127.412183,13.605469 127.412183,13.605469 C127.392652,13.585938 127.377027,13.570312 127.357496,13.554688 C127.349683,13.546875 127.341871,13.542969 127.337965,13.535156 C127.322339,13.523438 127.310621,13.515625 127.294996,13.503906 C127.283277,13.496094 127.267652,13.484375 127.255933,13.476562 C127.248121,13.472656 127.236402,13.464844 127.228589,13.460938 C127.209058,13.449219 127.189527,13.4375 127.169996,13.429688 C127.166089,13.425781 127.158277,13.421875 127.154371,13.421875 C127.130933,13.410156 127.107496,13.398438 127.084058,13.390625 C127.080152,13.386719 127.076246,13.386719 127.068433,13.382812 C127.044996,13.375 127.021558,13.367188 126.998121,13.359375 C126.990308,13.359375 126.982496,13.355469 126.974683,13.355469 C126.951246,13.351562 126.931715,13.34375 126.908277,13.339844 C126.896558,13.339844 126.884839,13.339844 126.873121,13.335938 C126.857496,13.332031 126.837965,13.332031 126.818433,13.328125 C126.802808,13.328125 126.787183,13.328125 126.775465,13.328125 C126.763746,13.328125 126.752027,13.324219 126.740308,13.324219 C126.728589,13.324219 126.712965,13.324219 126.709058,13.324219 L124.615308,13.324219 L124.615308,11.785156 C124.615308,11.773438 124.615308,11.761719 124.615308,11.753906 C124.619215,11.675781 124.619215,11.597656 124.623121,11.523438 C124.623121,11.503906 124.623121,11.480469 124.627027,11.460938 C124.627027,11.394531 124.630933,11.328125 124.634839,11.265625 C124.634839,11.253906 124.638746,11.238281 124.638746,11.226562 C124.642652,11.152344 124.650465,11.078125 124.658277,11.007812 C124.732496,10.246094 124.896558,9.765625 125.068433,9.472656 C125.072339,9.464844 125.072339,9.460938 125.076246,9.453125 C125.087965,9.433594 125.103589,9.414062 125.115308,9.394531 C125.123121,9.378906 125.134839,9.363281 125.146558,9.347656 C125.150465,9.339844 125.158277,9.324219 125.166089,9.316406 C125.185621,9.289062 125.205152,9.265625 125.228589,9.242188 C125.474683,8.964844 125.857496,8.796875 126.412183,8.730469 C126.419996,8.730469 126.423902,8.726562 126.435621,8.726562 C126.466871,8.722656 126.502027,8.71875 126.533277,8.71875 C126.548902,8.714844 126.568433,8.714844 126.584058,8.710938 C126.615308,8.710938 126.642652,8.707031 126.673902,8.707031 C126.697339,8.707031 126.716871,8.703125 126.744215,8.703125 C126.771558,8.699219 126.798902,8.699219 126.826246,8.699219 C126.853589,8.699219 126.880933,8.695312 126.908277,8.695312 C126.935621,8.695312 126.962965,8.695312 126.990308,8.695312 C127.029371,8.695312 127.068433,8.695312 127.107496,8.695312 L127.111402,8.695312 C127.142652,8.695312 127.169996,8.691406 127.201246,8.6875 C127.236402,8.691406 127.271558,8.695312 127.306715,8.695312 L127.560621,8.695312 C128.084058,8.695312 128.513746,8.265625 128.513746,7.738281 C128.513746,7.210938 128.084058,6.785156 127.560621,6.785156" id="Path7"></path>
            <path d="M132.599683,6.8125 C132.599683,6.8125 132.595777,6.808594 132.591871,6.808594 C132.572339,6.800781 132.556715,6.792969 132.533277,6.789062 C132.525465,6.785156 132.513746,6.78125 132.502027,6.777344 C132.486402,6.773438 132.470777,6.769531 132.455152,6.765625 C132.439527,6.761719 132.423902,6.753906 132.412183,6.753906 C132.392652,6.75 132.377027,6.746094 132.357496,6.746094 C132.341871,6.742188 132.330152,6.742188 132.314527,6.738281 C132.283277,6.734375 132.248121,6.734375 132.216871,6.734375 C131.709058,6.734375 131.279371,7.160156 131.279371,7.667969 L131.279371,28.832031 C131.279371,29.34375 131.709058,29.769531 132.216871,29.769531 C132.248121,29.769531 132.283277,29.769531 132.314527,29.765625 C132.318433,29.765625 132.326246,29.761719 132.330152,29.761719 C132.357496,29.757812 132.384839,29.753906 132.412183,29.75 C132.416089,29.75 132.423902,29.746094 132.431715,29.746094 C132.455152,29.738281 132.478589,29.734375 132.502027,29.726562 C132.505933,29.726562 132.509839,29.726562 132.513746,29.722656 C132.873121,29.609375 133.138746,29.304688 133.177808,28.929688 C133.181715,28.898438 133.185621,28.867188 133.185621,28.832031 L133.185621,7.667969 C133.185621,7.636719 133.181715,7.605469 133.177808,7.574219 C133.142652,7.230469 132.916089,6.945312 132.599683,6.8125" id="Path8"></path>
            <path d="M60.8770275,24.789062 C60.8692155,24.734375 60.8692155,24.683594 60.8614025,24.632812 C60.8574965,24.59375 60.8535895,24.558594 60.8496835,24.523438 C60.8418715,24.480469 60.8379655,24.441406 60.8301525,24.398438 C60.8223395,24.359375 60.8145275,24.320312 60.8067155,24.277344 C60.8028085,24.246094 60.7949965,24.210938 60.7871835,24.179688 C60.7754655,24.132812 60.7676525,24.089844 60.7559335,24.042969 C60.7481215,24.019531 60.7403085,23.992188 60.7324965,23.96875 C60.7207775,23.917969 60.7051525,23.871094 60.6856215,23.824219 C60.6817155,23.804688 60.6739025,23.785156 60.6699965,23.769531 C60.6504655,23.714844 60.6309335,23.664062 60.6074965,23.609375 C60.6035895,23.601562 60.5996835,23.589844 60.5957775,23.578125 C60.5684335,23.523438 60.5449965,23.464844 60.5176525,23.410156 C60.5137465,23.40625 60.5137465,23.402344 60.5098395,23.398438 C60.2871835,22.949219 59.9707775,22.574219 59.5840585,22.257812 C59.5840585,22.253906 59.5840585,22.253906 59.5801525,22.253906 C59.5254655,22.210938 59.4707775,22.164062 59.4121835,22.121094 C59.4121835,22.121094 59.4082775,22.117188 59.4043715,22.113281 C59.4004655,22.113281 59.3965585,22.109375 59.3926525,22.105469 C59.3574965,22.082031 59.3223395,22.054688 59.2910895,22.03125 C58.8106215,21.691406 58.2793715,21.421875 57.5059335,21.125 C57.4942155,21.121094 57.4824965,21.117188 57.4707775,21.113281 C57.4590585,21.105469 57.4434335,21.101562 57.4317155,21.09375 C56.9942155,20.929688 56.5410895,20.773438 56.0762465,20.621094 C56.0762465,20.621094 56.0762465,20.621094 56.0723395,20.621094 C56.0723395,20.621094 56.0684335,20.621094 56.0684335,20.617188 C56.0606215,20.617188 56.0528085,20.613281 56.0410895,20.609375 C55.9981215,20.59375 55.9512465,20.578125 55.8887465,20.558594 C55.8574965,20.550781 55.8340585,20.542969 55.8106215,20.535156 C55.6543715,20.480469 55.4942155,20.429688 55.3340585,20.375 C55.2207775,20.335938 55.0996835,20.296875 54.9551525,20.25 C54.9160895,20.238281 54.8223395,20.207031 54.7442155,20.183594 C54.7403085,20.183594 54.7403085,20.179688 54.7364025,20.179688 C54.6895275,20.164062 54.6426525,20.148438 54.5918715,20.132812 C54.2012465,20.007812 53.8809335,19.898438 53.6074965,19.796875 C53.1621835,19.632812 52.7559335,19.457031 52.4239025,19.246094 C52.4160895,19.242188 52.4082775,19.238281 52.4043715,19.234375 C51.9512465,18.945312 51.6387465,18.589844 51.5645275,18.125 C51.5645275,18.125 51.5606215,18.121094 51.5606215,18.121094 C51.5567155,18.089844 51.5528085,18.054688 51.5528085,18.023438 C51.5489025,18.015625 51.5489025,18.011719 51.5489025,18.007812 C51.5449965,17.96875 51.5449965,17.933594 51.5449965,17.894531 C51.5449965,17.839844 51.5489025,17.785156 51.5528085,17.734375 C51.5528085,17.71875 51.5528085,17.707031 51.5567155,17.695312 C51.5606215,17.652344 51.5645275,17.613281 51.5684335,17.574219 C51.5723395,17.5625 51.5723395,17.550781 51.5762465,17.539062 C51.5840585,17.496094 51.5918715,17.457031 51.5996835,17.414062 C51.6035895,17.410156 51.6035895,17.402344 51.6074965,17.394531 C51.6192155,17.347656 51.6309335,17.304688 51.6465585,17.261719 C51.6465585,17.257812 51.6465585,17.257812 51.6465585,17.257812 C51.8496835,16.652344 52.3301525,16.203125 52.8965585,15.886719 C52.9356215,15.867188 52.9746835,15.847656 53.0098395,15.828125 C53.0489025,15.808594 53.0840585,15.789062 53.1192155,15.773438 C53.1778085,15.746094 53.2364025,15.71875 53.2949965,15.695312 C53.3301525,15.679688 53.3614025,15.664062 53.3965585,15.652344 C53.4590585,15.628906 53.5215585,15.605469 53.5840585,15.582031 C53.6153085,15.570312 53.6504655,15.558594 53.6856215,15.546875 C53.7481215,15.527344 53.8067155,15.507812 53.8692155,15.492188 C53.9082775,15.480469 53.9434335,15.46875 53.9824965,15.460938 C54.0410895,15.445312 54.0996835,15.433594 54.1543715,15.417969 C54.1934335,15.410156 54.2324965,15.402344 54.2715585,15.394531 C54.3340585,15.382812 54.3926525,15.371094 54.4473395,15.363281 C54.4824965,15.359375 54.5137465,15.355469 54.5489025,15.347656 C54.6153085,15.339844 54.6856215,15.332031 54.7559335,15.328125 C54.7715585,15.324219 54.7871835,15.324219 54.8067155,15.320312 C54.8926525,15.316406 54.9785895,15.3125 55.0606215,15.3125 C55.1582775,15.3125 55.2559335,15.316406 55.3496835,15.320312 C55.3653085,15.320312 55.3809335,15.320312 55.3926525,15.320312 C56.0840585,15.363281 56.6426525,15.53125 57.1035895,15.753906 C57.1387465,15.769531 57.1739025,15.789062 57.2090585,15.804688 C57.2285895,15.816406 57.2481215,15.828125 57.2676525,15.835938 C57.3106215,15.859375 57.3535895,15.882812 57.4004655,15.910156 C57.4082775,15.914062 57.4160895,15.917969 57.4239025,15.921875 C57.4707775,15.949219 57.5176525,15.980469 57.5645275,16.007812 C57.5684335,16.011719 57.5723395,16.011719 57.5723395,16.011719 C57.6231215,16.042969 57.6739025,16.078125 57.7246835,16.109375 C57.7246835,16.113281 57.7285895,16.113281 57.7285895,16.117188 C57.7793715,16.148438 57.8262465,16.179688 57.8731215,16.214844 C57.8926525,16.230469 57.9082775,16.242188 57.9278085,16.253906 C58.0371835,16.335938 58.2090585,16.46875 58.3653085,16.597656 C58.3848395,16.609375 58.4004655,16.621094 58.4121835,16.632812 C58.5293715,16.730469 58.6387465,16.816406 58.7442155,16.894531 C58.7637465,16.910156 58.7793715,16.921875 58.7910895,16.929688 C58.7949965,16.933594 58.7989025,16.9375 58.8028085,16.9375 C58.8145275,16.945312 58.8262465,16.953125 58.8379655,16.960938 C58.8653085,16.980469 58.8965585,17 58.9239025,17.019531 C58.9356215,17.027344 58.9473395,17.03125 58.9590585,17.039062 C58.9864025,17.054688 59.0137465,17.070312 59.0410895,17.085938 C59.0528085,17.089844 59.0606215,17.09375 59.0723395,17.097656 C59.1035895,17.113281 59.1309335,17.125 59.1621835,17.136719 C59.1699965,17.140625 59.1739025,17.140625 59.1817155,17.144531 C59.2168715,17.15625 59.2520275,17.167969 59.2871835,17.171875 C59.2871835,17.171875 59.2871835,17.171875 59.2910895,17.175781 C59.3692155,17.1875 59.4434335,17.191406 59.5215585,17.171875 C59.5293715,17.171875 59.5371835,17.167969 59.5449965,17.167969 C59.5645275,17.164062 59.5879655,17.15625 59.6074965,17.152344 C59.6153085,17.148438 59.6192155,17.144531 59.6270275,17.140625 C59.6348395,17.140625 59.6426525,17.136719 59.6504655,17.132812 C59.6817155,17.117188 59.7129655,17.101562 59.7442155,17.082031 C59.7520275,17.082031 59.7559335,17.078125 59.7598395,17.074219 C59.7949965,17.050781 59.8262465,17.027344 59.8574965,17 C59.8614025,16.996094 59.8614025,16.996094 59.8614025,16.996094 C59.8887465,16.972656 59.9121835,16.945312 59.9356215,16.917969 C59.9512465,16.898438 59.9668715,16.875 59.9785895,16.851562 C59.9824965,16.847656 59.9864025,16.84375 59.9864025,16.839844 C60.1504655,16.566406 60.0567155,16.207031 59.7676525,15.816406 C59.7637465,15.808594 59.7598395,15.800781 59.7520275,15.792969 C59.7403085,15.777344 59.7324965,15.765625 59.7207775,15.75 C59.0567155,14.890625 57.5449965,13.949219 56.1426525,13.648438 C56.1348395,13.648438 56.1270275,13.648438 56.1192155,13.644531 C56.0606215,13.632812 55.9981215,13.621094 55.9395275,13.609375 C55.9239025,13.609375 55.9043715,13.605469 55.8887465,13.601562 C55.8379655,13.59375 55.7871835,13.585938 55.7364025,13.582031 C55.7168715,13.578125 55.6973395,13.574219 55.6778085,13.574219 C55.6309335,13.570312 55.5801525,13.566406 55.5332775,13.5625 C55.5137465,13.558594 55.4942155,13.558594 55.4785895,13.554688 C55.4121835,13.554688 55.3496835,13.550781 55.2871835,13.550781 C55.1856215,13.550781 55.0840585,13.550781 54.9864025,13.554688 C54.9317155,13.554688 54.8770275,13.558594 54.8184335,13.5625 C54.7793715,13.566406 54.7324965,13.566406 54.6934335,13.566406 C54.6153085,13.574219 54.5410895,13.578125 54.4668715,13.585938 C54.4473395,13.585938 54.4239025,13.585938 54.4043715,13.589844 C54.3184335,13.597656 54.2324965,13.605469 54.1504655,13.617188 C54.1387465,13.617188 54.1309335,13.617188 54.1231215,13.617188 C54.0332775,13.628906 53.9473395,13.640625 53.8614025,13.65625 C53.8574965,13.65625 53.8496835,13.65625 53.8457775,13.65625 C53.7598395,13.667969 53.6739025,13.683594 53.5918715,13.699219 C53.5879655,13.699219 53.5840585,13.703125 53.5762465,13.703125 C53.4004655,13.734375 53.2285895,13.773438 53.0645275,13.816406 C53.0606215,13.816406 53.0606215,13.820312 53.0606215,13.820312 C52.9785895,13.839844 52.8965585,13.863281 52.8145275,13.886719 C52.7364025,13.910156 52.6621835,13.9375 52.5918715,13.960938 C52.5840585,13.960938 52.5801525,13.964844 52.5723395,13.964844 C52.5020275,13.992188 52.4317155,14.015625 52.3614025,14.042969 C52.3535895,14.046875 52.3457775,14.050781 52.3418715,14.050781 C52.2715585,14.078125 52.2090585,14.105469 52.1426525,14.136719 C52.1348395,14.140625 52.1231215,14.140625 52.1153085,14.148438 C52.0567155,14.171875 51.9942155,14.203125 51.9395275,14.230469 C51.9239025,14.238281 51.9121835,14.242188 51.9004655,14.25 C51.8418715,14.277344 51.7871835,14.304688 51.7324965,14.335938 C51.7168715,14.34375 51.7051525,14.351562 51.6895275,14.359375 C51.6387465,14.386719 51.5879655,14.417969 51.5371835,14.449219 C51.5215585,14.457031 51.5059335,14.464844 51.4903085,14.476562 C51.4239025,14.515625 51.3614025,14.558594 51.2989025,14.597656 C51.2246835,14.652344 51.1504655,14.703125 51.0840585,14.757812 C51.0762465,14.757812 51.0723395,14.761719 51.0723395,14.765625 C50.7403085,15.011719 50.4551525,15.273438 50.2207775,15.578125 C50.2129655,15.589844 50.2012465,15.601562 50.1934335,15.613281 C50.1660895,15.65625 50.1348395,15.695312 50.1074965,15.734375 C50.0879655,15.765625 50.0684335,15.796875 50.0489025,15.828125 C50.0332775,15.851562 50.0176525,15.875 50.0059335,15.898438 C49.9746835,15.949219 49.9473395,16 49.9199965,16.054688 C49.9160895,16.0625 49.9121835,16.066406 49.9082775,16.074219 C49.6973395,16.492188 49.5762465,16.972656 49.5293715,17.554688 C49.5293715,17.5625 49.5293715,17.570312 49.5254655,17.578125 C49.5215585,17.679688 49.5137465,17.78125 49.5098395,17.890625 C49.5098395,17.972656 49.5098395,18.054688 49.5137465,18.136719 C49.5137465,18.148438 49.5137465,18.160156 49.5137465,18.171875 C49.5567155,19.289062 50.0645275,20.128906 50.9824965,20.78125 C50.9903085,20.785156 50.9981215,20.792969 51.0059335,20.796875 C51.0449965,20.824219 51.0840585,20.851562 51.1231215,20.878906 C51.1504655,20.898438 51.1817155,20.914062 51.2090585,20.933594 C51.2168715,20.941406 51.2285895,20.945312 51.2364025,20.949219 C52.1426525,21.523438 53.2520275,21.851562 54.1778085,22.113281 C54.6309335,22.246094 55.0371835,22.359375 55.1582775,22.394531 C55.1856215,22.402344 55.2129655,22.410156 55.2364025,22.421875 C55.7910895,22.605469 56.2168715,22.753906 56.5684335,22.894531 C56.5957775,22.902344 56.6192155,22.914062 56.6465585,22.921875 C56.6543715,22.925781 56.6660895,22.929688 56.6778085,22.9375 C56.8770275,23.019531 57.0723395,23.105469 57.2598395,23.199219 C57.4160895,23.277344 57.5606215,23.359375 57.7051525,23.445312 C58.0762465,23.675781 58.3614025,23.925781 58.5528085,24.199219 C58.5606215,24.207031 58.5645275,24.214844 58.5684335,24.222656 C58.5879655,24.246094 58.6035895,24.269531 58.6153085,24.296875 C58.6270275,24.3125 58.6348395,24.324219 58.6426525,24.339844 C58.6543715,24.359375 58.6660895,24.378906 58.6739025,24.398438 C58.6856215,24.417969 58.6934335,24.441406 58.7051525,24.460938 C58.7129655,24.476562 58.7207775,24.492188 58.7285895,24.507812 C58.7364025,24.53125 58.7481215,24.554688 58.7559335,24.582031 C58.7598395,24.59375 58.7676525,24.609375 58.7715585,24.625 C58.7793715,24.652344 58.7871835,24.679688 58.7949965,24.707031 C58.7989025,24.71875 58.8028085,24.730469 58.8067155,24.746094 C58.8145275,24.773438 58.8223395,24.804688 58.8262465,24.832031 C58.8301525,24.84375 58.8340585,24.859375 58.8340585,24.871094 C58.8379655,24.902344 58.8418715,24.933594 58.8457775,24.964844 C58.8496835,24.976562 58.8496835,24.988281 58.8496835,25 C58.8535895,25.046875 58.8574965,25.089844 58.8574965,25.136719 C58.8574965,25.207031 58.8535895,25.273438 58.8496835,25.339844 C58.8496835,25.359375 58.8457775,25.378906 58.8457775,25.398438 C58.8418715,25.449219 58.8340585,25.5 58.8223395,25.550781 C58.8223395,25.566406 58.8184335,25.582031 58.8145275,25.597656 C58.7910895,25.734375 58.7520275,25.863281 58.7012465,25.992188 C58.6973395,25.996094 58.6973395,26 58.6973395,26.003906 C58.6699965,26.0625 58.6426525,26.125 58.6114025,26.179688 C58.6074965,26.1875 58.6074965,26.191406 58.6035895,26.195312 C58.5371835,26.320312 58.4590585,26.441406 58.3614025,26.554688 C58.3145275,26.613281 58.2637465,26.667969 58.2129655,26.722656 C58.2090585,26.722656 58.2090585,26.722656 58.2090585,26.726562 C58.1035895,26.832031 57.9864025,26.929688 57.8653085,27.019531 C57.8614025,27.023438 57.8574965,27.023438 57.8574965,27.027344 C57.7989025,27.066406 57.7403085,27.109375 57.6817155,27.144531 C57.6739025,27.152344 57.6660895,27.15625 57.6582775,27.160156 C57.5567155,27.222656 57.4473395,27.285156 57.3379655,27.339844 C57.2989025,27.359375 57.2598395,27.378906 57.2168715,27.398438 C57.1739025,27.417969 57.1270275,27.441406 57.0801525,27.460938 C57.0410895,27.476562 57.0059335,27.492188 56.9668715,27.507812 C56.8614025,27.546875 56.7598395,27.585938 56.6543715,27.621094 C56.6387465,27.625 56.6231215,27.628906 56.6074965,27.636719 C56.5449965,27.65625 56.4824965,27.671875 56.4199965,27.691406 C56.4043715,27.695312 56.3848395,27.703125 56.3692155,27.707031 C56.1621835,27.761719 55.9590585,27.804688 55.7676525,27.835938 C55.7637465,27.835938 55.7598395,27.835938 55.7559335,27.835938 C55.6582775,27.851562 55.5645275,27.863281 55.4746835,27.875 C55.4395275,27.878906 55.4082775,27.882812 55.3731215,27.882812 C55.3418715,27.886719 55.3106215,27.886719 55.2754655,27.890625 C55.2012465,27.894531 55.1231215,27.898438 55.0528085,27.898438 C54.9082775,27.898438 54.7676525,27.894531 54.6309335,27.886719 C54.5762465,27.886719 54.5215585,27.882812 54.4668715,27.878906 C54.3926525,27.871094 54.3145275,27.867188 54.2442155,27.859375 C54.1778085,27.855469 54.1074965,27.847656 54.0449965,27.839844 C53.9864025,27.832031 53.9317155,27.824219 53.8770275,27.816406 C53.7559335,27.796875 53.6426525,27.78125 53.5293715,27.757812 C53.4785895,27.746094 53.4239025,27.738281 53.3731215,27.726562 C53.3145275,27.710938 53.2559335,27.699219 53.1973395,27.683594 C53.1309335,27.667969 53.0684335,27.652344 53.0059335,27.632812 C52.9629655,27.621094 52.9160895,27.609375 52.8770275,27.597656 C52.7715585,27.566406 52.6660895,27.53125 52.5645275,27.492188 C52.5410895,27.484375 52.5176525,27.476562 52.4942155,27.46875 C52.2676525,27.382812 52.0449965,27.289062 51.8262465,27.179688 C51.8184335,27.175781 51.8067155,27.167969 51.7949965,27.164062 C51.6543715,27.09375 51.4160895,26.960938 51.1895275,26.832031 C51.1699965,26.820312 51.1465585,26.808594 51.1270275,26.796875 C50.9668715,26.703125 50.8301525,26.625 50.7012465,26.5625 C50.6895275,26.554688 50.6817155,26.550781 50.6739025,26.546875 C50.6660895,26.542969 50.6582775,26.539062 50.6543715,26.539062 C50.6192155,26.523438 50.5918715,26.507812 50.5606215,26.496094 C50.5489025,26.492188 50.5410895,26.488281 50.5332775,26.484375 C50.4512465,26.453125 50.3770275,26.429688 50.3028085,26.421875 C50.2793715,26.417969 50.2559335,26.417969 50.2324965,26.417969 C50.2246835,26.414062 50.2168715,26.414062 50.2090585,26.414062 C50.0606215,26.414062 49.9317155,26.464844 49.8106215,26.578125 C49.7832775,26.601562 49.7598395,26.625 49.7364025,26.652344 C49.7324965,26.660156 49.7246835,26.667969 49.7168715,26.675781 C49.7012465,26.695312 49.6895275,26.710938 49.6778085,26.726562 C49.6699965,26.738281 49.6621835,26.75 49.6582775,26.757812 C49.6465585,26.773438 49.6348395,26.789062 49.6270275,26.804688 C49.6192155,26.816406 49.6153085,26.828125 49.6114025,26.839844 C49.6035895,26.855469 49.5957775,26.871094 49.5879655,26.886719 C49.5840585,26.898438 49.5801525,26.90625 49.5762465,26.917969 C49.5684335,26.9375 49.5645275,26.953125 49.5606215,26.96875 C49.5567155,26.980469 49.5528085,26.988281 49.5528085,27 C49.5489025,27.019531 49.5449965,27.039062 49.5410895,27.058594 C49.5410895,27.066406 49.5371835,27.074219 49.5371835,27.082031 C49.5332775,27.109375 49.5332775,27.132812 49.5332775,27.15625 C49.5332775,27.160156 49.5332775,27.164062 49.5332775,27.167969 C49.5332775,27.199219 49.5371835,27.226562 49.5449965,27.257812 C49.5449965,27.261719 49.5449965,27.269531 49.5449965,27.273438 C49.5528085,27.296875 49.5567155,27.324219 49.5645275,27.347656 C49.5684335,27.359375 49.5723395,27.371094 49.5762465,27.382812 C49.5840585,27.402344 49.5879655,27.425781 49.5996835,27.445312 C49.6035895,27.457031 49.6074965,27.464844 49.6114025,27.472656 C49.6621835,27.589844 49.7442155,27.710938 49.8496835,27.828125 C49.9629655,27.953125 50.1074965,28.078125 50.2754655,28.207031 C50.2793715,28.207031 50.2793715,28.207031 50.2793715,28.210938 C50.3262465,28.242188 50.3731215,28.277344 50.4239025,28.3125 C50.4356215,28.320312 50.4434335,28.328125 50.4551525,28.332031 C50.5918715,28.425781 50.7364025,28.515625 50.9004655,28.609375 C50.9395275,28.632812 50.9785895,28.65625 51.0176525,28.675781 C51.0567155,28.699219 51.0957775,28.71875 51.1348395,28.738281 C51.1817155,28.765625 51.2364025,28.792969 51.2871835,28.820312 C51.3223395,28.835938 51.3535895,28.855469 51.3887465,28.871094 C51.4668715,28.910156 51.5489025,28.949219 51.6309335,28.988281 C51.6426525,28.996094 51.6504655,29 51.6621835,29.003906 C51.7520275,29.046875 51.8418715,29.085938 51.9317155,29.121094 C51.9707775,29.136719 52.0059335,29.152344 52.0449965,29.167969 C52.0528085,29.171875 52.0606215,29.175781 52.0684335,29.175781 C52.9043715,29.503906 53.9356215,29.722656 54.8457775,29.761719 C54.9121835,29.765625 54.9824965,29.769531 55.0489025,29.769531 L55.0528085,29.769531 C55.0840585,29.769531 55.1114025,29.769531 55.1426525,29.765625 C55.2129655,29.765625 55.2832775,29.765625 55.3535895,29.765625 C55.3614025,29.765625 55.3692155,29.765625 55.3770275,29.761719 C56.8574965,29.714844 58.0723395,29.332031 59.1074965,28.574219 C59.1074965,28.570312 59.1074965,28.570312 59.1074965,28.570312 C60.2559335,27.703125 60.8887465,26.480469 60.8887465,25.132812 C60.8887465,25.046875 60.8848395,24.960938 60.8809335,24.878906 C60.8809335,24.847656 60.8770275,24.816406 60.8770275,24.789062" id="Path9"></path>
            <path d="M70.4278085,13.582031 C70.4239025,13.582031 70.4199965,13.582031 70.4160895,13.582031 C68.5957775,13.582031 66.8770275,14.324219 65.6348395,15.636719 L65.6348395,14.519531 C65.6348395,14.003906 65.2364025,13.582031 64.7324965,13.582031 C64.6973395,13.582031 64.6660895,13.585938 64.6348395,13.585938 C64.4121835,13.609375 64.2168715,13.707031 64.0723395,13.851562 C64.0684335,13.851562 64.0684335,13.851562 64.0645275,13.855469 C64.0528085,13.871094 64.0371835,13.886719 64.0254655,13.902344 C64.0176525,13.90625 64.0098395,13.914062 64.0059335,13.921875 C63.9942155,13.933594 63.9864025,13.945312 63.9785895,13.957031 C63.9707775,13.96875 63.9629655,13.980469 63.9512465,13.992188 C63.9473395,14 63.9434335,14.007812 63.9395275,14.015625 C63.9278085,14.035156 63.9160895,14.054688 63.9043715,14.070312 C63.9043715,14.074219 63.9043715,14.078125 63.9004655,14.082031 C63.8887465,14.105469 63.8770275,14.128906 63.8653085,14.152344 C63.8457775,14.210938 63.8262465,14.269531 63.8145275,14.328125 C63.8145275,14.332031 63.8145275,14.335938 63.8106215,14.335938 C63.8067155,14.367188 63.8028085,14.394531 63.7989025,14.421875 C63.7989025,14.453125 63.7949965,14.484375 63.7949965,14.519531 L63.7949965,29.027344 L63.7832775,29.089844 L63.8301525,29.128906 C63.8301525,29.148438 63.8340585,29.175781 63.8457775,29.203125 C63.8457775,29.207031 63.8496835,29.214844 63.8496835,29.21875 C63.8574965,29.238281 63.8692155,29.261719 63.8887465,29.28125 C64.0098395,29.511719 64.2324965,29.6875 64.4942155,29.765625 L64.5137465,29.769531 L64.7324965,29.769531 C64.7676525,29.769531 64.8028085,29.769531 64.8379655,29.765625 C64.8614025,29.761719 64.8848395,29.753906 64.9082775,29.75 C64.9199965,29.75 64.9278085,29.75 64.9395275,29.746094 C64.9707775,29.738281 65.0020275,29.730469 65.0332775,29.71875 C65.0332775,29.71875 65.0332775,29.71875 65.0371835,29.71875 C65.2012465,29.660156 65.3418715,29.558594 65.4356215,29.421875 C65.4395275,29.417969 65.4434335,29.414062 65.4473395,29.410156 C65.5098395,29.34375 65.5449965,29.273438 65.5801525,29.175781 C65.5840585,29.164062 65.5879655,29.15625 65.5879655,29.148438 C65.5918715,29.144531 65.5918715,29.144531 65.5918715,29.140625 C65.6074965,29.09375 65.6192155,29.046875 65.6309335,29 L65.6348395,28.984375 L65.6348395,20.203125 C65.6973395,17.585938 67.8379655,15.457031 70.4082775,15.453125 C70.4121835,15.453125 70.4121835,15.453125 70.4160895,15.453125 C73.0332775,15.453125 75.1621835,17.582031 75.1621835,20.199219 L75.1621835,28.832031 C75.1621835,28.867188 75.1660895,28.898438 75.1699965,28.929688 C75.1895275,29.15625 75.2871835,29.351562 75.4317155,29.496094 C75.4317155,29.496094 75.4356215,29.496094 75.4356215,29.5 C75.4512465,29.515625 75.4668715,29.527344 75.4824965,29.542969 C75.4903085,29.550781 75.4942155,29.554688 75.5020275,29.558594 C75.5137465,29.570312 75.5254655,29.578125 75.5371835,29.585938 C75.5489025,29.597656 75.5606215,29.605469 75.5723395,29.613281 C75.5840585,29.617188 75.5918715,29.621094 75.5996835,29.628906 C75.6153085,29.640625 75.6348395,29.648438 75.6504655,29.660156 C75.6543715,29.660156 75.6582775,29.664062 75.6660895,29.664062 C75.6856215,29.675781 75.7090585,29.6875 75.7324965,29.699219 C75.7324965,29.699219 75.7364025,29.699219 75.7364025,29.699219 C75.7910895,29.722656 75.8496835,29.738281 75.9082775,29.75 C75.9160895,29.75 75.9199965,29.753906 75.9239025,29.753906 C75.9512465,29.757812 75.9746835,29.761719 76.0020275,29.765625 C76.0332775,29.769531 76.0645275,29.769531 76.0996835,29.769531 C76.1309335,29.769531 76.1621835,29.769531 76.1934335,29.765625 C76.2207775,29.761719 76.2481215,29.757812 76.2715585,29.753906 C76.2754655,29.753906 76.2832775,29.75 76.2871835,29.75 C76.3496835,29.738281 76.4043715,29.722656 76.4629655,29.699219 C76.4864025,29.6875 76.5098395,29.675781 76.5332775,29.664062 C76.5371835,29.664062 76.5410895,29.660156 76.5449965,29.660156 C76.5645275,29.648438 76.5801525,29.640625 76.5996835,29.628906 C76.6074965,29.621094 76.6153085,29.617188 76.6231215,29.613281 C76.6348395,29.605469 76.6465585,29.597656 76.6582775,29.585938 C76.6699965,29.578125 76.6856215,29.570312 76.6973395,29.558594 C76.7012465,29.554688 76.7090585,29.550781 76.7129655,29.542969 C76.7285895,29.527344 76.7481215,29.515625 76.7637465,29.5 C76.7637465,29.496094 76.7637465,29.496094 76.7637465,29.496094 C76.9121835,29.351562 77.0098395,29.15625 77.0293715,28.929688 C77.0332775,28.898438 77.0332775,28.867188 77.0332775,28.832031 L77.0332775,20.199219 C77.0332775,16.554688 74.0723395,13.589844 70.4278085,13.582031" id="Path10"></path>
            <path d="M87.2793715,13.550781 C91.5215585,13.550781 94.9707775,17.1875 94.9707775,21.660156 C94.9707775,26.132812 91.5215585,29.769531 87.2793715,29.769531 C87.1465585,29.769531 87.0176525,29.765625 86.8887465,29.757812 C86.8692155,29.757812 86.8535895,29.757812 86.8340585,29.753906 C86.7207775,29.75 86.6074965,29.738281 86.4981215,29.726562 C86.4942155,29.726562 86.4903085,29.726562 86.4864025,29.726562 C84.8106215,29.542969 83.2442155,28.777344 81.9981215,27.523438 C81.9473395,27.472656 81.8926525,27.421875 81.8457775,27.367188 C81.8418715,27.367188 81.8418715,27.363281 81.8379655,27.363281 C81.8106215,27.335938 81.7871835,27.304688 81.7598395,27.273438 C81.7012465,27.210938 81.6426525,27.144531 81.5840585,27.078125 C81.5371835,27.027344 81.4942155,26.96875 81.4473395,26.914062 C81.4160895,26.871094 81.3809335,26.828125 81.3457775,26.785156 C81.2754655,26.699219 81.2090585,26.609375 81.1465585,26.519531 C81.1387465,26.507812 81.1309335,26.496094 81.1231215,26.484375 C80.3614025,25.417969 79.8653085,24.1875 79.6778085,22.882812 C79.6582775,22.761719 79.6465585,22.640625 79.6348395,22.519531 C79.6309335,22.507812 79.6309335,22.492188 79.6270275,22.476562 C79.6153085,22.363281 79.6074965,22.253906 79.6035895,22.140625 C79.5996835,22.117188 79.5996835,22.09375 79.5996835,22.066406 C79.5918715,21.933594 79.5879655,21.796875 79.5879655,21.660156 C79.5879655,21.523438 79.5918715,21.386719 79.5996835,21.253906 C79.5996835,21.226562 79.5996835,21.203125 79.6035895,21.179688 C79.6074965,21.066406 79.6153085,20.953125 79.6270275,20.84375 C79.6309335,20.828125 79.6309335,20.8125 79.6348395,20.800781 C79.6465585,20.679688 79.6582775,20.558594 79.6778085,20.4375 C79.8653085,19.132812 80.3614025,17.902344 81.1231215,16.835938 C81.1270275,16.824219 81.1348395,16.8125 81.1426525,16.804688 C81.2090585,16.710938 81.2754655,16.621094 81.3457775,16.53125 C81.3770275,16.492188 81.4121835,16.453125 81.4434335,16.410156 C81.4903085,16.351562 81.5371835,16.296875 81.5840585,16.238281 C81.6387465,16.175781 81.6934335,16.117188 81.7520275,16.054688 C81.7793715,16.023438 81.8106215,15.988281 81.8379655,15.957031 C81.8418715,15.957031 81.8418715,15.953125 81.8457775,15.953125 C81.8887465,15.902344 81.9395275,15.855469 81.9864025,15.808594 C83.2324965,14.550781 84.8028085,13.777344 86.4864025,13.59375 C86.4903085,13.59375 86.4942155,13.59375 86.4981215,13.59375 C86.6074965,13.582031 86.7207775,13.574219 86.8340585,13.566406 C86.8535895,13.566406 86.8692155,13.5625 86.8887465,13.5625 C87.0176525,13.554688 87.1465585,13.550781 87.2793715,13.550781 Z M93.0684335,21.023438 C93.0684335,21.019531 93.0684335,21.019531 93.0684335,21.015625 C92.9317155,19.609375 92.3535895,18.339844 91.4903085,17.359375 C91.4512465,17.316406 91.4160895,17.273438 91.3770275,17.230469 C91.3535895,17.207031 91.3301525,17.183594 91.3067155,17.160156 C91.2598395,17.113281 91.2168715,17.066406 91.1699965,17.019531 C91.1270275,16.976562 91.0801525,16.9375 91.0371835,16.898438 C91.0098395,16.875 90.9864025,16.847656 90.9590585,16.824219 C90.8887465,16.761719 90.8184335,16.703125 90.7481215,16.644531 C90.7481215,16.644531 90.7442155,16.644531 90.7442155,16.640625 C89.9278085,15.980469 88.9473395,15.546875 87.8926525,15.425781 C87.8809335,15.425781 87.8731215,15.421875 87.8653085,15.421875 C87.7832775,15.410156 87.7051525,15.40625 87.6231215,15.402344 C87.6035895,15.398438 87.5879655,15.398438 87.5723395,15.398438 C87.4746835,15.390625 87.3770275,15.390625 87.2793715,15.390625 C87.1817155,15.390625 87.0840585,15.390625 86.9864025,15.398438 C86.9707775,15.398438 86.9551525,15.398438 86.9356215,15.402344 C86.8535895,15.40625 86.7754655,15.410156 86.6934335,15.421875 C86.6856215,15.421875 86.6778085,15.425781 86.6660895,15.425781 C85.6114025,15.546875 84.6309335,15.980469 83.8145275,16.640625 C83.8145275,16.644531 83.8106215,16.644531 83.8106215,16.644531 C83.7403085,16.703125 83.6699965,16.761719 83.5996835,16.824219 C83.5723395,16.847656 83.5489025,16.871094 83.5215585,16.894531 C83.4785895,16.9375 83.4317155,16.976562 83.3887465,17.019531 C83.3457775,17.0625 83.3028085,17.109375 83.2559335,17.15625 C83.2324965,17.179688 83.2090585,17.203125 83.1817155,17.230469 C83.1465585,17.269531 83.1114025,17.3125 83.0723395,17.355469 C82.2090585,18.335938 81.6270275,19.609375 81.4903085,21.015625 C81.4903085,21.019531 81.4903085,21.019531 81.4903085,21.023438 C81.4824965,21.113281 81.4746835,21.203125 81.4707775,21.296875 C81.4707775,21.3125 81.4668715,21.328125 81.4668715,21.34375 C81.4629655,21.449219 81.4590585,21.554688 81.4590585,21.660156 C81.4590585,25.09375 84.0996835,27.898438 87.2793715,27.898438 C90.4590585,27.898438 93.0996835,25.09375 93.0996835,21.660156 C93.0996835,21.554688 93.0957775,21.449219 93.0918715,21.34375 C93.0918715,21.328125 93.0879655,21.3125 93.0879655,21.296875 C93.0840585,21.203125 93.0762465,21.113281 93.0684335,21.023438 Z" id="Combined-Shape4"></path>
            <path d="M117.576246,13.953125 C117.568433,13.945312 117.564527,13.9375 117.556715,13.929688 C117.462965,13.8125 117.337965,13.71875 117.197339,13.660156 C117.197339,13.660156 117.197339,13.660156 117.193433,13.660156 C117.177808,13.648438 117.158277,13.644531 117.142652,13.636719 C117.134839,13.636719 117.127027,13.632812 117.115308,13.628906 C116.990308,13.585938 116.853589,13.578125 116.720777,13.597656 C116.720777,13.597656 116.716871,13.597656 116.716871,13.597656 C116.447339,13.640625 116.189527,13.804688 116.044996,14.046875 C116.044996,14.046875 116.044996,14.046875 116.041089,14.046875 C116.021558,14.085938 115.998121,14.125 115.982496,14.164062 L115.978589,14.167969 C115.978589,14.167969 115.978589,14.171875 115.978589,14.171875 L111.502027,26.425781 L107.986402,18.058594 C107.951246,17.980469 107.904371,17.910156 107.849683,17.84375 C107.658277,17.621094 107.365308,17.480469 107.064527,17.480469 C107.017652,17.480469 106.974683,17.480469 106.927808,17.492188 C106.923902,17.492188 106.919996,17.492188 106.912183,17.492188 C106.599683,17.546875 106.306715,17.765625 106.173902,18.058594 C106.173902,18.0625 106.173902,18.0625 106.173902,18.0625 L102.658277,26.429688 L100.955152,21.800781 L98.1504655,14.171875 C98.1348395,14.128906 98.1192155,14.09375 98.0996835,14.054688 C98.0957775,14.050781 98.0957775,14.050781 98.0918715,14.046875 C98.0059335,13.886719 97.8692155,13.761719 97.7051525,13.683594 C97.7051525,13.683594 97.7012465,13.683594 97.7012465,13.679688 C97.6192155,13.644531 97.5332775,13.617188 97.4434335,13.601562 C97.4356215,13.601562 97.4317155,13.601562 97.4239025,13.597656 C97.3809335,13.59375 97.3340585,13.589844 97.2910895,13.589844 C97.2910895,13.589844 97.2871835,13.589844 97.2871835,13.589844 C97.2754655,13.589844 97.2676525,13.589844 97.2598395,13.589844 C97.2403085,13.589844 97.2207775,13.589844 97.2012465,13.59375 C97.1895275,13.59375 97.1739025,13.597656 97.1621835,13.597656 C97.1426525,13.601562 97.1270275,13.601562 97.1114025,13.605469 C97.0996835,13.609375 97.0879655,13.609375 97.0762465,13.613281 C97.0567155,13.617188 97.0371835,13.621094 97.0176525,13.628906 C97.0098395,13.632812 97.0020275,13.632812 96.9942155,13.636719 C96.9746835,13.644531 96.9551525,13.648438 96.9356215,13.660156 C96.9356215,13.660156 96.9356215,13.660156 96.9317155,13.660156 C96.7715585,13.730469 96.6426525,13.851562 96.5489025,13.992188 C96.5449965,14 96.5410895,14.003906 96.5371835,14.011719 C96.5332775,14.019531 96.5293715,14.027344 96.5254655,14.035156 C96.4551525,14.152344 96.4121835,14.289062 96.3965585,14.425781 C96.3809335,14.570312 96.4004655,14.722656 96.4590585,14.863281 L99.7051525,23.585938 L101.787183,29.179688 C101.787183,29.179688 101.787183,29.179688 101.787183,29.183594 C101.873121,29.394531 101.998121,29.539062 102.169996,29.617188 C102.173902,29.621094 102.181715,29.625 102.185621,29.628906 C102.189527,29.632812 102.193433,29.636719 102.201246,29.640625 C102.201246,29.644531 102.205152,29.644531 102.209058,29.648438 C102.216871,29.652344 102.220777,29.65625 102.228589,29.664062 C102.232496,29.664062 102.232496,29.664062 102.236402,29.664062 C102.267652,29.683594 102.306715,29.699219 102.357496,29.703125 C102.361402,29.703125 102.365308,29.707031 102.369215,29.707031 C102.384839,29.710938 102.400465,29.71875 102.416089,29.722656 C102.423902,29.722656 102.431715,29.726562 102.439527,29.726562 C102.537183,29.757812 102.599683,29.769531 102.677808,29.769531 C102.720777,29.769531 102.759839,29.765625 102.802808,29.757812 C102.834058,29.753906 102.869215,29.746094 102.900465,29.734375 C102.908277,29.730469 102.916089,29.730469 102.923902,29.726562 C102.955152,29.71875 102.986402,29.707031 103.017652,29.691406 C103.029371,29.6875 103.041089,29.683594 103.052808,29.675781 C103.072339,29.664062 103.095777,29.652344 103.119215,29.640625 C103.134839,29.628906 103.154371,29.617188 103.173902,29.605469 C103.185621,29.597656 103.197339,29.585938 103.209058,29.578125 C103.236402,29.558594 103.259839,29.539062 103.287183,29.515625 C103.291089,29.511719 103.294996,29.507812 103.298902,29.5 C103.326246,29.472656 103.353589,29.445312 103.380933,29.414062 C103.380933,29.410156 103.384839,29.40625 103.388746,29.402344 C103.412183,29.371094 103.435621,29.335938 103.455152,29.300781 C103.474683,29.261719 103.494215,29.21875 103.509839,29.175781 L103.513746,29.164062 L103.525465,29.148438 L103.537183,29.121094 L107.064527,20.699219 L110.623121,29.152344 C110.650465,29.238281 110.693433,29.316406 110.752027,29.390625 C110.759839,29.402344 110.767652,29.410156 110.775465,29.421875 C110.794996,29.445312 110.814527,29.46875 110.837965,29.492188 C110.849683,29.5 110.861402,29.511719 110.873121,29.519531 C110.892652,29.539062 110.916089,29.558594 110.939527,29.578125 C110.951246,29.585938 110.959058,29.59375 110.970777,29.597656 C110.998121,29.617188 111.025465,29.636719 111.052808,29.652344 C111.060621,29.65625 111.068433,29.660156 111.076246,29.664062 C111.107496,29.679688 111.134839,29.695312 111.169996,29.707031 C111.177808,29.710938 111.185621,29.714844 111.197339,29.714844 C111.224683,29.726562 111.252027,29.738281 111.283277,29.746094 C111.322339,29.753906 111.361402,29.761719 111.396558,29.769531 L111.513746,29.769531 C111.560621,29.769531 111.603589,29.765625 111.646558,29.757812 C111.658277,29.757812 111.666089,29.757812 111.677808,29.753906 C111.716871,29.746094 111.752027,29.738281 111.787183,29.726562 C111.798902,29.722656 111.806715,29.71875 111.814527,29.714844 C111.853589,29.703125 111.892652,29.683594 111.927808,29.664062 C111.931715,29.664062 111.935621,29.660156 111.939527,29.660156 C111.982496,29.632812 112.025465,29.605469 112.060621,29.578125 C112.216871,29.460938 112.330152,29.308594 112.408277,29.121094 L112.408277,29.117188 L114.607496,23.195312 L117.701246,14.863281 C117.822339,14.570312 117.775465,14.25 117.607496,14 C117.599683,13.984375 117.587965,13.96875 117.576246,13.953125" id="Path11"></path>
            <path d="M167.252027,14.214844 C167.252027,14.199219 167.248121,14.179688 167.244215,14.164062 C167.244215,14.152344 167.240308,14.140625 167.236402,14.128906 C167.232496,14.109375 167.228589,14.089844 167.224683,14.074219 C167.220777,14.0625 167.216871,14.050781 167.212965,14.042969 C167.209058,14.019531 167.201246,14 167.189527,13.980469 C167.189527,13.972656 167.185621,13.96875 167.181715,13.960938 C167.169996,13.933594 167.158277,13.910156 167.142652,13.886719 C167.142652,13.882812 167.142652,13.882812 167.142652,13.882812 C167.095777,13.800781 167.037183,13.730469 166.970777,13.667969 C166.966871,13.664062 166.966871,13.664062 166.966871,13.664062 C166.962965,13.660156 166.962965,13.660156 166.962965,13.660156 C166.630933,13.328125 166.162183,13.285156 165.794996,13.542969 C165.783277,13.550781 165.775465,13.558594 165.763746,13.5625 C165.748121,13.574219 165.732496,13.585938 165.716871,13.597656 C165.693433,13.621094 165.669996,13.640625 165.646558,13.664062 C165.646558,13.664062 165.642652,13.664062 165.642652,13.667969 L156.490308,22.589844 L156.490308,7.667969 C156.490308,7.636719 156.490308,7.605469 156.486402,7.574219 C156.451246,7.230469 156.220777,6.945312 155.908277,6.8125 C155.904371,6.8125 155.904371,6.808594 155.900465,6.808594 C155.880933,6.800781 155.861402,6.792969 155.841871,6.789062 C155.834058,6.785156 155.822339,6.78125 155.810621,6.777344 C155.794996,6.773438 155.779371,6.769531 155.759839,6.765625 C155.748121,6.761719 155.732496,6.757812 155.716871,6.753906 C155.701246,6.75 155.681715,6.746094 155.666089,6.746094 C155.650465,6.742188 155.638746,6.742188 155.623121,6.738281 C155.587965,6.734375 155.556715,6.734375 155.525465,6.734375 C155.013746,6.734375 154.587965,7.160156 154.587965,7.667969 L154.587965,28.832031 C154.587965,29.34375 155.013746,29.769531 155.525465,29.769531 C155.556715,29.769531 155.591871,29.769531 155.623121,29.765625 C155.627027,29.765625 155.630933,29.761719 155.638746,29.761719 C155.666089,29.757812 155.693433,29.757812 155.716871,29.75 C155.724683,29.75 155.732496,29.746094 155.740308,29.746094 C155.763746,29.738281 155.787183,29.734375 155.810621,29.726562 C155.814527,29.726562 155.818433,29.722656 155.822339,29.722656 C156.181715,29.609375 156.447339,29.300781 156.486402,28.929688 C156.490308,28.898438 156.490308,28.867188 156.490308,28.832031 L156.490308,25.261719 L159.572339,22.183594 L165.560621,29.410156 C165.599683,29.472656 165.642652,29.527344 165.697339,29.570312 C165.709058,29.582031 165.716871,29.589844 165.728589,29.597656 C165.744215,29.609375 165.759839,29.621094 165.775465,29.628906 C165.794996,29.644531 165.814527,29.652344 165.834058,29.664062 C165.841871,29.667969 165.853589,29.675781 165.861402,29.679688 C165.888746,29.691406 165.912183,29.699219 165.939527,29.710938 C165.947339,29.714844 165.955152,29.714844 165.959058,29.71875 C165.990308,29.726562 166.017652,29.734375 166.048902,29.742188 C166.052808,29.742188 166.060621,29.746094 166.068433,29.746094 C166.099683,29.753906 166.127027,29.757812 166.162183,29.761719 C166.169996,29.761719 166.177808,29.761719 166.185621,29.765625 C166.224683,29.765625 166.263746,29.769531 166.306715,29.769531 C166.369215,29.769531 166.427808,29.765625 166.482496,29.757812 C166.486402,29.757812 166.486402,29.757812 166.486402,29.757812 C166.595777,29.742188 166.697339,29.707031 166.791089,29.660156 C166.794996,29.660156 166.794996,29.65625 166.794996,29.65625 C166.837965,29.632812 166.880933,29.605469 166.923902,29.574219 L166.935621,29.5625 C167.291089,29.207031 167.345777,28.722656 167.087965,28.320312 C167.064527,28.285156 167.041089,28.25 167.013746,28.214844 L160.931715,20.828125 L166.970777,14.992188 C167.130933,14.828125 167.228589,14.628906 167.252027,14.414062 C167.252027,14.410156 167.252027,14.40625 167.255933,14.402344 C167.255933,14.382812 167.255933,14.359375 167.255933,14.339844 C167.255933,14.328125 167.259839,14.316406 167.259839,14.308594 C167.259839,14.300781 167.259839,14.296875 167.259839,14.292969 C167.259839,14.277344 167.255933,14.265625 167.255933,14.25 C167.255933,14.238281 167.252027,14.226562 167.252027,14.214844" id="Path12"></path>
        </g>
    </g>
</svg>