<svg width="100%" height="100%" viewBox="0 0 24 24" fill="none" xmlns="http://www.w3.org/2000/svg">
<g clip-path="url(#clip0_817_123575)">
<path fill-rule="evenodd" clip-rule="evenodd" d="M8.01531 12.4383C7.90788 12.7848 7.6748 13.0928 7.33169 13.2895L2.24756 16.2138C1.52943 16.625 0.614693 16.3811 0.202572 15.6699C-0.212155 14.9546 0.0319935 14.0446 0.749463 13.6321L3.5907 12.001L0.749463 10.3653C0.0319935 9.95342 -0.213457 9.04339 0.202572 8.3308C0.614693 7.61755 1.52943 7.37305 2.24756 7.78426L7.33169 10.7065C7.68913 10.9118 7.92807 11.2374 8.02833 11.6015C8.06218 11.7186 8.07716 11.8356 8.08302 11.9533C8.08692 12.1154 8.06609 12.2795 8.01531 12.4383ZM9.39491 15.1769C10.169 15.2325 10.7804 15.8771 10.7804 16.6616V22.5081C10.7804 23.3325 10.1085 24 9.28358 24C8.45477 24 7.78548 23.3325 7.78548 22.5081V19.238L4.93449 20.8744C4.21962 21.2889 3.30553 21.0437 2.89015 20.3318C2.47738 19.6185 2.72153 18.7039 3.4377 18.2921L8.52574 15.3717C8.79919 15.2129 9.10258 15.1521 9.39491 15.1769ZM14.606 8.82308C13.8299 8.7662 13.2199 8.12029 13.2199 7.33644V1.48925C13.2199 0.667484 13.8879 0 14.7173 0C15.5461 0 16.2154 0.667484 16.2154 1.48925V4.7613L19.0645 3.12233C19.7806 2.71047 20.6954 2.95497 21.1082 3.66691C21.5203 4.38277 21.2774 5.29345 20.5606 5.70532L15.4732 8.62826C15.1998 8.78516 14.897 8.84661 14.606 8.82308ZM3.4377 5.70532C2.72153 5.29345 2.47738 4.38277 2.89015 3.66691C3.30553 2.95497 4.21962 2.71047 4.93449 3.12233L7.78548 4.7613V1.48925C7.78548 0.667484 8.45477 0 9.28358 0C10.1085 0 10.7804 0.667484 10.7804 1.48925V7.33644C10.7804 8.12029 10.169 8.7662 9.39491 8.82308C9.10258 8.84661 8.79919 8.78516 8.52574 8.62826L3.4377 5.70532ZM12.5753 14.6742C12.5148 14.7363 12.3983 14.7866 12.3097 14.7866H11.6879C11.6027 14.7866 11.4842 14.7363 11.4223 14.6742L9.30897 12.5724C9.24842 12.5129 9.19959 12.3939 9.19959 12.3102V11.6898C9.19959 11.6042 9.24842 11.4852 9.30897 11.425L11.4223 9.32255C11.4842 9.26109 11.6027 9.21206 11.6879 9.21206H12.3097C12.3963 9.21206 12.5148 9.26109 12.5753 9.32255L14.69 11.425C14.7505 11.4852 14.7994 11.6042 14.7994 11.6898V12.3102C14.7994 12.3939 14.7505 12.5129 14.69 12.5724L12.5753 14.6742ZM12.9998 11.9886C12.9998 11.9036 12.9484 11.7852 12.8879 11.7225L12.2752 11.1158C12.2153 11.0557 12.0962 11.006 12.0109 11.006H11.9868C11.9015 11.006 11.783 11.0557 11.7238 11.1158L11.1111 11.7225C11.0499 11.7852 11.003 11.9036 11.003 11.9886V12.0127C11.003 12.0964 11.0499 12.2135 11.1111 12.2749L11.7238 12.8829C11.7837 12.943 11.9015 12.9927 11.9868 12.9927H12.0109C12.0962 12.9927 12.2153 12.943 12.2752 12.8829L12.8879 12.2749C12.9484 12.2135 12.9998 12.0964 12.9998 12.0127V11.9886ZM20.5606 18.2921C21.2774 18.7039 21.5203 19.6185 21.1082 20.3318C20.6954 21.0437 19.78 21.2889 19.0645 20.8744L16.2154 19.238V22.5081C16.2154 23.3325 15.5461 24 14.7173 24C13.8879 24 13.2199 23.3325 13.2199 22.5081V16.6616C13.2199 15.8771 13.8299 15.2325 14.606 15.1769C14.897 15.1521 15.1998 15.2129 15.4732 15.3717L20.5606 18.2921ZM20.4089 12.001L23.2501 13.6321C23.9676 14.0446 24.2131 14.9546 23.7983 15.6699C23.3843 16.3811 22.4682 16.625 21.7534 16.2138L16.6653 13.2895C16.3255 13.0928 16.0904 12.7848 15.9856 12.4383C15.9361 12.2795 15.9127 12.1154 15.9185 11.9533C15.9211 11.8356 15.9387 11.7186 15.9713 11.6015C16.0728 11.2374 16.3118 10.9118 16.6653 10.7065L21.7534 7.78426C22.4682 7.37305 23.3843 7.61755 23.7983 8.3308C24.2131 9.04339 23.9676 9.95342 23.2501 10.3653L20.4089 12.001Z" fill="#29B5E8"/>
</g>
<defs>
<clipPath id="clip0_817_123575">
<rect width="24" height="24" fill="white"/>
</clipPath>
</defs>
</svg>
