<svg width="24" height="24" viewBox="0 0 24 24" fill="none" xmlns="http://www.w3.org/2000/svg">
<path d="M12.0002 22C17.5229 22 22 17.5226 22 12C22 6.47655 17.5233 2 12.0002 2C6.4771 2 2 6.47655 2 12C2 17.5226 6.4771 22 12.0002 22Z" fill="#1FC0E7"/>
<path d="M6.87245 11.9975L8.57556 10.2864C8.632 10.2295 8.66356 10.153 8.66356 10.0722C8.66356 9.90326 8.52667 9.76637 8.35822 9.76637C8.276 9.76637 8.19911 9.79837 8.14134 9.85748L6.43911 11.561L4.73022 9.85437C4.67245 9.79748 4.596 9.76637 4.51467 9.76637C4.34578 9.76637 4.20934 9.90326 4.20934 10.0717C4.20934 10.1539 4.24222 10.2317 4.30089 10.2895L6.004 11.9948L4.30178 13.7015C4.24222 13.761 4.20934 13.8384 4.20934 13.9206C4.20934 14.0895 4.34622 14.2264 4.51467 14.2264C4.596 14.2264 4.67245 14.1953 4.73022 14.1375L6.43689 12.4299L8.13689 14.1308C8.19734 14.193 8.27467 14.2264 8.35822 14.2264C8.52622 14.2264 8.66311 14.0895 8.66311 13.9206C8.66311 13.8393 8.632 13.7628 8.57422 13.705L6.872 11.9957L6.87245 11.9975ZM16.9973 11.997C16.9973 12.3037 17.2462 12.5526 17.5529 12.5526C17.8578 12.5526 18.1067 12.3037 18.1067 11.997C18.1067 11.6904 17.8578 11.4415 17.5524 11.4415C17.2471 11.4415 16.9987 11.6904 16.9987 11.997H16.9973ZM15.9462 11.997C15.9462 11.1104 16.6662 10.3882 17.5524 10.3882C18.4369 10.3882 19.1582 11.1104 19.1582 11.997C19.1582 12.8837 18.4373 13.6059 17.5524 13.6059C16.6667 13.6059 15.9462 12.8846 15.9462 11.997ZM15.3142 11.997C15.3142 13.2326 16.3187 14.2388 17.5524 14.2388C18.7862 14.2388 19.7907 13.2335 19.7907 11.9975C19.7907 10.7619 18.7862 9.75571 17.5524 9.75571C16.3182 9.75571 15.3142 10.7615 15.3142 11.9975V11.997ZM15.1556 9.79393H15.0622C14.78 9.79393 14.508 9.88282 14.2809 10.0584C14.2498 9.92237 14.1271 9.81837 13.9813 9.81837C13.8138 9.81837 13.6791 9.95393 13.6791 10.1224L13.68 13.8979C13.68 14.0655 13.8178 14.2019 13.9844 14.2019C14.1524 14.2019 14.2893 14.0655 14.2898 13.897V11.5753C14.2898 10.8019 14.3609 10.489 15.0222 10.4064C15.0844 10.3988 15.1502 10.4002 15.1511 10.4002C15.3316 10.3935 15.4604 10.2686 15.4604 10.1002C15.4604 9.93126 15.3227 9.79437 15.1538 9.79437L15.1556 9.79393ZM9.29511 11.6286C9.29511 11.6197 9.296 11.6108 9.29645 11.6028C9.47334 10.9006 10.108 10.3819 10.8631 10.3819C11.6276 10.3819 12.2676 10.9126 12.4364 11.6273H9.29467L9.29511 11.6286ZM13.0609 11.5708C12.9293 10.9473 12.5884 10.4348 12.0698 10.1059C11.3107 9.62326 10.3089 9.64993 9.57645 10.1726C8.97822 10.5979 8.63289 11.2948 8.63289 12.0126C8.63289 12.1926 8.65511 12.3744 8.69956 12.5535C8.92534 13.4424 9.68889 14.1162 10.5991 14.2277C10.8693 14.2606 11.1324 14.2455 11.4036 14.1744C11.6382 14.1166 11.8644 14.0224 12.0729 13.8882C12.2893 13.749 12.4702 13.565 12.6462 13.345C12.6489 13.3406 12.6524 13.3375 12.656 13.333C12.7778 13.1819 12.7551 12.9659 12.6218 12.8637C12.5089 12.777 12.3196 12.7419 12.1711 12.933C12.1391 12.9793 12.1031 13.0264 12.0644 13.073C11.9458 13.2042 11.7987 13.3308 11.6227 13.4295C11.3978 13.5495 11.1427 13.6175 10.8716 13.6193C9.98356 13.609 9.50889 12.9882 9.33956 12.5455C9.31022 12.4624 9.28756 12.3766 9.27156 12.2877L9.26711 12.241H12.4538C12.8902 12.2313 13.1249 11.9224 13.06 11.5699L13.0609 11.5708Z" fill="white"/>
</svg>
