<svg width="24" height="24" viewBox="0 0 24 24" fill="none" xmlns="http://www.w3.org/2000/svg">
<path d="M12 2C6.477 2 2 6.477 2 12s4.477 10 10 10 10-4.477 10-10S17.523 2 12 2z" fill="#FF7A59"/>
<path d="M8.5 9.5c0-.828.672-1.5 1.5-1.5s1.5.672 1.5 1.5-.672 1.5-1.5 1.5-1.5-.672-1.5-1.5zm4 0c0-.828.672-1.5 1.5-1.5s1.5.672 1.5 1.5-.672 1.5-1.5 1.5-1.5-.672-1.5-1.5z" fill="#FFF"/>
<path d="M7 13.5c0-1.5 2.5-3 5-3s5 1.5 5 3-2.5 3-5 3-5-1.5-5-3z" fill="#FFF"/>
<path d="M9 15c.5-.5 1.5-1 3-1s2.5.5 3 1c-.5.5-1.5 1-3 1s-2.5-.5-3-1z" fill="#FF7A59"/>
</svg>