<svg width="100%" height="100%" viewBox="0 0 24 24" fill="none" xmlns="http://www.w3.org/2000/svg">
<g clip-path="url(#clip0_817_123568)">
<path d="M1.9587 1.03539L15.2384 0.0545252C16.8696 -0.0853921 17.2886 0.00892605 18.3144 0.754592L22.5534 3.74085C23.2525 4.25444 23.4853 4.39436 23.4853 4.95355V21.3316C23.4853 22.358 23.1126 22.9652 21.8078 23.0578L6.38662 23.9919C5.40743 24.0382 4.94112 23.8983 4.42825 23.2448L1.30663 19.1855C0.746724 18.4384 0.514648 17.8792 0.514648 17.2255V2.66735C0.514648 1.82809 0.887361 1.12826 1.9587 1.03539Z" fill="white"/>
<path fill-rule="evenodd" clip-rule="evenodd" d="M15.2384 0.0547652L1.9587 1.03563C0.887361 1.12826 0.514648 1.82833 0.514648 2.66735V17.2255C0.514648 17.879 0.746724 18.4382 1.30663 19.1855L4.42825 23.2446C4.94112 23.8981 5.40743 24.0382 6.38662 23.9917L21.808 23.0581C23.1119 22.9652 23.4856 22.358 23.4856 21.3318V4.95379C23.4856 4.4234 23.2761 4.27052 22.6593 3.81789L18.3144 0.754592C17.2889 0.00892605 16.8696 -0.0853921 15.2384 0.0545252V0.0547652ZM6.73533 4.68572C5.47607 4.77043 5.19048 4.78963 4.47529 4.20813L2.65709 2.76191C2.47229 2.57472 2.56517 2.3412 3.03076 2.29464L15.7968 1.36178C16.8689 1.26818 17.4271 1.64185 17.8464 1.96825L20.0359 3.55462C20.1295 3.6019 20.3623 3.88101 20.0822 3.88101L6.89853 4.67468L6.73533 4.68572ZM5.26728 21.1919V7.28823C5.26728 6.68104 5.45375 6.40096 6.01198 6.35392L21.1543 5.46738C21.6678 5.42106 21.8999 5.74746 21.8999 6.35368V20.1647C21.8999 20.7719 21.8063 21.2855 20.968 21.3318L6.47781 22.1718C5.63951 22.2181 5.26752 21.939 5.26752 21.1919H5.26728ZM19.571 8.03365C19.6639 8.45364 19.571 8.87364 19.151 8.92163L18.4526 9.06011V19.3254C17.8462 19.6518 17.2879 19.8383 16.8214 19.8383C16.0757 19.8383 15.8895 19.6048 15.331 18.9054L10.7639 11.72V18.6719L12.2087 18.999C12.2087 18.999 12.2087 19.839 11.043 19.839L7.82947 20.0255C7.73587 19.8383 7.82947 19.372 8.15514 19.2791L8.9944 19.0463V9.8545L7.82971 9.76018C7.73611 9.34019 7.9689 8.73372 8.62169 8.68668L12.0697 8.4546L16.8216 15.7329V9.29387L15.6104 9.15467C15.5168 8.64036 15.8895 8.26669 16.3551 8.22109L19.571 8.03365Z" fill="black"/>
</g>
<defs>
<clipPath id="clip0_817_123568">
<rect width="24" height="24" fill="white"/>
</clipPath>
</defs>
</svg>
