<svg width="24" height="24" viewBox="0 0 24 24" fill="none" xmlns="http://www.w3.org/2000/svg">
<g clip-path="url(#clip0_127_41)">
<path d="M10.544 19.6692C11.1746 19.6692 11.6858 20.1804 11.6858 20.8109C11.6858 21.4415 11.1746 21.9527 10.544 21.9527C9.91343 21.9527 9.40225 21.4415 9.40225 20.8109C9.40225 20.1804 9.91343 19.6692 10.544 19.6692ZM16.8784 17.586L18.0067 17.9203L17.1111 20.9431C17.0328 21.2072 16.7818 21.3817 16.507 21.3629L16.2303 21.344L16.2236 21.3495L13.3492 21.1478L13.4292 19.9738L15.3604 20.1048L14.0961 18.2811L15.0632 17.6106L16.3291 19.4366L16.8784 17.586ZM4.5981 15.4964L5.77194 15.5795L5.63444 17.5103L7.45487 16.2445L8.12689 17.2105L6.30408 18.4777L8.16464 19.0259L7.83207 20.1547L4.79504 19.2599C4.52989 19.1818 4.35487 18.9297 4.3744 18.654L4.5981 15.4964ZM12.1772 13.8522L14.2957 16.41L13.3409 17.2008L12.0801 15.6786L11.6713 18.019L10.45 17.8055L10.8592 15.4615L9.16178 16.4623L8.53246 15.3941L11.3851 13.7135C11.6474 13.559 11.983 13.6178 12.1772 13.8522ZM18.1045 12.1361L19.1628 11.5603L20.7045 14.394C20.8396 14.6422 20.7839 14.951 20.5707 15.1364L20.3525 15.3249L18.1268 17.2619L17.3362 16.3528L18.8325 15.051L16.6037 14.6495L16.8175 13.4638L19.0448 13.8651L18.1045 12.1361ZM5.62376 9.17356L6.42099 10.0769L4.94518 11.3785L7.17825 11.7683L6.97127 12.9552L4.73574 12.5651L5.69598 14.301L4.64174 14.8842L3.07531 12.0526C2.93854 11.8053 2.99198 11.4963 3.20381 11.3093L5.62376 9.17356ZM13.172 8.24165L15.2834 10.7926L14.3283 11.5831L13.0677 10.0602L12.659 12.4013L11.4377 12.1878L11.8454 9.85288L10.1545 10.8441L9.52761 9.77445L12.1249 8.25162L12.1275 8.24173L12.1389 8.24322L12.381 8.10209C12.6432 7.9484 12.9782 8.0075 13.172 8.24165ZM15.8928 6.98711L16.3546 5.87432L19.3415 7.11388C19.6023 7.22208 19.7529 7.49679 19.7039 7.77478L19.6542 8.05129L19.1441 10.9527L17.9576 10.7437L18.2995 8.80149L16.3178 9.89673L15.7354 8.84203L17.7209 7.74589L15.8928 6.98711ZM10.2026 4.79426L10.2539 5.99796L8.28078 6.08229L9.76896 7.78298L8.86226 8.57634L7.37158 6.87311L7.02428 8.81762L5.83831 8.60549L6.40668 5.4278C6.45635 5.15008 6.69212 4.94404 6.97398 4.93202L7.2532 4.91953L7.25947 4.91499L10.2026 4.79426ZM14.2388 2.22722L16.3406 4.79423L15.3813 5.57968L14.1338 4.05586L13.7131 6.39386L12.4929 6.17428L12.9143 3.83101L11.2111 4.82682L10.5856 3.75636L13.4464 2.08471C13.7096 1.93089 14.0456 1.99132 14.2388 2.22722Z" fill="#201D1E"/>
</g>
<defs>
<clipPath id="clip0_127_41">
<rect width="17.7778" height="20" fill="white" transform="translate(3 2)"/>
</clipPath>
</defs>
</svg>