<svg width="24" height="24" viewBox="0 0 24 24" fill="none" xmlns="http://www.w3.org/2000/svg">
<g clip-path="url(#clip0_588_151)">
<path d="M2.04642 13.7674C2.04899 11.3341 2.02013 8.92344 2.06452 6.51413C2.09729 4.73573 2.85223 3.33873 4.49706 2.51816C5.21834 2.15833 6.00228 2.05253 6.79527 2.05062C10.2672 2.04225 13.7391 2.04089 17.2109 2.05084C18.2226 2.05374 19.1994 2.23802 20.0528 2.83015C21.1718 3.60662 21.7667 4.69375 21.9006 6.03797C21.9373 6.40654 21.951 6.7788 21.9514 7.1494C21.9551 10.4818 21.957 13.8142 21.9515 17.1466C21.9498 18.1835 21.7741 19.1813 21.1662 20.0561C20.3605 21.2155 19.2248 21.7935 17.8388 21.9099C17.4541 21.9422 17.0664 21.9509 16.6801 21.9512C13.4019 21.9543 10.1237 21.9586 6.84561 21.9494C5.91659 21.9468 5.00881 21.8087 4.19177 21.319C3.03203 20.6238 2.3471 19.6011 2.14522 18.2685C2.07722 17.8197 2.05651 17.3608 2.05065 16.906C2.03727 15.8677 2.04642 14.8292 2.04642 13.7674ZM13.6255 9.44053C13.6173 9.43331 13.6091 9.42608 13.6155 9.39079C13.899 8.97559 14.1751 8.55501 14.4692 8.14741C14.6232 7.93387 14.5852 7.71926 14.5585 7.48079C14.0486 7.48079 13.5612 7.49152 13.0746 7.47577C12.8662 7.46902 12.8346 7.55195 12.8364 7.73178C12.838 7.90763 12.8607 8.0085 13.074 7.99219C13.3127 7.97392 13.5539 7.98799 13.827 7.98799C13.5243 8.43609 13.2645 8.84874 12.9746 9.23905C12.8037 9.46918 12.8052 9.70257 12.8444 9.98164C13.3085 9.98164 13.7636 9.98164 14.2186 9.98164C14.6639 9.98165 14.6641 9.98164 14.6178 9.53355C14.6164 9.52018 14.6028 9.50809 14.5753 9.46393C14.2793 9.46393 13.9639 9.46393 13.6255 9.44053ZM7.49116 9.98152C7.62638 9.99417 7.66447 9.92448 7.66211 9.79953C7.65671 9.51291 7.65744 9.22609 7.66131 8.93942C7.66422 8.72286 7.65908 8.50408 7.68881 8.29065C7.71341 8.11406 7.83404 7.99695 8.02738 8.00398C8.22797 8.01127 8.30461 8.14987 8.32753 8.32701C8.33743 8.40347 8.33639 8.48163 8.33654 8.55903C8.33731 8.96973 8.33192 9.38056 8.34206 9.79101C8.34363 9.85469 8.40789 9.96458 8.45418 9.97077C8.61915 9.99285 8.78887 9.9794 8.94277 9.9794C8.96208 9.93086 8.97262 9.91665 8.97268 9.90239C8.97483 9.44525 8.97342 8.98807 8.97807 8.53095C8.9816 8.18407 9.10933 8.00133 9.33718 8.0021C9.55641 8.00285 9.66072 8.16778 9.66225 8.52488C9.66405 8.94333 9.65821 9.36188 9.6672 9.78014C9.66864 9.84723 9.72361 9.96502 9.76521 9.97033C9.93568 9.99211 10.1105 9.97943 10.2856 9.97943C10.2856 9.35968 10.2897 8.78669 10.2821 8.21385C10.2806 8.10082 10.247 7.98348 10.2062 7.87653C10.0162 7.37852 9.45653 7.25917 9.07662 7.63223C9.01312 7.69458 8.95614 7.76358 8.88405 7.84281C8.75142 7.58364 8.56187 7.42863 8.27868 7.41749C7.98209 7.40582 7.79552 7.57751 7.65044 7.82932C7.53708 7.44147 7.48619 7.41654 7.03338 7.51453C7.03338 8.32192 7.03338 9.13216 7.03338 9.98152C7.17624 9.98152 7.31305 9.98152 7.49116 9.98152ZM19.9037 11.9316C19.9036 11.8 19.909 11.668 19.9005 11.537C19.8975 11.4912 19.8719 11.4255 19.8365 11.4067C19.6245 11.2939 19.3547 11.4239 19.3034 11.6547C19.2981 11.6789 19.2869 11.7017 19.265 11.7623C19.0789 11.4227 18.8174 11.285 18.4759 11.3508C18.1218 11.4192 17.9503 11.6845 17.8552 12.0038C17.7183 12.4632 17.722 12.9245 17.9173 13.3659C18.1866 13.9748 18.8165 14.0385 19.2135 13.5079C19.2183 13.5014 19.2394 13.5071 19.2562 13.5071C19.2639 13.7562 19.3006 14.0209 19.0301 14.1646C18.701 14.3394 18.4598 14.1683 18.2556 13.9103C18.0969 14.0268 17.9565 14.13 17.7986 14.2459C17.8865 14.3471 17.9411 14.4358 18.0184 14.4947C18.405 14.7897 18.8371 14.8093 19.2713 14.6404C19.6891 14.4777 19.8907 14.1368 19.8996 13.696C19.9111 13.1234 19.9032 12.5505 19.9037 11.9316ZM15.196 15.6358C15.1226 15.6441 15.0392 15.6325 14.9773 15.6637C14.219 16.0454 13.4102 16.2431 12.5695 16.2959C10.9586 16.3971 9.43566 16.145 8.12312 15.1133C8.09888 15.0943 8.07415 15.0687 8.04619 15.063C7.98352 15.05 7.91867 15.0476 7.8547 15.0409C7.8562 15.1052 7.84061 15.1765 7.86335 15.2322C7.89475 15.309 7.94317 15.3876 8.00498 15.4418C8.34649 15.7414 8.6619 16.0876 9.04586 16.3189C10.315 17.0835 11.6964 17.2038 13.1254 16.9028C13.8228 16.7559 14.4721 16.489 15.0155 16.0147C15.1117 15.9307 15.1517 15.7824 15.196 15.6358ZM9.56182 14.068C9.56182 14.2655 9.56182 14.4629 9.56182 14.6574C9.79507 14.6574 9.98501 14.6574 10.2012 14.6574C10.2012 14.2898 10.2012 13.9397 10.2012 13.5603C10.6318 14.0554 11.1051 14.0732 11.4264 13.6361C11.7813 13.1532 11.7797 12.1255 11.4232 11.6484C11.1169 11.2382 10.5844 11.23 10.277 11.6308C10.2516 11.6639 10.2268 11.6974 10.1956 11.7389C10.059 11.3471 10.0285 11.3319 9.56183 11.4278C9.56183 12.2888 9.56183 13.1554 9.56182 14.068ZM12.001 14.1148C12.001 14.291 12.001 14.4671 12.001 14.6759C12.1565 14.6759 12.2872 14.6648 12.4153 14.6785C12.6072 14.6989 12.6541 14.6153 12.6459 14.4376C12.633 14.1569 12.6425 13.8752 12.6425 13.5585C13.1508 14.1528 13.7648 14.0458 14.0163 13.3485C14.199 12.8419 14.1873 12.3289 13.9715 11.8302C13.7081 11.2213 12.9674 11.1677 12.6674 11.7044C12.6625 11.7132 12.641 11.7128 12.6174 11.7194C12.6076 11.6769 12.5936 11.6346 12.5885 11.5913C12.5505 11.2674 12.3002 11.4145 12.137 11.3989C11.9393 11.38 12.004 11.5505 12.0035 11.6505C11.9991 12.4566 12.001 13.2627 12.001 14.1148ZM6.18267 10.6119C6.17042 10.6936 6.14774 10.7752 6.14752 10.8569C6.14499 11.7781 6.15363 12.6995 6.14049 13.6206C6.13721 13.8505 6.21181 13.9293 6.42917 13.8976C6.47465 13.891 6.52263 13.8915 6.56826 13.8976C6.7428 13.9211 6.79531 13.8473 6.79108 13.6744C6.78047 13.2412 6.78234 12.8073 6.79118 12.374C6.79721 12.078 6.95014 11.9075 7.17485 11.9165C7.38317 11.9248 7.49506 12.073 7.49968 12.369C7.50535 12.7328 7.49835 13.0967 7.50263 13.4605C7.50838 13.9497 7.4159 13.8876 7.95135 13.8994C8.1104 13.9029 8.14679 13.8399 8.14445 13.6939C8.13691 13.2218 8.15552 12.7488 8.13416 12.2775C8.12498 12.0751 8.07415 11.8605 7.98586 11.6788C7.8337 11.3656 7.45352 11.2396 7.15255 11.3895C7.01809 11.4564 6.91339 11.5832 6.78736 11.6893C6.78736 11.5081 6.78736 11.3245 6.78736 11.1409C6.78736 10.583 6.78736 10.583 6.18267 10.6119ZM6.64114 9.46266C6.64114 9.1915 6.64234 8.92033 6.64065 8.64917C6.63978 8.50986 6.64153 8.36986 6.6286 8.23143C6.59413 7.86221 6.43824 7.57421 6.05529 7.47214C5.64446 7.36264 5.24713 7.38649 4.93457 7.71103C4.82715 7.82257 4.77822 7.99043 4.68536 8.16487C4.88798 8.20075 5.02299 8.23481 5.15962 8.24359C5.21029 8.24685 5.28633 8.20411 5.31391 8.15953C5.45906 7.92491 5.61309 7.83373 5.7945 7.91856C5.99729 8.01338 6.01008 8.19572 5.99313 8.3231C5.65661 8.40895 5.33824 8.44776 5.05829 8.57266C4.73225 8.71811 4.5947 9.10964 4.67149 9.46457C4.74258 9.79315 4.96516 10.0021 5.28966 10.0366C5.60686 10.0704 5.83649 9.92796 5.98537 9.6668C6.05504 9.77711 6.0984 9.93868 6.18609 9.9681C6.52339 10.0813 6.64118 9.97852 6.64115 9.62429C6.64114 9.58555 6.64114 9.54681 6.64114 9.46266ZM12.3995 7.77005C12.1232 7.43339 11.6268 7.32027 11.1745 7.4909C10.8592 7.60984 10.6643 7.86731 10.6705 8.16916C10.7337 8.18473 10.7996 8.20365 10.8665 8.21673C10.9348 8.23005 11.0058 8.25152 11.0725 8.24347C11.1291 8.23664 11.2038 8.2071 11.2317 8.16304C11.3824 7.9244 11.5244 7.8376 11.7074 7.91624C11.9185 8.00693 11.9172 8.19459 11.9097 8.3261C11.5787 8.40882 11.261 8.44496 10.9824 8.56896C10.6448 8.71922 10.5137 9.10031 10.595 9.47813C10.663 9.79359 10.8804 9.99829 11.1972 10.0355C11.5247 10.074 11.7596 9.92684 11.929 9.61591C11.9475 9.69583 11.9613 9.73765 11.9664 9.78051C12.0043 10.1005 12.252 9.96232 12.417 9.97633C12.6101 9.99274 12.5524 9.82818 12.5534 9.72553C12.558 9.2769 12.5688 8.82761 12.549 8.3798C12.5404 8.18496 12.4635 7.99313 12.3995 7.77005ZM18.5946 7.43053C18.253 7.36872 18.0204 7.52935 17.8429 7.83593C17.8073 7.70166 17.7807 7.60112 17.7523 7.49409C17.5775 7.49409 17.411 7.49409 17.2254 7.49409C17.2214 7.58151 17.2152 7.65657 17.2151 7.73164C17.2143 8.34307 17.2107 8.95453 17.2159 9.56591C17.2199 10.021 17.1176 9.97542 17.6602 9.9842C17.8125 9.98667 17.8622 9.93335 17.8591 9.78169C17.8506 9.37167 17.8514 8.96126 17.8592 8.55121C17.8615 8.43023 17.8638 8.28223 17.9305 8.19675C18.004 8.10236 18.1544 8.01331 18.2659 8.01949C18.3634 8.02488 18.4739 8.1521 18.5395 8.25136C18.5842 8.31908 18.5676 8.43128 18.5682 8.52365C18.5705 8.94158 18.5636 9.35967 18.5748 9.77731C18.5767 9.84607 18.6444 9.96342 18.6951 9.97123C18.858 9.9963 19.0271 9.98055 19.2007 9.98055C19.2007 9.36025 19.2218 8.77971 19.1929 8.20166C19.1753 7.84738 19.0242 7.53941 18.5946 7.43053ZM15.6997 11.3932C15.5209 11.3635 15.4789 11.4459 15.4814 11.6152C15.4906 12.2425 15.482 12.8701 15.486 13.4975C15.4889 13.9433 15.4081 13.8861 15.8986 13.8998C16.0698 13.9046 16.1306 13.8539 16.1269 13.6775C16.1175 13.2363 16.1176 12.7943 16.1309 12.3532C16.1397 12.0645 16.2889 11.9093 16.5092 11.9165C16.7169 11.9233 16.8341 12.0798 16.8368 12.3673C16.8401 12.7313 16.8326 13.0955 16.8389 13.4595C16.8472 13.9476 16.7256 13.8896 17.3083 13.8987C17.463 13.9012 17.4842 13.824 17.4829 13.6963C17.4782 13.2316 17.4993 12.7657 17.4726 12.3025C17.4596 12.0783 17.4013 11.8377 17.2944 11.6423C17.0977 11.2828 16.5728 11.2272 16.2922 11.5075C16.2237 11.5759 16.1727 11.6619 16.0925 11.7679C16.0846 11.5118 16.0252 11.3334 15.6997 11.3932ZM14.9299 7.98041C14.6672 8.51289 14.6625 9.04509 14.9801 9.55089C15.3967 10.2144 16.2763 10.2053 16.6905 9.5402C16.9474 9.12773 16.9834 8.67837 16.8337 8.2226C16.6972 7.80739 16.4349 7.50432 15.978 7.43361C15.5168 7.36222 15.1877 7.57345 14.9299 7.98041ZM5.03012 12.351C4.95576 12.3301 4.86263 12.33 4.81134 12.2836C4.73035 12.2104 4.67743 12.1061 4.61263 12.015C4.71109 11.958 4.81169 11.853 4.90743 11.8572C5.00742 11.8617 5.10461 11.9687 5.1993 12.0361C5.24773 12.0706 5.29072 12.1537 5.33146 12.1507C5.48882 12.1392 5.64428 12.1018 5.79931 12.0743C5.70493 11.5017 5.21402 11.2186 4.61383 11.362C4.24597 11.4498 4.0065 11.7136 3.99157 12.0473C3.97417 12.4364 4.13887 12.6616 4.54832 12.7942C4.71721 12.8489 4.90358 12.8654 5.05665 12.9469C5.14104 12.9919 5.22215 13.1403 5.21312 13.2331C5.20564 13.3099 5.07332 13.4117 4.97942 13.4354C4.76395 13.4897 4.63216 13.376 4.53392 13.1316C4.50998 13.072 4.42921 12.992 4.37849 12.9947C4.23635 13.0023 4.09625 13.0482 3.96051 13.0778C3.96183 13.689 4.52918 14.0783 5.16396 13.9268C5.58726 13.8257 5.85366 13.5221 5.85583 13.1382C5.85808 12.7386 5.66465 12.5175 5.20181 12.3917C5.15708 12.3795 5.11128 12.3713 5.03012 12.351ZM9.16052 13.4158C9.16052 12.8888 9.16052 12.3618 9.16052 11.8348C9.16052 11.3484 9.14285 11.3299 8.65444 11.3987C8.60379 11.4058 8.52499 11.4873 8.52446 11.535C8.51614 12.2711 8.51564 13.0075 8.52501 13.7436C8.52567 13.7952 8.61314 13.8839 8.66814 13.8906C9.15581 13.9501 9.16054 13.9421 9.16052 13.4158ZM14.6778 11.3938C14.6107 11.3981 14.5435 11.4024 14.4502 11.4084C14.4502 12.2082 14.4486 12.994 14.455 13.7797C14.4553 13.8185 14.523 13.8867 14.5633 13.8898C14.7287 13.9024 14.8956 13.8951 15.0608 13.8951C15.0608 13.0412 15.0608 12.2269 15.0608 11.3938C14.936 11.3938 14.8292 11.3938 14.6778 11.3938ZM14.9042 14.9666C14.814 15.0103 14.7152 15.0426 14.6363 15.1015C14.5751 15.1471 14.5387 15.226 14.4913 15.2902C14.5668 15.3105 14.6427 15.3499 14.7175 15.3477C14.9641 15.3407 15.21 15.3091 15.4564 15.3055C15.6228 15.3031 15.7049 15.4018 15.6392 15.566C15.5449 15.8017 15.4301 16.0292 15.335 16.2646C15.3097 16.327 15.3245 16.4057 15.321 16.4769C15.39 16.4609 15.4734 16.4643 15.5259 16.4258C15.905 16.1476 16.0984 15.7656 16.1284 15.2987C16.1406 15.1099 16.0551 14.9917 15.874 14.9352C15.5596 14.8372 15.2487 14.8534 14.9042 14.9666ZM14.4811 11.0759C14.5246 11.1066 14.5643 11.1456 14.6121 11.1665C14.7799 11.2399 14.9365 11.205 15.0501 11.0686C15.1707 10.9238 15.1704 10.7522 15.0636 10.5985C14.9575 10.4455 14.7942 10.4263 14.6294 10.4764C14.4029 10.5452 14.3398 10.7716 14.4811 11.0759ZM9.19795 10.7042C9.11865 10.499 8.96188 10.4283 8.75625 10.4649C8.58546 10.4953 8.48952 10.6087 8.46916 10.7803C8.44248 11.0053 8.60287 11.1927 8.82525 11.2016C9.07026 11.2114 9.21038 11.0417 9.19795 10.7042Z" fill="#012B3D"/>
<path d="M7.47051 9.98151C7.31305 9.98151 7.17624 9.98151 7.03338 9.98151C7.03338 9.13215 7.03338 8.3219 7.03338 7.51451C7.48619 7.41653 7.53708 7.44146 7.65044 7.82931C7.79552 7.57749 7.98209 7.4058 8.27868 7.41747C8.56187 7.42861 8.75142 7.58362 8.88405 7.84279C8.95614 7.76357 9.01312 7.69457 9.07662 7.63221C9.45653 7.25915 10.0162 7.3785 10.2062 7.87652C10.247 7.98347 10.2806 8.10081 10.2821 8.21383C10.2897 8.78667 10.2856 9.35966 10.2856 9.97941C10.1105 9.97941 9.93568 9.9921 9.76521 9.97031C9.72361 9.965 9.66864 9.84722 9.6672 9.78012C9.65821 9.36186 9.66405 8.94331 9.66225 8.52487C9.66072 8.16776 9.55641 8.00283 9.33718 8.00208C9.10933 8.00131 8.9816 8.18405 8.97807 8.53094C8.97343 8.98805 8.97483 9.44523 8.97268 9.90238C8.97262 9.91664 8.96208 9.93085 8.94277 9.97939C8.78887 9.97939 8.61915 9.99284 8.45418 9.97076C8.40789 9.96456 8.34363 9.85467 8.34206 9.791C8.33192 9.38054 8.33731 8.96972 8.33654 8.55902C8.33639 8.48162 8.33743 8.40346 8.32753 8.32699C8.30461 8.14986 8.22797 8.01126 8.02738 8.00396C7.83404 7.99693 7.71341 8.11405 7.68881 8.29063C7.65908 8.50407 7.66422 8.72285 7.66131 8.93941C7.65744 9.22607 7.65671 9.5129 7.66211 9.79951C7.66447 9.92446 7.62638 9.99416 7.47051 9.98151Z" fill="#F8F9FA"/>
<path d="M19.9037 11.9546C19.9032 12.5505 19.9111 13.1234 19.8996 13.696C19.8907 14.1368 19.6891 14.4777 19.2713 14.6404C18.8371 14.8093 18.405 14.7897 18.0184 14.4947C17.9411 14.4357 17.8865 14.3471 17.7986 14.2459C17.9565 14.13 18.0969 14.0268 18.2556 13.9103C18.4598 14.1683 18.701 14.3394 19.0301 14.1646C19.3006 14.0209 19.2639 13.7562 19.2562 13.5071C19.2394 13.5071 19.2183 13.5014 19.2135 13.5079C18.8165 14.0385 18.1866 13.9748 17.9173 13.3659C17.722 12.9245 17.7183 12.4632 17.8552 12.0038C17.9503 11.6845 18.1218 11.4191 18.4759 11.3508C18.8174 11.2849 19.0789 11.4227 19.265 11.7623C19.2869 11.7017 19.2981 11.6788 19.3034 11.6547C19.3547 11.4239 19.6245 11.2939 19.8365 11.4067C19.8719 11.4255 19.8975 11.4912 19.9005 11.537C19.909 11.668 19.9036 11.8 19.9037 11.9546ZM18.8235 11.868C18.7401 11.918 18.6346 11.9501 18.5774 12.0211C18.3711 12.2774 18.378 12.9295 18.5773 13.1891C18.691 13.3372 18.8466 13.3923 19.005 13.2918C19.2983 13.1055 19.2787 12.7932 19.2678 12.5011C19.2582 12.2436 19.2231 11.9846 18.9279 11.8762C18.9067 11.8684 18.8822 11.8699 18.8235 11.868Z" fill="#F9FAFA"/>
<path d="M15.2069 15.6498C15.1518 15.7824 15.1117 15.9307 15.0155 16.0146C14.4721 16.489 13.8228 16.7559 13.1254 16.9028C11.6964 17.2038 10.315 17.0835 9.04587 16.3189C8.66191 16.0876 8.3465 15.7414 8.00499 15.4418C7.94318 15.3875 7.89476 15.309 7.86336 15.2322C7.84061 15.1765 7.85621 15.1052 7.85471 15.0409C7.91867 15.0476 7.98353 15.05 8.0462 15.063C8.07416 15.0687 8.09889 15.0943 8.12313 15.1133C9.43566 16.1449 10.9586 16.3971 12.5695 16.2959C13.4102 16.2431 14.219 16.0453 14.9773 15.6636C15.0392 15.6325 15.1226 15.6441 15.2069 15.6498Z" fill="#F9FAFB"/>
<path d="M9.56183 14.045C9.56183 13.1554 9.56183 12.2888 9.56183 11.4278C10.0285 11.3319 10.059 11.3471 10.1956 11.7389C10.2268 11.6974 10.2516 11.6639 10.277 11.6308C10.5844 11.23 11.1169 11.2382 11.4232 11.6483C11.7797 12.1255 11.7813 13.1532 11.4264 13.6361C11.1051 14.0732 10.6318 14.0553 10.2012 13.5603C10.2012 13.9397 10.2012 14.2898 10.2012 14.6574C9.98502 14.6574 9.79508 14.6574 9.56183 14.6574C9.56183 14.4629 9.56183 14.2655 9.56183 14.045ZM10.2071 12.3397C10.2309 12.6205 10.2296 12.907 10.2917 13.1791C10.3138 13.2763 10.4839 13.3896 10.5963 13.4013C10.696 13.4117 10.8626 13.3172 10.9072 13.2245C11.0898 12.8455 11.0896 12.4429 10.9121 12.0618C10.7901 11.7997 10.4689 11.7986 10.316 12.0446C10.2684 12.1211 10.2494 12.2153 10.2071 12.3397Z" fill="#FBFBFC"/>
<path d="M12.001 14.0918C12.001 13.2627 11.9991 12.4566 12.0035 11.6505C12.004 11.5505 11.9393 11.3801 12.137 11.3989C12.3002 11.4145 12.5505 11.2674 12.5885 11.5913C12.5936 11.6346 12.6076 11.6769 12.6174 11.7195C12.641 11.7128 12.6625 11.7132 12.6674 11.7044C12.9674 11.1677 13.7081 11.2213 13.9715 11.8302C14.1873 12.3289 14.199 12.8419 14.0163 13.3486C13.7648 14.0458 13.1508 14.1528 12.6425 13.5585C12.6425 13.8752 12.633 14.1569 12.6459 14.4376C12.6541 14.6153 12.6072 14.6989 12.4153 14.6785C12.2872 14.6648 12.1565 14.6759 12.001 14.6759C12.001 14.4672 12.001 14.291 12.001 14.0918ZM12.6621 13.0177C12.7709 13.3301 12.8886 13.4379 13.0942 13.4135C13.2865 13.3906 13.4168 13.234 13.4458 12.9322C13.4662 12.7197 13.4635 12.5005 13.4359 12.2889C13.4007 12.0184 13.2426 11.8658 13.0514 11.8671C12.862 11.8684 12.696 12.0247 12.6638 12.2892C12.636 12.5164 12.6562 12.7495 12.6621 13.0177Z" fill="#F9FAFA"/>
<path d="M6.20318 10.604C6.78736 10.5829 6.78736 10.5829 6.78736 11.1409C6.78736 11.3245 6.78736 11.5081 6.78736 11.6893C6.91339 11.5831 7.01809 11.4564 7.15255 11.3895C7.45352 11.2396 7.8337 11.3656 7.98586 11.6788C8.07415 11.8605 8.12498 12.0751 8.13416 12.2775C8.15552 12.7488 8.13691 13.2218 8.14445 13.6939C8.14679 13.8399 8.1104 13.9029 7.95135 13.8994C7.4159 13.8876 7.50838 13.9497 7.50263 13.4605C7.49835 13.0967 7.50535 12.7327 7.49968 12.369C7.49506 12.0729 7.38317 11.9248 7.17485 11.9164C6.95015 11.9075 6.79722 12.078 6.79118 12.374C6.78234 12.8073 6.78047 13.2412 6.79108 13.6744C6.79531 13.8473 6.7428 13.9211 6.56826 13.8976C6.52263 13.8915 6.47465 13.891 6.42917 13.8976C6.21181 13.9293 6.13721 13.8505 6.14049 13.6206C6.15363 12.6995 6.145 11.7781 6.14752 10.8569C6.14774 10.7752 6.17042 10.6936 6.20318 10.604Z" fill="#F7F8F9"/>
<path d="M6.64115 9.48537C6.64115 9.54681 6.64115 9.58555 6.64115 9.62429C6.64118 9.97852 6.5234 10.0813 6.1861 9.9681C6.09841 9.93868 6.05505 9.77711 5.98537 9.6668C5.8365 9.92796 5.60686 10.0704 5.28966 10.0366C4.96517 10.0021 4.74259 9.79315 4.6715 9.46457C4.5947 9.10964 4.73226 8.71811 5.05829 8.57266C5.33825 8.44776 5.65661 8.40895 5.99314 8.3231C6.01009 8.19572 5.9973 8.01338 5.79451 7.91856C5.6131 7.83373 5.45907 7.92491 5.31392 8.15953C5.28634 8.20411 5.2103 8.24685 5.15963 8.24359C5.02299 8.23481 4.88799 8.20075 4.68537 8.16487C4.77822 7.99043 4.82716 7.82257 4.93458 7.71103C5.24713 7.38649 5.64446 7.36264 6.0553 7.47214C6.43825 7.57421 6.59414 7.86221 6.62861 8.23143C6.64153 8.36986 6.63979 8.50986 6.64066 8.64917C6.64234 8.92033 6.64115 9.1915 6.64115 9.48537ZM5.32057 9.33646C5.42474 9.41202 5.53884 9.55822 5.63058 9.54533C5.7462 9.52908 5.89087 9.40223 5.93744 9.28817C6.00306 9.12742 5.99017 8.93462 6.01086 8.75546C5.5073 8.70822 5.30758 8.87605 5.32057 9.33646Z" fill="#F7F9F9"/>
<path d="M12.4086 7.78498C12.4635 7.99312 12.5404 8.18495 12.549 8.37979C12.5688 8.82759 12.558 9.27689 12.5534 9.72552C12.5524 9.82817 12.6101 9.99273 12.417 9.97632C12.252 9.96231 12.0043 10.1005 11.9664 9.7805C11.9613 9.73764 11.9475 9.69581 11.929 9.6159C11.7596 9.92683 11.5247 10.074 11.1972 10.0355C10.8804 9.99827 10.663 9.79358 10.595 9.47812C10.5137 9.1003 10.6448 8.71921 10.9824 8.56895C11.261 8.44495 11.5787 8.4088 11.9097 8.32609C11.9172 8.19458 11.9185 8.00692 11.7074 7.91623C11.5244 7.83759 11.3824 7.92439 11.2317 8.16303C11.2038 8.20709 11.1291 8.23663 11.0725 8.24346C11.0058 8.25151 10.9348 8.23004 10.8666 8.21672C10.7996 8.20364 10.7337 8.18472 10.6705 8.16915C10.6643 7.8673 10.8592 7.60983 11.1745 7.49089C11.6268 7.32026 12.1232 7.43338 12.4086 7.78498ZM11.87 9.27027C11.8883 9.09893 11.9067 8.9276 11.9342 8.67061C11.6958 8.75501 11.484 8.77115 11.376 8.88542C11.2763 8.991 11.2581 9.20299 11.2648 9.36561C11.2676 9.43468 11.4191 9.53889 11.5145 9.55381C11.6837 9.58026 11.8016 9.46939 11.87 9.27027Z" fill="#F8F9FA"/>
<path d="M18.6124 7.43349C19.0242 7.5394 19.1753 7.84736 19.1929 8.20165C19.2218 8.7797 19.2007 9.36024 19.2007 9.98054C19.0271 9.98054 18.858 9.99628 18.6951 9.97121C18.6444 9.96341 18.5767 9.84606 18.5748 9.77729C18.5636 9.35966 18.5705 8.94156 18.5682 8.52364C18.5676 8.43127 18.5842 8.31907 18.5395 8.25134C18.4739 8.15208 18.3634 8.02487 18.2659 8.01947C18.1544 8.0133 18.004 8.10235 17.9305 8.19673C17.8638 8.28222 17.8615 8.43022 17.8592 8.5512C17.8514 8.96125 17.8506 9.37165 17.8591 9.78167C17.8622 9.93334 17.8125 9.98665 17.6602 9.98419C17.1176 9.97541 17.2199 10.021 17.2159 9.56589C17.2107 8.95451 17.2143 8.34305 17.2151 7.73163C17.2152 7.65656 17.2214 7.58149 17.2254 7.49407C17.411 7.49407 17.5775 7.49407 17.7523 7.49407C17.7807 7.60111 17.8073 7.70165 17.8429 7.83592C18.0204 7.52933 18.253 7.3687 18.6124 7.43349Z" fill="#F7F8F9"/>
<path d="M15.7211 11.3932C16.0252 11.3334 16.0846 11.5118 16.0925 11.7679C16.1727 11.6619 16.2237 11.5759 16.2922 11.5075C16.5728 11.2272 17.0977 11.2827 17.2944 11.6423C17.4013 11.8376 17.4596 12.0783 17.4726 12.3024C17.4993 12.7657 17.4782 13.2316 17.4829 13.6963C17.4842 13.824 17.463 13.9012 17.3083 13.8987C16.7256 13.8896 16.8472 13.9476 16.8389 13.4595C16.8326 13.0955 16.8401 12.7313 16.8368 12.3673C16.8341 12.0798 16.7169 11.9233 16.5092 11.9165C16.2889 11.9092 16.1397 12.0645 16.1309 12.3532C16.1176 12.7943 16.1175 13.2362 16.1269 13.6775C16.1306 13.8539 16.0698 13.9046 15.8986 13.8998C15.4081 13.8861 15.4889 13.9433 15.486 13.4975C15.482 12.8701 15.4906 12.2425 15.4814 11.6152C15.4789 11.4459 15.5209 11.3635 15.7211 11.3932Z" fill="#F7F9F9"/>
<path d="M14.938 7.96534C15.1877 7.57344 15.5168 7.36221 15.978 7.4336C16.4349 7.50431 16.6972 7.80737 16.8337 8.22258C16.9834 8.67835 16.9474 9.12772 16.6905 9.54019C16.2763 10.2053 15.3967 10.2144 14.9801 9.55088C14.6625 9.04508 14.6672 8.51288 14.938 7.96534ZM15.4043 8.76455C15.4354 8.93796 15.4333 9.12784 15.5086 9.27927C15.563 9.38877 15.7167 9.50438 15.8325 9.51126C15.9345 9.51733 16.0977 9.39942 16.1427 9.29642C16.3059 8.92309 16.3073 8.52677 16.14 8.15447C16.0944 8.05316 15.9318 7.94611 15.8242 7.94748C15.7167 7.94885 15.5608 8.06061 15.5155 8.16338C15.4407 8.33334 15.4376 8.53492 15.4043 8.76455Z" fill="#F9FAFA"/>
<path d="M5.04805 12.3561C5.11128 12.3712 5.15708 12.3795 5.20182 12.3917C5.66466 12.5175 5.85809 12.7386 5.85583 13.1382C5.85366 13.5221 5.58726 13.8257 5.16397 13.9267C4.52918 14.0782 3.96184 13.689 3.96051 13.0778C4.09626 13.0482 4.23635 13.0022 4.37849 12.9947C4.42922 12.992 4.50998 13.072 4.53392 13.1315C4.63216 13.376 4.76395 13.4896 4.97942 13.4354C5.07332 13.4117 5.20564 13.3099 5.21312 13.2331C5.22216 13.1403 5.14105 12.9918 5.05666 12.9469C4.90358 12.8654 4.71721 12.8489 4.54833 12.7942C4.13887 12.6616 3.97417 12.4364 3.99158 12.0473C4.00651 11.7136 4.24598 11.4498 4.61383 11.362C5.21402 11.2186 5.70493 11.5017 5.79931 12.0743C5.64428 12.1018 5.48882 12.1392 5.33147 12.1507C5.29072 12.1537 5.24773 12.0706 5.1993 12.0361C5.10462 11.9687 5.00742 11.8617 4.90743 11.8572C4.8117 11.853 4.71109 11.958 4.61263 12.015C4.67743 12.1061 4.73035 12.2104 4.81134 12.2836C4.86264 12.33 4.95576 12.3301 5.04805 12.3561Z" fill="#F9FAFA"/>
<path d="M13.6485 9.46391C13.9639 9.46391 14.2793 9.46391 14.5753 9.46391C14.6028 9.50807 14.6164 9.52017 14.6178 9.53353C14.6641 9.98163 14.6639 9.98164 14.2186 9.98163C13.7636 9.98162 13.3085 9.98163 12.8444 9.98163C12.8052 9.70255 12.8037 9.46917 12.9746 9.23904C13.2645 8.84873 13.5243 8.43608 13.827 7.98798C13.5539 7.98798 13.3127 7.9739 13.074 7.99217C12.8607 8.00849 12.838 7.90761 12.8364 7.73176C12.8346 7.55193 12.8662 7.46901 13.0746 7.47575C13.5612 7.4915 14.0486 7.48078 14.5585 7.48078C14.5852 7.71924 14.6232 7.93386 14.4692 8.1474C14.1751 8.555 13.899 8.97558 13.6032 9.41452C13.6101 9.44682 13.6293 9.45536 13.6485 9.46391Z" fill="#F7F9F9"/>
<path d="M9.16053 13.4385C9.16055 13.9421 9.15581 13.9501 8.66815 13.8906C8.61314 13.8839 8.52567 13.7952 8.52501 13.7436C8.51565 13.0074 8.51614 12.2711 8.52446 11.535C8.525 11.4873 8.60379 11.4058 8.65445 11.3987C9.14285 11.3299 9.16053 11.3484 9.16053 11.8348C9.16053 12.3618 9.16053 12.8888 9.16053 13.4385Z" fill="#F6F8F8"/>
<path d="M14.7001 11.3938C14.8292 11.3938 14.936 11.3938 15.0608 11.3938C15.0608 12.2269 15.0608 13.0412 15.0608 13.8951C14.8956 13.8951 14.7287 13.9024 14.5633 13.8898C14.523 13.8867 14.4553 13.8185 14.455 13.7797C14.4486 12.994 14.4502 12.2082 14.4502 11.4084C14.5435 11.4024 14.6107 11.3981 14.7001 11.3938Z" fill="#FDFDFE"/>
<path d="M14.9214 14.9593C15.2487 14.8534 15.5596 14.8372 15.874 14.9352C16.0551 14.9917 16.1406 15.11 16.1284 15.2987C16.0984 15.7656 15.905 16.1477 15.5259 16.4258C15.4734 16.4643 15.39 16.4609 15.321 16.477C15.3245 16.4057 15.3097 16.3271 15.335 16.2646C15.4301 16.0292 15.5449 15.8017 15.6392 15.566C15.7049 15.4018 15.6228 15.3031 15.4564 15.3055C15.21 15.3091 14.9641 15.3407 14.7176 15.3477C14.6428 15.3499 14.5668 15.3105 14.4913 15.2902C14.5387 15.226 14.5751 15.1471 14.6363 15.1015C14.7152 15.0426 14.814 15.0103 14.9214 14.9593Z" fill="#F7F8F9"/>
<path d="M14.47 11.0621C14.3398 10.7716 14.4029 10.5452 14.6294 10.4764C14.7942 10.4263 14.9575 10.4455 15.0636 10.5985C15.1704 10.7522 15.1707 10.9238 15.0501 11.0685C14.9365 11.205 14.7799 11.2399 14.6121 11.1665C14.5644 11.1456 14.5246 11.1066 14.47 11.0621Z" fill="#F6F8F8"/>
<path d="M9.20189 10.7224C9.21039 11.0417 9.07027 11.2114 8.82525 11.2016C8.60288 11.1927 8.44248 11.0053 8.46916 10.7803C8.48953 10.6087 8.58546 10.4953 8.75625 10.4649C8.96188 10.4283 9.11866 10.499 9.20189 10.7224Z" fill="#F6F8F8"/>
<path d="M18.8414 11.8675C18.8822 11.8699 18.9067 11.8685 18.9279 11.8762C19.2232 11.9847 19.2582 12.2436 19.2678 12.5011C19.2787 12.7933 19.2983 13.1055 19.005 13.2918C18.8466 13.3923 18.691 13.3372 18.5773 13.1891C18.378 12.9295 18.3711 12.2774 18.5774 12.0211C18.6346 11.9501 18.7401 11.918 18.8414 11.8675Z" fill="#072F41"/>
<path d="M10.2122 12.3206C10.2494 12.2153 10.2684 12.1211 10.316 12.0446C10.4689 11.7986 10.7901 11.7997 10.9121 12.0618C11.0896 12.4429 11.0898 12.8455 10.9072 13.2245C10.8626 13.3172 10.696 13.4117 10.5963 13.4013C10.4839 13.3896 10.3138 13.2763 10.2917 13.1792C10.2296 12.9071 10.2309 12.6205 10.2122 12.3206Z" fill="#062E40"/>
<path d="M12.6586 12.9988C12.6562 12.7495 12.636 12.5164 12.6638 12.2892C12.696 12.0246 12.862 11.8684 13.0514 11.8671C13.2426 11.8658 13.4007 12.0184 13.4359 12.2889C13.4635 12.5005 13.4662 12.7197 13.4458 12.9322C13.4168 13.2339 13.2865 13.3905 13.0942 13.4134C12.8886 13.4379 12.7709 13.3301 12.6586 12.9988Z" fill="#072F41"/>
<path d="M5.31664 9.31839C5.30758 8.87603 5.5073 8.70821 6.01086 8.75545C5.99017 8.9346 6.00306 9.1274 5.93744 9.28815C5.89088 9.40222 5.7462 9.52906 5.63058 9.54531C5.53884 9.5582 5.42474 9.412 5.31664 9.31839Z" fill="#0A3143"/>
<path d="M11.8651 9.28843C11.8016 9.4694 11.6837 9.58027 11.5145 9.55382C11.4191 9.53891 11.2676 9.43469 11.2648 9.36562C11.2581 9.203 11.2763 8.99101 11.376 8.88544C11.484 8.77116 11.6958 8.75502 11.9342 8.67062C11.9067 8.92761 11.8883 9.09895 11.8651 9.28843Z" fill="#072F41"/>
<path d="M15.4043 8.74388C15.4376 8.53494 15.4407 8.33335 15.5155 8.1634C15.5608 8.06063 15.7167 7.94886 15.8242 7.94749C15.9318 7.94612 16.0944 8.05318 16.14 8.15449C16.3073 8.52679 16.3059 8.9231 16.1427 9.29643C16.0977 9.39944 15.9345 9.51735 15.8325 9.51128C15.7167 9.50439 15.563 9.38878 15.5086 9.27928C15.4333 9.12786 15.4354 8.93798 15.4043 8.74388Z" fill="#062E40"/>
<path d="M13.637 9.45224C13.6293 9.45538 13.6101 9.44684 13.5959 9.42857C13.6091 9.42609 13.6173 9.43331 13.637 9.45224Z" fill="#012B3D"/>
</g>
<defs>
<clipPath id="clip0_588_151">
<rect width="20" height="20" fill="white" transform="translate(2 2)"/>
</clipPath>
</defs>
</svg>
