<svg width="20" height="20" viewBox="0 0 20 20" fill="none" xmlns="http://www.w3.org/2000/svg">
<path fill-rule="evenodd" clip-rule="evenodd" d="M5.11378 3.78018C5.8966 3.78018 12.627 3.75245 12.627 3.75245C12.7996 3.75174 13.0639 3.81096 13.2178 3.88471C13.2178 3.88471 13.1176 3.77698 13.2582 3.9226C13.3843 4.05307 16.0373 6.79057 16.0892 6.84573C16.1411 6.90096 16.108 6.87167 16.108 6.87167C16.1802 7.02846 16.2282 7.29979 16.2282 7.47253V14.9422C16.2282 15.4956 15.5659 16.2405 14.9333 16.2405C14.3007 16.2405 5.67277 16.2146 5.04097 16.2146C4.40917 16.2146 3.79097 15.7248 3.76316 14.9568C3.73535 14.1887 3.79097 5.71753 3.79097 5.05057C3.79097 4.3837 4.33097 3.78018 5.11378 3.78018ZM4.97019 5.17495L4.98191 14.6281C4.98214 14.7998 5.12253 14.9408 5.29535 14.9417L14.7143 14.9916C14.7552 14.9919 14.7959 14.9841 14.8339 14.9686C14.8718 14.953 14.9063 14.9302 14.9354 14.9013C14.9644 14.8723 14.9875 14.8379 15.0031 14.8001C15.0188 14.7622 15.0269 14.7216 15.0268 14.6806L15.0156 7.62089C15.0155 7.5351 14.9649 7.41651 14.9027 7.3562L12.6188 5.14393C12.5562 5.08331 12.506 5.10464 12.506 5.19089V7.93635C12.506 8.19721 12.1439 8.65042 11.816 8.65042H7.09738C6.738 8.65042 6.3505 8.28214 6.3505 7.93635C6.3505 7.59057 6.34941 5.19104 6.34941 5.19104C6.34941 5.10479 6.27972 5.03401 6.19378 5.03299L5.1255 5.02089C5.10515 5.02068 5.08497 5.02451 5.06611 5.03217C5.04726 5.03982 5.03011 5.05114 5.01566 5.06547C5.00121 5.0798 4.98976 5.09686 4.98195 5.11565C4.97415 5.13444 4.97015 5.1546 4.97019 5.17495ZM7.51253 5.20932V7.38159C7.51253 7.46753 7.58253 7.53792 7.66878 7.53792H11.161C11.248 7.53792 11.3173 7.46792 11.3173 7.38159V5.2094C11.3173 5.16796 11.3008 5.12822 11.2715 5.09891C11.2422 5.06959 11.2025 5.05308 11.161 5.05299H7.66886C7.58183 5.05299 7.51261 5.12299 7.51261 5.2094L7.51253 5.20932Z" fill="#36AF8B"/>
<path fill-rule="evenodd" clip-rule="evenodd" d="M9.98426 9.3667C11.248 9.38662 12.4712 10.4939 12.4712 11.8454C12.4712 13.197 11.3294 14.3284 10.0481 14.3083C8.76676 14.288 7.49121 13.1548 7.49121 11.8439C7.49121 10.533 8.72051 9.34678 9.98418 9.3667H9.98426ZM8.72192 11.8128C8.72192 12.5687 9.32231 13.1317 9.98895 13.1286C10.6557 13.1256 11.2209 12.5718 11.2243 11.8247C11.2276 11.0776 10.6221 10.5473 9.97543 10.5473C9.32887 10.5473 8.72192 11.0567 8.72192 11.8127V11.8128Z" fill="#36AF8B"/>
</svg>
