<svg width="20" height="20" viewBox="0 0 20 20" fill="none" xmlns="http://www.w3.org/2000/svg">
<path d="M8.125 18.125H11.875V19.375H8.125V18.125Z" fill="#EEB209"/>
<path d="M7.5 16.25H12.5V17.5H7.5V16.25Z" fill="#EEB209"/>
<path d="M14.4305 2.44885C13.2559 1.27267 11.6824 0.625018 10 0.625018C9.17871 0.62306 8.3651 0.783385 7.60593 1.09678C6.84676 1.41018 6.15699 1.87048 5.57624 2.45124C4.99548 3.03199 4.53518 3.72176 4.22178 4.48093C3.90838 5.2401 3.74806 6.05371 3.75002 6.87502C3.75002 8.69611 4.44806 10.3996 5.66408 11.5485L5.83439 11.7082C6.53791 12.366 7.50002 13.2672 7.50002 14.0625V15.625H9.37502V10.5121L7.64533 9.53127L8.35939 8.50471L10 9.37502L11.6129 8.50041L12.359 9.50353L10.625 10.5192V15.625H12.5V14.0625C12.5 13.286 13.4516 12.3856 14.1465 11.7278L14.3383 11.5457C15.5891 10.3516 16.25 8.73478 16.25 6.87502C16.2542 6.05363 16.0955 5.23956 15.7832 4.47985C15.4709 3.72014 15.0111 3.02984 14.4305 2.44885Z" fill="#EEB209"/>
</svg>
