<?xml version="1.0" encoding="iso-8859-1"?>
<!-- Generator: Adobe Illustrator 18.1.1, SVG Export Plug-In . SVG Version: 6.00 Build 0)  -->
<svg version="1.1" id="Capa_1" xmlns="http://www.w3.org/2000/svg" xmlns:xlink="http://www.w3.org/1999/xlink" x="0px" y="0px"
	 viewBox="0 0 197.395 197.395" style="enable-background:new 0 0 197.395 197.395;" xml:space="preserve">
<g>
	<g>
		<path style="fill:#010002;" d="M80.803,32.231c-39.217,0-71.126,28.953-71.126,64.552c0,21.169,11.434,40.981,30.603,53.056
			c0.701,21.266-6.46,40.241-6.764,41.042l-2.552,6.514l51.807-36.114c38.147-0.948,69.158-29.851,69.158-64.498
			C151.929,61.188,120.024,32.231,80.803,32.231z M81.405,157.076l-41.887,29.193c2.358-7.906,5.665-22.114,4.946-37.739
			l-0.05-1.124l-0.966-0.587c-18.492-11.255-29.533-29.951-29.533-50.032c0-33.255,30.005-60.318,66.885-60.318
			c36.876,0,66.882,27.063,66.882,60.318c0,32.636-29.447,59.681-65.633,60.286L81.405,157.076z"/>
		<path style="fill:#010002;" d="M116.592,0C96.554,0,77.328,7.813,63.85,21.452l-0.644,0.655l0.884,0.258
			c1.016,0.301,2.058,0.712,3.092,1.22l0.347,0.165l0.276-0.268c12.794-12.404,30.123-19.24,48.787-19.24
			c36.876,0,66.882,27.053,66.882,60.311c0,17.715-8.783,34.522-24.104,46.103l-0.315,0.229l0.122,0.379
			c0.336,1.013,0.594,2.079,0.769,3.167l0.147,0.877l0.719-0.523c17.093-12.401,26.906-30.703,26.906-50.233
			C187.714,28.953,155.809,0,116.592,0z"/>
	</g>
</g>
<g>
</g>
<g>
</g>
<g>
</g>
<g>
</g>
<g>
</g>
<g>
</g>
<g>
</g>
<g>
</g>
<g>
</g>
<g>
</g>
<g>
</g>
<g>
</g>
<g>
</g>
<g>
</g>
<g>
</g>
</svg>
