<svg width="12" height="12" viewBox="0 0 12 12" fill="none" xmlns="http://www.w3.org/2000/svg">
<path d="M4.59513 3.17488C3.57513 4.31988 2.87513 5.96488 2.81013 6.11988L1.68013 5.63488C1.35513 5.49488 1.27513 5.06988 1.52513 4.81988L3.03013 3.31488C3.26513 3.07988 3.60513 2.97488 3.93513 3.03988L4.59513 3.17488ZM5.34013 8.25488C5.49013 8.40488 5.71013 8.44488 5.90013 8.35488C6.48013 8.08488 7.72513 7.44988 8.53013 6.64488C10.8251 4.34988 10.8451 2.47988 10.7101 1.67988C10.6924 1.58161 10.6451 1.49111 10.5745 1.4205C10.5039 1.3499 10.4134 1.30258 10.3151 1.28488C9.51513 1.14988 7.64513 1.16988 5.35013 3.46488C4.54513 4.26988 3.91513 5.51488 3.64013 6.09488C3.55013 6.28488 3.59513 6.50988 3.74013 6.65488L5.34013 8.25488ZM8.82513 7.40488C7.68013 8.42488 6.03513 9.12488 5.88013 9.18988L6.36513 10.3199C6.50513 10.6449 6.93013 10.7249 7.18013 10.4749L8.68513 8.96988C8.92013 8.73488 9.02513 8.39488 8.96013 8.06488L8.82513 7.40488ZM4.47013 8.70488C4.51861 8.94704 4.50656 9.19742 4.43504 9.43379C4.36351 9.67017 4.23473 9.88523 4.06013 10.0599C3.67513 10.4449 2.48013 10.7299 1.70513 10.8799C1.36013 10.9449 1.05513 10.6399 1.12013 10.2949C1.27013 9.51988 1.55013 8.32488 1.94013 7.93988C2.11478 7.76528 2.32984 7.6365 2.56622 7.56497C2.8026 7.49345 3.05298 7.4814 3.29513 7.52988C3.88013 7.63988 4.36013 8.11988 4.47013 8.70488ZM6.50013 4.49988C6.50013 3.94988 6.95013 3.49988 7.50013 3.49988C8.05013 3.49988 8.50013 3.94988 8.50013 4.49988C8.50013 5.04988 8.05013 5.49988 7.50013 5.49988C6.95013 5.49988 6.50013 5.04988 6.50013 4.49988Z" fill="#36AF8B"/>
</svg>
