<?xml version="1.0" encoding="iso-8859-1"?>
<!-- Generator: Adobe Illustrator 19.0.0, SVG Export Plug-In . SVG Version: 6.00 Build 0)  -->
<svg version="1.1" id="Layer_1" xmlns="http://www.w3.org/2000/svg" xmlns:xlink="http://www.w3.org/1999/xlink" x="0px" y="0px"
	 viewBox="0 0 470 470" style="enable-background:new 0 0 470 470;" xml:space="preserve">
<g>
	<g>
		<g>
			<path d="M432.5,12.5h-395C16.822,12.5,0,29.323,0,50v300c0,20.677,16.822,37.5,37.5,37.5h145v55H130c-4.142,0-7.5,3.358-7.5,7.5
				c0,4.142,3.358,7.5,7.5,7.5h210c4.142,0,7.5-3.358,7.5-7.5c0-4.142-3.358-7.5-7.5-7.5h-52.5v-55h145
				c20.678,0,37.5-16.823,37.5-37.5V50C470,29.323,453.178,12.5,432.5,12.5z M272.5,442.5h-75v-55h75V442.5z M455,350
				c0,12.406-10.093,22.5-22.5,22.5h-395C25.093,372.5,15,362.406,15,350v-22.5h440V350z M455,312.5H15V50
				c0-12.406,10.093-22.5,22.5-22.5h395c12.407,0,22.5,10.094,22.5,22.5V312.5z"/>
			<path d="M432.5,42.5h-395c-4.142,0-7.5,3.358-7.5,7.5v240c0,4.142,3.358,7.5,7.5,7.5h325c4.142,0,7.5-3.358,7.5-7.5
				c0-4.142-3.358-7.5-7.5-7.5H45v-225h380v225h-32.5c-4.142,0-7.5,3.358-7.5,7.5c0,4.142,3.358,7.5,7.5,7.5h40
				c4.142,0,7.5-3.358,7.5-7.5V50C440,45.858,436.642,42.5,432.5,42.5z"/>
		</g>
	</g>
</g>
<g>
</g>
<g>
</g>
<g>
</g>
<g>
</g>
<g>
</g>
<g>
</g>
<g>
</g>
<g>
</g>
<g>
</g>
<g>
</g>
<g>
</g>
<g>
</g>
<g>
</g>
<g>
</g>
<g>
</g>
</svg>
