<svg width="12" height="12" viewBox="0 0 12 12" fill="none" xmlns="http://www.w3.org/2000/svg">
<path fill-rule="evenodd" clip-rule="evenodd" d="M2.02811 1.31381C2.22904 1.11288 2.50157 1 2.78572 1H7.07144C7.16616 1 7.257 1.03763 7.32397 1.10461L10.1812 3.96175C10.2481 4.02872 10.2857 4.11956 10.2857 4.21429V9.92857C10.2857 10.2127 10.1729 10.4853 9.97194 10.6862C9.77101 10.8871 9.49844 11 9.21429 11H2.78572C2.50156 11 2.22904 10.8871 2.02811 10.6862C1.82718 10.4853 1.71429 10.2127 1.71429 9.92857V2.07143C1.71429 1.78727 1.82718 1.51475 2.02811 1.31381ZM5.30739 5.26405C5.51659 5.47326 5.51659 5.81246 5.30739 6.02166L4.25762 7.07143L5.30739 8.12119C5.51659 8.33043 5.51659 8.66957 5.30739 8.87879C5.09818 9.088 4.75898 9.088 4.54977 8.87879L3.1212 7.45024C2.91199 7.24103 2.91199 6.90183 3.1212 6.69262L4.54977 5.26405C4.75898 5.05484 5.09818 5.05484 5.30739 5.26405ZM6.69263 6.02166C6.48342 5.81246 6.48342 5.47326 6.69263 5.26405C6.90184 5.05484 7.24104 5.05484 7.45024 5.26405L8.87879 6.69262C9.08801 6.90183 9.08801 7.24103 8.87879 7.45024L7.45024 8.87879C7.24104 9.088 6.90184 9.088 6.69263 8.87879C6.48342 8.66957 6.48342 8.33043 6.69263 8.12119L7.74239 7.07143L6.69263 6.02166Z" fill="#6A727C"/>
</svg>
