<?xml version="1.0" encoding="UTF-8"?>
<svg width="408px" height="512px" viewBox="0 0 408 512" version="1.1" xmlns="http://www.w3.org/2000/svg" xmlns:xlink="http://www.w3.org/1999/xlink">
    <title>play</title>
    <g id="Page-1" stroke="none" stroke-width="1" fill="none" fill-rule="evenodd">
        <g id="play" fill="#FFFFFF" fill-rule="nonzero">
            <path d="M383.078,209.327 L88.047,9.81 C70.477,-2.073 48.798,-3.23 30.063,6.718 C11.326,16.666 0.141,35.269 0.141,56.482 L0.141,455.516 C0.141,476.729 11.327,495.332 30.063,505.28 C38.52,509.772 47.577,512 56.585,512 C67.533,512 78.409,508.708 88.048,502.19 L383.078,302.674 C398.595,292.18 407.859,274.733 407.859,256.001 C407.859,237.269 398.595,219.821 383.078,209.327 Z M371.654,285.78 L76.624,485.297 C65.412,492.879 51.581,493.619 39.627,487.27 C27.671,480.923 20.535,469.052 20.535,455.517 L20.535,56.484 C20.535,42.949 27.672,31.079 39.627,24.731 C45.023,21.866 50.802,20.444 56.55,20.444 C63.535,20.444 70.474,22.543 76.625,26.703 L371.655,226.22 C381.704,233.015 387.466,243.87 387.466,256 C387.466,268.13 381.702,278.985 371.654,285.78 Z" id="Shape"></path>
            <path d="M311.689,201.673 L295.134,190.454 C290.471,187.296 284.133,188.512 280.972,193.174 C277.812,197.836 279.032,204.176 283.693,207.335 L300.248,218.555 C302.002,219.743 303.99,220.312 305.96,220.312 C309.228,220.312 312.438,218.744 314.41,215.835 C317.57,211.172 316.35,204.832 311.689,201.673 Z" id="Path"></path>
            <path d="M263.764,169.195 L64.927,34.445 C60.264,31.287 53.926,32.504 50.765,37.166 C47.605,41.828 48.825,48.167 53.486,51.327 L252.323,186.077 C254.077,187.265 256.065,187.834 258.035,187.834 C261.303,187.834 264.513,186.266 266.485,183.357 C269.645,178.694 268.425,172.355 263.764,169.195 Z" id="Path"></path>
        </g>
    </g>
</svg>