<?xml version="1.0" encoding="iso-8859-1"?>
<!-- Generator: Adobe Illustrator 18.1.1, SVG Export Plug-In . SVG Version: 6.00 Build 0)  -->
<svg version="1.1" id="Capa_1" xmlns="http://www.w3.org/2000/svg" xmlns:xlink="http://www.w3.org/1999/xlink" x="0px" y="0px"
	 viewBox="0 0 501.265 501.265" style="enable-background:new 0 0 501.265 501.265;" xml:space="preserve">
<g>
	<g>
		<path style="fill:#010002;" d="M381.702,0H119.563c-4.487,0-8.129,3.642-8.129,8.129v485.008c0,4.495,3.642,8.129,8.129,8.129
			h262.138c4.495,0,8.129-3.633,8.129-8.129V8.129C389.83,3.633,386.197,0,381.702,0z M373.573,485.008H127.692V16.257h245.881
			V485.008z"/>
		<path style="fill:#010002;" d="M220.154,54.185h60.964c4.495,0,8.129-3.642,8.129-8.129s-3.633-8.129-8.129-8.129h-60.964
			c-4.487,0-8.129,3.642-8.129,8.129S215.659,54.185,220.154,54.185z"/>
		<path style="fill:#010002;" d="M184.795,54.185h1.626c4.487,0,8.129-3.642,8.129-8.129s-3.642-8.129-8.129-8.129h-1.626
			c-4.487,0-8.129,3.642-8.129,8.129S180.308,54.185,184.795,54.185z"/>
		<path style="fill:#010002;" d="M250.628,404.551c-17.932,0-32.514,14.583-32.514,32.514c0,17.932,14.583,32.514,32.514,32.514
			s32.514-14.583,32.514-32.514C283.143,419.134,268.56,404.551,250.628,404.551z M250.628,453.322
			c-8.966,0-16.257-7.291-16.257-16.257c0-8.966,7.291-16.257,16.257-16.257s16.257,7.291,16.257,16.257
			C266.885,446.031,259.594,453.322,250.628,453.322z"/>
		<path style="fill:#010002;" d="M140.901,398.3H361.73c4.495,0,8.129-3.633,8.129-8.129V81.286c0-4.487-3.633-8.129-8.129-8.129
			H140.901c-4.487,0-8.129,3.642-8.129,8.129v308.886C132.772,394.667,136.414,398.3,140.901,398.3z M149.029,89.414h204.572
			v292.629H149.029V89.414z"/>
	</g>
</g>
<g>
</g>
<g>
</g>
<g>
</g>
<g>
</g>
<g>
</g>
<g>
</g>
<g>
</g>
<g>
</g>
<g>
</g>
<g>
</g>
<g>
</g>
<g>
</g>
<g>
</g>
<g>
</g>
<g>
</g>
</svg>
