<?xml version="1.0" encoding="UTF-8"?>
<svg width="210px" height="210px" viewBox="0 0 210 210" version="1.1" xmlns="http://www.w3.org/2000/svg" xmlns:xlink="http://www.w3.org/1999/xlink">
    <title>rearrange</title>
    <g id="Page-1" stroke="none" stroke-width="1" fill="none" fill-rule="evenodd">
        <g id="rearrange" fill="#262626" fill-rule="nonzero">
            <path d="M195,0 L175,0 C166.716,0 160,6.716 160,15 L160,35 C160,43.284 166.716,50 175,50 L195,50 C203.284,50 210,43.284 210,35 L210,15 C210,6.716 203.284,0 195,0 Z" id="XMLID_17_"></path>
            <path d="M115,0 L95,0 C86.716,0 80,6.716 80,15 L80,35 C80,43.284 86.716,50 95,50 L115,50 C123.284,50 130,43.284 130,35 L130,15 C130,6.716 123.284,0 115,0 Z" id="XMLID_18_"></path>
            <path d="M35,0 L15,0 C6.716,0 0,6.716 0,15 L0,35 C0,43.284 6.716,50 15,50 L35,50 C43.284,50 50,43.284 50,35 L50,15 C50,6.716 43.284,0 35,0 Z" id="XMLID_19_"></path>
            <path d="M195,160 L175,160 C166.716,160 160,166.716 160,175 L160,195 C160,203.284 166.716,210 175,210 L195,210 C203.284,210 210,203.284 210,195 L210,175 C210,166.716 203.284,160 195,160 Z" id="XMLID_20_"></path>
            <path d="M115,160 L95,160 C86.716,160 80,166.716 80,175 L80,195 C80,203.284 86.716,210 95,210 L115,210 C123.284,210 130,203.284 130,195 L130,175 C130,166.716 123.284,160 115,160 Z" id="XMLID_21_"></path>
            <path d="M35,160 L15,160 C6.716,160 0,166.716 0,175 L0,195 C0,203.284 6.716,210 15,210 L35,210 C43.284,210 50,203.284 50,195 L50,175 C50,166.716 43.284,160 35,160 Z" id="XMLID_22_"></path>
            <path d="M195,80 L175,80 C166.716,80 160,86.716 160,95 L160,115 C160,123.284 166.716,130 175,130 L195,130 C203.284,130 210,123.284 210,115 L210,95 C210,86.716 203.284,80 195,80 Z" id="XMLID_23_"></path>
            <path d="M115,80 L95,80 C86.716,80 80,86.716 80,95 L80,115 C80,123.284 86.716,130 95,130 L115,130 C123.284,130 130,123.284 130,115 L130,95 C130,86.716 123.284,80 115,80 Z" id="XMLID_24_"></path>
            <path d="M35,80 L15,80 C6.716,80 0,86.716 0,95 L0,115 C0,123.284 6.716,130 15,130 L35,130 C43.284,130 50,123.284 50,115 L50,95 C50,86.716 43.284,80 35,80 Z" id="XMLID_25_"></path>
        </g>
    </g>
</svg>