<svg width="2" height="12" viewBox="0 0 2 12" fill="none" xmlns="http://www.w3.org/2000/svg">
  <path
    d="M1.00001 11.65C0.755562 11.65 0.544451 11.5612 0.366673 11.3834C0.188895 11.2056 0.100006 10.9945 0.100006 10.75C0.100006 10.5056 0.188895 10.2917 0.366673 10.1084C0.544451 9.92504 0.755562 9.83337 1.00001 9.83337C1.25556 9.83337 1.46945 9.92504 1.64167 10.1084C1.8139 10.2917 1.90001 10.5056 1.90001 10.75C1.90001 10.9945 1.8139 11.2056 1.64167 11.3834C1.46945 11.5612 1.25556 11.65 1.00001 11.65ZM1.00001 6.90004C0.755562 6.90004 0.544451 6.81115 0.366673 6.63337C0.188895 6.4556 0.100006 6.24449 0.100006 6.00004C0.100006 5.74449 0.188895 5.5306 0.366673 5.35837C0.544451 5.18615 0.755562 5.10004 1.00001 5.10004C1.25556 5.10004 1.46945 5.18615 1.64167 5.35837C1.8139 5.5306 1.90001 5.74449 1.90001 6.00004C1.90001 6.24449 1.8139 6.4556 1.64167 6.63337C1.46945 6.81115 1.25556 6.90004 1.00001 6.90004ZM1.00001 2.16671C0.755562 2.16671 0.544451 2.07782 0.366673 1.90004C0.188895 1.72226 0.100006 1.5056 0.100006 1.25004C0.100006 0.994485 0.188895 0.777819 0.366673 0.600041C0.544451 0.422263 0.755562 0.333374 1.00001 0.333374C1.25556 0.333374 1.46945 0.422263 1.64167 0.600041C1.8139 0.777819 1.90001 0.994485 1.90001 1.25004C1.90001 1.5056 1.8139 1.72226 1.64167 1.90004C1.46945 2.07782 1.25556 2.16671 1.00001 2.16671Z"
    fill="#576574"
  />
</svg>