<svg version="1.1" id="Layer_1" xmlns="http://www.w3.org/2000/svg" xmlns:xlink="http://www.w3.org/1999/xlink" x="0px" y="0px"
	 width="100%" viewBox="0 0 206 245" enable-background="new 0 0 206 245" xml:space="preserve">
<path fill="#FDBC01" opacity="1.000000" stroke="none" 
	d="
M82.000000,1.000000 
	C95.687561,1.000000 109.375122,1.000000 123.743645,1.357538 
	C132.956161,2.799924 141.541458,3.573041 150.008484,5.032341 
	C169.662018,8.419651 188.575821,14.166744 206.103668,24.333153 
	C206.045151,64.141434 206.013474,103.472847 206.044510,142.804214 
	C206.045624,144.203064 206.667465,145.601410 207.000000,147.000000 
	C207.000000,149.370560 207.000000,151.741104 206.648285,154.738251 
	C202.686920,183.251785 188.443237,203.737747 163.539032,216.806335 
	C155.183121,221.191116 146.907333,225.736969 138.457016,229.931381 
	C127.376122,235.431519 116.158699,240.656601 105.000000,246.000000 
	C104.555557,246.000000 104.111107,246.000000 103.153061,245.699707 
	C83.873482,236.250046 64.988075,227.336090 46.372349,217.890625 
	C24.079189,206.579269 8.707407,189.445679 3.310125,164.396988 
	C2.630978,161.245071 1.774382,158.131393 1.000000,155.000000 
	C1.000000,152.958328 1.000000,150.916672 1.301738,148.144562 
	C1.726947,146.765747 1.958745,146.117279 1.958413,145.468964 
	C1.937679,104.931099 1.898001,64.393250 2.092196,23.595936 
	C22.427612,12.996426 43.782074,6.758188 66.140511,3.731010 
	C71.452873,3.011752 76.714851,1.920269 82.000000,1.000000 
M10.922935,76.935272 
	C10.993543,101.611755 11.064150,126.288239 11.008501,151.808167 
	C13.062948,175.000488 22.973633,193.739807 43.669125,205.147354 
	C62.533165,215.545380 82.067711,224.730118 101.366760,234.328903 
	C102.677498,234.980835 104.812401,235.249664 106.025475,234.634583 
	C127.167412,223.914703 148.893906,214.129623 169.103210,201.853027 
	C187.415497,190.728851 195.688782,172.350998 197.005356,150.042786 
	C197.035110,110.096321 197.073532,70.149849 197.052734,30.203421 
	C197.052109,29.005497 196.431564,27.807896 195.385223,26.255703 
	C189.580948,25.891493 183.776657,25.527283 177.049164,25.011848 
	C164.379440,25.061081 151.709702,25.110313 138.172546,25.031788 
	C135.026398,25.318176 131.880081,25.602549 128.734146,25.891262 
	C95.132698,28.974966 63.506771,38.238026 35.172539,56.946629 
	C26.669441,62.561077 19.122091,69.623009 10.922935,76.935272 
z"/>
<path fill="#FFFFFE" opacity="1.000000" stroke="none" 
	d="
M1.000000,155.468658 
	C1.774382,158.131393 2.630978,161.245071 3.310125,164.396988 
	C8.707407,189.445679 24.079189,206.579269 46.372349,217.890625 
	C64.988075,227.336090 83.873482,236.250046 102.819725,245.699707 
	C69.077240,246.000000 35.154476,246.000000 1.000000,246.000000 
	C1.000000,215.979507 1.000000,185.958405 1.000000,155.468658 
z"/>
<path fill="#FFFEFD" opacity="1.000000" stroke="none" 
	d="
M105.468658,246.000000 
	C116.158699,240.656601 127.376122,235.431519 138.457016,229.931381 
	C146.907333,225.736969 155.183121,221.191116 163.539032,216.806335 
	C188.443237,203.737747 202.686920,183.251785 206.648285,155.182419 
	C207.000000,185.224152 207.000000,215.448303 207.000000,246.000000 
	C196.981491,246.000000 186.959396,246.000000 176.401443,245.765381 
	C175.865570,245.530746 175.726151,245.062958 176.049561,245.044220 
	C176.588089,245.019714 176.803177,245.013947 177.197876,244.841919 
	C177.278198,244.107162 177.178894,243.538635 177.012085,242.675720 
	C176.374542,241.590179 175.804504,240.799042 175.056793,239.750290 
	C175.234818,237.189499 175.590530,234.886307 176.113525,232.289368 
	C176.070679,228.490295 174.009384,228.514740 172.032974,228.377319 
	C171.777969,228.839859 171.522949,229.302399 171.267929,229.764938 
	C172.822388,230.694962 174.376846,231.624985 175.500473,232.650726 
	C173.366898,232.491257 171.664139,232.236099 169.769562,231.834045 
	C169.327667,231.479675 169.115051,231.239090 169.020523,230.769135 
	C169.070328,230.279633 169.039505,229.986389 169.008667,229.693161 
	C168.633469,230.117569 168.258270,230.541992 167.635498,231.119476 
	C166.818802,232.141235 166.249649,233.009949 165.326538,234.418900 
	C167.167816,233.806351 168.308502,233.426880 169.524506,233.478607 
	C169.599808,236.588470 169.599808,239.267105 169.599808,240.764862 
	C172.055130,240.949203 173.543106,241.060913 175.016403,241.555481 
	C175.001968,242.960754 175.002228,243.983200 174.718475,245.010712 
	C173.622986,245.343826 172.811493,245.671906 172.000000,246.000000 
	C172.000000,246.000000 171.500000,246.000000 171.136017,245.781860 
	C170.181351,245.709152 169.590683,245.854568 169.000000,246.000000 
	C147.979111,246.000000 126.958214,246.000000 105.468658,246.000000 
M180.419739,238.635406 
	C180.677170,237.783829 180.934586,236.932251 181.192017,236.080673 
	C180.645981,236.006012 180.099930,235.931335 179.553894,235.856659 
	C179.640701,236.720810 179.727509,237.584961 180.419739,238.635406 
M166.648361,240.985855 
	C166.104645,240.859482 165.560944,240.733109 165.017227,240.606735 
	C165.376205,241.393661 165.735184,242.180573 166.094147,242.967499 
	C166.342316,242.476151 166.590500,241.984802 166.648361,240.985855 
M179.216461,233.511810 
	C179.078552,233.518524 178.940628,233.525238 178.802719,233.531937 
	C178.895050,233.577301 178.987381,233.622650 179.216461,233.511810 
z"/>
<path fill="#FFFEFC" opacity="1.000000" stroke="none" 
	d="
M206.140823,23.856281 
	C188.575821,14.166744 169.662018,8.419651 150.008484,5.032341 
	C141.541458,3.573041 132.956161,2.799924 124.212303,1.357538 
	C151.551941,1.000000 179.103882,1.000000 207.000000,1.000000 
	C207.000000,8.350596 207.000000,15.706561 206.795471,23.433876 
	C206.590958,23.805227 206.140823,23.856281 206.140823,23.856281 
z"/>
<path fill="#FFFEFC" opacity="1.000000" stroke="none" 
	d="
M81.531342,1.000000 
	C76.714851,1.920269 71.452873,3.011752 66.140511,3.731010 
	C43.782074,6.758188 22.427612,12.996426 1.866929,23.571136 
	C1.409522,23.805799 1.000000,24.000000 1.000000,24.000000 
	C1.000000,16.365726 1.000000,8.731453 1.000000,1.000000 
	C27.687489,1.000000 54.375088,1.000000 81.531342,1.000000 
z"/>
<path fill="#FFD270" opacity="1.000000" stroke="none" 
	d="
M1.000000,24.468658 
	C1.000000,24.000000 1.409522,23.805799 1.634789,23.830597 
	C1.898001,64.393250 1.937679,104.931099 1.958413,145.468964 
	C1.958745,146.117279 1.726947,146.765747 1.301738,147.707062 
	C1.000000,106.979103 1.000000,65.958206 1.000000,24.468658 
z"/>
<path fill="#FFD270" opacity="1.000000" stroke="none" 
	d="
M206.103668,24.333153 
	C206.140823,23.856281 206.590958,23.805227 206.795471,23.902615 
	C207.000000,64.687561 207.000000,105.375122 207.000000,146.531342 
	C206.667465,145.601410 206.045624,144.203064 206.044510,142.804214 
	C206.013474,103.472847 206.045151,64.141434 206.103668,24.333153 
z"/>
<path fill="#FFDE97" opacity="1.000000" stroke="none" 
	d="
M172.399994,246.000000 
	C172.811493,245.671906 173.622986,245.343826 174.898209,245.039978 
	C175.361938,245.064178 175.726151,245.062958 175.726151,245.062958 
	C175.726151,245.062958 175.865570,245.530746 175.932785,245.765381 
	C174.933334,246.000000 173.866653,246.000000 172.399994,246.000000 
z"/>
<path fill="#FFF9EC" opacity="1.000000" stroke="none" 
	d="
M169.333328,246.000000 
	C169.590683,245.854568 170.181351,245.709152 170.886017,245.781860 
	C170.555557,246.000000 170.111099,246.000000 169.333328,246.000000 
z"/>
<path fill="#330100" opacity="1.000000" stroke="none" 
	d="
M177.972382,25.163073 
	C183.776657,25.527283 189.580948,25.891493 195.719421,26.927059 
	C196.035629,67.112259 196.007721,106.626106 196.035294,146.139908 
	C196.036423,147.747467 196.560211,149.354660 196.840485,150.962021 
	C195.688782,172.350998 187.415497,190.728851 169.103210,201.853027 
	C148.893906,214.129623 127.167412,223.914703 106.025475,234.634583 
	C104.812401,235.249664 102.677498,234.980835 101.366760,234.328903 
	C82.067711,224.730118 62.533165,215.545380 43.669125,205.147354 
	C22.973633,193.739807 13.062948,175.000488 11.278311,151.033127 
	C11.695282,149.444458 11.970103,148.630966 11.971010,147.817184 
	C11.996275,125.161873 12.007690,102.506493 11.959176,79.851265 
	C11.956442,78.574203 11.423212,77.298271 11.136891,76.021812 
	C19.122091,69.623009 26.669441,62.561077 35.172539,56.946629 
	C63.506771,38.238026 95.132698,28.974966 128.734146,25.891262 
	C131.880081,25.602549 135.026398,25.318176 138.961273,25.298405 
	C149.216461,25.710068 158.682755,25.937948 168.149445,25.954824 
	C171.423279,25.960661 174.698044,25.442101 177.972382,25.163073 
M54.699448,82.680298 
	C54.468010,83.801888 54.034985,84.923470 54.035004,86.045059 
	C54.035336,107.187485 54.086906,128.329910 53.534737,149.926178 
	C44.816074,152.772491 40.484093,150.802673 38.607113,142.241486 
	C38.728539,141.594803 38.955143,140.948273 38.956070,140.301422 
	C38.982155,122.112556 39.005093,103.923607 38.949512,85.734909 
	C38.945694,84.485237 38.327106,83.237442 37.272427,81.592751 
	C31.661762,81.592751 26.051098,81.592751 20.362440,81.592751 
	C20.362440,103.237144 19.763853,124.667488 20.620916,146.039459 
	C21.034826,156.360825 27.736984,163.653244 38.309269,165.622314 
	C50.808212,167.950195 62.797142,166.166962 74.208626,158.331894 
	C74.471306,157.057739 74.960381,155.784058 74.963028,154.509354 
	C75.009979,131.906219 75.022537,109.302856 74.943939,86.699890 
	C74.938560,85.153229 74.154831,83.609276 73.015022,81.715424 
	C67.094246,81.830772 61.173473,81.946129 54.699448,82.680298 
M81.624214,87.627007 
	C81.416855,88.924126 81.029587,90.221085 81.028374,91.518394 
	C80.995361,126.794144 80.987030,162.069962 81.050369,197.345627 
	C81.053192,198.917755 81.768166,200.488586 82.646065,202.668869 
	C88.835854,205.689240 94.847816,203.518585 101.381348,201.368683 
	C101.588150,191.737198 101.951004,182.105118 101.915558,172.474533 
	C101.903450,169.185333 102.705872,167.041275 106.868393,166.054718 
	C122.128693,165.944107 131.902039,158.550827 136.747665,143.200729 
	C140.315384,131.898773 140.879837,120.319923 138.594940,108.740990 
	C133.145554,81.125694 102.816010,69.495148 81.624214,87.627007 
M168.087601,149.978882 
	C159.329391,153.719971 152.140564,149.511841 144.983170,145.068497 
	C142.562286,160.884659 145.565445,164.753799 160.998276,166.114639 
	C161.826797,166.187714 162.650528,166.320282 163.479721,166.380310 
	C178.073700,167.436874 189.491135,156.810074 190.123047,142.222076 
	C190.665512,129.698593 183.796326,122.157379 174.093964,116.125648 
	C170.714386,114.024658 167.096664,112.155533 164.146088,109.548538 
	C158.722809,104.756744 160.068146,96.416969 166.527756,94.723450 
	C169.614746,93.914124 173.259155,93.923355 176.340668,94.737183 
	C180.051575,95.717247 183.432526,97.946709 187.421921,99.858421 
	C187.421921,95.595146 187.528137,91.316719 187.339783,87.051300 
	C187.297897,86.102882 186.406982,84.963181 185.588440,84.311890 
	C171.863800,73.391647 149.334625,80.322937 144.747772,97.077454 
	C142.015625,107.057274 144.352509,115.964699 152.762878,122.519661 
	C157.464462,126.184021 162.791260,129.048569 167.474945,132.732925 
	C173.515640,137.484756 173.826065,143.936050 168.087601,149.978882 
z"/>
<path fill="#1A0000" opacity="1.000000" stroke="none" 
	d="
M196.922913,150.502411 
	C196.560211,149.354660 196.036423,147.747467 196.035294,146.139908 
	C196.007721,106.626106 196.035629,67.112259 196.076828,27.104279 
	C196.431564,27.807896 197.052109,29.005497 197.052734,30.203421 
	C197.073532,70.149849 197.035110,110.096321 196.922913,150.502411 
z"/>
<path fill="#1C0000" opacity="1.000000" stroke="none" 
	d="
M11.029913,76.478546 
	C11.423212,77.298271 11.956442,78.574203 11.959176,79.851265 
	C12.007690,102.506493 11.996275,125.161873 11.971010,147.817184 
	C11.970103,148.630966 11.695282,149.444458 11.341438,150.611404 
	C11.064150,126.288239 10.993543,101.611755 11.029913,76.478546 
z"/>
<path fill="#200000" opacity="1.000000" stroke="none" 
	d="
M177.510773,25.087460 
	C174.698044,25.442101 171.423279,25.960661 168.149445,25.954824 
	C158.682755,25.937948 149.216461,25.710068 139.394989,25.362284 
	C151.709702,25.110313 164.379440,25.061081 177.510773,25.087460 
z"/>
<path fill="#FFC42C" opacity="1.000000" stroke="none" 
	d="
M175.031097,241.172638 
	C173.543106,241.060913 172.055130,240.949203 169.599808,240.764862 
	C169.599808,239.267105 169.599808,236.588470 169.649994,233.210754 
	C169.787247,232.334778 169.874313,232.157867 169.961380,231.980942 
	C171.664139,232.236099 173.366898,232.491257 175.512604,232.645569 
	C175.955566,232.544708 175.946243,232.583130 175.946243,232.583130 
	C175.590530,234.886307 175.234818,237.189499 174.998703,240.040222 
	C175.089218,240.782730 175.060150,240.977692 175.031097,241.172638 
z"/>
<path fill="#FFF6E1" opacity="1.000000" stroke="none" 
	d="
M175.943420,232.549866 
	C174.376846,231.624985 172.822388,230.694962 171.267929,229.764938 
	C171.522949,229.302399 171.777969,228.839859 172.032974,228.377319 
	C174.009384,228.514740 176.070679,228.490295 176.113525,232.289368 
	C175.946243,232.583130 175.955566,232.544708 175.943420,232.549866 
z"/>
<path fill="#FFF6E1" opacity="1.000000" stroke="none" 
	d="
M180.117035,238.542267 
	C179.727509,237.584961 179.640701,236.720810 179.553894,235.856659 
	C180.099930,235.931335 180.645981,236.006012 181.192017,236.080673 
	C180.934586,236.932251 180.677170,237.783829 180.117035,238.542267 
z"/>
<path fill="#FFF9EC" opacity="1.000000" stroke="none" 
	d="
M169.769562,231.834045 
	C169.874313,232.157867 169.787247,232.334778 169.574692,232.779556 
	C168.308502,233.426880 167.167816,233.806351 165.326538,234.418900 
	C166.249649,233.009949 166.818802,232.141235 167.900467,231.122391 
	C168.588623,230.969971 168.764252,230.967682 168.939896,230.965408 
	C169.115051,231.239090 169.327667,231.479675 169.769562,231.834045 
z"/>
<path fill="#FFF6E1" opacity="1.000000" stroke="none" 
	d="
M175.016403,241.555481 
	C175.060150,240.977692 175.089218,240.782730 175.176392,240.297821 
	C175.804504,240.799042 176.374542,241.590179 176.997314,243.015381 
	C177.039444,244.102356 177.028854,244.555267 177.018265,245.008179 
	C176.803177,245.013947 176.588089,245.019714 176.049561,245.044220 
	C175.726151,245.062958 175.361938,245.064178 175.182220,245.034912 
	C175.002228,243.983200 175.001968,242.960754 175.016403,241.555481 
z"/>
<path fill="#FFF9EC" opacity="1.000000" stroke="none" 
	d="
M166.743530,241.239655 
	C166.590500,241.984802 166.342316,242.476151 166.094147,242.967499 
	C165.735184,242.180573 165.376205,241.393661 165.017227,240.606735 
	C165.560944,240.733109 166.104645,240.859482 166.743530,241.239655 
z"/>
<path fill="#FFF6E1" opacity="1.000000" stroke="none" 
	d="
M169.020523,230.769135 
	C168.764252,230.967682 168.588623,230.969971 168.148010,230.969330 
	C168.258270,230.541992 168.633469,230.117569 169.008667,229.693161 
	C169.039505,229.986389 169.070328,230.279633 169.020523,230.769135 
z"/>
<path fill="#FFF6E1" opacity="1.000000" stroke="none" 
	d="
M179.148087,233.589905 
	C178.987381,233.622650 178.895050,233.577301 178.802719,233.531937 
	C178.940628,233.525238 179.078552,233.518524 179.148087,233.589905 
z"/>
<path fill="#FFF9EC" opacity="1.000000" stroke="none" 
	d="
M177.197876,244.841919 
	C177.028854,244.555267 177.039444,244.102356 177.064819,243.309784 
	C177.178894,243.538635 177.278198,244.107162 177.197876,244.841919 
z"/>
<path fill="#F8B800" opacity="1.000000" stroke="none" 
	d="
M100.883636,202.044144 
	C94.847816,203.518585 88.835854,205.689240 82.493225,201.898773 
	C82.358368,169.876633 82.392715,138.624573 82.381485,107.372520 
	C82.379036,100.565376 82.213562,93.758308 82.123169,86.951202 
	C102.816010,69.495148 133.145554,81.125694 138.594940,108.740990 
	C140.879837,120.319923 140.315384,131.898773 136.747665,143.200729 
	C131.902039,158.550827 122.128693,165.944107 105.953445,166.019165 
	C103.662361,165.983612 102.286217,165.983612 100.883636,165.983612 
	C100.883636,178.236847 100.883636,190.140503 100.883636,202.044144 
M102.118347,94.977013 
	C101.621445,96.219841 100.699577,97.460083 100.692024,98.705872 
	C100.594208,114.828148 100.596077,130.951385 100.685066,147.073761 
	C100.691994,148.328018 101.539207,149.577637 102.874054,151.010178 
	C111.212463,151.729813 115.525520,150.091965 117.895142,143.494400 
	C122.869217,129.645493 122.903793,115.435104 118.092392,101.544334 
	C115.812233,94.961395 109.991661,92.931740 102.118347,94.977013 
z"/>
<path fill="#F8B800" opacity="1.000000" stroke="none" 
	d="
M73.609589,158.914413 
	C62.797142,166.166962 50.808212,167.950195 38.309269,165.622314 
	C27.736984,163.653244 21.034826,156.360825 20.620916,146.039459 
	C19.763853,124.667488 20.362440,103.237144 20.362440,81.592751 
	C26.051098,81.592751 31.661762,81.592751 37.596264,82.259430 
	C38.024200,102.940056 38.128300,122.953987 38.232399,142.967926 
	C40.484093,150.802673 44.816074,152.772491 54.207790,149.420166 
	C55.051373,148.281937 55.371391,147.649582 55.370789,147.017517 
	C55.350216,125.365486 55.299274,103.713493 55.252701,82.061485 
	C61.173473,81.946129 67.094246,81.830772 73.317459,82.351555 
	C73.616470,108.296593 73.613029,133.605499 73.609589,158.914413 
z"/>
<path fill="#FBBB00" opacity="1.000000" stroke="none" 
	d="
M168.435471,149.763199 
	C173.826065,143.936050 173.515640,137.484756 167.474945,132.732925 
	C162.791260,129.048569 157.464462,126.184021 152.762878,122.519661 
	C144.352509,115.964699 142.015625,107.057274 144.747772,97.077454 
	C149.334625,80.322937 171.863800,73.391647 185.588440,84.311890 
	C186.406982,84.963181 187.297897,86.102882 187.339783,87.051300 
	C187.528137,91.316719 187.421921,95.595146 187.421921,99.858421 
	C183.432526,97.946709 180.051575,95.717247 176.340668,94.737183 
	C173.259155,93.923355 169.614746,93.914124 166.527756,94.723450 
	C160.068146,96.416969 158.722809,104.756744 164.146088,109.548538 
	C167.096664,112.155533 170.714386,114.024658 174.093964,116.125648 
	C183.796326,122.157379 190.665512,129.698593 190.123047,142.222076 
	C189.491135,156.810074 178.073700,167.436874 163.479721,166.380310 
	C162.650528,166.320282 161.826797,166.187714 160.998276,166.114639 
	C145.565445,164.753799 142.562286,160.884659 144.983170,145.068497 
	C152.140564,149.511841 159.329391,153.719971 168.435471,149.763199 
z"/>
<path fill="#260000" opacity="1.000000" stroke="none" 
	d="
M81.873688,87.289108 
	C82.213562,93.758308 82.379036,100.565376 82.381485,107.372520 
	C82.392715,138.624573 82.358368,169.876633 82.245903,201.594360 
	C81.768166,200.488586 81.053192,198.917755 81.050369,197.345627 
	C80.987030,162.069962 80.995361,126.794144 81.028374,91.518394 
	C81.029587,90.221085 81.416855,88.924126 81.873688,87.289108 
z"/>
<path fill="#260000" opacity="1.000000" stroke="none" 
	d="
M73.909103,158.623154 
	C73.613029,133.605499 73.616470,108.296593 73.676498,82.525879 
	C74.154831,83.609276 74.938560,85.153229 74.943939,86.699890 
	C75.022537,109.302856 75.009979,131.906219 74.963028,154.509354 
	C74.960381,155.784058 74.471306,157.057739 73.909103,158.623154 
z"/>
<path fill="#260000" opacity="1.000000" stroke="none" 
	d="
M54.976074,82.370895 
	C55.299274,103.713493 55.350216,125.365486 55.370789,147.017517 
	C55.371391,147.649582 55.051373,148.281937 54.504318,149.193237 
	C54.086906,128.329910 54.035336,107.187485 54.035004,86.045059 
	C54.034985,84.923470 54.468010,83.801888 54.976074,82.370895 
z"/>
<path fill="#1A0000" opacity="1.000000" stroke="none" 
	d="
M38.419754,142.604706 
	C38.128300,122.953987 38.024200,102.940056 37.957264,82.457443 
	C38.327106,83.237442 38.945694,84.485237 38.949512,85.734909 
	C39.005093,103.923607 38.982155,122.112556 38.956070,140.301422 
	C38.955143,140.948273 38.728539,141.594803 38.419754,142.604706 
z"/>
<path fill="#250100" opacity="1.000000" stroke="none" 
	d="
M101.132492,201.706421 
	C100.883636,190.140503 100.883636,178.236847 100.883636,165.983612 
	C102.286217,165.983612 103.662361,165.983612 105.506355,166.071457 
	C102.705872,167.041275 101.903450,169.185333 101.915558,172.474533 
	C101.951004,182.105118 101.588150,191.737198 101.132492,201.706421 
z"/>
<path fill="#330100" opacity="1.000000" stroke="none" 
	d="
M103.018379,94.972572 
	C109.991661,92.931740 115.812233,94.961395 118.092392,101.544334 
	C122.903793,115.435104 122.869217,129.645493 117.895142,143.494400 
	C115.525520,150.091965 111.212463,151.729813 102.436920,150.462067 
	C101.999718,133.863861 101.959808,117.813576 102.044891,101.763947 
	C102.056900,99.498505 102.678780,97.236282 103.018379,94.972572 
z"/>
<path fill="#250000" opacity="1.000000" stroke="none" 
	d="
M102.568359,94.974792 
	C102.678780,97.236282 102.056900,99.498505 102.044891,101.763947 
	C101.959808,117.813576 101.999718,133.863861 101.997826,150.371674 
	C101.539207,149.577637 100.691994,148.328018 100.685066,147.073761 
	C100.596077,130.951385 100.594208,114.828148 100.692024,98.705872 
	C100.699577,97.460083 101.621445,96.219841 102.568359,94.974792 
z"/>
</svg>