<svg width="100%" height="100%" viewBox="0 0 24 24" fill="none" xmlns="http://www.w3.org/2000/svg">
<path fill-rule="evenodd" clip-rule="evenodd" d="M10.2976 7.13648C10.2976 6.10899 11.1526 5.7115 12.5341 5.7115C14.8205 5.7609 17.0641 6.34144 19.0875 7.40723V1.20481C17.001 0.384858 14.7757 -0.02389 12.5341 0.0010786C7.20915 0.0010786 3.6377 2.79029 3.6377 7.44773C3.6377 14.7346 13.6441 13.5511 13.6441 16.6921C13.6441 17.9206 12.5941 18.3016 11.1166 18.3016C8.93787 18.3016 6.12391 17.4001 3.91669 16.2001V22.4835C6.18917 23.4723 8.6391 23.9883 11.1173 24C16.59 24 20.3625 21.2963 20.3625 16.5579C20.3625 8.69346 10.2976 10.0982 10.2976 7.13798V7.13648Z" fill="#6772E5"/>
</svg>
