<svg xmlns="http://www.w3.org/2000/svg" class="icon icon-tabler icon-tabler-new-section" width="44" height="44" viewBox="0 0 24 24" stroke-width="1.5" stroke="#9e9e9e" fill="none" stroke-linecap="round" stroke-linejoin="round">
  <path stroke="none" d="M0 0h24v24H0z" fill="none"/>
  <line x1="9" y1="12" x2="15" y2="12" />
  <line x1="12" y1="9" x2="12" y2="15" />
  <path d="M4 6v-1a1 1 0 0 1 1 -1h1m5 0h2m5 0h1a1 1 0 0 1 1 1v1m0 5v2m0 5v1a1 1 0 0 1 -1 1h-1m-5 0h-2m-5 0h-1a1 1 0 0 1 -1 -1v-1m0 -5v-2m0 -5" />
</svg>