<svg width="14" height="14" viewBox="0 0 14 14" fill="none" xmlns="http://www.w3.org/2000/svg">
<path fill-rule="evenodd" clip-rule="evenodd" d="M3.21745 0.333496H11.2174C12.6902 0.333496 13.8841 1.5274 13.8841 3.00016V11.0002C13.8841 12.4729 12.6902 13.6668 11.2174 13.6668H3.21745C1.74469 13.6668 0.550781 12.4729 0.550781 11.0002V3.00016C0.550781 1.5274 1.74469 0.333496 3.21745 0.333496ZM7.21745 3.8335C7.49359 3.8335 7.71745 4.05735 7.71745 4.3335V6.50016H9.88412C10.1603 6.50016 10.3841 6.72402 10.3841 7.00016C10.3841 7.27631 10.1603 7.50016 9.88412 7.50016H7.71745V9.66683C7.71745 9.94297 7.49359 10.1668 7.21745 10.1668C6.94131 10.1668 6.71745 9.94297 6.71745 9.66683V7.50016H4.55078C4.27464 7.50016 4.05078 7.27631 4.05078 7.00016C4.05078 6.72402 4.27464 6.50016 4.55078 6.50016H6.71745V4.3335C6.71745 4.05735 6.94131 3.8335 7.21745 3.8335Z" fill="#C1C8CD"/>
</svg>