<svg width="22" height="22" viewBox="0 0 22 22" fill="none" xmlns="http://www.w3.org/2000/svg">
<rect width="22" height="22" rx="2" fill="#F1F3F5"/>
<path opacity="0.4" d="M9.81465 6.43012C10.3313 5.52329 11.6687 5.52329 12.1853 6.43012L16.6607 14.2856C17.1628 15.1669 16.5093 16.25 15.4754 16.25H6.52459C5.49067 16.25 4.83713 15.1669 5.33925 14.2856L9.81465 6.43012Z" fill="#889096"/>
<path d="M11.5833 13.9154C11.5833 14.2375 11.3222 14.4987 11 14.4987C10.6778 14.4987 10.4167 14.2375 10.4167 13.9154C10.4167 13.5932 10.6778 13.332 11 13.332C11.3222 13.332 11.5833 13.5932 11.5833 13.9154Z" fill="#889096"/>
<path fill-rule="evenodd" clip-rule="evenodd" d="M11 8.8125C11.2416 8.8125 11.4375 9.00838 11.4375 9.25V12.1667C11.4375 12.4083 11.2416 12.6042 11 12.6042C10.7584 12.6042 10.5625 12.4083 10.5625 12.1667V9.25C10.5625 9.00838 10.7584 8.8125 11 8.8125Z" fill="#889096"/>
</svg>
