<svg width="18" height="18" viewBox="0 0 18 18" fill="none" xmlns="http://www.w3.org/2000/svg">
<path fill-rule="evenodd" clip-rule="evenodd" d="M8.99984 2.33317C5.31794 2.33317 2.33317 5.31794 2.33317 8.99984C2.33317 12.6817 5.31794 15.6665 8.99984 15.6665C12.6817 15.6665 15.6665 12.6817 15.6665 8.99984C15.6665 5.31794 12.6817 2.33317 8.99984 2.33317ZM0.666504 8.99984C0.666504 4.39746 4.39746 0.666504 8.99984 0.666504C13.6022 0.666504 17.3332 4.39746 17.3332 8.99984C17.3332 13.6022 13.6022 17.3332 8.99984 17.3332C4.39746 17.3332 0.666504 13.6022 0.666504 8.99984ZM8.1665 5.6665C8.1665 5.20627 8.5396 4.83317 8.99984 4.83317H9.00817C9.46841 4.83317 9.8415 5.20627 9.8415 5.6665C9.8415 6.12674 9.46841 6.49984 9.00817 6.49984H8.99984C8.5396 6.49984 8.1665 6.12674 8.1665 5.6665ZM7.33317 8.99984C7.33317 8.5396 7.70627 8.1665 8.1665 8.1665H8.99984C9.46008 8.1665 9.83317 8.5396 9.83317 8.99984V11.4998C10.2934 11.4998 10.6665 11.8729 10.6665 12.3332C10.6665 12.7934 10.2934 13.1665 9.83317 13.1665H8.99984C8.5396 13.1665 8.1665 12.7934 8.1665 12.3332V9.83317C7.70627 9.83317 7.33317 9.46008 7.33317 8.99984Z" fill="#F76808"/>
</svg>
