<?xml version="1.0" encoding="iso-8859-1"?>
<!-- Generator: Adobe Illustrator 18.0.0, SVG Export Plug-In . SVG Version: 6.00 Build 0)  -->
<!DOCTYPE svg PUBLIC "-//W3C//DTD SVG 1.1//EN" "http://www.w3.org/Graphics/SVG/1.1/DTD/svg11.dtd">
<svg version="1.1" id="Capa_1" xmlns="http://www.w3.org/2000/svg" xmlns:xlink="http://www.w3.org/1999/xlink" x="0px" y="0px"
	 viewBox="0 0 283.535 283.535" style="enable-background:new 0 0 283.535 283.535;" xml:space="preserve">
<g>
	<path d="M40.687,101.082C18.252,101.082,0,119.333,0,141.768s18.252,40.686,40.687,40.686s40.686-18.251,40.686-40.686
		S63.121,101.082,40.687,101.082z M40.687,164.453c-12.51,0-22.687-10.177-22.687-22.686s10.177-22.686,22.687-22.686
		c12.509,0,22.686,10.177,22.686,22.686S53.195,164.453,40.687,164.453z"/>
	<path d="M141.768,101.082c-22.435,0-40.686,18.251-40.686,40.686s18.251,40.686,40.686,40.686s40.686-18.251,40.686-40.686
		S164.202,101.082,141.768,101.082z M141.768,164.453c-12.509,0-22.686-10.177-22.686-22.686s10.177-22.686,22.686-22.686
		s22.686,10.177,22.686,22.686S154.276,164.453,141.768,164.453z"/>
	<path d="M242.849,101.082c-22.435,0-40.686,18.251-40.686,40.686s18.251,40.686,40.686,40.686s40.687-18.251,40.687-40.686
		S265.283,101.082,242.849,101.082z M242.849,164.453c-12.509,0-22.686-10.177-22.686-22.686s10.177-22.686,22.686-22.686
		c12.51,0,22.687,10.177,22.687,22.686S255.358,164.453,242.849,164.453z"/>
</g>
<g>
</g>
<g>
</g>
<g>
</g>
<g>
</g>
<g>
</g>
<g>
</g>
<g>
</g>
<g>
</g>
<g>
</g>
<g>
</g>
<g>
</g>
<g>
</g>
<g>
</g>
<g>
</g>
<g>
</g>
</svg>
