<?xml version="1.0" encoding="UTF-8"?>
<svg width="28px" height="28px" viewBox="0 0 28 28" version="1.1" xmlns="http://www.w3.org/2000/svg" xmlns:xlink="http://www.w3.org/1999/xlink">
    <title>ic_fluent_office_apps_28_regular</title>
    <desc>Created with Sketch.</desc>
    <g id="ðŸ”-Product-Icons" stroke="none" stroke-width="1" fill="none" fill-rule="evenodd">
        <g id="ic_fluent_office_apps_28_regular" fill="#212121" fill-rule="nonzero">
            <path d="M14,21 C15.1045695,21 16,21.8954305 16,23 C16,24.1045695 15.1045695,25 14,25 C12.8954305,25 12,24.1045695 12,23 C12,21.8954305 12.8954305,21 14,21 Z M23,21 C24.1045695,21 25,21.8954305 25,23 C25,24.1045695 24.1045695,25 23,25 C21.8954305,25 21,24.1045695 21,23 C21,21.8954305 21.8954305,21 23,21 Z M5,21 C6.1045695,21 7,21.8954305 7,23 C7,24.1045695 6.1045695,25 5,25 C3.8954305,25 3,24.1045695 3,23 C3,21.8954305 3.8954305,21 5,21 Z M14,12 C15.1045695,12 16,12.8954305 16,14 C16,15.1045695 15.1045695,16 14,16 C12.8954305,16 12,15.1045695 12,14 C12,12.8954305 12.8954305,12 14,12 Z M23,12 C24.1045695,12 25,12.8954305 25,14 C25,15.1045695 24.1045695,16 23,16 C21.8954305,16 21,15.1045695 21,14 C21,12.8954305 21.8954305,12 23,12 Z M5,12 C6.1045695,12 7,12.8954305 7,14 C7,15.1045695 6.1045695,16 5,16 C3.8954305,16 3,15.1045695 3,14 C3,12.8954305 3.8954305,12 5,12 Z M14,3 C15.1045695,3 16,3.8954305 16,5 C16,6.1045695 15.1045695,7 14,7 C12.8954305,7 12,6.1045695 12,5 C12,3.8954305 12.8954305,3 14,3 Z M23,3 C24.1045695,3 25,3.8954305 25,5 C25,6.1045695 24.1045695,7 23,7 C21.8954305,7 21,6.1045695 21,5 C21,3.8954305 21.8954305,3 23,3 Z M5,3 C6.1045695,3 7,3.8954305 7,5 C7,6.1045695 6.1045695,7 5,7 C3.8954305,7 3,6.1045695 3,5 C3,3.8954305 3.8954305,3 5,3 Z" id="ðŸŽ¨-Color"></path>
        </g>
    </g>
</svg>