<svg width="28" height="28" viewBox="0 0 28 28" fill="none" xmlns="http://www.w3.org/2000/svg">
    <rect width="28" height="28" rx="4" fill="#3A3F42" />
    <path
    fill-rule="evenodd"
    clip-rule="evenodd"
    d="M11.5 10.5C11.2239 10.5 11 10.7239 11 11C11 11.2761 11.2239 11.5 11.5 11.5C11.7761 11.5 12 11.2761 12 11C12 10.7239 11.7761 10.5 11.5 10.5ZM10 11C10 10.1716 10.6716 9.5 11.5 9.5C12.3284 9.5 13 10.1716 13 11C13 11.6531 12.5826 12.2087 12 12.4146V15.5854C12.4262 15.736 12.764 16.0738 12.9146 16.5H15.5C15.6326 16.5 15.7598 16.4473 15.8536 16.3536C15.9473 16.2598 16 16.1326 16 16V14.7071L15.3536 15.3536C15.1583 15.5488 14.8417 15.5488 14.6464 15.3536C14.4512 15.1583 14.4512 14.8417 14.6464 14.6464L16.1464 13.1464C16.3417 12.9512 16.6583 12.9512 16.8536 13.1464L18.3536 14.6464C18.5488 14.8417 18.5488 15.1583 18.3536 15.3536C18.1583 15.5488 17.8417 15.5488 17.6464 15.3536L17 14.7071V16C17 16.3978 16.842 16.7794 16.5607 17.0607C16.2794 17.342 15.8978 17.5 15.5 17.5H12.9146C12.7087 18.0826 12.1531 18.5 11.5 18.5C10.6716 18.5 10 17.8284 10 17C10 16.3469 10.4174 15.7913 11 15.5854V12.4146C10.4174 12.2087 10 11.6531 10 11ZM16.5 10.5C16.2239 10.5 16 10.7239 16 11C16 11.2761 16.2239 11.5 16.5 11.5C16.7761 11.5 17 11.2761 17 11C17 10.7239 16.7761 10.5 16.5 10.5ZM15 11C15 10.1716 15.6716 9.5 16.5 9.5C17.3284 9.5 18 10.1716 18 11C18 11.8284 17.3284 12.5 16.5 12.5C15.6716 12.5 15 11.8284 15 11ZM11.5 16.5C11.2239 16.5 11 16.7239 11 17C11 17.2761 11.2239 17.5 11.5 17.5C11.7761 17.5 12 17.2761 12 17C12 16.7239 11.7761 16.5 11.5 16.5Z"
    fill="#ECEDEE"
    />
</svg>