<svg xmlns="http://www.w3.org/2000/svg" width="24" height="24" viewBox="0 0 24 24" fill="none">
<path fill-rule="evenodd" clip-rule="evenodd" d="M12.2504 6.41438C12.5738 6.67313 12.6263 7.1451 12.3675 7.46855L8.74233 12L12.3675 16.5315C12.6263 16.855 12.5738 17.3269 12.2504 17.5857C11.9269 17.8444 11.455 17.792 11.1962 17.4685L7.19621 12.4685C6.97708 12.1946 6.97708 11.8054 7.19621 11.5315L11.1962 6.53151C11.455 6.20806 11.9269 6.15562 12.2504 6.41438Z" fill="#11181C"/>
<path fill-rule="evenodd" clip-rule="evenodd" d="M16.6866 6.41438C17.01 6.67313 17.0625 7.1451 16.8037 7.46855L13.1785 12L16.8037 16.5315C17.0625 16.855 17.01 17.3269 16.6866 17.5857C16.3631 17.8444 15.8912 17.792 15.6324 17.4685L11.6324 12.4685C11.4133 12.1946 11.4133 11.8054 11.6324 11.5315L15.6324 6.53151C15.8912 6.20806 16.3631 6.15562 16.6866 6.41438Z" fill="#11181C"/>
</svg>