<svg width="14" height="14" viewBox="0 0 14 14" fill="none" xmlns="http://www.w3.org/2000/svg">
<path fill-rule="evenodd" clip-rule="evenodd" d="M4.08333 3.50033C4.08333 3.17816 4.3445 2.91699 4.66667 2.91699H11.6667C11.9888 2.91699 12.25 3.17816 12.25 3.50033C12.25 3.82249 11.9888 4.08366 11.6667 4.08366H4.66667C4.3445 4.08366 4.08333 3.82249 4.08333 3.50033ZM2.91667 7.00033C2.91667 6.67816 3.17783 6.41699 3.5 6.41699H10.5C10.8222 6.41699 11.0833 6.67816 11.0833 7.00033C11.0833 7.32249 10.8222 7.58366 10.5 7.58366H3.5C3.17783 7.58366 2.91667 7.32249 2.91667 7.00033ZM1.75 10.5003C1.75 10.1782 2.01117 9.91699 2.33333 9.91699H9.33333C9.6555 9.91699 9.91667 10.1782 9.91667 10.5003C9.91667 10.8225 9.6555 11.0837 9.33333 11.0837H2.33333C2.01117 11.0837 1.75 10.8225 1.75 10.5003Z" fill="#889096"/>
</svg>
