
<svg width="14" height="16" viewBox="0 0 14 16" fill="none" xmlns="http://www.w3.org/2000/svg">
  <path
    d="M4.59571 12.7332C4.22904 12.7332 3.91515 12.6026 3.65404 12.3415C3.39293 12.0804 3.26238 11.7665 3.26238 11.3998V2.23317C3.26238 1.87761 3.39293 1.56928 3.65404 1.30817C3.91515 1.04706 4.22904 0.916504 4.59571 0.916504H11.7624C12.1179 0.916504 12.4263 1.04706 12.6874 1.30817C12.9485 1.56928 13.079 1.87761 13.079 2.23317V11.3998C13.079 11.7665 12.9485 12.0804 12.6874 12.3415C12.4263 12.6026 12.1179 12.7332 11.7624 12.7332H4.59571ZM4.59571 11.3998H11.7624V2.23317H4.59571V11.3998ZM2.26238 15.0498C1.90682 15.0498 1.59849 14.9193 1.33738 14.6582C1.07626 14.3971 0.945709 14.0887 0.945709 13.7332V4.4165C0.945709 4.23873 1.0096 4.08595 1.13738 3.95817C1.26515 3.83039 1.42349 3.7665 1.61238 3.7665C1.80126 3.7665 1.95682 3.83039 2.07904 3.95817C2.20126 4.08595 2.26238 4.23873 2.26238 4.4165V13.7332H9.42904C9.60682 13.7332 9.7596 13.7971 9.88738 13.9248C10.0152 14.0526 10.079 14.2109 10.079 14.3998C10.079 14.5887 10.0152 14.7443 9.88738 14.8665C9.7596 14.9887 9.60682 15.0498 9.42904 15.0498H2.26238ZM4.59571 2.23317V11.3998V2.23317Z"
    fill="#C1C8CD"
  />
</svg>