<svg width="40" height="41" viewBox="0 0 40 41" fill="none" xmlns="http://www.w3.org/2000/svg">
<path opacity="0.4" d="M28.1405 9.02475H23.2353C22.0134 9.03283 20.8532 8.48926 20.0789 7.54585L18.4636 5.31272C17.7022 4.36103 16.5421 3.81492 15.3219 3.83382H11.8543C5.63023 3.83382 3.33325 7.4867 3.33325 13.6981V20.4123C3.32553 21.1507 36.6593 21.1497 36.6615 20.4123V18.4601C36.6911 12.2488 34.4534 9.02475 28.1405 9.02475Z" fill="#3E63DD"/>
<path d="M28.1256 9.02476C30.3003 8.85658 32.4587 9.51124 34.1718 10.8586C34.3691 11.0259 34.5525 11.2089 34.7201 11.4058C35.2534 12.0293 35.6654 12.7464 35.9353 13.5206C36.4663 15.1118 36.7121 16.7838 36.6614 18.4601V27.2152C36.6593 27.9527 36.6048 28.689 36.4984 29.4188C36.2958 30.7067 35.8427 31.9425 35.1647 33.0569C34.8531 33.5951 34.4747 34.092 34.0385 34.5358C32.0638 36.3481 29.4415 37.2915 26.7623 37.1534H13.2176C10.5341 37.2905 7.90761 36.3475 5.9266 34.5358C5.49559 34.0911 5.1222 33.5943 4.81517 33.0569C4.14117 31.9433 3.69773 30.7063 3.51108 29.4188C3.3924 28.6902 3.33325 27.9533 3.33325 27.2152V18.4601C3.33325 17.7289 3.37254 16.9983 3.45181 16.2714C3.49626 15.9312 3.6 15.6059 3.6 15.2805C3.75043 14.4033 4.02485 13.5518 4.41505 12.7516C5.57094 10.2818 7.942 9.02476 11.8246 9.02476H28.1256ZM28.5258 23.6511H11.6171C10.856 23.6511 10.239 24.2668 10.239 25.0264C10.239 25.786 10.856 26.4018 11.6171 26.4018H28.422C28.7901 26.4178 29.1493 26.2861 29.4194 26.036C29.6894 25.7859 29.8479 25.4383 29.8595 25.0708C29.8803 24.7478 29.7739 24.4294 29.5631 24.1835C29.3205 23.853 28.9362 23.6557 28.5258 23.6511Z" fill="#3E63DD"/>
</svg>