<?xml version="1.0" encoding="iso-8859-1"?>
<!-- Generator: Adobe Illustrator 19.0.0, SVG Export Plug-In . SVG Version: 6.00 Build 0)  -->
<svg version="1.1" id="Layer_1" xmlns="http://www.w3.org/2000/svg" xmlns:xlink="http://www.w3.org/1999/xlink" x="0px" y="0px"
	 viewBox="0 0 456.54 456.54" style="enable-background:new 0 0 456.54 456.54;" xml:space="preserve">
<g>
	<rect x="215.27" y="379.3" style="fill:#FFDE55;" width="26" height="77.24"/>
	<rect x="215.27" style="fill:#FFDE55;" width="26" height="77.24"/>
	
		<rect x="81.169" y="323.75" transform="matrix(-0.7071 -0.7071 0.7071 -0.7071 -95.4776 685.1913)" style="fill:#FCEBA2;" width="26" height="77.239"/>
	
		<rect x="349.372" y="55.544" transform="matrix(-0.7071 -0.7071 0.7071 -0.7071 552.0227 416.9835)" style="fill:#FCEBA2;" width="26" height="77.239"/>
	<rect y="215.27" style="fill:#FFDE55;" width="77.24" height="26"/>
	<rect x="379.3" y="215.27" style="fill:#FFDE55;" width="77.24" height="26"/>
	
		<rect x="81.169" y="55.548" transform="matrix(0.7071 -0.7071 0.7071 0.7071 -39.005 94.1686)" style="fill:#FCEBA2;" width="26" height="77.239"/>
	
		<rect x="349.378" y="323.753" transform="matrix(0.7071 -0.7071 0.7071 0.7071 -150.0985 362.3763)" style="fill:#FCEBA2;" width="26" height="77.239"/>
	<circle style="fill:#FCEBA2;" cx="228.267" cy="228.271" r="124.003"/>
	<circle style="fill:#FFDE55;" cx="228.267" cy="228.271" r="95.142"/>
</g>
<g>
</g>
<g>
</g>
<g>
</g>
<g>
</g>
<g>
</g>
<g>
</g>
<g>
</g>
<g>
</g>
<g>
</g>
<g>
</g>
<g>
</g>
<g>
</g>
<g>
</g>
<g>
</g>
<g>
</g>
</svg>
