<svg width="12" height="14" viewBox="0 0 12 14" fill="none" xmlns="http://www.w3.org/2000/svg">
<path fill-rule="evenodd" clip-rule="evenodd" d="M3.72386 0.72402C3.97391 0.473972 4.31304 0.333496 4.66667 0.333496H7.33333C7.68696 0.333496 8.02609 0.473972 8.27614 0.72402C8.52619 0.974069 8.66667 1.31321 8.66667 1.66683V3.00016H10.6589C10.6636 3.00011 10.6683 3.00011 10.673 3.00016H11.3333C11.7015 3.00016 12 3.29864 12 3.66683C12 4.03502 11.7015 4.3335 11.3333 4.3335H11.2801L10.6664 11.6974C10.6585 12.2167 10.4488 12.7132 10.0809 13.081C9.70581 13.4561 9.1971 13.6668 8.66667 13.6668H3.33333C2.8029 13.6668 2.29419 13.4561 1.91912 13.081C1.55125 12.7132 1.34148 12.2167 1.33357 11.6974L0.719911 4.3335H0.666667C0.298477 4.3335 0 4.03502 0 3.66683C0 3.29864 0.298477 3.00016 0.666667 3.00016H1.32702C1.33174 3.00011 1.33644 3.00011 1.34113 3.00016H3.33333V1.66683C3.33333 1.31321 3.47381 0.974069 3.72386 0.72402ZM2.05787 4.3335L2.66436 11.6115C2.6659 11.6299 2.66667 11.6484 2.66667 11.6668C2.66667 11.8436 2.7369 12.0132 2.86193 12.1382C2.98695 12.2633 3.15652 12.3335 3.33333 12.3335H8.66667C8.84348 12.3335 9.01305 12.2633 9.13807 12.1382C9.2631 12.0132 9.33333 11.8436 9.33333 11.6668C9.33333 11.6484 9.3341 11.6299 9.33564 11.6115L9.94213 4.3335H2.05787ZM7.33333 3.00016H4.66667V1.66683H7.33333V3.00016ZM4.19526 7.47157C3.93491 7.21122 3.93491 6.78911 4.19526 6.52876C4.45561 6.26841 4.87772 6.26841 5.13807 6.52876L6 7.39069L6.86193 6.52876C7.12228 6.26841 7.54439 6.26841 7.80474 6.52876C8.06509 6.78911 8.06509 7.21122 7.80474 7.47157L6.94281 8.3335L7.80474 9.19543C8.06509 9.45577 8.06509 9.87788 7.80474 10.1382C7.54439 10.3986 7.12228 10.3986 6.86193 10.1382L6 9.27631L5.13807 10.1382C4.87772 10.3986 4.45561 10.3986 4.19526 10.1382C3.93491 9.87788 3.93491 9.45577 4.19526 9.19543L5.05719 8.3335L4.19526 7.47157Z" fill="#C1C8CD"/>
</svg>
