<?xml version="1.0" encoding="iso-8859-1"?>
<!-- Generator: Adobe Illustrator 19.1.0, SVG Export Plug-In . SVG Version: 6.00 Build 0)  -->
<svg version="1.1" id="Capa_1" xmlns="http://www.w3.org/2000/svg" xmlns:xlink="http://www.w3.org/1999/xlink" x="0px" y="0px"
	 viewBox="0 0 485 485" style="enable-background:new 0 0 485 485;" xml:space="preserve">
<g>
	<g>
		<path d="M426.5,458h-368C51,458,45,464,45,471.5S51,485,58.5,485h368c7.5,0,13.5-6,13.5-13.5S434,458,426.5,458z"/>
		<path d="M233,378.7c2.5,2.5,6,4,9.5,4s7-1.4,9.5-4l107.5-107.5c5.3-5.3,5.3-13.8,0-19.1c-5.3-5.3-13.8-5.3-19.1,0L256,336.5v-323
			C256,6,250,0,242.5,0S229,6,229,13.5v323l-84.4-84.4c-5.3-5.3-13.8-5.3-19.1,0s-5.3,13.8,0,19.1L233,378.7z"/>
	</g>
</g>
<g>
</g>
<g>
</g>
<g>
</g>
<g>
</g>
<g>
</g>
<g>
</g>
<g>
</g>
<g>
</g>
<g>
</g>
<g>
</g>
<g>
</g>
<g>
</g>
<g>
</g>
<g>
</g>
<g>
</g>
</svg>
