<svg width="12" height="12" viewBox="0 0 12 12" fill="none" xmlns="http://www.w3.org/2000/svg">
<path fill-rule="evenodd" clip-rule="evenodd" d="M0.585786 0.585786C0.960859 0.210714 1.46957 0 2 0H7.33333C7.86377 0 8.37247 0.210714 8.74755 0.585786C9.12262 0.960859 9.33333 1.46957 9.33333 2V2.66667H10C11.1046 2.66667 12 3.5621 12 4.66667V10C12 11.1046 11.1046 12 10 12H4.66667C3.5621 12 2.66667 11.1046 2.66667 10V9.33333H2C1.46957 9.33333 0.960859 9.12262 0.585786 8.74755C0.210714 8.37247 0 7.86377 0 7.33333V2C0 1.46957 0.210714 0.960859 0.585786 0.585786ZM4 10C4 10.3682 4.29848 10.6667 4.66667 10.6667H10C10.3682 10.6667 10.6667 10.3682 10.6667 10V4.66667C10.6667 4.29848 10.3682 4 10 4H4.66667C4.29848 4 4 4.29848 4 4.66667V10ZM8 2.66667H4.66667C3.5621 2.66667 2.66667 3.5621 2.66667 4.66667V8H2C1.82319 8 1.65362 7.92976 1.5286 7.80474C1.40357 7.67971 1.33333 7.51014 1.33333 7.33333V2C1.33333 1.82319 1.40357 1.65362 1.5286 1.5286C1.65362 1.40357 1.82319 1.33333 2 1.33333H7.33333C7.51014 1.33333 7.67971 1.40357 7.80474 1.5286C7.92976 1.65362 8 1.82319 8 2V2.66667Z" fill="#C1C8CD"/>
</svg>
