<svg width="80" height="56" viewBox="0 0 80 56" fill="none" xmlns="http://www.w3.org/2000/svg">
<path opacity="0.15" d="M80 0.589844H0V55.4104H80V0.589844Z" fill="#6A727C"/>
<path d="M80 0.589844H0V8.24173H80V0.589844Z" fill="#6A727C"/>
<path d="M4.35492 5.93528C5.19384 5.93528 5.87391 5.25502 5.87391 4.41588C5.87391 3.57674 5.19384 2.89648 4.35492 2.89648C3.51601 2.89648 2.83594 3.57674 2.83594 4.41588C2.83594 5.25502 3.51601 5.93528 4.35492 5.93528Z" fill="white"/>
<path d="M9.3144 5.93528C10.1533 5.93528 10.8334 5.25502 10.8334 4.41588C10.8334 3.57674 10.1533 2.89648 9.3144 2.89648C8.47548 2.89648 7.79541 3.57674 7.79541 4.41588C7.79541 5.25502 8.47548 5.93528 9.3144 5.93528Z" fill="white"/>
<path d="M14.2729 5.93528C15.1118 5.93528 15.7919 5.25502 15.7919 4.41588C15.7919 3.57674 15.1118 2.89648 14.2729 2.89648C13.434 2.89648 12.7539 3.57674 12.7539 4.41588C12.7539 5.25502 13.434 5.93528 14.2729 5.93528Z" fill="white"/>
<path opacity="0.15" d="M17.9315 13.0801H6.89697V49.5456H17.9315V13.0801Z" fill="#6A727C"/>
<path d="M73.1031 13.0801H17.9307V49.5456H73.1031V13.0801Z" fill="white"/>
</svg>
