<?xml version="1.0" encoding="iso-8859-1"?>
<!-- Generator: Adobe Illustrator 16.0.0, SVG Export Plug-In . SVG Version: 6.00 Build 0)  -->
<!DOCTYPE svg PUBLIC "-//W3C//DTD SVG 1.1//EN" "http://www.w3.org/Graphics/SVG/1.1/DTD/svg11.dtd">
<svg version="1.1" id="Capa_1" xmlns="http://www.w3.org/2000/svg" xmlns:xlink="http://www.w3.org/1999/xlink" x="0px" y="0px"
	 width="483.252px" height="483.252px" viewBox="0 0 483.252 483.252" style="enable-background:new 0 0 483.252 483.252;"
	 xml:space="preserve">
<g>
	<path d="M481.354,263.904v166.979c0,28.88-23.507,52.369-52.387,52.369H53.646c-28.889,0-52.393-23.489-52.393-52.369V55.969
		c0-28.877,23.504-52.372,52.393-52.372h167.428c-9.014,9.247-15.004,21.45-16.319,35.007H53.64c-9.582,0-17.377,7.79-17.377,17.365
		v374.914c0,9.575,7.796,17.366,17.377,17.366h375.322c9.581,0,17.378-7.791,17.378-17.366V280.199
		C459.515,278.935,471.744,273.267,481.354,263.904z M277.895,52.52h114.456L207.086,237.79c-10.255,10.249-10.255,26.882,0,37.132
		c10.252,10.255,26.879,10.255,37.131,0.006L429.482,89.657v114.462c0,14.502,11.756,26.256,26.261,26.256
		c7.247,0,13.813-2.929,18.566-7.687c4.752-4.764,7.689-11.319,7.689-18.569V26.256C481.999,11.754,470.249,0,455.743,0H277.895
		c-14.499,0-26.256,11.754-26.256,26.262C251.633,40.764,263.396,52.52,277.895,52.52z"/>
</g>
<g>
</g>
<g>
</g>
<g>
</g>
<g>
</g>
<g>
</g>
<g>
</g>
<g>
</g>
<g>
</g>
<g>
</g>
<g>
</g>
<g>
</g>
<g>
</g>
<g>
</g>
<g>
</g>
<g>
</g>
</svg>
