<svg width="16" height="12" viewBox="0 0 16 12" fill="none" xmlns="http://www.w3.org/2000/svg">
<path fill-rule="evenodd" clip-rule="evenodd" d="M2.10641 5.99984C3.7717 8.75352 5.74169 9.99984 7.99984 9.99984C10.258 9.99984 12.228 8.75352 13.8933 5.99984C12.228 3.24616 10.258 1.99984 7.99984 1.99984C5.74169 1.99984 3.7717 3.24616 2.10641 5.99984ZM0.754349 5.66906C2.60464 2.43123 5.01316 0.666504 7.99984 0.666504C10.9865 0.666504 13.395 2.43123 15.2453 5.66906C15.3625 5.87403 15.3625 6.12565 15.2453 6.33061C13.395 9.56844 10.9865 11.3332 7.99984 11.3332C5.01316 11.3332 2.60464 9.56844 0.754349 6.33061C0.637222 6.12565 0.637222 5.87403 0.754349 5.66906ZM7.99984 5.33317C7.63165 5.33317 7.33317 5.63165 7.33317 5.99984C7.33317 6.36803 7.63165 6.6665 7.99984 6.6665C8.36803 6.6665 8.6665 6.36803 8.6665 5.99984C8.6665 5.63165 8.36803 5.33317 7.99984 5.33317ZM5.99984 5.99984C5.99984 4.89527 6.89527 3.99984 7.99984 3.99984C9.10441 3.99984 9.99984 4.89527 9.99984 5.99984C9.99984 7.10441 9.10441 7.99984 7.99984 7.99984C6.89527 7.99984 5.99984 7.10441 5.99984 5.99984Z" fill="#C1C8CD"/>
</svg>
