<?xml version="1.0" encoding="UTF-8"?>
<svg xmlns="http://www.w3.org/2000/svg"  viewBox="0 0 50 50" width="50px" fill="none" height="50px">
<g id="surface33286614">
<path style="fill-rule:nonzero;fill:rgb(100%,100%,100%);fill-opacity:1;stroke-width:7;stroke-linecap:butt;stroke-linejoin:round;stroke:rgb(0%,0%,0%);stroke-opacity:1;stroke-miterlimit:10;" d="M 48.16246 13.764698 C 50.986991 13.764698 52.972553 15.484586 54.398802 17.092611 C 55.82505 18.700637 56.971643 20.532388 58.04832 22.252276 C 59.124998 23.972164 60.103796 25.580189 60.956749 26.558987 C 61.502079 27.188215 61.809702 27.439906 61.921564 27.523803 C 62.005461 27.523803 62.04741 27.537785 62.033427 27.523803 L 151.355745 27.523803 C 157.018791 27.523803 161.675074 32.180085 161.675074 37.843131 L 161.675074 48.16246 C 167.33812 48.16246 171.994402 52.818742 171.994402 58.481788 L 171.994402 58.803393 L 171.896522 59.124998 L 154.795521 151.355745 C 154.795521 151.397694 154.795521 151.425659 154.795521 151.467608 L 154.697642 151.998955 C 154.697642 152.068869 154.697642 152.152766 154.697642 152.222681 C 154.683659 152.432423 154.613745 152.656148 154.585779 152.865891 C 153.830706 157.815813 149.607891 161.675074 144.476193 161.675074 L 10.324922 161.675074 C 5.375 161.675074 1.180151 158.095469 0.215335 153.397238 C -0.134235 152.670131 -0.218132 151.831161 0.00559304 151.03414 L 0.00559304 24.084026 C 0.00559304 18.42098 4.661875 13.764698 10.324922 13.764698 Z M 6.885145 24.084026 L 6.885145 114.161417 L 17.204474 58.481788 L 17.302354 57.838578 L 17.414216 57.838578 C 17.791753 52.51112 22.098464 48.16246 27.523803 48.16246 L 154.795521 48.16246 L 154.795521 37.843131 C 154.795521 35.899518 153.299359 34.403355 151.355745 34.403355 L 61.921564 34.403355 C 59.097033 34.403355 57.195368 32.683467 55.797085 31.061459 C 54.398802 29.453433 53.210261 27.621682 52.133583 25.901794 C 51.056905 24.181906 50.078107 22.573881 49.239138 21.609065 C 48.386185 20.64425 47.938734 20.64425 48.16246 20.64425 L 10.324922 20.64425 C 8.381308 20.64425 6.885145 22.140413 6.885145 24.084026 Z M 24.084026 58.481788 L 24.084026 58.803393 L 23.972164 59.124998 L 6.885145 151.355745 C 6.885145 153.299359 8.381308 154.795521 10.324922 154.795521 L 144.476193 154.795521 C 146.056253 154.795521 147.384621 153.830706 147.818089 152.432423 C 147.804106 152.292595 147.804106 152.152766 147.818089 151.998955 C 147.832072 151.901076 147.804106 151.789213 147.818089 151.67735 C 147.846055 151.495573 147.860038 151.313797 147.915969 151.146003 C 147.915969 151.104054 147.915969 151.076089 147.915969 151.03414 C 147.915969 150.964226 147.915969 150.894312 147.915969 150.824398 C 147.943935 150.670586 147.985883 150.530758 148.027832 150.39093 C 148.055797 150.251102 148.097746 150.09729 148.139694 149.957462 L 148.237574 149.74772 L 165.11485 58.481788 C 165.11485 56.538175 163.618687 55.042012 161.675074 55.042012 L 27.523803 55.042012 C 25.580189 55.042012 24.084026 56.538175 24.084026 58.481788 Z M 24.084026 58.481788 " transform="matrix(0.27936,0,0,0.27936,0.975,0.975)"/>
<path style=" stroke:none;fill-rule:nonzero;fill:rgb(100%,100%,100%);fill-opacity:1;" d="M 3.859375 4.820312 C 2.277344 4.820312 0.976562 6.121094 0.976562 7.703125 L 0.976562 43.167969 C 0.914062 43.390625 0.9375 43.625 1.035156 43.828125 C 1.304688 45.140625 2.476562 46.140625 3.859375 46.140625 L 41.335938 46.140625 C 42.769531 46.140625 43.949219 45.0625 44.160156 43.679688 C 44.167969 43.621094 44.1875 43.558594 44.191406 43.5 C 44.191406 43.480469 44.191406 43.457031 44.191406 43.4375 L 44.21875 43.289062 C 44.21875 43.277344 44.21875 43.269531 44.21875 43.257812 L 48.996094 17.492188 L 49.023438 17.402344 L 49.023438 17.3125 C 49.023438 15.730469 47.722656 14.429688 46.140625 14.429688 L 46.140625 11.546875 C 46.140625 9.964844 44.839844 8.664062 43.257812 8.664062 L 18.304688 8.664062 C 18.308594 8.667969 18.296875 8.664062 18.273438 8.664062 C 18.242188 8.640625 18.15625 8.570312 18.003906 8.394531 C 17.765625 8.121094 17.492188 7.671875 17.191406 7.191406 C 16.890625 6.710938 16.570312 6.199219 16.171875 5.75 C 15.773438 5.300781 15.21875 4.820312 14.429688 4.820312 Z M 3.859375 6.742188 L 14.429688 6.742188 C 14.367188 6.742188 14.492188 6.742188 14.730469 7.011719 C 14.964844 7.28125 15.238281 7.730469 15.539062 8.210938 C 15.839844 8.691406 16.171875 9.203125 16.5625 9.652344 C 16.953125 10.105469 17.484375 10.585938 18.273438 10.585938 L 43.257812 10.585938 C 43.800781 10.585938 44.21875 11.003906 44.21875 11.546875 L 44.21875 14.429688 L 8.664062 14.429688 C 7.148438 14.429688 5.945312 15.644531 5.839844 17.132812 L 5.808594 17.132812 L 5.78125 17.3125 L 2.898438 32.867188 L 2.898438 7.703125 C 2.898438 7.160156 3.316406 6.742188 3.859375 6.742188 Z M 8.664062 16.351562 L 46.140625 16.351562 C 46.683594 16.351562 47.101562 16.769531 47.101562 17.3125 L 42.386719 42.808594 L 42.359375 42.867188 C 42.347656 42.90625 42.335938 42.949219 42.328125 42.988281 C 42.316406 43.027344 42.304688 43.066406 42.296875 43.109375 C 42.296875 43.128906 42.296875 43.148438 42.296875 43.167969 C 42.296875 43.179688 42.296875 43.1875 42.296875 43.199219 C 42.28125 43.246094 42.277344 43.296875 42.269531 43.347656 C 42.265625 43.378906 42.273438 43.410156 42.269531 43.4375 C 42.265625 43.480469 42.265625 43.519531 42.269531 43.558594 C 42.148438 43.949219 41.777344 44.21875 41.335938 44.21875 L 3.859375 44.21875 C 3.316406 44.21875 2.898438 43.800781 2.898438 43.257812 L 7.671875 17.492188 L 7.703125 17.402344 L 7.703125 17.3125 C 7.703125 16.769531 8.121094 16.351562 8.664062 16.351562 Z M 8.664062 16.351562 "/>
</g>
</svg>
