<svg width="14" height="14" viewBox="0 0 14 14" fill="none" xmlns="http://www.w3.org/2000/svg">
  <path d="M13.5 4.9375H11.8125V3.1625C11.8125 2.88594 11.5891 2.6625 11.3125 2.6625H6.39062L4.55781 0.909375C4.53449 0.887543 4.50382 0.875274 4.47188 0.875H0.5C0.223437 0.875 0 1.09844 0 1.375V10.625C0 10.9016 0.223437 11.125 0.5 11.125H11.4062C11.6094 11.125 11.7937 11.0016 11.8703 10.8125L13.9641 5.625C13.9875 5.56563 14 5.50156 14 5.4375C14 5.16094 13.7766 4.9375 13.5 4.9375ZM10.6875 4.9375H2.71875C2.51562 4.9375 2.33125 5.06094 2.25469 5.25L1.125 8.05V2H4.07031L5.93906 3.7875H10.6875V4.9375Z" fill="#101115"/>
</svg>
