<svg width="14" height="14" viewBox="0 0 14 14" fill="none" xmlns="http://www.w3.org/2000/svg">
<path fill-rule="evenodd" clip-rule="evenodd" d="M6.52878 0.528758C6.78913 0.268409 7.21124 0.268409 7.47159 0.528758L13.4716 6.52876C13.6623 6.71942 13.7193 7.00617 13.6161 7.25529C13.5129 7.5044 13.2698 7.66683 13.0002 7.66683H12.3335V11.6668C12.3335 12.1973 12.1228 12.706 11.7477 13.081C11.3727 13.4561 10.8639 13.6668 10.3335 13.6668H3.66685C3.13642 13.6668 2.62771 13.4561 2.25264 13.081C1.87756 12.706 1.66685 12.1973 1.66685 11.6668V7.66683H1.00018C0.730541 7.66683 0.48745 7.5044 0.384263 7.25529C0.281075 7.00617 0.338112 6.71942 0.528778 6.52876L6.52878 0.528758ZM2.56746 6.3757C2.82025 6.47044 3.00018 6.71429 3.00018 7.00016V11.6668C3.00018 11.8436 3.07042 12.0132 3.19544 12.1382C3.32047 12.2633 3.49004 12.3335 3.66685 12.3335H10.3335C10.5103 12.3335 10.6799 12.2633 10.8049 12.1382C10.9299 12.0132 11.0002 11.8436 11.0002 11.6668V7.00016C11.0002 6.71429 11.1801 6.47044 11.4329 6.3757L7.00018 1.94297L2.56746 6.3757ZM5.00018 7.00016C5.00018 6.63197 5.29866 6.3335 5.66685 6.3335H8.33352C8.70171 6.3335 9.00018 6.63197 9.00018 7.00016V9.66683C9.00018 10.035 8.70171 10.3335 8.33352 10.3335H5.66685C5.29866 10.3335 5.00018 10.035 5.00018 9.66683V7.00016ZM6.33352 7.66683V9.00016H7.66685V7.66683H6.33352Z" fill="#C1C8CD"/>
</svg>
