<svg width="21" height="21" viewBox="0 0 21 21" fill="none" xmlns="http://www.w3.org/2000/svg">
<path fill-rule="evenodd" clip-rule="evenodd" d="M6.38086 4.736C5.92062 4.736 5.54753 5.1091 5.54753 5.56934C5.54753 6.02957 5.92062 6.40267 6.38086 6.40267C6.8411 6.40267 7.21419 6.02957 7.21419 5.56934C7.21419 5.1091 6.8411 4.736 6.38086 4.736ZM3.88086 5.56934C3.88086 4.18862 5.00015 3.06934 6.38086 3.06934C7.76157 3.06934 8.88086 4.18862 8.88086 5.56934C8.88086 6.65785 8.18519 7.58388 7.21419 7.92708V13.2116C7.92454 13.4627 8.48753 14.0257 8.7386 14.736H13.0475C13.2685 14.736 13.4805 14.6482 13.6368 14.4919C13.7931 14.3356 13.8809 14.1237 13.8809 13.9027V11.7478L12.8034 12.8253C12.478 13.1507 11.9504 13.1507 11.6249 12.8253C11.2995 12.4998 11.2995 11.9722 11.6249 11.6467L14.1249 9.14675C14.4504 8.82131 14.978 8.82131 15.3034 9.14675L17.8034 11.6467C18.1289 11.9722 18.1289 12.4998 17.8034 12.8253C17.478 13.1507 16.9504 13.1507 16.6249 12.8253L15.5475 11.7478V13.9027C15.5475 14.5657 15.2841 15.2016 14.8153 15.6704C14.3465 16.1393 13.7106 16.4027 13.0475 16.4027H8.7386C8.39541 17.3737 7.46938 18.0693 6.38086 18.0693C5.00015 18.0693 3.88086 16.95 3.88086 15.5693C3.88086 14.4808 4.57653 13.5548 5.54753 13.2116V7.92708C4.57653 7.58388 3.88086 6.65785 3.88086 5.56934ZM14.7142 4.736C14.254 4.736 13.8809 5.1091 13.8809 5.56934C13.8809 6.02957 14.254 6.40267 14.7142 6.40267C15.1744 6.40267 15.5475 6.02957 15.5475 5.56934C15.5475 5.1091 15.1744 4.736 14.7142 4.736ZM12.2142 5.56934C12.2142 4.18862 13.3335 3.06934 14.7142 3.06934C16.0949 3.06934 17.2142 4.18862 17.2142 5.56934C17.2142 6.95005 16.0949 8.06934 14.7142 8.06934C13.3335 8.06934 12.2142 6.95005 12.2142 5.56934ZM6.38086 14.736C5.92062 14.736 5.54753 15.1091 5.54753 15.5693C5.54753 16.0296 5.92062 16.4027 6.38086 16.4027C6.8411 16.4027 7.21419 16.0296 7.21419 15.5693C7.21419 15.1091 6.8411 14.736 6.38086 14.736Z" fill="#ACB2B9"/>
</svg>