<svg width="25" height="24" viewBox="0 0 25 24" fill="none" xmlns="http://www.w3.org/2000/svg">
<path fill-rule="evenodd" clip-rule="evenodd" d="M12.9998 2H11.9998C11.4475 2 10.9998 2.44772 10.9998 3V4.31375L13.9998 3.5099V3C13.9998 2.44772 13.552 2 12.9998 2ZM11.9998 22H12.9998C13.552 22 13.9998 21.5523 13.9998 21V20H10.9998L10.9998 21C10.9998 21.5523 11.4475 22 11.9998 22ZM10.9998 11.4901L13.9998 10.6863V13H10.9998V11.4901ZM10.9997 5.31381L6.0571 6.63817C5.52364 6.78111 5.20705 7.32945 5.35 7.86291L6.12645 10.7607C6.2694 11.2942 6.81773 11.6107 7.3512 11.4678L10.9997 10.4902L13.9997 9.68634L17.5121 8.74518C17.8056 8.66656 18.0473 8.45881 18.1693 8.18056L18.9401 6.42109C19.1278 5.99269 18.9935 5.49142 18.6168 5.21427L17.0694 4.07596C16.8247 3.89595 16.5115 3.83693 16.218 3.91555L13.9997 4.50996L10.9997 5.31381ZM10.9997 14.0001H6.49968C5.9474 14.0001 5.49968 14.4478 5.49968 15.0001V18.0001C5.49968 18.5523 5.9474 19.0001 6.49968 19.0001H10.9997H13.9997H17.0191C17.3228 19.0001 17.6102 18.862 17.7999 18.6248L18.9999 17.1248C19.2921 16.7595 19.2921 16.2406 18.9999 15.8754L17.7999 14.3754C17.6102 14.1381 17.3228 14.0001 17.0191 14.0001H13.9997H10.9997Z" fill="#121212"/>
</svg>