<svg xmlns="http://www.w3.org/2000/svg" width="17" height="18" viewBox="0 0 17 18" fill="none">
  <circle opacity="0.4" cx="8.5118" cy="9.25781" r="8.33333" fill="#BF4F03"/>
  <path d="M9.34513 5.09115C9.34513 5.55138 8.97204 5.92448 8.5118 5.92448C8.05156 5.92448 7.67847 5.55138 7.67847 5.09115C7.67847 4.63091 8.05156 4.25781 8.5118 4.25781C8.97204 4.25781 9.34513 4.63091 9.34513 5.09115Z" fill="#BF4F03"/>
  <path fill-rule="evenodd" clip-rule="evenodd" d="M7.05347 7.59115C7.05347 7.24597 7.33329 6.96615 7.67847 6.96615H8.5118C8.85698 6.96615 9.1368 7.24597 9.1368 7.59115V13.4245C9.1368 13.7697 8.85698 14.0495 8.5118 14.0495C8.16662 14.0495 7.8868 13.7697 7.8868 13.4245V8.21615H7.67847C7.33329 8.21615 7.05347 7.93633 7.05347 7.59115Z" fill="#BF4F03"/>
</svg>