<svg width="13" height="13" viewBox="0 0 13 13" fill="none" xmlns="http://www.w3.org/2000/svg">
<path fill-rule="evenodd" clip-rule="evenodd" d="M9.13911 0.938312C9.52665 0.551048 10.0521 0.333496 10.6 0.333496C11.1481 0.333496 11.6738 0.551241 12.0614 0.93883C12.449 1.32642 12.6667 1.8521 12.6667 2.40023C12.6667 2.94821 12.4491 3.47375 12.0617 3.86131C12.0616 3.86142 12.0618 3.8612 12.0617 3.86131L11.2191 4.70694C11.1957 4.74151 11.1687 4.77436 11.1381 4.80497C11.108 4.835 11.0759 4.86157 11.042 4.88467L6.47225 9.4708C6.34715 9.59634 6.17722 9.6669 6 9.6669H4C3.63181 9.6669 3.33333 9.36842 3.33333 9.00023V7.00023C3.33333 6.82301 3.4039 6.65308 3.52944 6.52799L8.11556 1.95821C8.13867 1.92438 8.16523 1.89219 8.19526 1.86216C8.22588 1.83155 8.25873 1.80453 8.29329 1.78112L9.1386 0.93883C9.13877 0.938657 9.13894 0.938485 9.13911 0.938312ZM8.67416 3.28387L4.66667 7.27707V8.33357H5.72316L9.71636 4.32608L8.67416 3.28387ZM10.6575 3.38158L9.61865 2.34274L10.0814 1.88164C10.2189 1.7441 10.4055 1.66683 10.6 1.66683C10.7945 1.66683 10.9811 1.7441 11.1186 1.88164C11.2561 2.01918 11.3334 2.20572 11.3334 2.40023C11.3334 2.59475 11.2561 2.78129 11.1186 2.91883L10.6575 3.38158ZM0.585786 3.58602C0.960859 3.21095 1.46957 3.00023 2 3.00023H2.66667C3.03486 3.00023 3.33333 3.29871 3.33333 3.6669C3.33333 4.03509 3.03486 4.33357 2.66667 4.33357H2C1.82319 4.33357 1.65362 4.40381 1.5286 4.52883C1.40357 4.65385 1.33333 4.82342 1.33333 5.00023V11.0002C1.33333 11.177 1.40357 11.3466 1.5286 11.4716C1.65362 11.5967 1.82319 11.6669 2 11.6669H8C8.17681 11.6669 8.34638 11.5967 8.4714 11.4716C8.59643 11.3466 8.66667 11.177 8.66667 11.0002V10.3336C8.66667 9.96538 8.96514 9.6669 9.33333 9.6669C9.70152 9.6669 10 9.96538 10 10.3336V11.0002C10 11.5307 9.78928 12.0394 9.41421 12.4144C9.03914 12.7895 8.53043 13.0002 8 13.0002H2C1.46957 13.0002 0.960859 12.7895 0.585786 12.4144C0.210714 12.0394 0 11.5307 0 11.0002V5.00023C0 4.4698 0.210714 3.96109 0.585786 3.58602Z" fill="#C1C8CD"/>
</svg>
