<?xml version="1.0" encoding="iso-8859-1"?>
<!-- Generator: Adobe Illustrator 19.0.0, SVG Export Plug-In . SVG Version: 6.00 Build 0)  -->
<svg version="1.1" id="Layer_1" xmlns="http://www.w3.org/2000/svg" xmlns:xlink="http://www.w3.org/1999/xlink" x="0px" y="0px"
	 viewBox="0 0 512 512" style="enable-background:new 0 0 512 512;" xml:space="preserve">
<g>
	<g>
		<polygon points="0,0 0,173.419 49.548,173.419 49.548,49.548 173.419,49.548 173.419,0 		"/>
	</g>
</g>
<g>
	<g>
		<polygon points="338.581,0 338.581,49.548 462.452,49.548 462.452,173.419 512,173.419 512,0 		"/>
	</g>
</g>
<g>
	<g>
		<polygon points="462.452,338.581 462.452,462.452 338.581,462.452 338.581,512 512,512 512,338.581 		"/>
	</g>
</g>
<g>
	<g>
		<polygon points="49.548,462.452 49.548,338.581 0,338.581 0,512 173.419,512 173.419,462.452 		"/>
	</g>
</g>
<g>
	<g>
		<polygon points="280.774,231.226 280.774,140.387 231.226,140.387 231.226,231.226 140.387,231.226 140.387,280.774 
			231.226,280.774 231.226,371.613 280.774,371.613 280.774,280.774 371.613,280.774 371.613,231.226 		"/>
	</g>
</g>
<g>
</g>
<g>
</g>
<g>
</g>
<g>
</g>
<g>
</g>
<g>
</g>
<g>
</g>
<g>
</g>
<g>
</g>
<g>
</g>
<g>
</g>
<g>
</g>
<g>
</g>
<g>
</g>
<g>
</g>
</svg>
