<svg width="375" height="63" viewBox="0 0 375 63" fill="none" xmlns="http://www.w3.org/2000/svg">
<g clip-path="url(#clip0_3299_26054)">
<path d="M98.9012 31.5L89.2992 45.234L87.8825 47.25L79.6971 58.9522V58.968L76.8637 63H38.424L41.2573 58.9522L49.4585 47.25H68.6626L70.0793 45.234L79.6971 31.5L70.0793 17.766L68.6626 15.75H52.2761L60.4772 4.04775V4.032L63.3106 0H76.8637L79.6971 4.032V4.04775L87.8825 15.75L89.2992 17.766L98.9012 31.5Z" fill="#4368E3"/>
<path d="M41.2574 31.5L31.6553 45.234L30.2386 47.25L19.2199 63H0L11.0188 47.25L22.0375 31.5L11.0188 15.75L0 0H19.2199L30.2386 15.75L31.6553 17.766L41.2574 31.5Z" fill="#4368E3"/>
<path d="M130.289 59.0783V11.655H115.02V3.9375H154.058V11.6707H138.789V59.0783H130.289Z" fill="white"/>
<path d="M172.475 60.023C168.587 60.023 165.14 59.2198 162.117 57.6133C159.095 56.0225 156.718 53.7073 154.987 50.7148C153.255 47.7223 152.389 44.1785 152.389 40.0835V38.9023C152.389 34.8073 153.255 31.2793 154.987 28.3183C156.734 25.3573 159.095 23.042 162.117 21.4198C165.14 19.7975 168.587 18.9785 172.475 18.9785C176.363 18.9785 179.826 19.7975 182.864 21.4198C185.902 23.042 188.295 25.3415 190.042 28.3183C191.789 31.295 192.639 34.8073 192.639 38.9023V40.0835C192.639 44.1785 191.774 47.7223 190.042 50.7148C188.295 53.7073 185.934 56.0068 182.864 57.6133C179.826 59.204 176.363 60.023 172.475 60.023ZM172.475 52.7623C176.033 52.7623 178.945 51.6283 181.18 49.3288C183.415 47.045 184.533 43.8793 184.533 39.8473V39.1385C184.533 35.1065 183.431 31.9408 181.227 29.657C179.008 27.3575 176.111 26.2235 172.491 26.2235C168.87 26.2235 166.1 27.3575 163.865 29.657C161.629 31.9408 160.512 35.1065 160.512 39.1385V39.8473C160.512 43.895 161.629 47.045 163.865 49.3288C166.1 51.6125 168.965 52.7623 172.491 52.7623H172.475Z" fill="white"/>
<path d="M219.446 60.023C215.558 60.023 212.111 59.2198 209.089 57.6133C206.067 56.0225 203.69 53.7073 201.958 50.7148C200.227 47.7223 199.361 44.1785 199.361 40.0835V38.9023C199.361 34.8073 200.227 31.2793 201.958 28.3183C203.705 25.3573 206.067 23.042 209.089 21.4198C212.111 19.7975 215.558 18.9785 219.446 18.9785C223.335 18.9785 226.798 19.7975 229.836 21.4198C232.874 23.042 235.266 25.3415 237.014 28.3183C238.761 31.295 239.611 34.8073 239.611 38.9023V40.0835C239.611 44.1785 238.745 47.7223 237.014 50.7148C235.266 53.7073 232.905 56.0068 229.836 57.6133C226.798 59.204 223.335 60.023 219.446 60.023ZM219.446 52.7623C223.004 52.7623 225.916 51.6283 228.151 49.3288C230.387 47.045 231.504 43.8793 231.504 39.8473V39.1385C231.504 35.1065 230.402 31.9408 228.199 29.657C225.979 27.3575 223.083 26.2235 219.462 26.2235C215.842 26.2235 213.071 27.3575 210.836 29.657C208.601 31.9408 207.483 35.1065 207.483 39.1385V39.8473C207.483 43.895 208.601 47.045 210.836 49.3288C213.071 51.6125 215.936 52.7623 219.462 52.7623H219.446Z" fill="white"/>
<path d="M247.167 59.2514V3.95312H255.289V59.2514H247.167Z" fill="white"/>
<path d="M281.624 60.1808C276.114 60.1808 271.738 58.653 268.464 55.5817C265.206 52.5105 263.584 48.1635 263.584 42.5565V37.8158H272.085V42.5565C272.085 45.5018 272.887 47.8485 274.493 49.5967C276.083 51.3607 278.413 52.227 281.451 52.227C284.489 52.227 286.566 51.3608 287.983 49.6283C289.4 47.9115 290.108 45.5332 290.108 42.5408V11.655H278.46V3.9375H304.763V11.6707H298.608V42.5408C298.608 48.2738 297.129 52.6207 294.154 55.6447C291.194 58.6687 286.991 60.165 281.592 60.165L281.624 60.1808Z" fill="white"/>
<path d="M326.187 60.1806C322.251 60.1806 318.804 59.3458 315.876 57.6921C312.933 56.0383 310.635 53.7073 308.982 50.6833C307.329 47.6593 306.495 44.1629 306.495 40.1781V39.2331C306.495 35.1854 307.313 31.6574 308.934 28.6491C310.556 25.6251 312.838 23.2941 315.75 21.6404C318.662 19.9866 322.047 19.1519 325.872 19.1519C329.697 19.1519 332.861 19.9866 335.679 21.6404C338.496 23.2941 340.669 25.5936 342.243 28.5389C343.817 31.4841 344.604 34.9176 344.604 38.8551V41.9264H314.759C314.853 45.3441 316.018 48.0531 318.19 50.0691C320.363 52.0851 323.086 53.0931 326.344 53.0931C329.603 53.0931 331.68 52.4159 333.239 51.0456C334.781 49.6754 335.993 48.1004 336.812 46.3364L343.518 49.8014C342.794 51.2661 341.707 52.8254 340.322 54.4476C338.921 56.0699 337.095 57.4401 334.844 58.5426C332.578 59.6451 329.697 60.1964 326.171 60.1964H326.187V60.1806ZM314.853 35.6894H336.355C336.151 32.7441 335.08 30.4446 333.207 28.7909C331.318 27.1371 328.847 26.3024 325.809 26.3024C322.771 26.3024 320.284 27.1371 318.363 28.7909C316.443 30.4446 315.278 32.7441 314.869 35.6894H314.853Z" fill="white"/>
<path d="M363.005 59.2516C360.644 59.2516 358.755 58.5428 357.386 57.1253C355.985 55.7078 355.308 53.8178 355.308 51.4553V26.0033H348.917V19.1521H355.308V11.6708L363.43 7.43408V19.1521H375.016V26.0033H363.43V50.0378C363.43 51.6128 364.154 52.4003 365.65 52.4003H375.016V59.2516H363.021H363.005Z" fill="white"/>
</g>
<defs>
<clipPath id="clip0_3299_26054">
<rect width="375" height="63" fill="white"/>
</clipPath>
</defs>
</svg>