<svg width="20" height="20" viewBox="0 0 20 20" fill="none" xmlns="http://www.w3.org/2000/svg">
<path fill-rule="evenodd" clip-rule="evenodd" d="M10.8922 6.726C10.8922 6.88386 10.8295 7.03527 10.7179 7.14689L7.44405 10.4207C7.27381 10.5909 7.01779 10.6419 6.79537 10.5497C6.57294 10.4576 6.42792 10.2406 6.42792 9.99981V7.91647H5.23744C4.57997 7.91647 4.04697 8.44947 4.04697 9.10696V13.5712C4.04697 14.2287 4.57997 14.7617 5.23744 14.7617H14.7613C15.4188 14.7617 15.9517 14.2287 15.9517 13.5712V9.10695C15.9517 8.44947 15.4188 7.91647 14.7613 7.91647H13.8684C13.2109 7.91647 12.6779 7.38348 12.6779 6.726C12.6779 6.06852 13.2109 5.53552 13.8684 5.53552H14.7613C16.7338 5.53552 18.3327 7.13451 18.3327 9.10695V13.5712C18.3327 15.5437 16.7338 17.1426 14.7613 17.1426H5.23744C3.265 17.1426 1.66602 15.5437 1.66602 13.5712V9.10696C1.66602 7.13451 3.265 5.53553 5.23744 5.53553H6.42792V3.45219C6.42792 3.21144 6.57294 2.9944 6.79536 2.90226C7.01779 2.81013 7.27381 2.86106 7.44405 3.03129L10.7179 6.3051C10.8295 6.41673 10.8922 6.56813 10.8922 6.726Z" fill="#F58534"/>
</svg>
