<svg xmlns="http://www.w3.org/2000/svg" xmlns:xlink="http://www.w3.org/1999/xlink" version="1.1" width="256" height="256" viewBox="0 0 256 256" xml:space="preserve">

<defs>
</defs>
<g style="stroke: none; stroke-width: 0; stroke-dasharray: none; stroke-linecap: butt; stroke-linejoin: miter; stroke-miterlimit: 10; fill: none; fill-rule: nonzero; opacity: 1;" transform="translate(1.4065934065934016 1.4065934065934016) scale(2.81 2.81)" >
	<path d="M 38.877 3 c 7.785 0 14.118 6.333 14.118 14.118 v 6.139 c 0 7.785 -6.333 14.118 -14.118 14.118 c -7.785 0 -14.118 -6.333 -14.118 -14.118 v -6.139 C 24.759 9.333 31.092 3 38.877 3 M 38.877 0 L 38.877 0 c -9.415 0 -17.118 7.703 -17.118 17.118 v 6.139 c 0 9.415 7.703 17.118 17.118 17.118 h 0 c 9.415 0 17.118 -7.703 17.118 -17.118 v -6.139 C 55.995 7.703 48.292 0 38.877 0 L 38.877 0 z" style="stroke: none; stroke-width: 1; stroke-dasharray: none; stroke-linecap: butt; stroke-linejoin: miter; stroke-miterlimit: 10; fill: rgb(0,0,0); fill-rule: nonzero; opacity: 1;" transform=" matrix(1 0 0 1 0 0) " stroke-linecap="round" />
	<path d="M 28.783 45.846 c 3.191 1.489 6.582 2.244 10.094 2.244 c 3.512 0 6.902 -0.754 10.093 -2.243 c 5.525 1.049 10.54 4.089 14.101 8.458 c -9.261 2.711 -15.968 11.282 -15.968 21.298 c 0 4.05 1.115 7.983 3.165 11.397 H 9.286 V 69.347 C 9.286 57.902 17.606 47.958 28.783 45.846 M 48.516 42.727 c -2.896 1.499 -6.169 2.363 -9.639 2.363 c -3.47 0 -6.743 -0.863 -9.639 -2.363 C 16.296 44.659 6.286 55.889 6.286 69.347 v 17.707 C 6.286 88.674 7.612 90 9.232 90 h 47.391 c -3.99 -3.521 -6.52 -8.658 -6.52 -14.397 c 0 -10.209 7.969 -18.535 18.022 -19.154 C 64.145 49.228 56.966 43.988 48.516 42.727 L 48.516 42.727 z" style="stroke: none; stroke-width: 1; stroke-dasharray: none; stroke-linecap: butt; stroke-linejoin: miter; stroke-miterlimit: 10; fill: rgb(0,0,0); fill-rule: nonzero; opacity: 1;" transform=" matrix(1 0 0 1 0 0) " stroke-linecap="round" />
	<path d="M 76.6 73.811 h -0.993 c -0.139 -0.489 -0.331 -0.955 -0.573 -1.39 l 0.701 -0.701 c 0.085 -0.085 0.085 -0.222 0 -0.307 l -2.227 -2.227 c -0.085 -0.085 -0.222 -0.085 -0.307 0 l -0.701 0.701 c -0.435 -0.243 -0.901 -0.434 -1.39 -0.573 V 68.32 c 0 -0.12 -0.097 -0.217 -0.217 -0.217 h -3.15 c -0.12 0 -0.217 0.097 -0.217 0.217 v 0.993 c -0.489 0.139 -0.955 0.331 -1.39 0.573 l -0.701 -0.701 c -0.085 -0.085 -0.222 -0.085 -0.307 0 L 62.9 71.413 c -0.085 0.085 -0.085 0.222 0 0.307 l 0.701 0.701 c -0.243 0.435 -0.434 0.901 -0.573 1.39 h -0.993 c -0.12 0 -0.217 0.097 -0.217 0.217 v 3.15 c 0 0.12 0.097 0.217 0.217 0.217 h 0.993 c 0.139 0.489 0.331 0.955 0.574 1.39 L 62.9 79.486 c -0.085 0.085 -0.085 0.222 0 0.307 l 2.227 2.227 c 0.085 0.085 0.222 0.085 0.307 0 l 0.701 -0.701 c 0.435 0.243 0.901 0.434 1.39 0.574 v 0.993 c 0 0.12 0.097 0.217 0.217 0.217 h 3.15 c 0.12 0 0.217 -0.097 0.217 -0.217 v -0.993 c 0.489 -0.139 0.955 -0.331 1.39 -0.574 L 73.2 82.02 c 0.085 0.085 0.222 0.085 0.307 0 l 2.227 -2.227 c 0.085 -0.085 0.085 -0.222 0 -0.307 l -0.701 -0.701 c 0.243 -0.435 0.434 -0.901 0.573 -1.39 H 76.6 c 0.12 0 0.217 -0.097 0.217 -0.217 v -3.15 C 76.817 73.908 76.72 73.811 76.6 73.811 z M 69.317 79.093 c -1.928 0 -3.49 -1.563 -3.49 -3.49 c 0 -1.928 1.563 -3.49 3.49 -3.49 c 1.928 0 3.49 1.563 3.49 3.49 C 72.808 77.531 71.245 79.093 69.317 79.093 z" style="stroke: none; stroke-width: 1; stroke-dasharray: none; stroke-linecap: butt; stroke-linejoin: miter; stroke-miterlimit: 10; fill: rgb(0,0,0); fill-rule: nonzero; opacity: 1;" transform=" matrix(1 0 0 1 0 0) " stroke-linecap="round" />
	<path d="M 69.317 64.206 c 6.284 0 11.397 5.113 11.397 11.397 S 75.601 87 69.317 87 S 57.92 81.887 57.92 75.603 S 63.033 64.206 69.317 64.206 M 69.317 61.206 c -7.951 0 -14.397 6.446 -14.397 14.397 S 61.366 90 69.317 90 s 14.397 -6.446 14.397 -14.397 S 77.268 61.206 69.317 61.206 L 69.317 61.206 z" style="stroke: none; stroke-width: 1; stroke-dasharray: none; stroke-linecap: butt; stroke-linejoin: miter; stroke-miterlimit: 10; fill: rgb(0,0,0); fill-rule: nonzero; opacity: 1;" transform=" matrix(1 0 0 1 0 0) " stroke-linecap="round" />
</g>
</svg>