<?xml version="1.0" encoding="UTF-8"?>
<svg width="28px" height="28px" viewBox="0 0 28 28" version="1.1" xmlns="http://www.w3.org/2000/svg" xmlns:xlink="http://www.w3.org/1999/xlink">
    <title>ic_fluent_arrow_maximize_28_regular</title>
    <desc>Created with Sketch.</desc>
    <g id="ðŸ”-System-Icons" stroke="none" stroke-width="1" fill="none" fill-rule="evenodd">
        <g id="ic_fluent_arrow_maximize_28_regular" fill="#212121" fill-rule="nonzero">
            <path d="M16.25,3 L24.25,3 C24.6296958,3 24.943491,3.28215388 24.9931534,3.64822944 L25,3.75 L25,11.75 C25,12.1642136 24.6642136,12.5 24.25,12.5 C23.8703042,12.5 23.556509,12.2178461 23.5068466,11.8517706 L23.5,11.75 L23.5,5.56 L5.56,23.5 L11.75,23.5 C12.1296958,23.5 12.443491,23.7821539 12.4931534,24.1482294 L12.5,24.25 C12.5,24.6296958 12.2178461,24.943491 11.8517706,24.9931534 L11.75,25 L3.75,25 C3.37030423,25 3.05650904,24.7178461 3.00684662,24.3517706 L3,24.25 L3,16.25 C3,15.8357864 3.33578644,15.5 3.75,15.5 C4.12969577,15.5 4.44349096,15.7821539 4.49315338,16.1482294 L4.5,16.25 L4.5,22.438 L22.438,4.5 L16.25,4.5 C15.8703042,4.5 15.556509,4.21784612 15.5068466,3.85177056 L15.5,3.75 C15.5,3.37030423 15.7821539,3.05650904 16.1482294,3.00684662 L16.25,3 L24.25,3 L16.25,3 Z" id="ðŸŽ¨-Color"></path>
        </g>
    </g>
</svg>