<?xml version="1.0" encoding="iso-8859-1"?>
<!-- Generator: Adobe Illustrator 19.0.0, SVG Export Plug-In . SVG Version: 6.00 Build 0)  -->
<svg version="1.1" id="Capa_1" xmlns="http://www.w3.org/2000/svg" xmlns:xlink="http://www.w3.org/1999/xlink" x="0px" y="0px"
	 viewBox="0 0 56 56" style="enable-background:new 0 0 56 56;" xml:space="preserve">
<g>
	<path d="M8,40c-4.411,0-8,3.589-8,8s3.589,8,8,8s8-3.589,8-8S12.411,40,8,40z M8,54c-3.309,0-6-2.691-6-6s2.691-6,6-6s6,2.691,6,6
		S11.309,54,8,54z"/>
	<path d="M28,40c-4.411,0-8,3.589-8,8s3.589,8,8,8s8-3.589,8-8S32.411,40,28,40z M28,54c-3.309,0-6-2.691-6-6s2.691-6,6-6
		s6,2.691,6,6S31.309,54,28,54z"/>
	<path d="M48,40c-4.411,0-8,3.589-8,8s3.589,8,8,8s8-3.589,8-8S52.411,40,48,40z M48,54c-3.309,0-6-2.691-6-6s2.691-6,6-6
		s6,2.691,6,6S51.309,54,48,54z"/>
	<path d="M8,20c-4.411,0-8,3.589-8,8s3.589,8,8,8s8-3.589,8-8S12.411,20,8,20z M8,34c-3.309,0-6-2.691-6-6s2.691-6,6-6s6,2.691,6,6
		S11.309,34,8,34z"/>
	<path d="M28,20c-4.411,0-8,3.589-8,8s3.589,8,8,8s8-3.589,8-8S32.411,20,28,20z M28,34c-3.309,0-6-2.691-6-6s2.691-6,6-6
		s6,2.691,6,6S31.309,34,28,34z"/>
	<path d="M48,20c-4.411,0-8,3.589-8,8s3.589,8,8,8s8-3.589,8-8S52.411,20,48,20z M48,34c-3.309,0-6-2.691-6-6s2.691-6,6-6
		s6,2.691,6,6S51.309,34,48,34z"/>
	<path d="M8,0C3.589,0,0,3.589,0,8s3.589,8,8,8s8-3.589,8-8S12.411,0,8,0z M8,14c-3.309,0-6-2.691-6-6s2.691-6,6-6s6,2.691,6,6
		S11.309,14,8,14z"/>
	<path d="M28,0c-4.411,0-8,3.589-8,8s3.589,8,8,8s8-3.589,8-8S32.411,0,28,0z M28,14c-3.309,0-6-2.691-6-6s2.691-6,6-6s6,2.691,6,6
		S31.309,14,28,14z"/>
	<path d="M48,16c4.411,0,8-3.589,8-8s-3.589-8-8-8s-8,3.589-8,8S43.589,16,48,16z M48,2c3.309,0,6,2.691,6,6s-2.691,6-6,6
		s-6-2.691-6-6S44.691,2,48,2z"/>
</g>
<g>
</g>
<g>
</g>
<g>
</g>
<g>
</g>
<g>
</g>
<g>
</g>
<g>
</g>
<g>
</g>
<g>
</g>
<g>
</g>
<g>
</g>
<g>
</g>
<g>
</g>
<g>
</g>
<g>
</g>
</svg>
