<svg width="14" height="14" viewBox="0 0 14 14" fill="none" xmlns="http://www.w3.org/2000/svg">
<path fill-rule="evenodd" clip-rule="evenodd" d="M6.75815 0.483576C6.95842 0.283307 7.28312 0.283307 7.48338 0.483576L9.79108 2.79127C9.99135 2.99154 9.99135 3.31624 9.79108 3.5165L7.48338 5.8242C7.28312 6.02447 6.95842 6.02447 6.75815 5.8242L4.45046 3.5165C4.25018 3.31624 4.25018 2.99154 4.45046 2.79127L6.75815 0.483576ZM2.912 4.32973C3.11227 4.12946 3.43696 4.12946 3.63723 4.32973L5.94492 6.63743C6.1452 6.83769 6.1452 7.16239 5.94492 7.36266L3.63723 9.67035C3.43696 9.87063 3.11227 9.87063 2.912 9.67035L0.604304 7.36266C0.404034 7.16239 0.404034 6.83769 0.604304 6.63743L2.912 4.32973ZM11.3296 4.32973C11.1293 4.12946 10.8046 4.12946 10.6043 4.32973L8.29662 6.63743C8.09634 6.83769 8.09634 7.16239 8.29662 7.36266L10.6043 9.67035C10.8046 9.87063 11.1293 9.87063 11.3296 9.67035L13.6373 7.36266C13.8375 7.16239 13.8375 6.83769 13.6373 6.63743L11.3296 4.32973ZM7.48338 8.17589C7.28312 7.97561 6.95842 7.97561 6.75815 8.17589L4.45046 10.4835C4.25018 10.6838 4.25018 11.0086 4.45046 11.2089L6.75815 13.5166C6.95842 13.7168 7.28312 13.7168 7.48338 13.5166L9.79108 11.2089C9.99135 11.0086 9.99135 10.6838 9.79108 10.4835L7.48338 8.17589Z" fill="#1E823B"/>
</svg>