
<svg width="95" height="138" viewBox="0 0 95 138" fill="none" xmlns="http://www.w3.org/2000/svg">
<path d="M18.9543 47.7678L0.951172 59.6846L18.6842 85.916L36.6873 73.9993L18.9543 47.7678Z" fill="#F5F5F5"/>
<path d="M27.384 72.758L27.1787 74.0091L18.2285 72.7326L18.4339 71.4814L27.384 72.758Z" fill="#E0E0E0"/>
<path d="M22.876 68.2949L24.1596 68.4775L22.7364 77.1973L21.4512 77.0132L22.876 68.2949Z" fill="#E0E0E0"/>
<path d="M14.6339 57.2121C14.6468 57.2312 12.8432 58.4474 10.6049 59.9288C8.36657 61.4101 6.5422 62.5961 6.52936 62.5771C6.51653 62.558 8.32004 61.3418 10.5584 59.8605C12.7967 58.3791 14.6211 57.1931 14.6339 57.2121Z" fill="#E0E0E0"/>
<path d="M21.2544 55.5672C21.2672 55.5862 18.2667 57.5947 14.5538 60.0509C10.8393 62.5087 7.81952 64.4854 7.80668 64.4664C7.79385 64.4473 10.7927 62.4404 14.5073 59.9811C18.2202 57.5232 21.2415 55.5465 21.2544 55.5656V55.5672Z" fill="#E0E0E0"/>
<path d="M22.5805 57.5291C22.5934 57.5481 19.5929 59.5566 15.88 62.0128C12.1654 64.4706 9.14569 66.4474 9.13285 66.4283C9.12002 66.4093 12.1189 64.4024 15.8334 61.943C19.5463 59.4852 22.5677 57.5084 22.5805 57.5275V57.5291Z" fill="#E0E0E0"/>
<path d="M23.9067 59.4939C23.9195 59.513 20.9191 61.5214 17.2061 63.9777C13.4916 66.4355 10.4719 68.4122 10.459 68.3932C10.4462 68.3741 13.4451 66.3672 17.1596 63.9078C20.8725 61.45 23.8939 59.4733 23.9067 59.4923V59.4939Z" fill="#E0E0E0"/>
<path d="M25.2368 61.4578C25.2496 61.4768 22.2491 63.4853 18.5362 65.9415C14.8217 68.3993 11.8019 70.3761 11.7891 70.357C11.7763 70.338 14.7752 68.3311 18.4897 65.8717C22.2026 63.4139 25.224 61.4371 25.2368 61.4562V61.4578Z" fill="#E0E0E0"/>
<path d="M79.1549 65.3444L64.0352 75.3525L78.9276 97.3821L94.0473 87.3739L79.1549 65.3444Z" fill="#F5F5F5"/>
<path d="M86.2358 86.3354L86.0642 87.3865L78.5469 86.3148L78.7186 85.2637L86.2358 86.3354Z" fill="#E0E0E0"/>
<path d="M82.4493 82.5869L83.5291 82.7409L82.3322 90.0635L81.2539 89.9095L82.4493 82.5869Z" fill="#E0E0E0"/>
<path d="M75.5269 73.2802C75.5397 73.2992 74.0267 74.3233 72.1461 75.5665C70.2656 76.8113 68.7317 77.8036 68.7188 77.7846C68.706 77.7655 70.2191 76.7414 72.0996 75.4967C73.9785 74.2535 75.5141 73.2595 75.5269 73.2786V73.2802Z" fill="#E0E0E0"/>
<path d="M81.0874 71.8986C81.1002 71.9177 78.5827 73.607 75.4635 75.6711C72.3442 77.7351 69.8059 79.3927 69.793 79.3736C69.7802 79.3546 72.2977 77.6668 75.4169 75.6012C78.5346 73.5371 81.0746 71.8795 81.0874 71.8986Z" fill="#E0E0E0"/>
<path d="M82.2026 73.547C82.2155 73.5661 79.6979 75.2554 76.5787 77.3195C73.4595 79.3835 70.9211 81.0411 70.9083 81.0221C70.8954 81.003 73.4129 79.3153 76.5322 77.2496C79.6498 75.1856 82.1898 73.528 82.2026 73.547Z" fill="#E0E0E0"/>
<path d="M83.3159 75.1961C83.3288 75.2151 80.8112 76.9045 77.692 78.9669C74.5728 81.031 72.0344 82.6886 72.0215 82.6695C72.0087 82.6505 74.5262 80.9627 77.6455 78.8971C80.7631 76.833 83.3031 75.1754 83.3159 75.1945V75.1961Z" fill="#E0E0E0"/>
<path d="M84.4312 76.8459C84.444 76.8649 81.9265 78.5543 78.8072 80.6183C75.688 82.6824 73.1496 84.34 73.1368 84.3209C73.1239 84.3019 75.6415 82.6141 78.7607 80.5485C81.8783 78.4844 84.4183 76.8268 84.4312 76.8459Z" fill="#E0E0E0"/>
<path d="M55.2339 48.7312L38.7363 40L25.7437 64.0376L42.2413 72.7688L55.2339 48.7312Z" fill="#F5F5F5"/>
<path d="M39.4181 65.2491L38.372 65.6032L35.7148 58.3361L36.761 57.9805L39.4181 65.2491Z" fill="#E0E0E0"/>
<path d="M41.0228 60.0352L41.4047 61.0783L34.1104 63.5504L33.7285 62.5073L41.0228 60.0352Z" fill="#E0E0E0"/>
<path d="M46.2068 49.3116C46.194 49.3354 44.5204 48.4749 42.4698 47.3888C40.4176 46.3028 38.7665 45.4042 38.7794 45.3804C38.7922 45.3565 40.4657 46.2171 42.5164 47.3031C44.567 48.3891 46.2196 49.2878 46.2068 49.3116Z" fill="#E0E0E0"/>
<path d="M50.1647 53.6363C50.1519 53.6602 47.3825 52.2201 43.9808 50.4196C40.5776 48.6191 37.829 47.1393 37.8418 47.1155C37.8547 47.0917 40.6241 48.5318 44.0274 50.3339C47.429 52.1343 50.1776 53.6141 50.1647 53.6379V53.6363Z" fill="#E0E0E0"/>
<path d="M49.1921 55.4352C49.1792 55.459 46.4098 54.0189 43.0082 52.2184C39.6049 50.4179 36.8563 48.9382 36.8692 48.9144C36.882 48.8905 39.6515 50.3306 43.0547 52.1327C46.4563 53.9332 49.2049 55.4129 49.1921 55.4368V55.4352Z" fill="#E0E0E0"/>
<path d="M48.2194 57.235C48.2066 57.2588 45.4371 55.8187 42.0355 54.0182C38.6323 52.2177 35.8837 50.738 35.8965 50.7142C35.9094 50.6903 38.6788 52.1304 42.082 53.9325C45.4837 55.733 48.2323 57.2127 48.2194 57.2366V57.235Z" fill="#E0E0E0"/>
<path d="M47.2468 59.0338C47.2339 59.0576 44.4645 57.6175 41.0629 55.8171C37.6596 54.0166 34.911 52.5368 34.9239 52.513C34.9367 52.4892 37.7062 53.9292 41.1094 55.7313C44.511 57.5318 47.2596 59.0116 47.2468 59.0354V59.0338Z" fill="#E0E0E0"/>
<path d="M36.6236 104.734L30.9499 133.599L30.207 137.378L68.0839 137.194C69.7831 137.186 71.2898 135.692 71.8369 133.474L78.5536 106.222C78.9691 104.537 78.0577 102.786 76.7677 102.786L38.4319 102.826C37.5847 102.826 36.845 103.609 36.6236 104.734Z" fill="#E4E7EB"/>
<g opacity="0.5">
<path d="M36.6236 104.734L30.9499 133.599L30.207 137.378L68.0839 137.194C69.7831 137.186 71.2898 135.692 71.8369 133.474L78.5536 106.222C78.9691 104.537 78.0577 102.786 76.7677 102.786L38.4319 102.826C37.5847 102.826 36.845 103.609 36.6236 104.734Z" fill="#E4E7EB"/>
</g>
<path d="M64.4508 131.645L60.4411 99.666C60.2774 98.3561 59.2216 97.3781 57.9765 97.3828L49.182 97.4114C48.5306 97.413 47.9064 97.6877 47.4443 98.1735L43.2693 102.565L18.8112 102.692C17.3174 102.7 16.1685 104.099 16.3659 105.672L20.09 135.228C20.2553 136.536 21.3079 137.513 22.5514 137.51L65.1761 137.427C69.9239 137.524 70.3764 136.138 70.3764 136.138C64.9354 137.33 64.4508 131.649 64.4508 131.646V131.645Z" fill="#F3F4F6"/>
<g opacity="0.5">
<path d="M46.0715 125.244L44.6339 126.772L33.5625 116.915L35.0002 115.388L46.0715 125.244Z" fill="#6B7380"/>
<path d="M44.0308 115.05L45.6209 116.464L35.6022 127.11L34.0137 125.697L44.0308 115.05Z" fill="#6B7380"/>
</g>
<path d="M80.2864 137.585C80.2864 137.626 65.6061 137.661 47.5013 137.661C29.3966 137.661 14.7129 137.626 14.7129 137.585C14.7129 137.545 29.3898 137.51 47.5013 137.51C65.6129 137.51 80.2864 137.545 80.2864 137.585Z" fill="#6B7380"/>
</svg>
