<svg width="12" height="14" viewBox="0 0 12 14" fill="none" xmlns="http://www.w3.org/2000/svg">
<path fill-rule="evenodd" clip-rule="evenodd" d="M3.83341 3.41935C3.83341 2.22274 4.80346 1.25269 6.00008 1.25269C7.1967 1.25269 8.16675 2.22274 8.16675 3.41935V4.25269H3.83341V3.41935ZM2.83341 4.29948V3.41935C2.83341 1.67045 4.25118 0.252686 6.00008 0.252686C7.74898 0.252686 9.16675 1.67045 9.16675 3.41935V4.29948C10.4005 4.53352 11.3334 5.61749 11.3334 6.91935V10.9194C11.3334 12.3921 10.1395 13.586 8.66675 13.586H3.33341C1.86066 13.586 0.666748 12.3921 0.666748 10.9194V6.91935C0.666748 5.61749 1.59965 4.53352 2.83341 4.29948ZM7.33341 8.91935C7.33341 9.65573 6.73646 10.2527 6.00008 10.2527C5.2637 10.2527 4.66675 9.65573 4.66675 8.91935C4.66675 8.18297 5.2637 7.58602 6.00008 7.58602C6.73646 7.58602 7.33341 8.18297 7.33341 8.91935Z" fill="#46A758"/>
</svg>