<?xml version="1.0" encoding="iso-8859-1"?>
<!-- Generator: Adobe Illustrator 19.0.0, SVG Export Plug-In . SVG Version: 6.00 Build 0)  -->
<svg version="1.1" id="Layer_1" xmlns="http://www.w3.org/2000/svg" xmlns:xlink="http://www.w3.org/1999/xlink" x="0px" y="0px"
	 viewBox="0 0 280.221 280.221" style="enable-background:new 0 0 280.221 280.221;" xml:space="preserve">
<g>
	<path style="fill:#EFC75E;" d="M35.1,96.452h210.02c9.661,0,17.502,7.841,17.502,17.502v148.765c0,9.67-7.841,17.502-17.502,17.502
		H35.1c-9.661,0-17.502-7.832-17.502-17.502V113.954C17.598,104.284,25.439,96.452,35.1,96.452z"/>
	<path style="fill:#D7B354;" d="M245.12,96.452H35.1c-9.661,0-17.502,7.841-17.502,17.502v17.502c0,9.67,7.841,17.502,17.502,17.502
		h210.02c9.661,0,17.502-7.832,17.502-17.502v-17.502C262.622,104.284,254.782,96.452,245.12,96.452z"/>
	<g>
		<path style="fill:#B29446;" d="M70.104,105.203c-14.5,0-26.253,7.841-26.253,17.502c0,9.67,11.752,17.502,26.253,17.502
			s26.253-7.832,26.253-17.502S84.604,105.203,70.104,105.203z M210.118,105.203c-14.491,0-26.253,7.841-26.253,17.502
			c0,9.67,11.761,17.502,26.253,17.502c14.5,0,26.253-7.832,26.253-17.502S224.618,105.203,210.118,105.203z"/>
	</g>
	<path style="fill:#D1D5D7;" d="M140.111,0C91.78,0,52.602,39.195,52.602,87.526v35.362c0,4.839,7.841,8.751,17.502,8.751
		s17.502-3.912,17.502-8.751V85.015c0-27.618,23.514-49.994,52.505-49.994c29,0,52.505,22.376,52.505,49.994v37.874
		c0,4.839,7.841,8.751,17.502,8.751s17.502-3.912,17.502-8.751V87.526C227.618,39.195,188.441,0,140.111,0z"/>
	<path style="fill:#DADDDF;" d="M140.111,17.502c-48.331,0-70.007,39.195-70.007,87.526v26.611c9.661,0,17.502-3.912,17.502-8.751
		V85.015c0-27.618,23.514-49.994,52.505-49.994c29,0,52.505,22.376,52.505,49.994v37.874c0,4.839,7.841,8.751,17.502,8.751v-26.611
		C210.118,56.697,188.441,17.502,140.111,17.502z"/>
</g>
<g>
</g>
<g>
</g>
<g>
</g>
<g>
</g>
<g>
</g>
<g>
</g>
<g>
</g>
<g>
</g>
<g>
</g>
<g>
</g>
<g>
</g>
<g>
</g>
<g>
</g>
<g>
</g>
<g>
</g>
</svg>
