<svg width="12" height="12" viewBox="0 0 12 12" fill="none" xmlns="http://www.w3.org/2000/svg">
<path fill-rule="evenodd" clip-rule="evenodd" d="M2.50008 0.166748H9.50008C10.7887 0.166748 11.8334 1.21142 11.8334 2.50008V9.50008C11.8334 10.7887 10.7887 11.8334 9.50008 11.8334H2.50008C1.21142 11.8334 0.166748 10.7887 0.166748 9.50008V2.50008C0.166748 1.21142 1.21142 0.166748 2.50008 0.166748ZM6.58341 2.64591C6.34179 2.64591 6.14591 2.84179 6.14591 3.08341V5.41675C6.14591 5.65837 6.34179 5.85425 6.58341 5.85425H8.91675C9.15837 5.85425 9.35425 5.65837 9.35425 5.41675C9.35425 5.17512 9.15837 4.97925 8.91675 4.97925H7.63963L9.22611 3.39277C9.39696 3.22192 9.39696 2.94491 9.22611 2.77406C9.05525 2.6032 8.77824 2.6032 8.60739 2.77406L7.02091 4.36053V3.08341C7.02091 2.84179 6.82504 2.64591 6.58341 2.64591ZM2.64591 6.58341C2.64591 6.82504 2.84179 7.02091 3.08341 7.02091H4.36053L2.77406 8.60739C2.6032 8.77824 2.6032 9.05525 2.77406 9.22611C2.94491 9.39696 3.22192 9.39696 3.39277 9.22611L4.97925 7.63963V8.91675C4.97925 9.15837 5.17512 9.35425 5.41675 9.35425C5.65837 9.35425 5.85425 9.15837 5.85425 8.91675V6.58341C5.85425 6.34179 5.65837 6.14591 5.41675 6.14591H3.08341C2.84179 6.14591 2.64591 6.34179 2.64591 6.58341Z" fill="#121212"/>
</svg>