<svg width="10" height="10" viewBox="0 0 10 10" fill="none" xmlns="http://www.w3.org/2000/svg">
<path fill-rule="evenodd" clip-rule="evenodd" d="M8 0H2C0.895431 0 0 0.895431 0 2V8C0 9.10457 0.895431 10 2 10H8C9.10457 10 10 9.10457 10 8V2C10 0.895431 9.10457 0 8 0ZM5.125 3C5.125 3.20711 5.29289 3.375 5.5 3.375H6.09467L3.375 6.09467V5.5C3.375 5.29289 3.20711 5.125 3 5.125C2.79289 5.125 2.625 5.29289 2.625 5.5V7C2.625 7.20711 2.79289 7.375 3 7.375H4.5C4.70711 7.375 4.875 7.20711 4.875 7C4.875 6.79289 4.70711 6.625 4.5 6.625H3.90533L6.625 3.90533V4.5C6.625 4.70711 6.79289 4.875 7 4.875C7.20711 4.875 7.375 4.70711 7.375 4.5V3C7.375 2.79289 7.20711 2.625 7 2.625H5.5C5.29289 2.625 5.125 2.79289 5.125 3Z" fill="#889099"/>
</svg>