<svg width="11" height="10" viewBox="0 0 11 10" fill="none" xmlns="http://www.w3.org/2000/svg">
<path fill-rule="evenodd" clip-rule="evenodd" d="M8.54419 0H2.54419C1.43962 0 0.544189 0.895431 0.544189 2V8C0.544189 9.10457 1.43962 10 2.54419 10H8.54419C9.64876 10 10.5442 9.10457 10.5442 8V2C10.5442 0.895431 9.64876 0 8.54419 0ZM5.66919 3C5.66919 3.20711 5.83708 3.375 6.04419 3.375H6.63886L3.91919 6.09467V5.5C3.91919 5.29289 3.7513 5.125 3.54419 5.125C3.33708 5.125 3.16919 5.29289 3.16919 5.5V7C3.16919 7.20711 3.33708 7.375 3.54419 7.375H5.04419C5.2513 7.375 5.41919 7.20711 5.41919 7C5.41919 6.79289 5.2513 6.625 5.04419 6.625H4.44952L7.16919 3.90533V4.5C7.16919 4.70711 7.33708 4.875 7.54419 4.875C7.7513 4.875 7.91919 4.70711 7.91919 4.5V3C7.91919 2.79289 7.7513 2.625 7.54419 2.625H6.04419C5.83708 2.625 5.66919 2.79289 5.66919 3Z" fill="#11181C"/>
</svg>