<?xml version="1.0" encoding="iso-8859-1"?>
<!-- Generator: Adobe Illustrator 16.0.0, SVG Export Plug-In . SVG Version: 6.00 Build 0)  -->
<!DOCTYPE svg PUBLIC "-//W3C//DTD SVG 1.1//EN" "http://www.w3.org/Graphics/SVG/1.1/DTD/svg11.dtd">
<svg version="1.1" id="Capa_1" xmlns="http://www.w3.org/2000/svg" xmlns:xlink="http://www.w3.org/1999/xlink" x="0px" y="0px"
	 width="480.221px" height="480.221px" viewBox="0 0 480.221 480.221" style="enable-background:new 0 0 480.221 480.221;"
	 xml:space="preserve">
<g>
	<path d="M480.158,260.878v166.979c0,28.874-23.501,52.363-52.381,52.363H52.453c-28.889,0-52.39-23.489-52.39-52.363V52.938
		c0-28.874,23.501-52.369,52.39-52.369h167.434c-9.011,9.244-15.004,21.45-16.316,35.003H52.447
		c-9.582,0-17.378,7.791-17.378,17.366v374.92c0,9.569,7.796,17.36,17.378,17.36h375.325c9.581,0,17.372-7.791,17.372-17.36V277.169
		C458.33,275.904,470.56,270.236,480.158,260.878z M399.287,230.096H284.831L470.099,44.829c10.249-10.261,10.249-26.882,0-37.131
		c-10.256-10.261-26.883-10.261-37.132-0.012L247.7,192.958V78.497c0-14.499-11.757-26.262-26.259-26.262
		c-7.25,0-13.816,2.932-18.569,7.689c-4.752,4.765-7.693,11.325-7.693,18.572v177.854c0,14.499,11.754,26.256,26.256,26.256h177.852
		c14.505,0,26.256-11.751,26.256-26.256S413.792,230.096,399.287,230.096z"/>
</g>
<g>
</g>
<g>
</g>
<g>
</g>
<g>
</g>
<g>
</g>
<g>
</g>
<g>
</g>
<g>
</g>
<g>
</g>
<g>
</g>
<g>
</g>
<g>
</g>
<g>
</g>
<g>
</g>
<g>
</g>
</svg>
