<svg width="6" height="6" viewBox="0 0 6 6" fill="none" xmlns="http://www.w3.org/2000/svg">
<path fill-rule="evenodd" clip-rule="evenodd" d="M0.207188 5.26573C0.0778095 5.42745 0.10403 5.66343 0.265753 5.79281C0.427476 5.92219 0.663461 5.89597 0.79284 5.73425L2.79284 3.23425C2.90241 3.09729 2.90241 2.90268 2.79284 2.76573L0.79284 0.265726C0.663461 0.104003 0.427476 0.0777821 0.265753 0.207161C0.10403 0.336539 0.0778093 0.572524 0.207188 0.734247L2.01978 2.99999L0.207188 5.26573ZM3.20719 5.26573C3.07781 5.42745 3.10403 5.66343 3.26575 5.79281C3.42748 5.92219 3.66346 5.89597 3.79284 5.73425L5.79284 3.23425C5.9024 3.09729 5.9024 2.90268 5.79284 2.76573L3.79284 0.265726C3.66346 0.104003 3.42748 0.077782 3.26575 0.207161C3.10403 0.336539 3.07781 0.572524 3.20719 0.734247L5.01978 2.99999L3.20719 5.26573Z" fill="#3E63DD"/>
</svg>
