<svg width="25" height="25" viewBox="0 0 25 25" fill="none" xmlns="http://www.w3.org/2000/svg">
<rect x="0.535156" y="0.958008" width="24" height="24" rx="6" fill="#E8F3EB"/>
<path d="M11.4102 15.0052C9.46928 15.1718 8.03516 15.7591 8.03516 16.458C8.03516 17.2864 10.0499 17.958 12.5352 17.958C15.0204 17.958 17.0352 17.2864 17.0352 16.458C17.0352 15.7591 15.601 15.1718 13.6602 15.0052V15.958C13.6602 16.5793 13.1565 17.083 12.5352 17.083C11.9138 17.083 11.4102 16.5793 11.4102 15.958V15.0052Z" fill="#1E823B"/>
<path fill-rule="evenodd" clip-rule="evenodd" d="M12.9102 10.9108C13.5571 10.7442 14.0352 10.1569 14.0352 9.45801C14.0352 8.62958 13.3636 7.95801 12.5352 7.95801C11.7067 7.95801 11.0352 8.62958 11.0352 9.45801C11.0352 10.1569 11.5132 10.7442 12.1602 10.9108V15.958C12.1602 16.1651 12.328 16.333 12.5352 16.333C12.7423 16.333 12.9102 16.1651 12.9102 15.958V10.9108Z" fill="#1E823B"/>
</svg>
