<svg width="24" height="24" viewBox="0 0 24 24" fill="none" xmlns="http://www.w3.org/2000/svg">
<path fill-rule="evenodd" clip-rule="evenodd" d="M4 2C2.89543 2 2 2.89543 2 4V6C2 7.10457 2.89543 8 4 8H4.25V16H4C2.89543 16 2 16.8954 2 18V20C2 21.1046 2.89543 22 4 22H6C7.10457 22 8 21.1046 8 20V19.75H16V20C16 21.1046 16.8954 22 18 22H20C21.1046 22 22 21.1046 22 20V18C22 16.8954 21.1046 16 20 16H19.75V8H20C21.1046 8 22 7.10457 22 6V4C22 2.89543 21.1046 2 20 2H18C16.8954 2 16 2.89543 16 4V4.25L8 4.25V4C8 2.89543 7.10457 2 6 2H4ZM8 5.75V6C8 7.10457 7.10457 8 6 8H5.75V16H6C7.10457 16 8 16.8954 8 18V18.25H16V18C16 16.8954 16.8954 16 18 16H18.25V8H18C16.8954 8 16 7.10457 16 6V5.75L8 5.75Z" fill="#6A727C"/>
</svg>
