<svg width="12" height="12" viewBox="0 0 12 12" fill="none" xmlns="http://www.w3.org/2000/svg">
<path fill-rule="evenodd" clip-rule="evenodd" d="M10.843 9.23593C11.0522 9.02671 11.0522 8.6875 10.843 8.47829L9.2359 6.87119C9.08268 6.71797 8.85225 6.67214 8.65211 6.75506C8.4519 6.83797 8.3214 7.03331 8.3214 7.24999V8.14285H7.78569C6.60223 8.14285 5.64284 7.18346 5.64284 6C5.64284 4.81653 6.60223 3.85715 7.78569 3.85715H8.3214V4.75C8.3214 4.96667 8.4519 5.16201 8.65211 5.24494C8.85225 5.32785 9.08268 5.28202 9.2359 5.12881L10.843 3.52167C11.0522 3.31246 11.0522 2.97327 10.843 2.76406L9.2359 1.15692C9.08268 1.00371 8.85225 0.957876 8.65211 1.04079C8.4519 1.12371 8.3214 1.31905 8.3214 1.53573V2.42858H7.78569C6.05787 2.42858 4.61662 3.65555 4.28572 5.28571H1.71428C1.3198 5.28571 1 5.60551 1 6C1 6.39448 1.3198 6.71428 1.71428 6.71428H4.28572C4.61662 8.34443 6.05787 9.57143 7.78569 9.57143H8.3214V10.4643C8.3214 10.6809 8.4519 10.8763 8.65211 10.9592C8.85225 11.0421 9.08268 10.9963 9.2359 10.8431L10.843 9.23593Z" fill="#6A727C"/>
</svg>
