<svg width="16" height="17" viewBox="0 0 16 17" fill="none" xmlns="http://www.w3.org/2000/svg">
<path fill-rule="evenodd" clip-rule="evenodd" d="M12.3333 8.26457V4.5979H13.3333V8.26457C13.3333 8.54071 13.1094 8.76457 12.8333 8.76457C12.5571 8.76457 12.3333 8.54071 12.3333 8.26457Z" fill="#121212"/>
<path d="M10.6666 7.26453V5.26453H5.33325V7.26453C5.33325 8.73729 6.52716 9.93119 7.99992 9.93119C9.47268 9.93119 10.6666 8.73729 10.6666 7.26453Z" fill="#121212"/>
<path d="M2.68526 4.2933L7.18762 2.29225C7.70475 2.06241 8.29505 2.06241 8.81218 2.29225L13.3145 4.2933C13.5785 4.41061 13.5785 4.7852 13.3145 4.90251L8.81218 6.90356C8.29505 7.13339 7.70475 7.13339 7.18762 6.90356L2.68526 4.90251C2.42132 4.7852 2.42132 4.41061 2.68526 4.2933Z" fill="#121212"/>
<path d="M9.53287 10.8643L8.47385 11.9352C8.21292 12.199 7.78676 12.199 7.52582 11.9352L6.4668 10.8643C6.3032 10.6989 6.06437 10.6284 5.84117 10.694C3.97108 11.244 2.6665 12.4865 2.6665 13.9313C2.6665 14.6676 3.26346 15.2646 3.99984 15.2646H11.9998C12.7362 15.2646 13.3332 14.6676 13.3332 13.9313C13.3332 12.4865 12.0286 11.244 10.1585 10.694C9.9353 10.6284 9.69647 10.6989 9.53287 10.8643Z" fill="#121212"/>
</svg>
