<svg width="32" height="33" viewBox="0 0 32 33" fill="none" xmlns="http://www.w3.org/2000/svg">
<circle opacity="0.4" cx="16.0001" cy="16.5979" r="13.3333" fill="#3E63DD"/>
<path d="M17.3334 9.93123C17.3334 10.6676 16.7365 11.2646 16.0001 11.2646C15.2637 11.2646 14.6667 10.6676 14.6667 9.93123C14.6667 9.19485 15.2637 8.5979 16.0001 8.5979C16.7365 8.5979 17.3334 9.19485 17.3334 9.93123Z" fill="#3E63DD"/>
<path fill-rule="evenodd" clip-rule="evenodd" d="M13.6667 13.9312C13.6667 13.3789 14.1145 12.9312 14.6667 12.9312H16.0001C16.5524 12.9312 17.0001 13.3789 17.0001 13.9312V23.2645C17.0001 23.8168 16.5524 24.2645 16.0001 24.2645C15.4478 24.2645 15.0001 23.8168 15.0001 23.2645V14.9312H14.6667C14.1145 14.9312 13.6667 14.4834 13.6667 13.9312Z" fill="#3E63DD"/>
</svg>
