<svg width="28" height="28" viewBox="0 0 28 28" fill="none" xmlns="http://www.w3.org/2000/svg">
<rect width="28" height="28" rx="14" fill="#FFE3A2"/>
<path d="M13.9983 20.75C13.6369 20.75 13.3281 20.6213 13.0719 20.364C12.8156 20.1066 12.6875 19.7972 12.6875 19.4358C12.6875 19.0744 12.8162 18.7656 13.0735 18.5094C13.3309 18.2531 13.6403 18.125 14.0017 18.125C14.3631 18.125 14.6719 18.2537 14.9281 18.511C15.1844 18.7684 15.3125 19.0778 15.3125 19.4392C15.3125 19.8006 15.1838 20.1094 14.9265 20.3656C14.6691 20.6219 14.3597 20.75 13.9983 20.75ZM13.9983 16.25C13.6369 16.25 13.3281 16.1215 13.0719 15.8645C12.8156 15.6074 12.6875 15.2984 12.6875 14.9375V8.5625C12.6875 8.20156 12.8162 7.89258 13.0735 7.63554C13.3309 7.37851 13.6403 7.25 14.0017 7.25C14.3631 7.25 14.6719 7.37851 14.9281 7.63554C15.1844 7.89258 15.3125 8.20156 15.3125 8.5625V14.9375C15.3125 15.2984 15.1838 15.6074 14.9265 15.8645C14.6691 16.1215 14.3597 16.25 13.9983 16.25Z" fill="#FFA01C"/>
</svg>
