<svg width="12" height="12" viewBox="0 0 12 12" fill="none" xmlns="http://www.w3.org/2000/svg">
<path fill-rule="evenodd" clip-rule="evenodd" d="M5.99984 11.8333C9.2215 11.8333 11.8332 9.22163 11.8332 5.99996C11.8332 2.7783 9.2215 0.166626 5.99984 0.166626C2.77818 0.166626 0.166504 2.7783 0.166504 5.99996C0.166504 9.22163 2.77818 11.8333 5.99984 11.8333ZM4.74984 7.97913C4.46219 7.97913 4.229 8.21231 4.229 8.49996C4.229 8.78763 4.46219 9.02079 4.74984 9.02079H7.24984C7.53749 9.02079 7.77067 8.78763 7.77067 8.49996C7.77067 8.21231 7.53749 7.97913 7.24984 7.97913H6.52067V5.58329C6.52067 5.29564 6.28749 5.06246 5.99984 5.06246H5.1665C4.87885 5.06246 4.64567 5.29564 4.64567 5.58329C4.64567 5.87094 4.87885 6.10413 5.1665 6.10413H5.479V7.97913H4.74984ZM6.83317 3.49996C6.83317 3.96019 6.46007 4.33329 5.99984 4.33329C5.5396 4.33329 5.1665 3.96019 5.1665 3.49996C5.1665 3.03973 5.5396 2.66663 5.99984 2.66663C6.46007 2.66663 6.83317 3.03973 6.83317 3.49996Z" fill="#D72D39"/>
</svg>
