<svg width="14" height="14" viewBox="0 0 14 14" fill="none" xmlns="http://www.w3.org/2000/svg">
<rect width="14" height="14" rx="7" fill="#FFE3A2"/>
<path d="M6.99908 10.75C6.7983 10.75 6.62674 10.6785 6.48438 10.5355C6.34202 10.3926 6.27084 10.2207 6.27084 10.0199C6.27084 9.81914 6.34233 9.64757 6.4853 9.50521C6.62828 9.36285 6.80015 9.29167 7.00093 9.29167C7.2017 9.29167 7.37327 9.36316 7.51563 9.50614C7.65799 9.64911 7.72917 9.82098 7.72917 10.0218C7.72917 10.2225 7.65768 10.3941 7.5147 10.5365C7.37173 10.6788 7.19985 10.75 6.99908 10.75ZM6.99908 8.25C6.7983 8.25 6.62674 8.1786 6.48438 8.03581C6.34202 7.89301 6.27084 7.72135 6.27084 7.52083V3.97917C6.27084 3.77865 6.34233 3.60699 6.4853 3.46419C6.62828 3.3214 6.80015 3.25 7.00093 3.25C7.2017 3.25 7.37327 3.3214 7.51563 3.46419C7.65799 3.60699 7.72917 3.77865 7.72917 3.97917V7.52083C7.72917 7.72135 7.65768 7.89301 7.5147 8.03581C7.37173 8.1786 7.19985 8.25 6.99908 8.25Z" fill="#FFA01C"/>
</svg>
