<svg xmlns="http://www.w3.org/2000/svg" width="12" height="12" viewBox="0 0 12 12" fill="none">
  <path d="M4.70313 1.4453C4.8886 1.1671 5.20083 1 5.53518 1H6.46482C6.79917 1 7.1114 1.1671 7.29687 1.4453L7.75 2.125H9.625C9.83211 2.125 10 2.29289 10 2.5C10 2.70711 9.83211 2.875 9.625 2.875H2.375C2.16789 2.875 2 2.70711 2 2.5C2 2.29289 2.16789 2.125 2.375 2.125H4.25L4.70313 1.4453Z" fill="#E54D2E"/>
  <path fill-rule="evenodd" clip-rule="evenodd" d="M7.5 11H4.5C3.39543 11 2.5 10.1046 2.5 9V3.5H9.5V9C9.5 10.1046 8.60457 11 7.5 11ZM5 5.125C5.20711 5.125 5.375 5.29289 5.375 5.5V9C5.375 9.20711 5.20711 9.375 5 9.375C4.79289 9.375 4.625 9.20711 4.625 9L4.625 5.5C4.625 5.29289 4.79289 5.125 5 5.125ZM7 5.125C7.20711 5.125 7.375 5.29289 7.375 5.5V9C7.375 9.20711 7.20711 9.375 7 9.375C6.79289 9.375 6.625 9.20711 6.625 9V5.5C6.625 5.29289 6.79289 5.125 7 5.125Z" fill="#E54D2E"/>
</svg>