<svg width="13" height="13" viewBox="0 0 13 13" fill="none" xmlns="http://www.w3.org/2000/svg">
<path d="M5.25001 1.58299C5.43547 1.3048 5.74771 1.1377 6.08206 1.1377H7.01169C7.34604 1.1377 7.65828 1.3048 7.84374 1.583L8.29688 2.2627H10.1719C10.379 2.2627 10.5469 2.43059 10.5469 2.6377C10.5469 2.8448 10.379 3.0127 10.1719 3.0127H2.92188C2.71477 3.0127 2.54688 2.8448 2.54688 2.6377C2.54688 2.43059 2.71477 2.2627 2.92188 2.2627H4.79688L5.25001 1.58299Z" fill="#6A727C"/>
<path fill-rule="evenodd" clip-rule="evenodd" d="M8.04688 11.1377H5.04688C3.94231 11.1377 3.04688 10.2423 3.04688 9.1377V3.6377H10.0469V9.1377C10.0469 10.2423 9.15144 11.1377 8.04688 11.1377ZM5.54688 5.2627C5.75398 5.2627 5.92188 5.43059 5.92188 5.6377V9.1377C5.92188 9.3448 5.75398 9.5127 5.54688 9.5127C5.33977 9.5127 5.17188 9.3448 5.17188 9.1377L5.17188 5.6377C5.17188 5.43059 5.33977 5.2627 5.54688 5.2627ZM7.54688 5.2627C7.75398 5.2627 7.92188 5.43059 7.92188 5.6377V9.1377C7.92188 9.3448 7.75398 9.5127 7.54688 9.5127C7.33977 9.5127 7.17188 9.3448 7.17188 9.1377V5.6377C7.17188 5.43059 7.33977 5.2627 7.54688 5.2627Z" fill="#6A727C"/>
</svg>
