<?xml version="1.0" encoding="iso-8859-1"?>
<!-- Generator: Adobe Illustrator 19.0.0, SVG Export Plug-In . SVG Version: 6.00 Build 0)  -->
<svg version="1.1" id="Layer_1" xmlns="http://www.w3.org/2000/svg" xmlns:xlink="http://www.w3.org/1999/xlink" x="0px" y="0px"
	 viewBox="0 0 512 512" style="enable-background:new 0 0 512 512;" xml:space="preserve">
<rect x="104.923" y="191.732" style="fill:#F4B2B0;" width="302.163" height="304.524"/>
<g>
	<path style="fill:#B3404A;" d="M180.066,413.377c-8.69,0-15.738-7.047-15.738-15.738V296.918c0-8.69,7.047-15.738,15.738-15.738
		s15.738,7.047,15.738,15.738v100.721C195.803,406.329,188.756,413.377,180.066,413.377z"/>
	<path style="fill:#B3404A;" d="M256,413.377c-8.69,0-15.738-7.047-15.738-15.738V296.918c0-8.69,7.047-15.738,15.738-15.738
		c8.69,0,15.738,7.047,15.738,15.738v100.721C271.738,406.329,264.69,413.377,256,413.377z"/>
	<path style="fill:#B3404A;" d="M331.934,413.377c-8.69,0-15.738-7.047-15.738-15.738V296.918c0-8.69,7.047-15.738,15.738-15.738
		s15.738,7.047,15.738,15.738v100.721C347.672,406.329,340.625,413.377,331.934,413.377z"/>
	<path style="fill:#B3404A;" d="M395.935,73.706c-8.69,0-15.738,7.047-15.738,15.738s7.047,15.738,15.738,15.738
		c18.295,0,33.18,14.885,33.18,33.18v37.64H407.08H104.92H82.886v-37.64c0-18.295,14.885-33.18,33.18-33.18h163.541
		c8.69,0,15.738-7.047,15.738-15.738s-7.047-15.738-15.738-15.738h-92.852v-42.23h138.492v57.968c0,8.69,7.047,15.738,15.738,15.738
		s15.738-7.047,15.738-15.738V15.738c0-8.69-7.047-15.738-15.738-15.738H171.017c-8.69,0-15.738,7.047-15.738,15.738v57.968h-39.214
		c-35.651,0-64.655,29.005-64.655,64.655v53.377c0,8.69,7.047,15.738,15.738,15.738h22.034v288.786
		c0,8.69,7.047,15.738,15.738,15.738h302.16c8.69,0,15.738-7.047,15.738-15.738V207.476h22.034c8.69,0,15.738-7.047,15.738-15.738
		v-53.377C460.59,102.71,431.585,73.706,395.935,73.706z M391.342,480.525H120.658V207.476h270.685V480.525z"/>
</g>
<g>
</g>
<g>
</g>
<g>
</g>
<g>
</g>
<g>
</g>
<g>
</g>
<g>
</g>
<g>
</g>
<g>
</g>
<g>
</g>
<g>
</g>
<g>
</g>
<g>
</g>
<g>
</g>
<g>
</g>
</svg>
