<?xml version="1.0" encoding="iso-8859-1"?>
<!-- Generator: Adobe Illustrator 19.0.0, SVG Export Plug-In . SVG Version: 6.00 Build 0)  -->
<svg version="1.1" id="Layer_1" xmlns="http://www.w3.org/2000/svg" xmlns:xlink="http://www.w3.org/1999/xlink" x="0px" y="0px"
	 viewBox="0 0 459.864 459.864" style="enable-background:new 0 0 459.864 459.864;" xml:space="preserve">
<g>
	<g>
		<g>
			<path d="M395.988,193.978c-6.215,8.338-13.329,15.721-21.13,21.941c33.044,21.079,55.005,58.06,55.005,100.077
				c0,13.638-20.011,23.042-31.938,27.434c-9.301,3.425-20.237,6.229-32.19,8.347c0.387,5.05,0.586,10.153,0.586,15.3
				c0,4.455-0.389,9.647-1.518,15.299c16.064-2.497,30.815-6.128,43.488-10.794c42.626-15.694,51.573-38.891,51.573-55.586
				C459.863,265.52,434.565,220.85,395.988,193.978z"/>
			<path d="M311.244,15.147c-18.734,0-36.411,7.436-50.724,21.145c5.632,7.212,10.553,15.004,14.733,23.246
				c9.592-10.94,22.195-17.602,35.991-17.602c29.955,0,54.325,31.352,54.325,69.888s-24.37,69.888-54.325,69.888
				c-9.01,0-17.507-2.853-24.995-7.868c-2.432,8.863-5.627,17.42-9.53,25.565c10.642,5.952,22.36,9.093,34.525,9.093
				c45.83,0,81.115-44.3,81.115-96.678C392.359,59.441,357.069,15.147,311.244,15.147z"/>
			<path d="M259.999,226.28c-6.487,8.205-13.385,15.089-20.57,20.892c40.84,24.367,68.257,68.991,68.257,119.904
				c0,17.196-24.104,28.639-38.472,33.929c-26.025,9.583-62.857,15.078-101.053,15.078c-38.196,0-75.029-5.495-101.054-15.078
				c-14.368-5.29-38.472-16.732-38.472-33.929c0-50.914,27.417-95.538,68.257-119.904c-7.184-5.802-14.083-12.687-20.57-20.892
				C30.403,256.335,0,308.218,0,367.077c0,18.127,9.926,43.389,57.213,60.8c29.496,10.861,68.898,16.841,110.947,16.841
				c42.049,0,81.451-5.98,110.947-16.841c47.287-17.411,57.213-42.673,57.213-60.8C336.32,308.218,305.918,256.335,259.999,226.28z"
				/>
			<path d="M168.16,242.764c53.003,0,93.806-51.234,93.806-111.804c0-60.571-40.808-111.804-93.806-111.804
				c-52.995,0-93.806,51.223-93.806,111.804C74.354,191.542,115.169,242.764,168.16,242.764z M168.16,47.79
				c35.936,0,65.171,37.31,65.171,83.169s-29.236,83.169-65.171,83.169s-65.171-37.31-65.171-83.169S132.225,47.79,168.16,47.79z"/>
		</g>
	</g>
</g>
<g>
</g>
<g>
</g>
<g>
</g>
<g>
</g>
<g>
</g>
<g>
</g>
<g>
</g>
<g>
</g>
<g>
</g>
<g>
</g>
<g>
</g>
<g>
</g>
<g>
</g>
<g>
</g>
<g>
</g>
</svg>
