<svg width="18" height="18" viewBox="0 0 18 18" fill="none" xmlns="http://www.w3.org/2000/svg">
<path fill-rule="evenodd" clip-rule="evenodd" d="M7.47599 3.12444C8.14024 1.95852 9.85976 1.95852 10.524 3.12444L16.2781 13.2243C16.9237 14.3575 16.0834 15.75 14.7541 15.75H3.24591C1.91659 15.75 1.07633 14.3575 1.7219 13.2243L7.47599 3.12444ZM9.74995 12.75C9.74995 13.1642 9.41417 13.5 8.99995 13.5C8.58574 13.5 8.24995 13.1642 8.24995 12.75C8.24995 12.3358 8.58574 12 8.99995 12C9.41417 12 9.74995 12.3358 9.74995 12.75ZM9.56245 6.75C9.56245 6.43934 9.31061 6.1875 8.99995 6.1875C8.68929 6.1875 8.43745 6.43934 8.43745 6.75V10.5C8.43745 10.8107 8.68929 11.0625 8.99995 11.0625C9.31061 11.0625 9.56245 10.8107 9.56245 10.5V6.75Z" fill="#4368E3"/>
</svg>
