<svg width="30" height="28" viewBox="0 0 30 28" fill="none" xmlns="http://www.w3.org/2000/svg">
<path opacity="0.4" d="M11.952 2.24888C13.2805 -0.0829582 16.7195 -0.0829622 18.048 2.24888L29.5562 22.4486C30.8473 24.7149 29.1668 27.5 26.5082 27.5H3.49183C0.833188 27.5 -0.847344 24.7149 0.443806 22.4486L11.952 2.24888Z" fill="#ffcc00"/>
<path d="M16.5 21.5C16.5 22.3284 15.8284 23 15 23C14.1716 23 13.5 22.3284 13.5 21.5C13.5 20.6716 14.1716 20 15 20C15.8284 20 16.5 20.6716 16.5 21.5Z" fill="#000000"/>
<path fill-rule="evenodd" clip-rule="evenodd" d="M15 8.375C15.6213 8.375 16.125 8.87868 16.125 9.5V17C16.125 17.6213 15.6213 18.125 15 18.125C14.3787 18.125 13.875 17.6213 13.875 17V9.5C13.875 8.87868 14.3787 8.375 15 8.375Z" fill="#000000"/>
</svg>
