<svg xmlns="http://www.w3.org/2000/svg" width="14" height="14" viewBox="0 0 14 14" fill="none">
  <path d="M1.16797 3.49935C1.16797 2.21068 2.21264 1.16602 3.5013 1.16602H10.5013C11.79 1.16602 12.8346 2.21068 12.8346 3.49935V3.64518H1.16797V3.49935Z" fill="#8E4EC6"/>
  <path fill-rule="evenodd" clip-rule="evenodd" d="M1.16797 4.52018H12.8346V10.4993C12.8346 11.788 11.79 12.8327 10.5013 12.8327H3.5013C2.21264 12.8327 1.16797 11.788 1.16797 10.4993V4.52018ZM4.3316 6.74246C4.42958 6.52159 4.32996 6.26312 4.10909 6.16514C3.88822 6.06716 3.62974 6.16678 3.53176 6.38765L3.51393 6.42786C2.98975 7.60948 2.96823 8.95337 3.4543 10.1512L3.52629 10.3286C3.61714 10.5525 3.8723 10.6603 4.09619 10.5695C4.32008 10.4786 4.42793 10.2234 4.33707 9.99956L4.26508 9.82215C3.86829 8.84434 3.88586 7.74727 4.31376 6.78267L4.3316 6.74246ZM10.4708 6.38765C10.3729 6.16678 10.1144 6.06716 9.89352 6.16514C9.67265 6.26311 9.57303 6.52159 9.67101 6.74246L9.68884 6.78267C10.1167 7.74727 10.1343 8.84434 9.73752 9.82215L9.66553 9.99956C9.57468 10.2234 9.68252 10.4786 9.90641 10.5695C10.1303 10.6603 10.3855 10.5525 10.4763 10.3286L10.5483 10.1512C11.0344 8.95337 11.0129 7.60948 10.4887 6.42786L10.4708 6.38765ZM6.07314 6.81767C5.90229 6.64681 5.62528 6.64681 5.45442 6.81767C5.28357 6.98852 5.28357 7.26553 5.45442 7.43638L6.38258 8.36454L5.45442 9.2927C5.28357 9.46356 5.28357 9.74057 5.45442 9.91142C5.62528 10.0823 5.90229 10.0823 6.07314 9.91142L7.0013 8.98326L7.92946 9.91142C8.10032 10.0823 8.37733 10.0823 8.54818 9.91142C8.71903 9.74057 8.71903 9.46356 8.54818 9.2927L7.62002 8.36454L8.54818 7.43638C8.71903 7.26553 8.71903 6.98852 8.54818 6.81767C8.37733 6.64681 8.10032 6.64681 7.92946 6.81767L7.0013 7.74582L6.07314 6.81767Z" fill="#8E4EC6"/>
</svg>