 <svg className="me-2" width="36" height="20" viewBox="0 0 36 20" fill="none" xmlns="http://www.w3.org/2000/svg">
    <path
    fillRule="evenodd"
    clipRule="evenodd"
    d="M3.17624 4.81171C3.46439 4.95579 3.58119 5.30618 3.43711 5.59434C2.06727 8.33403 2.04895 11.0707 3.45383 14.4424C3.57774 14.7398 3.43711 15.0813 3.13972 15.2053C2.84234 15.3292 2.50081 15.1885 2.3769 14.8912C0.865116 11.2629 0.846794 8.16623 2.39362 5.07259C2.53769 4.78443 2.88809 4.66763 3.17624 4.81171ZM10.8212 4.81171C11.1093 4.66763 11.4597 4.78443 11.6038 5.07259C13.1506 8.16623 13.1323 11.2629 11.6205 14.8912C11.4966 15.1885 11.1551 15.3292 10.8577 15.2053C10.5603 15.0813 10.4197 14.7398 10.5436 14.4424C11.9485 11.0707 11.9301 8.33403 10.5603 5.59434C10.4162 5.30618 10.533 4.95579 10.8212 4.81171ZM4.66536 8.25013C4.66536 7.92796 4.92653 7.66679 5.2487 7.66679H5.83203C6.08742 7.66679 6.33969 7.73541 6.55667 7.92013C6.74932 8.08415 6.86567 8.30071 6.94941 8.48875C7.02257 8.65303 7.09385 8.85138 7.16877 9.06349C7.31808 8.87827 7.47706 8.6968 7.64351 8.53036C8.06563 8.10823 8.64856 7.66679 9.33203 7.66679C9.6542 7.66679 9.91537 7.92796 9.91537 8.25013C9.91537 8.57229 9.6542 8.83346 9.33203 8.83346C9.1405 8.83346 8.84843 8.97535 8.46847 9.35531C8.17903 9.64476 7.90255 10.0073 7.65542 10.3632C7.75317 10.6211 7.83233 10.8472 7.89978 11.0406L7.90116 11.0445C7.99367 11.3098 8.05643 11.4897 8.11643 11.625C8.14481 11.6889 8.16634 11.7278 8.18026 11.7501H8.7487C9.07086 11.7501 9.33203 12.0113 9.33203 12.3335C9.33203 12.6556 9.07086 12.9168 8.7487 12.9168H8.16537C7.91029 12.9168 7.65832 12.8484 7.44171 12.6645C7.24884 12.5009 7.1329 12.285 7.04996 12.098C6.97622 11.9317 6.90504 11.731 6.83058 11.5177C6.6807 11.7037 6.52106 11.8861 6.35389 12.0532C5.93176 12.4754 5.34883 12.9168 4.66536 12.9168C4.3432 12.9168 4.08203 12.6556 4.08203 12.3335C4.08203 12.0113 4.3432 11.7501 4.66536 11.7501C4.8569 11.7501 5.14897 11.6082 5.52893 11.2283C5.81974 10.9375 6.09746 10.5729 6.34549 10.2153C6.25045 9.96608 6.17275 9.7469 6.1062 9.55833L6.10118 9.54412C6.00793 9.27988 5.94428 9.09951 5.88365 8.96336C5.85385 8.89645 5.83142 8.85631 5.81708 8.83346H5.2487C4.92653 8.83346 4.66536 8.57229 4.66536 8.25013Z"
    fill="#6E56CF"
    />
    <path
    d="M22.4102 13.0801V14H17.8926V13.0801H22.4102ZM18.1211 5.46875V14H16.9902V5.46875H18.1211ZM21.8125 9.13672V10.0566H17.8926V9.13672H21.8125ZM22.3516 5.46875V6.39453H17.8926V5.46875H22.3516ZM24.7305 9.01367V14H23.6465V7.66016H24.6719L24.7305 9.01367ZM24.4727 10.5898L24.0215 10.5723C24.0254 10.1387 24.0898 9.73828 24.2148 9.37109C24.3398 9 24.5156 8.67773 24.7422 8.4043C24.9688 8.13086 25.2383 7.91992 25.5508 7.77148C25.8672 7.61914 26.2168 7.54297 26.5996 7.54297C26.9121 7.54297 27.1934 7.58594 27.4434 7.67188C27.6934 7.75391 27.9062 7.88672 28.082 8.07031C28.2617 8.25391 28.3984 8.49219 28.4922 8.78516C28.5859 9.07422 28.6328 9.42773 28.6328 9.8457V14H27.543V9.83398C27.543 9.50195 27.4941 9.23633 27.3965 9.03711C27.2988 8.83398 27.1562 8.6875 26.9688 8.59766C26.7812 8.50391 26.5508 8.45703 26.2773 8.45703C26.0078 8.45703 25.7617 8.51367 25.5391 8.62695C25.3203 8.74023 25.1309 8.89648 24.9707 9.0957C24.8145 9.29492 24.6914 9.52344 24.6016 9.78125C24.5156 10.0352 24.4727 10.3047 24.4727 10.5898ZM32.207 13.0215L33.9414 7.66016H35.0488L32.7695 14H32.043L32.207 13.0215ZM30.7598 7.66016L32.5469 13.0508L32.6699 14H31.9434L29.6465 7.66016H30.7598Z"
    fill="#644FC1"
    />
</svg>