<?xml version="1.0" encoding="iso-8859-1"?>
<!-- Generator: Adobe Illustrator 19.0.0, SVG Export Plug-In . SVG Version: 6.00 Build 0)  -->
<svg version="1.1" id="Capa_1" xmlns="http://www.w3.org/2000/svg" xmlns:xlink="http://www.w3.org/1999/xlink" x="0px" y="0px"
	 viewBox="0 0 52.966 52.966" style="enable-background:new 0 0 52.966 52.966;" xml:space="preserve">
<g>
	<path d="M28.983,20h-6v-6c0-0.552-0.448-1-1-1s-1,0.448-1,1v6h-6c-0.552,0-1,0.448-1,1s0.448,1,1,1h6v6c0,0.552,0.448,1,1,1
		s1-0.448,1-1v-6h6c0.552,0,1-0.448,1-1S29.535,20,28.983,20z"/>
	<path d="M51.704,51.273L36.845,35.82c3.79-3.801,6.138-9.041,6.138-14.82c0-11.58-9.42-21-21-21s-21,9.42-21,21s9.42,21,21,21
		c5.083,0,9.748-1.817,13.384-4.832l14.895,15.491c0.196,0.205,0.458,0.307,0.721,0.307c0.25,0,0.499-0.093,0.693-0.279
		C52.074,52.304,52.086,51.671,51.704,51.273z M2.983,21c0-10.477,8.523-19,19-19s19,8.523,19,19s-8.523,19-19,19
		S2.983,31.477,2.983,21z"/>
</g>
<g>
</g>
<g>
</g>
<g>
</g>
<g>
</g>
<g>
</g>
<g>
</g>
<g>
</g>
<g>
</g>
<g>
</g>
<g>
</g>
<g>
</g>
<g>
</g>
<g>
</g>
<g>
</g>
<g>
</g>
</svg>
