
<svg id="Layer_1" data-name="Layer 1" xmlns="http://www.w3.org/2000/svg" viewBox="0 0 150 150">
  <title>Cloud Storage</title>
  <path d="M126.47,58.12l-26.3-45.74A11.56,11.56,0,0,0,90.31,6.5H37.7a11.55,11.55,0,0,0-9.86,5.88L1.53,58a11.48,11.48,0,0,0,0,11.44l26.3,46a11.77,11.77,0,0,0,9.86,6.09H90.3a11.73,11.73,0,0,0,9.87-6.06l26.3-45.74A11.73,11.73,0,0,0,126.47,58.12Z" style="fill: #4285f4"/>
  <path d="M85.49,50.55,49.31,53.88l-7,7,6,6L42.36,77.3l44.2,44.2H90.3a11.73,11.73,0,0,0,9.87-6.06L118.5,83.56Z" style="opacity: 0.070000000298023;isolation: isolate"/>
  <g id="art">
    <g>
      <path d="M84.7,50.27H43.26A1.22,1.22,0,0,0,42,51.48v8.57a1.21,1.21,0,0,0,1.21,1.21H84.7a1.22,1.22,0,0,0,1.21-1.21V51.48a1.22,1.22,0,0,0-1.21-1.21m-6.41,8a2.48,2.48,0,1,1,2.48-2.48,2.48,2.48,0,0,1-2.48,2.48" style="fill: #fff"/>
      <path d="M84.7,66.74H43.26A1.22,1.22,0,0,0,42,68v8.57a1.22,1.22,0,0,0,1.21,1.21H84.7a1.22,1.22,0,0,0,1.21-1.21V67.95a1.22,1.22,0,0,0-1.21-1.21m-6.41,8a2.48,2.48,0,1,1,2.48-2.48,2.48,2.48,0,0,1-2.48,2.48" style="fill: #fff"/>
    </g>
  </g>
</svg>
