<svg width="100%" height="100%" viewBox="0 0 24 24" fill="none" xmlns="http://www.w3.org/2000/svg">
<path d="M5.21071 21.6033L0.288857 13.0781C0.0996232 12.7503 0 12.3785 0 12C0 11.6216 0.0996232 11.2498 0.288857 10.922L5.21071 2.39697C5.39998 2.06916 5.6722 1.79695 6.00001 1.6077C6.32783 1.41845 6.69969 1.31882 7.07821 1.31885H16.9219C17.3004 1.31886 17.6722 1.41849 18 1.60774C18.3278 1.79699 18.6 2.06919 18.7892 2.39697L23.7111 10.922C23.9004 11.2498 24 11.6216 24 12.0001C24 12.3786 23.9004 12.7505 23.7111 13.0782L18.7892 21.6031C18.6 21.9309 18.3278 22.2031 18 22.3923C17.6722 22.5816 17.3004 22.6812 16.9219 22.6812H7.07821C6.69968 22.6813 6.32782 22.5816 6 22.3924C5.67218 22.2031 5.39996 21.9309 5.21071 21.6031V21.6033Z" fill="url(#paint0_linear_817_123567)"/>
<path opacity="0.07" d="M9.22862 10.0932L7.93213 11.386L9.03387 12.4879L7.94304 14.4254L16.1982 22.6808L18.1986 22.6812L22.1053 15.6648L15.9193 9.47821L9.22862 10.0932Z" fill="black"/>
<path d="M15.8812 9.42572H8.11202C7.98695 9.42572 7.88477 9.5281 7.88477 9.65335V11.2595C7.88477 11.3843 7.98714 11.4867 8.11202 11.4867H15.8812C16.0063 11.4867 16.1087 11.3843 16.1087 11.2595V9.65297C16.1087 9.5281 16.0065 9.42554 15.8814 9.42554M14.6784 10.921C14.5553 10.9207 14.4372 10.8716 14.3502 10.7844C14.2632 10.6973 14.2142 10.5792 14.214 10.456C14.2139 10.395 14.2259 10.3346 14.2492 10.2782C14.2726 10.2219 14.3068 10.1707 14.3499 10.1275C14.3931 10.0844 14.4443 10.0502 14.5006 10.0269C14.557 10.0035 14.6174 9.99155 14.6784 9.9916C14.9353 9.9916 15.1434 10.1984 15.1434 10.456C15.1434 10.5171 15.1314 10.5776 15.108 10.634C15.0847 10.6904 15.0504 10.7417 15.0072 10.7848C14.9641 10.828 14.9128 10.8623 14.8564 10.8856C14.8 10.909 14.7395 10.921 14.6784 10.921ZM15.8812 12.5131L8.11202 12.5135C7.98695 12.5135 7.88477 12.6158 7.88477 12.7411V14.347C7.88477 14.4719 7.98714 14.5745 8.11202 14.5745H15.8812C16.0063 14.5745 16.1087 14.4719 16.1087 14.347V12.7407C16.1087 12.6158 16.0065 12.5131 15.8814 12.5131M14.6784 14.0086C14.5552 14.0083 14.4372 13.9592 14.3502 13.872C14.2631 13.7849 14.2141 13.6668 14.214 13.5436C14.2139 13.4826 14.2259 13.4222 14.2492 13.3658C14.2726 13.3094 14.3068 13.2582 14.3499 13.2151C14.3931 13.1719 14.4443 13.1377 14.5006 13.1144C14.557 13.0911 14.6174 13.0791 14.6784 13.0791C14.741 13.0766 14.8035 13.0868 14.862 13.109C14.9206 13.1312 14.9741 13.165 15.0192 13.2084C15.0644 13.2518 15.1003 13.3039 15.1249 13.3615C15.1494 13.4191 15.1621 13.4811 15.1621 13.5438C15.1621 13.6064 15.1494 13.6684 15.1249 13.726C15.1003 13.7836 15.0644 13.8357 15.0192 13.8791C14.9741 13.9225 14.9206 13.9563 14.862 13.9785C14.8035 14.0008 14.741 14.0109 14.6784 14.0084" fill="white"/>
<defs>
<linearGradient id="paint0_linear_817_123567" x1="12.0001" y1="1.31904" x2="12.0001" y2="22.648" gradientUnits="userSpaceOnUse">
<stop stop-color="#4387FD"/>
<stop offset="1" stop-color="#4683EA"/>
</linearGradient>
</defs>
</svg>
