<svg xmlns="http://www.w3.org/2000/svg" width="100%" height="100%" viewBox="0 0 32 32" fill="none"><path fill="#0F62FE" d="M16 3C10.702 3 5 4.252 5 7v18c0 2.748 5.702 4 11 4s11-1.252 11-4V7c0-2.748-5.702-4-11-4m0 2c5.798 0 8.795 1.434 8.997 2c-.202.566-3.2 2-8.997 2c-5.841 0-8.84-1.456-9-1.982v-.005C7.16 6.456 10.159 5 16 5M7 9.428C9.128 10.495 12.643 11 16 11s6.872-.505 9-1.572v3.56c-.16.556-3.159 2.012-9 2.012c-5.85 0-8.85-1.46-9-2zm0 6C9.128 16.495 12.643 17 16 17s6.872-.505 9-1.572v3.56c-.16.556-3.159 2.012-9 2.012c-5.85 0-8.85-1.46-9-2zM16 27c-5.85 0-8.85-1.46-9-2v-3.572C9.128 22.495 12.643 23 16 23s6.872-.505 9-1.572v3.56c-.16.556-3.159 2.012-9 2.012"/></svg>
