<svg width="17" height="16" viewBox="0 0 17 16" fill="none" xmlns="http://www.w3.org/2000/svg">
<path fill-rule="evenodd" clip-rule="evenodd" d="M14.7969 1.98145C15.2571 1.98145 15.6302 2.35454 15.6302 2.81478V8.7407C15.6302 9.31972 15.4314 9.89459 15.049 10.3348C14.6634 10.7787 14.1131 11.0555 13.5098 11.0555H4.14202L5.68243 12.5959C6.00786 12.9214 6.00786 13.449 5.68243 13.7744C5.35699 14.0999 4.82935 14.0999 4.50392 13.7744L1.54095 10.8115C1.38467 10.6552 1.29688 10.4432 1.29688 10.2222C1.29688 10.0012 1.38467 9.78924 1.54095 9.63296L4.50392 6.67C4.82935 6.34456 5.35699 6.34456 5.68243 6.67C6.00786 6.99544 6.00786 7.52307 5.68243 7.84851L4.14208 9.38885H13.5098C13.5893 9.38885 13.6937 9.3535 13.7908 9.24175C13.8911 9.12629 13.9635 8.94751 13.9635 8.7407V2.81478C13.9635 2.35454 14.3366 1.98145 14.7969 1.98145Z" fill="white"/>
</svg>
