<svg xmlns="http://www.w3.org/2000/svg" xmlns:xlink="http://www.w3.org/1999/xlink" class="ck ck-icon ck-button__icon" viewBox="0 0 20 20">
<path fill="#434B53" d="M7 5.75c0 .414.336.75.75.75h9.5a.75.75 0 1 0 0-1.5h-9.5a.75.75 0 0 0-.75.75zM3.5 3v5H2V3.7H1v-1h2.5V3zM.343 17.857l2.59-3.257H2.92a.6.6 0 1 0-1.04 0H.302a2 2 0 1 1 3.995 0h-.001c-.048.405-.16.734-.333.988-.175.254-.59.692-1.244 1.312H4.3v1h-4l.043-.043zM7 14.75a.75.75 0 0 1 .75-.75h9.5a.75.75 0 1 1 0 1.5h-9.5a.75.75 0 0 1-.75-.75z"></path></svg>
