<svg xmlns="http://www.w3.org/2000/svg" xmlns:xlink="http://www.w3.org/1999/xlink" class="" viewBox="0 0 20 20"><path d="M7 5.75c0 .414.336.75.75.75h9.5a.75.75 0 1 0 0-1.5h-9.5a.75.75 0 0 0-.75.75zm-6 0C1 4.784 1.777 4 2.75 4c.966 0 1.75.777 1.75 1.75 0 .966-.777 1.75-1.75 1.75C1.784 7.5 1 6.723 1 5.75zm6 9c0 .414.336.75.75.75h9.5a.75.75 0 1 0 0-1.5h-9.5a.75.75 0 0 0-.75.75zm-6 0c0-.966.777-1.75 1.75-1.75.966 0 1.75.777 1.75 1.75 0 .966-.777 1.75-1.75 1.75-.966 0-1.75-.777-1.75-1.75z"></path></svg>
