<svg width="40" height="40" viewBox="0 0 40 40" fill="none" xmlns="http://www.w3.org/2000/svg">
<path fill-rule="evenodd" clip-rule="evenodd" d="M20 8C13.37 8 8 13.5058 8 20.3035C8 25.7478 11.435 30.3463 16.205 31.9765C16.805 32.0842 17.03 31.715 17.03 31.3921C17.03 31.0999 17.015 30.131 17.015 29.1005C14 29.6696 13.22 28.347 12.98 27.6549C12.845 27.3012 12.26 26.2092 11.75 25.917C11.33 25.6863 10.73 25.1173 11.735 25.1019C12.68 25.0865 13.355 25.9939 13.58 26.363C14.66 28.2239 16.385 27.701 17.075 27.3781C17.18 26.5783 17.495 26.04 17.84 25.7325C15.17 25.4249 12.38 24.3637 12.38 19.6576C12.38 18.3196 12.845 17.2123 13.61 16.351C13.49 16.0434 13.07 14.7823 13.73 13.0906C13.73 13.0906 14.735 12.7676 17.03 14.3517C17.99 14.0749 19.01 13.9365 20.03 13.9365C21.05 13.9365 22.07 14.0749 23.03 14.3517C25.325 12.7522 26.33 13.0906 26.33 13.0906C26.99 14.7823 26.57 16.0434 26.45 16.351C27.215 17.2123 27.68 18.3042 27.68 19.6576C27.68 24.3791 24.875 25.4249 22.205 25.7325C22.64 26.1169 23.015 26.8552 23.015 28.0086C23.015 29.6542 23 30.9768 23 31.3921C23 31.715 23.225 32.0995 23.825 31.9765C26.2072 31.1519 28.2773 29.5822 29.7438 27.4882C31.2103 25.3942 31.9994 22.8814 32 20.3035C32 13.5058 26.63 8 20 8Z" fill="black"/>
</svg>
