<svg id="Layer_1" data-name="Layer 1" xmlns="http://www.w3.org/2000/svg" viewBox="0 0 500 500"><defs><style>.cls-1{fill:#0f1689;}</style></defs><path class="cls-1" d="M136.52938,121.13478c-.572-.54252-1.19462-1.12636-1.81-1.71761-12.61677-12.12115-22.38092-26.13637-28.279-42.702-1.65073-4.63637-2.89692-9.36515-2.67587-14.35871.021-.4739.01959-.94915.05226-1.42214.445-6.44594,4.75912-9.70322,11.05839-8.17669a27.325,27.325,0,0,1,5.73149,2.19653c6.89022,3.45538,12.5062,8.56359,17.67051,14.16571a112.52651,112.52651,0,0,1,21.722,33.42965,8.29635,8.29635,0,0,0,.38946.861c.07116.12855.22232.21282.55927.51883A176.357,176.357,0,0,1,241.968,79.06864c-.17651-.8761-.28195-1.54571-.44772-2.2a112.49436,112.49436,0,0,1-2.65292-36.95637,84.07478,84.07478,0,0,1,4.44444-21.76378,31.32555,31.32555,0,0,1,5.47651-10.17139,15.687,15.687,0,0,1,3.16336-2.82149,7.026,7.026,0,0,1,8.03255-.056,17.27854,17.27854,0,0,1,5.8402,6.73185A53.05435,53.05435,0,0,1,271.08657,26.508a112.50469,112.50469,0,0,1,2.12263,33.00356,95.59806,95.59806,0,0,1-3.49052,19.91081c7.12171,1.31193,14.20955,2.32869,21.1473,3.97713a186.37909,186.37909,0,0,1,20.44069,6.0033A188.31671,188.31671,0,0,1,331.0769,97.9721c6.34538,3.16433,12.38553,6.94066,18.71757,10.53829.20571-.433.50439-.94982.706-1.50212A108.65959,108.65959,0,0,1,383.40128,60.246a37.75787,37.75787,0,0,1,11.822-6.883,17.24558,17.24558,0,0,1,3.67827-.84512c6.264-.71729,8.89351,3.2244,9.35653,7.93183a29.94372,29.94372,0,0,1-.77381,10.35466A87.90551,87.90551,0,0,1,396.75426,95.492c-6.79016,10.97178-14.85015,20.85494-25.09307,28.83042-.30234.2354-.56784.51814-1.07988.99029a177.77993,177.77993,0,0,1,26.59293,30.88244,10.96227,10.96227,0,0,1-1.689.29762c-10.59546.015-21.1911-.01829-31.78622.04607a4.004,4.004,0,0,1-3.17246-1.69,147.87522,147.87522,0,0,0-88.17776-46.54846,143.35862,143.35862,0,0,0-30.27955-1.16923,146.40735,146.40735,0,0,0-82.53728,31.81054,140.06663,140.06663,0,0,0-16.97616,15.84186,4.72839,4.72839,0,0,1-3.86326,1.75742c-10.12056-.07028-20.24188-.035-30.36293-.03495h-2.15212c.618-2.408,6.84026-10.93786,13.88352-18.55281C125.31349,132.2744,130.87768,126.8839,136.52938,121.13478Z"/><path class="cls-1" d="M394.52934,347.9123a176.63854,176.63854,0,0,1-23.97343,27.16338c.70941.59068,1.28594,1.07041,1.86212,1.55057A108.31456,108.31456,0,0,1,406.10131,424.772a34.61831,34.61831,0,0,1,2.202,14.42026,14.88544,14.88544,0,0,1-.74786,3.69206,7.20762,7.20762,0,0,1-8.15793,5.02308,22.23329,22.23329,0,0,1-6.76276-2.00629,51.23237,51.23237,0,0,1-9.18151-5.8151,107.59183,107.59183,0,0,1-32.936-46.7072c-.18746-.51334-.39218-1.0204-.72243-1.87691a194.65008,194.65008,0,0,1-25.01223,14.00774,181.66925,181.66925,0,0,1-26.6869,9.72442,187.55649,187.55649,0,0,1-28.3045,5.38805c.16807.84015.26446,1.5098.43745,2.15907a109.172,109.172,0,0,1,2.9708,36.44311,80.804,80.804,0,0,1-4.42286,22.4773,78.24971,78.24971,0,0,1-4.16475,8.74473,13.39,13.39,0,0,1-2.33865,2.97083c-3.98009,4.109-8.73225,4.144-12.61157-.07366a27.28012,27.28012,0,0,1-3.907-5.61776c-3.07685-5.77569-4.6604-12.056-5.791-18.46021a116.86329,116.86329,0,0,1-1.35893-26.465,94.4795,94.4795,0,0,1,2.88466-19.18513c.14009-.53269.268-1.0696.37134-1.61034.02629-.13754-.06342-.2973-.17067-.73825a176.12108,176.12108,0,0,1-80.96855-24.99386c-.40992.90921-.76206,1.67473-1.10168,2.44579a110.47729,110.47729,0,0,1-30.90112,41.42041,38.16071,38.16071,0,0,1-12.04706,6.95909,12.08987,12.08987,0,0,1-6.51516.70023,7.11858,7.11858,0,0,1-5.40329-4.4892c-1.41614-3.424-1.16526-6.985-.68438-10.51691a55.45267,55.45267,0,0,1,4.30768-14.25037A112.49985,112.49985,0,0,1,134.88761,380.779c.459-.43461.92981-.857,1.38087-1.29954a3.76029,3.76029,0,0,0,.36534-.65529,178.90466,178.90466,0,0,1-28.469-31.31672c.98458-.08018,1.64327-.18,2.30205-.1806,10.51436-.00976,21.029.02736,31.54284-.04358a4.70554,4.70554,0,0,1,3.70344,1.62615,146.94611,146.94611,0,0,0,39.40276,28.88494,139.94667,139.94667,0,0,0,49.70395,14.77367q70.68048,6.87067,121.59971-42.85452a7.64571,7.64571,0,0,1,5.99261-2.44347c9.80139.12121,19.60512.04986,29.408.04986h2.53353Z"/><path class="cls-1" d="M350.73576,197.76167c2.78711,0,5.47037.18919,8.11487-.0501,2.9951-.271,5.139.8001,7.32354,2.81308,12.61275,11.62214,25.35732,23.10129,38.05863,34.62729.63855.57948,1.29039,1.14432,2.1101,1.8701.76445-.65718,1.48119-1.24318,2.16483-1.8655Q428.14636,217.27914,447.756,199.37a5.44772,5.44772,0,0,1,4.20358-1.64576c3.21888.13038,6.44673.03746,9.8412.03746V303.13036c-1.72309.50368-24.8756.60366-27.63911.0611v-53.362l-.53656-.25427c-9.01079,8.21784-18.0216,16.43564-27.23786,24.8408-9.22584-8.31119-18.34194-16.52347-27.458-24.73577l-.52449.19192c-.023,4.45359-.00774,8.90828-.01046,13.36233q-.00408,6.63942-.00058,13.27882v26.87211h-27.428C350.45161,301.61243,350.21289,203.72342,350.73576,197.76167Z"/><path class="cls-1" d="M97.63436,197.88229h27.26325c.55054,1.75251.65821,102.97139.09469,105.525H97.70468c-.15021-6.70344-.04736-13.38394-.06622-20.06131-.01871-6.62261-.0041-13.24531-.0041-20.03958H63.84679V303.047c-2.05946.61518-25.33374.67417-27.64758.123V197.89436H63.73742v37.18876c1.96793.56844,30.92319.67339,33.872.12942.00818-2.97713.02-6.02646.024-9.0758q.0063-4.7433.00094-9.4866,0-4.625,0-9.25C97.63437,204.32179,97.63436,201.24346,97.63436,197.88229Z"/><path class="cls-1" d="M157.5757,303.3683V198.1946c1.617-.52913,61.545-.73586,65.46219-.20457v22.41432c-.87869.063-1.7857.18341-2.69279.18454q-16.0086.01994-32.01725.00881l-2.96767,0v17.43353H218.7067V261.2229H185.65838c-.55339,1.98509-.70531,15.81681-.25622,19.64583.84488.05679,1.75.16952,2.6553.17059q16.00862.01863,32.01727.00822h2.96945V303.3683Z"/><path class="cls-1" d="M254.28291,303.40855c-.50074-2.82232-.39948-103.60181.09747-105.51735h27.16208v77.76453c1.17173.06084,2.09122.14921,3.01077.15005q16.128.01468,32.2561.00658c.92562,0,1.85125,0,2.90733,0v27.59622Z"/></svg>