<?xml version="1.0" encoding="iso-8859-1"?>
<!-- Generator: Adobe Illustrator 19.0.0, SVG Export Plug-In . SVG Version: 6.00 Build 0)  -->
<svg version="1.1" id="Layer_1" xmlns="http://www.w3.org/2000/svg" xmlns:xlink="http://www.w3.org/1999/xlink" x="0px" y="0px"
	 viewBox="0 0 512 512" style="enable-background:new 0 0 512 512;" xml:space="preserve">
<g>
	<path style="fill:#FDC794;" d="M114.759,361.842c0-24.373-19.765-44.138-44.138-44.138s-44.138,19.765-44.138,44.138
		c0,24.373,19.765,44.138,44.138,44.138S114.759,386.215,114.759,361.842"/>
	<path style="fill:#0F81E0;" d="M70.621,441.379C31.391,441.379,0,468.047,0,485.517V512h141.241v-26.483
		C141.241,468.047,109.85,441.379,70.621,441.379"/>
	<path style="fill:#FDC794;" d="M300.138,361.842c0-24.373-19.765-44.138-44.138-44.138s-44.138,19.765-44.138,44.138
		c0,24.373,19.765,44.138,44.138,44.138S300.138,386.215,300.138,361.842"/>
	<path style="fill:#0F81E0;" d="M256,441.379c-39.23,0-70.621,26.668-70.621,44.138V512h141.241v-26.483
		C326.621,468.047,295.23,441.379,256,441.379"/>
	<path style="fill:#FDC794;" d="M485.517,361.842c0-24.373-19.765-44.138-44.138-44.138s-44.138,19.765-44.138,44.138
		c0,24.373,19.765,44.138,44.138,44.138S485.517,386.215,485.517,361.842"/>
	<path style="fill:#0F81E0;" d="M441.379,441.379c-39.23,0-70.621,26.668-70.621,44.138V512H512v-26.483
		C512,468.047,480.609,441.379,441.379,441.379"/>
	<g>
		<path style="fill:#434C6D;" d="M256,273.655c-4.882,0-8.828-3.955-8.828-8.828V123.586c0-4.873,3.946-8.828,8.828-8.828
			s8.828,3.955,8.828,8.828v141.241C264.828,269.7,260.882,273.655,256,273.655"/>
		<path style="fill:#434C6D;" d="M441.379,273.655c-4.882,0-8.828-3.955-8.828-8.828v-26.483c0-29.21-23.755-52.966-52.966-52.966
			H132.414c-29.21,0-52.966,23.755-52.966,52.966v26.483c0,4.873-3.946,8.828-8.828,8.828c-4.882,0-8.828-3.955-8.828-8.828v-26.483
			c0-38.938,31.682-70.621,70.621-70.621h247.172c38.938,0,70.621,31.682,70.621,70.621v26.483
			C450.207,269.7,446.261,273.655,441.379,273.655"/>
	</g>
	<path style="fill:#7383BF;" d="M397.241,123.586H114.759c-9.754,0-17.655-7.901-17.655-17.655V17.655
		C97.103,7.901,105.004,0,114.759,0h282.483c9.754,0,17.655,7.901,17.655,17.655v88.276
		C414.897,115.686,406.996,123.586,397.241,123.586"/>
	<g>
		<path style="fill:#FFFFFF;" d="M132.414,97.103c-4.882,0-8.828-3.955-8.828-8.828V35.31c0-4.873,3.946-8.828,8.828-8.828
			c4.882,0,8.828,3.955,8.828,8.828v52.966C141.241,93.149,137.295,97.103,132.414,97.103"/>
		<path style="fill:#FFFFFF;" d="M167.724,97.103c-4.882,0-8.828-3.955-8.828-8.828V35.31c0-4.873,3.946-8.828,8.828-8.828
			s8.828,3.955,8.828,8.828v52.966C176.552,93.149,172.606,97.103,167.724,97.103"/>
		<path style="fill:#FFFFFF;" d="M220.69,97.103c-4.882,0-8.828-3.955-8.828-8.828V35.31c0-4.873,3.946-8.828,8.828-8.828
			s8.828,3.955,8.828,8.828v52.966C229.517,93.149,225.571,97.103,220.69,97.103"/>
		<path style="fill:#FFFFFF;" d="M167.724,70.621h-35.31c-4.882,0-8.828-3.955-8.828-8.828s3.946-8.828,8.828-8.828h35.31
			c4.882,0,8.828,3.955,8.828,8.828S172.606,70.621,167.724,70.621"/>
		<path style="fill:#FFFFFF;" d="M238.345,44.138h-35.31c-4.882,0-8.828-3.955-8.828-8.828s3.946-8.828,8.828-8.828h35.31
			c4.882,0,8.828,3.955,8.828,8.828S243.226,44.138,238.345,44.138"/>
		<path style="fill:#FFFFFF;" d="M291.31,97.103c-4.882,0-8.828-3.955-8.828-8.828V35.31c0-4.873,3.946-8.828,8.828-8.828
			c4.882,0,8.828,3.955,8.828,8.828v52.966C300.138,93.149,296.192,97.103,291.31,97.103"/>
		<path style="fill:#FFFFFF;" d="M308.966,44.138h-35.31c-4.882,0-8.828-3.955-8.828-8.828s3.946-8.828,8.828-8.828h35.31
			c4.882,0,8.828,3.955,8.828,8.828S313.847,44.138,308.966,44.138"/>
		<path style="fill:#FFFFFF;" d="M353.103,61.793h8.828c4.873,0,8.828-3.964,8.828-8.828s-3.955-8.828-8.828-8.828h-8.828V61.793z
			 M344.276,97.103c-4.882,0-8.828-3.955-8.828-8.828V35.31c0-4.873,3.946-8.828,8.828-8.828h17.655
			c14.601,0,26.483,11.882,26.483,26.483s-11.882,26.483-26.483,26.483h-8.828v8.828C353.103,93.149,349.158,97.103,344.276,97.103
			L344.276,97.103z"/>
	</g>
</g>
<g>
</g>
<g>
</g>
<g>
</g>
<g>
</g>
<g>
</g>
<g>
</g>
<g>
</g>
<g>
</g>
<g>
</g>
<g>
</g>
<g>
</g>
<g>
</g>
<g>
</g>
<g>
</g>
<g>
</g>
</svg>
