<?xml version="1.0" encoding="iso-8859-1"?>
<!-- Generator: Adobe Illustrator 19.0.0, SVG Export Plug-In . SVG Version: 6.00 Build 0)  -->
<svg version="1.1" id="Layer_1" xmlns="http://www.w3.org/2000/svg" xmlns:xlink="http://www.w3.org/1999/xlink" x="0px" y="0px"
	 viewBox="0 0 512 512" style="enable-background:new 0 0 512 512;" xml:space="preserve">
<path style="fill:#5D9BEB;" d="M0,256.006C0,397.402,114.606,512.004,255.996,512C397.394,512.004,512,397.402,512,256.006
	C512.009,114.61,397.394,0,255.996,0C114.606,0,0,114.614,0,256.006z"/>
<path style="fill:#4988DB;" d="M505.249,314.319c-0.272-0.272-205.68-205.733-206.24-206.241c-4.093-4.525-9.948-7.424-16.517-7.424
	h-52.985c-12.326,0-22.349,10.023-22.349,22.349v46.007c0,6.567,2.899,12.425,7.424,16.515c0.507,0.56,34.082,34.198,34.439,34.544
	v13.154H164.3c-21.771,0-40.869,17.532-40.869,37.523v46.203h-12.538c-12.326,0-22.349,10.023-22.349,22.349v39.031
	c0,6.567,2.899,12.425,7.424,16.515c0.507,0.561,77.037,73.373,111.47,111.469c0.398,0.441,0.821,0.846,1.25,1.25
	c15.339,2.867,31.137,4.435,47.308,4.435C377.324,512.002,478.85,427.599,505.249,314.319z"/>
<path style="fill:#F6F6F6;" d="M401.106,316.951h-12.538v-46.205c0-19.991-19.099-37.523-40.869-37.523h-84.723V191.36h19.515
	c12.326,0,22.349-10.023,22.349-22.349v-46.006c0-12.326-10.023-22.349-22.349-22.349h-52.985
	c-12.326,0-22.349,10.023-22.349,22.349v46.006c0,12.326,10.023,22.349,22.349,22.349h19.515v41.863h-84.723
	c-21.77,0-40.869,17.532-40.869,37.523v46.205h-12.538c-12.326,0-22.349,10.023-22.349,22.349v39.029
	c0,12.326,10.023,22.349,22.349,22.349h39.029c12.326,0,22.349-10.023,22.349-22.349V339.3c0-12.326-10.023-22.349-22.349-22.349
	h-12.538v-46.205c0-13.491,14.207-23.569,26.914-23.569h84.723v69.773h-12.538c-12.326,0-22.349,10.023-22.349,22.349v39.029
	c0,12.326,10.023,22.349,22.349,22.349h39.029c12.326,0,22.349-10.023,22.349-22.349v-39.029c0-12.326-10.023-22.349-22.349-22.349
	h-12.538v-69.773h84.723c12.707,0,26.914,10.078,26.914,23.569v46.205h-12.538c-12.326,0-22.349,10.023-22.349,22.349v39.029
	c0,12.326,10.023,22.349,22.349,22.349h39.029c12.326,0,22.349-10.023,22.349-22.349V339.3
	C423.456,326.974,413.433,316.951,401.106,316.951z M221.114,169.01v-46.006c0-4.626,3.769-8.395,8.395-8.395h52.985
	c4.626,0,8.395,3.769,8.395,8.395v46.006c0,4.626-3.769,8.395-8.395,8.395h-52.985C224.881,177.405,221.114,173.636,221.114,169.01z
	 M158.318,339.3v39.029c0,4.626-3.769,8.395-8.395,8.395h-39.029c-4.626,0-8.395-3.769-8.395-8.395V339.3
	c0-4.626,3.769-8.395,8.395-8.395h39.029C154.549,330.906,158.318,334.674,158.318,339.3z M283.909,339.3v39.029
	c0,4.626-3.769,8.395-8.395,8.395h-39.029c-4.626,0-8.395-3.769-8.395-8.395V339.3c0-4.626,3.769-8.395,8.395-8.395h39.029
	C280.141,330.906,283.909,334.674,283.909,339.3z M409.501,378.33c0,4.626-3.769,8.395-8.395,8.395h-39.029
	c-4.626,0-8.395-3.769-8.395-8.395V339.3c0-4.626,3.769-8.395,8.395-8.395h39.029c4.626,0,8.395,3.769,8.395,8.395V378.33z"/>
<g>
</g>
<g>
</g>
<g>
</g>
<g>
</g>
<g>
</g>
<g>
</g>
<g>
</g>
<g>
</g>
<g>
</g>
<g>
</g>
<g>
</g>
<g>
</g>
<g>
</g>
<g>
</g>
<g>
</g>
</svg>
