<svg xmlns="http://www.w3.org/2000/svg" viewBox="0 0 50 50"><path fill="#EC6E62" d="m26.806 25.483-2.645 2.645a.684.684 0 0 1-.967-.966l2.159-2.163-2.16-2.159a.684.684 0 0 1 0-.965l.001-.002a.684.684 0 0 1 .968-.001l2.644 2.644c.267.267.267.7 0 .967z"/><path fill="#4E4C4D" d="M4.23 18.08h13.607v2.576H4.23zM4.23 29.344h13.607v2.576H4.23z"/><path fill="#656766" d="M17.926 20.656H4.14A3.141 3.141 0 0 0 1 23.796v2.407a3.141 3.141 0 0 0 3.141 3.141h13.785a3.141 3.141 0 0 0 3.14-3.14v-2.407a3.141 3.141 0 0 0-3.14-3.141zm0 11.264H4.14A3.141 3.141 0 0 0 1 35.062v2.406a3.141 3.141 0 0 0 3.141 3.141h13.785a3.141 3.141 0 0 0 3.14-3.14v-2.407a3.141 3.141 0 0 0-3.14-3.142zm0-22.53H4.14A3.141 3.141 0 0 0 1 12.533v2.406a3.141 3.141 0 0 0 3.141 3.142h13.785a3.141 3.141 0 0 0 3.14-3.142v-2.406a3.141 3.141 0 0 0-3.14-3.141z"/><circle cx="5.628" cy="13.735" r="1.672" fill="#85BD57"/><circle cx="10.38" cy="13.735" r="1.672" fill="#FFC966"/><circle cx="5.628" cy="25" r="1.672" fill="#85BD57"/><circle cx="10.38" cy="25" r="1.672" fill="#FFC966"/><circle cx="5.628" cy="36.265" r="1.672" fill="#85BD57"/><circle cx="10.38" cy="36.265" r="1.672" fill="#FFC966"/><path fill="#D2D2D2" d="M32.163 18.08H45.77v2.576H32.163zM32.163 29.344H45.77v2.576H32.163z"/><path fill="#E7E3E6" d="M45.859 20.656H32.074a3.141 3.141 0 0 0-3.14 3.14v2.407a3.141 3.141 0 0 0 3.14 3.141H45.86A3.141 3.141 0 0 0 49 26.204v-2.407a3.141 3.141 0 0 0-3.141-3.141zm0 11.264H32.074a3.141 3.141 0 0 0-3.14 3.142v2.406a3.141 3.141 0 0 0 3.14 3.141H45.86A3.141 3.141 0 0 0 49 37.47v-2.407a3.141 3.141 0 0 0-3.141-3.142zm0-22.53H32.074a3.141 3.141 0 0 0-3.14 3.142v2.406a3.141 3.141 0 0 0 3.14 3.142H45.86A3.141 3.141 0 0 0 49 14.938v-2.406a3.141 3.141 0 0 0-3.141-3.141z"/><circle cx="33.561" cy="13.735" r="1.672" fill="#53B1E2"/><circle cx="38.313" cy="13.735" r="1.672" fill="#F58634"/><circle cx="33.561" cy="25" r="1.672" fill="#53B1E2"/><circle cx="38.313" cy="25" r="1.672" fill="#F58634"/><circle cx="33.561" cy="36.265" r="1.672" fill="#53B1E2"/><circle cx="38.313" cy="36.265" r="1.672" fill="#F58634"/></svg>