<svg width="24" height="24" viewBox="0 0 24 24" fill="none" xmlns="http://www.w3.org/2000/svg">
<path d="M20.5797 17.4686C19.4712 17.441 18.612 17.5519 17.8914 17.8567C17.6835 17.9398 17.3509 17.9399 17.3232 18.2031C17.4341 18.314 17.448 18.4941 17.545 18.6465C17.7114 18.9236 18.0022 19.2978 18.2656 19.4919C18.5565 19.7136 18.8476 19.9352 19.1524 20.1293C19.6928 20.4619 20.3026 20.6558 20.8291 20.9884C21.1341 21.1823 21.4388 21.4319 21.7437 21.6397C21.8962 21.7505 21.9931 21.9307 22.1871 22V21.9584C22.0901 21.8337 22.0624 21.6536 21.9655 21.515C21.827 21.3764 21.6883 21.2517 21.5497 21.1131C21.1478 20.5727 20.649 20.1015 20.1086 19.7136C19.6652 19.4087 18.6951 18.993 18.515 18.4802C18.515 18.4802 18.5011 18.4664 18.4872 18.4526C18.7921 18.4249 19.1524 18.314 19.4434 18.2308C19.9146 18.1061 20.3442 18.1338 20.8291 18.0091C21.0508 17.9537 21.2726 17.8844 21.4943 17.8151V17.6904C21.245 17.4409 21.0647 17.1084 20.8014 16.8728C20.0947 16.263 19.3187 15.6672 18.515 15.1684C18.0854 14.8913 17.5311 14.7111 17.0738 14.4756C16.9076 14.3923 16.6303 14.3508 16.5334 14.2122C16.2839 13.9074 16.1453 13.5056 15.9652 13.1452C15.5635 12.383 15.1753 11.5378 14.8289 10.7341C14.5796 10.1936 14.4271 9.65317 14.1222 9.15436C12.695 6.79863 11.1429 5.37135 8.75948 3.97173C8.24675 3.68076 7.63709 3.55601 6.98578 3.40362C6.63944 3.38971 6.29292 3.36206 5.94648 3.34815C5.7248 3.25113 5.50304 2.9879 5.309 2.86315C4.5193 2.36424 2.48218 1.28348 1.90016 2.71076C1.526 3.61148 2.45445 4.49828 2.77315 4.95564C3.00882 5.27434 3.31361 5.63459 3.47992 5.99493C3.57694 6.23034 3.60458 6.47993 3.7016 6.72934C3.92337 7.33892 4.13114 8.01804 4.42219 8.58625C4.57467 8.87721 4.74089 9.18209 4.93492 9.44532C5.04576 9.59772 5.23971 9.66709 5.28135 9.9165C5.08741 10.1936 5.0735 10.6094 4.96257 10.9558C4.46374 12.5216 4.65778 14.4617 5.36446 15.6118C5.58614 15.9581 6.11278 16.7204 6.81947 16.4294C7.44304 16.18 7.30447 15.3901 7.4846 14.6972C7.52624 14.5308 7.49851 14.4201 7.58162 14.3093C7.58169 14.3231 7.58162 14.337 7.58162 14.337C7.77565 14.725 7.9696 15.0991 8.14973 15.4871C8.57935 16.1661 9.32759 16.8728 9.95116 17.344C10.2839 17.5933 10.5471 18.023 10.9628 18.1754V18.1338H10.9351C10.8519 18.0091 10.7272 17.9537 10.6164 17.8567C10.367 17.6072 10.0897 17.3024 9.89578 17.0252C9.31385 16.2492 8.80103 15.3901 8.34376 14.5032C8.12208 14.0737 7.92805 13.6025 7.74792 13.1729C7.66472 13.0066 7.66472 12.7572 7.52615 12.6741C7.31829 12.9789 7.01351 13.2422 6.86102 13.6164C6.59788 14.2122 6.57006 14.9467 6.47304 15.7088C6.41766 15.7227 6.44531 15.7088 6.41757 15.7365C5.97421 15.6256 5.82173 15.1684 5.65543 14.7803C5.23971 13.7965 5.17042 12.2168 5.53076 11.0805C5.62778 10.7895 6.0435 9.87495 5.87719 9.5978C5.79409 9.33448 5.51685 9.18209 5.36446 8.97423C5.18433 8.71091 4.9903 8.37839 4.86564 8.08734C4.53303 7.31137 4.36672 6.4522 4.00647 5.67614C3.84017 5.3158 3.5492 4.94173 3.31361 4.60921C3.05038 4.23505 2.75932 3.97173 2.55146 3.52828C2.48227 3.37588 2.38516 3.12647 2.496 2.96017C2.52373 2.84933 2.57911 2.80777 2.69004 2.78004C2.87016 2.62756 3.3829 2.82159 3.56302 2.9047C4.07575 3.11247 4.50529 3.3066 4.93492 3.59756C5.12887 3.73613 5.33672 3.99946 5.58614 4.06874H5.87719C6.32064 4.16567 6.81946 4.09647 7.23518 4.22114C7.96968 4.45664 8.63472 4.80316 9.23065 5.17732C11.046 6.32745 12.5425 7.96267 13.5541 9.9165C13.7204 10.2351 13.7896 10.5263 13.9421 10.8588C14.2332 11.5378 14.5934 12.2307 14.8844 12.8958C15.1753 13.547 15.4525 14.2122 15.8682 14.7527C16.0761 15.0436 16.9075 15.1961 17.2816 15.3485C17.5588 15.4732 17.9884 15.5841 18.2378 15.7365C18.7089 16.0274 19.1801 16.3601 19.6236 16.6788C19.8453 16.845 20.5381 17.1915 20.5797 17.4686L20.5797 17.4686Z" fill="#FAFCFF"/>
<path d="M6.445 5.23166C6.20941 5.23166 6.0432 5.25948 5.87689 5.30103C5.87689 5.30096 5.87689 5.31494 5.87689 5.32877H5.90462C6.01555 5.55045 6.20941 5.70293 6.34798 5.89688C6.45891 6.11855 6.55584 6.34032 6.66677 6.56209C6.68059 6.54818 6.69441 6.53436 6.69441 6.53436C6.88854 6.3957 6.98547 6.17402 6.98547 5.8415C6.90227 5.74448 6.88845 5.64746 6.81916 5.55044C6.73606 5.41178 6.55584 5.34259 6.445 5.23166Z" fill="#FAFCFF"/>
</svg>
