<svg width="100%" height="100%" viewBox="0 0 24 24" fill="none" xmlns="http://www.w3.org/2000/svg">
<g clip-path="url(#clip0_817_123574)">
<path d="M22.0922 18.2073C20.7873 18.1748 19.776 18.3054 18.9279 18.6641C18.6832 18.7619 18.2917 18.762 18.2591 19.0719C18.3896 19.2025 18.4059 19.4145 18.5201 19.5938C18.7159 19.92 19.0583 20.3605 19.3683 20.5889C19.7108 20.8498 20.0533 21.1107 20.4121 21.3391C21.0483 21.7306 21.766 21.9589 22.3857 22.3504C22.7447 22.5786 23.1033 22.8723 23.4622 23.117C23.6417 23.2474 23.7558 23.4595 23.9842 23.541V23.4921C23.87 23.3453 23.8373 23.1333 23.7232 22.9702C23.5602 22.8071 23.397 22.6602 23.2339 22.4971C22.7609 21.8611 22.1737 21.3065 21.5376 20.8498C21.0157 20.4909 19.8739 20.0016 19.6618 19.3981C19.6618 19.3981 19.6455 19.3818 19.6292 19.3656C19.9881 19.3329 20.4121 19.2025 20.7547 19.1045C21.3093 18.9577 21.8149 18.9903 22.3857 18.8436C22.6467 18.7783 22.9077 18.6968 23.1686 18.6152V18.4685C22.8752 18.1748 22.663 17.7834 22.3531 17.5061C21.5213 16.7883 20.6078 16.0871 19.6618 15.4999C19.1561 15.1737 18.5037 14.9616 17.9655 14.6844C17.7699 14.5863 17.4435 14.5375 17.3294 14.3744C17.0358 14.0156 16.8727 13.5426 16.6606 13.1185C16.1878 12.2213 15.7309 11.2265 15.3232 10.2805C15.0297 9.64434 14.8502 9.00818 14.4914 8.42105C12.8114 5.64824 10.9846 3.96826 8.17911 2.32082C7.5756 1.97834 6.85799 1.83151 6.09137 1.65213C5.68371 1.63576 5.27584 1.60322 4.86807 1.58685C4.60714 1.47265 4.34611 1.16281 4.11772 1.01597C3.1882 0.428728 0.790405 -0.843382 0.105339 0.836597C-0.335069 1.89679 0.757766 2.94061 1.13289 3.47894C1.41029 3.85406 1.76904 4.2781 1.96479 4.70224C2.07899 4.97934 2.11152 5.27311 2.22572 5.56669C2.48675 6.28419 2.73131 7.08355 3.07389 7.75236C3.25337 8.09484 3.44902 8.4537 3.67741 8.76353C3.80787 8.94291 4.03616 9.02456 4.08517 9.31813C3.85689 9.64435 3.84052 10.1337 3.70995 10.5414C3.12281 12.3845 3.35119 14.668 4.183 16.0218C4.44393 16.4294 5.06381 17.3267 5.89562 16.9841C6.6296 16.6906 6.46649 15.7608 6.67851 14.9453C6.72752 14.7495 6.69488 14.6191 6.7927 14.4886C6.79279 14.5049 6.7927 14.5213 6.7927 14.5213C7.02109 14.9779 7.24938 15.4184 7.4614 15.875C7.96709 16.6742 8.84781 17.5061 9.58178 18.0607C9.97338 18.3542 10.2832 18.8599 10.7725 19.0393V18.9903H10.7399C10.642 18.8435 10.4952 18.7783 10.3648 18.6641C10.0712 18.3705 9.74489 18.0117 9.5166 17.6855C8.83164 16.772 8.22802 15.7608 7.68979 14.7169C7.42886 14.2113 7.20047 13.6567 6.98845 13.1511C6.89053 12.9553 6.89053 12.6618 6.72742 12.564C6.48276 12.9227 6.12401 13.2327 5.94453 13.6731C5.63479 14.3744 5.60205 15.2389 5.48785 16.136C5.42267 16.1523 5.45521 16.136 5.42257 16.1686C4.90071 16.038 4.72123 15.4999 4.52548 15.0431C4.03616 13.8851 3.95461 12.0257 4.37874 10.6883C4.49294 10.3457 4.98226 9.26922 4.78651 8.94301C4.68869 8.63307 4.36237 8.45369 4.183 8.20903C3.97098 7.89909 3.74259 7.50769 3.59585 7.16511C3.20436 6.25175 3.00861 5.24048 2.58458 4.32701C2.38883 3.90287 2.04634 3.46257 1.76904 3.07118C1.4592 2.63077 1.11662 2.32082 0.871953 1.79886C0.790503 1.61949 0.676205 1.32591 0.806669 1.13017C0.839312 0.999702 0.904492 0.95079 1.03506 0.918148C1.24708 0.738668 1.85059 0.967058 2.06261 1.06488C2.66612 1.30944 3.17171 1.53793 3.6774 1.88041C3.90569 2.04352 4.15035 2.35346 4.44392 2.43502H4.7865C5.30847 2.54911 5.89561 2.46766 6.38493 2.61439C7.24947 2.89159 8.03226 3.29946 8.73371 3.73987C10.8705 5.09363 12.6319 7.01837 13.8227 9.31814C14.0184 9.69316 14.0999 10.0358 14.2793 10.4272C14.6219 11.2265 15.046 12.042 15.3884 12.8249C15.7309 13.5914 16.0571 14.3744 16.5464 15.0106C16.7912 15.353 17.7697 15.5325 18.2101 15.7119C18.5364 15.8587 19.0421 15.9892 19.3356 16.1686C19.8901 16.511 20.4447 16.9026 20.9667 17.2777C21.2277 17.4734 22.0432 17.8812 22.0922 18.2073L22.0922 18.2073Z" fill="#00546B"/>
<path d="M5.45483 4.03333C5.17753 4.03333 4.98188 4.06607 4.78613 4.11498C4.78613 4.1149 4.78613 4.13136 4.78613 4.14763H4.81878C4.94934 4.40855 5.17753 4.58803 5.34063 4.81632C5.4712 5.07725 5.58529 5.33828 5.71586 5.59931C5.73213 5.58294 5.7484 5.56667 5.7484 5.56667C5.97689 5.40346 6.09098 5.14253 6.09098 4.75114C5.99306 4.63694 5.97679 4.52275 5.89524 4.40855C5.79741 4.24534 5.58529 4.16389 5.45483 4.03333Z" fill="#00546B"/>
</g>
<defs>
<clipPath id="clip0_817_123574">
<rect width="24" height="24" fill="white"/>
</clipPath>
</defs>
</svg>
