<svg version="1.0" xmlns="http://www.w3.org/2000/svg"
 width="220.000000pt" height="101.000000pt" viewBox="0 0 220.000000 101.000000"
 preserveAspectRatio="xMidYMid meet">

<g transform="translate(0.000000,101.000000) scale(0.100000,-0.100000)"
fill="#000000" stroke="none">
<path d="M725 940 c-28 -19 -47 -20 -332 -20 -298 0 -303 0 -323 -22 -19 -21
-20 -33 -20 -365 0 -330 1 -344 20 -363 19 -19 33 -20 224 -20 186 0 205 -2
209 -17 3 -10 5 12 6 50 1 85 42 277 77 359 36 89 100 204 147 266 22 28 41
52 43 52 3 0 -9 -24 -26 -52 -91 -157 -183 -375 -205 -488 -7 -34 -6 -34 9
-13 9 12 32 31 52 43 33 21 121 127 112 136 -3 2 -19 0 -36 -5 -48 -14 -38 -4
21 23 51 22 55 27 104 123 61 119 81 198 64 255 -23 75 -84 99 -146 58z m-55
-40 c0 -5 -16 -31 -36 -56 -40 -54 -117 -209 -133 -271 -8 -29 -17 -43 -29
-44 -44 -2 -395 1 -398 3 -7 8 -14 334 -7 344 23 30 53 33 326 34 176 0 277
-4 277 -10z"/>
<path d="M785 476 c-18 -18 -25 -36 -25 -64 0 -34 6 -45 40 -73 22 -19 58 -49
81 -68 33 -28 40 -40 37 -65 -7 -68 -107 -72 -140 -6 l-18 35 0 -43 c0 -24 4
-41 9 -37 5 3 30 0 54 -7 59 -15 99 1 122 48 25 52 12 89 -43 127 -110 77
-134 114 -96 151 32 33 105 10 124 -38 7 -17 9 -14 9 19 l1 40 -65 3 c-58 3
-68 0 -90 -22z"/>
<path d="M1108 480 c-58 -31 -91 -82 -96 -148 -5 -78 33 -138 110 -175 29 -15
73 -47 97 -71 35 -35 54 -47 88 -52 27 -4 53 -2 66 5 12 7 14 9 4 7 -9 -3 -27
-2 -40 3 -21 9 -97 79 -97 90 0 3 17 13 39 22 73 31 118 129 97 213 -9 36 -65
96 -103 112 -46 20 -121 17 -165 -6z m152 -6 c47 -29 65 -70 65 -154 0 -94
-20 -133 -82 -156 -63 -24 -114 -8 -151 48 -23 36 -27 52 -27 113 0 63 3 76
29 109 15 21 38 41 50 46 34 14 86 11 116 -6z"/>
<path d="M1428 490 c21 -9 22 -13 22 -164 0 -137 -2 -156 -17 -165 -13 -8 13
-10 93 -11 l112 0 5 25 4 26 -19 -21 c-22 -23 -105 -29 -126 -8 -13 13 -17
285 -4 304 4 6 14 14 22 17 8 3 -14 5 -50 6 -49 0 -59 -3 -42 -9z"/>
<path d="M1712 418 c5 -15 28 -18 29 -3 0 6 -7 12 -17 13 -10 3 -15 -1 -12
-10z"/>
<path d="M1848 358 c-18 -19 -22 -28 -12 -28 11 0 14 -17 14 -76 0 -92 11
-118 48 -109 14 3 37 15 50 26 29 23 25 24 -14 4 -44 -22 -55 -5 -52 79 3 69
4 71 31 74 33 4 26 22 -8 22 -15 0 -25 7 -27 18 -3 14 -7 13 -30 -10z"/>
<path d="M1710 341 c-25 -7 -25 -7 -2 -13 20 -6 22 -12 22 -82 0 -70 -2 -77
-22 -86 -17 -6 -8 -9 37 -8 33 0 50 3 38 5 -22 4 -23 9 -23 99 0 99 0 99 -50
85z"/>
<path d="M2030 321 c-25 -25 -30 -37 -30 -79 0 -67 24 -97 78 -97 29 0 48 7
66 24 34 32 33 48 0 22 -33 -26 -76 -27 -97 -3 -27 30 -20 48 21 60 51 16 90
57 76 80 -6 10 -27 18 -48 20 -29 3 -42 -2 -66 -27z m78 -18 c2 -16 -5 -26
-27 -37 -48 -25 -61 -21 -51 14 13 45 20 51 48 48 19 -2 28 -10 30 -25z"/>
</g>
</svg>
