<svg width="24" height="24" viewBox="0 0 24 24" fill="none" xmlns="http://www.w3.org/2000/svg">
<g clip-path="url(#clip0_4713_38820)">
<path d="M20.5691 10.1843C20.7927 9.51082 20.8701 8.79742 20.796 8.09171C20.7218 7.38599 20.498 6.70422 20.1394 6.09193C19.6077 5.16645 18.7958 4.43372 17.8208 3.99939C16.8459 3.56506 15.7582 3.45156 14.7145 3.67526C14.1216 3.01573 13.3656 2.52382 12.5224 2.24894C11.6792 1.97405 10.7785 1.92588 9.91083 2.10924C9.04313 2.29261 8.23896 2.70106 7.57907 3.29358C6.91918 3.8861 6.42682 4.64182 6.15143 5.48484C5.45616 5.62742 4.79932 5.91675 4.22481 6.3335C3.65031 6.75026 3.17137 7.28484 2.82002 7.90151C2.28255 8.82545 2.05283 9.89637 2.16409 10.9595C2.27535 12.0225 2.72181 13.0227 3.43893 13.8153C3.21449 14.4885 3.13637 15.2017 3.20981 15.9075C3.28325 16.6132 3.50654 17.2951 3.86477 17.9076C4.39713 18.8334 5.2097 19.5663 6.18536 20.0006C7.16102 20.435 8.24938 20.5483 9.2936 20.3243C9.76465 20.8548 10.3435 21.2787 10.9914 21.5676C11.6393 21.8566 12.3414 22.004 13.0508 22C14.1205 22.001 15.1628 21.662 16.0273 21.0321C16.8918 20.4021 17.5338 19.5137 17.8606 18.4952C18.5558 18.3524 19.2125 18.0629 19.787 17.6462C20.3615 17.2294 20.8405 16.695 21.192 16.0784C21.7231 15.1558 21.9489 14.0889 21.837 13.0303C21.7251 11.9717 21.2813 10.9754 20.5691 10.1843ZM13.0508 20.691C12.1747 20.6924 11.3261 20.3853 10.6538 19.8237L10.772 19.7567L14.7539 17.4582C14.853 17.4001 14.9353 17.3172 14.9927 17.2176C15.0501 17.1181 15.0806 17.0053 15.0812 16.8904V11.2763L16.7645 12.2502C16.7728 12.2544 16.78 12.2605 16.7855 12.268C16.7911 12.2756 16.7947 12.2843 16.7962 12.2935V16.9457C16.7941 17.9384 16.3988 18.8898 15.6968 19.5917C14.9949 20.2937 14.0435 20.6889 13.0508 20.691ZM5.00018 17.2532C4.56083 16.4945 4.40308 15.6052 4.55468 14.7418L4.67302 14.8128L8.65885 17.1113C8.75747 17.1691 8.86975 17.1996 8.9841 17.1996C9.09845 17.1996 9.21073 17.1691 9.30935 17.1113L14.1784 14.3042V16.2478C14.1779 16.2579 14.1752 16.2678 14.1704 16.2766C14.1656 16.2855 14.1589 16.2932 14.1507 16.2991L10.1175 18.6252C9.25679 19.121 8.23447 19.255 7.27502 18.9978C6.31558 18.7406 5.49742 18.1131 5.00018 17.2532ZM3.95152 8.57968C4.39392 7.81615 5.09221 7.23378 5.92277 6.93568V11.6667C5.92127 11.781 5.95047 11.8936 6.00733 11.9927C6.06419 12.0919 6.14662 12.174 6.24602 12.2304L11.0914 15.0257L9.40793 15.9994C9.39882 16.0043 9.38867 16.0068 9.37835 16.0068C9.36804 16.0068 9.35788 16.0043 9.34877 15.9994L5.32352 13.6773C4.4644 13.1794 3.83764 12.3612 3.58049 11.4021C3.32334 10.4429 3.45675 9.42098 3.95152 8.56001V8.57968ZM17.7818 11.7928L12.9207 8.97001L14.6002 8.00001C14.6093 7.99517 14.6195 7.99264 14.6298 7.99264C14.6401 7.99264 14.6502 7.99517 14.6594 8.00001L18.6846 10.3261C19.3001 10.6812 19.8018 11.2041 20.1312 11.8337C20.4607 12.4633 20.6042 13.1736 20.5451 13.8817C20.486 14.5898 20.2267 15.2665 19.7974 15.8327C19.3682 16.399 18.7867 16.8314 18.1209 17.0796V12.3486C18.1174 12.2345 18.0843 12.1233 18.0248 12.0258C17.9653 11.9284 17.8816 11.8481 17.7818 11.7928ZM19.4574 9.27359L19.339 9.20259L15.3611 6.88443C15.2619 6.8262 15.1489 6.7955 15.0339 6.7955C14.9188 6.7955 14.8058 6.8262 14.7066 6.88443L9.84168 9.69143V7.74784C9.84065 7.73796 9.8423 7.72798 9.84647 7.71896C9.85063 7.70994 9.85716 7.70221 9.86535 7.69659L13.8906 5.37443C14.5075 5.01902 15.2129 4.84662 15.9242 4.87739C16.6355 4.90816 17.3234 5.14082 17.9073 5.54816C18.4912 5.95551 18.9471 6.52069 19.2216 7.17762C19.4961 7.83455 19.5779 8.55605 19.4574 9.25776L19.4574 9.27359ZM8.92293 12.7192L7.2396 11.7493C7.23118 11.7443 7.22398 11.7374 7.2185 11.7292C7.21303 11.7211 7.20942 11.7118 7.20793 11.7021V7.06184C7.20886 6.34999 7.41242 5.65311 7.79481 5.05268C8.1772 4.45225 8.72262 3.97308 9.3673 3.67121C10.012 3.36934 10.7293 3.25723 11.4353 3.34799C12.1414 3.43876 12.807 3.72864 13.3544 4.18376L13.236 4.25084L9.25418 6.54918C9.15508 6.6073 9.0728 6.6902 9.01542 6.78974C8.95805 6.88928 8.92755 7.00204 8.92693 7.11693L8.92293 12.7192ZM9.8376 10.748L12.0059 9.49818L14.1784 10.748V13.2475L12.0139 14.4973L9.8416 13.2475L9.8376 10.748Z" fill="black"/>
</g>
<defs>
<clipPath id="clip0_4713_38820">
<rect width="20" height="20" fill="white" transform="translate(2 2)"/>
</clipPath>
</defs>
</svg>
