
<?xml version="1.0" encoding="utf-8"?>
<!-- Generator: Adobe Illustrator 25.0.0, SVG Export Plug-In . SVG Version: 6.00 Build 0)  -->
<svg version="1.1" id="Layer_1" xmlns="http://www.w3.org/2000/svg" xmlns:xlink="http://www.w3.org/1999/xlink" x="0px" y="0px"
	 viewBox="0 0 500 500" style="enable-background:new 0 0 500 500;" xml:space="preserve">
<style type="text/css">
	.st0{fill:#FFC24A;}
	.st1{fill:#F4BD62;}
	.st2{fill:#F6820C;}
	.st3{fill:#FDE068;}
	.st4{fill:#FCCA3F;}
	.st5{fill:#EEAB37;}
	.st6{fill-rule:evenodd;clip-rule:evenodd;fill:#757575;}
	.st7{fill-rule:evenodd;clip-rule:evenodd;fill:#FFFFFF;}
</style>
<g>
	<path class="st0" d="M94.7,362.1l2.2-3.1l104.5-198.3l0.2-2.1L155.5,72c-3.9-7.3-14.7-5.4-16,2.7L94.7,362.1z"/>
	<path class="st1" d="M235.2,224.1l34.3-35.1l-34.3-65.5c-3.3-6.2-12.4-6.2-15.6,0l-18.3,35v3L235.2,224.1z"/>
	<polygon class="st2" points="94.7,362.1 95.7,361.1 99.3,359.6 233.1,226.4 234.7,221.8 201.4,158.2 	"/>
	<path class="st3" d="M239.5,429.3l121-67.5l-34.6-212.9c-1.1-6.7-9.3-9.3-14-4.5L94.7,362.1l120.4,67.2
		C222.6,433.6,231.9,433.6,239.5,429.3"/>
	<path class="st4" d="M359.5,361.2L325.2,150c-1.1-6.6-7.9-9.3-12.6-4.6L96,361.7l119,66.5c7.5,4.2,16.7,4.2,24.3,0L359.5,361.2z"/>
	<path class="st5" d="M239.5,427.3c-7.6,4.2-16.9,4.2-24.5,0L95.6,361.1l-1,1L215,429.3c7.6,4.2,16.9,4.2,24.5,0l121-67.5l-0.3-1.8
		L239.5,427.3z"/>
	
		<ellipse transform="matrix(0.1598 -0.9872 0.9872 0.1598 -68.6506 614.5333)" class="st6" cx="326.7" cy="347.6" rx="78.7" ry="78.7"/>
	<polygon class="st7" points="291.1,326.2 326.1,308.5 362.1,326.2 362.1,344.2 326.1,326.4 291.1,344.2 	"/>
	<polygon class="st7" points="291.1,356.9 326.1,339.1 362.1,356.9 362.1,374.8 326.1,357 291.1,374.8 	"/>
	<polygon class="st7" points="326.2,374.4 336.4,369.6 354.4,377.9 326.2,391.4 	"/>
</g>
</svg>
