<svg
  width="74"
  height="28"
  viewBox="0 0 74 28"
  fill="none"
  xmlns="http://www.w3.org/2000/svg"
>
  <g clipPath="url(#clip0_392_5486)">
    <path
      d="M58.375 8H53.125C52.5039 8 52 8.50391 52 9.125V18.875C52 19.4961 52.5039 20 53.125 20H58.375C58.9961 20 59.5 19.4961 59.5 18.875V9.125C59.5 8.50391 58.9961 8 58.375 8ZM55.75 19.25C55.3352 19.25 55 18.9148 55 18.5C55 18.0852 55.3352 17.75 55.75 17.75C56.1648 17.75 56.5 18.0852 56.5 18.5C56.5 18.9148 56.1648 19.25 55.75 19.25ZM58.375 16.7188C58.375 16.8734 58.2484 17 58.0938 17H53.4062C53.2516 17 53.125 16.8734 53.125 16.7188V9.40625C53.125 9.25156 53.2516 9.125 53.4062 9.125H58.0938C58.2484 9.125 58.375 9.25156 58.375 9.40625V16.7188Z"
      fill="#8092AC"
    />
  </g>
  <path d="M37 1L37 27" stroke="#D2DDEC" strokeLinecap="round" />
  <path
    d="M17.2 18.2H14.2C13.8817 18.2 13.5765 18.0736 13.3515 17.8485C13.1264 17.6235 13 17.3183 13 17V9.2C13 8.54 13.54 8 14.2 8H23.8C24.1183 8 24.4235 8.12643 24.6485 8.35147C24.8736 8.57652 25 8.88174 25 9.2V17C25 17.3183 24.8736 17.6235 24.6485 17.8485C24.4235 18.0736 24.1183 18.2 23.8 18.2H20.8L23.2 19.4V20H14.8V19.4L17.2 18.2ZM14.2 9.2V15.8H23.8V9.2H14.2Z"
    fill="currentColor"
  />
  <defs>
    <clipPath id="clip0_392_5486">
      <rect width="7.5" height="12" fill="white" transform="translate(52 8)" />
    </clipPath>
  </defs>
</svg>
