<svg width="29" height="29" viewBox="0 0 29 29" fill="none" xmlns="http://www.w3.org/2000/svg"><path d="M0.587891 6.66479C0.587891 3.35634 3.26992 0.674316 6.57837 0.674316H22.5974C25.9059 0.674316 28.5879 3.35635 28.5879 6.6648V22.6838C28.5879 25.9923 25.9059 28.6743 22.5974 28.6743H6.57837C3.26991 28.6743 0.587891 25.9923 0.587891 22.6838V6.66479Z" fill="#3E63DD"></path><path d="M19.2726 8.73448V10.6128C19.2726 10.6784 19.2196 10.732 19.1548 10.732H15.7763V20.6137C15.7763 20.6795 15.7232 20.733 15.6584 20.733H13.5082C13.4433 20.733 13.3903 20.6794 13.3903 20.6137V10.732H10.0202C9.95534 10.732 9.90234 10.6784 9.90234 10.6128V8.73448C9.90234 8.66895 9.95544 8.61523 10.0202 8.61523H19.1548C19.2196 8.61523 19.2726 8.66895 19.2726 8.73448Z" fill="white"></path></svg>