<svg width="16" height="16" viewBox="0 0 16 16" fill="none" xmlns="http://www.w3.org/2000/svg">
<path d="M6.5 10.7293C3.91216 10.9514 2 11.7344 2 12.6663C2 13.7709 4.68629 14.6663 8 14.6663C11.3137 14.6663 14 13.7709 14 12.6663C14 11.7344 12.0878 10.9514 9.5 10.7293V11.9997C9.5 12.8281 8.82843 13.4997 8 13.4997C7.17157 13.4997 6.5 12.8281 6.5 11.9997V10.7293Z" fill="#ACB2B9"/>
<path fill-rule="evenodd" clip-rule="evenodd" d="M8.5 5.27C9.36261 5.04798 10 4.26493 10 3.33301C10 2.22844 9.10457 1.33301 8 1.33301C6.89543 1.33301 6 2.22844 6 3.33301C6 4.26493 6.63739 5.04798 7.5 5.27V11.9997C7.5 12.2758 7.72386 12.4997 8 12.4997C8.27614 12.4997 8.5 12.2758 8.5 11.9997V5.27Z" fill="#ACB2B9"/>
</svg>
