<svg width="auto" height="auto" viewBox="0 0 24 24" fill="none" xmlns="http://www.w3.org/2000/svg">
<g clip-path="url(#clip0_874_122127)">
<path fill-rule="evenodd" clip-rule="evenodd" d="M5.05263 2.52632C4.71762 2.52632 4.39633 2.6594 4.15944 2.89629C3.92256 3.13317 3.78947 3.45446 3.78947 3.78947V7.57895H8.8421V2.52632H5.05263ZM5.05263 0C4.0476 0 3.08373 0.399247 2.37307 1.10991C1.6624 1.82058 1.26316 2.78444 1.26316 3.78947V11.3684C1.26316 12.066 1.82869 12.6316 2.52632 12.6316C3.22394 12.6316 3.78947 12.066 3.78947 11.3684V10.1053H8.8421V11.3684C8.8421 12.066 9.40764 12.6316 10.1053 12.6316C10.8029 12.6316 11.3684 12.066 11.3684 11.3684V10.1053H21.4737V18.9474C21.4737 19.2824 21.3406 19.6037 21.1037 19.8406C20.8668 20.0774 20.5455 20.2105 20.2105 20.2105H12.6316C11.934 20.2105 11.3684 20.7761 11.3684 21.4737C11.3684 22.1713 11.934 22.7368 12.6316 22.7368H20.2105C21.2156 22.7368 22.1794 22.3376 22.8901 21.6269C23.6008 20.9163 24 19.9524 24 18.9474V3.78947C24 2.78444 23.6008 1.82057 22.8901 1.10991C22.1794 0.399247 21.2156 0 20.2105 0H5.05263ZM11.3684 2.52632V7.57895H21.4737V3.78947C21.4737 3.45446 21.3406 3.13317 21.1037 2.89629C20.8668 2.6594 20.5455 2.52632 20.2105 2.52632H11.3684ZM0 16.4211C0 15.0258 1.13107 13.8947 2.52632 13.8947H7.57895C8.97419 13.8947 10.1053 15.0258 10.1053 16.4211V21.4737C10.1053 22.8689 8.97419 24 7.57895 24H2.52632C1.13107 24 0 22.8689 0 21.4737V16.4211ZM2.52632 16.4211V21.4737H7.57895V16.4211H2.52632Z" fill="#3E63DD"/>
</g>
<defs>
<clipPath id="clip0_874_122127">
<rect width="24" height="24" fill="white"/>
</clipPath>
</defs>
</svg>
