<svg width="19" height="19" viewBox="0 0 19 19" fill="none" xmlns="http://www.w3.org/2000/svg">
<path fill-rule="evenodd" clip-rule="evenodd" d="M4 2C3.73478 2 3.48043 2.10536 3.29289 2.29289C3.10536 2.48043 3 2.73478 3 3V6H7V2H4ZM4 0C3.20435 0 2.44129 0.31607 1.87868 0.87868C1.31607 1.44129 1 2.20435 1 3V9C1 9.55229 1.44772 10 2 10C2.55228 10 3 9.55229 3 9V8H7V9C7 9.55229 7.44772 10 8 10C8.55228 10 9 9.55229 9 9V8H17V15C17 15.2652 16.8946 15.5196 16.7071 15.7071C16.5196 15.8946 16.2652 16 16 16H10C9.44771 16 9 16.4477 9 17C9 17.5523 9.44771 18 10 18H16C16.7957 18 17.5587 17.6839 18.1213 17.1213C18.6839 16.5587 19 15.7957 19 15V3C19 2.20435 18.6839 1.44129 18.1213 0.87868C17.5587 0.31607 16.7957 0 16 0H4ZM9 2V6H17V3C17 2.73478 16.8946 2.48043 16.7071 2.29289C16.5196 2.10536 16.2652 2 16 2H9ZM0 13C0 11.8954 0.89543 11 2 11H6C7.10457 11 8 11.8954 8 13V17C8 18.1046 7.10457 19 6 19H2C0.89543 19 0 18.1046 0 17V13ZM2 13V17H6V13H2Z" fill="#C1C8CD"/>
</svg>
