<svg width="14" height="16" viewBox="0 0 14 16" fill="none" xmlns="http://www.w3.org/2000/svg">
  <path
    d="M4.5958 12.7461C4.22913 12.7461 3.91525 12.6156 3.65413 12.3544C3.39302 12.0933 3.26247 11.7794 3.26247 11.4128V2.24611C3.26247 1.89055 3.39302 1.58222 3.65413 1.32111C3.91525 1.06 4.22913 0.929443 4.5958 0.929443H11.7625C12.118 0.929443 12.4264 1.06 12.6875 1.32111C12.9486 1.58222 13.0791 1.89055 13.0791 2.24611V11.4128C13.0791 11.7794 12.9486 12.0933 12.6875 12.3544C12.4264 12.6156 12.118 12.7461 11.7625 12.7461H4.5958ZM4.5958 11.4128H11.7625V2.24611H4.5958V11.4128ZM2.26247 15.0628C1.90691 15.0628 1.59858 14.9322 1.33747 14.6711C1.07636 14.41 0.945801 14.1017 0.945801 13.7461V4.42944C0.945801 4.25167 1.00969 4.09889 1.13747 3.97111C1.26525 3.84333 1.42358 3.77944 1.61247 3.77944C1.80136 3.77944 1.95691 3.84333 2.07913 3.97111C2.20136 4.09889 2.26247 4.25167 2.26247 4.42944V13.7461H9.42913C9.60691 13.7461 9.75969 13.81 9.88747 13.9378C10.0152 14.0656 10.0791 14.2239 10.0791 14.4128C10.0791 14.6017 10.0152 14.7572 9.88747 14.8794C9.75969 15.0017 9.60691 15.0628 9.42913 15.0628H2.26247ZM4.5958 2.24611V11.4128V2.24611Z"
    fill="#9BA3AF"
  />
</svg>