<svg width="12" height="14" viewBox="0 0 12 14" fill="none" xmlns="http://www.w3.org/2000/svg">
<path d="M4.41717 0.815901C4.66445 0.444969 5.08076 0.222168 5.52657 0.222168H6.76608C7.21188 0.222168 7.62819 0.44497 7.87548 0.815901L8.47965 1.72217H10.9797C11.2558 1.72217 11.4797 1.94603 11.4797 2.22217C11.4797 2.49831 11.2558 2.72217 10.9797 2.72217H1.31299C1.03685 2.72217 0.812988 2.49831 0.812988 2.22217C0.812988 1.94603 1.03685 1.72217 1.31299 1.72217H3.81299L4.41717 0.815901Z" fill="white"/>
<path fill-rule="evenodd" clip-rule="evenodd" d="M8.14632 13.5555H4.14632C2.67356 13.5555 1.47965 12.3616 1.47965 10.8888V3.5555H10.813V10.8888C10.813 12.3616 9.61908 13.5555 8.14632 13.5555ZM4.81299 5.72217C5.08913 5.72217 5.31299 5.94603 5.31299 6.22217V10.8888C5.31299 11.165 5.08913 11.3888 4.81299 11.3888C4.53685 11.3888 4.31299 11.165 4.31299 10.8888L4.31299 6.22217C4.31299 5.94603 4.53685 5.72217 4.81299 5.72217ZM7.47965 5.72217C7.7558 5.72217 7.97965 5.94603 7.97965 6.22217V10.8888C7.97966 11.165 7.7558 11.3888 7.47965 11.3888C7.20351 11.3888 6.97966 11.165 6.97965 10.8888V6.22217C6.97965 5.94603 7.20351 5.72217 7.47965 5.72217Z" fill="white"/>
</svg>
