<svg width="13" height="14" viewBox="0 0 13 14" fill="none" xmlns="http://www.w3.org/2000/svg">
  <path
    d="M6.34561 6.24611C4.53449 6.24611 3.06505 5.96278 1.93727 5.39611C0.809494 4.82944 0.245605 4.185 0.245605 3.46278C0.245605 2.74055 0.806717 2.09611 1.92894 1.52944C3.05116 0.962777 4.52338 0.679443 6.34561 0.679443C8.15672 0.679443 9.62616 0.962777 10.7539 1.52944C11.8817 2.09611 12.4456 2.74055 12.4456 3.46278C12.4456 4.185 11.8845 4.82944 10.7623 5.39611C9.64005 5.96278 8.16783 6.24611 6.34561 6.24611ZM6.34561 9.77944C4.70116 9.77944 3.27338 9.52666 2.06227 9.02111C0.851161 8.51555 0.245605 7.90167 0.245605 7.17944V5.29611C0.245605 5.70722 0.434494 6.07389 0.812272 6.39611C1.19005 6.71833 1.67894 6.99333 2.27894 7.22111C2.87894 7.44889 3.53727 7.62111 4.25394 7.73778C4.97061 7.85444 5.66783 7.91278 6.34561 7.91278C7.02338 7.91278 7.72061 7.85444 8.43727 7.73778C9.15394 7.62111 9.81227 7.45166 10.4123 7.22944C11.0123 7.00722 11.5012 6.735 11.8789 6.41278C12.2567 6.09055 12.4456 5.71833 12.4456 5.29611V7.17944C12.4456 7.90167 11.8428 8.51555 10.6373 9.02111C9.43172 9.52666 8.00116 9.77944 6.34561 9.77944ZM6.34561 13.3294C4.70116 13.3294 3.27338 13.0767 2.06227 12.5711C0.851161 12.0656 0.245605 11.4517 0.245605 10.7294V8.84611C0.245605 9.25722 0.434494 9.62389 0.812272 9.94611C1.19005 10.2683 1.67894 10.5433 2.27894 10.7711C2.87894 10.9989 3.53727 11.1683 4.25394 11.2794C4.97061 11.3906 5.66783 11.4461 6.34561 11.4461C7.02338 11.4461 7.72061 11.3906 8.43727 11.2794C9.15394 11.1683 9.81227 11.0017 10.4123 10.7794C11.0123 10.5572 11.5012 10.285 11.8789 9.96278C12.2567 9.64055 12.4456 9.26833 12.4456 8.84611V10.7294C12.4456 11.4517 11.8428 12.0656 10.6373 12.5711C9.43172 13.0767 8.00116 13.3294 6.34561 13.3294Z"
    fill="#9BA3AF"
  />
</svg>