<svg width="100%" height="100%" viewBox="0 0 24 24" fill="none" xmlns="http://www.w3.org/2000/svg">
<path d="M12.0013 19.8877C9.48666 19.8877 6.97243 19.8929 4.45779 19.8857C3.09153 19.8816 1.94881 19.3631 1.05101 18.3281C-0.644914 16.3724 -0.23899 13.2896 1.91209 11.8463C2.22158 11.6385 2.57222 11.49 2.91036 11.3282C3.00558 11.2826 3.03665 11.2414 3.03504 11.1365C2.97129 7.67806 5.54524 4.62919 8.97744 4.1817C11.6438 3.83428 13.8336 4.75589 15.5081 6.86944C15.605 6.9917 15.68 7.04658 15.854 7.00542C18.137 6.46513 20.4051 8.07269 20.6601 10.4057C20.6819 10.6055 20.6976 10.8084 20.6879 11.0082C20.6807 11.1583 20.7319 11.2107 20.8707 11.2575C22.567 11.8261 23.6145 12.989 23.9317 14.7491C24.3856 17.2702 22.5198 19.6532 19.9669 19.8619C19.7861 19.8768 19.6045 19.8861 19.4237 19.8861C16.9495 19.8877 14.4756 19.8873 12.0013 19.8873V19.8877ZM6.50759 15.5202C6.99583 15.4564 7.20001 15.5621 7.38481 15.9765C7.50263 16.24 7.60593 16.51 7.71447 16.7779C7.92147 17.2895 7.94326 17.3036 8.49727 17.2597C8.51745 17.258 8.53722 17.2556 8.55739 17.2536C8.81079 17.227 8.86083 17.1669 8.74865 16.9312C8.47266 16.3518 8.36089 15.6816 7.81858 15.245C8.50211 14.929 8.59855 14.5138 8.57192 14.0684C8.5348 13.4457 8.16317 13.0632 7.51837 13.0027C7.01803 12.9559 6.51203 12.9688 6.00846 12.9615C5.68122 12.9567 5.6211 13.0188 5.62029 13.3497C5.61827 14.4723 5.61867 15.5952 5.61867 16.7178C5.61867 17.2689 5.67839 17.321 6.23321 17.2528C6.24007 17.252 6.24653 17.2496 6.25298 17.25C6.45272 17.2552 6.51607 17.1572 6.51163 16.9615C6.50033 16.4853 6.508 16.0092 6.508 15.5206L6.50759 15.5202ZM10.2917 13.6572C10.7613 13.6572 11.2036 13.6572 11.6458 13.6572C11.8891 13.6572 11.9246 13.6249 11.9388 13.3868C11.9428 13.3203 11.9371 13.2525 11.9331 13.1859C11.9238 13.0281 11.8609 12.9539 11.6817 12.9567C11.0369 12.9676 10.3917 12.9599 9.74652 12.9611C9.49675 12.9615 9.41484 13.035 9.41443 13.2827C9.41161 14.4989 9.41161 15.715 9.41524 16.9316C9.41605 17.1713 9.49352 17.2387 9.73764 17.2395C10.3356 17.2411 10.9336 17.2403 11.5316 17.2403C11.9549 17.2403 11.9658 17.2237 11.9537 16.8013C11.9484 16.6177 11.8883 16.535 11.6902 16.543C11.3549 16.5568 11.0184 16.5471 10.6822 16.5471C10.5572 16.5471 10.4321 16.5471 10.3034 16.5471V15.3688C10.6911 15.3688 11.0668 15.3721 11.4424 15.3664C11.5179 15.3652 11.6539 15.3398 11.6587 15.3099C11.6854 15.1344 11.7023 14.9508 11.6728 14.7785C11.6648 14.7313 11.4856 14.6901 11.3839 14.6869C11.024 14.676 10.6637 14.6825 10.2917 14.6825V13.6576V13.6572ZM13.5282 17.3573C13.8179 17.3065 14.0325 17.2843 14.2383 17.229C14.7371 17.095 15.1167 16.6625 15.1728 16.1997C15.243 15.6202 15.0586 15.1679 14.5288 14.8858C14.363 14.7975 14.1899 14.7236 14.0224 14.6389C13.8667 14.5602 13.7073 14.4864 13.562 14.3912C13.3974 14.283 13.3191 14.1224 13.3672 13.9207C13.414 13.7266 13.5556 13.6382 13.7404 13.5995C14.0111 13.5426 14.2601 13.6136 14.5026 13.7238C14.9465 13.9255 14.9396 13.9255 14.944 13.4304C14.9461 13.2234 14.8629 13.1084 14.6761 13.0346C14.2145 12.8514 13.7481 12.8252 13.2764 12.9789C12.8289 13.1246 12.5444 13.43 12.473 13.8981C12.3971 14.3932 12.5315 14.8229 12.9637 15.1142C13.1408 15.2337 13.3409 15.3184 13.5306 15.4185C13.7085 15.5125 13.899 15.5879 14.0616 15.7029C14.3771 15.9257 14.3364 16.3627 13.9829 16.5176C13.8413 16.5798 13.6605 16.6221 13.5152 16.5907C13.2251 16.5277 12.9491 16.4018 12.663 16.3151C12.59 16.2929 12.456 16.2884 12.4286 16.3292C12.2745 16.5555 12.3955 17.0095 12.6501 17.1055C12.9536 17.2197 13.2748 17.2863 13.5282 17.3569V17.3573ZM17.4167 13.6887C17.7117 13.6887 17.9788 13.6887 18.2459 13.6887C18.5776 13.6887 18.605 13.6604 18.6034 13.3211C18.6034 13.3009 18.6034 13.2807 18.6026 13.2605C18.5925 12.9926 18.5607 12.9611 18.2968 12.9611C17.4498 12.9611 16.6029 12.9611 15.7559 12.9611C15.3435 12.9611 15.3173 12.9886 15.3338 13.403C15.335 13.4365 15.3371 13.47 15.3411 13.5034C15.3568 13.6374 15.4198 13.6979 15.5671 13.6927C15.8806 13.6814 16.1949 13.6895 16.5302 13.6895V13.9275C16.5302 14.8754 16.5302 15.8232 16.5302 16.7706C16.5302 17.2532 16.5976 17.3125 17.0903 17.2621C17.1105 17.2601 17.1302 17.2524 17.15 17.2528C17.3598 17.2572 17.4199 17.1515 17.4183 16.9494C17.4111 15.9479 17.4159 14.9464 17.4167 13.9449C17.4167 13.8666 17.4167 13.7883 17.4167 13.6895V13.6887ZM3.78273 15.36C4.2629 15.1635 4.38315 14.7737 4.39485 14.3246C4.4013 14.076 4.39606 13.8271 4.4009 13.5785C4.40211 13.5055 4.39767 13.4171 4.4352 13.3638C4.49371 13.2807 4.57642 13.1806 4.666 13.1593C4.91496 13.1003 4.94684 13.0943 4.92828 12.8328C4.92061 12.7271 4.87582 12.5641 4.80239 12.5322C4.3085 12.3175 3.76498 12.6238 3.66168 13.1544C3.64272 13.2529 3.62577 13.3533 3.62173 13.4534C3.60802 13.7891 3.61044 14.1256 3.58703 14.4606C3.56807 14.7309 3.468 14.9585 3.16295 15.0238C3.12583 15.0319 3.08467 15.0537 3.06006 15.082C2.92367 15.2385 3.03988 15.6178 3.2146 15.7142C3.34493 15.7861 3.47123 15.9083 3.53821 16.0395C3.60116 16.1621 3.59349 16.3256 3.59954 16.472C3.61487 16.8206 3.60761 17.1709 3.63223 17.5187C3.67177 18.0808 3.97359 18.3641 4.50621 18.3649C4.89035 18.3653 4.99042 18.2559 4.92223 17.8782C4.91093 17.8149 4.82861 17.7289 4.76647 17.7168C4.45779 17.6555 4.41058 17.6192 4.4013 17.302C4.39202 16.9998 4.40373 16.6968 4.39444 16.3945C4.38113 15.9483 4.27138 15.5516 3.78273 15.36ZM20.1291 15.343C19.6796 15.5807 19.5557 15.9616 19.5283 16.3869C19.5061 16.7287 19.5129 17.072 19.4952 17.4138C19.4855 17.5994 19.3846 17.7172 19.1841 17.7063C19.0416 17.6987 18.9726 17.7802 18.9839 17.8976C18.9977 18.0404 19.0085 18.2551 19.0973 18.3072C19.4786 18.5291 20.0802 18.27 20.2049 17.8468C20.263 17.6498 20.2812 17.4388 20.2957 17.2326C20.3191 16.8981 20.307 16.5604 20.3429 16.2279C20.3679 15.9983 20.4604 15.7748 20.7133 15.6969C20.9425 15.6263 20.8941 15.4471 20.8977 15.2869C20.901 15.1413 20.8586 15.0392 20.6863 14.9984C20.4144 14.9335 20.328 14.8096 20.3078 14.5247C20.2977 14.3843 20.3026 14.2427 20.2973 14.1014C20.2868 13.8065 20.2957 13.5087 20.257 13.2174C20.1892 12.7065 19.8878 12.4717 19.3697 12.4874C19.0146 12.4983 18.9121 12.6161 18.9855 12.9648C19.0001 13.0334 19.0888 13.1233 19.1574 13.1379C19.4492 13.1996 19.4871 13.219 19.504 13.5224C19.521 13.8242 19.523 14.1273 19.5194 14.4295C19.5137 14.8588 19.6408 15.199 20.1287 15.343H20.1291Z" fill="#002C51"/>
<path d="M6.507 15.5202C6.507 16.0088 6.49933 16.4854 6.51063 16.9611C6.51547 17.1568 6.45172 17.2548 6.25199 17.2496C6.24553 17.2496 6.23867 17.2516 6.23221 17.2524C5.6774 17.3206 5.61727 17.2686 5.61768 16.7174C5.61768 15.5948 5.61768 14.4719 5.61929 13.3493C5.6197 13.0185 5.67982 12.9567 6.00746 12.9612C6.51104 12.9684 7.01743 12.9555 7.51737 13.0023C8.16217 13.0628 8.5338 13.4454 8.57092 14.068C8.59755 14.5138 8.50112 14.9286 7.81758 15.2446C8.35989 15.6812 8.47206 16.3514 8.74766 16.9308C8.85983 17.1665 8.8098 17.2266 8.5564 17.2532C8.53622 17.2552 8.51645 17.2577 8.49627 17.2593C7.94226 17.3033 7.92088 17.2895 7.71348 16.7775C7.60493 16.51 7.50164 16.24 7.38381 15.9761C7.19901 15.5621 6.99484 15.456 6.5066 15.5198L6.507 15.5202ZM6.50781 13.635C6.50781 14.026 6.50498 14.373 6.51184 14.7204C6.51265 14.7559 6.57035 14.8221 6.5994 14.8209C6.83222 14.8112 7.07029 14.8153 7.29464 14.7624C7.52988 14.7071 7.67474 14.4448 7.65941 14.1991C7.64165 13.9138 7.49881 13.7306 7.21555 13.6846C6.99363 13.6487 6.76524 13.6515 6.50821 13.6354L6.50781 13.635Z" fill="white"/>
<path d="M10.2918 13.6572V14.6821C10.6639 14.6821 11.0242 14.6752 11.3841 14.6865C11.4858 14.6898 11.665 14.7309 11.673 14.7781C11.7025 14.9504 11.6851 15.134 11.6589 15.3095C11.6545 15.3394 11.5185 15.3648 11.4426 15.366C11.067 15.3717 10.6913 15.3685 10.3035 15.3685V16.5467C10.4319 16.5467 10.5573 16.5467 10.6824 16.5467C11.0186 16.5467 11.3547 16.5564 11.6904 16.5427C11.8889 16.5346 11.949 16.6173 11.9539 16.8009C11.9656 17.2238 11.9551 17.2399 11.5318 17.2399C10.9338 17.2399 10.3358 17.2407 9.73783 17.2391C9.49371 17.2383 9.41624 17.1709 9.41543 16.9312C9.4118 15.7151 9.4118 14.4989 9.41462 13.2823C9.41503 13.035 9.49694 12.9616 9.74671 12.9608C10.3919 12.9591 11.0371 12.9668 11.6819 12.9563C11.8611 12.9535 11.924 13.0281 11.9333 13.1855C11.9373 13.2525 11.943 13.3199 11.9389 13.3865C11.9248 13.6245 11.8893 13.6564 11.646 13.6568C11.2038 13.6572 10.7619 13.6568 10.2918 13.6568V13.6572Z" fill="white"/>
<path d="M13.5277 17.3573C13.2743 17.2867 12.9531 17.2201 12.6496 17.1059C12.395 17.0103 12.274 16.5559 12.4281 16.3296C12.456 16.2888 12.5895 16.2933 12.6626 16.3154C12.9482 16.4022 13.2246 16.5281 13.5148 16.591C13.66 16.6225 13.8408 16.5801 13.9824 16.518C14.3359 16.3631 14.3766 15.9261 14.0611 15.7033C13.8985 15.5883 13.7076 15.5125 13.5301 15.4189C13.34 15.3188 13.1399 15.2336 12.9632 15.1146C12.531 14.8233 12.3966 14.3932 12.4725 13.8985C12.5439 13.4304 12.8288 13.1249 13.2759 12.9793C13.7476 12.8255 14.214 12.8518 14.6756 13.035C14.8621 13.1088 14.9456 13.2242 14.9436 13.4308C14.9391 13.9259 14.946 13.9259 14.5021 13.7241C14.26 13.614 14.0107 13.543 13.7399 13.5999C13.5551 13.6386 13.4135 13.727 13.3667 13.9211C13.3182 14.1224 13.3965 14.2834 13.5616 14.3915C13.7068 14.4868 13.8666 14.5606 14.022 14.6393C14.1894 14.724 14.3629 14.7979 14.5284 14.8862C15.0582 15.1683 15.2426 15.6206 15.1723 16.2C15.1163 16.6629 14.7366 17.0954 14.2378 17.2294C14.032 17.2847 13.8174 17.3064 13.5277 17.3577V17.3573Z" fill="white"/>
<path d="M17.4165 13.6882C17.4165 13.7875 17.4165 13.8654 17.4165 13.9436C17.4157 14.9451 17.4108 15.9466 17.4181 16.9481C17.4197 17.1499 17.3596 17.256 17.1498 17.2516C17.13 17.2512 17.1102 17.2588 17.0901 17.2608C16.597 17.3113 16.53 17.2524 16.53 16.7694C16.53 15.8215 16.53 14.8737 16.53 13.9263V13.6882C16.1947 13.6882 15.8808 13.6806 15.5668 13.6915C15.4196 13.6967 15.3566 13.6362 15.3409 13.5022C15.3368 13.4687 15.3348 13.4352 15.3336 13.4017C15.3171 12.9869 15.3433 12.9599 15.7557 12.9599C16.6026 12.9599 17.4496 12.9599 18.2965 12.9599C18.5604 12.9599 18.5923 12.9914 18.6024 13.2593C18.6032 13.2795 18.6032 13.2997 18.6032 13.3198C18.6048 13.6592 18.5774 13.6874 18.2457 13.6874C17.9786 13.6874 17.7115 13.6874 17.4165 13.6874V13.6882Z" fill="white"/>
<path d="M3.78248 15.36C4.27072 15.5516 4.38047 15.9483 4.39419 16.3945C4.40347 16.6968 4.39177 16.9998 4.40105 17.302C4.41074 17.6192 4.45754 17.6555 4.76622 17.7168C4.82836 17.7293 4.91027 17.8153 4.92198 17.8782C4.99017 18.2555 4.8901 18.3653 4.50596 18.3649C3.97334 18.3641 3.67152 18.0808 3.63197 17.5187C3.60736 17.1709 3.61462 16.8206 3.59929 16.472C3.59283 16.3255 3.6005 16.1621 3.53796 16.0395C3.47098 15.9083 3.34468 15.7865 3.21435 15.7142C3.03963 15.6178 2.92342 15.2385 3.05981 15.082C3.08442 15.0537 3.12558 15.0315 3.1627 15.0238C3.46815 14.9581 3.56782 14.7309 3.58678 14.4606C3.61019 14.1256 3.60736 13.7891 3.62148 13.4534C3.62552 13.3533 3.64247 13.2533 3.66143 13.1544C3.76473 12.6238 4.30825 12.3175 4.80214 12.5322C4.87557 12.5641 4.92077 12.7271 4.92803 12.8328C4.94659 13.0943 4.91471 13.1003 4.66575 13.1593C4.57617 13.1806 4.49346 13.2807 4.43495 13.3638C4.39742 13.4175 4.40226 13.5055 4.40065 13.5785C4.39581 13.8271 4.40105 14.076 4.3946 14.3246C4.3829 14.7733 4.26305 15.1635 3.78248 15.36Z" fill="white"/>
<path d="M20.1288 15.343C19.641 15.199 19.5139 14.8588 19.5196 14.4295C19.5236 14.1273 19.5212 13.8242 19.5042 13.5224C19.4873 13.219 19.4489 13.2 19.1576 13.1379C19.089 13.1234 19.0002 13.0338 18.9857 12.9648C18.9123 12.6162 19.0148 12.4983 19.3699 12.4874C19.888 12.4717 20.1898 12.7061 20.2572 13.2174C20.2959 13.5087 20.2866 13.8065 20.2975 14.1015C20.3028 14.2427 20.2975 14.3839 20.308 14.5247C20.3282 14.8096 20.4145 14.9335 20.6865 14.9984C20.8584 15.0396 20.9011 15.1413 20.8979 15.2869C20.8943 15.4467 20.9427 15.6263 20.7135 15.6969C20.4605 15.7748 20.3681 15.9979 20.3431 16.2279C20.3068 16.5604 20.3189 16.8981 20.2959 17.2326C20.2814 17.4388 20.2632 17.6499 20.2051 17.8468C20.0804 18.27 19.4788 18.5295 19.0975 18.3072C19.0087 18.2555 18.9978 18.0409 18.9841 17.8976C18.9728 17.7798 19.0414 17.6983 19.1842 17.7064C19.3848 17.7172 19.4857 17.5994 19.4953 17.4138C19.5131 17.0716 19.5062 16.7283 19.5284 16.3869C19.5559 15.9616 19.6801 15.5807 20.1292 15.343H20.1288Z" fill="white"/>
<path d="M6.5083 13.635C6.76534 13.6511 6.99372 13.6483 7.21565 13.6842C7.49931 13.7302 7.64215 13.9134 7.6595 14.1987C7.67483 14.4444 7.52998 14.7067 7.29473 14.762C7.07038 14.8148 6.83191 14.8108 6.5995 14.8205C6.57044 14.8217 6.51274 14.7559 6.51194 14.72C6.50508 14.373 6.5079 14.0256 6.5079 13.6346L6.5083 13.635Z" fill="black"/>
</svg>
