<?xml version="1.0" encoding="utf-8"?><!-- Uploaded to: SVG Repo, www.svgrepo.com, Generator: SVG Repo Mixer Tools -->
<svg width="800px" height="800px" viewBox="0 0 16 16" xmlns="http://www.w3.org/2000/svg" fill="none"><path fill="#FA7E14" d="M7.983 8.37c-.053.073-.098.133-.141.194L5.775 11.5c-.64.91-1.282 1.82-1.924 2.73a.128.128 0 01-.092.051c-.906-.007-1.813-.017-2.719-.028-.01 0-.02-.003-.04-.006a.455.455 0 01.025-.053 13977.496 13977.496 0 015.446-8.146c.092-.138.188-.273.275-.413a.165.165 0 00.018-.124c-.167-.515-.338-1.03-.508-1.543-.073-.22-.15-.44-.218-.66-.022-.072-.059-.094-.134-.093-.57.002-1.136.001-1.704.001-.108 0-.108 0-.108-.103 0-.674 0-1.347-.002-2.021 0-.075.026-.092.099-.092 1.143.002 2.286.002 3.43 0a.113.113 0 01.076.017.107.107 0 01.045.061 18266.184 18266.184 0 003.92 9.51c.218.53.438 1.059.654 1.59.026.064.053.076.12.056.6-.178 1.2-.352 1.8-.531.075-.023.102-.008.126.064.204.62.412 1.239.62 1.858l.02.073c-.043.015-.083.032-.124.043l-4.085 1.25c-.065.02-.085 0-.106-.054l-1.25-3.048-1.226-2.984-.183-.449c-.01-.026-.023-.048-.043-.087z"/></svg>