<svg viewBox="0 0 35 35" fill="none" xmlns="http://www.w3.org/2000/svg">
<path d="M17.4744 0.0253906C7.84041 0.0253906 0 7.8658 0 17.4998C0 27.1337 7.84041 34.9741 17.4744 34.9741C27.1596 35.0254 35 27.185 35 17.4998C35 7.81455 27.1596 0.0253906 17.4744 0.0253906ZM17.4744 30.4134C10.4026 30.4134 4.612 24.6227 4.612 17.4998C4.612 10.428 10.4026 4.63739 17.4744 4.63739C24.5974 4.63739 30.388 10.428 30.388 17.4998C30.388 24.6227 24.5974 30.4134 17.4744 30.4134Z" fill="#E31E26"/>
<path d="M21.8303 16.7823C23.8397 16.7823 25.4686 15.1534 25.4686 13.144C25.4686 11.1346 23.8397 9.50562 21.8303 9.50562C19.8208 9.50562 18.1919 11.1346 18.1919 13.144C18.1919 15.1534 19.8208 16.7823 21.8303 16.7823Z" fill="#E31E26"/>
<path d="M21.8303 25.494C23.8397 25.494 25.4686 23.8651 25.4686 21.8556C25.4686 19.8462 23.8397 18.2173 21.8303 18.2173C19.8208 18.2173 18.1919 19.8462 18.1919 21.8556C18.1919 23.8651 19.8208 25.494 21.8303 25.494Z" fill="#E31E26"/>
<path d="M13.1186 25.494C15.128 25.494 16.7569 23.8651 16.7569 21.8556C16.7569 19.8462 15.128 18.2173 13.1186 18.2173C11.1092 18.2173 9.48022 19.8462 9.48022 21.8556C9.48022 23.8651 11.1092 25.494 13.1186 25.494Z" fill="#E31E26"/>
<path d="M13.1186 16.7823C15.128 16.7823 16.7569 15.1534 16.7569 13.144C16.7569 11.1346 15.128 9.50562 13.1186 9.50562C11.1092 9.50562 9.48022 11.1346 9.48022 13.144C9.48022 15.1534 11.1092 16.7823 13.1186 16.7823Z" fill="#E31E26"/>
</svg>