<svg width="24" height="24" viewBox="0 0 24 24" fill="none" xmlns="http://www.w3.org/2000/svg">
<path d="M11.5 19.375C11.3667 19.2417 11.3 19.0708 11.3 18.8625C11.3 18.6542 11.3667 18.4833 11.5 18.35L17.15 12.7H4.825C4.60833 12.7 4.43333 12.6333 4.3 12.5C4.16667 12.3667 4.1 12.2 4.1 12C4.1 11.7833 4.16667 11.6083 4.3 11.475C4.43333 11.3417 4.60833 11.275 4.825 11.275H17.15L11.5 5.625C11.3667 5.49167 11.3 5.32083 11.3 5.1125C11.3 4.90417 11.3667 4.73333 11.5 4.6C11.6333 4.46667 11.8042 4.4 12.0125 4.4C12.2208 4.4 12.3833 4.46667 12.5 4.6L19.425 11.5C19.4917 11.5667 19.5417 11.6417 19.575 11.725C19.6083 11.8083 19.625 11.9 19.625 12C19.625 12.0833 19.6083 12.1667 19.575 12.25C19.5417 12.3333 19.4917 12.4167 19.425 12.5L12.5 19.4C12.3833 19.5333 12.2208 19.5958 12.0125 19.5875C11.8042 19.5792 11.6333 19.5083 11.5 19.375Z" fill="#384151"/>
</svg>
