<svg width="16" height="16" viewBox="0 0 16 16" fill="none" xmlns="http://www.w3.org/2000/svg">
<path d="M7.26641 12.9662L2.76641 8.46622C2.68863 8.39955 2.63585 8.32733 2.60807 8.24955C2.5803 8.17177 2.56641 8.08844 2.56641 7.99955C2.56641 7.91066 2.5803 7.82733 2.60807 7.74955C2.63585 7.67177 2.68863 7.59955 2.76641 7.53289L7.28307 3.01622C7.41641 2.88289 7.57196 2.819 7.74974 2.82455C7.92752 2.83011 8.07752 2.89955 8.19974 3.03289C8.33307 3.16622 8.39974 3.32177 8.39974 3.49955C8.39974 3.67733 8.33307 3.83289 8.19974 3.96622L4.83307 7.33289H12.5164C12.7053 7.33289 12.8636 7.39677 12.9914 7.52455C13.1192 7.65233 13.1831 7.81066 13.1831 7.99955C13.1831 8.18844 13.1192 8.34677 12.9914 8.47455C12.8636 8.60233 12.7053 8.66622 12.5164 8.66622H4.83307L8.21641 12.0496C8.34974 12.1829 8.41363 12.3357 8.40807 12.5079C8.40252 12.6801 8.33307 12.8329 8.19974 12.9662C8.06641 13.0996 7.91085 13.1662 7.73307 13.1662C7.5553 13.1662 7.39974 13.0996 7.26641 12.9662Z" fill="#ECEDEE"/>
</svg>
