<svg width="16" height="16" viewBox="0 0 16 16" fill="none" xmlns="http://www.w3.org/2000/svg">
<path d="M7.53307 12.9496C7.41085 12.8274 7.34974 12.6746 7.34974 12.4913C7.34974 12.3079 7.41085 12.1496 7.53307 12.0163L10.8997 8.66628H3.21641C3.02752 8.66628 2.87196 8.60239 2.74974 8.47461C2.62752 8.34683 2.56641 8.1885 2.56641 7.99961C2.56641 7.81072 2.62752 7.65239 2.74974 7.52461C2.87196 7.39683 3.02752 7.33294 3.21641 7.33294H10.8997L7.53307 3.96628C7.41085 3.84405 7.34974 3.6885 7.34974 3.49961C7.34974 3.31072 7.41085 3.15516 7.53307 3.03294C7.66641 2.91072 7.82474 2.84961 8.00807 2.84961C8.19141 2.84961 8.34418 2.91072 8.46641 3.03294L12.9831 7.53294C13.0497 7.59961 13.0997 7.67183 13.1331 7.74961C13.1664 7.82739 13.1831 7.91072 13.1831 7.99961C13.1831 8.07739 13.1664 8.15794 13.1331 8.24128C13.0997 8.32461 13.0497 8.39961 12.9831 8.46628L8.46641 12.9663C8.34418 13.0996 8.19141 13.1607 8.00807 13.1496C7.82474 13.1385 7.66641 13.0718 7.53307 12.9496V12.9496Z" fill="#ECEDEE"/>
</svg>
