<svg width="24" height="24" viewBox="0 0 24 24" fill="none" xmlns="http://www.w3.org/2000/svg">
<path d="M8.85 17.45C8.71667 17.2833 8.64583 17.1 8.6375 16.9C8.62917 16.7 8.7 16.525 8.85 16.375L13.25 11.975L8.825 7.55C8.69167 7.41667 8.62917 7.2375 8.6375 7.0125C8.64583 6.7875 8.71667 6.60833 8.85 6.475C9.01667 6.30833 9.19583 6.22917 9.3875 6.2375C9.57917 6.24583 9.75 6.325 9.9 6.475L14.875 11.45C14.9583 11.5333 15.0167 11.6167 15.05 11.7C15.0833 11.7833 15.1 11.875 15.1 11.975C15.1 12.075 15.0833 12.1667 15.05 12.25C15.0167 12.3333 14.9583 12.4167 14.875 12.5L9.925 17.45C9.775 17.6 9.6 17.6708 9.4 17.6625C9.2 17.6542 9.01667 17.5833 8.85 17.45Z" fill="#384151"/>
</svg>
