<svg width="18" height="18" viewBox="0 0 18 18" fill="none" xmlns="http://www.w3.org/2000/svg">
<path fill-rule="evenodd" clip-rule="evenodd" d="M8.99984 2.33366C5.31794 2.33366 2.33317 5.31843 2.33317 9.00033C2.33317 12.6822 5.31794 15.667 8.99984 15.667C12.6817 15.667 15.6665 12.6822 15.6665 9.00033C15.6665 5.31843 12.6817 2.33366 8.99984 2.33366ZM0.666504 9.00033C0.666504 4.39795 4.39746 0.666992 8.99984 0.666992C13.6022 0.666992 17.3332 4.39795 17.3332 9.00033C17.3332 13.6027 13.6022 17.3337 8.99984 17.3337C4.39746 17.3337 0.666504 13.6027 0.666504 9.00033ZM8.1665 5.66699C8.1665 5.20676 8.5396 4.83366 8.99984 4.83366H9.00817C9.46841 4.83366 9.8415 5.20676 9.8415 5.66699C9.8415 6.12723 9.46841 6.50033 9.00817 6.50033H8.99984C8.5396 6.50033 8.1665 6.12723 8.1665 5.66699ZM7.33317 9.00033C7.33317 8.54009 7.70627 8.16699 8.1665 8.16699H8.99984C9.46008 8.16699 9.83317 8.54009 9.83317 9.00033V11.5003C10.2934 11.5003 10.6665 11.8734 10.6665 12.3337C10.6665 12.7939 10.2934 13.167 9.83317 13.167H8.99984C8.5396 13.167 8.1665 12.7939 8.1665 12.3337V9.83366C7.70627 9.83366 7.33317 9.46056 7.33317 9.00033Z" fill="#F76808"/>
</svg>
