<svg width="100%" height="100%" viewBox="0 0 24 24" fill="none" xmlns="http://www.w3.org/2000/svg">
<path d="M14.7861 24H15.0775L19.8405 21.618L19.9194 21.5055V2.49261L19.8405 2.38009L15.0784 0H14.7832L14.7861 24Z" fill="#5294CF"/>
<path d="M8.58686 24H8.29067L3.53144 21.618L3.43528 21.4516L3.38623 2.58973L3.53144 2.38009L8.29163 0H8.59166L8.58686 24Z" fill="#1F5B98"/>
<path d="M8.29932 0H15.0732V24H8.29932V0Z" fill="#2D72B8"/>
<path d="M22.3349 11.461L22.1743 11.4254L19.8759 11.211L19.8423 11.2283L15.0744 11.0379H8.3005L3.53262 11.2283V7.59226L3.52781 7.59515L3.53262 7.58457L8.3005 6.47963H15.0734L19.8413 7.58457L21.5944 8.51641V7.9173L22.3349 7.83652L22.2579 7.6865L19.9125 6.00938L19.8413 6.03246L15.0734 4.55536H8.29954L3.53166 6.03246V2.3801L1.03809 5.30064V7.85191L1.05732 7.83748L1.77856 7.91634V8.52795L1.03809 8.92415V11.4629L1.05732 11.461L1.77856 11.4716V12.5371L1.15637 12.5467L1.03809 12.5352V15.0749L1.77856 15.473V16.0914L1.06886 16.1693L1.03809 16.1462V18.6965L3.53166 21.618V17.9656L8.29954 19.4427H15.0734L19.8548 17.9608L19.9182 17.9887L22.2329 16.3366L22.3339 16.1721L21.5934 16.0904V15.4846L21.4963 15.4461L19.9125 16.3L19.8548 16.4202L15.0734 17.5185V17.5194H8.29954V17.5185L3.53166 16.4154V12.7669L8.29954 12.9573V12.9621H15.0734L19.8413 12.7679L19.95 12.8179L22.1781 12.6265L22.3349 12.5496L21.5944 12.539V11.4735L22.3349 11.461Z" fill="#1A476F"/>
<path d="M19.8413 17.9656V21.618L22.3349 18.6965V16.1625L19.8557 17.9618L19.8413 17.9656ZM19.8413 16.4231L19.8557 16.4202L22.3349 15.0864V12.5371L19.8413 12.766V16.4231ZM19.8557 7.58745L19.8413 7.58457V11.2283L22.3349 11.461V8.91261L19.8557 7.58745ZM19.8557 6.04688L22.3349 7.83556V5.3016L19.8413 2.3801V6.03246L19.8557 6.03727V6.04688Z" fill="#2D72B8"/>
</svg>
