
<?xml version="1.0" encoding="utf-8"?>
<!-- Generator: Adobe Illustrator 25.0.0, SVG Export Plug-In . SVG Version: 6.00 Build 0)  -->
<svg version="1.1" id="katman_1" xmlns="http://www.w3.org/2000/svg" xmlns:xlink="http://www.w3.org/1999/xlink" x="0px" y="0px"
	 viewBox="0 0 4433.7 3012" style="enable-background:new 0 0 4433.7 3012;" xml:space="preserve">
<style type="text/css">
	.st0{fill:#5294CF;}
	.st1{fill:#1F5B98;}
	.st2{fill:#2D72B8;}
	.st3{fill:#1A476F;}
</style>
<path class="st0" d="M2539.1,2751.7h30.3l495.3-247.7l8.2-11.7V515.2l-8.2-11.7L2569.5,256h-30.7L2539.1,2751.7"/>
<path class="st1" d="M1894.5,2751.7h-30.8L1368.8,2504l-10-17.3l-5.1-1961.4l15.1-21.8L1863.8,256h31.2L1894.5,2751.7"/>
<path class="st2" d="M1864.6,256H2569v2495.7h-704.4V256z"/>
<path class="st3" d="M3324.1,1447.8l-16.7-3.7l-239-22.3l-3.5,1.8l-495.8-19.8h-704.4l-495.8,19.8v-378.1l-0.5,0.3l0.5-1.1
	l495.8-114.9H2569l495.8,114.9l182.3,96.9v-62.3l77-8.4l-8-15.6l-243.9-174.4l-7.4,2.4L2569,729.7h-704.4l-495.8,153.6V503.5
	l-259.3,303.7v265.3l2-1.5l75,8.2v63.6l-77,41.2v264l2-0.2l75,1.1v110.8l-64.7,1l-12.3-1.2v264.1l77,41.4v64.3l-73.8,8.1l-3.2-2.4
	v265.2l259.3,303.8v-379.8l495.8,153.6H2569l497.2-154.1l6.6,2.9l240.7-171.8l10.5-17.1l-77-8.5v-63l-10.1-4l-164.7,88.8l-6,12.5
	L2569,2077.7v0.1h-704.4v-0.1L1368.8,1963v-379.4l495.8,19.8v0.5H2569l495.8-20.2l11.3,5.2l231.7-19.9l16.3-8l-77-1.1v-110.8
	L3324.1,1447.8"/>
<path class="st2" d="M3064.8,2124.2V2504l259.3-303.8v-263.5l-257.8,187.1L3064.8,2124.2 M3064.8,1963.8l1.5-0.3l257.8-138.7v-265.1
	l-259.3,23.8L3064.8,1963.8 M3066.3,1045l-1.5-0.3v378.9l259.3,24.2v-265L3066.3,1045 M3066.3,884.8l257.8,186V807.3l-259.3-303.8
	v379.8l1.5,0.5V884.8"/>
</svg>
