<svg width="24" height="24" viewBox="0 0 24 24" fill="none" xmlns="http://www.w3.org/2000/svg">
<path d="M11.2381 8.42406V19.5773H2L11.2381 8.42406ZM11.2381 4.42169C11.2381 5.64674 10.7514 6.8216 9.88518 7.68784C9.01895 8.55408 7.84408 9.04073 6.61903 9.04073C5.39399 9.04073 4.21912 8.55408 3.35288 7.68784C2.48665 6.8216 2 5.64674 2 4.42169L11.2381 4.42169ZM12.76 19.5783C12.76 18.3533 13.2466 17.1784 14.1128 16.3122C14.9791 15.4459 16.1539 14.9593 17.379 14.9593C18.604 14.9593 19.7789 15.4459 20.6451 16.3122C21.5114 17.1784 21.998 18.3533 21.998 19.5783H12.76ZM12.76 15.576V4.42169H22L12.76 15.576Z" fill="white"/>
</svg>
