<svg xmlns="http://www.w3.org/2000/svg" xmlns:xlink="http://www.w3.org/1999/xlink" width="5.18em" height="1em" preserveAspectRatio="xMidYMid meet" viewBox="0 0 512 99" style="-ms-transform: rotate(360deg); -webkit-transform: rotate(360deg); transform: rotate(360deg);"><path fill="#03363D" d="M340.962 29.149c21.899 0 34.319 16.728 33.204 39.946h-51.657c1.49 9.834 10.433 16.77 20.328 15.765a25.347 25.347 0 0 0 18.199-7.097l9.023 9.784a35.485 35.485 0 0 1-27.12 10.747c-22.052 0-36.297-14.701-36.297-34.573a33.812 33.812 0 0 1 34.32-34.572Zm-236.382 0c21.9 0 34.319 16.728 33.204 39.946H86.178c1.49 9.812 10.4 16.74 20.277 15.765a25.347 25.347 0 0 0 18.2-7.097l9.023 9.784a35.485 35.485 0 0 1-27.121 10.747c-22.052 0-36.296-14.701-36.296-34.573A33.812 33.812 0 0 1 104.58 29.15Zm333.51 12.42l-11.812 6.894a17.134 17.134 0 0 0-14.853-7.554c-7.553 0-11.406 3.7-11.406 7.96c0 4.257 6.083 6.082 15.664 8.211l.656.145l.658.148c.33.075.66.15.991.229l.662.158c.221.053.442.108.663.163l.663.168l.661.174c9.364 2.507 18.264 6.865 18.264 18.586c0 9.175-7.96 21.494-26.817 21.392a31.024 31.024 0 0 1-29.098-15.36l12.724-6.843a18.909 18.909 0 0 0 16.982 9.682c7.96 0 12.065-4.106 12.065-8.77s-7.705-6.489-16.07-8.212a151.41 151.41 0 0 1-.678-.145l-.679-.148l-.34-.076l-.678-.154c-10.504-2.427-20.588-6.518-20.588-19.247c0-10.494 10.138-20.278 25.65-20.278a30.416 30.416 0 0 1 26.716 12.876ZM293.31 0v96.925h-14.093V87.8a28.239 28.239 0 0 1-22.152 10.494a33.41 33.41 0 0 1-33.103-34.573A33.103 33.103 0 0 1 257.166 29.2a28.59 28.59 0 0 1 22.051 10.139V0h14.093ZM58.297 30.77v12.978L18.452 84.303h40.555v12.774H0V84.15l39.845-40.554H.912V30.771h57.385ZM464.399 0v63.468l29.858-33.052h17.135l-25.904 28.439L512 96.925h-15.867l-20.581-29.453l-11.153 12.218v17.286h-14.092V0h14.092ZM182.09 29.2c16.73 0 30.822 10.898 30.822 28.945v38.78h-14.498V59.92c0-10.848-5.272-17.388-15.918-17.388a15.715 15.715 0 0 0-16.78 17.388v37.006H151.37v-38.78c0-18.047 13.99-28.946 30.72-28.946Zm76.902 13.534c-11.59 0-20.987 9.396-20.987 20.987c0 11.59 9.396 20.987 20.987 20.987c11.59 0 20.987-9.396 20.987-20.987c0-11.59-9.396-20.987-20.987-20.987Zm63.468 15.259l36.144.05c-.491-9.14-8.298-16.153-17.439-15.664c-9.38-.55-17.57 6.287-18.705 15.614Zm-236.28 0l36.042.05c-.518-9.12-8.316-16.102-17.438-15.613c-9.325-.498-17.448 6.297-18.605 15.563Z"/></svg>