<svg width="100%" height="100%" viewBox="0 0 24 24" fill="none" xmlns="http://www.w3.org/2000/svg">
<path d="M11.0857 7.70885V21.0928H0L11.0857 7.70885ZM11.0857 2.90601C11.0857 4.37606 10.5017 5.7859 9.46222 6.82539C8.42274 7.86487 7.01289 8.44885 5.54284 8.44885C4.07279 8.44885 2.66295 7.86487 1.62346 6.82539C0.583977 5.7859 0 4.37606 0 2.90601L11.0857 2.90601ZM12.9119 21.094C12.9119 19.6239 13.4959 18.2141 14.5354 17.1746C15.5749 16.1351 16.9847 15.5511 18.4548 15.5511C19.9248 15.5511 21.3347 16.1351 22.3742 17.1746C23.4137 18.2141 23.9976 19.6239 23.9976 21.094H12.9119ZM12.9119 16.2911V2.90601H24L12.9119 16.2899V16.2911Z" fill="#03363D"/>
</svg>
