<svg width="100%" height="100%" viewBox="0 0 24 24" fill="none" xmlns="http://www.w3.org/2000/svg">
<g clip-path="url(#clip0_817_123579)">
<path fill-rule="evenodd" clip-rule="evenodd" d="M24 14.5071L12 13.0128L0 14.5071L12 24L24 14.5071Z" fill="#FCBF92"/>
<path fill-rule="evenodd" clip-rule="evenodd" d="M0 14.5071L12 18.1338V24L0 17.9199V14.5071Z" fill="#9D5025"/>
<path fill-rule="evenodd" clip-rule="evenodd" d="M24 14.5071L12 18.1338V24L24 17.9199V14.5071Z" fill="#F58534"/>
<path fill-rule="evenodd" clip-rule="evenodd" d="M1.5495 9.3504H0V12.7989L1.5495 13.0842L3.2718 11.2371L1.5495 9.3507V9.3504Z" fill="#9D5025"/>
<path fill-rule="evenodd" clip-rule="evenodd" d="M3.27162 12.9414L1.54932 13.0839V9.3504H3.27162V12.9414Z" fill="#F58534"/>
<path fill-rule="evenodd" clip-rule="evenodd" d="M4.43307 5.04959L2.39307 5.43839V13.2624L4.43307 13.6902L6.30027 9.35009L4.43307 5.04929V5.04959Z" fill="#9D5025"/>
<path fill-rule="evenodd" clip-rule="evenodd" d="M6.30001 13.4763L4.43311 13.6902V5.04962L6.30001 5.26352V13.4763Z" fill="#F58534"/>
<path fill-rule="evenodd" clip-rule="evenodd" d="M8.41064 6.78989L5.59424 7.07519V13.9365L8.41064 14.5071L11.4001 10.6305L8.41064 6.78989Z" fill="#9D5025"/>
<path fill-rule="evenodd" clip-rule="evenodd" d="M10.3093 14.1861L8.41064 14.5071V6.78989L10.3093 6.93239V14.1858V14.1861Z" fill="#F58534"/>
<path fill-rule="evenodd" clip-rule="evenodd" d="M11.9998 0.567017L10.1011 1.17332V14.8281L11.9998 15.2166L13.8985 7.89182L11.9998 0.567017Z" fill="#9D5025"/>
<path fill-rule="evenodd" clip-rule="evenodd" d="M13.7578 14.1861L15.5896 14.5071L18.406 9.3504L15.5896 4.2294L13.7578 4.5147V14.1861Z" fill="#9D5025"/>
<path fill-rule="evenodd" clip-rule="evenodd" d="M18.406 9.3504L15.5896 4.2294L13.7578 4.5147" fill="#9D5025"/>
<path fill-rule="evenodd" clip-rule="evenodd" d="M17.6646 13.4766L19.5669 13.6905L21.6069 7.18231L19.5669 0.709808L17.6646 1.17331V13.4763V13.4766Z" fill="#9D5025"/>
<path fill-rule="evenodd" clip-rule="evenodd" d="M20.728 12.9414L22.4503 13.0839L23.9998 6.6474L22.4503 0L20.728 0.4278V12.9414Z" fill="#9D5025"/>
<path fill-rule="evenodd" clip-rule="evenodd" d="M12 0.567L13.8987 1.1733V14.8281L12 15.2166V0.567ZM18.4059 4.8L15.5895 4.2294V14.5071L18.4059 13.9365V4.8ZM21.6072 1.53L19.5672 0.7098V13.6905L21.6072 13.2624V1.53ZM24 0.7809L22.4505 0V13.0842L24 12.7989V0.7809Z" fill="#F58534"/>
</g>
<defs>
<clipPath id="clip0_817_123579">
<rect width="24" height="24" fill="white"/>
</clipPath>
</defs>
</svg>
