<svg xmlns="http://www.w3.org/2000/svg" viewBox="0 70 142 10" width="142" height="118" stroke="none" stroke-linecap="round" stroke-linejoin="round" fill="#fff" fill-rule="evenodd"><path d="M141.7323 70.8216l-70.8662-7.2947L0 70.8216l70.8661 46.3437 70.8662-46.3437z" fill="#fcbf92"/><path d="M0 70.8215l70.8661 17.7053v28.6386L0 87.4823V70.8215z" fill="#9d5025"/><path d="M141.7322 70.8215L70.8661 88.5268v28.6386l70.8661-29.6831V70.8215z" fill="#f58534"/><path d="M9.1501 45.6473H0v16.8349l9.1501 1.3927 10.1714-9.018-10.1714-9.2096z" fill="#9d5025"/><path d="M19.3215 63.1787l-10.1714.6962V45.6473h10.1714v17.5314z" fill="#f58534"/><path d="M26.1788 24.6517l-12.0472 1.8975v38.1962l12.0472 2.0892 11.0259-21.1873-11.0259-20.9956z" fill="#9d5025"/><path d="M37.2045 65.7901l-11.0257 1.0445V24.6517l11.0257 1.0445v40.0939z" fill="#f58534"/><path d="M49.6686 33.1475L33.036 34.5402v33.4956l16.6326 2.7856 17.6542-18.9239-17.6542-18.75z" fill="#9d5025"/><path d="M60.8822 69.2546l-11.2135 1.5668V33.1475l11.2135.6963v35.4108z" fill="#f58534"/><g fill="#9d5025"><path d="M70.8661 2.768L59.6526 5.7277v66.6605l11.2135 1.8978 11.2135-35.759L70.8661 2.768z"/><path d="M81.2459 69.2546l10.8177 1.5669 16.6327-25.1741-16.6327-24.9999-10.8177 1.3928v47.2143z"/><path d="M108.6963 45.6474L92.0636 20.6475l-10.8177 1.3928"/><path d="M104.3192 65.7901l11.2342 1.0445 12.0473-31.772-12.0473-31.5982-11.2342 2.2633v60.0624z"/><path d="M122.4108 63.1788l10.1714.6962 9.1501-31.4239L132.5822 0l-10.1714 2.0891v61.0897z"/></g><path d="M70.8661 2.768l11.2135 2.9597v66.6605L70.8661 74.286V2.768zm37.8301 20.665l-16.6326-2.7855v50.174l16.6326-2.7856V23.433zm18.9044-15.9643l-12.0472-4.0043v63.3702l12.0472-2.0892V7.4687zm14.1317-3.6561L132.5822 0v63.875l9.1501-1.3926V3.8126z" fill="#f58534"/></svg>