<svg xmlns="http://www.w3.org/2000/svg"  viewBox="0 0 48 48" width="144px" height="144px"><path fill="#2979ff" d="M32.66,7H15.34c-0.715,0-1.375,0.381-1.732,1l-8.66,15c-0.357,0.619-0.357,1.381,0,2l8.66,15c0.357,0.619,1.018,1,1.732,1H32.66c0.715,0,1.375-0.381,1.732-1l8.66-15c0.357-0.619,0.357-1.381,0-2l-8.66-15C34.035,7.381,33.375,7,32.66,7z"/><path fill="#fff" d="M32,35H16c-0.552,0-1-0.448-1-1V14c0-0.552,0.448-1,1-1h13l4,4v17C33,34.552,32.552,35,32,35z"/><path fill="#b1cfff" d="M29,13v3c0,0.552,0.448,1,1,1h3L29,13z"/><path fill="#03a9f4" d="M22.265 23.831H20.93V19.58l-1.312.383v-1.011l2.524-.873h.122V23.831zM28.702 21.48c0 .416-.049.776-.146 1.081-.097.303-.234.556-.411.756-.176.2-.387.349-.632.446-.245.097-.515.146-.81.146-.298 0-.57-.049-.816-.146-.246-.097-.457-.246-.633-.446-.176-.2-.315-.453-.413-.756-.099-.305-.147-.665-.147-1.081v-1.051c0-.413.049-.773.146-1.078.097-.305.234-.558.411-.758.176-.2.387-.349.632-.446C26.126 18.049 26.397 18 26.695 18c.295 0 .565.049.811.146.246.097.458.246.635.446.176.2.313.453.412.758.099.305.149.665.149 1.078V21.48zM27.37 20.26c0-.229-.016-.421-.047-.579-.032-.155-.076-.283-.134-.381-.058-.097-.129-.167-.212-.209-.083-.042-.176-.063-.282-.063-.105 0-.2.021-.283.063-.083.042-.153.112-.209.209-.057.097-.1.225-.13.381-.03.158-.045.35-.045.579v1.383c0 .234.014.431.045.589.03.158.075.286.133.381.058.097.129.166.213.208.084.042.179.063.284.063.103 0 .195-.021.278-.063.083-.042.154-.111.212-.208.058-.095.101-.223.132-.381.03-.158.046-.354.046-.589V20.26zM23.308 29.571c0 .416-.049.776-.146 1.081-.097.303-.234.556-.411.756-.176.2-.387.349-.632.446C21.874 31.951 21.604 32 21.309 32c-.298 0-.57-.049-.816-.146-.246-.097-.457-.246-.633-.446-.176-.2-.315-.453-.413-.756-.099-.305-.147-.665-.147-1.081V28.52c0-.413.049-.773.146-1.078.097-.305.234-.558.411-.758.176-.2.387-.349.632-.446.245-.097.516-.146.814-.146.295 0 .565.049.811.146.246.097.458.246.635.446.176.2.313.453.412.758s.149.665.149 1.078V29.571zM21.977 28.35c0-.229-.016-.421-.047-.579-.032-.155-.076-.283-.134-.381-.058-.097-.129-.167-.212-.209-.083-.042-.176-.063-.282-.063s-.2.021-.283.063c-.083.042-.153.112-.209.209-.057.097-.1.225-.13.381-.03.158-.045.35-.045.579v1.383c0 .234.014.431.045.589.03.158.075.286.133.381.058.097.129.166.213.208s.179.063.284.063c.103 0 .195-.021.278-.063.083-.042.154-.111.212-.208.058-.095.101-.223.132-.381.03-.158.046-.354.046-.589V28.35zM27.659 31.921h-1.335V27.67l-1.312.383v-1.011l2.524-.873h.122V31.921z"/></svg>