<svg width="24" height="24" viewBox="0 0 24 24" fill="none" xmlns="http://www.w3.org/2000/svg">
<rect width="20" height="20" transform="translate(2 2)" fill="white"/>
<path d="M2 2H22V22H2V2Z" fill="#1F2C45"/>
<path d="M9.61584 4.0817C13.0604 3.86439 16.0284 6.48193 16.2433 9.92664C16.4581 13.3714 13.8386 16.3375 10.3937 16.55C6.95221 16.7623 3.98966 14.1458 3.77496 10.7045C3.56028 7.26318 6.17467 4.29879 9.61584 4.0817Z" fill="#3974FD"/>
<path d="M16.5359 15.0708C17.8519 15.0154 18.964 16.0363 19.0214 17.3521C19.0787 18.6679 18.0595 19.7816 16.7437 19.8409C15.4252 19.9004 14.3086 18.8786 14.2512 17.56C14.1937 16.2413 15.2172 15.1263 16.5359 15.0708Z" fill="#FEC401"/>
</svg>
