<?xml version="1.0" standalone="no"?>
<!DOCTYPE svg PUBLIC "-//W3C//DTD SVG 20010904//EN"
 "http://www.w3.org/TR/2001/REC-SVG-20010904/DTD/svg10.dtd">
<svg version="1.0" xmlns="http://www.w3.org/2000/svg"
 width="48.000000pt" height="48.000000pt" viewBox="0 0 48.000000 48.000000"
 preserveAspectRatio="xMidYMid meet">

<g transform="translate(0.000000,48.000000) scale(0.100000,-0.100000)"
fill="#000000" stroke="none">
<path d="M16 464 c-24 -23 -24 -425 0 -448 13 -14 48 -16 228 -16 151 0 215 3
224 12 9 9 12 73 12 224 0 180 -2 215 -16 228 -23 24 -425 24 -448 0z m394
-43 c5 -11 10 -76 10 -145 0 -119 -1 -126 -20 -126 -19 0 -20 7 -20 125 l0
125 -150 0 -150 0 0 -150 0 -150 125 0 c118 0 125 -1 125 -20 0 -19 -7 -20
-133 -20 -90 0 -137 4 -145 12 -17 17 -17 339 0 356 8 8 63 12 180 12 155 0
168 -1 178 -19z m-190 -117 l45 -45 5 43 c4 38 8 43 33 46 l27 3 0 -85 c0 -64
-4 -88 -16 -100 -8 -9 -18 -16 -22 -16 -3 0 -28 21 -54 47 l-48 47 0 -31 c0
-46 -9 -63 -35 -63 -17 0 -24 7 -29 31 -5 29 0 127 10 157 7 24 41 11 84 -34z
m201 -184 c37 -20 21 -80 -22 -80 -58 0 -59 75 -1 89 2 1 12 -4 23 -9z"/>
</g>
</svg>
