<svg width="40" height="40" viewBox="0 0 40 40" fill="none" xmlns="http://www.w3.org/2000/svg">
<g clip-path="url(#clip0_139_4388)">
<g clip-path="url(#clip1_139_4388)">
<path d="M31.745 20.27C31.745 19.48 31.675 18.73 31.555 18H20.255V22.51H26.725C26.435 23.99 25.585 25.24 24.325 26.09V29.09H28.185C30.445 27 31.745 23.92 31.745 20.27Z" fill="#4285F4"/>
<path d="M20.255 32C23.495 32 26.205 30.92 28.185 29.09L24.325 26.09C23.245 26.81 21.875 27.25 20.255 27.25C17.125 27.25 14.475 25.14 13.525 22.29H9.545V25.38C11.515 29.3 15.565 32 20.255 32Z" fill="#34A853"/>
<path d="M13.525 22.29C13.275 21.57 13.145 20.8 13.145 20C13.145 19.2 13.285 18.43 13.525 17.71V14.62H9.545C8.725 16.24 8.255 18.06 8.255 20C8.255 21.94 8.725 23.76 9.545 25.38L13.525 22.29Z" fill="#FBBC05"/>
<path d="M20.255 12.75C22.025 12.75 23.605 13.36 24.855 14.55L28.275 11.13C26.205 9.19 23.495 8 20.255 8C15.565 8 11.515 10.7 9.545 14.62L13.525 17.71C14.475 14.86 17.125 12.75 20.255 12.75Z" fill="#EA4335"/>
</g>
</g>
<defs>
<clipPath id="clip0_139_4388">
<rect width="24" height="24" fill="white" transform="translate(8 8)"/>
</clipPath>
<clipPath id="clip1_139_4388">
<rect width="23.49" height="24" fill="white" transform="translate(8.255 8)"/>
</clipPath>
</defs>
</svg>
