<svg width="100%" height="100%" viewBox="0 0 24 24" fill="none" xmlns="http://www.w3.org/2000/svg">
<g clip-path="url(#clip0_814_122604)">
<path d="M1.20361 6.72784H17.081C18.8308 6.72784 20.3932 5.92551 21.4416 4.67298C19.2547 1.83234 15.8225 3.05176e-05 11.9605 3.05176e-05C7.23164 3.05176e-05 3.14476 2.74501 1.20361 6.72784Z" fill="#F0BF1A"/>
<path d="M15.7355 8.59668H0.482937C0.170601 9.66418 0 10.7922 0 11.9605C0 13.129 0.170601 14.2571 0.482937 15.3245H15.7355C17.567 15.3245 19.0995 13.8294 19.0995 11.9605C19.0995 10.0917 17.6044 8.59668 15.7355 8.59668Z" fill="#07A5DE"/>
<path d="M21.4824 19.1962C20.4406 17.9718 18.8908 17.1933 17.1557 17.1933H1.20361C3.14476 21.1762 7.23164 23.9211 11.9604 23.9211C15.8462 23.9211 19.2977 22.0668 21.4824 19.1962Z" fill="#3EBEB0"/>
<path d="M0.482937 8.59668C0.170517 9.66418 0 10.7922 0 11.9605C0 13.129 0.170517 14.2571 0.482937 15.3245H10.4654C10.7271 14.3153 10.8765 13.194 10.8765 11.9605C10.8765 10.7271 10.7271 9.60585 10.4654 8.59668H0.482937Z" fill="#231F20"/>
<path d="M5.94268 1.60724C3.92425 2.80329 2.24232 4.59734 1.1958 6.72788H10.0167C9.11966 4.67211 7.69938 2.95283 5.94268 1.60724Z" fill="#D7A229"/>
<path d="M6.31644 22.5008C8.03572 21.1179 9.41865 19.2864 10.2784 17.1933H1.1958C2.31709 19.436 4.11121 21.3048 6.31644 22.5008Z" fill="#019B8F"/>
</g>
<defs>
<clipPath id="clip0_814_122604">
<rect width="24" height="24" fill="white"/>
</clipPath>
</defs>
</svg>
