<svg width="100%" height="100%" viewBox="0 0 24 24" fill="none" xmlns="http://www.w3.org/2000/svg">
<path d="M20.6176 22.6398C20.6174 23.0005 20.474 23.3463 20.2189 23.6013C19.9639 23.8563 19.6181 23.9997 19.2575 24H4.74408C4.38343 24 4.03751 23.8569 3.78229 23.602C3.52706 23.3472 3.38339 23.0015 3.38281 22.6409V1.39811C3.38267 1.2193 3.41778 1.04222 3.48614 0.877002C3.5545 0.711781 3.65477 0.561659 3.7812 0.435224C3.90764 0.30879 4.05776 0.208525 4.22298 0.140165C4.3882 0.071805 4.56528 0.0366926 4.74408 0.0368351H14.0584L20.6176 6.72614V22.6398Z" fill="#23A566"/>
<path d="M14.7798 6.55166L20.6172 12.1311V6.68714H15.4463C15.2206 6.68969 14.998 6.63368 14.8004 6.52457L14.7798 6.55166Z" fill="#1C8F5A"/>
<path d="M20.6174 6.71532H15.4325C15.0718 6.71503 14.726 6.57163 14.471 6.31661C14.2159 6.06159 14.0726 5.71579 14.0723 5.35513V0L20.6174 6.71532Z" fill="#8ED1B1"/>
<path fill-rule="evenodd" clip-rule="evenodd" d="M16.4676 19.5824H7.49902V11.806H16.4676V19.5824ZM12.5409 12.9277V14.289H15.3654V12.9299L12.5409 12.9277ZM12.5409 15.1463V16.4469H15.3654V15.1398L12.5409 15.1463ZM12.5409 17.276V18.4801H15.3654V17.2695L12.5409 17.276ZM11.4322 18.4736V17.2695H8.60885V18.4736H11.4322ZM11.4322 16.4328V15.1398H8.60885V16.4393L11.4322 16.4328ZM11.4322 14.3031V12.9277H8.60885V14.289L11.4322 14.3031Z" fill="white"/>
</svg>
